%TF.GenerationSoftware,KiCad,Pcbnew,(6.0.5)*%
%TF.CreationDate,2022-05-15T18:57:47+01:00*%
%TF.ProjectId,adaptor,61646170-746f-4722-9e6b-696361645f70,rev?*%
%TF.SameCoordinates,Original*%
%TF.FileFunction,Copper,L1,Top*%
%TF.FilePolarity,Positive*%
%FSLAX46Y46*%
G04 Gerber Fmt 4.6, Leading zero omitted, Abs format (unit mm)*
G04 Created by KiCad (PCBNEW (6.0.5)) date 2022-05-15 18:57:47*
%MOMM*%
%LPD*%
G01*
G04 APERTURE LIST*
%TA.AperFunction,SMDPad,CuDef*%
%ADD10R,0.610000X2.000000*%
%TD*%
%TA.AperFunction,SMDPad,CuDef*%
%ADD11R,2.680000X3.600000*%
%TD*%
%TA.AperFunction,Conductor*%
%ADD12C,0.508000*%
%TD*%
G04 APERTURE END LIST*
D10*
%TO.P,J2,1,1*%
%TO.N,Net-(J1-Pad15)*%
X133746000Y-79596000D03*
%TO.P,J2,2,2*%
%TO.N,Net-(J1-Pad14)*%
X132746000Y-79596000D03*
%TO.P,J2,3,3*%
%TO.N,Net-(J1-Pad13)*%
X131746000Y-79596000D03*
%TO.P,J2,4,4*%
%TO.N,Net-(J1-Pad12)*%
X130746000Y-79596000D03*
%TO.P,J2,5,5*%
%TO.N,Net-(J1-Pad11)*%
X129746000Y-79596000D03*
%TO.P,J2,6,6*%
%TO.N,Net-(J1-Pad10)*%
X128746000Y-79596000D03*
%TO.P,J2,7,7*%
%TO.N,Net-(J1-Pad9)*%
X127746000Y-79596000D03*
%TO.P,J2,8,8*%
%TO.N,Net-(J1-Pad8)*%
X126746000Y-79596000D03*
%TO.P,J2,9,9*%
%TO.N,Net-(J1-Pad7)*%
X125746000Y-79596000D03*
%TO.P,J2,10,10*%
%TO.N,Net-(J1-Pad6)*%
X124746000Y-79596000D03*
%TO.P,J2,11,11*%
%TO.N,Net-(J1-Pad5)*%
X123746000Y-79596000D03*
%TO.P,J2,12,12*%
%TO.N,Net-(J1-Pad4)*%
X122746000Y-79596000D03*
%TO.P,J2,13,13*%
%TO.N,Net-(J1-Pad3)*%
X121746000Y-79596000D03*
%TO.P,J2,14,14*%
%TO.N,Net-(J1-Pad2)*%
X120746000Y-79596000D03*
%TO.P,J2,15,15*%
%TO.N,Net-(J1-Pad1)*%
X119746000Y-79596000D03*
D11*
%TO.P,J2,S1*%
%TO.N,N/C*%
X136736000Y-76796000D03*
%TO.P,J2,S2*%
X116756000Y-76796000D03*
%TD*%
D10*
%TO.P,J1,1,1*%
%TO.N,Net-(J1-Pad1)*%
X119746000Y-82202000D03*
%TO.P,J1,2,2*%
%TO.N,Net-(J1-Pad2)*%
X120746000Y-82202000D03*
%TO.P,J1,3,3*%
%TO.N,Net-(J1-Pad3)*%
X121746000Y-82202000D03*
%TO.P,J1,4,4*%
%TO.N,Net-(J1-Pad4)*%
X122746000Y-82202000D03*
%TO.P,J1,5,5*%
%TO.N,Net-(J1-Pad5)*%
X123746000Y-82202000D03*
%TO.P,J1,6,6*%
%TO.N,Net-(J1-Pad6)*%
X124746000Y-82202000D03*
%TO.P,J1,7,7*%
%TO.N,Net-(J1-Pad7)*%
X125746000Y-82202000D03*
%TO.P,J1,8,8*%
%TO.N,Net-(J1-Pad8)*%
X126746000Y-82202000D03*
%TO.P,J1,9,9*%
%TO.N,Net-(J1-Pad9)*%
X127746000Y-82202000D03*
%TO.P,J1,10,10*%
%TO.N,Net-(J1-Pad10)*%
X128746000Y-82202000D03*
%TO.P,J1,11,11*%
%TO.N,Net-(J1-Pad11)*%
X129746000Y-82202000D03*
%TO.P,J1,12,12*%
%TO.N,Net-(J1-Pad12)*%
X130746000Y-82202000D03*
%TO.P,J1,13,13*%
%TO.N,Net-(J1-Pad13)*%
X131746000Y-82202000D03*
%TO.P,J1,14,14*%
%TO.N,Net-(J1-Pad14)*%
X132746000Y-82202000D03*
%TO.P,J1,15,15*%
%TO.N,Net-(J1-Pad15)*%
X133746000Y-82202000D03*
D11*
%TO.P,J1,S1*%
%TO.N,N/C*%
X116756000Y-85002000D03*
%TO.P,J1,S2*%
X136736000Y-85002000D03*
%TD*%
D12*
%TO.N,Net-(J1-Pad1)*%
X119746000Y-82837000D02*
X119746000Y-79469000D01*
%TO.N,Net-(J1-Pad2)*%
X120746000Y-79469000D02*
X120746000Y-82837000D01*
%TO.N,Net-(J1-Pad3)*%
X121746000Y-82837000D02*
X121746000Y-79469000D01*
%TO.N,Net-(J1-Pad4)*%
X122746000Y-82837000D02*
X122746000Y-79469000D01*
%TO.N,Net-(J1-Pad5)*%
X123746000Y-82837000D02*
X123746000Y-79469000D01*
%TO.N,Net-(J1-Pad6)*%
X124746000Y-82837000D02*
X124746000Y-79469000D01*
%TO.N,Net-(J1-Pad8)*%
X126746000Y-82837000D02*
X126746000Y-79469000D01*
%TO.N,Net-(J1-Pad9)*%
X127746000Y-82837000D02*
X127746000Y-79469000D01*
%TO.N,Net-(J1-Pad12)*%
X130746000Y-82837000D02*
X130746000Y-79469000D01*
%TO.N,Net-(J1-Pad14)*%
X132746000Y-79469000D02*
X132746000Y-82837000D01*
%TO.N,Net-(J1-Pad15)*%
X133746000Y-79469000D02*
X133746000Y-82837000D01*
%TO.N,Net-(J1-Pad7)*%
X125746000Y-82837000D02*
X125746000Y-79469000D01*
%TO.N,Net-(J1-Pad10)*%
X128746000Y-82837000D02*
X128746000Y-79469000D01*
%TO.N,Net-(J1-Pad11)*%
X129746000Y-82837000D02*
X129746000Y-79469000D01*
%TO.N,Net-(J1-Pad13)*%
X131746000Y-79469000D02*
X131746000Y-82837000D01*
%TD*%
M02*
