%TF.GenerationSoftware,KiCad,Pcbnew,(6.0.0)*%
%TF.CreationDate,2022-03-05T02:08:58+00:00*%
%TF.ProjectId,adaptor,61646170-746f-4722-9e6b-696361645f70,rev?*%
%TF.SameCoordinates,Original*%
%TF.FileFunction,Copper,L1,Top*%
%TF.FilePolarity,Positive*%
%FSLAX46Y46*%
G04 Gerber Fmt 4.6, Leading zero omitted, Abs format (unit mm)*
G04 Created by KiCad (PCBNEW (6.0.0)) date 2022-03-05 02:08:58*
%MOMM*%
%LPD*%
G01*
G04 APERTURE LIST*
%TA.AperFunction,SMDPad,CuDef*%
%ADD10R,0.610000X2.000000*%
%TD*%
%TA.AperFunction,SMDPad,CuDef*%
%ADD11R,2.680000X3.600000*%
%TD*%
%TA.AperFunction,ViaPad*%
%ADD12C,0.800000*%
%TD*%
%TA.AperFunction,Conductor*%
%ADD13C,0.508000*%
%TD*%
G04 APERTURE END LIST*
D10*
%TO.P,J1,1,1*%
%TO.N,Net-(J1-Pad1)*%
X119746000Y-111666000D03*
%TO.P,J1,2,2*%
%TO.N,Net-(J1-Pad2)*%
X120746000Y-111666000D03*
%TO.P,J1,3,3*%
%TO.N,Net-(J1-Pad3)*%
X121746000Y-111666000D03*
%TO.P,J1,4,4*%
%TO.N,Net-(J1-Pad4)*%
X122746000Y-111666000D03*
%TO.P,J1,5,5*%
%TO.N,Net-(J1-Pad5)*%
X123746000Y-111666000D03*
%TO.P,J1,6,6*%
%TO.N,Net-(J1-Pad6)*%
X124746000Y-111666000D03*
%TO.P,J1,7,7*%
%TO.N,Net-(J1-Pad7)*%
X125746000Y-111666000D03*
%TO.P,J1,8,8*%
%TO.N,Net-(J1-Pad8)*%
X126746000Y-111666000D03*
%TO.P,J1,9,9*%
%TO.N,Net-(J1-Pad9)*%
X127746000Y-111666000D03*
%TO.P,J1,10,10*%
%TO.N,Net-(J1-Pad10)*%
X128746000Y-111666000D03*
%TO.P,J1,11,11*%
%TO.N,Net-(J1-Pad11)*%
X129746000Y-111666000D03*
%TO.P,J1,12,12*%
%TO.N,Net-(J1-Pad12)*%
X130746000Y-111666000D03*
%TO.P,J1,13,13*%
%TO.N,Net-(J1-Pad13)*%
X131746000Y-111666000D03*
%TO.P,J1,14,14*%
%TO.N,Net-(J1-Pad14)*%
X132746000Y-111666000D03*
%TO.P,J1,15,15*%
%TO.N,Net-(J1-Pad15)*%
X133746000Y-111666000D03*
D11*
%TO.P,J1,MP1,MP1*%
%TO.N,unconnected-(J1-PadMP1)*%
X116756000Y-114466000D03*
%TO.P,J1,MP2,MP2*%
%TO.N,unconnected-(J1-PadMP2)*%
X136736000Y-114466000D03*
%TD*%
D12*
%TO.N,Net-(J1-Pad15)*%
X133746000Y-106520000D03*
%TO.N,Net-(J1-Pad14)*%
X132746000Y-106520000D03*
%TO.N,Net-(J1-Pad13)*%
X131746000Y-106520000D03*
%TO.N,Net-(J1-Pad12)*%
X130746000Y-106520000D03*
%TO.N,Net-(J1-Pad11)*%
X129746000Y-106520000D03*
%TO.N,Net-(J1-Pad10)*%
X128746000Y-106520000D03*
%TO.N,Net-(J1-Pad9)*%
X127746000Y-106520000D03*
%TO.N,Net-(J1-Pad8)*%
X126746000Y-106520000D03*
%TO.N,Net-(J1-Pad7)*%
X125746000Y-106520000D03*
%TO.N,Net-(J1-Pad6)*%
X124746000Y-106520000D03*
%TO.N,Net-(J1-Pad5)*%
X123746000Y-106520000D03*
%TO.N,Net-(J1-Pad4)*%
X122746000Y-106520000D03*
%TO.N,Net-(J1-Pad3)*%
X121746000Y-106520000D03*
%TO.N,Net-(J1-Pad2)*%
X120746000Y-106520000D03*
%TO.N,Net-(J1-Pad1)*%
X119746000Y-106520000D03*
%TD*%
D13*
%TO.N,Net-(J1-Pad15)*%
X133746000Y-111666000D02*
X133746000Y-106520000D01*
%TO.N,Net-(J1-Pad14)*%
X132746000Y-111666000D02*
X132746000Y-106520000D01*
%TO.N,Net-(J1-Pad13)*%
X131746000Y-111666000D02*
X131746000Y-106520000D01*
%TO.N,Net-(J1-Pad12)*%
X130746000Y-111666000D02*
X130746000Y-106520000D01*
%TO.N,Net-(J1-Pad11)*%
X129746000Y-111666000D02*
X129746000Y-106520000D01*
%TO.N,Net-(J1-Pad10)*%
X128746000Y-111666000D02*
X128746000Y-106520000D01*
%TO.N,Net-(J1-Pad9)*%
X127746000Y-111666000D02*
X127746000Y-106520000D01*
%TO.N,Net-(J1-Pad8)*%
X126746000Y-111666000D02*
X126746000Y-106520000D01*
%TO.N,Net-(J1-Pad7)*%
X125746000Y-111666000D02*
X125746000Y-106520000D01*
%TO.N,Net-(J1-Pad6)*%
X124746000Y-111666000D02*
X124746000Y-106520000D01*
%TO.N,Net-(J1-Pad5)*%
X123746000Y-111666000D02*
X123746000Y-106520000D01*
%TO.N,Net-(J1-Pad4)*%
X122746000Y-111666000D02*
X122746000Y-106520000D01*
%TO.N,Net-(J1-Pad3)*%
X121746000Y-111666000D02*
X121746000Y-106520000D01*
%TO.N,Net-(J1-Pad2)*%
X120746000Y-111666000D02*
X120746000Y-106520000D01*
%TO.N,Net-(J1-Pad1)*%
X119746000Y-111666000D02*
X119746000Y-106520000D01*
%TD*%
M02*
