%TF.GenerationSoftware,KiCad,Pcbnew,(6.0.5)*%
%TF.CreationDate,2022-05-15T18:57:47+01:00*%
%TF.ProjectId,adaptor,61646170-746f-4722-9e6b-696361645f70,rev?*%
%TF.SameCoordinates,Original*%
%TF.FileFunction,Legend,Top*%
%TF.FilePolarity,Positive*%
%FSLAX46Y46*%
G04 Gerber Fmt 4.6, Leading zero omitted, Abs format (unit mm)*
G04 Created by KiCad (PCBNEW (6.0.5)) date 2022-05-15 18:57:47*
%MOMM*%
%LPD*%
G01*
G04 APERTURE LIST*
%ADD10C,0.254000*%
%ADD11C,0.150000*%
%ADD12C,0.127000*%
%ADD13C,0.200000*%
G04 APERTURE END LIST*
D10*
X122053047Y-87073619D02*
X122053047Y-87799333D01*
X122004666Y-87944476D01*
X121907904Y-88041238D01*
X121762761Y-88089619D01*
X121666000Y-88089619D01*
X123020666Y-88089619D02*
X122536857Y-88089619D01*
X122536857Y-87073619D01*
X123939904Y-87992857D02*
X123891523Y-88041238D01*
X123746380Y-88089619D01*
X123649619Y-88089619D01*
X123504476Y-88041238D01*
X123407714Y-87944476D01*
X123359333Y-87847714D01*
X123310952Y-87654190D01*
X123310952Y-87509047D01*
X123359333Y-87315523D01*
X123407714Y-87218761D01*
X123504476Y-87122000D01*
X123649619Y-87073619D01*
X123746380Y-87073619D01*
X123891523Y-87122000D01*
X123939904Y-87170380D01*
X124665619Y-87073619D02*
X124665619Y-87799333D01*
X124617238Y-87944476D01*
X124520476Y-88041238D01*
X124375333Y-88089619D01*
X124278571Y-88089619D01*
X125633238Y-88089619D02*
X125149428Y-88089619D01*
X125149428Y-87073619D01*
X126552476Y-87992857D02*
X126504095Y-88041238D01*
X126358952Y-88089619D01*
X126262190Y-88089619D01*
X126117047Y-88041238D01*
X126020285Y-87944476D01*
X125971904Y-87847714D01*
X125923523Y-87654190D01*
X125923523Y-87509047D01*
X125971904Y-87315523D01*
X126020285Y-87218761D01*
X126117047Y-87122000D01*
X126262190Y-87073619D01*
X126358952Y-87073619D01*
X126504095Y-87122000D01*
X126552476Y-87170380D01*
X127278190Y-87073619D02*
X127278190Y-87799333D01*
X127229809Y-87944476D01*
X127133047Y-88041238D01*
X126987904Y-88089619D01*
X126891142Y-88089619D01*
X128245809Y-88089619D02*
X127762000Y-88089619D01*
X127762000Y-87073619D01*
X129165047Y-87992857D02*
X129116666Y-88041238D01*
X128971523Y-88089619D01*
X128874761Y-88089619D01*
X128729619Y-88041238D01*
X128632857Y-87944476D01*
X128584476Y-87847714D01*
X128536095Y-87654190D01*
X128536095Y-87509047D01*
X128584476Y-87315523D01*
X128632857Y-87218761D01*
X128729619Y-87122000D01*
X128874761Y-87073619D01*
X128971523Y-87073619D01*
X129116666Y-87122000D01*
X129165047Y-87170380D01*
X129890761Y-87073619D02*
X129890761Y-87799333D01*
X129842380Y-87944476D01*
X129745619Y-88041238D01*
X129600476Y-88089619D01*
X129503714Y-88089619D01*
X130858380Y-88089619D02*
X130374571Y-88089619D01*
X130374571Y-87073619D01*
X131777619Y-87992857D02*
X131729238Y-88041238D01*
X131584095Y-88089619D01*
X131487333Y-88089619D01*
X131342190Y-88041238D01*
X131245428Y-87944476D01*
X131197047Y-87847714D01*
X131148666Y-87654190D01*
X131148666Y-87509047D01*
X131197047Y-87315523D01*
X131245428Y-87218761D01*
X131342190Y-87122000D01*
X131487333Y-87073619D01*
X131584095Y-87073619D01*
X131729238Y-87122000D01*
X131777619Y-87170380D01*
D11*
%TO.C,J2*%
X134737666Y-81433380D02*
X134737666Y-82147666D01*
X134690047Y-82290523D01*
X134594809Y-82385761D01*
X134451952Y-82433380D01*
X134356714Y-82433380D01*
X135166238Y-81528619D02*
X135213857Y-81481000D01*
X135309095Y-81433380D01*
X135547190Y-81433380D01*
X135642428Y-81481000D01*
X135690047Y-81528619D01*
X135737666Y-81623857D01*
X135737666Y-81719095D01*
X135690047Y-81861952D01*
X135118619Y-82433380D01*
X135737666Y-82433380D01*
%TO.C,J1*%
X118087666Y-79269380D02*
X118087666Y-79983666D01*
X118040047Y-80126523D01*
X117944809Y-80221761D01*
X117801952Y-80269380D01*
X117706714Y-80269380D01*
X119087666Y-80269380D02*
X118516238Y-80269380D01*
X118801952Y-80269380D02*
X118801952Y-79269380D01*
X118706714Y-79412238D01*
X118611476Y-79507476D01*
X118516238Y-79555095D01*
D12*
%TO.C,J2*%
X138206000Y-73196000D02*
X138206000Y-74086000D01*
X137421000Y-74596000D02*
X137421000Y-74086000D01*
X119106000Y-78596000D02*
X118546000Y-78596000D01*
X116071000Y-74596000D02*
X116071000Y-74086000D01*
X115286000Y-74086000D02*
X116071000Y-74086000D01*
X137421000Y-74086000D02*
X138206000Y-74086000D01*
X134946000Y-78596000D02*
X134386000Y-78596000D01*
X115286000Y-73196000D02*
X138206000Y-73196000D01*
X115286000Y-74086000D02*
X115286000Y-73196000D01*
D13*
X134846000Y-79766000D02*
G75*
G03*
X134846000Y-79766000I-100000J0D01*
G01*
D12*
%TO.C,J1*%
X138206000Y-87712000D02*
X138206000Y-88602000D01*
X118546000Y-83202000D02*
X119106000Y-83202000D01*
X138206000Y-87712000D02*
X137421000Y-87712000D01*
X115286000Y-88602000D02*
X115286000Y-87712000D01*
X137421000Y-87202000D02*
X137421000Y-87712000D01*
X134386000Y-83202000D02*
X134946000Y-83202000D01*
X116071000Y-87202000D02*
X116071000Y-87712000D01*
X116071000Y-87712000D02*
X115286000Y-87712000D01*
X138206000Y-88602000D02*
X115286000Y-88602000D01*
D13*
X118846000Y-82032000D02*
G75*
G03*
X118846000Y-82032000I-100000J0D01*
G01*
%TD*%
M02*
