%TF.GenerationSoftware,KiCad,Pcbnew,(6.0.0)*%
%TF.CreationDate,2022-03-05T02:08:58+00:00*%
%TF.ProjectId,adaptor,61646170-746f-4722-9e6b-696361645f70,rev?*%
%TF.SameCoordinates,Original*%
%TF.FileFunction,Legend,Top*%
%TF.FilePolarity,Positive*%
%FSLAX46Y46*%
G04 Gerber Fmt 4.6, Leading zero omitted, Abs format (unit mm)*
G04 Created by KiCad (PCBNEW (6.0.0)) date 2022-03-05 02:08:58*
%MOMM*%
%LPD*%
G01*
G04 APERTURE LIST*
%ADD10C,0.150000*%
%ADD11C,0.254000*%
%ADD12C,0.200000*%
%ADD13C,0.100000*%
G04 APERTURE END LIST*
D10*
X122126952Y-108672380D02*
X122126952Y-109386666D01*
X122079333Y-109529523D01*
X121984095Y-109624761D01*
X121841238Y-109672380D01*
X121746000Y-109672380D01*
X123079333Y-109672380D02*
X122603142Y-109672380D01*
X122603142Y-108672380D01*
X123984095Y-109577142D02*
X123936476Y-109624761D01*
X123793619Y-109672380D01*
X123698380Y-109672380D01*
X123555523Y-109624761D01*
X123460285Y-109529523D01*
X123412666Y-109434285D01*
X123365047Y-109243809D01*
X123365047Y-109100952D01*
X123412666Y-108910476D01*
X123460285Y-108815238D01*
X123555523Y-108720000D01*
X123698380Y-108672380D01*
X123793619Y-108672380D01*
X123936476Y-108720000D01*
X123984095Y-108767619D01*
X124698380Y-108672380D02*
X124698380Y-109386666D01*
X124650761Y-109529523D01*
X124555523Y-109624761D01*
X124412666Y-109672380D01*
X124317428Y-109672380D01*
X125650761Y-109672380D02*
X125174571Y-109672380D01*
X125174571Y-108672380D01*
X126555523Y-109577142D02*
X126507904Y-109624761D01*
X126365047Y-109672380D01*
X126269809Y-109672380D01*
X126126952Y-109624761D01*
X126031714Y-109529523D01*
X125984095Y-109434285D01*
X125936476Y-109243809D01*
X125936476Y-109100952D01*
X125984095Y-108910476D01*
X126031714Y-108815238D01*
X126126952Y-108720000D01*
X126269809Y-108672380D01*
X126365047Y-108672380D01*
X126507904Y-108720000D01*
X126555523Y-108767619D01*
X127269809Y-108672380D02*
X127269809Y-109386666D01*
X127222190Y-109529523D01*
X127126952Y-109624761D01*
X126984095Y-109672380D01*
X126888857Y-109672380D01*
X128222190Y-109672380D02*
X127746000Y-109672380D01*
X127746000Y-108672380D01*
X129126952Y-109577142D02*
X129079333Y-109624761D01*
X128936476Y-109672380D01*
X128841238Y-109672380D01*
X128698380Y-109624761D01*
X128603142Y-109529523D01*
X128555523Y-109434285D01*
X128507904Y-109243809D01*
X128507904Y-109100952D01*
X128555523Y-108910476D01*
X128603142Y-108815238D01*
X128698380Y-108720000D01*
X128841238Y-108672380D01*
X128936476Y-108672380D01*
X129079333Y-108720000D01*
X129126952Y-108767619D01*
X129841238Y-108672380D02*
X129841238Y-109386666D01*
X129793619Y-109529523D01*
X129698380Y-109624761D01*
X129555523Y-109672380D01*
X129460285Y-109672380D01*
X130793619Y-109672380D02*
X130317428Y-109672380D01*
X130317428Y-108672380D01*
X131698380Y-109577142D02*
X131650761Y-109624761D01*
X131507904Y-109672380D01*
X131412666Y-109672380D01*
X131269809Y-109624761D01*
X131174571Y-109529523D01*
X131126952Y-109434285D01*
X131079333Y-109243809D01*
X131079333Y-109100952D01*
X131126952Y-108910476D01*
X131174571Y-108815238D01*
X131269809Y-108720000D01*
X131412666Y-108672380D01*
X131507904Y-108672380D01*
X131650761Y-108720000D01*
X131698380Y-108767619D01*
D11*
%TO.C,J1*%
X126322666Y-114620523D02*
X126322666Y-115527666D01*
X126262190Y-115709095D01*
X126141238Y-115830047D01*
X125959809Y-115890523D01*
X125838857Y-115890523D01*
X127592666Y-115890523D02*
X126866952Y-115890523D01*
X127229809Y-115890523D02*
X127229809Y-114620523D01*
X127108857Y-114801952D01*
X126987904Y-114922904D01*
X126866952Y-114983380D01*
D12*
X118946000Y-111466000D02*
X118946000Y-111466000D01*
X118946000Y-111666000D02*
X118946000Y-111666000D01*
D13*
X115286000Y-117166000D02*
X115286000Y-118066000D01*
X115286000Y-118066000D02*
X138206000Y-118066000D01*
X138206000Y-118066000D02*
X138206000Y-117166000D01*
X134546000Y-112666000D02*
X134946000Y-112666000D01*
X118546000Y-112666000D02*
X118946000Y-112666000D01*
D12*
X118946000Y-111466000D02*
G75*
G03*
X118946000Y-111666000I0J-100000D01*
G01*
X118946000Y-111666000D02*
G75*
G03*
X118946000Y-111466000I0J100000D01*
G01*
%TD*%
M02*
