999
"DXF R12 Output" (www.mydxf.blogspot.com)
 0 
SECTION
 2 
HEADER
 9 
$ACADVER
 1 
AC1009
 9 
$EXTMIN
 10 
 0 
 20 
 0 
 9 
$EXTMAX
 10 
 8.5 
 20 
 11 
 0 
ENDSEC
 0 
SECTION
 2 
ENTITIES
0
LINE
8
Layer 1
10
27.427000
20
-73.763700
11
26.365668
21
-73.646366
0
LINE
8
Layer 1
10
26.365668
20
-73.646366
11
25.400330
21
-73.294365
0
LINE
8
Layer 1
10
25.400330
20
-73.294365
11
24.578996
21
-72.734366
0
LINE
8
Layer 1
10
24.578996
20
-72.734366
11
23.949660
21
-71.993035
0
LINE
8
Layer 1
10
23.949660
20
-71.993035
11
23.565660
21
-71.081035
0
LINE
8
Layer 1
10
23.565660
20
-71.081035
11
23.437660
21
-70.051705
0
LINE
8
Layer 1
10
23.437660
20
-70.051705
11
23.672327
21
-68.494372
0
LINE
8
Layer 1
10
23.672327
20
-68.494372
11
24.376326
21
-66.894375
0
LINE
8
Layer 1
10
24.376326
20
-66.894375
11
25.458993
21
-65.395712
0
LINE
8
Layer 1
10
25.458993
20
-65.395712
11
26.786996
21
-64.185045
0
LINE
8
Layer 1
10
26.786996
20
-64.185045
11
28.242996
21
-63.369045
0
LINE
8
Layer 1
10
28.242996
20
-63.369045
11
29.666996
21
-63.097045
0
LINE
8
Layer 1
10
29.666996
20
-63.097045
11
30.506996
21
-63.171712
0
LINE
8
Layer 1
10
30.506996
20
-63.171712
11
31.234996
21
-63.395712
0
LINE
8
Layer 1
10
31.234996
20
-63.395712
11
31.850996
21
-63.769047
0
LINE
8
Layer 1
10
31.850996
20
-63.769047
11
32.354996
21
-64.291715
0
LINE
8
Layer 1
10
32.354996
20
-64.291715
11
32.696329
21
-65.102381
0
LINE
8
Layer 1
10
32.696329
20
-65.102381
11
32.600328
21
-65.550382
0
LINE
8
Layer 1
10
32.600328
20
-65.550382
11
32.312326
21
-65.955716
0
LINE
8
Layer 1
10
32.312326
20
-65.955716
11
31.901660
21
-66.227716
0
LINE
8
Layer 1
10
31.901660
20
-66.227716
11
31.437661
21
-66.318383
0
LINE
8
Layer 1
10
31.437661
20
-66.318383
11
31.069661
21
-66.254383
0
LINE
8
Layer 1
10
31.069661
20
-66.254383
11
30.818994
21
-66.062382
0
LINE
8
Layer 1
10
30.818994
20
-66.062382
11
30.136327
21
-65.294383
0
LINE
8
Layer 1
10
30.136327
20
-65.294383
11
29.741661
21
-65.102382
0
LINE
8
Layer 1
10
29.741661
20
-65.102382
11
29.240329
21
-65.038382
0
LINE
8
Layer 1
10
29.240329
20
-65.038382
11
28.424330
21
-65.230382
0
LINE
8
Layer 1
10
28.424330
20
-65.230382
11
27.554999
21
-65.806381
0
LINE
8
Layer 1
10
27.554999
20
-65.806381
11
26.749666
21
-66.659717
0
LINE
8
Layer 1
10
26.749666
20
-66.659717
11
26.082999
21
-67.683721
0
LINE
8
Layer 1
10
26.082999
20
-67.683721
11
25.634999
21
-68.729054
0
LINE
8
Layer 1
10
25.634999
20
-68.729054
11
25.485666
21
-69.689051
0
LINE
8
Layer 1
10
25.485666
20
-69.689051
11
25.645666
21
-70.558384
0
LINE
8
Layer 1
10
25.645666
20
-70.558384
11
26.125666
21
-71.246381
0
LINE
8
Layer 1
10
26.125666
20
-71.246381
11
26.808334
21
-71.694379
0
LINE
8
Layer 1
10
26.808334
20
-71.694379
11
27.576336
21
-71.843712
0
LINE
8
Layer 1
10
27.576336
20
-71.843712
11
28.355004
21
-71.763712
0
LINE
8
Layer 1
10
28.355004
20
-71.763712
11
29.027006
21
-71.523712
0
LINE
8
Layer 1
10
29.027006
20
-71.523712
11
30.200346
21
-70.627714
0
LINE
8
Layer 1
10
30.200346
20
-70.627714
11
30.669678
21
-70.243714
0
LINE
8
Layer 1
10
30.669678
20
-70.243714
11
31.224343
21
-70.094379
0
LINE
8
Layer 1
10
31.224343
20
-70.094379
11
31.800344
21
-70.329047
0
LINE
8
Layer 1
10
31.800344
20
-70.329047
11
32.035012
21
-70.883715
0
LINE
8
Layer 1
10
32.035012
20
-70.883715
11
31.907010
21
-71.374381
0
LINE
8
Layer 1
10
31.907010
20
-71.374381
11
31.629679
21
-71.758381
0
LINE
8
Layer 1
10
31.629679
20
-71.758381
11
30.749679
21
-72.531713
0
LINE
8
Layer 1
10
30.749679
20
-72.531713
11
29.688349
21
-73.187711
0
LINE
8
Layer 1
10
29.688349
20
-73.187711
11
28.547017
21
-73.619712
0
LINE
8
Layer 1
10
28.547017
20
-73.619712
11
27.427019
21
-73.763712
0
LINE
8
Layer 1
10
27.427019
20
-73.763712
11
27.427000
21
-73.763700
0
LINE
8
Layer 1
10
36.856300
20
-62.222400
11
36.280299
21
-62.009068
0
LINE
8
Layer 1
10
36.280299
20
-62.009068
11
36.045631
21
-61.433067
0
LINE
8
Layer 1
10
36.045631
20
-61.433067
11
36.088300
21
-61.177066
0
LINE
8
Layer 1
10
36.088300
20
-61.177066
11
36.280298
21
-60.387733
0
LINE
8
Layer 1
10
36.280298
20
-60.387733
11
36.440297
21
-60.009067
0
LINE
8
Layer 1
10
36.440297
20
-60.009067
11
36.749630
21
-59.683733
0
LINE
8
Layer 1
10
36.749630
20
-59.683733
11
37.517632
21
-59.385066
0
LINE
8
Layer 1
10
37.517632
20
-59.385066
11
38.093630
21
-59.641067
0
LINE
8
Layer 1
10
38.093630
20
-59.641067
11
38.328298
21
-60.217068
0
LINE
8
Layer 1
10
38.328298
20
-60.217068
11
38.306962
21
-60.409066
0
LINE
8
Layer 1
10
38.306962
20
-60.409066
11
38.093628
21
-61.219735
0
LINE
8
Layer 1
10
38.093628
20
-61.219735
11
37.624296
21
-61.945068
0
LINE
8
Layer 1
10
37.624296
20
-61.945068
11
36.856297
21
-62.222399
0
LINE
8
Layer 1
10
36.856297
20
-62.222399
11
36.856300
21
-62.222400
0
LINE
8
Layer 1
10
34.317630
20
-73.763700
11
33.698963
21
-73.529032
0
LINE
8
Layer 1
10
33.698963
20
-73.529032
11
33.464295
21
-72.931698
0
LINE
8
Layer 1
10
33.464295
20
-72.931698
11
33.485631
21
-72.718366
0
LINE
8
Layer 1
10
33.485631
20
-72.718366
11
35.384301
21
-64.227696
0
LINE
8
Layer 1
10
35.384301
20
-64.227696
11
35.544300
21
-63.833030
0
LINE
8
Layer 1
10
35.544300
20
-63.833030
11
35.853633
21
-63.502363
0
LINE
8
Layer 1
10
35.853633
20
-63.502363
11
36.248299
21
-63.262363
0
LINE
8
Layer 1
10
36.248299
20
-63.262363
11
36.664299
21
-63.182363
0
LINE
8
Layer 1
10
36.664299
20
-63.182363
11
37.261633
21
-63.417031
0
LINE
8
Layer 1
10
37.261633
20
-63.417031
11
37.496301
21
-63.993029
0
LINE
8
Layer 1
10
37.496301
20
-63.993029
11
37.474965
21
-64.227697
0
LINE
8
Layer 1
10
37.474965
20
-64.227697
11
35.576295
21
-72.718367
0
LINE
8
Layer 1
10
35.576295
20
-72.718367
11
35.416296
21
-73.118366
0
LINE
8
Layer 1
10
35.416296
20
-73.118366
11
35.106963
21
-73.465033
0
LINE
8
Layer 1
10
35.106963
20
-73.465033
11
34.728296
21
-73.689033
0
LINE
8
Layer 1
10
34.728296
20
-73.689033
11
34.317630
21
-73.763700
0
LINE
8
Layer 1
10
34.317630
20
-73.763700
11
34.317630
21
-73.763700
0
LINE
8
Layer 1
10
39.480200
20
-73.763700
11
39.112200
21
-73.689033
0
LINE
8
Layer 1
10
39.112200
20
-73.689033
11
38.818866
21
-73.465033
0
LINE
8
Layer 1
10
38.818866
20
-73.465033
11
38.664199
21
-73.145033
0
LINE
8
Layer 1
10
38.664199
20
-73.145033
11
38.669534
21
-72.782366
0
LINE
8
Layer 1
10
38.669534
20
-72.782366
11
40.504204
21
-64.121036
0
LINE
8
Layer 1
10
40.504204
20
-64.121036
11
40.664203
21
-63.726368
0
LINE
8
Layer 1
10
40.664203
20
-63.726368
11
40.973536
21
-63.395703
0
LINE
8
Layer 1
10
40.973536
20
-63.395703
11
41.784202
21
-63.097036
0
LINE
8
Layer 1
10
41.784202
20
-63.097036
11
42.338870
21
-63.331701
0
LINE
8
Layer 1
10
42.338870
20
-63.331701
11
42.573538
21
-63.886369
0
LINE
8
Layer 1
10
42.573538
20
-63.886369
11
42.552202
21
-64.121037
0
LINE
8
Layer 1
10
42.552202
20
-64.121037
11
42.210869
21
-65.742367
0
LINE
8
Layer 1
10
42.210869
20
-65.742367
11
43.128202
21
-64.617034
0
LINE
8
Layer 1
10
43.128202
20
-64.617034
11
44.130869
21
-63.801037
0
LINE
8
Layer 1
10
44.130869
20
-63.801037
11
45.202872
21
-63.289037
0
LINE
8
Layer 1
10
45.202872
20
-63.289037
11
46.285539
21
-63.118370
0
LINE
8
Layer 1
10
46.285539
20
-63.118370
11
47.357537
21
-63.273037
0
LINE
8
Layer 1
10
47.357537
20
-63.273037
11
48.098869
21
-63.737037
0
LINE
8
Layer 1
10
48.098869
20
-63.737037
11
48.546870
21
-64.542367
0
LINE
8
Layer 1
10
48.546870
20
-64.542367
11
48.696203
21
-65.763697
0
LINE
8
Layer 1
10
48.696203
20
-65.763697
11
48.589537
21
-67.235700
0
LINE
8
Layer 1
10
48.589537
20
-67.235700
11
48.269537
21
-69.006367
0
LINE
8
Layer 1
10
48.269537
20
-69.006367
11
47.458868
21
-72.739697
0
LINE
8
Layer 1
10
47.458868
20
-72.739697
11
47.032202
21
-73.465030
0
LINE
8
Layer 1
10
47.032202
20
-73.465030
11
46.669536
21
-73.689030
0
LINE
8
Layer 1
10
46.669536
20
-73.689030
11
46.264203
21
-73.763697
0
LINE
8
Layer 1
10
46.264203
20
-73.763697
11
45.896203
21
-73.689030
0
LINE
8
Layer 1
10
45.896203
20
-73.689030
11
45.602869
21
-73.465030
0
LINE
8
Layer 1
10
45.602869
20
-73.465030
11
45.448202
21
-73.129030
0
LINE
8
Layer 1
10
45.448202
20
-73.129030
11
45.453537
21
-72.761030
0
LINE
8
Layer 1
10
45.453537
20
-72.761030
11
46.200203
21
-69.219700
0
LINE
8
Layer 1
10
46.200203
20
-69.219700
11
46.605536
21
-66.382370
0
LINE
8
Layer 1
10
46.605536
20
-66.382370
11
46.546869
21
-65.769036
0
LINE
8
Layer 1
10
46.546869
20
-65.769036
11
46.370868
21
-65.379700
0
LINE
8
Layer 1
10
46.370868
20
-65.379700
11
46.077536
21
-65.171700
0
LINE
8
Layer 1
10
46.077536
20
-65.171700
11
45.666868
21
-65.102366
0
LINE
8
Layer 1
10
45.666868
20
-65.102366
11
44.994868
21
-65.241033
0
LINE
8
Layer 1
10
44.994868
20
-65.241033
11
44.258868
21
-65.657034
0
LINE
8
Layer 1
10
44.258868
20
-65.657034
11
43.506868
21
-66.307700
0
LINE
8
Layer 1
10
43.506868
20
-66.307700
11
42.744198
21
-67.193034
0
LINE
8
Layer 1
10
42.744198
20
-67.193034
11
41.698868
21
-68.899704
0
LINE
8
Layer 1
10
41.698868
20
-68.899704
11
41.080201
21
-70.905034
0
LINE
8
Layer 1
10
41.080201
20
-70.905034
11
40.696201
21
-72.697034
0
LINE
8
Layer 1
10
40.696201
20
-72.697034
11
40.546868
21
-73.123700
0
LINE
8
Layer 1
10
40.546868
20
-73.123700
11
40.269535
21
-73.465033
0
LINE
8
Layer 1
10
40.269535
20
-73.465033
11
39.912202
21
-73.689033
0
LINE
8
Layer 1
10
39.912202
20
-73.689033
11
39.480202
21
-73.763700
0
LINE
8
Layer 1
10
39.480202
20
-73.763700
11
39.480200
21
-73.763700
0
LINE
8
Layer 1
10
51.064200
20
-73.763700
11
50.696200
21
-73.689033
0
LINE
8
Layer 1
10
50.696200
20
-73.689033
11
50.402866
21
-73.465033
0
LINE
8
Layer 1
10
50.402866
20
-73.465033
11
50.248199
21
-73.145033
0
LINE
8
Layer 1
10
50.248199
20
-73.145033
11
50.253534
21
-72.782366
0
LINE
8
Layer 1
10
50.253534
20
-72.782366
11
52.088204
21
-64.121036
0
LINE
8
Layer 1
10
52.088204
20
-64.121036
11
52.248203
21
-63.726368
0
LINE
8
Layer 1
10
52.248203
20
-63.726368
11
52.557536
21
-63.395703
0
LINE
8
Layer 1
10
52.557536
20
-63.395703
11
53.368202
21
-63.097036
0
LINE
8
Layer 1
10
53.368202
20
-63.097036
11
53.922870
21
-63.331701
0
LINE
8
Layer 1
10
53.922870
20
-63.331701
11
54.157538
21
-63.886369
0
LINE
8
Layer 1
10
54.157538
20
-63.886369
11
54.136202
21
-64.121037
0
LINE
8
Layer 1
10
54.136202
20
-64.121037
11
53.794869
21
-65.742367
0
LINE
8
Layer 1
10
53.794869
20
-65.742367
11
54.712203
21
-64.617034
0
LINE
8
Layer 1
10
54.712203
20
-64.617034
11
55.714869
21
-63.801037
0
LINE
8
Layer 1
10
55.714869
20
-63.801037
11
56.786872
21
-63.289037
0
LINE
8
Layer 1
10
56.786872
20
-63.289037
11
57.869539
21
-63.118370
0
LINE
8
Layer 1
10
57.869539
20
-63.118370
11
58.941537
21
-63.273037
0
LINE
8
Layer 1
10
58.941537
20
-63.273037
11
59.682869
21
-63.737037
0
LINE
8
Layer 1
10
59.682869
20
-63.737037
11
60.130870
21
-64.542367
0
LINE
8
Layer 1
10
60.130870
20
-64.542367
11
60.280203
21
-65.763697
0
LINE
8
Layer 1
10
60.280203
20
-65.763697
11
60.173536
21
-67.235700
0
LINE
8
Layer 1
10
60.173536
20
-67.235700
11
59.853534
21
-69.006367
0
LINE
8
Layer 1
10
59.853534
20
-69.006367
11
59.042868
21
-72.739697
0
LINE
8
Layer 1
10
59.042868
20
-72.739697
11
58.616202
21
-73.465030
0
LINE
8
Layer 1
10
58.616202
20
-73.465030
11
58.253536
21
-73.689030
0
LINE
8
Layer 1
10
58.253536
20
-73.689030
11
57.848203
21
-73.763697
0
LINE
8
Layer 1
10
57.848203
20
-73.763697
11
57.480203
21
-73.689030
0
LINE
8
Layer 1
10
57.480203
20
-73.689030
11
57.186869
21
-73.465030
0
LINE
8
Layer 1
10
57.186869
20
-73.465030
11
57.032202
21
-73.129030
0
LINE
8
Layer 1
10
57.032202
20
-73.129030
11
57.037537
21
-72.761030
0
LINE
8
Layer 1
10
57.037537
20
-72.761030
11
57.784203
21
-69.219700
0
LINE
8
Layer 1
10
57.784203
20
-69.219700
11
58.189536
21
-66.382370
0
LINE
8
Layer 1
10
58.189536
20
-66.382370
11
58.130869
21
-65.769036
0
LINE
8
Layer 1
10
58.130869
20
-65.769036
11
57.954868
21
-65.379700
0
LINE
8
Layer 1
10
57.954868
20
-65.379700
11
57.661536
21
-65.171700
0
LINE
8
Layer 1
10
57.661536
20
-65.171700
11
57.250868
21
-65.102366
0
LINE
8
Layer 1
10
57.250868
20
-65.102366
11
56.578868
21
-65.241033
0
LINE
8
Layer 1
10
56.578868
20
-65.241033
11
55.842868
21
-65.657034
0
LINE
8
Layer 1
10
55.842868
20
-65.657034
11
55.090868
21
-66.307700
0
LINE
8
Layer 1
10
55.090868
20
-66.307700
11
54.328198
21
-67.193034
0
LINE
8
Layer 1
10
54.328198
20
-67.193034
11
53.282868
21
-68.899704
0
LINE
8
Layer 1
10
53.282868
20
-68.899704
11
52.664201
21
-70.905034
0
LINE
8
Layer 1
10
52.664201
20
-70.905034
11
52.280201
21
-72.697034
0
LINE
8
Layer 1
10
52.280201
20
-72.697034
11
52.130868
21
-73.123700
0
LINE
8
Layer 1
10
52.130868
20
-73.123700
11
51.853535
21
-73.465033
0
LINE
8
Layer 1
10
51.853535
20
-73.465033
11
51.496202
21
-73.689033
0
LINE
8
Layer 1
10
51.496202
20
-73.689033
11
51.064202
21
-73.763700
0
LINE
8
Layer 1
10
51.064202
20
-73.763700
11
51.064200
21
-73.763700
0
LINE
8
Layer 1
10
65.080200
20
-73.763700
11
63.736197
21
-73.534366
0
LINE
8
Layer 1
10
63.736197
20
-73.534366
11
62.690870
21
-72.846366
0
LINE
8
Layer 1
10
62.690870
20
-72.846366
11
62.034869
21
-71.769032
0
LINE
8
Layer 1
10
62.034869
20
-71.769032
11
61.816202
21
-70.371696
0
LINE
8
Layer 1
10
61.816202
20
-70.371696
11
62.045535
21
-68.670361
0
LINE
8
Layer 1
10
62.045535
20
-68.670361
11
62.733536
21
-66.979696
0
LINE
8
Layer 1
10
62.733536
20
-66.979696
11
63.816202
21
-65.433029
0
LINE
8
Layer 1
10
63.816202
20
-65.433029
11
65.186866
21
-64.206366
0
LINE
8
Layer 1
10
65.186866
20
-64.206366
11
66.733533
21
-63.390366
0
LINE
8
Layer 1
10
66.733533
20
-63.390366
11
68.344196
21
-63.118366
0
LINE
8
Layer 1
10
68.344196
20
-63.118366
11
69.266861
21
-63.187699
0
LINE
8
Layer 1
10
69.266861
20
-63.187699
11
70.072196
21
-63.395700
0
LINE
8
Layer 1
10
70.072196
20
-63.395700
11
71.565526
21
-64.035698
0
LINE
8
Layer 1
10
71.565526
20
-64.035698
11
69.688186
21
-72.910368
0
LINE
8
Layer 1
10
69.688186
20
-72.910368
11
69.522853
21
-73.347703
0
LINE
8
Layer 1
10
69.522853
20
-73.347703
11
69.240187
21
-73.678370
0
LINE
8
Layer 1
10
69.240187
20
-73.678370
11
68.872187
21
-73.902368
0
LINE
8
Layer 1
10
68.872187
20
-73.902368
11
68.450854
21
-73.977034
0
LINE
8
Layer 1
10
68.450854
20
-73.977034
11
67.853520
21
-73.763702
0
LINE
8
Layer 1
10
67.853520
20
-73.763702
11
67.640188
21
-73.230367
0
LINE
8
Layer 1
10
67.640188
20
-73.230367
11
67.661524
21
-72.995702
0
LINE
8
Layer 1
10
67.661524
20
-72.995702
11
67.725523
21
-72.697035
0
LINE
8
Layer 1
10
67.725523
20
-72.697035
11
66.402853
21
-73.507701
0
LINE
8
Layer 1
10
66.402853
20
-73.507701
11
65.080193
21
-73.763702
0
LINE
8
Layer 1
10
65.080193
20
-73.763702
11
65.080200
21
-73.763700
0
LINE
8
Layer 1
10
65.592199
20
-71.801030
11
66.872199
21
-71.545032
0
LINE
8
Layer 1
10
66.872199
20
-71.545032
11
68.024199
21
-70.905032
0
LINE
8
Layer 1
10
68.024199
20
-70.905032
11
69.261529
21
-65.337032
0
LINE
8
Layer 1
10
69.261529
20
-65.337032
11
67.981529
21
-65.081031
0
LINE
8
Layer 1
10
67.981529
20
-65.081031
11
66.994862
21
-65.273031
0
LINE
8
Layer 1
10
66.994862
20
-65.273031
11
66.040199
21
-65.849033
0
LINE
8
Layer 1
10
66.040199
20
-65.849033
11
65.186867
21
-66.713032
0
LINE
8
Layer 1
10
65.186867
20
-66.713032
11
64.504199
21
-67.769033
0
LINE
8
Layer 1
10
64.504199
20
-67.769033
11
64.056199
21
-68.905033
0
LINE
8
Layer 1
10
64.056199
20
-68.905033
11
63.906865
21
-70.009033
0
LINE
8
Layer 1
10
63.906865
20
-70.009033
11
64.013532
21
-70.835701
0
LINE
8
Layer 1
10
64.013532
20
-70.835701
11
64.333531
21
-71.395703
0
LINE
8
Layer 1
10
64.333531
20
-71.395703
11
64.861533
21
-71.699703
0
LINE
8
Layer 1
10
64.861533
20
-71.699703
11
65.592201
21
-71.801036
0
LINE
8
Layer 1
10
65.592201
20
-71.801036
11
65.592199
21
-71.801030
0
LINE
8
Layer 1
10
73.485500
20
-73.763700
11
72.888166
21
-73.550366
0
LINE
8
Layer 1
10
72.888166
20
-73.550366
11
72.653498
21
-72.974368
0
LINE
8
Layer 1
10
72.653498
20
-72.974368
11
72.674834
21
-72.761034
0
LINE
8
Layer 1
10
72.674834
20
-72.761034
11
74.509504
21
-64.142374
0
LINE
8
Layer 1
10
74.509504
20
-64.142374
11
74.957506
21
-63.438374
0
LINE
8
Layer 1
10
74.957506
20
-63.438374
11
75.346839
21
-63.198374
0
LINE
8
Layer 1
10
75.346839
20
-63.198374
11
75.746839
21
-63.118374
0
LINE
8
Layer 1
10
75.746839
20
-63.118374
11
76.125506
21
-63.198374
0
LINE
8
Layer 1
10
76.125506
20
-63.198374
11
76.408173
21
-63.438374
0
LINE
8
Layer 1
10
76.408173
20
-63.438374
11
76.562838
21
-63.763707
0
LINE
8
Layer 1
10
76.562838
20
-63.763707
11
76.557505
21
-64.142374
0
LINE
8
Layer 1
10
76.557505
20
-64.142374
11
76.237505
21
-65.635704
0
LINE
8
Layer 1
10
76.237505
20
-65.635704
11
77.194841
21
-64.534372
0
LINE
8
Layer 1
10
77.194841
20
-64.534372
11
78.189508
21
-63.747706
0
LINE
8
Layer 1
10
78.189508
20
-63.747706
11
79.221506
21
-63.275707
0
LINE
8
Layer 1
10
79.221506
20
-63.275707
11
80.290835
21
-63.118374
0
LINE
8
Layer 1
10
80.290835
20
-63.118374
11
81.080168
21
-63.246374
0
LINE
8
Layer 1
10
81.080168
20
-63.246374
11
81.698835
21
-63.630373
0
LINE
8
Layer 1
10
81.698835
20
-63.630373
11
82.130834
21
-64.270374
0
LINE
8
Layer 1
10
82.130834
20
-64.270374
11
82.317499
21
-65.166373
0
LINE
8
Layer 1
10
82.317499
20
-65.166373
11
83.224166
21
-64.270373
0
LINE
8
Layer 1
10
83.224166
20
-64.270373
11
84.152167
21
-63.630373
0
LINE
8
Layer 1
10
84.152167
20
-63.630373
11
85.101501
21
-63.246373
0
LINE
8
Layer 1
10
85.101501
20
-63.246373
11
86.072169
21
-63.118373
0
LINE
8
Layer 1
10
86.072169
20
-63.118373
11
86.994834
21
-63.278373
0
LINE
8
Layer 1
10
86.994834
20
-63.278373
11
87.672169
21
-63.758373
0
LINE
8
Layer 1
10
87.672169
20
-63.758373
11
88.104170
21
-64.537037
0
LINE
8
Layer 1
10
88.104170
20
-64.537037
11
88.248170
21
-65.635703
0
LINE
8
Layer 1
10
88.248170
20
-65.635703
11
88.077505
21
-67.171703
0
LINE
8
Layer 1
10
88.077505
20
-67.171703
11
86.882835
21
-72.761033
0
LINE
8
Layer 1
10
86.882835
20
-72.761033
11
86.722836
21
-73.139699
0
LINE
8
Layer 1
10
86.722836
20
-73.139699
11
86.413503
21
-73.465033
0
LINE
8
Layer 1
10
86.413503
20
-73.465033
11
85.645504
21
-73.763700
0
LINE
8
Layer 1
10
85.645504
20
-73.763700
11
85.048170
21
-73.550366
0
LINE
8
Layer 1
10
85.048170
20
-73.550366
11
84.813502
21
-72.974368
0
LINE
8
Layer 1
10
84.813502
20
-72.974368
11
84.834838
21
-72.761034
0
LINE
8
Layer 1
10
84.834838
20
-72.761034
11
86.050838
21
-67.043704
0
LINE
8
Layer 1
10
86.050838
20
-67.043704
11
86.157504
21
-66.126370
0
LINE
8
Layer 1
10
86.157504
20
-66.126370
11
85.944172
21
-65.337037
0
LINE
8
Layer 1
10
85.944172
20
-65.337037
11
85.688172
21
-65.145036
0
LINE
8
Layer 1
10
85.688172
20
-65.145036
11
85.304172
21
-65.081036
0
LINE
8
Layer 1
10
85.304172
20
-65.081036
11
84.658839
21
-65.203703
0
LINE
8
Layer 1
10
84.658839
20
-65.203703
11
83.960172
21
-65.571704
0
LINE
8
Layer 1
10
83.960172
20
-65.571704
11
83.272173
21
-66.153037
0
LINE
8
Layer 1
10
83.272173
20
-66.153037
11
82.658842
21
-66.915704
0
LINE
8
Layer 1
10
82.658842
20
-66.915704
11
82.184176
21
-67.811702
0
LINE
8
Layer 1
10
82.184176
20
-67.811702
11
81.869509
21
-68.793034
0
LINE
8
Layer 1
10
81.869509
20
-68.793034
11
81.037510
21
-72.761034
0
LINE
8
Layer 1
10
81.037510
20
-72.761034
11
80.568175
21
-73.486367
0
LINE
8
Layer 1
10
80.568175
20
-73.486367
11
79.800176
21
-73.763701
0
LINE
8
Layer 1
10
79.800176
20
-73.763701
11
79.202845
21
-73.550367
0
LINE
8
Layer 1
10
79.202845
20
-73.550367
11
78.968177
21
-72.974369
0
LINE
8
Layer 1
10
78.968177
20
-72.974369
11
78.989513
21
-72.761035
0
LINE
8
Layer 1
10
78.989513
20
-72.761035
11
80.205513
21
-67.043705
0
LINE
8
Layer 1
10
80.205513
20
-67.043705
11
80.333515
21
-66.041035
0
LINE
8
Layer 1
10
80.333515
20
-66.041035
11
80.141514
21
-65.315702
0
LINE
8
Layer 1
10
80.141514
20
-65.315702
11
79.912182
21
-65.139701
0
LINE
8
Layer 1
10
79.912182
20
-65.139701
11
79.565516
21
-65.081034
0
LINE
8
Layer 1
10
79.565516
20
-65.081034
11
78.861515
21
-65.219701
0
LINE
8
Layer 1
10
78.861515
20
-65.219701
11
78.114846
21
-65.635702
0
LINE
8
Layer 1
10
78.114846
20
-65.635702
11
76.685516
21
-66.937032
0
LINE
8
Layer 1
10
76.685516
20
-66.937032
11
75.853514
21
-68.238362
0
LINE
8
Layer 1
10
75.853514
20
-68.238362
11
75.362846
21
-69.625032
0
LINE
8
Layer 1
10
75.362846
20
-69.625032
11
74.722846
21
-72.761032
0
LINE
8
Layer 1
10
74.722846
20
-72.761032
11
74.274847
21
-73.465032
0
LINE
8
Layer 1
10
74.274847
20
-73.465032
11
73.896180
21
-73.689032
0
LINE
8
Layer 1
10
73.896180
20
-73.689032
11
73.485514
21
-73.763699
0
LINE
8
Layer 1
10
73.485514
20
-73.763699
11
73.485500
21
-73.763700
0
LINE
8
Layer 1
10
93.154800
20
-73.763700
11
91.730797
21
-73.502368
0
LINE
8
Layer 1
10
91.730797
20
-73.502368
11
91.134797
21
-73.175702
0
LINE
8
Layer 1
10
91.134797
20
-73.175702
11
90.616130
21
-72.718370
0
LINE
8
Layer 1
10
90.616130
20
-72.718370
11
89.912131
21
-71.502367
0
LINE
8
Layer 1
10
89.912131
20
-71.502367
11
89.677465
21
-69.987700
0
LINE
8
Layer 1
10
89.677465
20
-69.987700
11
89.906798
21
-68.371702
0
LINE
8
Layer 1
10
89.906798
20
-68.371702
11
90.594797
21
-66.766370
0
LINE
8
Layer 1
10
90.594797
20
-66.766370
11
91.650796
21
-65.294372
0
LINE
8
Layer 1
10
91.650796
20
-65.294372
11
92.984127
21
-64.121040
0
LINE
8
Layer 1
10
92.984127
20
-64.121040
11
94.477460
21
-63.353040
0
LINE
8
Layer 1
10
94.477460
20
-63.353040
11
96.013457
21
-63.097040
0
LINE
8
Layer 1
10
96.013457
20
-63.097040
11
96.994789
21
-63.225040
0
LINE
8
Layer 1
10
96.994789
20
-63.225040
11
97.848127
21
-63.609039
0
LINE
8
Layer 1
10
97.848127
20
-63.609039
11
98.546794
21
-64.195706
0
LINE
8
Layer 1
10
98.546794
20
-64.195706
11
99.064127
21
-64.974369
0
LINE
8
Layer 1
10
99.064127
20
-64.974369
11
99.384126
21
-65.881035
0
LINE
8
Layer 1
10
99.384126
20
-65.881035
11
99.490793
21
-66.894369
0
LINE
8
Layer 1
10
99.490793
20
-66.894369
11
99.261460
21
-68.510369
0
LINE
8
Layer 1
10
99.261460
20
-68.510369
11
98.573461
21
-70.115709
0
LINE
8
Layer 1
10
98.573461
20
-70.115709
11
97.517461
21
-71.571709
0
LINE
8
Layer 1
10
97.517461
20
-71.571709
11
96.184131
21
-72.739709
0
LINE
8
Layer 1
10
96.184131
20
-72.739709
11
94.690798
21
-73.507709
0
LINE
8
Layer 1
10
94.690798
20
-73.507709
11
93.154801
21
-73.763709
0
LINE
8
Layer 1
10
93.154801
20
-73.763709
11
93.154800
21
-73.763700
0
LINE
8
Layer 1
10
93.538800
20
-71.865030
11
94.445466
21
-71.694364
0
LINE
8
Layer 1
10
94.445466
20
-71.694364
11
95.330800
21
-71.182366
0
LINE
8
Layer 1
10
95.330800
20
-71.182366
11
96.125465
21
-70.387698
0
LINE
8
Layer 1
10
96.125465
20
-70.387698
11
96.760130
21
-69.411696
0
LINE
8
Layer 1
10
96.760130
20
-69.411696
11
97.176129
21
-68.355694
0
LINE
8
Layer 1
10
97.176129
20
-68.355694
11
97.314795
21
-67.321026
0
LINE
8
Layer 1
10
97.314795
20
-67.321026
11
97.192128
21
-66.403691
0
LINE
8
Layer 1
10
97.192128
20
-66.403691
11
96.824129
21
-65.657026
0
LINE
8
Layer 1
10
96.824129
20
-65.657026
11
96.253463
21
-65.161025
0
LINE
8
Layer 1
10
96.253463
20
-65.161025
11
95.522799
21
-64.995692
0
LINE
8
Layer 1
10
95.522799
20
-64.995692
11
94.616133
21
-65.177025
0
LINE
8
Layer 1
10
94.616133
20
-65.177025
11
93.730799
21
-65.721025
0
LINE
8
Layer 1
10
93.730799
20
-65.721025
11
92.936134
21
-66.542359
0
LINE
8
Layer 1
10
92.936134
20
-66.542359
11
92.301469
21
-67.555695
0
LINE
8
Layer 1
10
92.301469
20
-67.555695
11
91.901470
21
-68.633027
0
LINE
8
Layer 1
10
91.901470
20
-68.633027
11
91.768137
21
-69.689025
0
LINE
8
Layer 1
10
91.768137
20
-69.689025
11
91.885470
21
-70.563693
0
LINE
8
Layer 1
10
91.885470
20
-70.563693
11
92.237469
21
-71.267695
0
LINE
8
Layer 1
10
92.237469
20
-71.267695
11
92.797467
21
-71.715693
0
LINE
8
Layer 1
10
92.797467
20
-71.715693
11
93.538799
21
-71.865026
0
LINE
8
Layer 1
10
93.538799
20
-71.865026
11
93.538800
21
-71.865030
0
LINE
8
Layer 1
10
101.475000
20
-73.763700
11
101.107000
21
-73.689033
0
LINE
8
Layer 1
10
101.107000
20
-73.689033
11
100.813666
21
-73.465033
0
LINE
8
Layer 1
10
100.813666
20
-73.465033
11
100.658999
21
-73.145033
0
LINE
8
Layer 1
10
100.658999
20
-73.145033
11
100.664334
21
-72.782366
0
LINE
8
Layer 1
10
100.664334
20
-72.782366
11
102.499004
21
-64.121036
0
LINE
8
Layer 1
10
102.499004
20
-64.121036
11
102.659003
21
-63.726368
0
LINE
8
Layer 1
10
102.659003
20
-63.726368
11
102.968336
21
-63.395703
0
LINE
8
Layer 1
10
102.968336
20
-63.395703
11
103.779002
21
-63.097036
0
LINE
8
Layer 1
10
103.779002
20
-63.097036
11
104.333670
21
-63.331701
0
LINE
8
Layer 1
10
104.333670
20
-63.331701
11
104.568338
21
-63.886369
0
LINE
8
Layer 1
10
104.568338
20
-63.886369
11
104.547002
21
-64.121037
0
LINE
8
Layer 1
10
104.547002
20
-64.121037
11
104.205669
21
-65.742367
0
LINE
8
Layer 1
10
104.205669
20
-65.742367
11
105.123001
21
-64.617034
0
LINE
8
Layer 1
10
105.123001
20
-64.617034
11
106.125669
21
-63.801037
0
LINE
8
Layer 1
10
106.125669
20
-63.801037
11
107.197671
21
-63.289037
0
LINE
8
Layer 1
10
107.197671
20
-63.289037
11
108.280339
21
-63.118370
0
LINE
8
Layer 1
10
108.280339
20
-63.118370
11
109.352336
21
-63.273037
0
LINE
8
Layer 1
10
109.352336
20
-63.273037
11
110.093669
21
-63.737037
0
LINE
8
Layer 1
10
110.093669
20
-63.737037
11
110.541669
21
-64.542367
0
LINE
8
Layer 1
10
110.541669
20
-64.542367
11
110.691003
21
-65.763697
0
LINE
8
Layer 1
10
110.691003
20
-65.763697
11
110.584336
21
-67.235700
0
LINE
8
Layer 1
10
110.584336
20
-67.235700
11
110.264337
21
-69.006367
0
LINE
8
Layer 1
10
110.264337
20
-69.006367
11
109.453668
21
-72.739697
0
LINE
8
Layer 1
10
109.453668
20
-72.739697
11
109.027002
21
-73.465030
0
LINE
8
Layer 1
10
109.027002
20
-73.465030
11
108.664336
21
-73.689030
0
LINE
8
Layer 1
10
108.664336
20
-73.689030
11
108.259003
21
-73.763697
0
LINE
8
Layer 1
10
108.259003
20
-73.763697
11
107.891003
21
-73.689030
0
LINE
8
Layer 1
10
107.891003
20
-73.689030
11
107.597669
21
-73.465030
0
LINE
8
Layer 1
10
107.597669
20
-73.465030
11
107.443002
21
-73.129030
0
LINE
8
Layer 1
10
107.443002
20
-73.129030
11
107.448337
21
-72.761030
0
LINE
8
Layer 1
10
107.448337
20
-72.761030
11
108.195003
21
-69.219700
0
LINE
8
Layer 1
10
108.195003
20
-69.219700
11
108.600336
21
-66.382370
0
LINE
8
Layer 1
10
108.600336
20
-66.382370
11
108.541669
21
-65.769036
0
LINE
8
Layer 1
10
108.541669
20
-65.769036
11
108.365668
21
-65.379700
0
LINE
8
Layer 1
10
108.365668
20
-65.379700
11
108.072335
21
-65.171700
0
LINE
8
Layer 1
10
108.072335
20
-65.171700
11
107.661668
21
-65.102366
0
LINE
8
Layer 1
10
107.661668
20
-65.102366
11
106.989669
21
-65.241033
0
LINE
8
Layer 1
10
106.989669
20
-65.241033
11
106.253668
21
-65.657034
0
LINE
8
Layer 1
10
106.253668
20
-65.657034
11
105.501667
21
-66.307700
0
LINE
8
Layer 1
10
105.501667
20
-66.307700
11
104.738998
21
-67.193034
0
LINE
8
Layer 1
10
104.738998
20
-67.193034
11
103.693668
21
-68.899704
0
LINE
8
Layer 1
10
103.693668
20
-68.899704
11
103.075001
21
-70.905034
0
LINE
8
Layer 1
10
103.075001
20
-70.905034
11
102.691001
21
-72.697034
0
LINE
8
Layer 1
10
102.691001
20
-72.697034
11
102.541668
21
-73.123700
0
LINE
8
Layer 1
10
102.541668
20
-73.123700
11
102.264335
21
-73.465033
0
LINE
8
Layer 1
10
102.264335
20
-73.465033
11
101.907002
21
-73.689033
0
LINE
8
Layer 1
10
101.907002
20
-73.689033
11
101.475002
21
-73.763700
0
LINE
8
Layer 1
10
101.475002
20
-73.763700
11
101.475000
21
-73.763700
0
LINE
8
Layer 1
10
115.213000
20
-73.742400
11
114.013002
21
-73.518400
0
LINE
8
Layer 1
10
114.013002
20
-73.518400
11
113.058330
21
-72.846399
0
LINE
8
Layer 1
10
113.058330
20
-72.846399
11
112.450330
21
-71.769068
0
LINE
8
Layer 1
10
112.450330
20
-71.769068
11
112.247664
21
-70.329069
0
LINE
8
Layer 1
10
112.247664
20
-70.329069
11
112.439664
21
-68.585067
0
LINE
8
Layer 1
10
112.439664
20
-68.585067
11
113.015663
21
-66.894399
0
LINE
8
Layer 1
10
113.015663
20
-66.894399
11
113.932995
21
-65.385067
0
LINE
8
Layer 1
10
113.932995
20
-65.385067
11
115.148993
21
-64.185069
0
LINE
8
Layer 1
10
115.148993
20
-64.185069
11
116.594325
21
-63.401072
0
LINE
8
Layer 1
10
116.594325
20
-63.401072
11
118.199663
21
-63.139739
0
LINE
8
Layer 1
10
118.199663
20
-63.139739
11
119.340995
21
-63.299739
0
LINE
8
Layer 1
10
119.340995
20
-63.299739
11
120.332993
21
-63.779739
0
LINE
8
Layer 1
10
120.332993
20
-63.779739
11
121.186325
21
-60.323739
0
LINE
8
Layer 1
10
121.186325
20
-60.323739
11
121.655660
21
-59.598406
0
LINE
8
Layer 1
10
121.655660
20
-59.598406
11
122.050326
21
-59.358406
0
LINE
8
Layer 1
10
122.050326
20
-59.358406
11
122.466326
21
-59.278406
0
LINE
8
Layer 1
10
122.466326
20
-59.278406
11
122.802325
21
-59.342406
0
LINE
8
Layer 1
10
122.802325
20
-59.342406
11
123.042324
21
-59.534407
0
LINE
8
Layer 1
10
123.042324
20
-59.534407
11
123.276992
21
-60.110405
0
LINE
8
Layer 1
10
123.276992
20
-60.110405
11
123.234326
21
-60.366406
0
LINE
8
Layer 1
10
123.234326
20
-60.366406
11
120.311656
21
-72.782406
0
LINE
8
Layer 1
10
120.311656
20
-72.782406
11
119.842321
21
-73.486406
0
LINE
8
Layer 1
10
119.842321
20
-73.486406
11
119.052988
21
-73.763740
0
LINE
8
Layer 1
10
119.052988
20
-73.763740
11
118.455657
21
-73.550406
0
LINE
8
Layer 1
10
118.455657
20
-73.550406
11
118.242323
21
-72.995741
0
LINE
8
Layer 1
10
118.242323
20
-72.995741
11
118.263659
21
-72.739740
0
LINE
8
Layer 1
10
118.263659
20
-72.739740
11
118.370325
21
-72.313074
0
LINE
8
Layer 1
10
118.370325
20
-72.313074
11
117.692993
21
-72.894406
0
LINE
8
Layer 1
10
117.692993
20
-72.894406
11
116.898325
21
-73.358404
0
LINE
8
Layer 1
10
116.898325
20
-73.358404
11
116.060993
21
-73.646404
0
LINE
8
Layer 1
10
116.060993
20
-73.646404
11
115.212995
21
-73.742404
0
LINE
8
Layer 1
10
115.212995
20
-73.742404
11
115.213000
21
-73.742400
0
LINE
8
Layer 1
10
115.789001
20
-71.822400
11
116.519666
21
-71.742400
0
LINE
8
Layer 1
10
116.519666
20
-71.742400
11
117.218331
21
-71.502400
0
LINE
8
Layer 1
10
117.218331
20
-71.502400
11
118.391661
21
-70.670401
0
LINE
8
Layer 1
10
118.391661
20
-70.670401
11
118.988995
21
-69.646401
0
LINE
8
Layer 1
10
118.988995
20
-69.646401
11
119.906329
21
-65.721071
0
LINE
8
Layer 1
10
119.906329
20
-65.721071
11
119.010328
21
-65.273072
0
LINE
8
Layer 1
10
119.010328
20
-65.273072
11
117.922328
21
-65.059738
0
LINE
8
Layer 1
10
117.922328
20
-65.059738
11
116.898328
21
-65.246405
0
LINE
8
Layer 1
10
116.898328
20
-65.246405
11
116.002328
21
-65.806404
0
LINE
8
Layer 1
10
116.002328
20
-65.806404
11
115.287661
21
-66.638406
0
LINE
8
Layer 1
10
115.287661
20
-66.638406
11
114.764998
21
-67.683744
0
LINE
8
Layer 1
10
114.764998
20
-67.683744
11
114.444998
21
-68.841077
0
LINE
8
Layer 1
10
114.444998
20
-68.841077
11
114.338332
21
-70.009074
0
LINE
8
Layer 1
10
114.338332
20
-70.009074
11
114.434332
21
-70.798407
0
LINE
8
Layer 1
10
114.434332
20
-70.798407
11
114.722332
21
-71.374404
0
LINE
8
Layer 1
10
114.722332
20
-71.374404
11
115.180999
21
-71.710403
0
LINE
8
Layer 1
10
115.180999
20
-71.710403
11
115.789002
21
-71.822403
0
LINE
8
Layer 1
10
115.789002
20
-71.822403
11
115.789001
21
-71.822400
0
LINE
8
Layer 1
10
127.821000
20
-73.763700
11
126.055665
21
-73.497033
0
LINE
8
Layer 1
10
126.055665
20
-73.497033
11
125.320999
21
-73.163698
0
LINE
8
Layer 1
10
125.320999
20
-73.163698
11
124.685000
21
-72.697030
0
LINE
8
Layer 1
10
124.685000
20
-72.697030
11
124.171668
21
-72.113029
0
LINE
8
Layer 1
10
124.171668
20
-72.113029
11
123.805003
21
-71.427695
0
LINE
8
Layer 1
10
123.805003
20
-71.427695
11
123.585003
21
-70.641029
0
LINE
8
Layer 1
10
123.585003
20
-70.641029
11
123.511670
21
-69.753030
0
LINE
8
Layer 1
10
123.511670
20
-69.753030
11
123.725003
21
-68.137035
0
LINE
8
Layer 1
10
123.725003
20
-68.137035
11
124.365002
21
-66.574370
0
LINE
8
Layer 1
10
124.365002
20
-66.574370
11
125.357002
21
-65.182370
0
LINE
8
Layer 1
10
125.357002
20
-65.182370
11
126.626332
21
-64.078370
0
LINE
8
Layer 1
10
126.626332
20
-64.078370
11
128.076999
21
-63.358369
0
LINE
8
Layer 1
10
128.076999
20
-63.358369
11
129.613002
21
-63.118369
0
LINE
8
Layer 1
10
129.613002
20
-63.118369
11
130.685000
21
-63.230369
0
LINE
8
Layer 1
10
130.685000
20
-63.230369
11
131.554332
21
-63.566368
0
LINE
8
Layer 1
10
131.554332
20
-63.566368
11
132.236999
21
-64.046369
0
LINE
8
Layer 1
10
132.236999
20
-64.046369
11
132.706332
21
-64.633038
0
LINE
8
Layer 1
10
132.706332
20
-64.633038
11
132.978332
21
-65.262371
0
LINE
8
Layer 1
10
132.978332
20
-65.262371
11
133.068999
21
-65.870368
0
LINE
8
Layer 1
10
133.068999
20
-65.870368
11
132.855665
21
-66.638367
0
LINE
8
Layer 1
10
132.855665
20
-66.638367
11
132.194331
21
-67.171699
0
LINE
8
Layer 1
10
132.194331
20
-67.171699
11
125.773001
21
-70.457029
0
LINE
8
Layer 1
10
125.773001
20
-70.457029
11
126.007667
21
-71.043696
0
LINE
8
Layer 1
10
126.007667
20
-71.043696
11
126.541000
21
-71.481029
0
LINE
8
Layer 1
10
126.541000
20
-71.481029
11
127.266333
21
-71.753029
0
LINE
8
Layer 1
10
127.266333
20
-71.753029
11
128.077000
21
-71.843696
0
LINE
8
Layer 1
10
128.077000
20
-71.843696
11
129.383662
21
-71.614363
0
LINE
8
Layer 1
10
129.383662
20
-71.614363
11
130.530330
21
-70.926364
0
LINE
8
Layer 1
10
130.530330
20
-70.926364
11
131.319665
21
-70.585031
0
LINE
8
Layer 1
10
131.319665
20
-70.585031
11
131.895663
21
-70.798363
0
LINE
8
Layer 1
10
131.895663
20
-70.798363
11
132.130331
21
-71.310365
0
LINE
8
Layer 1
10
132.130331
20
-71.310365
11
132.023665
21
-71.822364
0
LINE
8
Layer 1
10
132.023665
20
-71.822364
11
131.639665
21
-72.270366
0
LINE
8
Layer 1
10
131.639665
20
-72.270366
11
130.855664
21
-72.846366
0
LINE
8
Layer 1
10
130.855664
20
-72.846366
11
129.868995
21
-73.337036
0
LINE
8
Layer 1
10
129.868995
20
-73.337036
11
128.812995
21
-73.657036
0
LINE
8
Layer 1
10
128.812995
20
-73.657036
11
127.820995
21
-73.763702
0
LINE
8
Layer 1
10
127.820995
20
-73.763702
11
127.821000
21
-73.763700
0
LINE
8
Layer 1
10
130.999670
20
-65.934370
11
130.781002
21
-65.523702
0
LINE
8
Layer 1
10
130.781002
20
-65.523702
11
130.423669
21
-65.230370
0
LINE
8
Layer 1
10
130.423669
20
-65.230370
11
129.356999
21
-64.995702
0
LINE
8
Layer 1
10
129.356999
20
-64.995702
11
128.039667
21
-65.289035
0
LINE
8
Layer 1
10
128.039667
20
-65.289035
11
126.818329
21
-66.169032
0
LINE
8
Layer 1
10
126.818329
20
-66.169032
11
125.922331
21
-67.427702
0
LINE
8
Layer 1
10
125.922331
20
-67.427702
11
125.559662
21
-68.686362
0
LINE
8
Layer 1
10
125.559662
20
-68.686362
11
130.999670
21
-65.934370
0
LINE
8
Layer 1
10
136.632000
20
-73.785000
11
136.104000
21
-73.609000
0
LINE
8
Layer 1
10
136.104000
20
-73.609000
11
135.842667
21
-73.081000
0
LINE
8
Layer 1
10
135.842667
20
-73.081000
11
134.242667
21
-64.931670
0
LINE
8
Layer 1
10
134.242667
20
-64.931670
11
134.178668
21
-64.633003
0
LINE
8
Layer 1
10
134.178668
20
-64.633003
11
134.136001
21
-64.291670
0
LINE
8
Layer 1
10
134.136001
20
-64.291670
11
134.237334
21
-63.854337
0
LINE
8
Layer 1
10
134.237334
20
-63.854337
11
134.541334
21
-63.481004
0
LINE
8
Layer 1
10
134.541334
20
-63.481004
11
134.978669
21
-63.209004
0
LINE
8
Layer 1
10
134.978669
20
-63.209004
11
135.437335
21
-63.118337
0
LINE
8
Layer 1
10
135.437335
20
-63.118337
11
135.981335
21
-63.289004
0
LINE
8
Layer 1
10
135.981335
20
-63.289004
11
136.248001
21
-63.801004
0
LINE
8
Layer 1
10
136.248001
20
-63.801004
11
137.400001
21
-70.158334
0
LINE
8
Layer 1
10
137.400001
20
-70.158334
11
141.304001
21
-63.737004
0
LINE
8
Layer 1
10
141.304001
20
-63.737004
11
141.773336
21
-63.267669
0
LINE
8
Layer 1
10
141.773336
20
-63.267669
11
142.413334
21
-63.097004
0
LINE
8
Layer 1
10
142.413334
20
-63.097004
11
143.010668
21
-63.331669
0
LINE
8
Layer 1
10
143.010668
20
-63.331669
11
143.245336
21
-63.886337
0
LINE
8
Layer 1
10
143.245336
20
-63.886337
11
143.010668
21
-64.547671
0
LINE
8
Layer 1
10
143.010668
20
-64.547671
11
137.741338
21
-73.145001
0
LINE
8
Layer 1
10
137.741338
20
-73.145001
11
137.261339
21
-73.625001
0
LINE
8
Layer 1
10
137.261339
20
-73.625001
11
136.632008
21
-73.785001
0
LINE
8
Layer 1
10
136.632008
20
-73.785001
11
136.632000
21
-73.785000
 0 
ENDSEC
 0 
EOF