<?xml version="1.0" encoding="UTF-8" standalone="no"?>
<!-- Created with Inkscape (http://www.inkscape.org/) -->

<svg
   width="112.31979mm"
   height="13.78mm"
   viewBox="0 0 112.31979 13.78"
   version="1.1"
   id="svg5"
   inkscape:version="1.1.1 (3bf5ae0d25, 2021-09-20)"
   sodipodi:docname="drawing.svg"
   xmlns:inkscape="http://www.inkscape.org/namespaces/inkscape"
   xmlns:sodipodi="http://sodipodi.sourceforge.net/DTD/sodipodi-0.dtd"
   xmlns="http://www.w3.org/2000/svg"
   xmlns:svg="http://www.w3.org/2000/svg">
  <sodipodi:namedview
     id="namedview7"
     pagecolor="#ffffff"
     bordercolor="#666666"
     borderopacity="1.0"
     inkscape:pageshadow="2"
     inkscape:pageopacity="0.0"
     inkscape:pagecheckerboard="0"
     inkscape:document-units="mm"
     showgrid="false"
     fit-margin-top="0"
     fit-margin-left="0"
     fit-margin-right="0"
     fit-margin-bottom="0"
     inkscape:zoom="0.77771465"
     inkscape:cx="246.87718"
     inkscape:cy="337.5274"
     inkscape:window-width="3440"
     inkscape:window-height="1377"
     inkscape:window-x="-8"
     inkscape:window-y="-8"
     inkscape:window-maximized="1"
     inkscape:current-layer="layer1" />
  <defs
     id="defs2">
    <rect
       x="81.006577"
       y="205.73099"
       width="636.48022"
       height="275.16519"
       id="rect2828" />
  </defs>
  <g
     inkscape:label="Layer 1"
     inkscape:groupmode="layer"
     id="layer1"
     transform="translate(-21.9728,-59.219459)">
    <g
       aria-label="cinnamondev"
       transform="scale(0.26458333)"
       id="text2826"
       style="font-size:75.5906px;line-height:1.25;white-space:pre;shape-inside:url(#rect2828)">
      <path
         d="m 97.182248,275.14761 q -3.930712,0 -7.181107,-1.663 -3.250396,-1.66299 -5.140161,-4.61102 -1.814174,-3.02363 -1.814174,-6.87875 0,-5.44252 3.325986,-11.18741 3.401577,-5.82047 8.541738,-9.6 5.21575,-3.85512 10.20473,-3.85512 6.34961,0 9.52442,4.23307 1.20945,1.66299 1.20945,2.87244 0,1.663 -1.36064,3.02363 -1.36063,1.28504 -3.09921,1.28504 -1.51181,0 -2.19213,-0.90709 -1.20945,-1.88976 -2.4189,-2.72126 -1.20945,-0.90709 -3.1748,-0.90709 -2.79685,0 -5.971659,2.72126 -3.099214,2.72127 -5.215751,6.65198 -2.116537,3.85512 -2.116537,7.10551 0,3.40158 2.267718,5.51812 2.267718,2.11653 5.140161,2.11653 2.948038,0 5.140158,-1.13386 2.19213,-1.13385 4.15749,-3.1748 0.83149,-0.8315 1.66299,-1.36063 0.8315,-0.52914 1.96535,-0.52914 1.20945,0 2.04095,0.8315 0.8315,0.75591 0.8315,1.96536 0,0.90708 -0.45355,1.73858 -0.45354,0.8315 -0.98267,1.36063 -2.79686,2.94803 -6.87875,5.06457 -4.08189,2.04095 -8.012602,2.04095 z"
         style="font-style:italic;font-weight:bold;font-family:'Comic Neue';-inkscape-font-specification:'Comic Neue Bold Italic'"
         id="path19057" />
      <path
         d="m 130.5932,234.25309 q -1.20945,0 -2.04095,-0.7559 -0.8315,-0.8315 -0.8315,-2.04095 0,-0.30236 0.15119,-0.90709 l 0.68031,-2.79685 q 0.30236,-1.43622 1.66299,-2.49449 1.36063,-1.05827 2.72127,-1.05827 1.20945,0 2.04094,0.90709 0.8315,0.8315 0.8315,2.04095 0,0.45354 -0.0756,0.68031 l -0.75591,2.87245 q -0.37795,1.51181 -1.66299,2.57008 -1.20945,0.98267 -2.72126,0.98267 z m -8.99528,40.89452 q -1.28504,0 -2.19213,-0.8315 -0.8315,-0.8315 -0.8315,-2.11654 0,-0.45354 0.0756,-0.7559 l 6.72757,-30.08506 q 0.30236,-1.51181 1.66299,-2.57008 1.36063,-1.13386 2.87244,-1.13386 1.36063,0 2.11654,0.8315 0.8315,0.7559 0.8315,2.04094 0,0.52914 -0.0756,0.8315 l -6.72756,30.08506 q -0.30236,1.51181 -1.66299,2.64567 -1.28504,1.05827 -2.79685,1.05827 z"
         style="font-style:italic;font-weight:bold;font-family:'Comic Neue';-inkscape-font-specification:'Comic Neue Bold Italic'"
         id="path19054" />
      <path
         d="m 139.8907,275.14761 q -1.43622,0 -2.34331,-1.05827 -0.8315,-1.05827 -0.52913,-2.4189 l 6.50079,-30.68978 q 0.30236,-1.51182 1.66299,-2.57008 1.36063,-1.05827 2.87244,-1.05827 1.20945,0 1.96536,0.83149 0.8315,0.75591 0.8315,1.96536 0,0.52913 -0.0756,0.8315 l -1.20945,5.74488 q 3.09921,-4.53543 6.80315,-6.87874 3.77953,-2.4189 7.63465,-2.4189 4.38425,0 6.4252,2.19213 2.11654,2.11653 2.11654,7.1811 0,4.68662 -1.51181,11.48977 l -2.87245,13.22836 q -0.30236,1.43622 -1.51181,2.57008 -1.20945,1.05827 -2.72126,1.05827 -1.43622,0 -2.34331,-1.05827 -0.8315,-1.13386 -0.52913,-2.49449 l 2.64567,-12.54804 q 1.43622,-6.72756 1.43622,-10.05355 0,-2.57008 -0.8315,-3.55276 -0.83149,-0.98268 -2.49449,-0.98268 -2.26772,0 -4.98898,1.96536 -2.64567,1.88976 -5.36693,5.44252 -2.34331,3.09922 -3.70394,6.04725 -1.28504,2.94803 -2.19213,7.10552 l -1.36063,6.34961 q -0.30236,1.66299 -1.51181,2.72126 -1.13386,1.05827 -2.79685,1.05827 z"
         style="font-style:italic;font-weight:bold;font-family:'Comic Neue';-inkscape-font-specification:'Comic Neue Bold Italic'"
         id="path19051" />
      <path
         d="m 180.93634,275.14761 q -1.43622,0 -2.34331,-1.05827 -0.8315,-1.05827 -0.52913,-2.4189 l 6.50079,-30.68978 q 0.30236,-1.51182 1.66299,-2.57008 1.36063,-1.05827 2.87244,-1.05827 1.20945,0 1.96536,0.83149 0.8315,0.75591 0.8315,1.96536 0,0.52913 -0.0756,0.8315 l -1.20945,5.74488 q 3.09922,-4.53543 6.80316,-6.87874 3.77953,-2.4189 7.63465,-2.4189 4.38425,0 6.4252,2.19213 2.11654,2.11653 2.11654,7.1811 0,4.68662 -1.51182,11.48977 l -2.87244,13.22836 q -0.30236,1.43622 -1.51181,2.57008 -1.20945,1.05827 -2.72126,1.05827 -1.43622,0 -2.34331,-1.05827 -0.8315,-1.13386 -0.52913,-2.49449 l 2.64567,-12.54804 q 1.43622,-6.72756 1.43622,-10.05355 0,-2.57008 -0.8315,-3.55276 -0.83149,-0.98268 -2.49449,-0.98268 -2.26772,0 -4.98898,1.96536 -2.64567,1.88976 -5.36693,5.44252 -2.34331,3.09922 -3.70394,6.04725 -1.28504,2.94803 -2.19213,7.10552 l -1.36063,6.34961 q -0.30236,1.66299 -1.51181,2.72126 -1.13386,1.05827 -2.79685,1.05827 z"
         style="font-style:italic;font-weight:bold;font-family:'Comic Neue';-inkscape-font-specification:'Comic Neue Bold Italic'"
         id="path19048" />
      <path
         d="m 230.59931,275.14761 q -5.29135,0 -8.46615,-3.2504 -3.09922,-3.25039 -3.09922,-8.76851 0,-6.04725 3.2504,-12.0189 3.32599,-6.04725 8.69292,-9.82678 5.36693,-3.85512 11.18741,-3.85512 3.47716,0 6.12284,0.98268 2.72126,0.90708 5.29134,2.26771 l -6.65198,31.44569 q -0.37795,1.73859 -1.5874,2.72127 -1.20945,1.05826 -2.79685,1.05826 -1.28504,0 -2.11654,-0.7559 -0.7559,-0.68032 -0.7559,-1.88977 0,-0.52913 0.0756,-0.83149 l 0.22677,-1.05827 q -2.19213,1.88976 -4.68662,2.87244 -2.4189,0.90709 -4.68661,0.90709 z m 1.81417,-6.95434 q 2.34331,0 4.53544,-0.90708 2.26771,-0.98268 4.08189,-2.26772 l 4.38425,-19.72915 q -2.04094,-0.90709 -4.53543,-0.90709 -3.55276,0 -6.87875,2.72127 -3.32598,2.72126 -5.44252,6.80315 -2.11654,4.08189 -2.11654,7.93701 0,3.40158 1.51181,4.91339 1.51182,1.43622 4.45985,1.43622 z"
         style="font-style:italic;font-weight:bold;font-family:'Comic Neue';-inkscape-font-specification:'Comic Neue Bold Italic'"
         id="path19045" />
      <path
         d="m 260.38196,275.14761 q -1.28504,0 -2.11654,-0.75591 -0.8315,-0.8315 -0.8315,-2.04094 0,-0.52914 0.0756,-0.75591 l 6.50079,-30.5386 q 0.30237,-1.43622 1.58741,-2.49449 1.36063,-1.13386 2.79685,-1.13386 1.51181,0 2.34331,1.13386 0.83149,1.05827 0.52913,2.49449 l -1.13386,5.29134 q 6.65198,-8.91969 14.36222,-8.91969 3.09921,0 4.98898,1.81417 1.96535,1.81418 2.19212,5.44253 6.34961,-7.2567 13.30395,-7.2567 3.70394,0 5.66929,2.26772 2.04095,2.19212 2.04095,6.65197 0,2.72126 -0.60472,5.44252 l -4.23308,19.80474 q -0.30236,1.43622 -1.66299,2.49449 -1.28504,1.05827 -2.72126,1.05827 -1.28504,0 -2.11654,-0.75591 -0.8315,-0.8315 -0.8315,-2.04094 0,-0.52914 0.0756,-0.75591 l 4.30867,-20.25828 q 0.37795,-1.5874 0.37795,-3.2504 0,-1.88976 -0.7559,-2.79685 -0.68032,-0.90709 -2.26772,-0.90709 -2.19213,0 -4.76221,1.73859 -2.57008,1.73858 -4.61103,4.76221 -1.96535,3.02362 -2.79685,6.65197 l -2.94803,14.05985 q -0.37796,1.51181 -1.663,2.57008 -1.20944,0.98268 -2.72126,0.98268 -1.28504,0 -2.11653,-0.75591 -0.8315,-0.8315 -0.8315,-2.04094 0,-0.52914 0.0756,-0.75591 l 4.30866,-20.25828 q 0.45355,-2.19213 0.45355,-3.55276 0,-1.73858 -0.68032,-2.57008 -0.60472,-0.8315 -2.04094,-0.8315 -2.4189,0 -5.14016,1.96536 -2.72127,1.88976 -5.06457,4.61103 -3.55276,4.45984 -4.68662,9.52441 l -2.26772,11.11182 q -0.30236,1.43622 -1.5874,2.49449 -1.28504,1.05827 -2.79685,1.05827 z"
         style="font-style:italic;font-weight:bold;font-family:'Comic Neue';-inkscape-font-specification:'Comic Neue Bold Italic'"
         id="path19042" />
      <path
         d="m 330.07645,275.14761 q -5.59371,0 -8.99529,-3.70394 -3.32598,-3.77953 -3.32598,-9.6756 0,-5.74488 3.25039,-11.41418 3.2504,-5.74488 8.46615,-9.37323 5.21575,-3.62835 10.73387,-3.62835 3.70394,0 6.50079,1.81417 2.79685,1.73859 4.30866,4.8378 1.51181,3.02362 1.51181,6.80315 0,5.74489 -3.25039,11.41419 -3.2504,5.66929 -8.46615,9.29764 -5.21575,3.62835 -10.73386,3.62835 z m 1.36063,-6.72757 q 3.25039,0 6.34961,-2.41889 3.09921,-2.49449 5.06457,-6.27402 1.96535,-3.77953 1.96535,-7.40788 0,-3.55276 -1.73858,-5.89607 -1.73858,-2.34331 -4.61103,-2.34331 -3.25039,0 -6.34961,2.57008 -3.09921,2.57008 -5.06457,6.50079 -1.88976,3.85512 -1.88976,7.55906 0,3.40158 1.66299,5.59371 1.66299,2.11653 4.61103,2.11653 z"
         style="font-style:italic;font-weight:bold;font-family:'Comic Neue';-inkscape-font-specification:'Comic Neue Bold Italic'"
         id="path19039" />
      <path
         d="m 359.5567,275.14761 q -1.43622,0 -2.34331,-1.05827 -0.8315,-1.05827 -0.52913,-2.4189 l 6.50079,-30.68978 q 0.30236,-1.51182 1.66299,-2.57008 1.36063,-1.05827 2.87244,-1.05827 1.20945,0 1.96536,0.83149 0.8315,0.75591 0.8315,1.96536 0,0.52913 -0.0756,0.8315 l -1.20945,5.74488 q 3.09921,-4.53543 6.80315,-6.87874 3.77953,-2.4189 7.63465,-2.4189 4.38426,0 6.4252,2.19213 2.11654,2.11653 2.11654,7.1811 0,4.68662 -1.51181,11.48977 l -2.87245,13.22836 q -0.30236,1.43622 -1.51181,2.57008 -1.20945,1.05827 -2.72126,1.05827 -1.43622,0 -2.34331,-1.05827 -0.8315,-1.13386 -0.52913,-2.49449 l 2.64567,-12.54804 q 1.43622,-6.72756 1.43622,-10.05355 0,-2.57008 -0.8315,-3.55276 -0.83149,-0.98268 -2.49449,-0.98268 -2.26771,0 -4.98898,1.96536 -2.64567,1.88976 -5.36693,5.44252 -2.34331,3.09922 -3.70394,6.04725 -1.28504,2.94803 -2.19213,7.10552 l -1.36063,6.34961 q -0.30236,1.66299 -1.51181,2.72126 -1.13386,1.05827 -2.79685,1.05827 z"
         style="font-style:italic;font-weight:bold;font-family:'Comic Neue';-inkscape-font-specification:'Comic Neue Bold Italic'"
         id="path19036" />
      <path
         d="m 408.237,275.07202 q -4.68661,0 -7.63465,-3.17481 -2.87244,-3.1748 -2.87244,-8.91969 0,-6.27402 2.72126,-12.17009 2.72126,-5.89606 7.55906,-9.6 4.8378,-3.70394 10.80946,-3.70394 4.30866,0 7.55906,2.26772 l 3.02362,-12.24568 q 0.37796,-1.51181 1.663,-2.57008 1.36063,-1.13386 2.87244,-1.13386 1.36063,0 2.04094,0.90709 0.75591,0.83149 0.8315,2.04094 0,0.30237 -0.15118,0.90709 l -10.35591,43.99373 q -0.37796,1.51181 -1.663,2.49449 -1.28504,0.98268 -2.79685,0.98268 -1.36063,0 -2.11653,-0.75591 -0.75591,-0.7559 -0.75591,-1.96535 0,-0.60473 0.0756,-0.90709 l 0.37795,-1.51181 q -2.19212,2.26771 -5.21575,3.70394 -2.94803,1.36063 -5.97166,1.36063 z m 2.04095,-6.80316 q 2.64567,0 5.06457,-1.13386 2.49449,-1.20945 4.15748,-2.94803 1.663,-1.81417 2.11654,-3.62835 l 3.2504,-13.90867 q -1.20945,-0.90709 -3.17481,-1.5874 -1.88976,-0.75591 -3.85512,-0.75591 -3.85512,0 -6.80315,2.64567 -2.87245,2.57008 -4.38426,6.65198 -1.51181,4.08189 -1.51181,8.23937 0,3.17481 1.36063,4.8378 1.36063,1.5874 3.77953,1.5874 z"
         style="font-style:italic;font-weight:bold;font-family:'Comic Neue';-inkscape-font-specification:'Comic Neue Bold Italic'"
         id="path19033" />
      <path
         d="m 452.91089,275.14761 q -6.95434,0 -11.11182,-3.77953 -4.15748,-3.77953 -4.15748,-10.43151 0,-5.82047 3.02362,-11.26299 3.02363,-5.44253 8.0126,-8.8441 4.98898,-3.40158 10.58269,-3.40158 4.15748,0 6.87874,1.5874 2.79686,1.51181 4.0819,3.77953 1.28504,2.26772 1.28504,4.38426 0,1.5874 -0.75591,2.72126 -0.75591,1.05827 -2.34331,1.88976 l -22.75277,11.64095 q 0.30236,2.34331 2.72126,3.62835 2.4189,1.28504 5.44253,1.28504 4.91338,0 8.69291,-3.25039 1.51182,-1.20945 2.79686,-1.20945 1.28504,0 2.04094,0.7559 0.8315,0.68032 0.8315,1.81418 0,1.05827 -0.37795,1.81417 -0.37796,0.75591 -1.36063,1.58741 -2.4189,2.19212 -6.27402,3.77953 -3.85512,1.51181 -7.2567,1.51181 z m 11.263,-27.74175 q -0.52914,-1.663 -2.04095,-2.49449 -1.51181,-0.8315 -3.77953,-0.8315 -4.8378,0 -8.99528,4.15748 -1.96536,1.96536 -3.1748,4.45985 -1.13386,2.49449 -1.28505,4.45984 z"
         style="font-style:italic;font-weight:bold;font-family:'Comic Neue';-inkscape-font-specification:'Comic Neue Bold Italic'"
         id="path19030" />
      <path
         d="m 484.12972,275.2232 q -2.34331,0 -2.79685,-2.49449 l -5.6693,-28.87561 q -0.0756,-0.37795 -0.22677,-1.05827 -0.15118,-0.68031 -0.15118,-1.20945 0,-1.66299 1.43622,-2.87244 1.51182,-1.28504 3.17481,-1.28504 2.4189,0 2.87244,2.4189 l 4.08189,22.526 13.83308,-22.75277 q 0.60473,-1.05827 1.663,-1.663 1.05826,-0.60472 2.26771,-0.60472 1.36063,0 2.11654,0.83149 0.8315,0.75591 0.8315,1.96536 0,0.98268 -0.8315,2.34331 l -18.67088,30.46301 q -1.43622,2.26772 -3.93071,2.26772 z"
         style="font-style:italic;font-weight:bold;font-family:'Comic Neue';-inkscape-font-specification:'Comic Neue Bold Italic'"
         id="path19027" />
    </g>
  </g>
</svg>
