<?xml version="1.0" encoding="UTF-8" standalone="no"?>
<!-- Created with Inkscape (http://www.inkscape.org/) -->

<svg
   width="31.541674mm"
   height="3.72364mm"
   viewBox="0 0 31.541673 3.7236401"
   version="1.1"
   id="svg5"
   sodipodi:docname="drawing.svg"
   inkscape:version="1.1.1 (3bf5ae0d25, 2021-09-20)"
   xmlns:inkscape="http://www.inkscape.org/namespaces/inkscape"
   xmlns:sodipodi="http://sodipodi.sourceforge.net/DTD/sodipodi-0.dtd"
   xmlns="http://www.w3.org/2000/svg"
   xmlns:svg="http://www.w3.org/2000/svg">
  <sodipodi:namedview
     id="namedview7"
     pagecolor="#ffffff"
     bordercolor="#666666"
     borderopacity="1.0"
     inkscape:pageshadow="2"
     inkscape:pageopacity="0.0"
     inkscape:pagecheckerboard="0"
     inkscape:document-units="mm"
     showgrid="false"
     inkscape:zoom="4.3994184"
     inkscape:cx="193.77561"
     inkscape:cy="30.799526"
     inkscape:window-width="3440"
     inkscape:window-height="1377"
     inkscape:window-x="-8"
     inkscape:window-y="-8"
     inkscape:window-maximized="1"
     inkscape:current-layer="layer1"
     fit-margin-top="0"
     fit-margin-left="0"
     fit-margin-right="0"
     fit-margin-bottom="0" />
  <defs
     id="defs2" />
  <g
     inkscape:label="F.Mask"
     inkscape:groupmode="layer"
     id="layer1"
     transform="translate(-7.4178053,-91.744761)"
     style="display:inline">
    <g
       aria-label="Cinnamondev_"
       id="text4332"
       style="font-size:5.08px;line-height:1.25;fill:#000000;fill-opacity:1;stroke:none;stroke-width:0.264583">
      <path
         d="m 8.9011653,95.209321 c 0.49276,0 0.9398,-0.20828 1.2191997,-0.60452 0.03556,-0.0508 0.04572,-0.1016 0.04572,-0.1524 0,-0.16256 -0.12192,-0.254 -0.2539997,-0.254 -0.0762,0 -0.13716,0.02032 -0.19812,0.1016 -0.16256,0.21336 -0.41148,0.42164 -0.8128,0.42164 -0.52832,0 -0.97536,-0.381 -0.97536,-1.0414 0,-0.7366 0.51816,-1.44272 1.0414,-1.44272 0.27432,0 0.4318,0.08636 0.53848,0.19812 v 0.03556 c 0,0.10668 0.1016,0.2032 0.23876,0.2032 0.14224,0 0.254,-0.11684 0.254,-0.254 v -0.32512 c 0,-0.127 -0.09652,-0.23368 -0.23368,-0.23368 -0.07112,0 -0.12192,0.03048 -0.1524,0.06096 -0.1524,-0.09144 -0.381,-0.1778 -0.6096,-0.1778 -0.77724,0 -1.58496,0.91948 -1.58496,1.93548 0,0.9652 0.67564,1.52908 1.48336,1.52908 z"
         style="font-weight:bold;font-family:'Comic Neue';-inkscape-font-specification:'Comic Neue Bold';fill:#000000;fill-opacity:1;stroke:none"
         id="path27062" />
      <path
         d="m 10.897604,92.461041 c 0.13716,0 0.23876,-0.1016 0.24384,-0.23876 l 0.0051,-0.19304 c 0.0051,-0.12192 -0.11176,-0.24384 -0.23876,-0.24384 -0.127,0 -0.23876,0.10668 -0.24384,0.23876 l -0.0051,0.18796 c -0.0051,0.13208 0.11176,0.24892 0.23876,0.24892 z m -0.0254,2.74828 c 0.13208,0 0.24892,-0.11176 0.24892,-0.24892 l 0.0254,-2.02184 c 0,-0.13716 -0.10668,-0.24892 -0.24892,-0.24892 -0.13208,0 -0.24892,0.11176 -0.24892,0.24892 l -0.0254,2.02184 c 0,0.13716 0.11176,0.24892 0.24892,0.24892 z"
         style="font-weight:bold;font-family:'Comic Neue';-inkscape-font-specification:'Comic Neue Bold';fill:#000000;fill-opacity:1;stroke:none"
         id="path27064" />
      <path
         d="m 12.101555,95.209321 c 0.1524,0 0.23876,-0.11176 0.23876,-0.254 v -0.42672 c 0,-0.37592 0.05588,-0.6096 0.20828,-0.88392 0.17272,-0.31496 0.38608,-0.49784 0.58928,-0.49784 0.23368,0 0.33528,0.17272 0.33528,0.98044 v 0.84328 c 0,0.12192 0.11176,0.23876 0.24384,0.23876 0.13716,0 0.23368,-0.11684 0.23368,-0.24384 0,-0.28956 0.0051,-0.46228 0.0051,-0.889 0,-1.06172 -0.21844,-1.40208 -0.77216,-1.40208 -0.34544,0 -0.64516,0.21844 -0.8382,0.62484 v -0.38608 c 0,-0.13716 -0.10668,-0.24384 -0.23368,-0.24384 -0.13208,0 -0.254,0.10668 -0.254,0.24384 v 2.06248 c 0,0.12192 0.11176,0.23368 0.24384,0.23368 z"
         style="font-weight:bold;font-family:'Comic Neue';-inkscape-font-specification:'Comic Neue Bold';fill:#000000;fill-opacity:1;stroke:none"
         id="path27066" />
      <path
         d="m 14.859991,95.209321 c 0.1524,0 0.23876,-0.11176 0.23876,-0.254 v -0.42672 c 0,-0.37592 0.05588,-0.6096 0.20828,-0.88392 0.17272,-0.31496 0.38608,-0.49784 0.58928,-0.49784 0.23368,0 0.33528,0.17272 0.33528,0.98044 v 0.84328 c 0,0.12192 0.11176,0.23876 0.24384,0.23876 0.13716,0 0.23368,-0.11684 0.23368,-0.24384 0,-0.28956 0.0051,-0.46228 0.0051,-0.889 0,-1.06172 -0.21844,-1.40208 -0.77216,-1.40208 -0.34544,0 -0.64516,0.21844 -0.8382,0.62484 v -0.38608 c 0,-0.13716 -0.10668,-0.24384 -0.23368,-0.24384 -0.13208,0 -0.254,0.10668 -0.254,0.24384 v 2.06248 c 0,0.12192 0.11176,0.23368 0.24384,0.23368 z"
         style="font-weight:bold;font-family:'Comic Neue';-inkscape-font-specification:'Comic Neue Bold';fill:#000000;fill-opacity:1;stroke:none"
         id="path27068" />
      <path
         d="m 19.000188,95.260121 c 0.14224,0 0.24384,-0.12192 0.24384,-0.254 v -2.11328 c -0.13208,-0.06096 -0.44704,-0.21844 -0.8128,-0.21844 -0.75184,0 -1.2192,0.7366 -1.2192,1.43764 0,0.65532 0.42164,1.09728 0.98044,1.09728 0.2032,0 0.42164,-0.05588 0.57912,-0.22352 v 0.07112 c 0,0.12192 0.09144,0.2032 0.2286,0.2032 z m -0.77216,-0.52324 c -0.32512,0 -0.52324,-0.21336 -0.52324,-0.635 0,-0.49784 0.28956,-0.96012 0.7366,-0.96012 0.10668,0 0.23368,0.0254 0.32004,0.06096 l -0.01524,1.32588 c -0.10668,0.09652 -0.3048,0.20828 -0.51816,0.20828 z"
         style="font-weight:bold;font-family:'Comic Neue';-inkscape-font-specification:'Comic Neue Bold';fill:#000000;fill-opacity:1;stroke:none"
         id="path27070" />
      <path
         d="m 20.199065,95.209321 c 0.13208,0 0.24384,-0.10668 0.24384,-0.23876 l -0.0051,-0.74676 c 0,-0.24892 0.06096,-0.44196 0.1778,-0.64008 0.13208,-0.20828 0.3556,-0.44196 0.59436,-0.44196 0.1778,0 0.24892,0.14732 0.24892,0.46736 v 1.36144 c 0,0.13208 0.11684,0.23876 0.24384,0.23876 0.13716,0 0.24384,-0.10668 0.24384,-0.23876 v -0.94488 c 0,-0.51308 0.33528,-0.88392 0.62992,-0.88392 0.19304,0 0.27432,0.15748 0.27432,0.46736 v 1.36144 c 0,0.13208 0.11176,0.23876 0.24384,0.23876 0.127,0 0.24384,-0.10668 0.24384,-0.23876 v -1.33096 c 0,-0.66548 -0.27432,-0.9652 -0.68072,-0.9652 -0.34036,0 -0.59944,0.19812 -0.79248,0.48768 -0.09144,-0.33528 -0.32004,-0.48768 -0.5842,-0.48768 -0.34544,0 -0.62992,0.2032 -0.8382,0.59944 v -0.3556 c 0,-0.127 -0.10668,-0.24384 -0.24384,-0.24384 -0.127,0 -0.24384,0.11684 -0.24384,0.24384 v 2.05232 c 0,0.13208 0.11684,0.23876 0.24384,0.23876 z"
         style="font-weight:bold;font-family:'Comic Neue';-inkscape-font-specification:'Comic Neue Bold';fill:#000000;fill-opacity:1;stroke:none"
         id="path27072" />
      <path
         d="m 24.882821,95.209321 c 0.64516,0 1.1938,-0.61976 1.1938,-1.36144 0,-0.62484 -0.4572,-1.17348 -1.05156,-1.17348 -0.64516,0 -1.18872,0.62484 -1.18872,1.35636 0,0.65024 0.45212,1.17856 1.04648,1.17856 z m 0,-0.4572 c -0.27432,0 -0.54864,-0.254 -0.54864,-0.72644 0,-0.47244 0.30988,-0.89408 0.67056,-0.89408 0.32004,0 0.57404,0.35052 0.57404,0.74168 0,0.46736 -0.3302,0.87884 -0.69596,0.87884 z"
         style="font-weight:bold;font-family:'Comic Neue';-inkscape-font-specification:'Comic Neue Bold';fill:#000000;fill-opacity:1;stroke:none"
         id="path27074" />
      <path
         d="m 26.869093,95.209321 c 0.1524,0 0.23876,-0.11176 0.23876,-0.254 v -0.42672 c 0,-0.37592 0.05588,-0.6096 0.20828,-0.88392 0.17272,-0.31496 0.38608,-0.49784 0.58928,-0.49784 0.23368,0 0.33528,0.17272 0.33528,0.98044 v 0.84328 c 0,0.12192 0.11176,0.23876 0.24384,0.23876 0.13716,0 0.23368,-0.11684 0.23368,-0.24384 0,-0.28956 0.0051,-0.46228 0.0051,-0.889 0,-1.06172 -0.21844,-1.40208 -0.77216,-1.40208 -0.34544,0 -0.64516,0.21844 -0.8382,0.62484 v -0.38608 c 0,-0.13716 -0.10668,-0.24384 -0.23368,-0.24384 -0.13208,0 -0.254,0.10668 -0.254,0.24384 v 2.06248 c 0,0.12192 0.11176,0.23368 0.24384,0.23368 z"
         style="font-weight:bold;font-family:'Comic Neue';-inkscape-font-specification:'Comic Neue Bold';fill:#000000;fill-opacity:1;stroke:none"
         id="path27076" />
      <path
         d="m 30.13045,95.204241 c 0.2794,0 0.528319,-0.14732 0.680719,-0.28956 v 0.09144 c 0,0.127 0.11176,0.2032 0.23368,0.2032 0.13716,0 0.24384,-0.1016 0.24892,-0.23368 l 0.07112,-2.95656 c 0.0051,-0.15748 -0.11684,-0.25908 -0.23876,-0.25908 -0.13716,0 -0.24892,0.11176 -0.254,0.24892 l -0.0254,0.7874 c -0.127,-0.0508 -0.325119,-0.11684 -0.543559,-0.11684 -0.635,0 -1.08204,0.48768 -1.08204,1.37668 0,0.74676 0.40132,1.14808 0.90932,1.14808 z m 0.04064,-0.4572 c -0.26924,0 -0.46228,-0.19812 -0.46228,-0.70612 0,-0.58928 0.21336,-0.90424 0.62484,-0.90424 0.18796,0 0.396239,0.08128 0.507999,0.15748 l -0.02032,1.00076 c -0.0051,0.17272 -0.279399,0.45212 -0.650239,0.45212 z"
         style="font-weight:bold;font-family:'Comic Neue';-inkscape-font-specification:'Comic Neue Bold';fill:#000000;fill-opacity:1;stroke:none"
         id="path27078" />
      <path
         d="m 33.132726,95.209321 c 0.31496,0 0.66548,-0.16764 0.84836,-0.37592 0.04064,-0.04572 0.06096,-0.09144 0.06096,-0.1524 0,-0.13208 -0.1016,-0.2286 -0.23876,-0.2286 -0.06604,0 -0.12192,0.03556 -0.16764,0.08128 -0.11176,0.11684 -0.2794,0.21844 -0.50292,0.21844 -0.28956,0 -0.5588,-0.11684 -0.65532,-0.3302 l 1.36144,-0.78232 c 0.10668,-0.06096 0.15748,-0.1524 0.15748,-0.23368 0,-0.23876 -0.3048,-0.73152 -0.97536,-0.73152 -0.69596,0 -1.14808,0.62484 -1.14808,1.25984 0,0.79756 0.54356,1.27508 1.25984,1.27508 z m -0.79756,-1.20904 c 0,-0.07112 0,-0.10668 0.01016,-0.18288 0.04064,-0.37592 0.31496,-0.6858 0.7112,-0.6858 0.19812,0 0.3556,0.07112 0.43688,0.21336 z"
         style="font-weight:bold;font-family:'Comic Neue';-inkscape-font-specification:'Comic Neue Bold';fill:#000000;fill-opacity:1;stroke:none"
         id="path27080" />
      <path
         d="m 35.230762,95.214401 c 0.127,0 0.18796,-0.05588 0.2286,-0.1524 l 0.82296,-2.04724 c 0.01524,-0.04064 0.0254,-0.06604 0.0254,-0.10668 0,-0.12192 -0.09652,-0.23876 -0.24384,-0.23876 -0.1016,0 -0.19304,0.06096 -0.2286,0.1524 l -0.60452,1.52908 -0.59944,-1.51384 c -0.04064,-0.1016 -0.10668,-0.16256 -0.2286,-0.16256 -0.13716,0 -0.24892,0.10668 -0.24892,0.2286 0,0.04064 0.0051,0.07112 0.01524,0.1016 l 0.8382,2.04216 c 0.04572,0.10668 0.1016,0.16764 0.22352,0.16764 z"
         style="font-weight:bold;font-family:'Comic Neue';-inkscape-font-specification:'Comic Neue Bold';fill:#000000;fill-opacity:1;stroke:none"
         id="path27082" />
      <path
         d="m 36.455038,95.468401 h 2.2606 c 0.13208,0 0.24384,-0.10668 0.24384,-0.24384 0,-0.13208 -0.11176,-0.24384 -0.24384,-0.24384 h -2.2606 c -0.13716,0 -0.24384,0.11176 -0.24384,0.24384 0,0.13716 0.10668,0.24384 0.24384,0.24384 z"
         style="font-weight:bold;font-family:'Comic Neue';-inkscape-font-specification:'Comic Neue Bold';fill:#000000;fill-opacity:1;stroke:none"
         id="path27084" />
    </g>
  </g>
  <g
     inkscape:label="F.Cu"
     inkscape:groupmode="layer"
     id="g27131"
     transform="translate(-7.4178053,-91.744761)"
     style="display:none">
    <g
       aria-label="Cinnamondev_"
       id="g27129"
       style="font-size:5.08px;line-height:1.25;fill:#000000;fill-opacity:1;stroke:none;stroke-width:0.264583;stroke-opacity:1">
      <path
         d="m 8.9011653,95.209321 c 0.49276,0 0.9398,-0.20828 1.2191997,-0.60452 0.03556,-0.0508 0.04572,-0.1016 0.04572,-0.1524 0,-0.16256 -0.12192,-0.254 -0.2539997,-0.254 -0.0762,0 -0.13716,0.02032 -0.19812,0.1016 -0.16256,0.21336 -0.41148,0.42164 -0.8128,0.42164 -0.52832,0 -0.97536,-0.381 -0.97536,-1.0414 0,-0.7366 0.51816,-1.44272 1.0414,-1.44272 0.27432,0 0.4318,0.08636 0.53848,0.19812 v 0.03556 c 0,0.10668 0.1016,0.2032 0.23876,0.2032 0.14224,0 0.254,-0.11684 0.254,-0.254 v -0.32512 c 0,-0.127 -0.09652,-0.23368 -0.23368,-0.23368 -0.07112,0 -0.12192,0.03048 -0.1524,0.06096 -0.1524,-0.09144 -0.381,-0.1778 -0.6096,-0.1778 -0.77724,0 -1.58496,0.91948 -1.58496,1.93548 0,0.9652 0.67564,1.52908 1.48336,1.52908 z"
         style="font-weight:bold;font-family:'Comic Neue';-inkscape-font-specification:'Comic Neue Bold';fill:#000000;fill-opacity:1;stroke:none;stroke-opacity:1"
         id="path27105" />
      <path
         d="m 10.897604,92.461041 c 0.13716,0 0.23876,-0.1016 0.24384,-0.23876 l 0.0051,-0.19304 c 0.0051,-0.12192 -0.11176,-0.24384 -0.23876,-0.24384 -0.127,0 -0.23876,0.10668 -0.24384,0.23876 l -0.0051,0.18796 c -0.0051,0.13208 0.11176,0.24892 0.23876,0.24892 z m -0.0254,2.74828 c 0.13208,0 0.24892,-0.11176 0.24892,-0.24892 l 0.0254,-2.02184 c 0,-0.13716 -0.10668,-0.24892 -0.24892,-0.24892 -0.13208,0 -0.24892,0.11176 -0.24892,0.24892 l -0.0254,2.02184 c 0,0.13716 0.11176,0.24892 0.24892,0.24892 z"
         style="font-weight:bold;font-family:'Comic Neue';-inkscape-font-specification:'Comic Neue Bold';fill:#000000;fill-opacity:1;stroke:none;stroke-opacity:1"
         id="path27107" />
      <path
         d="m 12.101555,95.209321 c 0.1524,0 0.23876,-0.11176 0.23876,-0.254 v -0.42672 c 0,-0.37592 0.05588,-0.6096 0.20828,-0.88392 0.17272,-0.31496 0.38608,-0.49784 0.58928,-0.49784 0.23368,0 0.33528,0.17272 0.33528,0.98044 v 0.84328 c 0,0.12192 0.11176,0.23876 0.24384,0.23876 0.13716,0 0.23368,-0.11684 0.23368,-0.24384 0,-0.28956 0.0051,-0.46228 0.0051,-0.889 0,-1.06172 -0.21844,-1.40208 -0.77216,-1.40208 -0.34544,0 -0.64516,0.21844 -0.8382,0.62484 v -0.38608 c 0,-0.13716 -0.10668,-0.24384 -0.23368,-0.24384 -0.13208,0 -0.254,0.10668 -0.254,0.24384 v 2.06248 c 0,0.12192 0.11176,0.23368 0.24384,0.23368 z"
         style="font-weight:bold;font-family:'Comic Neue';-inkscape-font-specification:'Comic Neue Bold';fill:#000000;fill-opacity:1;stroke:none;stroke-opacity:1"
         id="path27109" />
      <path
         d="m 14.859991,95.209321 c 0.1524,0 0.23876,-0.11176 0.23876,-0.254 v -0.42672 c 0,-0.37592 0.05588,-0.6096 0.20828,-0.88392 0.17272,-0.31496 0.38608,-0.49784 0.58928,-0.49784 0.23368,0 0.33528,0.17272 0.33528,0.98044 v 0.84328 c 0,0.12192 0.11176,0.23876 0.24384,0.23876 0.13716,0 0.23368,-0.11684 0.23368,-0.24384 0,-0.28956 0.0051,-0.46228 0.0051,-0.889 0,-1.06172 -0.21844,-1.40208 -0.77216,-1.40208 -0.34544,0 -0.64516,0.21844 -0.8382,0.62484 v -0.38608 c 0,-0.13716 -0.10668,-0.24384 -0.23368,-0.24384 -0.13208,0 -0.254,0.10668 -0.254,0.24384 v 2.06248 c 0,0.12192 0.11176,0.23368 0.24384,0.23368 z"
         style="font-weight:bold;font-family:'Comic Neue';-inkscape-font-specification:'Comic Neue Bold';fill:#000000;fill-opacity:1;stroke:none;stroke-opacity:1"
         id="path27111" />
      <path
         d="m 19.000188,95.260121 c 0.14224,0 0.24384,-0.12192 0.24384,-0.254 v -2.11328 c -0.13208,-0.06096 -0.44704,-0.21844 -0.8128,-0.21844 -0.75184,0 -1.2192,0.7366 -1.2192,1.43764 0,0.65532 0.42164,1.09728 0.98044,1.09728 0.2032,0 0.42164,-0.05588 0.57912,-0.22352 v 0.07112 c 0,0.12192 0.09144,0.2032 0.2286,0.2032 z m -0.77216,-0.52324 c -0.32512,0 -0.52324,-0.21336 -0.52324,-0.635 0,-0.49784 0.28956,-0.96012 0.7366,-0.96012 0.10668,0 0.23368,0.0254 0.32004,0.06096 l -0.01524,1.32588 c -0.10668,0.09652 -0.3048,0.20828 -0.51816,0.20828 z"
         style="font-weight:bold;font-family:'Comic Neue';-inkscape-font-specification:'Comic Neue Bold';fill:#000000;fill-opacity:1;stroke:none;stroke-opacity:1"
         id="path27113" />
      <path
         d="m 20.199065,95.209321 c 0.13208,0 0.24384,-0.10668 0.24384,-0.23876 l -0.0051,-0.74676 c 0,-0.24892 0.06096,-0.44196 0.1778,-0.64008 0.13208,-0.20828 0.3556,-0.44196 0.59436,-0.44196 0.1778,0 0.24892,0.14732 0.24892,0.46736 v 1.36144 c 0,0.13208 0.11684,0.23876 0.24384,0.23876 0.13716,0 0.24384,-0.10668 0.24384,-0.23876 v -0.94488 c 0,-0.51308 0.33528,-0.88392 0.62992,-0.88392 0.19304,0 0.27432,0.15748 0.27432,0.46736 v 1.36144 c 0,0.13208 0.11176,0.23876 0.24384,0.23876 0.127,0 0.24384,-0.10668 0.24384,-0.23876 v -1.33096 c 0,-0.66548 -0.27432,-0.9652 -0.68072,-0.9652 -0.34036,0 -0.59944,0.19812 -0.79248,0.48768 -0.09144,-0.33528 -0.32004,-0.48768 -0.5842,-0.48768 -0.34544,0 -0.62992,0.2032 -0.8382,0.59944 v -0.3556 c 0,-0.127 -0.10668,-0.24384 -0.24384,-0.24384 -0.127,0 -0.24384,0.11684 -0.24384,0.24384 v 2.05232 c 0,0.13208 0.11684,0.23876 0.24384,0.23876 z"
         style="font-weight:bold;font-family:'Comic Neue';-inkscape-font-specification:'Comic Neue Bold';fill:#000000;fill-opacity:1;stroke:none;stroke-opacity:1"
         id="path27115" />
      <path
         d="m 24.882821,95.209321 c 0.64516,0 1.1938,-0.61976 1.1938,-1.36144 0,-0.62484 -0.4572,-1.17348 -1.05156,-1.17348 -0.64516,0 -1.18872,0.62484 -1.18872,1.35636 0,0.65024 0.45212,1.17856 1.04648,1.17856 z m 0,-0.4572 c -0.27432,0 -0.54864,-0.254 -0.54864,-0.72644 0,-0.47244 0.30988,-0.89408 0.67056,-0.89408 0.32004,0 0.57404,0.35052 0.57404,0.74168 0,0.46736 -0.3302,0.87884 -0.69596,0.87884 z"
         style="font-weight:bold;font-family:'Comic Neue';-inkscape-font-specification:'Comic Neue Bold';fill:#000000;fill-opacity:1;stroke:none;stroke-opacity:1"
         id="path27117" />
      <path
         d="m 26.869093,95.209321 c 0.1524,0 0.23876,-0.11176 0.23876,-0.254 v -0.42672 c 0,-0.37592 0.05588,-0.6096 0.20828,-0.88392 0.17272,-0.31496 0.38608,-0.49784 0.58928,-0.49784 0.23368,0 0.33528,0.17272 0.33528,0.98044 v 0.84328 c 0,0.12192 0.11176,0.23876 0.24384,0.23876 0.13716,0 0.23368,-0.11684 0.23368,-0.24384 0,-0.28956 0.0051,-0.46228 0.0051,-0.889 0,-1.06172 -0.21844,-1.40208 -0.77216,-1.40208 -0.34544,0 -0.64516,0.21844 -0.8382,0.62484 v -0.38608 c 0,-0.13716 -0.10668,-0.24384 -0.23368,-0.24384 -0.13208,0 -0.254,0.10668 -0.254,0.24384 v 2.06248 c 0,0.12192 0.11176,0.23368 0.24384,0.23368 z"
         style="font-weight:bold;font-family:'Comic Neue';-inkscape-font-specification:'Comic Neue Bold';fill:#000000;fill-opacity:1;stroke:none;stroke-opacity:1"
         id="path27119" />
      <path
         d="m 30.13045,95.204241 c 0.2794,0 0.528319,-0.14732 0.680719,-0.28956 v 0.09144 c 0,0.127 0.11176,0.2032 0.23368,0.2032 0.13716,0 0.24384,-0.1016 0.24892,-0.23368 l 0.07112,-2.95656 c 0.0051,-0.15748 -0.11684,-0.25908 -0.23876,-0.25908 -0.13716,0 -0.24892,0.11176 -0.254,0.24892 l -0.0254,0.7874 c -0.127,-0.0508 -0.325119,-0.11684 -0.543559,-0.11684 -0.635,0 -1.08204,0.48768 -1.08204,1.37668 0,0.74676 0.40132,1.14808 0.90932,1.14808 z m 0.04064,-0.4572 c -0.26924,0 -0.46228,-0.19812 -0.46228,-0.70612 0,-0.58928 0.21336,-0.90424 0.62484,-0.90424 0.18796,0 0.396239,0.08128 0.507999,0.15748 l -0.02032,1.00076 c -0.0051,0.17272 -0.279399,0.45212 -0.650239,0.45212 z"
         style="font-weight:bold;font-family:'Comic Neue';-inkscape-font-specification:'Comic Neue Bold';fill:#000000;fill-opacity:1;stroke:none;stroke-opacity:1"
         id="path27121" />
      <path
         d="m 33.132726,95.209321 c 0.31496,0 0.66548,-0.16764 0.84836,-0.37592 0.04064,-0.04572 0.06096,-0.09144 0.06096,-0.1524 0,-0.13208 -0.1016,-0.2286 -0.23876,-0.2286 -0.06604,0 -0.12192,0.03556 -0.16764,0.08128 -0.11176,0.11684 -0.2794,0.21844 -0.50292,0.21844 -0.28956,0 -0.5588,-0.11684 -0.65532,-0.3302 l 1.36144,-0.78232 c 0.10668,-0.06096 0.15748,-0.1524 0.15748,-0.23368 0,-0.23876 -0.3048,-0.73152 -0.97536,-0.73152 -0.69596,0 -1.14808,0.62484 -1.14808,1.25984 0,0.79756 0.54356,1.27508 1.25984,1.27508 z m -0.79756,-1.20904 c 0,-0.07112 0,-0.10668 0.01016,-0.18288 0.04064,-0.37592 0.31496,-0.6858 0.7112,-0.6858 0.19812,0 0.3556,0.07112 0.43688,0.21336 z"
         style="font-weight:bold;font-family:'Comic Neue';-inkscape-font-specification:'Comic Neue Bold';fill:#000000;fill-opacity:1;stroke:none;stroke-opacity:1"
         id="path27123" />
      <path
         d="m 35.230762,95.214401 c 0.127,0 0.18796,-0.05588 0.2286,-0.1524 l 0.82296,-2.04724 c 0.01524,-0.04064 0.0254,-0.06604 0.0254,-0.10668 0,-0.12192 -0.09652,-0.23876 -0.24384,-0.23876 -0.1016,0 -0.19304,0.06096 -0.2286,0.1524 l -0.60452,1.52908 -0.59944,-1.51384 c -0.04064,-0.1016 -0.10668,-0.16256 -0.2286,-0.16256 -0.13716,0 -0.24892,0.10668 -0.24892,0.2286 0,0.04064 0.0051,0.07112 0.01524,0.1016 l 0.8382,2.04216 c 0.04572,0.10668 0.1016,0.16764 0.22352,0.16764 z"
         style="font-weight:bold;font-family:'Comic Neue';-inkscape-font-specification:'Comic Neue Bold';fill:#000000;fill-opacity:1;stroke:none;stroke-opacity:1"
         id="path27125" />
      <path
         d="m 36.455038,95.468401 h 2.2606 c 0.13208,0 0.24384,-0.10668 0.24384,-0.24384 0,-0.13208 -0.11176,-0.24384 -0.24384,-0.24384 h -2.2606 c -0.13716,0 -0.24384,0.11176 -0.24384,0.24384 0,0.13716 0.10668,0.24384 0.24384,0.24384 z"
         style="font-weight:bold;font-family:'Comic Neue';-inkscape-font-specification:'Comic Neue Bold';fill:#000000;fill-opacity:1;stroke:none;stroke-opacity:1"
         id="path27127" />
    </g>
  </g>
</svg>
