  0
SECTION
  2
HEADER
  9
$ACADVER
  1
AC1014
  9
$HANDSEED
  5
FFFF
  9
$MEASUREMENT
 70
     1
  0
ENDSEC
  0
SECTION
  2
TABLES
  0
TABLE
  2
VPORT
  5
8
330
0
100
AcDbSymbolTable
 70
     4
  0
VPORT
  5
2E
330
8
100
AcDbSymbolTableRecord
100
AcDbViewportTableRecord
  2
*ACTIVE
 70
     0
 10
0.0
 20
0.0
 11
1.0
 21
1.0
 12
210.0
 22
148.5
 13
0.0
 23
0.0
 14
10.0
 24
10.0
 15
10.0
 25
10.0
 16
0.0
 26
0.0
 36
1.0
 17
0.0
 27
0.0
 37
0.0
 40
341.0
 41
1.24
 42
50.0
 43
0.0
 44
0.0
 50
0.0
 51
0.0
 71
     0
 72
   100
 73
     1
 74
     3
 75
     0
 76
     0
 77
     0
 78
     0
  0
ENDTAB
  0
TABLE
  2
LTYPE
  5
5
330
0
100
AcDbSymbolTable
 70
     1
  0
LTYPE
  5
14
330
5
100
AcDbSymbolTableRecord
100
AcDbLinetypeTableRecord
  2
BYBLOCK
 70
     0
  3

 72
    65
 73
     0
 40
0.0
  0
LTYPE
  5
15
330
5
100
AcDbSymbolTableRecord
100
AcDbLinetypeTableRecord
  2
BYLAYER
 70
     0
  3

 72
    65
 73
     0
 40
0.0
  0
LTYPE
  5
16
330
5
100
AcDbSymbolTableRecord
100
AcDbLinetypeTableRecord
  2
CONTINUOUS
 70
     0
  3
Solid line
 72
    65
 73
     0
 40
0.0
  0
ENDTAB
  0
TABLE
  2
LAYER
  5
2
100
AcDbSymbolTable
 70
2
  0
LAYER
  5
50
100
AcDbSymbolTableRecord
100
AcDbLayerTableRecord
  2
0
 70
0
  6
CONTINUOUS
  0
LAYER
  5
51
100
AcDbSymbolTableRecord
100
AcDbLayerTableRecord
  2
Layer_1
 70
0
  6
CONTINUOUS
  0
ENDTAB
  0
TABLE
  2
STYLE
  5
3
330
0
100
AcDbSymbolTable
 70
     1
  0
STYLE
  5
11
330
3
100
AcDbSymbolTableRecord
100
AcDbTextStyleTableRecord
  2
STANDARD
 70
     0
 40
0.0
 41
1.0
 50
0.0
 71
     0
 42
2.5
  3
txt
  4

  0
ENDTAB
  0
TABLE
  2
VIEW
  5
6
330
0
100
AcDbSymbolTable
 70
     0
  0
ENDTAB
  0
TABLE
  2
UCS
  5
7
330
0
100
AcDbSymbolTable
 70
     0
  0
ENDTAB
  0
TABLE
  2
APPID
  5
9
330
0
100
AcDbSymbolTable
 70
     2
  0
APPID
  5
12
330
9
100
AcDbSymbolTableRecord
100
AcDbRegAppTableRecord
  2
ACAD
 70
     0
  0
ENDTAB
  0
TABLE
  2
DIMSTYLE
  5
A
330
0
100
AcDbSymbolTable
 70
     1
  0
DIMSTYLE
105
27
330
A
100
AcDbSymbolTableRecord
100
AcDbDimStyleTableRecord
  2
ISO-25
 70
     0
  3

  4

  5

  6

  7

 40
1.0
 41
2.5
 42
0.625
 43
3.75
 44
1.25
 45
0.0
 46
0.0
 47
0.0
 48
0.0
140
2.5
141
2.5
142
0.0
143
0.03937007874016
144
1.0
145
0.0
146
1.0
147
0.625
 71
     0
 72
     0
 73
     0
 74
     0
 75
     0
 76
     0
 77
     1
 78
     8
170
     0
171
     3
172
     1
173
     0
174
     0
175
     0
176
     0
177
     0
178
     0
270
     2
271
     2
272
     2
273
     2
274
     3
340
11
275
     0
280
     0
281
     0
282
     0
283
     0
284
     8
285
     0
286
     0
287
     3
288
     0
  0
ENDTAB
  0
TABLE
  2
BLOCK_RECORD
  5
1
330
0
100
AcDbSymbolTable
 70
     1
  0
BLOCK_RECORD
  5
1F
330
1
100
AcDbSymbolTableRecord
100
AcDbBlockTableRecord
  2
*MODEL_SPACE
  0
BLOCK_RECORD
  5
1B
330
1
100
AcDbSymbolTableRecord
100
AcDbBlockTableRecord
  2
*PAPER_SPACE
  0
ENDTAB
  0
ENDSEC
  0
SECTION
  2
BLOCKS
  0
BLOCK
  5
20
330
1F
100
AcDbEntity
  8
0
100
AcDbBlockBegin
  2
*MODEL_SPACE
 70
     0
 10
0.0
 20
0.0
 30
0.0
  3
*MODEL_SPACE
  1

  0
ENDBLK
  5
21
330
1F
100
AcDbEntity
  8
0
100
AcDbBlockEnd
  0
BLOCK
  5
1C
330
1B
100
AcDbEntity
 67
     1
  8
0
100
AcDbBlockBegin
  2
*PAPER_SPACE
  1

  0
ENDBLK
  5
1D
330
1B
100
AcDbEntity
 67
     1
  8
0
100
AcDbBlockEnd
  0
ENDSEC
  0
SECTION
  2
ENTITIES
  0
SPLINE
  5
100
100
AcDbEntity
  8
Layer_1
 62
7
100
AcDbSpline
 70
8
 71
3
 72
8
 73
4
 74
0
 40
0
 40
0
 40
0
 40
0
 40
1
 40
1
 40
1
 40
1
 10
7.187178
 20
8.483092
 30
0.0
 10
6.930864
 20
9.338858
 30
0.0
 10
6.564995
 20
9.954840
 30
0.0
 10
6.089573
 20
10.331040
 30
0.0
  0
SPLINE
  5
101
100
AcDbEntity
  8
Layer_1
 62
7
100
AcDbSpline
 70
8
 71
3
 72
8
 73
4
 74
0
 40
0
 40
0
 40
0
 40
0
 40
1
 40
1
 40
1
 40
1
 10
6.089573
 20
10.331040
 30
0.0
 10
5.614150
 20
10.707246
 30
0.0
 10
5.043643
 20
10.895349
 30
0.0
 10
4.378052
 20
10.895349
 30
0.0
  0
SPLINE
  5
102
100
AcDbEntity
  8
Layer_1
 62
7
100
AcDbSpline
 70
8
 71
3
 72
8
 73
4
 74
0
 40
0
 40
0
 40
0
 40
0
 40
1
 40
1
 40
1
 40
1
 10
4.378052
 20
10.895349
 30
0.0
 10
3.819947
 20
10.895349
 30
0.0
 10
3.315585
 20
10.752722
 30
0.0
 10
2.864968
 20
10.467470
 30
0.0
  0
SPLINE
  5
103
100
AcDbEntity
  8
Layer_1
 62
7
100
AcDbSpline
 70
8
 71
3
 72
8
 73
4
 74
0
 40
0
 40
0
 40
0
 40
0
 40
1
 40
1
 40
1
 40
1
 10
2.864968
 20
10.467470
 30
0.0
 10
2.414350
 20
10.186350
 30
0.0
 10
2.058816
 20
9.735731
 30
0.0
 10
1.798368
 20
9.115611
 30
0.0
  0
SPLINE
  5
104
100
AcDbEntity
  8
Layer_1
 62
7
100
AcDbSpline
 70
8
 71
3
 72
8
 73
4
 74
0
 40
0
 40
0
 40
0
 40
0
 40
1
 40
1
 40
1
 40
1
 10
1.798368
 20
9.115611
 30
0.0
 10
1.542053
 20
8.495499
 30
0.0
 10
1.413895
 20
7.724490
 30
0.0
 10
1.413895
 20
6.802585
 30
0.0
  0
SPLINE
  5
105
100
AcDbEntity
  8
Layer_1
 62
7
100
AcDbSpline
 70
8
 71
3
 72
8
 73
4
 74
0
 40
0
 40
0
 40
0
 40
0
 40
1
 40
1
 40
1
 40
1
 10
1.413895
 20
6.802585
 30
0.0
 10
1.413895
 20
6.041906
 30
0.0
 10
1.535852
 20
5.382513
 30
0.0
 10
1.779765
 20
4.824407
 30
0.0
  0
SPLINE
  5
106
100
AcDbEntity
  8
Layer_1
 62
7
100
AcDbSpline
 70
8
 71
3
 72
8
 73
4
 74
0
 40
0
 40
0
 40
0
 40
0
 40
1
 40
1
 40
1
 40
1
 10
1.779765
 20
4.824407
 30
0.0
 10
2.023677
 20
4.266308
 30
0.0
 10
2.389545
 20
3.838429
 30
0.0
 10
2.877370
 20
3.540769
 30
0.0
  0
SPLINE
  5
107
100
AcDbEntity
  8
Layer_1
 62
7
100
AcDbSpline
 70
8
 71
3
 72
8
 73
4
 74
0
 40
0
 40
0
 40
0
 40
0
 40
1
 40
1
 40
1
 40
1
 10
2.877370
 20
3.540769
 30
0.0
 10
3.369329
 20
3.243116
 30
0.0
 10
3.929500
 20
3.094290
 30
0.0
 10
4.557885
 20
3.094290
 30
0.0
  0
SPLINE
  5
108
100
AcDbEntity
  8
Layer_1
 62
7
100
AcDbSpline
 70
8
 71
3
 72
8
 73
4
 74
0
 40
0
 40
0
 40
0
 40
0
 40
1
 40
1
 40
1
 40
1
 10
4.557885
 20
3.094290
 30
0.0
 10
5.103587
 20
3.094290
 30
0.0
 10
5.585211
 20
3.210043
 30
0.0
 10
6.002757
 20
3.441549
 30
0.0
  0
SPLINE
  5
109
100
AcDbEntity
  8
Layer_1
 62
7
100
AcDbSpline
 70
8
 71
3
 72
8
 73
4
 74
0
 40
0
 40
0
 40
0
 40
0
 40
1
 40
1
 40
1
 40
1
 10
6.002757
 20
3.441549
 30
0.0
 10
6.420301
 20
3.677196
 30
0.0
 10
6.879187
 20
4.142285
 30
0.0
 10
7.379415
 20
4.836817
 30
0.0
  0
LWPOLYLINE
  5
10a
100
AcDbEntity
  8
Layer_1
 62
7
100
AcDbPolyline
 90
3
 70
0
 10
7.187178
 20
11.341838
 30
0.0
 10
7.379415
 20
8.483092
 30
0.0
 10
7.187178
 20
8.483092
 30
0.0
  0
SPLINE
  5
10b
100
AcDbEntity
  8
Layer_1
 62
7
100
AcDbSpline
 70
8
 71
3
 72
8
 73
4
 74
0
 40
0
 40
0
 40
0
 40
0
 40
1
 40
1
 40
1
 40
1
 10
7.571651
 20
4.712787
 30
0.0
 10
7.149971
 20
3.964515
 30
0.0
 10
6.658012
 20
3.416746
 30
0.0
 10
6.095774
 20
3.069480
 30
0.0
  0
SPLINE
  5
10c
100
AcDbEntity
  8
Layer_1
 62
7
100
AcDbSpline
 70
8
 71
3
 72
8
 73
4
 74
0
 40
0
 40
0
 40
0
 40
0
 40
1
 40
1
 40
1
 40
1
 10
6.095774
 20
3.069480
 30
0.0
 10
5.533535
 20
2.722214
 30
0.0
 10
4.865877
 20
2.548580
 30
0.0
 10
4.092798
 20
2.548580
 30
0.0
  0
SPLINE
  5
10d
100
AcDbEntity
  8
Layer_1
 62
7
100
AcDbSpline
 70
8
 71
3
 72
8
 73
4
 74
0
 40
0
 40
0
 40
0
 40
0
 40
1
 40
1
 40
1
 40
1
 10
4.092798
 20
2.548580
 30
0.0
 10
2.699604
 20
2.548580
 30
0.0
 10
1.620601
 20
3.065346
 30
0.0
 10
0.855791
 20
4.098878
 30
0.0
  0
SPLINE
  5
10e
100
AcDbEntity
  8
Layer_1
 62
7
100
AcDbSpline
 70
8
 71
3
 72
8
 73
4
 74
0
 40
0
 40
0
 40
0
 40
0
 40
1
 40
1
 40
1
 40
1
 10
0.855791
 20
4.098878
 30
0.0
 10
0.285284
 20
4.867817
 30
0.0
 10
0.000030
 20
5.773186
 30
0.0
 10
0.000030
 20
6.814985
 30
0.0
  0
SPLINE
  5
10f
100
AcDbEntity
  8
Layer_1
 62
7
100
AcDbSpline
 70
8
 71
3
 72
8
 73
4
 74
0
 40
0
 40
0
 40
0
 40
0
 40
1
 40
1
 40
1
 40
1
 10
0.000030
 20
6.814985
 30
0.0
 10
0.000030
 20
7.654210
 30
0.0
 10
0.188132
 20
8.425222
 30
0.0
 10
0.564336
 20
9.128021
 30
0.0
  0
SPLINE
  5
110
100
AcDbEntity
  8
Layer_1
 62
7
100
AcDbSpline
 70
8
 71
3
 72
8
 73
4
 74
0
 40
0
 40
0
 40
0
 40
0
 40
1
 40
1
 40
1
 40
1
 10
0.564336
 20
9.128021
 30
0.0
 10
0.940540
 20
9.830820
 30
0.0
 10
1.457303
 20
10.374453
 30
0.0
 10
2.114627
 20
10.758919
 30
0.0
  0
SPLINE
  5
111
100
AcDbEntity
  8
Layer_1
 62
7
100
AcDbSpline
 70
8
 71
3
 72
8
 73
4
 74
0
 40
0
 40
0
 40
0
 40
0
 40
1
 40
1
 40
1
 40
1
 10
2.114627
 20
10.758919
 30
0.0
 10
2.776084
 20
11.147532
 30
0.0
 10
3.497486
 20
11.341838
 30
0.0
 10
4.278833
 20
11.341838
 30
0.0
  0
SPLINE
  5
112
100
AcDbEntity
  8
Layer_1
 62
7
100
AcDbSpline
 70
8
 71
3
 72
8
 73
4
 74
0
 40
0
 40
0
 40
0
 40
0
 40
1
 40
1
 40
1
 40
1
 10
4.278833
 20
11.341838
 30
0.0
 10
4.886547
 20
11.341838
 30
0.0
 10
5.485993
 20
11.193009
 30
0.0
 10
6.077171
 20
10.895349
 30
0.0
  0
SPLINE
  5
113
100
AcDbEntity
  8
Layer_1
 62
7
100
AcDbSpline
 70
8
 71
3
 72
8
 73
4
 74
0
 40
0
 40
0
 40
0
 40
0
 40
1
 40
1
 40
1
 40
1
 10
6.077171
 20
10.895349
 30
0.0
 10
6.250803
 20
10.804396
 30
0.0
 10
6.374826
 20
10.758919
 30
0.0
 10
6.449240
 20
10.758919
 30
0.0
  0
SPLINE
  5
114
100
AcDbEntity
  8
Layer_1
 62
7
100
AcDbSpline
 70
8
 71
3
 72
8
 73
4
 74
0
 40
0
 40
0
 40
0
 40
0
 40
1
 40
1
 40
1
 40
1
 10
6.449240
 20
10.758919
 30
0.0
 10
6.560861
 20
10.758919
 30
0.0
 10
6.658013
 20
10.798196
 30
0.0
 10
6.740695
 20
10.876749
 30
0.0
  0
SPLINE
  5
115
100
AcDbEntity
  8
Layer_1
 62
7
100
AcDbSpline
 70
8
 71
3
 72
8
 73
4
 74
0
 40
0
 40
0
 40
0
 40
0
 40
1
 40
1
 40
1
 40
1
 10
6.740695
 20
10.876749
 30
0.0
 10
6.848181
 20
10.988369
 30
0.0
 10
6.924662
 20
11.143399
 30
0.0
 10
6.970137
 20
11.341838
 30
0.0
  0
LWPOLYLINE
  5
116
100
AcDbEntity
  8
Layer_1
 62
7
100
AcDbPolyline
 90
2
 70
0
 10
7.379415
 20
4.836817
 30
0.0
 10
7.571651
 20
4.712787
 30
0.0
  0
SPLINE
  5
117
100
AcDbEntity
  8
Layer_1
 62
7
100
AcDbSpline
 70
8
 71
3
 72
8
 73
4
 74
0
 40
0
 40
0
 40
0
 40
0
 40
1
 40
1
 40
1
 40
1
 10
9.853678
 20
11.558878
 30
0.0
 10
10.027311
 20
11.558878
 30
0.0
 10
10.174072
 20
11.496865
 30
0.0
 10
10.293961
 20
11.372838
 30
0.0
  0
SPLINE
  5
118
100
AcDbEntity
  8
Layer_1
 62
7
100
AcDbSpline
 70
8
 71
3
 72
8
 73
4
 74
0
 40
0
 40
0
 40
0
 40
0
 40
1
 40
1
 40
1
 40
1
 10
10.293961
 20
11.372838
 30
0.0
 10
10.417984
 20
11.252952
 30
0.0
 10
10.479995
 20
11.106192
 30
0.0
 10
10.479995
 20
10.932559
 30
0.0
  0
SPLINE
  5
119
100
AcDbEntity
  8
Layer_1
 62
7
100
AcDbSpline
 70
8
 71
3
 72
8
 73
4
 74
0
 40
0
 40
0
 40
0
 40
0
 40
1
 40
1
 40
1
 40
1
 10
10.479995
 20
10.932559
 30
0.0
 10
10.479995
 20
10.758926
 30
0.0
 10
10.417984
 20
10.610096
 30
0.0
 10
10.293961
 20
10.486069
 30
0.0
  0
SPLINE
  5
11a
100
AcDbEntity
  8
Layer_1
 62
7
100
AcDbSpline
 70
8
 71
3
 72
8
 73
4
 74
0
 40
0
 40
0
 40
0
 40
0
 40
1
 40
1
 40
1
 40
1
 10
10.293961
 20
10.486069
 30
0.0
 10
10.174072
 20
10.362050
 30
0.0
 10
10.027311
 20
10.300040
 30
0.0
 10
9.853678
 20
10.300040
 30
0.0
  0
SPLINE
  5
11b
100
AcDbEntity
  8
Layer_1
 62
7
100
AcDbSpline
 70
8
 71
3
 72
8
 73
4
 74
0
 40
0
 40
0
 40
0
 40
0
 40
1
 40
1
 40
1
 40
1
 10
9.853678
 20
10.300040
 30
0.0
 10
9.680046
 20
10.300040
 30
0.0
 10
9.531218
 20
10.362050
 30
0.0
 10
9.407195
 20
10.486069
 30
0.0
  0
SPLINE
  5
11c
100
AcDbEntity
  8
Layer_1
 62
7
100
AcDbSpline
 70
8
 71
3
 72
8
 73
4
 74
0
 40
0
 40
0
 40
0
 40
0
 40
1
 40
1
 40
1
 40
1
 10
9.407195
 20
10.486069
 30
0.0
 10
9.283171
 20
10.610096
 30
0.0
 10
9.221159
 20
10.758926
 30
0.0
 10
9.221159
 20
10.932559
 30
0.0
  0
SPLINE
  5
11d
100
AcDbEntity
  8
Layer_1
 62
7
100
AcDbSpline
 70
8
 71
3
 72
8
 73
4
 74
0
 40
0
 40
0
 40
0
 40
0
 40
1
 40
1
 40
1
 40
1
 10
9.221159
 20
10.932559
 30
0.0
 10
9.221159
 20
11.106192
 30
0.0
 10
9.281104
 20
11.252952
 30
0.0
 10
9.400993
 20
11.372838
 30
0.0
  0
SPLINE
  5
11e
100
AcDbEntity
  8
Layer_1
 62
7
100
AcDbSpline
 70
8
 71
3
 72
8
 73
4
 74
0
 40
0
 40
0
 40
0
 40
0
 40
1
 40
1
 40
1
 40
1
 10
9.400993
 20
11.372838
 30
0.0
 10
9.525017
 20
11.496865
 30
0.0
 10
9.675912
 20
11.558878
 30
0.0
 10
9.853678
 20
11.558878
 30
0.0
  0
LWPOLYLINE
  5
11f
100
AcDbEntity
  8
Layer_1
 62
7
100
AcDbPolyline
 90
2
 70
0
 10
6.970137
 20
11.341838
 30
0.0
 10
7.187178
 20
11.341838
 30
0.0
  0
LWPOLYLINE
  5
120
100
AcDbEntity
  8
Layer_1
 62
7
100
AcDbPolyline
 90
1
 70
1
 10
9.853678
 20
11.558878
 30
0.0
  0
SPLINE
  5
121
100
AcDbEntity
  8
Layer_1
 62
7
100
AcDbSpline
 70
8
 71
3
 72
8
 73
4
 74
0
 40
0
 40
0
 40
0
 40
0
 40
1
 40
1
 40
1
 40
1
 10
10.368375
 20
4.024458
 30
0.0
 10
10.368375
 20
3.668926
 30
0.0
 10
10.393178
 20
3.431216
 30
0.0
 10
10.442785
 20
3.311329
 30
0.0
  0
SPLINE
  5
122
100
AcDbEntity
  8
Layer_1
 62
7
100
AcDbSpline
 70
8
 71
3
 72
8
 73
4
 74
0
 40
0
 40
0
 40
0
 40
0
 40
1
 40
1
 40
1
 40
1
 10
10.442785
 20
3.311329
 30
0.0
 10
10.496531
 20
3.195570
 30
0.0
 10
10.573012
 20
3.108753
 30
0.0
 10
10.672228
 20
3.050880
 30
0.0
  0
SPLINE
  5
123
100
AcDbEntity
  8
Layer_1
 62
7
100
AcDbSpline
 70
8
 71
3
 72
8
 73
4
 74
0
 40
0
 40
0
 40
0
 40
0
 40
1
 40
1
 40
1
 40
1
 10
10.672228
 20
3.050880
 30
0.0
 10
10.775581
 20
2.993013
 30
0.0
 10
10.961615
 20
2.964080
 30
0.0
 10
11.230332
 20
2.964080
 30
0.0
  0
LWPOLYLINE
  5
124
100
AcDbEntity
  8
Layer_1
 62
7
100
AcDbPolyline
 90
2
 70
0
 10
10.368375
 20
8.588512
 30
0.0
 10
10.368375
 20
4.024458
 30
0.0
  0
SPLINE
  5
125
100
AcDbEntity
  8
Layer_1
 62
7
100
AcDbSpline
 70
8
 71
3
 72
8
 73
4
 74
0
 40
0
 40
0
 40
0
 40
0
 40
1
 40
1
 40
1
 40
1
 10
8.470815
 20
2.964080
 30
0.0
 10
8.747800
 20
2.964080
 30
0.0
 10
8.933835
 20
2.990947
 30
0.0
 10
9.028920
 20
3.044680
 30
0.0
  0
SPLINE
  5
126
100
AcDbEntity
  8
Layer_1
 62
7
100
AcDbSpline
 70
8
 71
3
 72
8
 73
4
 74
0
 40
0
 40
0
 40
0
 40
0
 40
1
 40
1
 40
1
 40
1
 10
9.028920
 20
3.044680
 30
0.0
 10
9.124004
 20
3.098413
 30
0.0
 10
9.198418
 20
3.187296
 30
0.0
 10
9.252161
 20
3.311329
 30
0.0
  0
SPLINE
  5
127
100
AcDbEntity
  8
Layer_1
 62
7
100
AcDbSpline
 70
8
 71
3
 72
8
 73
4
 74
0
 40
0
 40
0
 40
0
 40
0
 40
1
 40
1
 40
1
 40
1
 10
9.252161
 20
3.311329
 30
0.0
 10
9.310041
 20
3.435349
 30
0.0
 10
9.338981
 20
3.673059
 30
0.0
 10
9.338981
 20
4.024458
 30
0.0
  0
LWPOLYLINE
  5
128
100
AcDbEntity
  8
Layer_1
 62
7
100
AcDbPolyline
 90
4
 70
0
 10
11.230332
 20
2.964080
 30
0.0
 10
11.230332
 20
2.740840
 30
0.0
 10
8.470815
 20
2.740840
 30
0.0
 10
8.470815
 20
2.964080
 30
0.0
  0
SPLINE
  5
129
100
AcDbEntity
  8
Layer_1
 62
7
100
AcDbSpline
 70
8
 71
3
 72
8
 73
4
 74
0
 40
0
 40
0
 40
0
 40
0
 40
1
 40
1
 40
1
 40
1
 10
9.338981
 20
6.213475
 30
0.0
 10
9.338981
 20
6.829455
 30
0.0
 10
9.320378
 20
7.228394
 30
0.0
 10
9.283171
 20
7.410294
 30
0.0
  0
SPLINE
  5
12a
100
AcDbEntity
  8
Layer_1
 62
7
100
AcDbSpline
 70
8
 71
3
 72
8
 73
4
 74
0
 40
0
 40
0
 40
0
 40
0
 40
1
 40
1
 40
1
 40
1
 10
9.283171
 20
7.410294
 30
0.0
 10
9.254231
 20
7.542587
 30
0.0
 10
9.208756
 20
7.633537
 30
0.0
 10
9.146745
 20
7.683143
 30
0.0
  0
SPLINE
  5
12b
100
AcDbEntity
  8
Layer_1
 62
7
100
AcDbSpline
 70
8
 71
3
 72
8
 73
4
 74
0
 40
0
 40
0
 40
0
 40
0
 40
1
 40
1
 40
1
 40
1
 10
9.146745
 20
7.683143
 30
0.0
 10
9.084732
 20
7.736877
 30
0.0
 10
8.999983
 20
7.763743
 30
0.0
 10
8.892498
 20
7.763743
 30
0.0
  0
SPLINE
  5
12c
100
AcDbEntity
  8
Layer_1
 62
7
100
AcDbSpline
 70
8
 71
3
 72
8
 73
4
 74
0
 40
0
 40
0
 40
0
 40
0
 40
1
 40
1
 40
1
 40
1
 10
8.892498
 20
7.763743
 30
0.0
 10
8.776743
 20
7.763743
 30
0.0
 10
8.636184
 20
7.732743
 30
0.0
 10
8.470819
 20
7.670743
 30
0.0
  0
LWPOLYLINE
  5
12d
100
AcDbEntity
  8
Layer_1
 62
7
100
AcDbPolyline
 90
2
 70
0
 10
9.338981
 20
4.024458
 30
0.0
 10
9.338981
 20
6.213475
 30
0.0
  0
SPLINE
  5
12e
100
AcDbEntity
  8
Layer_1
 62
7
100
AcDbSpline
 70
8
 71
3
 72
8
 73
4
 74
0
 40
0
 40
0
 40
0
 40
0
 40
1
 40
1
 40
1
 40
1
 10
13.592980
 20
7.385494
 30
0.0
 10
14.258572
 20
8.187506
 30
0.0
 10
14.893158
 20
8.588512
 30
0.0
 10
15.496738
 20
8.588512
 30
0.0
  0
SPLINE
  5
12f
100
AcDbEntity
  8
Layer_1
 62
7
100
AcDbSpline
 70
8
 71
3
 72
8
 73
4
 74
0
 40
0
 40
0
 40
0
 40
0
 40
1
 40
1
 40
1
 40
1
 10
15.496738
 20
8.588512
 30
0.0
 10
15.806796
 20
8.588512
 30
0.0
 10
16.073446
 20
8.509966
 30
0.0
 10
16.296687
 20
8.352872
 30
0.0
  0
SPLINE
  5
130
100
AcDbEntity
  8
Layer_1
 62
7
100
AcDbSpline
 70
8
 71
3
 72
8
 73
4
 74
0
 40
0
 40
0
 40
0
 40
0
 40
1
 40
1
 40
1
 40
1
 10
16.296687
 20
8.352872
 30
0.0
 10
16.519929
 20
8.199913
 30
0.0
 10
16.697696
 20
7.945666
 30
0.0
 10
16.829988
 20
7.590133
 30
0.0
  0
SPLINE
  5
131
100
AcDbEntity
  8
Layer_1
 62
7
100
AcDbSpline
 70
8
 71
3
 72
8
 73
4
 74
0
 40
0
 40
0
 40
0
 40
0
 40
1
 40
1
 40
1
 40
1
 10
16.829988
 20
7.590133
 30
0.0
 10
16.920938
 20
7.342087
 30
0.0
 10
16.966413
 20
6.961748
 30
0.0
 10
16.966413
 20
6.449115
 30
0.0
  0
LWPOLYLINE
  5
132
100
AcDbEntity
  8
Layer_1
 62
7
100
AcDbPolyline
 90
4
 70
0
 10
8.470819
 20
7.670743
 30
0.0
 10
8.383999
 20
7.893983
 30
0.0
 10
10.095521
 20
8.588512
 30
0.0
 10
10.368375
 20
8.588512
 30
0.0
  0
SPLINE
  5
133
100
AcDbEntity
  8
Layer_1
 62
7
100
AcDbSpline
 70
8
 71
3
 72
8
 73
4
 74
0
 40
0
 40
0
 40
0
 40
0
 40
1
 40
1
 40
1
 40
1
 10
16.966413
 20
4.024458
 30
0.0
 10
16.966413
 20
3.664792
 30
0.0
 10
16.995352
 20
3.420879
 30
0.0
 10
17.053232
 20
3.292719
 30
0.0
  0
SPLINE
  5
134
100
AcDbEntity
  8
Layer_1
 62
7
100
AcDbSpline
 70
8
 71
3
 72
8
 73
4
 74
0
 40
0
 40
0
 40
0
 40
0
 40
1
 40
1
 40
1
 40
1
 10
17.053232
 20
3.292719
 30
0.0
 10
17.098706
 20
3.189366
 30
0.0
 10
17.171053
 20
3.108753
 30
0.0
 10
17.270273
 20
3.050880
 30
0.0
  0
SPLINE
  5
135
100
AcDbEntity
  8
Layer_1
 62
7
100
AcDbSpline
 70
8
 71
3
 72
8
 73
4
 74
0
 40
0
 40
0
 40
0
 40
0
 40
1
 40
1
 40
1
 40
1
 10
17.270273
 20
3.050880
 30
0.0
 10
17.373626
 20
2.993013
 30
0.0
 10
17.561727
 20
2.964080
 30
0.0
 10
17.834578
 20
2.964080
 30
0.0
  0
LWPOLYLINE
  5
136
100
AcDbEntity
  8
Layer_1
 62
7
100
AcDbPolyline
 90
2
 70
0
 10
16.966413
 20
6.449115
 30
0.0
 10
16.966413
 20
4.024458
 30
0.0
  0
SPLINE
  5
137
100
AcDbEntity
  8
Layer_1
 62
7
100
AcDbSpline
 70
8
 71
3
 72
8
 73
4
 74
0
 40
0
 40
0
 40
0
 40
0
 40
1
 40
1
 40
1
 40
1
 10
15.143274
 20
2.964080
 30
0.0
 10
15.407857
 20
2.964080
 30
0.0
 10
15.591825
 20
3.003353
 30
0.0
 10
15.695177
 20
3.081900
 30
0.0
  0
SPLINE
  5
138
100
AcDbEntity
  8
Layer_1
 62
7
100
AcDbSpline
 70
8
 71
3
 72
8
 73
4
 74
0
 40
0
 40
0
 40
0
 40
0
 40
1
 40
1
 40
1
 40
1
 10
15.695177
 20
3.081900
 30
0.0
 10
15.802664
 20
3.164586
 30
0.0
 10
15.877078
 20
3.284476
 30
0.0
 10
15.918419
 20
3.441569
 30
0.0
  0
SPLINE
  5
139
100
AcDbEntity
  8
Layer_1
 62
7
100
AcDbSpline
 70
8
 71
3
 72
8
 73
4
 74
0
 40
0
 40
0
 40
0
 40
0
 40
1
 40
1
 40
1
 40
1
 10
15.918419
 20
3.441569
 30
0.0
 10
15.934959
 20
3.503569
 30
0.0
 10
15.943229
 20
3.697872
 30
0.0
 10
15.943229
 20
4.024478
 30
0.0
  0
LWPOLYLINE
  5
13a
100
AcDbEntity
  8
Layer_1
 62
7
100
AcDbPolyline
 90
5
 70
0
 10
17.834578
 20
2.964080
 30
0.0
 10
17.834578
 20
2.740840
 30
0.0
 10
15.025452
 20
2.740840
 30
0.0
 10
15.025452
 20
2.964080
 30
0.0
 10
15.143274
 20
2.964080
 30
0.0
  0
SPLINE
  5
13b
100
AcDbEntity
  8
Layer_1
 62
7
100
AcDbSpline
 70
8
 71
3
 72
8
 73
4
 74
0
 40
0
 40
0
 40
0
 40
0
 40
1
 40
1
 40
1
 40
1
 10
15.943229
 20
6.349915
 30
0.0
 10
15.943229
 20
6.866681
 30
0.0
 10
15.875016
 20
7.240817
 30
0.0
 10
15.738590
 20
7.472324
 30
0.0
  0
SPLINE
  5
13c
100
AcDbEntity
  8
Layer_1
 62
7
100
AcDbSpline
 70
8
 71
3
 72
8
 73
4
 74
0
 40
0
 40
0
 40
0
 40
0
 40
1
 40
1
 40
1
 40
1
 10
15.738590
 20
7.472324
 30
0.0
 10
15.606299
 20
7.707970
 30
0.0
 10
15.380990
 20
7.825793
 30
0.0
 10
15.062664
 20
7.825793
 30
0.0
  0
SPLINE
  5
13d
100
AcDbEntity
  8
Layer_1
 62
7
100
AcDbSpline
 70
8
 71
3
 72
8
 73
4
 74
0
 40
0
 40
0
 40
0
 40
0
 40
1
 40
1
 40
1
 40
1
 10
15.062664
 20
7.825793
 30
0.0
 10
14.570705
 20
7.825793
 30
0.0
 10
14.080813
 20
7.557077
 30
0.0
 10
13.592988
 20
7.019644
 30
0.0
  0
LWPOLYLINE
  5
13e
100
AcDbEntity
  8
Layer_1
 62
7
100
AcDbPolyline
 90
2
 70
0
 10
15.943229
 20
4.024478
 30
0.0
 10
15.943229
 20
6.349915
 30
0.0
  0
SPLINE
  5
13f
100
AcDbEntity
  8
Layer_1
 62
7
100
AcDbSpline
 70
8
 71
3
 72
8
 73
4
 74
0
 40
0
 40
0
 40
0
 40
0
 40
1
 40
1
 40
1
 40
1
 10
13.592988
 20
4.024478
 30
0.0
 10
13.592988
 20
3.640006
 30
0.0
 10
13.615725
 20
3.402296
 30
0.0
 10
13.661198
 20
3.311349
 30
0.0
  0
SPLINE
  5
140
100
AcDbEntity
  8
Layer_1
 62
7
100
AcDbSpline
 70
8
 71
3
 72
8
 73
4
 74
0
 40
0
 40
0
 40
0
 40
0
 40
1
 40
1
 40
1
 40
1
 10
13.661198
 20
3.311349
 30
0.0
 10
13.719078
 20
3.191456
 30
0.0
 10
13.797626
 20
3.102573
 30
0.0
 10
13.896842
 20
3.044700
 30
0.0
  0
SPLINE
  5
141
100
AcDbEntity
  8
Layer_1
 62
7
100
AcDbSpline
 70
8
 71
3
 72
8
 73
4
 74
0
 40
0
 40
0
 40
0
 40
0
 40
1
 40
1
 40
1
 40
1
 10
13.896842
 20
3.044700
 30
0.0
 10
14.000195
 20
2.990967
 30
0.0
 10
14.206901
 20
2.964100
 30
0.0
 10
14.516959
 20
2.964100
 30
0.0
  0
LWPOLYLINE
  5
142
100
AcDbEntity
  8
Layer_1
 62
7
100
AcDbPolyline
 90
2
 70
0
 10
13.592988
 20
7.019644
 30
0.0
 10
13.592988
 20
4.024478
 30
0.0
  0
SPLINE
  5
143
100
AcDbEntity
  8
Layer_1
 62
7
100
AcDbSpline
 70
8
 71
3
 72
8
 73
4
 74
0
 40
0
 40
0
 40
0
 40
0
 40
1
 40
1
 40
1
 40
1
 10
11.831855
 20
2.964100
 30
0.0
 10
12.121242
 20
2.964100
 30
0.0
 10
12.315545
 20
3.036446
 30
0.0
 10
12.414764
 20
3.181140
 30
0.0
  0
SPLINE
  5
144
100
AcDbEntity
  8
Layer_1
 62
7
100
AcDbSpline
 70
8
 71
3
 72
8
 73
4
 74
0
 40
0
 40
0
 40
0
 40
0
 40
1
 40
1
 40
1
 40
1
 10
12.414764
 20
3.181140
 30
0.0
 10
12.518117
 20
3.329973
 30
0.0
 10
12.569794
 20
3.611092
 30
0.0
 10
12.569794
 20
4.024498
 30
0.0
  0
LWPOLYLINE
  5
145
100
AcDbEntity
  8
Layer_1
 62
7
100
AcDbPolyline
 90
5
 70
0
 10
14.516959
 20
2.964100
 30
0.0
 10
14.516959
 20
2.740860
 30
0.0
 10
11.707832
 20
2.740860
 30
0.0
 10
11.707832
 20
2.964100
 30
0.0
 10
11.831855
 20
2.964100
 30
0.0
  0
SPLINE
  5
146
100
AcDbEntity
  8
Layer_1
 62
7
100
AcDbSpline
 70
8
 71
3
 72
8
 73
4
 74
0
 40
0
 40
0
 40
0
 40
0
 40
1
 40
1
 40
1
 40
1
 10
12.569794
 20
6.132896
 30
0.0
 10
12.569794
 20
6.815021
 30
0.0
 10
12.553257
 20
7.230501
 30
0.0
 10
12.520184
 20
7.379334
 30
0.0
  0
SPLINE
  5
147
100
AcDbEntity
  8
Layer_1
 62
7
100
AcDbSpline
 70
8
 71
3
 72
8
 73
4
 74
0
 40
0
 40
0
 40
0
 40
0
 40
1
 40
1
 40
1
 40
1
 10
12.520184
 20
7.379334
 30
0.0
 10
12.491244
 20
7.528160
 30
0.0
 10
12.443701
 20
7.629443
 30
0.0
 10
12.377557
 20
7.683183
 30
0.0
  0
SPLINE
  5
148
100
AcDbEntity
  8
Layer_1
 62
7
100
AcDbSpline
 70
8
 71
3
 72
8
 73
4
 74
0
 40
0
 40
0
 40
0
 40
0
 40
1
 40
1
 40
1
 40
1
 10
12.377557
 20
7.683183
 30
0.0
 10
12.315544
 20
7.736917
 30
0.0
 10
12.230794
 20
7.763783
 30
0.0
 10
12.123309
 20
7.763783
 30
0.0
  0
SPLINE
  5
149
100
AcDbEntity
  8
Layer_1
 62
7
100
AcDbSpline
 70
8
 71
3
 72
8
 73
4
 74
0
 40
0
 40
0
 40
0
 40
0
 40
1
 40
1
 40
1
 40
1
 10
12.123309
 20
7.763783
 30
0.0
 10
12.007554
 20
7.763783
 30
0.0
 10
11.869062
 20
7.732783
 30
0.0
 10
11.707832
 20
7.670783
 30
0.0
  0
LWPOLYLINE
  5
14a
100
AcDbEntity
  8
Layer_1
 62
7
100
AcDbPolyline
 90
2
 70
0
 10
12.569794
 20
4.024498
 30
0.0
 10
12.569794
 20
6.132896
 30
0.0
  0
SPLINE
  5
14b
100
AcDbEntity
  8
Layer_1
 62
7
100
AcDbSpline
 70
8
 71
3
 72
8
 73
4
 74
0
 40
0
 40
0
 40
0
 40
0
 40
1
 40
1
 40
1
 40
1
 10
19.942969
 20
7.385494
 30
0.0
 10
20.608561
 20
8.187506
 30
0.0
 10
21.243147
 20
8.588512
 30
0.0
 10
21.846727
 20
8.588512
 30
0.0
  0
SPLINE
  5
14c
100
AcDbEntity
  8
Layer_1
 62
7
100
AcDbSpline
 70
8
 71
3
 72
8
 73
4
 74
0
 40
0
 40
0
 40
0
 40
0
 40
1
 40
1
 40
1
 40
1
 10
21.846727
 20
8.588512
 30
0.0
 10
22.156785
 20
8.588512
 30
0.0
 10
22.423435
 20
8.509966
 30
0.0
 10
22.646677
 20
8.352872
 30
0.0
  0
SPLINE
  5
14d
100
AcDbEntity
  8
Layer_1
 62
7
100
AcDbSpline
 70
8
 71
3
 72
8
 73
4
 74
0
 40
0
 40
0
 40
0
 40
0
 40
1
 40
1
 40
1
 40
1
 10
22.646677
 20
8.352872
 30
0.0
 10
22.869919
 20
8.199913
 30
0.0
 10
23.047686
 20
7.945666
 30
0.0
 10
23.179977
 20
7.590133
 30
0.0
  0
SPLINE
  5
14e
100
AcDbEntity
  8
Layer_1
 62
7
100
AcDbSpline
 70
8
 71
3
 72
8
 73
4
 74
0
 40
0
 40
0
 40
0
 40
0
 40
1
 40
1
 40
1
 40
1
 10
23.179977
 20
7.590133
 30
0.0
 10
23.270927
 20
7.342087
 30
0.0
 10
23.316403
 20
6.961748
 30
0.0
 10
23.316403
 20
6.449115
 30
0.0
  0
LWPOLYLINE
  5
14f
100
AcDbEntity
  8
Layer_1
 62
7
100
AcDbPolyline
 90
5
 70
0
 10
11.707832
 20
7.670783
 30
0.0
 10
11.614812
 20
7.894023
 30
0.0
 10
13.326334
 20
8.588552
 30
0.0
 10
13.592983
 20
8.588552
 30
0.0
 10
13.592980
 20
7.385494
 30
0.0
  0
SPLINE
  5
150
100
AcDbEntity
  8
Layer_1
 62
7
100
AcDbSpline
 70
8
 71
3
 72
8
 73
4
 74
0
 40
0
 40
0
 40
0
 40
0
 40
1
 40
1
 40
1
 40
1
 10
23.316403
 20
4.024458
 30
0.0
 10
23.316403
 20
3.664792
 30
0.0
 10
23.345343
 20
3.420879
 30
0.0
 10
23.403223
 20
3.292719
 30
0.0
  0
SPLINE
  5
151
100
AcDbEntity
  8
Layer_1
 62
7
100
AcDbSpline
 70
8
 71
3
 72
8
 73
4
 74
0
 40
0
 40
0
 40
0
 40
0
 40
1
 40
1
 40
1
 40
1
 10
23.403223
 20
3.292719
 30
0.0
 10
23.448696
 20
3.189366
 30
0.0
 10
23.521043
 20
3.108753
 30
0.0
 10
23.620263
 20
3.050880
 30
0.0
  0
SPLINE
  5
152
100
AcDbEntity
  8
Layer_1
 62
7
100
AcDbSpline
 70
8
 71
3
 72
8
 73
4
 74
0
 40
0
 40
0
 40
0
 40
0
 40
1
 40
1
 40
1
 40
1
 10
23.620263
 20
3.050880
 30
0.0
 10
23.723616
 20
2.993013
 30
0.0
 10
23.911719
 20
2.964080
 30
0.0
 10
24.184570
 20
2.964080
 30
0.0
  0
LWPOLYLINE
  5
153
100
AcDbEntity
  8
Layer_1
 62
7
100
AcDbPolyline
 90
2
 70
0
 10
23.316403
 20
6.449115
 30
0.0
 10
23.316403
 20
4.024458
 30
0.0
  0
SPLINE
  5
154
100
AcDbEntity
  8
Layer_1
 62
7
100
AcDbSpline
 70
8
 71
3
 72
8
 73
4
 74
0
 40
0
 40
0
 40
0
 40
0
 40
1
 40
1
 40
1
 40
1
 10
21.493264
 20
2.964080
 30
0.0
 10
21.757847
 20
2.964080
 30
0.0
 10
21.941815
 20
3.003353
 30
0.0
 10
22.045168
 20
3.081900
 30
0.0
  0
SPLINE
  5
155
100
AcDbEntity
  8
Layer_1
 62
7
100
AcDbSpline
 70
8
 71
3
 72
8
 73
4
 74
0
 40
0
 40
0
 40
0
 40
0
 40
1
 40
1
 40
1
 40
1
 10
22.045168
 20
3.081900
 30
0.0
 10
22.152655
 20
3.164586
 30
0.0
 10
22.227069
 20
3.284476
 30
0.0
 10
22.268410
 20
3.441569
 30
0.0
  0
SPLINE
  5
156
100
AcDbEntity
  8
Layer_1
 62
7
100
AcDbSpline
 70
8
 71
3
 72
8
 73
4
 74
0
 40
0
 40
0
 40
0
 40
0
 40
1
 40
1
 40
1
 40
1
 10
22.268410
 20
3.441569
 30
0.0
 10
22.284950
 20
3.503569
 30
0.0
 10
22.293220
 20
3.697872
 30
0.0
 10
22.293220
 20
4.024478
 30
0.0
  0
LWPOLYLINE
  5
157
100
AcDbEntity
  8
Layer_1
 62
7
100
AcDbPolyline
 90
5
 70
0
 10
24.184570
 20
2.964080
 30
0.0
 10
24.184570
 20
2.740840
 30
0.0
 10
21.375442
 20
2.740840
 30
0.0
 10
21.375442
 20
2.964080
 30
0.0
 10
21.493264
 20
2.964080
 30
0.0
  0
SPLINE
  5
158
100
AcDbEntity
  8
Layer_1
 62
7
100
AcDbSpline
 70
8
 71
3
 72
8
 73
4
 74
0
 40
0
 40
0
 40
0
 40
0
 40
1
 40
1
 40
1
 40
1
 10
22.293220
 20
6.349915
 30
0.0
 10
22.293220
 20
6.866681
 30
0.0
 10
22.225007
 20
7.240817
 30
0.0
 10
22.088581
 20
7.472324
 30
0.0
  0
SPLINE
  5
159
100
AcDbEntity
  8
Layer_1
 62
7
100
AcDbSpline
 70
8
 71
3
 72
8
 73
4
 74
0
 40
0
 40
0
 40
0
 40
0
 40
1
 40
1
 40
1
 40
1
 10
22.088581
 20
7.472324
 30
0.0
 10
21.956290
 20
7.707970
 30
0.0
 10
21.730981
 20
7.825793
 30
0.0
 10
21.412654
 20
7.825793
 30
0.0
  0
SPLINE
  5
15a
100
AcDbEntity
  8
Layer_1
 62
7
100
AcDbSpline
 70
8
 71
3
 72
8
 73
4
 74
0
 40
0
 40
0
 40
0
 40
0
 40
1
 40
1
 40
1
 40
1
 10
21.412654
 20
7.825793
 30
0.0
 10
20.920696
 20
7.825793
 30
0.0
 10
20.430804
 20
7.557077
 30
0.0
 10
19.942978
 20
7.019644
 30
0.0
  0
LWPOLYLINE
  5
15b
100
AcDbEntity
  8
Layer_1
 62
7
100
AcDbPolyline
 90
2
 70
0
 10
22.293220
 20
4.024478
 30
0.0
 10
22.293220
 20
6.349915
 30
0.0
  0
SPLINE
  5
15c
100
AcDbEntity
  8
Layer_1
 62
7
100
AcDbSpline
 70
8
 71
3
 72
8
 73
4
 74
0
 40
0
 40
0
 40
0
 40
0
 40
1
 40
1
 40
1
 40
1
 10
19.942978
 20
4.024478
 30
0.0
 10
19.942978
 20
3.640006
 30
0.0
 10
19.965715
 20
3.402296
 30
0.0
 10
20.011188
 20
3.311349
 30
0.0
  0
SPLINE
  5
15d
100
AcDbEntity
  8
Layer_1
 62
7
100
AcDbSpline
 70
8
 71
3
 72
8
 73
4
 74
0
 40
0
 40
0
 40
0
 40
0
 40
1
 40
1
 40
1
 40
1
 10
20.011188
 20
3.311349
 30
0.0
 10
20.069068
 20
3.191456
 30
0.0
 10
20.147616
 20
3.102573
 30
0.0
 10
20.246833
 20
3.044700
 30
0.0
  0
SPLINE
  5
15e
100
AcDbEntity
  8
Layer_1
 62
7
100
AcDbSpline
 70
8
 71
3
 72
8
 73
4
 74
0
 40
0
 40
0
 40
0
 40
0
 40
1
 40
1
 40
1
 40
1
 10
20.246833
 20
3.044700
 30
0.0
 10
20.350185
 20
2.990967
 30
0.0
 10
20.556891
 20
2.964100
 30
0.0
 10
20.866949
 20
2.964100
 30
0.0
  0
LWPOLYLINE
  5
15f
100
AcDbEntity
  8
Layer_1
 62
7
100
AcDbPolyline
 90
2
 70
0
 10
19.942978
 20
7.019644
 30
0.0
 10
19.942978
 20
4.024478
 30
0.0
  0
SPLINE
  5
160
100
AcDbEntity
  8
Layer_1
 62
7
100
AcDbSpline
 70
8
 71
3
 72
8
 73
4
 74
0
 40
0
 40
0
 40
0
 40
0
 40
1
 40
1
 40
1
 40
1
 10
18.181846
 20
2.964100
 30
0.0
 10
18.471233
 20
2.964100
 30
0.0
 10
18.665536
 20
3.036446
 30
0.0
 10
18.764755
 20
3.181140
 30
0.0
  0
SPLINE
  5
161
100
AcDbEntity
  8
Layer_1
 62
7
100
AcDbSpline
 70
8
 71
3
 72
8
 73
4
 74
0
 40
0
 40
0
 40
0
 40
0
 40
1
 40
1
 40
1
 40
1
 10
18.764755
 20
3.181140
 30
0.0
 10
18.868108
 20
3.329973
 30
0.0
 10
18.919784
 20
3.611092
 30
0.0
 10
18.919784
 20
4.024498
 30
0.0
  0
LWPOLYLINE
  5
162
100
AcDbEntity
  8
Layer_1
 62
7
100
AcDbPolyline
 90
5
 70
0
 10
20.866949
 20
2.964100
 30
0.0
 10
20.866949
 20
2.740860
 30
0.0
 10
18.057822
 20
2.740860
 30
0.0
 10
18.057822
 20
2.964100
 30
0.0
 10
18.181846
 20
2.964100
 30
0.0
  0
SPLINE
  5
163
100
AcDbEntity
  8
Layer_1
 62
7
100
AcDbSpline
 70
8
 71
3
 72
8
 73
4
 74
0
 40
0
 40
0
 40
0
 40
0
 40
1
 40
1
 40
1
 40
1
 10
18.919784
 20
6.132896
 30
0.0
 10
18.919784
 20
6.815021
 30
0.0
 10
18.903247
 20
7.230501
 30
0.0
 10
18.870174
 20
7.379334
 30
0.0
  0
SPLINE
  5
164
100
AcDbEntity
  8
Layer_1
 62
7
100
AcDbSpline
 70
8
 71
3
 72
8
 73
4
 74
0
 40
0
 40
0
 40
0
 40
0
 40
1
 40
1
 40
1
 40
1
 10
18.870174
 20
7.379334
 30
0.0
 10
18.841234
 20
7.528160
 30
0.0
 10
18.793692
 20
7.629443
 30
0.0
 10
18.727547
 20
7.683183
 30
0.0
  0
SPLINE
  5
165
100
AcDbEntity
  8
Layer_1
 62
7
100
AcDbSpline
 70
8
 71
3
 72
8
 73
4
 74
0
 40
0
 40
0
 40
0
 40
0
 40
1
 40
1
 40
1
 40
1
 10
18.727547
 20
7.683183
 30
0.0
 10
18.665534
 20
7.736917
 30
0.0
 10
18.580785
 20
7.763783
 30
0.0
 10
18.473299
 20
7.763783
 30
0.0
  0
SPLINE
  5
166
100
AcDbEntity
  8
Layer_1
 62
7
100
AcDbSpline
 70
8
 71
3
 72
8
 73
4
 74
0
 40
0
 40
0
 40
0
 40
0
 40
1
 40
1
 40
1
 40
1
 10
18.473299
 20
7.763783
 30
0.0
 10
18.357544
 20
7.763783
 30
0.0
 10
18.219051
 20
7.732783
 30
0.0
 10
18.057821
 20
7.670783
 30
0.0
  0
LWPOLYLINE
  5
167
100
AcDbEntity
  8
Layer_1
 62
7
100
AcDbPolyline
 90
2
 70
0
 10
18.919784
 20
4.024498
 30
0.0
 10
18.919784
 20
6.132896
 30
0.0
  0
SPLINE
  5
168
100
AcDbEntity
  8
Layer_1
 62
7
100
AcDbSpline
 70
8
 71
3
 72
8
 73
4
 74
0
 40
0
 40
0
 40
0
 40
0
 40
1
 40
1
 40
1
 40
1
 10
27.855654
 20
3.559369
 30
0.0
 10
27.272745
 20
3.108756
 30
0.0
 10
26.906877
 20
2.848310
 30
0.0
 10
26.758049
 20
2.778030
 30
0.0
  0
SPLINE
  5
169
100
AcDbEntity
  8
Layer_1
 62
7
100
AcDbSpline
 70
8
 71
3
 72
8
 73
4
 74
0
 40
0
 40
0
 40
0
 40
0
 40
1
 40
1
 40
1
 40
1
 10
26.758049
 20
2.778030
 30
0.0
 10
26.534807
 20
2.674677
 30
0.0
 10
26.297095
 20
2.623000
 30
0.0
 10
26.044915
 20
2.623000
 30
0.0
  0
SPLINE
  5
16a
100
AcDbEntity
  8
Layer_1
 62
7
100
AcDbSpline
 70
8
 71
3
 72
8
 73
4
 74
0
 40
0
 40
0
 40
0
 40
0
 40
1
 40
1
 40
1
 40
1
 10
26.044915
 20
2.623000
 30
0.0
 10
25.652175
 20
2.623000
 30
0.0
 10
25.327647
 20
2.757357
 30
0.0
 10
25.071332
 20
3.026070
 30
0.0
  0
SPLINE
  5
16b
100
AcDbEntity
  8
Layer_1
 62
7
100
AcDbSpline
 70
8
 71
3
 72
8
 73
4
 74
0
 40
0
 40
0
 40
0
 40
0
 40
1
 40
1
 40
1
 40
1
 10
25.071332
 20
3.026070
 30
0.0
 10
24.819151
 20
3.294789
 30
0.0
 10
24.693061
 20
3.648256
 30
0.0
 10
24.693061
 20
4.086468
 30
0.0
  0
SPLINE
  5
16c
100
AcDbEntity
  8
Layer_1
 62
7
100
AcDbSpline
 70
8
 71
3
 72
8
 73
4
 74
0
 40
0
 40
0
 40
0
 40
0
 40
1
 40
1
 40
1
 40
1
 10
24.693061
 20
4.086468
 30
0.0
 10
24.693061
 20
4.363455
 30
0.0
 10
24.755073
 20
4.603234
 30
0.0
 10
24.879097
 20
4.805807
 30
0.0
  0
SPLINE
  5
16d
100
AcDbEntity
  8
Layer_1
 62
7
100
AcDbSpline
 70
8
 71
3
 72
8
 73
4
 74
0
 40
0
 40
0
 40
0
 40
0
 40
1
 40
1
 40
1
 40
1
 10
24.879097
 20
4.805807
 30
0.0
 10
25.048595
 20
5.086927
 30
0.0
 10
25.342117
 20
5.351510
 30
0.0
 10
25.759661
 20
5.599556
 30
0.0
  0
SPLINE
  5
16e
100
AcDbEntity
  8
Layer_1
 62
7
100
AcDbSpline
 70
8
 71
3
 72
8
 73
4
 74
0
 40
0
 40
0
 40
0
 40
0
 40
1
 40
1
 40
1
 40
1
 10
25.759661
 20
5.599556
 30
0.0
 10
26.181341
 20
5.847603
 30
0.0
 10
26.880005
 20
6.149392
 30
0.0
 10
27.855654
 20
6.504925
 30
0.0
  0
LWPOLYLINE
  5
16f
100
AcDbEntity
  8
Layer_1
 62
7
100
AcDbPolyline
 90
5
 70
0
 10
18.057821
 20
7.670783
 30
0.0
 10
17.964801
 20
7.894023
 30
0.0
 10
19.676322
 20
8.588552
 30
0.0
 10
19.942971
 20
8.588552
 30
0.0
 10
19.942969
 20
7.385494
 30
0.0
  0
SPLINE
  5
170
100
AcDbEntity
  8
Layer_1
 62
7
100
AcDbSpline
 70
8
 71
3
 72
8
 73
4
 74
0
 40
0
 40
0
 40
0
 40
0
 40
1
 40
1
 40
1
 40
1
 10
27.855654
 20
6.728165
 30
0.0
 10
27.855654
 20
7.294537
 30
0.0
 10
27.764704
 20
7.683143
 30
0.0
 10
27.582804
 20
7.893983
 30
0.0
  0
SPLINE
  5
171
100
AcDbEntity
  8
Layer_1
 62
7
100
AcDbSpline
 70
8
 71
3
 72
8
 73
4
 74
0
 40
0
 40
0
 40
0
 40
0
 40
1
 40
1
 40
1
 40
1
 10
27.582804
 20
7.893983
 30
0.0
 10
27.405037
 20
8.104823
 30
0.0
 10
27.144588
 20
8.210243
 30
0.0
 10
26.801457
 20
8.210243
 30
0.0
  0
SPLINE
  5
172
100
AcDbEntity
  8
Layer_1
 62
7
100
AcDbSpline
 70
8
 71
3
 72
8
 73
4
 74
0
 40
0
 40
0
 40
0
 40
0
 40
1
 40
1
 40
1
 40
1
 10
26.801457
 20
8.210243
 30
0.0
 10
26.541008
 20
8.210243
 30
0.0
 10
26.334303
 20
8.139963
 30
0.0
 10
26.181341
 20
7.999403
 30
0.0
  0
SPLINE
  5
173
100
AcDbEntity
  8
Layer_1
 62
7
100
AcDbSpline
 70
8
 71
3
 72
8
 73
4
 74
0
 40
0
 40
0
 40
0
 40
0
 40
1
 40
1
 40
1
 40
1
 10
26.181341
 20
7.999403
 30
0.0
 10
26.024244
 20
7.858843
 30
0.0
 10
25.945696
 20
7.697613
 30
0.0
 10
25.945696
 20
7.515714
 30
0.0
  0
LWPOLYLINE
  5
174
100
AcDbEntity
  8
Layer_1
 62
7
100
AcDbPolyline
 90
2
 70
0
 10
27.855654
 20
6.504925
 30
0.0
 10
27.855654
 20
6.728165
 30
0.0
  0
SPLINE
  5
175
100
AcDbEntity
  8
Layer_1
 62
7
100
AcDbSpline
 70
8
 71
3
 72
8
 73
4
 74
0
 40
0
 40
0
 40
0
 40
0
 40
1
 40
1
 40
1
 40
1
 10
25.958096
 20
7.156044
 30
0.0
 10
25.958096
 20
6.965878
 30
0.0
 10
25.908486
 20
6.819118
 30
0.0
 10
25.809267
 20
6.715765
 30
0.0
  0
SPLINE
  5
176
100
AcDbEntity
  8
Layer_1
 62
7
100
AcDbSpline
 70
8
 71
3
 72
8
 73
4
 74
0
 40
0
 40
0
 40
0
 40
0
 40
1
 40
1
 40
1
 40
1
 10
25.809267
 20
6.715765
 30
0.0
 10
25.714183
 20
6.612412
 30
0.0
 10
25.588093
 20
6.560735
 30
0.0
 10
25.430997
 20
6.560735
 30
0.0
  0
SPLINE
  5
177
100
AcDbEntity
  8
Layer_1
 62
7
100
AcDbSpline
 70
8
 71
3
 72
8
 73
4
 74
0
 40
0
 40
0
 40
0
 40
0
 40
1
 40
1
 40
1
 40
1
 10
25.430997
 20
6.560735
 30
0.0
 10
25.278035
 20
6.560735
 30
0.0
 10
25.151945
 20
6.614478
 30
0.0
 10
25.052725
 20
6.721965
 30
0.0
  0
SPLINE
  5
178
100
AcDbEntity
  8
Layer_1
 62
7
100
AcDbSpline
 70
8
 71
3
 72
8
 73
4
 74
0
 40
0
 40
0
 40
0
 40
0
 40
1
 40
1
 40
1
 40
1
 10
25.052725
 20
6.721965
 30
0.0
 10
24.957641
 20
6.829451
 30
0.0
 10
24.910100
 20
6.976214
 30
0.0
 10
24.910100
 20
7.162254
 30
0.0
  0
SPLINE
  5
179
100
AcDbEntity
  8
Layer_1
 62
7
100
AcDbSpline
 70
8
 71
3
 72
8
 73
4
 74
0
 40
0
 40
0
 40
0
 40
0
 40
1
 40
1
 40
1
 40
1
 10
24.910100
 20
7.162254
 30
0.0
 10
24.910100
 20
7.517787
 30
0.0
 10
25.092000
 20
7.844380
 30
0.0
 10
25.455802
 20
8.142033
 30
0.0
  0
SPLINE
  5
17a
100
AcDbEntity
  8
Layer_1
 62
7
100
AcDbSpline
 70
8
 71
3
 72
8
 73
4
 74
0
 40
0
 40
0
 40
0
 40
0
 40
1
 40
1
 40
1
 40
1
 10
25.455802
 20
8.142033
 30
0.0
 10
25.819603
 20
8.439686
 30
0.0
 10
26.330166
 20
8.588512
 30
0.0
 10
26.987489
 20
8.588512
 30
0.0
  0
SPLINE
  5
17b
100
AcDbEntity
  8
Layer_1
 62
7
100
AcDbSpline
 70
8
 71
3
 72
8
 73
4
 74
0
 40
0
 40
0
 40
0
 40
0
 40
1
 40
1
 40
1
 40
1
 10
26.987489
 20
8.588512
 30
0.0
 10
27.491850
 20
8.588512
 30
0.0
 10
27.905261
 20
8.503766
 30
0.0
 10
28.227721
 20
8.334272
 30
0.0
  0
SPLINE
  5
17c
100
AcDbEntity
  8
Layer_1
 62
7
100
AcDbSpline
 70
8
 71
3
 72
8
 73
4
 74
0
 40
0
 40
0
 40
0
 40
0
 40
1
 40
1
 40
1
 40
1
 10
28.227721
 20
8.334272
 30
0.0
 10
28.471634
 20
8.206113
 30
0.0
 10
28.651468
 20
8.005606
 30
0.0
 10
28.767222
 20
7.732753
 30
0.0
  0
SPLINE
  5
17d
100
AcDbEntity
  8
Layer_1
 62
7
100
AcDbSpline
 70
8
 71
3
 72
8
 73
4
 74
0
 40
0
 40
0
 40
0
 40
0
 40
1
 40
1
 40
1
 40
1
 10
28.767222
 20
7.732753
 30
0.0
 10
28.841636
 20
7.554987
 30
0.0
 10
28.878843
 20
7.191187
 30
0.0
 10
28.878843
 20
6.641355
 30
0.0
  0
LWPOLYLINE
  5
17e
100
AcDbEntity
  8
Layer_1
 62
7
100
AcDbPolyline
 90
2
 70
0
 10
25.945696
 20
7.515714
 30
0.0
 10
25.958096
 20
7.156044
 30
0.0
  0
SPLINE
  5
17f
100
AcDbEntity
  8
Layer_1
 62
7
100
AcDbSpline
 70
8
 71
3
 72
8
 73
4
 74
0
 40
0
 40
0
 40
0
 40
0
 40
1
 40
1
 40
1
 40
1
 10
28.878843
 20
4.712787
 30
0.0
 10
28.878843
 20
4.171222
 30
0.0
 10
28.889180
 20
3.838425
 30
0.0
 10
28.909853
 20
3.714399
 30
0.0
  0
SPLINE
  5
180
100
AcDbEntity
  8
Layer_1
 62
7
100
AcDbSpline
 70
8
 71
3
 72
8
 73
4
 74
0
 40
0
 40
0
 40
0
 40
0
 40
1
 40
1
 40
1
 40
1
 10
28.909853
 20
3.714399
 30
0.0
 10
28.930526
 20
3.594512
 30
0.0
 10
28.963600
 20
3.513899
 30
0.0
 10
29.009073
 20
3.472559
 30
0.0
  0
SPLINE
  5
181
100
AcDbEntity
  8
Layer_1
 62
7
100
AcDbSpline
 70
8
 71
3
 72
8
 73
4
 74
0
 40
0
 40
0
 40
0
 40
0
 40
1
 40
1
 40
1
 40
1
 10
29.009073
 20
3.472559
 30
0.0
 10
29.058679
 20
3.431226
 30
0.0
 10
29.114490
 20
3.410559
 30
0.0
 10
29.176505
 20
3.410559
 30
0.0
  0
SPLINE
  5
182
100
AcDbEntity
  8
Layer_1
 62
7
100
AcDbSpline
 70
8
 71
3
 72
8
 73
4
 74
0
 40
0
 40
0
 40
0
 40
0
 40
1
 40
1
 40
1
 40
1
 10
29.176505
 20
3.410559
 30
0.0
 10
29.242651
 20
3.410559
 30
0.0
 10
29.300529
 20
3.425026
 30
0.0
 10
29.350137
 20
3.453959
 30
0.0
  0
SPLINE
  5
183
100
AcDbEntity
  8
Layer_1
 62
7
100
AcDbSpline
 70
8
 71
3
 72
8
 73
4
 74
0
 40
0
 40
0
 40
0
 40
0
 40
1
 40
1
 40
1
 40
1
 10
29.350137
 20
3.453959
 30
0.0
 10
29.436953
 20
3.507692
 30
0.0
 10
29.604384
 20
3.658589
 30
0.0
 10
29.852431
 20
3.906649
 30
0.0
  0
LWPOLYLINE
  5
184
100
AcDbEntity
  8
Layer_1
 62
7
100
AcDbPolyline
 90
2
 70
0
 10
28.878843
 20
6.641355
 30
0.0
 10
28.878843
 20
4.712787
 30
0.0
  0
SPLINE
  5
185
100
AcDbEntity
  8
Layer_1
 62
7
100
AcDbSpline
 70
8
 71
3
 72
8
 73
4
 74
0
 40
0
 40
0
 40
0
 40
0
 40
1
 40
1
 40
1
 40
1
 10
29.852431
 20
3.559379
 30
0.0
 10
29.389411
 20
2.939267
 30
0.0
 10
28.947061
 20
2.629210
 30
0.0
 10
28.525383
 20
2.629210
 30
0.0
  0
SPLINE
  5
186
100
AcDbEntity
  8
Layer_1
 62
7
100
AcDbSpline
 70
8
 71
3
 72
8
 73
4
 74
0
 40
0
 40
0
 40
0
 40
0
 40
1
 40
1
 40
1
 40
1
 10
28.525383
 20
2.629210
 30
0.0
 10
28.322811
 20
2.629210
 30
0.0
 10
28.161580
 20
2.699490
 30
0.0
 10
28.041691
 20
2.840050
 30
0.0
  0
SPLINE
  5
187
100
AcDbEntity
  8
Layer_1
 62
7
100
AcDbSpline
 70
8
 71
3
 72
8
 73
4
 74
0
 40
0
 40
0
 40
0
 40
0
 40
1
 40
1
 40
1
 40
1
 10
28.041691
 20
2.840050
 30
0.0
 10
27.921802
 20
2.980610
 30
0.0
 10
27.859790
 20
3.220386
 30
0.0
 10
27.855656
 20
3.559379
 30
0.0
  0
LWPOLYLINE
  5
188
100
AcDbEntity
  8
Layer_1
 62
7
100
AcDbPolyline
 90
2
 70
0
 10
29.852431
 20
3.906649
 30
0.0
 10
29.852431
 20
3.559379
 30
0.0
  0
LWPOLYLINE
  5
189
100
AcDbEntity
  8
Layer_1
 62
7
100
AcDbPolyline
 90
1
 70
1
 10
27.855656
 20
3.559379
 30
0.0
  0
SPLINE
  5
18a
100
AcDbEntity
  8
Layer_1
 62
7
100
AcDbSpline
 70
8
 71
3
 72
8
 73
4
 74
0
 40
0
 40
0
 40
0
 40
0
 40
1
 40
1
 40
1
 40
1
 10
27.855654
 20
6.126656
 30
0.0
 10
27.231404
 20
5.878609
 30
0.0
 10
26.828329
 20
5.702909
 30
0.0
 10
26.646428
 20
5.599556
 30
0.0
  0
SPLINE
  5
18b
100
AcDbEntity
  8
Layer_1
 62
7
100
AcDbSpline
 70
8
 71
3
 72
8
 73
4
 74
0
 40
0
 40
0
 40
0
 40
0
 40
1
 40
1
 40
1
 40
1
 10
26.646428
 20
5.599556
 30
0.0
 10
26.319833
 20
5.417657
 30
0.0
 10
26.086256
 20
5.227487
 30
0.0
 10
25.945696
 20
5.029047
 30
0.0
  0
SPLINE
  5
18c
100
AcDbEntity
  8
Layer_1
 62
7
100
AcDbSpline
 70
8
 71
3
 72
8
 73
4
 74
0
 40
0
 40
0
 40
0
 40
0
 40
1
 40
1
 40
1
 40
1
 10
25.945696
 20
5.029047
 30
0.0
 10
25.805136
 20
4.830614
 30
0.0
 10
25.734856
 20
4.613574
 30
0.0
 10
25.734856
 20
4.377928
 30
0.0
  0
SPLINE
  5
18d
100
AcDbEntity
  8
Layer_1
 62
7
100
AcDbSpline
 70
8
 71
3
 72
8
 73
4
 74
0
 40
0
 40
0
 40
0
 40
0
 40
1
 40
1
 40
1
 40
1
 10
25.734856
 20
4.377928
 30
0.0
 10
25.734856
 20
4.080268
 30
0.0
 10
25.823740
 20
3.832222
 30
0.0
 10
26.001507
 20
3.633789
 30
0.0
  0
SPLINE
  5
18e
100
AcDbEntity
  8
Layer_1
 62
7
100
AcDbSpline
 70
8
 71
3
 72
8
 73
4
 74
0
 40
0
 40
0
 40
0
 40
0
 40
1
 40
1
 40
1
 40
1
 10
26.001507
 20
3.633789
 30
0.0
 10
26.179273
 20
3.439483
 30
0.0
 10
26.383912
 20
3.342329
 30
0.0
 10
26.615422
 20
3.342329
 30
0.0
  0
SPLINE
  5
18f
100
AcDbEntity
  8
Layer_1
 62
7
100
AcDbSpline
 70
8
 71
3
 72
8
 73
4
 74
0
 40
0
 40
0
 40
0
 40
0
 40
1
 40
1
 40
1
 40
1
 10
26.615422
 20
3.342329
 30
0.0
 10
26.929614
 20
3.342329
 30
0.0
 10
27.343025
 20
3.549036
 30
0.0
 10
27.855654
 20
3.962449
 30
0.0
  0
LWPOLYLINE
  5
190
100
AcDbEntity
  8
Layer_1
 62
7
100
AcDbPolyline
 90
2
 70
0
 10
27.855654
 20
3.962449
 30
0.0
 10
27.855654
 20
6.126656
 30
0.0
  0
SPLINE
  5
191
100
AcDbEntity
  8
Layer_1
 62
7
100
AcDbSpline
 70
8
 71
3
 72
8
 73
4
 74
0
 40
0
 40
0
 40
0
 40
0
 40
1
 40
1
 40
1
 40
1
 10
31.960825
 20
7.379294
 30
0.0
 10
32.374236
 20
7.792700
 30
0.0
 10
32.618148
 20
8.030410
 30
0.0
 10
32.692563
 20
8.092423
 30
0.0
  0
SPLINE
  5
192
100
AcDbEntity
  8
Layer_1
 62
7
100
AcDbSpline
 70
8
 71
3
 72
8
 73
4
 74
0
 40
0
 40
0
 40
0
 40
0
 40
1
 40
1
 40
1
 40
1
 10
32.692563
 20
8.092423
 30
0.0
 10
32.878597
 20
8.249523
 30
0.0
 10
33.079101
 20
8.371479
 30
0.0
 10
33.294075
 20
8.458292
 30
0.0
  0
SPLINE
  5
193
100
AcDbEntity
  8
Layer_1
 62
7
100
AcDbSpline
 70
8
 71
3
 72
8
 73
4
 74
0
 40
0
 40
0
 40
0
 40
0
 40
1
 40
1
 40
1
 40
1
 10
33.294075
 20
8.458292
 30
0.0
 10
33.509049
 20
8.545106
 30
0.0
 10
33.721955
 20
8.588512
 30
0.0
 10
33.932795
 20
8.588512
 30
0.0
  0
SPLINE
  5
194
100
AcDbEntity
  8
Layer_1
 62
7
100
AcDbSpline
 70
8
 71
3
 72
8
 73
4
 74
0
 40
0
 40
0
 40
0
 40
0
 40
1
 40
1
 40
1
 40
1
 10
33.932795
 20
8.588512
 30
0.0
 10
34.288329
 20
8.588512
 30
0.0
 10
34.594252
 20
8.485162
 30
0.0
 10
34.850567
 20
8.278463
 30
0.0
  0
SPLINE
  5
195
100
AcDbEntity
  8
Layer_1
 62
7
100
AcDbSpline
 70
8
 71
3
 72
8
 73
4
 74
0
 40
0
 40
0
 40
0
 40
0
 40
1
 40
1
 40
1
 40
1
 10
34.850567
 20
8.278463
 30
0.0
 10
35.106882
 20
8.071756
 30
0.0
 10
35.278448
 20
7.772033
 30
0.0
 10
35.365264
 20
7.379294
 30
0.0
  0
SPLINE
  5
196
100
AcDbEntity
  8
Layer_1
 62
7
100
AcDbSpline
 70
8
 71
3
 72
8
 73
4
 74
0
 40
0
 40
0
 40
0
 40
0
 40
1
 40
1
 40
1
 40
1
 10
35.365264
 20
7.379294
 30
0.0
 10
35.791077
 20
7.875386
 30
0.0
 10
36.150744
 20
8.199913
 30
0.0
 10
36.444266
 20
8.352872
 30
0.0
  0
SPLINE
  5
197
100
AcDbEntity
  8
Layer_1
 62
7
100
AcDbSpline
 70
8
 71
3
 72
8
 73
4
 74
0
 40
0
 40
0
 40
0
 40
0
 40
1
 40
1
 40
1
 40
1
 10
36.444266
 20
8.352872
 30
0.0
 10
36.737788
 20
8.509966
 30
0.0
 10
37.039578
 20
8.588512
 30
0.0
 10
37.349636
 20
8.588512
 30
0.0
  0
SPLINE
  5
198
100
AcDbEntity
  8
Layer_1
 62
7
100
AcDbSpline
 70
8
 71
3
 72
8
 73
4
 74
0
 40
0
 40
0
 40
0
 40
0
 40
1
 40
1
 40
1
 40
1
 10
37.349636
 20
8.588512
 30
0.0
 10
37.651426
 20
8.588512
 30
0.0
 10
37.918076
 20
8.509966
 30
0.0
 10
38.149586
 20
8.352872
 30
0.0
  0
SPLINE
  5
199
100
AcDbEntity
  8
Layer_1
 62
7
100
AcDbSpline
 70
8
 71
3
 72
8
 73
4
 74
0
 40
0
 40
0
 40
0
 40
0
 40
1
 40
1
 40
1
 40
1
 10
38.149586
 20
8.352872
 30
0.0
 10
38.385231
 20
8.199913
 30
0.0
 10
38.571265
 20
7.947733
 30
0.0
 10
38.707690
 20
7.596333
 30
0.0
  0
SPLINE
  5
19a
100
AcDbEntity
  8
Layer_1
 62
7
100
AcDbSpline
 70
8
 71
3
 72
8
 73
4
 74
0
 40
0
 40
0
 40
0
 40
0
 40
1
 40
1
 40
1
 40
1
 10
38.707690
 20
7.596333
 30
0.0
 10
38.798641
 20
7.356554
 30
0.0
 10
38.844116
 20
6.980348
 30
0.0
 10
38.844116
 20
6.467715
 30
0.0
  0
LWPOLYLINE
  5
19b
100
AcDbEntity
  8
Layer_1
 62
7
100
AcDbPolyline
 90
1
 70
1
 10
27.855654
 20
3.962449
 30
0.0
  0
SPLINE
  5
19c
100
AcDbEntity
  8
Layer_1
 62
7
100
AcDbSpline
 70
8
 71
3
 72
8
 73
4
 74
0
 40
0
 40
0
 40
0
 40
0
 40
1
 40
1
 40
1
 40
1
 10
38.844116
 20
4.024458
 30
0.0
 10
38.844116
 20
3.668926
 30
0.0
 10
38.870986
 20
3.425013
 30
0.0
 10
38.924726
 20
3.292719
 30
0.0
  0
SPLINE
  5
19d
100
AcDbEntity
  8
Layer_1
 62
7
100
AcDbSpline
 70
8
 71
3
 72
8
 73
4
 74
0
 40
0
 40
0
 40
0
 40
0
 40
1
 40
1
 40
1
 40
1
 10
38.924726
 20
3.292719
 30
0.0
 10
38.966066
 20
3.201773
 30
0.0
 10
39.042547
 20
3.123226
 30
0.0
 10
39.154170
 20
3.057080
 30
0.0
  0
SPLINE
  5
19e
100
AcDbEntity
  8
Layer_1
 62
7
100
AcDbSpline
 70
8
 71
3
 72
8
 73
4
 74
0
 40
0
 40
0
 40
0
 40
0
 40
1
 40
1
 40
1
 40
1
 10
39.154170
 20
3.057080
 30
0.0
 10
39.265790
 20
2.995080
 30
0.0
 10
39.447691
 20
2.964080
 30
0.0
 10
39.699872
 20
2.964080
 30
0.0
  0
LWPOLYLINE
  5
19f
100
AcDbEntity
  8
Layer_1
 62
7
100
AcDbPolyline
 90
2
 70
0
 10
38.844116
 20
6.467715
 30
0.0
 10
38.844116
 20
4.024458
 30
0.0
  0
SPLINE
  5
1a0
100
AcDbEntity
  8
Layer_1
 62
7
100
AcDbSpline
 70
8
 71
3
 72
8
 73
4
 74
0
 40
0
 40
0
 40
0
 40
0
 40
1
 40
1
 40
1
 40
1
 10
37.014768
 20
2.964080
 30
0.0
 10
37.258680
 20
2.964080
 30
0.0
 10
37.448849
 20
3.011623
 30
0.0
 10
37.585275
 20
3.106710
 30
0.0
  0
SPLINE
  5
1a1
100
AcDbEntity
  8
Layer_1
 62
7
100
AcDbSpline
 70
8
 71
3
 72
8
 73
4
 74
0
 40
0
 40
0
 40
0
 40
0
 40
1
 40
1
 40
1
 40
1
 10
37.585275
 20
3.106710
 30
0.0
 10
37.680360
 20
3.172843
 30
0.0
 10
37.748572
 20
3.278263
 30
0.0
 10
37.789914
 20
3.422969
 30
0.0
  0
SPLINE
  5
1a2
100
AcDbEntity
  8
Layer_1
 62
7
100
AcDbSpline
 70
8
 71
3
 72
8
 73
4
 74
0
 40
0
 40
0
 40
0
 40
0
 40
1
 40
1
 40
1
 40
1
 10
37.789914
 20
3.422969
 30
0.0
 10
37.806447
 20
3.493249
 30
0.0
 10
37.814714
 20
3.693752
 30
0.0
 10
37.814714
 20
4.024478
 30
0.0
  0
LWPOLYLINE
  5
1a3
100
AcDbEntity
  8
Layer_1
 62
7
100
AcDbPolyline
 90
5
 70
0
 10
39.699872
 20
2.964080
 30
0.0
 10
39.699872
 20
2.740840
 30
0.0
 10
36.896946
 20
2.740840
 30
0.0
 10
36.896946
 20
2.964080
 30
0.0
 10
37.014768
 20
2.964080
 30
0.0
  0
SPLINE
  5
1a4
100
AcDbEntity
  8
Layer_1
 62
7
100
AcDbSpline
 70
8
 71
3
 72
8
 73
4
 74
0
 40
0
 40
0
 40
0
 40
0
 40
1
 40
1
 40
1
 40
1
 10
37.814714
 20
6.467735
 30
0.0
 10
37.814714
 20
6.930761
 30
0.0
 10
37.758903
 20
7.257357
 30
0.0
 10
37.647283
 20
7.447524
 30
0.0
  0
SPLINE
  5
1a5
100
AcDbEntity
  8
Layer_1
 62
7
100
AcDbSpline
 70
8
 71
3
 72
8
 73
4
 74
0
 40
0
 40
0
 40
0
 40
0
 40
1
 40
1
 40
1
 40
1
 10
37.647283
 20
7.447524
 30
0.0
 10
37.486052
 20
7.712103
 30
0.0
 10
37.227670
 20
7.844393
 30
0.0
 10
36.872137
 20
7.844393
 30
0.0
  0
SPLINE
  5
1a6
100
AcDbEntity
  8
Layer_1
 62
7
100
AcDbSpline
 70
8
 71
3
 72
8
 73
4
 74
0
 40
0
 40
0
 40
0
 40
0
 40
1
 40
1
 40
1
 40
1
 10
36.872137
 20
7.844393
 30
0.0
 10
36.653029
 20
7.844393
 30
0.0
 10
36.431855
 20
7.788583
 30
0.0
 10
36.208613
 20
7.676963
 30
0.0
  0
SPLINE
  5
1a7
100
AcDbEntity
  8
Layer_1
 62
7
100
AcDbSpline
 70
8
 71
3
 72
8
 73
4
 74
0
 40
0
 40
0
 40
0
 40
0
 40
1
 40
1
 40
1
 40
1
 10
36.208613
 20
7.676963
 30
0.0
 10
35.989505
 20
7.569477
 30
0.0
 10
35.722855
 20
7.366907
 30
0.0
 10
35.408663
 20
7.069254
 30
0.0
  0
LWPOLYLINE
  5
1a8
100
AcDbEntity
  8
Layer_1
 62
7
100
AcDbPolyline
 90
2
 70
0
 10
37.814714
 20
4.024478
 30
0.0
 10
37.814714
 20
6.467735
 30
0.0
  0
SPLINE
  5
1a9
100
AcDbEntity
  8
Layer_1
 62
7
100
AcDbSpline
 70
8
 71
3
 72
8
 73
4
 74
0
 40
0
 40
0
 40
0
 40
0
 40
1
 40
1
 40
1
 40
1
 10
35.408663
 20
4.024498
 30
0.0
 10
35.408663
 20
3.635892
 30
0.0
 10
35.429333
 20
3.394049
 30
0.0
 10
35.470673
 20
3.298969
 30
0.0
  0
SPLINE
  5
1aa
100
AcDbEntity
  8
Layer_1
 62
7
100
AcDbSpline
 70
8
 71
3
 72
8
 73
4
 74
0
 40
0
 40
0
 40
0
 40
0
 40
1
 40
1
 40
1
 40
1
 10
35.470673
 20
3.298969
 30
0.0
 10
35.516146
 20
3.203883
 30
0.0
 10
35.598828
 20
3.123266
 30
0.0
 10
35.718719
 20
3.057120
 30
0.0
  0
SPLINE
  5
1ab
100
AcDbEntity
  8
Layer_1
 62
7
100
AcDbSpline
 70
8
 71
3
 72
8
 73
4
 74
0
 40
0
 40
0
 40
0
 40
0
 40
1
 40
1
 40
1
 40
1
 10
35.718719
 20
3.057120
 30
0.0
 10
35.838608
 20
2.995120
 30
0.0
 10
36.043246
 20
2.964120
 30
0.0
 10
36.332634
 20
2.964120
 30
0.0
  0
LWPOLYLINE
  5
1ac
100
AcDbEntity
  8
Layer_1
 62
7
100
AcDbPolyline
 90
4
 70
0
 10
35.408663
 20
7.069254
 30
0.0
 10
35.396263
 20
7.001054
 30
0.0
 10
35.408663
 20
6.734405
 30
0.0
 10
35.408663
 20
4.024498
 30
0.0
  0
SPLINE
  5
1ad
100
AcDbEntity
  8
Layer_1
 62
7
100
AcDbSpline
 70
8
 71
3
 72
8
 73
4
 74
0
 40
0
 40
0
 40
0
 40
0
 40
1
 40
1
 40
1
 40
1
 10
33.461496
 20
2.964120
 30
0.0
 10
33.775688
 20
2.964120
 30
0.0
 10
33.990662
 20
3.001327
 30
0.0
 10
34.106417
 20
3.075740
 30
0.0
  0
SPLINE
  5
1ae
100
AcDbEntity
  8
Layer_1
 62
7
100
AcDbSpline
 70
8
 71
3
 72
8
 73
4
 74
0
 40
0
 40
0
 40
0
 40
0
 40
1
 40
1
 40
1
 40
1
 10
34.106417
 20
3.075740
 30
0.0
 10
34.226306
 20
3.150153
 30
0.0
 10
34.308988
 20
3.261776
 30
0.0
 10
34.354463
 20
3.410609
 30
0.0
  0
SPLINE
  5
1af
100
AcDbEntity
  8
Layer_1
 62
7
100
AcDbSpline
 70
8
 71
3
 72
8
 73
4
 74
0
 40
0
 40
0
 40
0
 40
0
 40
1
 40
1
 40
1
 40
1
 10
34.354463
 20
3.410609
 30
0.0
 10
34.375130
 20
3.480889
 30
0.0
 10
34.385463
 20
3.685526
 30
0.0
 10
34.385463
 20
4.024518
 30
0.0
  0
LWPOLYLINE
  5
1b0
100
AcDbEntity
  8
Layer_1
 62
7
100
AcDbPolyline
 90
4
 70
0
 10
36.332634
 20
2.964120
 30
0.0
 10
36.332634
 20
2.740880
 30
0.0
 10
33.461496
 20
2.740880
 30
0.0
 10
33.461496
 20
2.964120
 30
0.0
  0
SPLINE
  5
1b1
100
AcDbEntity
  8
Layer_1
 62
7
100
AcDbSpline
 70
8
 71
3
 72
8
 73
4
 74
0
 40
0
 40
0
 40
0
 40
0
 40
1
 40
1
 40
1
 40
1
 10
34.385463
 20
6.467775
 30
0.0
 10
34.385463
 20
6.930801
 30
0.0
 10
34.317251
 20
7.263597
 30
0.0
 10
34.180826
 20
7.466164
 30
0.0
  0
SPLINE
  5
1b2
100
AcDbEntity
  8
Layer_1
 62
7
100
AcDbSpline
 70
8
 71
3
 72
8
 73
4
 74
0
 40
0
 40
0
 40
0
 40
0
 40
1
 40
1
 40
1
 40
1
 10
34.180826
 20
7.466164
 30
0.0
 10
33.998925
 20
7.730750
 30
0.0
 10
33.744677
 20
7.863043
 30
0.0
 10
33.418083
 20
7.863043
 30
0.0
  0
SPLINE
  5
1b3
100
AcDbEntity
  8
Layer_1
 62
7
100
AcDbSpline
 70
8
 71
3
 72
8
 73
4
 74
0
 40
0
 40
0
 40
0
 40
0
 40
1
 40
1
 40
1
 40
1
 10
33.418083
 20
7.863043
 30
0.0
 10
33.194840
 20
7.863043
 30
0.0
 10
32.973665
 20
7.803097
 30
0.0
 10
32.754558
 20
7.683203
 30
0.0
  0
SPLINE
  5
1b4
100
AcDbEntity
  8
Layer_1
 62
7
100
AcDbSpline
 70
8
 71
3
 72
8
 73
4
 74
0
 40
0
 40
0
 40
0
 40
0
 40
1
 40
1
 40
1
 40
1
 10
32.754558
 20
7.683203
 30
0.0
 10
32.411427
 20
7.501304
 30
0.0
 10
32.146844
 20
7.296667
 30
0.0
 10
31.960809
 20
7.069294
 30
0.0
  0
LWPOLYLINE
  5
1b5
100
AcDbEntity
  8
Layer_1
 62
7
100
AcDbPolyline
 90
2
 70
0
 10
34.385463
 20
4.024518
 30
0.0
 10
34.385463
 20
6.467775
 30
0.0
  0
SPLINE
  5
1b6
100
AcDbEntity
  8
Layer_1
 62
7
100
AcDbSpline
 70
8
 71
3
 72
8
 73
4
 74
0
 40
0
 40
0
 40
0
 40
0
 40
1
 40
1
 40
1
 40
1
 10
31.960809
 20
4.024518
 30
0.0
 10
31.960809
 20
3.652452
 30
0.0
 10
31.985612
 20
3.410609
 30
0.0
 10
32.035219
 20
3.298989
 30
0.0
  0
SPLINE
  5
1b7
100
AcDbEntity
  8
Layer_1
 62
7
100
AcDbSpline
 70
8
 71
3
 72
8
 73
4
 74
0
 40
0
 40
0
 40
0
 40
0
 40
1
 40
1
 40
1
 40
1
 10
32.035219
 20
3.298989
 30
0.0
 10
32.088965
 20
3.187363
 30
0.0
 10
32.165446
 20
3.102613
 30
0.0
 10
32.264662
 20
3.044740
 30
0.0
  0
SPLINE
  5
1b8
100
AcDbEntity
  8
Layer_1
 62
7
100
AcDbSpline
 70
8
 71
3
 72
8
 73
4
 74
0
 40
0
 40
0
 40
0
 40
0
 40
1
 40
1
 40
1
 40
1
 10
32.264662
 20
3.044740
 30
0.0
 10
32.368015
 20
2.991007
 30
0.0
 10
32.574720
 20
2.964140
 30
0.0
 10
32.884778
 20
2.964140
 30
0.0
  0
LWPOLYLINE
  5
1b9
100
AcDbEntity
  8
Layer_1
 62
7
100
AcDbPolyline
 90
2
 70
0
 10
31.960809
 20
7.069294
 30
0.0
 10
31.960809
 20
4.024518
 30
0.0
  0
SPLINE
  5
1ba
100
AcDbEntity
  8
Layer_1
 62
7
100
AcDbSpline
 70
8
 71
3
 72
8
 73
4
 74
0
 40
0
 40
0
 40
0
 40
0
 40
1
 40
1
 40
1
 40
1
 10
30.075651
 20
2.964140
 30
0.0
 10
30.336100
 20
2.964140
 30
0.0
 10
30.518001
 20
2.991007
 30
0.0
 10
30.621354
 20
3.044740
 30
0.0
  0
SPLINE
  5
1bb
100
AcDbEntity
  8
Layer_1
 62
7
100
AcDbSpline
 70
8
 71
3
 72
8
 73
4
 74
0
 40
0
 40
0
 40
0
 40
0
 40
1
 40
1
 40
1
 40
1
 10
30.621354
 20
3.044740
 30
0.0
 10
30.724706
 20
3.102606
 30
0.0
 10
30.803254
 20
3.191490
 30
0.0
 10
30.856998
 20
3.311389
 30
0.0
  0
SPLINE
  5
1bc
100
AcDbEntity
  8
Layer_1
 62
7
100
AcDbSpline
 70
8
 71
3
 72
8
 73
4
 74
0
 40
0
 40
0
 40
0
 40
0
 40
1
 40
1
 40
1
 40
1
 10
30.856998
 20
3.311389
 30
0.0
 10
30.910738
 20
3.435409
 30
0.0
 10
30.937608
 20
3.673119
 30
0.0
 10
30.937608
 20
4.024518
 30
0.0
  0
LWPOLYLINE
  5
1bd
100
AcDbEntity
  8
Layer_1
 62
7
100
AcDbPolyline
 90
4
 70
0
 10
32.884778
 20
2.964140
 30
0.0
 10
32.884778
 20
2.740900
 30
0.0
 10
30.075651
 20
2.740900
 30
0.0
 10
30.075651
 20
2.964140
 30
0.0
  0
SPLINE
  5
1be
100
AcDbEntity
  8
Layer_1
 62
7
100
AcDbSpline
 70
8
 71
3
 72
8
 73
4
 74
0
 40
0
 40
0
 40
0
 40
0
 40
1
 40
1
 40
1
 40
1
 10
30.937608
 20
6.194925
 30
0.0
 10
30.937608
 20
6.819178
 30
0.0
 10
30.919005
 20
7.222254
 30
0.0
 10
30.881798
 20
7.404154
 30
0.0
  0
SPLINE
  5
1bf
100
AcDbEntity
  8
Layer_1
 62
7
100
AcDbSpline
 70
8
 71
3
 72
8
 73
4
 74
0
 40
0
 40
0
 40
0
 40
0
 40
1
 40
1
 40
1
 40
1
 10
30.881798
 20
7.404154
 30
0.0
 10
30.852858
 20
7.540580
 30
0.0
 10
30.807383
 20
7.633597
 30
0.0
 10
30.745373
 20
7.683203
 30
0.0
  0
SPLINE
  5
1c0
100
AcDbEntity
  8
Layer_1
 62
7
100
AcDbSpline
 70
8
 71
3
 72
8
 73
4
 74
0
 40
0
 40
0
 40
0
 40
0
 40
1
 40
1
 40
1
 40
1
 10
30.745373
 20
7.683203
 30
0.0
 10
30.683360
 20
7.736937
 30
0.0
 10
30.598611
 20
7.763803
 30
0.0
 10
30.491126
 20
7.763803
 30
0.0
  0
SPLINE
  5
1c1
100
AcDbEntity
  8
Layer_1
 62
7
100
AcDbSpline
 70
8
 71
3
 72
8
 73
4
 74
0
 40
0
 40
0
 40
0
 40
0
 40
1
 40
1
 40
1
 40
1
 10
30.491126
 20
7.763803
 30
0.0
 10
30.375371
 20
7.763803
 30
0.0
 10
30.236878
 20
7.732803
 30
0.0
 10
30.075647
 20
7.670803
 30
0.0
  0
LWPOLYLINE
  5
1c2
100
AcDbEntity
  8
Layer_1
 62
7
100
AcDbPolyline
 90
2
 70
0
 10
30.937608
 20
4.024518
 30
0.0
 10
30.937608
 20
6.194925
 30
0.0
  0
SPLINE
  5
1c3
100
AcDbEntity
  8
Layer_1
 62
7
100
AcDbSpline
 70
8
 71
3
 72
8
 73
4
 74
0
 40
0
 40
0
 40
0
 40
0
 40
1
 40
1
 40
1
 40
1
 10
42.930684
 20
8.588512
 30
0.0
 10
43.790578
 20
8.588512
 30
0.0
 10
44.480974
 20
8.261919
 30
0.0
 10
45.001872
 20
7.608733
 30
0.0
  0
SPLINE
  5
1c4
100
AcDbEntity
  8
Layer_1
 62
7
100
AcDbSpline
 70
8
 71
3
 72
8
 73
4
 74
0
 40
0
 40
0
 40
0
 40
0
 40
1
 40
1
 40
1
 40
1
 10
45.001872
 20
7.608733
 30
0.0
 10
45.444222
 20
7.050628
 30
0.0
 10
45.665397
 20
6.409842
 30
0.0
 10
45.665397
 20
5.686376
 30
0.0
  0
SPLINE
  5
1c5
100
AcDbEntity
  8
Layer_1
 62
7
100
AcDbSpline
 70
8
 71
3
 72
8
 73
4
 74
0
 40
0
 40
0
 40
0
 40
0
 40
1
 40
1
 40
1
 40
1
 10
45.665397
 20
5.686376
 30
0.0
 10
45.665397
 20
5.177877
 30
0.0
 10
45.543441
 20
4.663178
 30
0.0
 10
45.299528
 20
4.142278
 30
0.0
  0
SPLINE
  5
1c6
100
AcDbEntity
  8
Layer_1
 62
7
100
AcDbSpline
 70
8
 71
3
 72
8
 73
4
 74
0
 40
0
 40
0
 40
0
 40
0
 40
1
 40
1
 40
1
 40
1
 10
45.299528
 20
4.142278
 30
0.0
 10
45.055616
 20
3.621386
 30
0.0
 10
44.718686
 20
3.228646
 30
0.0
 10
44.288739
 20
2.964060
 30
0.0
  0
SPLINE
  5
1c7
100
AcDbEntity
  8
Layer_1
 62
7
100
AcDbSpline
 70
8
 71
3
 72
8
 73
4
 74
0
 40
0
 40
0
 40
0
 40
0
 40
1
 40
1
 40
1
 40
1
 10
44.288739
 20
2.964060
 30
0.0
 10
43.862925
 20
2.699480
 30
0.0
 10
43.387503
 20
2.567190
 30
0.0
 10
42.862471
 20
2.567190
 30
0.0
  0
SPLINE
  5
1c8
100
AcDbEntity
  8
Layer_1
 62
7
100
AcDbSpline
 70
8
 71
3
 72
8
 73
4
 74
0
 40
0
 40
0
 40
0
 40
0
 40
1
 40
1
 40
1
 40
1
 10
42.862471
 20
2.567190
 30
0.0
 10
42.006711
 20
2.567190
 30
0.0
 10
41.326650
 20
2.908253
 30
0.0
 10
40.822288
 20
3.590379
 30
0.0
  0
SPLINE
  5
1c9
100
AcDbEntity
  8
Layer_1
 62
7
100
AcDbSpline
 70
8
 71
3
 72
8
 73
4
 74
0
 40
0
 40
0
 40
0
 40
0
 40
1
 40
1
 40
1
 40
1
 10
40.822288
 20
3.590379
 30
0.0
 10
40.396475
 20
4.165018
 30
0.0
 10
40.183568
 20
4.809941
 30
0.0
 10
40.183568
 20
5.525146
 30
0.0
  0
SPLINE
  5
1ca
100
AcDbEntity
  8
Layer_1
 62
7
100
AcDbSpline
 70
8
 71
3
 72
8
 73
4
 74
0
 40
0
 40
0
 40
0
 40
0
 40
1
 40
1
 40
1
 40
1
 10
40.183568
 20
5.525146
 30
0.0
 10
40.183568
 20
6.046039
 30
0.0
 10
40.311726
 20
6.562802
 30
0.0
 10
40.568041
 20
7.075434
 30
0.0
  0
SPLINE
  5
1cb
100
AcDbEntity
  8
Layer_1
 62
7
100
AcDbSpline
 70
8
 71
3
 72
8
 73
4
 74
0
 40
0
 40
0
 40
0
 40
0
 40
1
 40
1
 40
1
 40
1
 10
40.568041
 20
7.075434
 30
0.0
 10
40.828489
 20
7.592200
 30
0.0
 10
41.169553
 20
7.972536
 30
0.0
 10
41.591232
 20
8.216443
 30
0.0
  0
SPLINE
  5
1cc
100
AcDbEntity
  8
Layer_1
 62
7
100
AcDbSpline
 70
8
 71
3
 72
8
 73
4
 74
0
 40
0
 40
0
 40
0
 40
0
 40
1
 40
1
 40
1
 40
1
 10
41.591232
 20
8.216443
 30
0.0
 10
42.012911
 20
8.464489
 30
0.0
 10
42.459395
 20
8.588512
 30
0.0
 10
42.930684
 20
8.588512
 30
0.0
  0
LWPOLYLINE
  5
1cd
100
AcDbEntity
  8
Layer_1
 62
7
100
AcDbPolyline
 90
5
 70
0
 10
30.075647
 20
7.670803
 30
0.0
 10
29.982627
 20
7.894043
 30
0.0
 10
31.694149
 20
8.588572
 30
0.0
 10
31.960799
 20
8.588572
 30
0.0
 10
31.960825
 20
7.379294
 30
0.0
  0
SPLINE
  5
1ce
100
AcDbEntity
  8
Layer_1
 62
7
100
AcDbSpline
 70
8
 71
3
 72
8
 73
4
 74
0
 40
0
 40
0
 40
0
 40
0
 40
1
 40
1
 40
1
 40
1
 10
42.738448
 20
8.185443
 30
0.0
 10
42.519340
 20
8.185443
 30
0.0
 10
42.298165
 20
8.119296
 30
0.0
 10
42.074923
 20
7.987003
 30
0.0
  0
SPLINE
  5
1cf
100
AcDbEntity
  8
Layer_1
 62
7
100
AcDbSpline
 70
8
 71
3
 72
8
 73
4
 74
0
 40
0
 40
0
 40
0
 40
0
 40
1
 40
1
 40
1
 40
1
 10
42.074923
 20
7.987003
 30
0.0
 10
41.855815
 20
7.858843
 30
0.0
 10
41.678049
 20
7.631467
 30
0.0
 10
41.541623
 20
7.304874
 30
0.0
  0
SPLINE
  5
1d0
100
AcDbEntity
  8
Layer_1
 62
7
100
AcDbSpline
 70
8
 71
3
 72
8
 73
4
 74
0
 40
0
 40
0
 40
0
 40
0
 40
1
 40
1
 40
1
 40
1
 10
41.541623
 20
7.304874
 30
0.0
 10
41.405198
 20
6.978281
 30
0.0
 10
41.336985
 20
6.558668
 30
0.0
 10
41.336985
 20
6.046036
 30
0.0
  0
SPLINE
  5
1d1
100
AcDbEntity
  8
Layer_1
 62
7
100
AcDbSpline
 70
8
 71
3
 72
8
 73
4
 74
0
 40
0
 40
0
 40
0
 40
0
 40
1
 40
1
 40
1
 40
1
 10
41.336985
 20
6.046036
 30
0.0
 10
41.336985
 20
5.219217
 30
0.0
 10
41.500282
 20
4.506084
 30
0.0
 10
41.826877
 20
3.906639
 30
0.0
  0
SPLINE
  5
1d2
100
AcDbEntity
  8
Layer_1
 62
7
100
AcDbSpline
 70
8
 71
3
 72
8
 73
4
 74
0
 40
0
 40
0
 40
0
 40
0
 40
1
 40
1
 40
1
 40
1
 10
41.826877
 20
3.906639
 30
0.0
 10
42.157605
 20
3.307193
 30
0.0
 10
42.591687
 20
3.007470
 30
0.0
 10
43.129121
 20
3.007470
 30
0.0
  0
SPLINE
  5
1d3
100
AcDbEntity
  8
Layer_1
 62
7
100
AcDbSpline
 70
8
 71
3
 72
8
 73
4
 74
0
 40
0
 40
0
 40
0
 40
0
 40
1
 40
1
 40
1
 40
1
 10
43.129121
 20
3.007470
 30
0.0
 10
43.530129
 20
3.007470
 30
0.0
 10
43.860858
 20
3.172833
 30
0.0
 10
44.121307
 20
3.503559
 30
0.0
  0
SPLINE
  5
1d4
100
AcDbEntity
  8
Layer_1
 62
7
100
AcDbSpline
 70
8
 71
3
 72
8
 73
4
 74
0
 40
0
 40
0
 40
0
 40
0
 40
1
 40
1
 40
1
 40
1
 10
44.121307
 20
3.503559
 30
0.0
 10
44.381756
 20
3.834292
 30
0.0
 10
44.511980
 20
4.402735
 30
0.0
 10
44.511980
 20
5.208887
 30
0.0
  0
SPLINE
  5
1d5
100
AcDbEntity
  8
Layer_1
 62
7
100
AcDbSpline
 70
8
 71
3
 72
8
 73
4
 74
0
 40
0
 40
0
 40
0
 40
0
 40
1
 40
1
 40
1
 40
1
 10
44.511980
 20
5.208887
 30
0.0
 10
44.511980
 20
6.217605
 30
0.0
 10
44.294940
 20
7.011354
 30
0.0
 10
43.860858
 20
7.590133
 30
0.0
  0
SPLINE
  5
1d6
100
AcDbEntity
  8
Layer_1
 62
7
100
AcDbSpline
 70
8
 71
3
 72
8
 73
4
 74
0
 40
0
 40
0
 40
0
 40
0
 40
1
 40
1
 40
1
 40
1
 10
43.860858
 20
7.590133
 30
0.0
 10
43.567337
 20
7.987006
 30
0.0
 10
43.193200
 20
8.185443
 30
0.0
 10
42.738448
 20
8.185443
 30
0.0
  0
LWPOLYLINE
  5
1d7
100
AcDbEntity
  8
Layer_1
 62
7
100
AcDbPolyline
 90
1
 70
1
 10
42.930684
 20
8.588512
 30
0.0
  0
SPLINE
  5
1d8
100
AcDbEntity
  8
Layer_1
 62
7
100
AcDbSpline
 70
8
 71
3
 72
8
 73
4
 74
0
 40
0
 40
0
 40
0
 40
0
 40
1
 40
1
 40
1
 40
1
 10
48.158262
 20
7.385494
 30
0.0
 10
48.823854
 20
8.187506
 30
0.0
 10
49.458440
 20
8.588512
 30
0.0
 10
50.062020
 20
8.588512
 30
0.0
  0
SPLINE
  5
1d9
100
AcDbEntity
  8
Layer_1
 62
7
100
AcDbSpline
 70
8
 71
3
 72
8
 73
4
 74
0
 40
0
 40
0
 40
0
 40
0
 40
1
 40
1
 40
1
 40
1
 10
50.062020
 20
8.588512
 30
0.0
 10
50.372078
 20
8.588512
 30
0.0
 10
50.638728
 20
8.509966
 30
0.0
 10
50.861970
 20
8.352872
 30
0.0
  0
SPLINE
  5
1da
100
AcDbEntity
  8
Layer_1
 62
7
100
AcDbSpline
 70
8
 71
3
 72
8
 73
4
 74
0
 40
0
 40
0
 40
0
 40
0
 40
1
 40
1
 40
1
 40
1
 10
50.861970
 20
8.352872
 30
0.0
 10
51.085212
 20
8.199913
 30
0.0
 10
51.262979
 20
7.945666
 30
0.0
 10
51.395270
 20
7.590133
 30
0.0
  0
SPLINE
  5
1db
100
AcDbEntity
  8
Layer_1
 62
7
100
AcDbSpline
 70
8
 71
3
 72
8
 73
4
 74
0
 40
0
 40
0
 40
0
 40
0
 40
1
 40
1
 40
1
 40
1
 10
51.395270
 20
7.590133
 30
0.0
 10
51.486220
 20
7.342087
 30
0.0
 10
51.531696
 20
6.961748
 30
0.0
 10
51.531696
 20
6.449115
 30
0.0
  0
LWPOLYLINE
  5
1dc
100
AcDbEntity
  8
Layer_1
 62
7
100
AcDbPolyline
 90
1
 70
1
 10
42.738448
 20
8.185443
 30
0.0
  0
SPLINE
  5
1dd
100
AcDbEntity
  8
Layer_1
 62
7
100
AcDbSpline
 70
8
 71
3
 72
8
 73
4
 74
0
 40
0
 40
0
 40
0
 40
0
 40
1
 40
1
 40
1
 40
1
 10
51.531696
 20
4.024458
 30
0.0
 10
51.531696
 20
3.664792
 30
0.0
 10
51.560636
 20
3.420879
 30
0.0
 10
51.618516
 20
3.292719
 30
0.0
  0
SPLINE
  5
1de
100
AcDbEntity
  8
Layer_1
 62
7
100
AcDbSpline
 70
8
 71
3
 72
8
 73
4
 74
0
 40
0
 40
0
 40
0
 40
0
 40
1
 40
1
 40
1
 40
1
 10
51.618516
 20
3.292719
 30
0.0
 10
51.663989
 20
3.189366
 30
0.0
 10
51.736336
 20
3.108753
 30
0.0
 10
51.835556
 20
3.050880
 30
0.0
  0
SPLINE
  5
1df
100
AcDbEntity
  8
Layer_1
 62
7
100
AcDbSpline
 70
8
 71
3
 72
8
 73
4
 74
0
 40
0
 40
0
 40
0
 40
0
 40
1
 40
1
 40
1
 40
1
 10
51.835556
 20
3.050880
 30
0.0
 10
51.938909
 20
2.993013
 30
0.0
 10
52.127012
 20
2.964080
 30
0.0
 10
52.399862
 20
2.964080
 30
0.0
  0
LWPOLYLINE
  5
1e0
100
AcDbEntity
  8
Layer_1
 62
7
100
AcDbPolyline
 90
2
 70
0
 10
51.531696
 20
6.449115
 30
0.0
 10
51.531696
 20
4.024458
 30
0.0
  0
SPLINE
  5
1e1
100
AcDbEntity
  8
Layer_1
 62
7
100
AcDbSpline
 70
8
 71
3
 72
8
 73
4
 74
0
 40
0
 40
0
 40
0
 40
0
 40
1
 40
1
 40
1
 40
1
 10
49.708553
 20
2.964080
 30
0.0
 10
49.973136
 20
2.964080
 30
0.0
 10
50.157104
 20
3.003353
 30
0.0
 10
50.260457
 20
3.081900
 30
0.0
  0
SPLINE
  5
1e2
100
AcDbEntity
  8
Layer_1
 62
7
100
AcDbSpline
 70
8
 71
3
 72
8
 73
4
 74
0
 40
0
 40
0
 40
0
 40
0
 40
1
 40
1
 40
1
 40
1
 10
50.260457
 20
3.081900
 30
0.0
 10
50.367944
 20
3.164586
 30
0.0
 10
50.442358
 20
3.284476
 30
0.0
 10
50.483699
 20
3.441569
 30
0.0
  0
SPLINE
  5
1e3
100
AcDbEntity
  8
Layer_1
 62
7
100
AcDbSpline
 70
8
 71
3
 72
8
 73
4
 74
0
 40
0
 40
0
 40
0
 40
0
 40
1
 40
1
 40
1
 40
1
 10
50.483699
 20
3.441569
 30
0.0
 10
50.500239
 20
3.503569
 30
0.0
 10
50.508509
 20
3.697872
 30
0.0
 10
50.508509
 20
4.024478
 30
0.0
  0
LWPOLYLINE
  5
1e4
100
AcDbEntity
  8
Layer_1
 62
7
100
AcDbPolyline
 90
5
 70
0
 10
52.399862
 20
2.964080
 30
0.0
 10
52.399862
 20
2.740840
 30
0.0
 10
49.590731
 20
2.740840
 30
0.0
 10
49.590731
 20
2.964080
 30
0.0
 10
49.708553
 20
2.964080
 30
0.0
  0
SPLINE
  5
1e5
100
AcDbEntity
  8
Layer_1
 62
7
100
AcDbSpline
 70
8
 71
3
 72
8
 73
4
 74
0
 40
0
 40
0
 40
0
 40
0
 40
1
 40
1
 40
1
 40
1
 10
50.508509
 20
6.349915
 30
0.0
 10
50.508509
 20
6.866681
 30
0.0
 10
50.440296
 20
7.240817
 30
0.0
 10
50.303870
 20
7.472324
 30
0.0
  0
SPLINE
  5
1e6
100
AcDbEntity
  8
Layer_1
 62
7
100
AcDbSpline
 70
8
 71
3
 72
8
 73
4
 74
0
 40
0
 40
0
 40
0
 40
0
 40
1
 40
1
 40
1
 40
1
 10
50.303870
 20
7.472324
 30
0.0
 10
50.171579
 20
7.707970
 30
0.0
 10
49.946270
 20
7.825793
 30
0.0
 10
49.627943
 20
7.825793
 30
0.0
  0
SPLINE
  5
1e7
100
AcDbEntity
  8
Layer_1
 62
7
100
AcDbSpline
 70
8
 71
3
 72
8
 73
4
 74
0
 40
0
 40
0
 40
0
 40
0
 40
1
 40
1
 40
1
 40
1
 10
49.627943
 20
7.825793
 30
0.0
 10
49.135985
 20
7.825793
 30
0.0
 10
48.646093
 20
7.557077
 30
0.0
 10
48.158267
 20
7.019644
 30
0.0
  0
LWPOLYLINE
  5
1e8
100
AcDbEntity
  8
Layer_1
 62
7
100
AcDbPolyline
 90
2
 70
0
 10
50.508509
 20
4.024478
 30
0.0
 10
50.508509
 20
6.349915
 30
0.0
  0
SPLINE
  5
1e9
100
AcDbEntity
  8
Layer_1
 62
7
100
AcDbSpline
 70
8
 71
3
 72
8
 73
4
 74
0
 40
0
 40
0
 40
0
 40
0
 40
1
 40
1
 40
1
 40
1
 10
48.158267
 20
4.024478
 30
0.0
 10
48.158267
 20
3.640006
 30
0.0
 10
48.181004
 20
3.402296
 30
0.0
 10
48.226477
 20
3.311349
 30
0.0
  0
SPLINE
  5
1ea
100
AcDbEntity
  8
Layer_1
 62
7
100
AcDbSpline
 70
8
 71
3
 72
8
 73
4
 74
0
 40
0
 40
0
 40
0
 40
0
 40
1
 40
1
 40
1
 40
1
 10
48.226477
 20
3.311349
 30
0.0
 10
48.284357
 20
3.191456
 30
0.0
 10
48.362905
 20
3.102573
 30
0.0
 10
48.462122
 20
3.044700
 30
0.0
  0
SPLINE
  5
1eb
100
AcDbEntity
  8
Layer_1
 62
7
100
AcDbSpline
 70
8
 71
3
 72
8
 73
4
 74
0
 40
0
 40
0
 40
0
 40
0
 40
1
 40
1
 40
1
 40
1
 10
48.462122
 20
3.044700
 30
0.0
 10
48.565474
 20
2.990967
 30
0.0
 10
48.772180
 20
2.964100
 30
0.0
 10
49.082238
 20
2.964100
 30
0.0
  0
LWPOLYLINE
  5
1ec
100
AcDbEntity
  8
Layer_1
 62
7
100
AcDbPolyline
 90
2
 70
0
 10
48.158267
 20
7.019644
 30
0.0
 10
48.158267
 20
4.024478
 30
0.0
  0
SPLINE
  5
1ed
100
AcDbEntity
  8
Layer_1
 62
7
100
AcDbSpline
 70
8
 71
3
 72
8
 73
4
 74
0
 40
0
 40
0
 40
0
 40
0
 40
1
 40
1
 40
1
 40
1
 10
46.397135
 20
2.964100
 30
0.0
 10
46.686522
 20
2.964100
 30
0.0
 10
46.880825
 20
3.036446
 30
0.0
 10
46.980044
 20
3.181140
 30
0.0
  0
SPLINE
  5
1ee
100
AcDbEntity
  8
Layer_1
 62
7
100
AcDbSpline
 70
8
 71
3
 72
8
 73
4
 74
0
 40
0
 40
0
 40
0
 40
0
 40
1
 40
1
 40
1
 40
1
 10
46.980044
 20
3.181140
 30
0.0
 10
47.083396
 20
3.329973
 30
0.0
 10
47.135073
 20
3.611092
 30
0.0
 10
47.135073
 20
4.024498
 30
0.0
  0
LWPOLYLINE
  5
1ef
100
AcDbEntity
  8
Layer_1
 62
7
100
AcDbPolyline
 90
5
 70
0
 10
49.082238
 20
2.964100
 30
0.0
 10
49.082238
 20
2.740860
 30
0.0
 10
46.273111
 20
2.740860
 30
0.0
 10
46.273111
 20
2.964100
 30
0.0
 10
46.397135
 20
2.964100
 30
0.0
  0
SPLINE
  5
1f0
100
AcDbEntity
  8
Layer_1
 62
7
100
AcDbSpline
 70
8
 71
3
 72
8
 73
4
 74
0
 40
0
 40
0
 40
0
 40
0
 40
1
 40
1
 40
1
 40
1
 10
47.135073
 20
6.132896
 30
0.0
 10
47.135073
 20
6.815021
 30
0.0
 10
47.118536
 20
7.230501
 30
0.0
 10
47.085463
 20
7.379334
 30
0.0
  0
SPLINE
  5
1f1
100
AcDbEntity
  8
Layer_1
 62
7
100
AcDbSpline
 70
8
 71
3
 72
8
 73
4
 74
0
 40
0
 40
0
 40
0
 40
0
 40
1
 40
1
 40
1
 40
1
 10
47.085463
 20
7.379334
 30
0.0
 10
47.056523
 20
7.528160
 30
0.0
 10
47.008981
 20
7.629443
 30
0.0
 10
46.942836
 20
7.683183
 30
0.0
  0
SPLINE
  5
1f2
100
AcDbEntity
  8
Layer_1
 62
7
100
AcDbSpline
 70
8
 71
3
 72
8
 73
4
 74
0
 40
0
 40
0
 40
0
 40
0
 40
1
 40
1
 40
1
 40
1
 10
46.942836
 20
7.683183
 30
0.0
 10
46.880823
 20
7.736917
 30
0.0
 10
46.796074
 20
7.763783
 30
0.0
 10
46.688588
 20
7.763783
 30
0.0
  0
SPLINE
  5
1f3
100
AcDbEntity
  8
Layer_1
 62
7
100
AcDbSpline
 70
8
 71
3
 72
8
 73
4
 74
0
 40
0
 40
0
 40
0
 40
0
 40
1
 40
1
 40
1
 40
1
 10
46.688588
 20
7.763783
 30
0.0
 10
46.572833
 20
7.763783
 30
0.0
 10
46.434340
 20
7.732783
 30
0.0
 10
46.273110
 20
7.670783
 30
0.0
  0
LWPOLYLINE
  5
1f4
100
AcDbEntity
  8
Layer_1
 62
7
100
AcDbPolyline
 90
2
 70
0
 10
47.135073
 20
4.024498
 30
0.0
 10
47.135073
 20
6.132896
 30
0.0
  0
SPLINE
  5
1f5
100
AcDbEntity
  8
Layer_1
 62
7
100
AcDbSpline
 70
8
 71
3
 72
8
 73
4
 74
0
 40
0
 40
0
 40
0
 40
0
 40
1
 40
1
 40
1
 40
1
 10
56.864691
 20
3.379539
 30
0.0
 10
56.587705
 20
3.090153
 30
0.0
 10
56.316922
 20
2.881380
 30
0.0
 10
56.052342
 20
2.753220
 30
0.0
  0
SPLINE
  5
1f6
100
AcDbEntity
  8
Layer_1
 62
7
100
AcDbSpline
 70
8
 71
3
 72
8
 73
4
 74
0
 40
0
 40
0
 40
0
 40
0
 40
1
 40
1
 40
1
 40
1
 10
56.052342
 20
2.753220
 30
0.0
 10
55.787756
 20
2.629200
 30
0.0
 10
55.502503
 20
2.567190
 30
0.0
 10
55.196584
 20
2.567190
 30
0.0
  0
SPLINE
  5
1f7
100
AcDbEntity
  8
Layer_1
 62
7
100
AcDbSpline
 70
8
 71
3
 72
8
 73
4
 74
0
 40
0
 40
0
 40
0
 40
0
 40
1
 40
1
 40
1
 40
1
 10
55.196584
 20
2.567190
 30
0.0
 10
54.576464
 20
2.567190
 30
0.0
 10
54.034895
 20
2.825570
 30
0.0
 10
53.571876
 20
3.342329
 30
0.0
  0
SPLINE
  5
1f8
100
AcDbEntity
  8
Layer_1
 62
7
100
AcDbSpline
 70
8
 71
3
 72
8
 73
4
 74
0
 40
0
 40
0
 40
0
 40
0
 40
1
 40
1
 40
1
 40
1
 10
53.571876
 20
3.342329
 30
0.0
 10
53.108856
 20
3.863229
 30
0.0
 10
52.877347
 20
4.530888
 30
0.0
 10
52.877347
 20
5.345307
 30
0.0
  0
SPLINE
  5
1f9
100
AcDbEntity
  8
Layer_1
 62
7
100
AcDbSpline
 70
8
 71
3
 72
8
 73
4
 74
0
 40
0
 40
0
 40
0
 40
0
 40
1
 40
1
 40
1
 40
1
 10
52.877347
 20
5.345307
 30
0.0
 10
52.877347
 20
6.159725
 30
0.0
 10
53.133663
 20
6.903864
 30
0.0
 10
53.646296
 20
7.577724
 30
0.0
  0
SPLINE
  5
1fa
100
AcDbEntity
  8
Layer_1
 62
7
100
AcDbSpline
 70
8
 71
3
 72
8
 73
4
 74
0
 40
0
 40
0
 40
0
 40
0
 40
1
 40
1
 40
1
 40
1
 10
53.646296
 20
7.577724
 30
0.0
 10
54.158922
 20
8.255723
 30
0.0
 10
54.818311
 20
8.594722
 30
0.0
 10
55.624463
 20
8.594722
 30
0.0
  0
SPLINE
  5
1fb
100
AcDbEntity
  8
Layer_1
 62
7
100
AcDbSpline
 70
8
 71
3
 72
8
 73
4
 74
0
 40
0
 40
0
 40
0
 40
0
 40
1
 40
1
 40
1
 40
1
 10
55.624463
 20
8.594722
 30
0.0
 10
56.124689
 20
8.594722
 30
0.0
 10
56.538098
 20
8.435559
 30
0.0
 10
56.864691
 20
8.117233
 30
0.0
  0
LWPOLYLINE
  5
1fc
100
AcDbEntity
  8
Layer_1
 62
7
100
AcDbPolyline
 90
5
 70
0
 10
46.273110
 20
7.670783
 30
0.0
 10
46.180090
 20
7.894023
 30
0.0
 10
47.891611
 20
8.588552
 30
0.0
 10
48.158260
 20
8.588552
 30
0.0
 10
48.158262
 20
7.385494
 30
0.0
  0
SPLINE
  5
1fd
100
AcDbEntity
  8
Layer_1
 62
7
100
AcDbSpline
 70
8
 71
3
 72
8
 73
4
 74
0
 40
0
 40
0
 40
0
 40
0
 40
1
 40
1
 40
1
 40
1
 10
56.864691
 20
9.165221
 30
0.0
 10
56.864691
 20
9.814280
 30
0.0
 10
56.848158
 20
10.213223
 30
0.0
 10
56.815091
 20
10.362050
 30
0.0
  0
SPLINE
  5
1fe
100
AcDbEntity
  8
Layer_1
 62
7
100
AcDbSpline
 70
8
 71
3
 72
8
 73
4
 74
0
 40
0
 40
0
 40
0
 40
0
 40
1
 40
1
 40
1
 40
1
 10
56.815091
 20
10.362050
 30
0.0
 10
56.786158
 20
10.510876
 30
0.0
 10
56.738618
 20
10.612163
 30
0.0
 10
56.672472
 20
10.665909
 30
0.0
  0
SPLINE
  5
1ff
100
AcDbEntity
  8
Layer_1
 62
7
100
AcDbSpline
 70
8
 71
3
 72
8
 73
4
 74
0
 40
0
 40
0
 40
0
 40
0
 40
1
 40
1
 40
1
 40
1
 10
56.672472
 20
10.665909
 30
0.0
 10
56.606338
 20
10.719642
 30
0.0
 10
56.523655
 20
10.746509
 30
0.0
 10
56.424422
 20
10.746509
 30
0.0
  0
SPLINE
  5
200
100
AcDbEntity
  8
Layer_1
 62
7
100
AcDbSpline
 70
8
 71
3
 72
8
 73
4
 74
0
 40
0
 40
0
 40
0
 40
0
 40
1
 40
1
 40
1
 40
1
 10
56.424422
 20
10.746509
 30
0.0
 10
56.316935
 20
10.746509
 30
0.0
 10
56.174309
 20
10.713443
 30
0.0
 10
55.996542
 20
10.647309
 30
0.0
  0
LWPOLYLINE
  5
201
100
AcDbEntity
  8
Layer_1
 62
7
100
AcDbPolyline
 90
2
 70
0
 10
56.864691
 20
8.117233
 30
0.0
 10
56.864691
 20
9.165221
 30
0.0
  0
SPLINE
  5
202
100
AcDbEntity
  8
Layer_1
 62
7
100
AcDbSpline
 70
8
 71
3
 72
8
 73
4
 74
0
 40
0
 40
0
 40
0
 40
0
 40
1
 40
1
 40
1
 40
1
 10
57.887920
 20
4.991857
 30
0.0
 10
57.887920
 20
4.326265
 30
0.0
 10
57.902387
 20
3.919052
 30
0.0
 10
57.931320
 20
3.770219
 30
0.0
  0
SPLINE
  5
203
100
AcDbEntity
  8
Layer_1
 62
7
100
AcDbSpline
 70
8
 71
3
 72
8
 73
4
 74
0
 40
0
 40
0
 40
0
 40
0
 40
1
 40
1
 40
1
 40
1
 10
57.931320
 20
3.770219
 30
0.0
 10
57.964386
 20
3.625526
 30
0.0
 10
58.013996
 20
3.524242
 30
0.0
 10
58.080150
 20
3.466369
 30
0.0
  0
SPLINE
  5
204
100
AcDbEntity
  8
Layer_1
 62
7
100
AcDbSpline
 70
8
 71
3
 72
8
 73
4
 74
0
 40
0
 40
0
 40
0
 40
0
 40
1
 40
1
 40
1
 40
1
 10
58.080150
 20
3.466369
 30
0.0
 10
58.150430
 20
3.408503
 30
0.0
 10
58.231046
 20
3.379569
 30
0.0
 10
58.321999
 20
3.379569
 30
0.0
  0
SPLINE
  5
205
100
AcDbEntity
  8
Layer_1
 62
7
100
AcDbSpline
 70
8
 71
3
 72
8
 73
4
 74
0
 40
0
 40
0
 40
0
 40
0
 40
1
 40
1
 40
1
 40
1
 10
58.321999
 20
3.379569
 30
0.0
 10
58.433619
 20
3.379569
 30
0.0
 10
58.582446
 20
3.414709
 30
0.0
 10
58.768479
 20
3.484989
 30
0.0
  0
LWPOLYLINE
  5
206
100
AcDbEntity
  8
Layer_1
 62
7
100
AcDbPolyline
 90
5
 70
0
 10
55.996542
 20
10.647309
 30
0.0
 10
55.915943
 20
10.864349
 30
0.0
 10
57.608860
 20
11.558888
 30
0.0
 10
57.887920
 20
11.558888
 30
0.0
 10
57.887920
 20
4.991857
 30
0.0
  0
LWPOLYLINE
  5
207
100
AcDbEntity
  8
Layer_1
 62
7
100
AcDbPolyline
 90
5
 70
0
 10
58.768479
 20
3.484989
 30
0.0
 10
58.836679
 20
3.267949
 30
0.0
 10
57.149961
 20
2.567220
 30
0.0
 10
56.864701
 20
2.567220
 30
0.0
 10
56.864691
 20
3.379539
 30
0.0
  0
SPLINE
  5
208
100
AcDbEntity
  8
Layer_1
 62
7
100
AcDbSpline
 70
8
 71
3
 72
8
 73
4
 74
0
 40
0
 40
0
 40
0
 40
0
 40
1
 40
1
 40
1
 40
1
 10
56.864691
 20
6.740575
 30
0.0
 10
56.839891
 20
7.021694
 30
0.0
 10
56.765478
 20
7.278007
 30
0.0
 10
56.641452
 20
7.509514
 30
0.0
  0
SPLINE
  5
209
100
AcDbEntity
  8
Layer_1
 62
7
100
AcDbSpline
 70
8
 71
3
 72
8
 73
4
 74
0
 40
0
 40
0
 40
0
 40
0
 40
1
 40
1
 40
1
 40
1
 10
56.641452
 20
7.509514
 30
0.0
 10
56.517432
 20
7.741027
 30
0.0
 10
56.352069
 20
7.914660
 30
0.0
 10
56.145362
 20
8.030413
 30
0.0
  0
SPLINE
  5
20a
100
AcDbEntity
  8
Layer_1
 62
7
100
AcDbSpline
 70
8
 71
3
 72
8
 73
4
 74
0
 40
0
 40
0
 40
0
 40
0
 40
1
 40
1
 40
1
 40
1
 10
56.145362
 20
8.030413
 30
0.0
 10
55.942789
 20
8.150299
 30
0.0
 10
55.744350
 20
8.210243
 30
0.0
 10
55.550043
 20
8.210243
 30
0.0
  0
SPLINE
  5
20b
100
AcDbEntity
  8
Layer_1
 62
7
100
AcDbSpline
 70
8
 71
3
 72
8
 73
4
 74
0
 40
0
 40
0
 40
0
 40
0
 40
1
 40
1
 40
1
 40
1
 10
55.550043
 20
8.210243
 30
0.0
 10
55.186244
 20
8.210243
 30
0.0
 10
54.861717
 20
8.046946
 30
0.0
 10
54.576464
 20
7.720353
 30
0.0
  0
SPLINE
  5
20c
100
AcDbEntity
  8
Layer_1
 62
7
100
AcDbSpline
 70
8
 71
3
 72
8
 73
4
 74
0
 40
0
 40
0
 40
0
 40
0
 40
1
 40
1
 40
1
 40
1
 10
54.576464
 20
7.720353
 30
0.0
 10
54.200258
 20
7.290407
 30
0.0
 10
54.012155
 20
6.662021
 30
0.0
 10
54.012155
 20
5.835196
 30
0.0
  0
SPLINE
  5
20d
100
AcDbEntity
  8
Layer_1
 62
7
100
AcDbSpline
 70
8
 71
3
 72
8
 73
4
 74
0
 40
0
 40
0
 40
0
 40
0
 40
1
 40
1
 40
1
 40
1
 10
54.012155
 20
5.835196
 30
0.0
 10
54.012155
 20
5.000110
 30
0.0
 10
54.194058
 20
4.359325
 30
0.0
 10
54.557864
 20
3.912839
 30
0.0
  0
SPLINE
  5
20e
100
AcDbEntity
  8
Layer_1
 62
7
100
AcDbSpline
 70
8
 71
3
 72
8
 73
4
 74
0
 40
0
 40
0
 40
0
 40
0
 40
1
 40
1
 40
1
 40
1
 10
54.557864
 20
3.912839
 30
0.0
 10
54.921664
 20
3.470493
 30
0.0
 10
55.326807
 20
3.249320
 30
0.0
 10
55.773293
 20
3.249320
 30
0.0
  0
SPLINE
  5
20f
100
AcDbEntity
  8
Layer_1
 62
7
100
AcDbSpline
 70
8
 71
3
 72
8
 73
4
 74
0
 40
0
 40
0
 40
0
 40
0
 40
1
 40
1
 40
1
 40
1
 10
55.773293
 20
3.249320
 30
0.0
 10
56.149492
 20
3.249320
 30
0.0
 10
56.513292
 20
3.437419
 30
0.0
 10
56.864691
 20
3.813619
 30
0.0
  0
LWPOLYLINE
  5
210
100
AcDbEntity
  8
Layer_1
 62
7
100
AcDbPolyline
 90
2
 70
0
 10
56.864691
 20
3.813619
 30
0.0
 10
56.864691
 20
6.740575
 30
0.0
  0
SPLINE
  5
211
100
AcDbEntity
  8
Layer_1
 62
7
100
AcDbSpline
 70
8
 71
3
 72
8
 73
4
 74
0
 40
0
 40
0
 40
0
 40
0
 40
1
 40
1
 40
1
 40
1
 10
60.157517
 20
6.281685
 30
0.0
 10
60.153517
 20
5.438326
 30
0.0
 10
60.358153
 20
4.776867
 30
0.0
 10
60.771426
 20
4.297308
 30
0.0
  0
SPLINE
  5
212
100
AcDbEntity
  8
Layer_1
 62
7
100
AcDbSpline
 70
8
 71
3
 72
8
 73
4
 74
0
 40
0
 40
0
 40
0
 40
0
 40
1
 40
1
 40
1
 40
1
 10
60.771426
 20
4.297308
 30
0.0
 10
61.184839
 20
3.817755
 30
0.0
 10
61.670598
 20
3.577979
 30
0.0
 10
62.228704
 20
3.577979
 30
0.0
  0
SPLINE
  5
213
100
AcDbEntity
  8
Layer_1
 62
7
100
AcDbSpline
 70
8
 71
3
 72
8
 73
4
 74
0
 40
0
 40
0
 40
0
 40
0
 40
1
 40
1
 40
1
 40
1
 10
62.228704
 20
3.577979
 30
0.0
 10
62.600770
 20
3.577979
 30
0.0
 10
62.923230
 20
3.679266
 30
0.0
 10
63.196083
 20
3.881839
 30
0.0
  0
SPLINE
  5
214
100
AcDbEntity
  8
Layer_1
 62
7
100
AcDbSpline
 70
8
 71
3
 72
8
 73
4
 74
0
 40
0
 40
0
 40
0
 40
0
 40
1
 40
1
 40
1
 40
1
 10
63.196083
 20
3.881839
 30
0.0
 10
63.473069
 20
4.088538
 30
0.0
 10
63.704578
 20
4.439935
 30
0.0
 10
63.890612
 20
4.936027
 30
0.0
  0
LWPOLYLINE
  5
215
100
AcDbEntity
  8
Layer_1
 62
7
100
AcDbPolyline
 90
1
 70
1
 10
56.864691
 20
3.813619
 30
0.0
  0
SPLINE
  5
216
100
AcDbEntity
  8
Layer_1
 62
7
100
AcDbSpline
 70
8
 71
3
 72
8
 73
4
 74
0
 40
0
 40
0
 40
0
 40
0
 40
1
 40
1
 40
1
 40
1
 10
64.082851
 20
4.812007
 30
0.0
 10
63.996031
 20
4.245635
 30
0.0
 10
63.743852
 20
3.728872
 30
0.0
 10
63.326312
 20
3.261719
 30
0.0
  0
SPLINE
  5
217
100
AcDbEntity
  8
Layer_1
 62
7
100
AcDbSpline
 70
8
 71
3
 72
8
 73
4
 74
0
 40
0
 40
0
 40
0
 40
0
 40
1
 40
1
 40
1
 40
1
 10
63.326312
 20
3.261719
 30
0.0
 10
62.908766
 20
2.798700
 30
0.0
 10
62.385800
 20
2.567190
 30
0.0
 10
61.757415
 20
2.567190
 30
0.0
  0
SPLINE
  5
218
100
AcDbEntity
  8
Layer_1
 62
7
100
AcDbSpline
 70
8
 71
3
 72
8
 73
4
 74
0
 40
0
 40
0
 40
0
 40
0
 40
1
 40
1
 40
1
 40
1
 10
61.757415
 20
2.567190
 30
0.0
 10
61.075289
 20
2.567190
 30
0.0
 10
60.490313
 20
2.831773
 30
0.0
 10
60.002487
 20
3.360939
 30
0.0
  0
SPLINE
  5
219
100
AcDbEntity
  8
Layer_1
 62
7
100
AcDbSpline
 70
8
 71
3
 72
8
 73
4
 74
0
 40
0
 40
0
 40
0
 40
0
 40
1
 40
1
 40
1
 40
1
 10
60.002487
 20
3.360939
 30
0.0
 10
59.518794
 20
3.894239
 30
0.0
 10
59.276948
 20
4.609438
 30
0.0
 10
59.276948
 20
5.506536
 30
0.0
  0
SPLINE
  5
21a
100
AcDbEntity
  8
Layer_1
 62
7
100
AcDbSpline
 70
8
 71
3
 72
8
 73
4
 74
0
 40
0
 40
0
 40
0
 40
0
 40
1
 40
1
 40
1
 40
1
 10
59.276948
 20
5.506536
 30
0.0
 10
59.276948
 20
6.478055
 30
0.0
 10
59.524994
 20
7.234597
 30
0.0
 10
60.021087
 20
7.776163
 30
0.0
  0
SPLINE
  5
21b
100
AcDbEntity
  8
Layer_1
 62
7
100
AcDbSpline
 70
8
 71
3
 72
8
 73
4
 74
0
 40
0
 40
0
 40
0
 40
0
 40
1
 40
1
 40
1
 40
1
 10
60.021087
 20
7.776163
 30
0.0
 10
60.521313
 20
8.321869
 30
0.0
 10
61.147632
 20
8.594722
 30
0.0
 10
61.900044
 20
8.594722
 30
0.0
  0
SPLINE
  5
21c
100
AcDbEntity
  8
Layer_1
 62
7
100
AcDbSpline
 70
8
 71
3
 72
8
 73
4
 74
0
 40
0
 40
0
 40
0
 40
0
 40
1
 40
1
 40
1
 40
1
 10
61.900044
 20
8.594722
 30
0.0
 10
62.536697
 20
8.594722
 30
0.0
 10
63.059659
 20
8.383882
 30
0.0
 10
63.468932
 20
7.962203
 30
0.0
  0
SPLINE
  5
21d
100
AcDbEntity
  8
Layer_1
 62
7
100
AcDbSpline
 70
8
 71
3
 72
8
 73
4
 74
0
 40
0
 40
0
 40
0
 40
0
 40
1
 40
1
 40
1
 40
1
 10
63.468932
 20
7.962203
 30
0.0
 10
63.878212
 20
7.544657
 30
0.0
 10
64.082851
 20
6.984484
 30
0.0
 10
64.082851
 20
6.281685
 30
0.0
  0
LWPOLYLINE
  5
21e
100
AcDbEntity
  8
Layer_1
 62
7
100
AcDbPolyline
 90
2
 70
0
 10
63.890612
 20
4.936027
 30
0.0
 10
64.082851
 20
4.812007
 30
0.0
  0
LWPOLYLINE
  5
21f
100
AcDbEntity
  8
Layer_1
 62
7
100
AcDbPolyline
 90
2
 70
0
 10
64.082851
 20
6.281685
 30
0.0
 10
60.157517
 20
6.281685
 30
0.0
  0
SPLINE
  5
220
100
AcDbEntity
  8
Layer_1
 62
7
100
AcDbSpline
 70
8
 71
3
 72
8
 73
4
 74
0
 40
0
 40
0
 40
0
 40
0
 40
1
 40
1
 40
1
 40
1
 10
62.786803
 20
6.641355
 30
0.0
 10
62.766136
 20
7.005154
 30
0.0
 10
62.722730
 20
7.261467
 30
0.0
 10
62.656583
 20
7.410294
 30
0.0
  0
SPLINE
  5
221
100
AcDbEntity
  8
Layer_1
 62
7
100
AcDbSpline
 70
8
 71
3
 72
8
 73
4
 74
0
 40
0
 40
0
 40
0
 40
0
 40
1
 40
1
 40
1
 40
1
 10
62.656583
 20
7.410294
 30
0.0
 10
62.553230
 20
7.641807
 30
0.0
 10
62.398200
 20
7.823710
 30
0.0
 10
62.191494
 20
7.956003
 30
0.0
  0
SPLINE
  5
222
100
AcDbEntity
  8
Layer_1
 62
7
100
AcDbSpline
 70
8
 71
3
 72
8
 73
4
 74
0
 40
0
 40
0
 40
0
 40
0
 40
1
 40
1
 40
1
 40
1
 10
62.191494
 20
7.956003
 30
0.0
 10
61.988921
 20
8.088289
 30
0.0
 10
61.776014
 20
8.154433
 30
0.0
 10
61.552775
 20
8.154433
 30
0.0
  0
SPLINE
  5
223
100
AcDbEntity
  8
Layer_1
 62
7
100
AcDbSpline
 70
8
 71
3
 72
8
 73
4
 74
0
 40
0
 40
0
 40
0
 40
0
 40
1
 40
1
 40
1
 40
1
 10
61.552775
 20
8.154433
 30
0.0
 10
61.209642
 20
8.154433
 30
0.0
 10
60.901652
 20
8.020076
 30
0.0
 10
60.628806
 20
7.751363
 30
0.0
  0
SPLINE
  5
224
100
AcDbEntity
  8
Layer_1
 62
7
100
AcDbSpline
 70
8
 71
3
 72
8
 73
4
 74
0
 40
0
 40
0
 40
0
 40
0
 40
1
 40
1
 40
1
 40
1
 10
60.628806
 20
7.751363
 30
0.0
 10
60.360086
 20
7.486777
 30
0.0
 10
60.202990
 20
7.116774
 30
0.0
 10
60.157517
 20
6.641355
 30
0.0
  0
LWPOLYLINE
  5
225
100
AcDbEntity
  8
Layer_1
 62
7
100
AcDbPolyline
 90
2
 70
0
 10
60.157517
 20
6.641355
 30
0.0
 10
62.786803
 20
6.641355
 30
0.0
  0
LWPOLYLINE
  5
226
100
AcDbEntity
  8
Layer_1
 62
7
100
AcDbPolyline
 90
1
 70
1
 10
60.157517
 20
6.641355
 30
0.0
  0
SPLINE
  5
227
100
AcDbEntity
  8
Layer_1
 62
7
100
AcDbSpline
 70
8
 71
3
 72
8
 73
4
 74
0
 40
0
 40
0
 40
0
 40
0
 40
1
 40
1
 40
1
 40
1
 10
67.047007
 20
8.191643
 30
0.0
 10
66.885781
 20
8.191643
 30
0.0
 10
66.761758
 20
8.152369
 30
0.0
 10
66.674938
 20
8.073823
 30
0.0
  0
SPLINE
  5
228
100
AcDbEntity
  8
Layer_1
 62
7
100
AcDbSpline
 70
8
 71
3
 72
8
 73
4
 74
0
 40
0
 40
0
 40
0
 40
0
 40
1
 40
1
 40
1
 40
1
 10
66.674938
 20
8.073823
 30
0.0
 10
66.592258
 20
7.995276
 30
0.0
 10
66.550918
 20
7.889856
 30
0.0
 10
66.550918
 20
7.757563
 30
0.0
  0
SPLINE
  5
229
100
AcDbEntity
  8
Layer_1
 62
7
100
AcDbSpline
 70
8
 71
3
 72
8
 73
4
 74
0
 40
0
 40
0
 40
0
 40
0
 40
1
 40
1
 40
1
 40
1
 10
66.550918
 20
7.757563
 30
0.0
 10
66.550918
 20
7.612870
 30
0.0
 10
66.594324
 20
7.441304
 30
0.0
 10
66.681138
 20
7.242864
 30
0.0
  0
LWPOLYLINE
  5
22a
100
AcDbEntity
  8
Layer_1
 62
7
100
AcDbPolyline
 90
4
 70
0
 10
64.547941
 20
8.421082
 30
0.0
 10
67.220637
 20
8.421082
 30
0.0
 10
67.220637
 20
8.191643
 30
0.0
 10
67.047007
 20
8.191643
 30
0.0
  0
SPLINE
  5
22b
100
AcDbEntity
  8
Layer_1
 62
7
100
AcDbSpline
 70
8
 71
3
 72
8
 73
4
 74
0
 40
0
 40
0
 40
0
 40
0
 40
1
 40
1
 40
1
 40
1
 10
69.329034
 20
7.360684
 30
0.0
 10
69.424121
 20
7.592197
 30
0.0
 10
69.471664
 20
7.767897
 30
0.0
 10
69.471664
 20
7.887783
 30
0.0
  0
SPLINE
  5
22c
100
AcDbEntity
  8
Layer_1
 62
7
100
AcDbSpline
 70
8
 71
3
 72
8
 73
4
 74
0
 40
0
 40
0
 40
0
 40
0
 40
1
 40
1
 40
1
 40
1
 10
69.471664
 20
7.887783
 30
0.0
 10
69.471664
 20
7.945650
 30
0.0
 10
69.455131
 20
7.993193
 30
0.0
 10
69.422064
 20
8.030413
 30
0.0
  0
SPLINE
  5
22d
100
AcDbEntity
  8
Layer_1
 62
7
100
AcDbSpline
 70
8
 71
3
 72
8
 73
4
 74
0
 40
0
 40
0
 40
0
 40
0
 40
1
 40
1
 40
1
 40
1
 10
69.422064
 20
8.030413
 30
0.0
 10
69.376597
 20
8.092413
 30
0.0
 10
69.318721
 20
8.133753
 30
0.0
 10
69.248434
 20
8.154433
 30
0.0
  0
SPLINE
  5
22e
100
AcDbEntity
  8
Layer_1
 62
7
100
AcDbSpline
 70
8
 71
3
 72
8
 73
4
 74
0
 40
0
 40
0
 40
0
 40
0
 40
1
 40
1
 40
1
 40
1
 10
69.248434
 20
8.154433
 30
0.0
 10
69.178154
 20
8.179233
 30
0.0
 10
69.035528
 20
8.191633
 30
0.0
 10
68.820555
 20
8.191633
 30
0.0
  0
LWPOLYLINE
  5
22f
100
AcDbEntity
  8
Layer_1
 62
7
100
AcDbPolyline
 90
3
 70
0
 10
66.681138
 20
7.242864
 30
0.0
 10
68.001986
 20
4.105078
 30
0.0
 10
69.329034
 20
7.360684
 30
0.0
  0
SPLINE
  5
230
100
AcDbEntity
  8
Layer_1
 62
7
100
AcDbSpline
 70
8
 71
3
 72
8
 73
4
 74
0
 40
0
 40
0
 40
0
 40
0
 40
1
 40
1
 40
1
 40
1
 10
70.674702
 20
8.191633
 30
0.0
 10
70.459729
 20
8.175099
 30
0.0
 10
70.310899
 20
8.131693
 30
0.0
 10
70.228213
 20
8.061413
 30
0.0
  0
SPLINE
  5
231
100
AcDbEntity
  8
Layer_1
 62
7
100
AcDbSpline
 70
8
 71
3
 72
8
 73
4
 74
0
 40
0
 40
0
 40
0
 40
0
 40
1
 40
1
 40
1
 40
1
 10
70.228213
 20
8.061413
 30
0.0
 10
70.083520
 20
7.937386
 30
0.0
 10
69.953297
 20
7.730680
 30
0.0
 10
69.837543
 20
7.441294
 30
0.0
  0
LWPOLYLINE
  5
232
100
AcDbEntity
  8
Layer_1
 62
7
100
AcDbPolyline
 90
4
 70
0
 10
68.820555
 20
8.191633
 30
0.0
 10
68.820555
 20
8.421072
 30
0.0
 10
70.674702
 20
8.421072
 30
0.0
 10
70.674702
 20
8.191633
 30
0.0
  0
SPLINE
  5
233
100
AcDbEntity
  8
Layer_1
 62
7
100
AcDbSpline
 70
8
 71
3
 72
8
 73
4
 74
0
 40
0
 40
0
 40
0
 40
0
 40
1
 40
1
 40
1
 40
1
 10
65.540139
 20
7.360674
 30
0.0
 10
65.449186
 20
7.583920
 30
0.0
 10
65.362370
 20
7.743083
 30
0.0
 10
65.279690
 20
7.838163
 30
0.0
  0
SPLINE
  5
234
100
AcDbEntity
  8
Layer_1
 62
7
100
AcDbSpline
 70
8
 71
3
 72
8
 73
4
 74
0
 40
0
 40
0
 40
0
 40
0
 40
1
 40
1
 40
1
 40
1
 10
65.279690
 20
7.838163
 30
0.0
 10
65.197003
 20
7.937383
 30
0.0
 10
65.091583
 20
8.020066
 30
0.0
 10
64.963430
 20
8.086213
 30
0.0
  0
SPLINE
  5
235
100
AcDbEntity
  8
Layer_1
 62
7
100
AcDbSpline
 70
8
 71
3
 72
8
 73
4
 74
0
 40
0
 40
0
 40
0
 40
0
 40
1
 40
1
 40
1
 40
1
 10
64.963430
 20
8.086213
 30
0.0
 10
64.893150
 20
8.123413
 30
0.0
 10
64.754657
 20
8.158553
 30
0.0
 10
64.547951
 20
8.191633
 30
0.0
  0
LWPOLYLINE
  5
236
100
AcDbEntity
  8
Layer_1
 62
7
100
AcDbPolyline
 90
4
 70
0
 10
69.837543
 20
7.441294
 30
0.0
 10
67.822166
 20
2.567180
 30
0.0
 10
67.567916
 20
2.567180
 30
0.0
 10
65.540139
 20
7.360674
 30
0.0
  0
LWPOLYLINE
  5
237
100
AcDbEntity
  8
Layer_1
 62
7
100
AcDbPolyline
 90
2
 70
0
 10
64.547951
 20
8.191633
 30
0.0
 10
64.547941
 20
8.421082
 30
0.0
  0
LWPOLYLINE
  5
238
100
AcDbEntity
  8
Layer_1
 62
7
100
AcDbPolyline
 90
4
 70
1
 10
77.254123
 20
-0.000096
 30
0.0
 10
70.687092
 20
-0.000096
 30
0.0
 10
70.687092
 20
0.520803
 30
0.0
 10
77.254123
 20
0.520803
 30
0.0
  0
ENDSEC
  0
SECTION
  2
OBJECTS
  0
DICTIONARY
  5
C
330
0
100
AcDbDictionary
  3
ACAD_GROUP
350
D
  3
ACAD_MLINESTYLE
350
17
  0
DICTIONARY
  5
D
330
C
100
AcDbDictionary
  0
DICTIONARY
  5
1A
330
C
100
AcDbDictionary
  0
DICTIONARY
  5
17
330
C
100
AcDbDictionary
  3
STANDARD
350
18
  0
DICTIONARY
  5
19
330
C
100
AcDbDictionary
  0
ENDSEC
  0
EOF
