%TF.GenerationSoftware,KiCad,Pcbnew,(6.0.5)*%
%TF.CreationDate,2022-05-15T18:43:58+01:00*%
%TF.ProjectId,CM4Carrier,434d3443-6172-4726-9965-722e6b696361,Rev1-Untested*%
%TF.SameCoordinates,Original*%
%TF.FileFunction,Paste,Top*%
%TF.FilePolarity,Positive*%
%FSLAX46Y46*%
G04 Gerber Fmt 4.6, Leading zero omitted, Abs format (unit mm)*
G04 Created by KiCad (PCBNEW (6.0.5)) date 2022-05-15 18:43:58*
%MOMM*%
%LPD*%
G01*
G04 APERTURE LIST*
G04 Aperture macros list*
%AMRoundRect*
0 Rectangle with rounded corners*
0 $1 Rounding radius*
0 $2 $3 $4 $5 $6 $7 $8 $9 X,Y pos of 4 corners*
0 Add a 4 corners polygon primitive as box body*
4,1,4,$2,$3,$4,$5,$6,$7,$8,$9,$2,$3,0*
0 Add four circle primitives for the rounded corners*
1,1,$1+$1,$2,$3*
1,1,$1+$1,$4,$5*
1,1,$1+$1,$6,$7*
1,1,$1+$1,$8,$9*
0 Add four rect primitives between the rounded corners*
20,1,$1+$1,$2,$3,$4,$5,0*
20,1,$1+$1,$4,$5,$6,$7,0*
20,1,$1+$1,$6,$7,$8,$9,0*
20,1,$1+$1,$8,$9,$2,$3,0*%
G04 Aperture macros list end*
%ADD10C,0.010000*%
%ADD11RoundRect,0.250000X-0.325000X-0.450000X0.325000X-0.450000X0.325000X0.450000X-0.325000X0.450000X0*%
%ADD12RoundRect,0.250000X0.450000X-0.350000X0.450000X0.350000X-0.450000X0.350000X-0.450000X-0.350000X0*%
%ADD13R,1.000000X0.700000*%
%ADD14R,0.700000X0.600000*%
%ADD15RoundRect,0.250000X0.350000X0.450000X-0.350000X0.450000X-0.350000X-0.450000X0.350000X-0.450000X0*%
%ADD16RoundRect,0.250000X0.337500X0.475000X-0.337500X0.475000X-0.337500X-0.475000X0.337500X-0.475000X0*%
%ADD17RoundRect,0.250001X-0.849999X0.462499X-0.849999X-0.462499X0.849999X-0.462499X0.849999X0.462499X0*%
%ADD18RoundRect,0.250000X-0.475000X0.337500X-0.475000X-0.337500X0.475000X-0.337500X0.475000X0.337500X0*%
%ADD19RoundRect,0.250000X-0.350000X-0.450000X0.350000X-0.450000X0.350000X0.450000X-0.350000X0.450000X0*%
%ADD20RoundRect,0.250000X0.475000X-0.337500X0.475000X0.337500X-0.475000X0.337500X-0.475000X-0.337500X0*%
%ADD21RoundRect,0.250000X-0.337500X-0.475000X0.337500X-0.475000X0.337500X0.475000X-0.337500X0.475000X0*%
%ADD22RoundRect,0.250001X0.462499X0.849999X-0.462499X0.849999X-0.462499X-0.849999X0.462499X-0.849999X0*%
%ADD23R,0.700000X1.000000*%
%ADD24R,0.600000X0.700000*%
%ADD25RoundRect,0.250000X-0.450000X0.350000X-0.450000X-0.350000X0.450000X-0.350000X0.450000X0.350000X0*%
%ADD26R,1.400000X1.050000*%
%ADD27RoundRect,0.250000X-0.450000X0.325000X-0.450000X-0.325000X0.450000X-0.325000X0.450000X0.325000X0*%
%ADD28RoundRect,0.237500X0.237500X-0.300000X0.237500X0.300000X-0.237500X0.300000X-0.237500X-0.300000X0*%
%ADD29RoundRect,0.237500X-0.237500X0.250000X-0.237500X-0.250000X0.237500X-0.250000X0.237500X0.250000X0*%
%ADD30R,0.609600X0.304800*%
%ADD31R,0.304800X0.787400*%
%ADD32R,0.304800X0.609600*%
%ADD33RoundRect,0.100000X0.637500X0.100000X-0.637500X0.100000X-0.637500X-0.100000X0.637500X-0.100000X0*%
%ADD34RoundRect,0.237500X-0.300000X-0.237500X0.300000X-0.237500X0.300000X0.237500X-0.300000X0.237500X0*%
G04 APERTURE END LIST*
%TO.C,U2*%
G36*
X184922491Y-74345000D02*
G01*
X184921491Y-74350000D01*
X184921491Y-74356000D01*
X184919491Y-74366000D01*
X184913491Y-74381000D01*
X184911491Y-74385000D01*
X184909491Y-74390000D01*
X184906491Y-74394000D01*
X184903491Y-74399000D01*
X184900491Y-74403000D01*
X184896491Y-74407000D01*
X184893491Y-74411000D01*
X184889491Y-74414000D01*
X184885491Y-74418000D01*
X184881491Y-74421000D01*
X184876491Y-74424000D01*
X184872491Y-74427000D01*
X184867491Y-74429000D01*
X184863491Y-74431000D01*
X184848491Y-74437000D01*
X184838491Y-74439000D01*
X184832491Y-74439000D01*
X184827491Y-74440000D01*
X184817491Y-74440000D01*
X184812491Y-74439000D01*
X184806491Y-74439000D01*
X184796491Y-74437000D01*
X184781491Y-74431000D01*
X184777491Y-74429000D01*
X184772491Y-74427000D01*
X184768491Y-74424000D01*
X184763491Y-74421000D01*
X184759491Y-74418000D01*
X184755491Y-74414000D01*
X184751491Y-74411000D01*
X184748491Y-74407000D01*
X184744491Y-74403000D01*
X184741491Y-74399000D01*
X184738491Y-74394000D01*
X184735491Y-74390000D01*
X184733491Y-74385000D01*
X184731491Y-74381000D01*
X184725491Y-74366000D01*
X184723491Y-74356000D01*
X184723491Y-74350000D01*
X184722491Y-74345000D01*
X184722491Y-73765000D01*
X184922491Y-73765000D01*
X184922491Y-74345000D01*
G37*
D10*
X184922491Y-74345000D02*
X184921491Y-74350000D01*
X184921491Y-74356000D01*
X184919491Y-74366000D01*
X184913491Y-74381000D01*
X184911491Y-74385000D01*
X184909491Y-74390000D01*
X184906491Y-74394000D01*
X184903491Y-74399000D01*
X184900491Y-74403000D01*
X184896491Y-74407000D01*
X184893491Y-74411000D01*
X184889491Y-74414000D01*
X184885491Y-74418000D01*
X184881491Y-74421000D01*
X184876491Y-74424000D01*
X184872491Y-74427000D01*
X184867491Y-74429000D01*
X184863491Y-74431000D01*
X184848491Y-74437000D01*
X184838491Y-74439000D01*
X184832491Y-74439000D01*
X184827491Y-74440000D01*
X184817491Y-74440000D01*
X184812491Y-74439000D01*
X184806491Y-74439000D01*
X184796491Y-74437000D01*
X184781491Y-74431000D01*
X184777491Y-74429000D01*
X184772491Y-74427000D01*
X184768491Y-74424000D01*
X184763491Y-74421000D01*
X184759491Y-74418000D01*
X184755491Y-74414000D01*
X184751491Y-74411000D01*
X184748491Y-74407000D01*
X184744491Y-74403000D01*
X184741491Y-74399000D01*
X184738491Y-74394000D01*
X184735491Y-74390000D01*
X184733491Y-74385000D01*
X184731491Y-74381000D01*
X184725491Y-74366000D01*
X184723491Y-74356000D01*
X184723491Y-74350000D01*
X184722491Y-74345000D01*
X184722491Y-73765000D01*
X184922491Y-73765000D01*
X184922491Y-74345000D01*
G36*
X185322491Y-74345000D02*
G01*
X185321491Y-74350000D01*
X185321491Y-74356000D01*
X185319491Y-74366000D01*
X185313491Y-74381000D01*
X185311491Y-74385000D01*
X185309491Y-74390000D01*
X185306491Y-74394000D01*
X185303491Y-74399000D01*
X185300491Y-74403000D01*
X185296491Y-74407000D01*
X185293491Y-74411000D01*
X185289491Y-74414000D01*
X185285491Y-74418000D01*
X185281491Y-74421000D01*
X185276491Y-74424000D01*
X185272491Y-74427000D01*
X185267491Y-74429000D01*
X185263491Y-74431000D01*
X185248491Y-74437000D01*
X185238491Y-74439000D01*
X185232491Y-74439000D01*
X185227491Y-74440000D01*
X185217491Y-74440000D01*
X185212491Y-74439000D01*
X185206491Y-74439000D01*
X185196491Y-74437000D01*
X185181491Y-74431000D01*
X185177491Y-74429000D01*
X185172491Y-74427000D01*
X185168491Y-74424000D01*
X185163491Y-74421000D01*
X185159491Y-74418000D01*
X185155491Y-74414000D01*
X185151491Y-74411000D01*
X185148491Y-74407000D01*
X185144491Y-74403000D01*
X185141491Y-74399000D01*
X185138491Y-74394000D01*
X185135491Y-74390000D01*
X185133491Y-74385000D01*
X185131491Y-74381000D01*
X185125491Y-74366000D01*
X185123491Y-74356000D01*
X185123491Y-74350000D01*
X185122491Y-74345000D01*
X185122491Y-73765000D01*
X185322491Y-73765000D01*
X185322491Y-74345000D01*
G37*
X185322491Y-74345000D02*
X185321491Y-74350000D01*
X185321491Y-74356000D01*
X185319491Y-74366000D01*
X185313491Y-74381000D01*
X185311491Y-74385000D01*
X185309491Y-74390000D01*
X185306491Y-74394000D01*
X185303491Y-74399000D01*
X185300491Y-74403000D01*
X185296491Y-74407000D01*
X185293491Y-74411000D01*
X185289491Y-74414000D01*
X185285491Y-74418000D01*
X185281491Y-74421000D01*
X185276491Y-74424000D01*
X185272491Y-74427000D01*
X185267491Y-74429000D01*
X185263491Y-74431000D01*
X185248491Y-74437000D01*
X185238491Y-74439000D01*
X185232491Y-74439000D01*
X185227491Y-74440000D01*
X185217491Y-74440000D01*
X185212491Y-74439000D01*
X185206491Y-74439000D01*
X185196491Y-74437000D01*
X185181491Y-74431000D01*
X185177491Y-74429000D01*
X185172491Y-74427000D01*
X185168491Y-74424000D01*
X185163491Y-74421000D01*
X185159491Y-74418000D01*
X185155491Y-74414000D01*
X185151491Y-74411000D01*
X185148491Y-74407000D01*
X185144491Y-74403000D01*
X185141491Y-74399000D01*
X185138491Y-74394000D01*
X185135491Y-74390000D01*
X185133491Y-74385000D01*
X185131491Y-74381000D01*
X185125491Y-74366000D01*
X185123491Y-74356000D01*
X185123491Y-74350000D01*
X185122491Y-74345000D01*
X185122491Y-73765000D01*
X185322491Y-73765000D01*
X185322491Y-74345000D01*
G36*
X185722491Y-74278000D02*
G01*
X185610491Y-74390000D01*
X185522491Y-74390000D01*
X185522491Y-73765000D01*
X185722491Y-73765000D01*
X185722491Y-74278000D01*
G37*
X185722491Y-74278000D02*
X185610491Y-74390000D01*
X185522491Y-74390000D01*
X185522491Y-73765000D01*
X185722491Y-73765000D01*
X185722491Y-74278000D01*
G36*
X186422491Y-75465000D02*
G01*
X185442491Y-75465000D01*
X185437491Y-75464000D01*
X185431491Y-75464000D01*
X185421491Y-75462000D01*
X185406491Y-75456000D01*
X185402491Y-75454000D01*
X185397491Y-75452000D01*
X185393491Y-75449000D01*
X185388491Y-75446000D01*
X185384491Y-75443000D01*
X185380491Y-75439000D01*
X185376491Y-75436000D01*
X185373491Y-75432000D01*
X185369491Y-75428000D01*
X185366491Y-75424000D01*
X185363491Y-75419000D01*
X185360491Y-75415000D01*
X185358491Y-75410000D01*
X185356491Y-75406000D01*
X185350491Y-75391000D01*
X185348491Y-75381000D01*
X185348491Y-75375000D01*
X185347491Y-75370000D01*
X185347491Y-75360000D01*
X185348491Y-75355000D01*
X185348491Y-75349000D01*
X185350491Y-75339000D01*
X185356491Y-75324000D01*
X185358491Y-75320000D01*
X185360491Y-75315000D01*
X185363491Y-75311000D01*
X185366491Y-75306000D01*
X185369491Y-75302000D01*
X185373491Y-75298000D01*
X185376491Y-75294000D01*
X185380491Y-75291000D01*
X185384491Y-75287000D01*
X185388491Y-75284000D01*
X185393491Y-75281000D01*
X185397491Y-75278000D01*
X185402491Y-75276000D01*
X185406491Y-75274000D01*
X185421491Y-75268000D01*
X185431491Y-75266000D01*
X185437491Y-75266000D01*
X185442491Y-75265000D01*
X186422491Y-75265000D01*
X186422491Y-75465000D01*
G37*
X186422491Y-75465000D02*
X185442491Y-75465000D01*
X185437491Y-75464000D01*
X185431491Y-75464000D01*
X185421491Y-75462000D01*
X185406491Y-75456000D01*
X185402491Y-75454000D01*
X185397491Y-75452000D01*
X185393491Y-75449000D01*
X185388491Y-75446000D01*
X185384491Y-75443000D01*
X185380491Y-75439000D01*
X185376491Y-75436000D01*
X185373491Y-75432000D01*
X185369491Y-75428000D01*
X185366491Y-75424000D01*
X185363491Y-75419000D01*
X185360491Y-75415000D01*
X185358491Y-75410000D01*
X185356491Y-75406000D01*
X185350491Y-75391000D01*
X185348491Y-75381000D01*
X185348491Y-75375000D01*
X185347491Y-75370000D01*
X185347491Y-75360000D01*
X185348491Y-75355000D01*
X185348491Y-75349000D01*
X185350491Y-75339000D01*
X185356491Y-75324000D01*
X185358491Y-75320000D01*
X185360491Y-75315000D01*
X185363491Y-75311000D01*
X185366491Y-75306000D01*
X185369491Y-75302000D01*
X185373491Y-75298000D01*
X185376491Y-75294000D01*
X185380491Y-75291000D01*
X185384491Y-75287000D01*
X185388491Y-75284000D01*
X185393491Y-75281000D01*
X185397491Y-75278000D01*
X185402491Y-75276000D01*
X185406491Y-75274000D01*
X185421491Y-75268000D01*
X185431491Y-75266000D01*
X185437491Y-75266000D01*
X185442491Y-75265000D01*
X186422491Y-75265000D01*
X186422491Y-75465000D01*
G36*
X185232491Y-76691000D02*
G01*
X185238491Y-76691000D01*
X185248491Y-76693000D01*
X185263491Y-76699000D01*
X185267491Y-76701000D01*
X185272491Y-76703000D01*
X185276491Y-76706000D01*
X185281491Y-76709000D01*
X185285491Y-76712000D01*
X185289491Y-76716000D01*
X185293491Y-76719000D01*
X185296491Y-76723000D01*
X185300491Y-76727000D01*
X185303491Y-76731000D01*
X185306491Y-76736000D01*
X185309491Y-76740000D01*
X185311491Y-76745000D01*
X185313491Y-76749000D01*
X185319491Y-76764000D01*
X185321491Y-76774000D01*
X185321491Y-76780000D01*
X185322491Y-76785000D01*
X185322491Y-77365000D01*
X185122491Y-77365000D01*
X185122491Y-76785000D01*
X185123491Y-76780000D01*
X185123491Y-76774000D01*
X185125491Y-76764000D01*
X185131491Y-76749000D01*
X185133491Y-76745000D01*
X185135491Y-76740000D01*
X185138491Y-76736000D01*
X185141491Y-76731000D01*
X185144491Y-76727000D01*
X185148491Y-76723000D01*
X185151491Y-76719000D01*
X185155491Y-76716000D01*
X185159491Y-76712000D01*
X185163491Y-76709000D01*
X185168491Y-76706000D01*
X185172491Y-76703000D01*
X185177491Y-76701000D01*
X185181491Y-76699000D01*
X185196491Y-76693000D01*
X185206491Y-76691000D01*
X185212491Y-76691000D01*
X185217491Y-76690000D01*
X185227491Y-76690000D01*
X185232491Y-76691000D01*
G37*
X185232491Y-76691000D02*
X185238491Y-76691000D01*
X185248491Y-76693000D01*
X185263491Y-76699000D01*
X185267491Y-76701000D01*
X185272491Y-76703000D01*
X185276491Y-76706000D01*
X185281491Y-76709000D01*
X185285491Y-76712000D01*
X185289491Y-76716000D01*
X185293491Y-76719000D01*
X185296491Y-76723000D01*
X185300491Y-76727000D01*
X185303491Y-76731000D01*
X185306491Y-76736000D01*
X185309491Y-76740000D01*
X185311491Y-76745000D01*
X185313491Y-76749000D01*
X185319491Y-76764000D01*
X185321491Y-76774000D01*
X185321491Y-76780000D01*
X185322491Y-76785000D01*
X185322491Y-77365000D01*
X185122491Y-77365000D01*
X185122491Y-76785000D01*
X185123491Y-76780000D01*
X185123491Y-76774000D01*
X185125491Y-76764000D01*
X185131491Y-76749000D01*
X185133491Y-76745000D01*
X185135491Y-76740000D01*
X185138491Y-76736000D01*
X185141491Y-76731000D01*
X185144491Y-76727000D01*
X185148491Y-76723000D01*
X185151491Y-76719000D01*
X185155491Y-76716000D01*
X185159491Y-76712000D01*
X185163491Y-76709000D01*
X185168491Y-76706000D01*
X185172491Y-76703000D01*
X185177491Y-76701000D01*
X185181491Y-76699000D01*
X185196491Y-76693000D01*
X185206491Y-76691000D01*
X185212491Y-76691000D01*
X185217491Y-76690000D01*
X185227491Y-76690000D01*
X185232491Y-76691000D01*
G36*
X184057491Y-75266000D02*
G01*
X184063491Y-75266000D01*
X184073491Y-75268000D01*
X184088491Y-75274000D01*
X184092491Y-75276000D01*
X184097491Y-75278000D01*
X184101491Y-75281000D01*
X184106491Y-75284000D01*
X184110491Y-75287000D01*
X184114491Y-75291000D01*
X184118491Y-75294000D01*
X184121491Y-75298000D01*
X184125491Y-75302000D01*
X184128491Y-75306000D01*
X184131491Y-75311000D01*
X184134491Y-75315000D01*
X184136491Y-75320000D01*
X184138491Y-75324000D01*
X184144491Y-75339000D01*
X184146491Y-75349000D01*
X184146491Y-75355000D01*
X184147491Y-75360000D01*
X184147491Y-75370000D01*
X184146491Y-75375000D01*
X184146491Y-75381000D01*
X184144491Y-75391000D01*
X184138491Y-75406000D01*
X184136491Y-75410000D01*
X184134491Y-75415000D01*
X184131491Y-75419000D01*
X184128491Y-75424000D01*
X184125491Y-75428000D01*
X184121491Y-75432000D01*
X184118491Y-75436000D01*
X184114491Y-75439000D01*
X184110491Y-75443000D01*
X184106491Y-75446000D01*
X184101491Y-75449000D01*
X184097491Y-75452000D01*
X184092491Y-75454000D01*
X184088491Y-75456000D01*
X184073491Y-75462000D01*
X184063491Y-75464000D01*
X184057491Y-75464000D01*
X184052491Y-75465000D01*
X182822491Y-75465000D01*
X182822491Y-75265000D01*
X184052491Y-75265000D01*
X184057491Y-75266000D01*
G37*
X184057491Y-75266000D02*
X184063491Y-75266000D01*
X184073491Y-75268000D01*
X184088491Y-75274000D01*
X184092491Y-75276000D01*
X184097491Y-75278000D01*
X184101491Y-75281000D01*
X184106491Y-75284000D01*
X184110491Y-75287000D01*
X184114491Y-75291000D01*
X184118491Y-75294000D01*
X184121491Y-75298000D01*
X184125491Y-75302000D01*
X184128491Y-75306000D01*
X184131491Y-75311000D01*
X184134491Y-75315000D01*
X184136491Y-75320000D01*
X184138491Y-75324000D01*
X184144491Y-75339000D01*
X184146491Y-75349000D01*
X184146491Y-75355000D01*
X184147491Y-75360000D01*
X184147491Y-75370000D01*
X184146491Y-75375000D01*
X184146491Y-75381000D01*
X184144491Y-75391000D01*
X184138491Y-75406000D01*
X184136491Y-75410000D01*
X184134491Y-75415000D01*
X184131491Y-75419000D01*
X184128491Y-75424000D01*
X184125491Y-75428000D01*
X184121491Y-75432000D01*
X184118491Y-75436000D01*
X184114491Y-75439000D01*
X184110491Y-75443000D01*
X184106491Y-75446000D01*
X184101491Y-75449000D01*
X184097491Y-75452000D01*
X184092491Y-75454000D01*
X184088491Y-75456000D01*
X184073491Y-75462000D01*
X184063491Y-75464000D01*
X184057491Y-75464000D01*
X184052491Y-75465000D01*
X182822491Y-75465000D01*
X182822491Y-75265000D01*
X184052491Y-75265000D01*
X184057491Y-75266000D01*
G36*
X183407491Y-75666000D02*
G01*
X183413491Y-75666000D01*
X183423491Y-75668000D01*
X183438491Y-75674000D01*
X183442491Y-75676000D01*
X183447491Y-75678000D01*
X183451491Y-75681000D01*
X183456491Y-75684000D01*
X183460491Y-75687000D01*
X183464491Y-75691000D01*
X183468491Y-75694000D01*
X183471491Y-75698000D01*
X183475491Y-75702000D01*
X183478491Y-75706000D01*
X183481491Y-75711000D01*
X183484491Y-75715000D01*
X183486491Y-75720000D01*
X183488491Y-75724000D01*
X183494491Y-75739000D01*
X183496491Y-75749000D01*
X183496491Y-75755000D01*
X183497491Y-75760000D01*
X183497491Y-75770000D01*
X183496491Y-75775000D01*
X183496491Y-75781000D01*
X183494491Y-75791000D01*
X183488491Y-75806000D01*
X183486491Y-75810000D01*
X183484491Y-75815000D01*
X183481491Y-75819000D01*
X183478491Y-75824000D01*
X183475491Y-75828000D01*
X183471491Y-75832000D01*
X183468491Y-75836000D01*
X183464491Y-75839000D01*
X183460491Y-75843000D01*
X183456491Y-75846000D01*
X183451491Y-75849000D01*
X183447491Y-75852000D01*
X183442491Y-75854000D01*
X183438491Y-75856000D01*
X183423491Y-75862000D01*
X183413491Y-75864000D01*
X183407491Y-75864000D01*
X183402491Y-75865000D01*
X182822491Y-75865000D01*
X182822491Y-75665000D01*
X183402491Y-75665000D01*
X183407491Y-75666000D01*
G37*
X183407491Y-75666000D02*
X183413491Y-75666000D01*
X183423491Y-75668000D01*
X183438491Y-75674000D01*
X183442491Y-75676000D01*
X183447491Y-75678000D01*
X183451491Y-75681000D01*
X183456491Y-75684000D01*
X183460491Y-75687000D01*
X183464491Y-75691000D01*
X183468491Y-75694000D01*
X183471491Y-75698000D01*
X183475491Y-75702000D01*
X183478491Y-75706000D01*
X183481491Y-75711000D01*
X183484491Y-75715000D01*
X183486491Y-75720000D01*
X183488491Y-75724000D01*
X183494491Y-75739000D01*
X183496491Y-75749000D01*
X183496491Y-75755000D01*
X183497491Y-75760000D01*
X183497491Y-75770000D01*
X183496491Y-75775000D01*
X183496491Y-75781000D01*
X183494491Y-75791000D01*
X183488491Y-75806000D01*
X183486491Y-75810000D01*
X183484491Y-75815000D01*
X183481491Y-75819000D01*
X183478491Y-75824000D01*
X183475491Y-75828000D01*
X183471491Y-75832000D01*
X183468491Y-75836000D01*
X183464491Y-75839000D01*
X183460491Y-75843000D01*
X183456491Y-75846000D01*
X183451491Y-75849000D01*
X183447491Y-75852000D01*
X183442491Y-75854000D01*
X183438491Y-75856000D01*
X183423491Y-75862000D01*
X183413491Y-75864000D01*
X183407491Y-75864000D01*
X183402491Y-75865000D01*
X182822491Y-75865000D01*
X182822491Y-75665000D01*
X183402491Y-75665000D01*
X183407491Y-75666000D01*
G36*
X184482491Y-75791000D02*
G01*
X184488491Y-75791000D01*
X184498491Y-75793000D01*
X184513491Y-75799000D01*
X184517491Y-75801000D01*
X184522491Y-75803000D01*
X184526491Y-75806000D01*
X184531491Y-75809000D01*
X184535491Y-75812000D01*
X184539491Y-75816000D01*
X184543491Y-75819000D01*
X184546491Y-75823000D01*
X184550491Y-75827000D01*
X184553491Y-75831000D01*
X184556491Y-75836000D01*
X184559491Y-75840000D01*
X184561491Y-75845000D01*
X184563491Y-75849000D01*
X184569491Y-75864000D01*
X184571491Y-75874000D01*
X184571491Y-75880000D01*
X184572491Y-75885000D01*
X184572491Y-76715000D01*
X184827491Y-76715000D01*
X184832491Y-76716000D01*
X184838491Y-76716000D01*
X184848491Y-76718000D01*
X184863491Y-76724000D01*
X184867491Y-76726000D01*
X184872491Y-76728000D01*
X184876491Y-76731000D01*
X184881491Y-76734000D01*
X184885491Y-76737000D01*
X184889491Y-76741000D01*
X184893491Y-76744000D01*
X184896491Y-76748000D01*
X184900491Y-76752000D01*
X184903491Y-76756000D01*
X184906491Y-76761000D01*
X184909491Y-76765000D01*
X184911491Y-76770000D01*
X184913491Y-76774000D01*
X184919491Y-76789000D01*
X184921491Y-76799000D01*
X184921491Y-76805000D01*
X184922491Y-76810000D01*
X184922491Y-77365000D01*
X184322491Y-77365000D01*
X184322491Y-75885000D01*
X184323491Y-75880000D01*
X184323491Y-75874000D01*
X184325491Y-75864000D01*
X184331491Y-75849000D01*
X184333491Y-75845000D01*
X184335491Y-75840000D01*
X184338491Y-75836000D01*
X184341491Y-75831000D01*
X184344491Y-75827000D01*
X184348491Y-75823000D01*
X184351491Y-75819000D01*
X184355491Y-75816000D01*
X184359491Y-75812000D01*
X184363491Y-75809000D01*
X184368491Y-75806000D01*
X184372491Y-75803000D01*
X184377491Y-75801000D01*
X184381491Y-75799000D01*
X184396491Y-75793000D01*
X184406491Y-75791000D01*
X184412491Y-75791000D01*
X184417491Y-75790000D01*
X184477491Y-75790000D01*
X184482491Y-75791000D01*
G37*
X184482491Y-75791000D02*
X184488491Y-75791000D01*
X184498491Y-75793000D01*
X184513491Y-75799000D01*
X184517491Y-75801000D01*
X184522491Y-75803000D01*
X184526491Y-75806000D01*
X184531491Y-75809000D01*
X184535491Y-75812000D01*
X184539491Y-75816000D01*
X184543491Y-75819000D01*
X184546491Y-75823000D01*
X184550491Y-75827000D01*
X184553491Y-75831000D01*
X184556491Y-75836000D01*
X184559491Y-75840000D01*
X184561491Y-75845000D01*
X184563491Y-75849000D01*
X184569491Y-75864000D01*
X184571491Y-75874000D01*
X184571491Y-75880000D01*
X184572491Y-75885000D01*
X184572491Y-76715000D01*
X184827491Y-76715000D01*
X184832491Y-76716000D01*
X184838491Y-76716000D01*
X184848491Y-76718000D01*
X184863491Y-76724000D01*
X184867491Y-76726000D01*
X184872491Y-76728000D01*
X184876491Y-76731000D01*
X184881491Y-76734000D01*
X184885491Y-76737000D01*
X184889491Y-76741000D01*
X184893491Y-76744000D01*
X184896491Y-76748000D01*
X184900491Y-76752000D01*
X184903491Y-76756000D01*
X184906491Y-76761000D01*
X184909491Y-76765000D01*
X184911491Y-76770000D01*
X184913491Y-76774000D01*
X184919491Y-76789000D01*
X184921491Y-76799000D01*
X184921491Y-76805000D01*
X184922491Y-76810000D01*
X184922491Y-77365000D01*
X184322491Y-77365000D01*
X184322491Y-75885000D01*
X184323491Y-75880000D01*
X184323491Y-75874000D01*
X184325491Y-75864000D01*
X184331491Y-75849000D01*
X184333491Y-75845000D01*
X184335491Y-75840000D01*
X184338491Y-75836000D01*
X184341491Y-75831000D01*
X184344491Y-75827000D01*
X184348491Y-75823000D01*
X184351491Y-75819000D01*
X184355491Y-75816000D01*
X184359491Y-75812000D01*
X184363491Y-75809000D01*
X184368491Y-75806000D01*
X184372491Y-75803000D01*
X184377491Y-75801000D01*
X184381491Y-75799000D01*
X184396491Y-75793000D01*
X184406491Y-75791000D01*
X184412491Y-75791000D01*
X184417491Y-75790000D01*
X184477491Y-75790000D01*
X184482491Y-75791000D01*
G36*
X183447491Y-76553000D02*
G01*
X183335491Y-76665000D01*
X182822491Y-76665000D01*
X182822491Y-76465000D01*
X183447491Y-76465000D01*
X183447491Y-76553000D01*
G37*
X183447491Y-76553000D02*
X183335491Y-76665000D01*
X182822491Y-76665000D01*
X182822491Y-76465000D01*
X183447491Y-76465000D01*
X183447491Y-76553000D01*
G36*
X184122491Y-74345000D02*
G01*
X184121491Y-74350000D01*
X184121491Y-74356000D01*
X184119491Y-74366000D01*
X184113491Y-74381000D01*
X184111491Y-74385000D01*
X184109491Y-74390000D01*
X184106491Y-74394000D01*
X184103491Y-74399000D01*
X184100491Y-74403000D01*
X184096491Y-74407000D01*
X184093491Y-74411000D01*
X184089491Y-74414000D01*
X184085491Y-74418000D01*
X184081491Y-74421000D01*
X184076491Y-74424000D01*
X184072491Y-74427000D01*
X184067491Y-74429000D01*
X184063491Y-74431000D01*
X184048491Y-74437000D01*
X184038491Y-74439000D01*
X184032491Y-74439000D01*
X184027491Y-74440000D01*
X184017491Y-74440000D01*
X184012491Y-74439000D01*
X184006491Y-74439000D01*
X183996491Y-74437000D01*
X183981491Y-74431000D01*
X183977491Y-74429000D01*
X183972491Y-74427000D01*
X183968491Y-74424000D01*
X183963491Y-74421000D01*
X183959491Y-74418000D01*
X183955491Y-74414000D01*
X183951491Y-74411000D01*
X183948491Y-74407000D01*
X183944491Y-74403000D01*
X183941491Y-74399000D01*
X183938491Y-74394000D01*
X183935491Y-74390000D01*
X183933491Y-74385000D01*
X183931491Y-74381000D01*
X183925491Y-74366000D01*
X183923491Y-74356000D01*
X183923491Y-74350000D01*
X183922491Y-74345000D01*
X183922491Y-73765000D01*
X184122491Y-73765000D01*
X184122491Y-74345000D01*
G37*
X184122491Y-74345000D02*
X184121491Y-74350000D01*
X184121491Y-74356000D01*
X184119491Y-74366000D01*
X184113491Y-74381000D01*
X184111491Y-74385000D01*
X184109491Y-74390000D01*
X184106491Y-74394000D01*
X184103491Y-74399000D01*
X184100491Y-74403000D01*
X184096491Y-74407000D01*
X184093491Y-74411000D01*
X184089491Y-74414000D01*
X184085491Y-74418000D01*
X184081491Y-74421000D01*
X184076491Y-74424000D01*
X184072491Y-74427000D01*
X184067491Y-74429000D01*
X184063491Y-74431000D01*
X184048491Y-74437000D01*
X184038491Y-74439000D01*
X184032491Y-74439000D01*
X184027491Y-74440000D01*
X184017491Y-74440000D01*
X184012491Y-74439000D01*
X184006491Y-74439000D01*
X183996491Y-74437000D01*
X183981491Y-74431000D01*
X183977491Y-74429000D01*
X183972491Y-74427000D01*
X183968491Y-74424000D01*
X183963491Y-74421000D01*
X183959491Y-74418000D01*
X183955491Y-74414000D01*
X183951491Y-74411000D01*
X183948491Y-74407000D01*
X183944491Y-74403000D01*
X183941491Y-74399000D01*
X183938491Y-74394000D01*
X183935491Y-74390000D01*
X183933491Y-74385000D01*
X183931491Y-74381000D01*
X183925491Y-74366000D01*
X183923491Y-74356000D01*
X183923491Y-74350000D01*
X183922491Y-74345000D01*
X183922491Y-73765000D01*
X184122491Y-73765000D01*
X184122491Y-74345000D01*
G36*
X183447491Y-74577000D02*
G01*
X183447491Y-74665000D01*
X182822491Y-74665000D01*
X182822491Y-74465000D01*
X183335491Y-74465000D01*
X183447491Y-74577000D01*
G37*
X183447491Y-74577000D02*
X183447491Y-74665000D01*
X182822491Y-74665000D01*
X182822491Y-74465000D01*
X183335491Y-74465000D01*
X183447491Y-74577000D01*
G36*
X183407491Y-76066000D02*
G01*
X183413491Y-76066000D01*
X183423491Y-76068000D01*
X183438491Y-76074000D01*
X183442491Y-76076000D01*
X183447491Y-76078000D01*
X183451491Y-76081000D01*
X183456491Y-76084000D01*
X183460491Y-76087000D01*
X183464491Y-76091000D01*
X183468491Y-76094000D01*
X183471491Y-76098000D01*
X183475491Y-76102000D01*
X183478491Y-76106000D01*
X183481491Y-76111000D01*
X183484491Y-76115000D01*
X183486491Y-76120000D01*
X183488491Y-76124000D01*
X183494491Y-76139000D01*
X183496491Y-76149000D01*
X183496491Y-76155000D01*
X183497491Y-76160000D01*
X183497491Y-76170000D01*
X183496491Y-76175000D01*
X183496491Y-76181000D01*
X183494491Y-76191000D01*
X183488491Y-76206000D01*
X183486491Y-76210000D01*
X183484491Y-76215000D01*
X183481491Y-76219000D01*
X183478491Y-76224000D01*
X183475491Y-76228000D01*
X183471491Y-76232000D01*
X183468491Y-76236000D01*
X183464491Y-76239000D01*
X183460491Y-76243000D01*
X183456491Y-76246000D01*
X183451491Y-76249000D01*
X183447491Y-76252000D01*
X183442491Y-76254000D01*
X183438491Y-76256000D01*
X183423491Y-76262000D01*
X183413491Y-76264000D01*
X183407491Y-76264000D01*
X183402491Y-76265000D01*
X182822491Y-76265000D01*
X182822491Y-76065000D01*
X183402491Y-76065000D01*
X183407491Y-76066000D01*
G37*
X183407491Y-76066000D02*
X183413491Y-76066000D01*
X183423491Y-76068000D01*
X183438491Y-76074000D01*
X183442491Y-76076000D01*
X183447491Y-76078000D01*
X183451491Y-76081000D01*
X183456491Y-76084000D01*
X183460491Y-76087000D01*
X183464491Y-76091000D01*
X183468491Y-76094000D01*
X183471491Y-76098000D01*
X183475491Y-76102000D01*
X183478491Y-76106000D01*
X183481491Y-76111000D01*
X183484491Y-76115000D01*
X183486491Y-76120000D01*
X183488491Y-76124000D01*
X183494491Y-76139000D01*
X183496491Y-76149000D01*
X183496491Y-76155000D01*
X183497491Y-76160000D01*
X183497491Y-76170000D01*
X183496491Y-76175000D01*
X183496491Y-76181000D01*
X183494491Y-76191000D01*
X183488491Y-76206000D01*
X183486491Y-76210000D01*
X183484491Y-76215000D01*
X183481491Y-76219000D01*
X183478491Y-76224000D01*
X183475491Y-76228000D01*
X183471491Y-76232000D01*
X183468491Y-76236000D01*
X183464491Y-76239000D01*
X183460491Y-76243000D01*
X183456491Y-76246000D01*
X183451491Y-76249000D01*
X183447491Y-76252000D01*
X183442491Y-76254000D01*
X183438491Y-76256000D01*
X183423491Y-76262000D01*
X183413491Y-76264000D01*
X183407491Y-76264000D01*
X183402491Y-76265000D01*
X182822491Y-76265000D01*
X182822491Y-76065000D01*
X183402491Y-76065000D01*
X183407491Y-76066000D01*
G36*
X183722491Y-74390000D02*
G01*
X183634491Y-74390000D01*
X183522491Y-74278000D01*
X183522491Y-73765000D01*
X183722491Y-73765000D01*
X183722491Y-74390000D01*
G37*
X183722491Y-74390000D02*
X183634491Y-74390000D01*
X183522491Y-74278000D01*
X183522491Y-73765000D01*
X183722491Y-73765000D01*
X183722491Y-74390000D01*
G36*
X183407491Y-74866000D02*
G01*
X183413491Y-74866000D01*
X183423491Y-74868000D01*
X183438491Y-74874000D01*
X183442491Y-74876000D01*
X183447491Y-74878000D01*
X183451491Y-74881000D01*
X183456491Y-74884000D01*
X183460491Y-74887000D01*
X183464491Y-74891000D01*
X183468491Y-74894000D01*
X183471491Y-74898000D01*
X183475491Y-74902000D01*
X183478491Y-74906000D01*
X183481491Y-74911000D01*
X183484491Y-74915000D01*
X183486491Y-74920000D01*
X183488491Y-74924000D01*
X183494491Y-74939000D01*
X183496491Y-74949000D01*
X183496491Y-74955000D01*
X183497491Y-74960000D01*
X183497491Y-74970000D01*
X183496491Y-74975000D01*
X183496491Y-74981000D01*
X183494491Y-74991000D01*
X183488491Y-75006000D01*
X183486491Y-75010000D01*
X183484491Y-75015000D01*
X183481491Y-75019000D01*
X183478491Y-75024000D01*
X183475491Y-75028000D01*
X183471491Y-75032000D01*
X183468491Y-75036000D01*
X183464491Y-75039000D01*
X183460491Y-75043000D01*
X183456491Y-75046000D01*
X183451491Y-75049000D01*
X183447491Y-75052000D01*
X183442491Y-75054000D01*
X183438491Y-75056000D01*
X183423491Y-75062000D01*
X183413491Y-75064000D01*
X183407491Y-75064000D01*
X183402491Y-75065000D01*
X182822491Y-75065000D01*
X182822491Y-74865000D01*
X183402491Y-74865000D01*
X183407491Y-74866000D01*
G37*
X183407491Y-74866000D02*
X183413491Y-74866000D01*
X183423491Y-74868000D01*
X183438491Y-74874000D01*
X183442491Y-74876000D01*
X183447491Y-74878000D01*
X183451491Y-74881000D01*
X183456491Y-74884000D01*
X183460491Y-74887000D01*
X183464491Y-74891000D01*
X183468491Y-74894000D01*
X183471491Y-74898000D01*
X183475491Y-74902000D01*
X183478491Y-74906000D01*
X183481491Y-74911000D01*
X183484491Y-74915000D01*
X183486491Y-74920000D01*
X183488491Y-74924000D01*
X183494491Y-74939000D01*
X183496491Y-74949000D01*
X183496491Y-74955000D01*
X183497491Y-74960000D01*
X183497491Y-74970000D01*
X183496491Y-74975000D01*
X183496491Y-74981000D01*
X183494491Y-74991000D01*
X183488491Y-75006000D01*
X183486491Y-75010000D01*
X183484491Y-75015000D01*
X183481491Y-75019000D01*
X183478491Y-75024000D01*
X183475491Y-75028000D01*
X183471491Y-75032000D01*
X183468491Y-75036000D01*
X183464491Y-75039000D01*
X183460491Y-75043000D01*
X183456491Y-75046000D01*
X183451491Y-75049000D01*
X183447491Y-75052000D01*
X183442491Y-75054000D01*
X183438491Y-75056000D01*
X183423491Y-75062000D01*
X183413491Y-75064000D01*
X183407491Y-75064000D01*
X183402491Y-75065000D01*
X182822491Y-75065000D01*
X182822491Y-74865000D01*
X183402491Y-74865000D01*
X183407491Y-74866000D01*
G36*
X186422491Y-75065000D02*
G01*
X185442491Y-75065000D01*
X185437491Y-75064000D01*
X185431491Y-75064000D01*
X185421491Y-75062000D01*
X185406491Y-75056000D01*
X185402491Y-75054000D01*
X185397491Y-75052000D01*
X185393491Y-75049000D01*
X185388491Y-75046000D01*
X185384491Y-75043000D01*
X185380491Y-75039000D01*
X185376491Y-75036000D01*
X185373491Y-75032000D01*
X185369491Y-75028000D01*
X185366491Y-75024000D01*
X185363491Y-75019000D01*
X185360491Y-75015000D01*
X185358491Y-75010000D01*
X185356491Y-75006000D01*
X185350491Y-74991000D01*
X185348491Y-74981000D01*
X185348491Y-74975000D01*
X185347491Y-74970000D01*
X185347491Y-74910000D01*
X185348491Y-74905000D01*
X185348491Y-74899000D01*
X185350491Y-74889000D01*
X185356491Y-74874000D01*
X185358491Y-74870000D01*
X185360491Y-74865000D01*
X185363491Y-74861000D01*
X185366491Y-74856000D01*
X185369491Y-74852000D01*
X185373491Y-74848000D01*
X185376491Y-74844000D01*
X185380491Y-74841000D01*
X185384491Y-74837000D01*
X185388491Y-74834000D01*
X185393491Y-74831000D01*
X185397491Y-74828000D01*
X185402491Y-74826000D01*
X185406491Y-74824000D01*
X185421491Y-74818000D01*
X185431491Y-74816000D01*
X185437491Y-74816000D01*
X185442491Y-74815000D01*
X185822491Y-74815000D01*
X185822491Y-74577000D01*
X185934491Y-74465000D01*
X186422491Y-74465000D01*
X186422491Y-75065000D01*
G37*
X186422491Y-75065000D02*
X185442491Y-75065000D01*
X185437491Y-75064000D01*
X185431491Y-75064000D01*
X185421491Y-75062000D01*
X185406491Y-75056000D01*
X185402491Y-75054000D01*
X185397491Y-75052000D01*
X185393491Y-75049000D01*
X185388491Y-75046000D01*
X185384491Y-75043000D01*
X185380491Y-75039000D01*
X185376491Y-75036000D01*
X185373491Y-75032000D01*
X185369491Y-75028000D01*
X185366491Y-75024000D01*
X185363491Y-75019000D01*
X185360491Y-75015000D01*
X185358491Y-75010000D01*
X185356491Y-75006000D01*
X185350491Y-74991000D01*
X185348491Y-74981000D01*
X185348491Y-74975000D01*
X185347491Y-74970000D01*
X185347491Y-74910000D01*
X185348491Y-74905000D01*
X185348491Y-74899000D01*
X185350491Y-74889000D01*
X185356491Y-74874000D01*
X185358491Y-74870000D01*
X185360491Y-74865000D01*
X185363491Y-74861000D01*
X185366491Y-74856000D01*
X185369491Y-74852000D01*
X185373491Y-74848000D01*
X185376491Y-74844000D01*
X185380491Y-74841000D01*
X185384491Y-74837000D01*
X185388491Y-74834000D01*
X185393491Y-74831000D01*
X185397491Y-74828000D01*
X185402491Y-74826000D01*
X185406491Y-74824000D01*
X185421491Y-74818000D01*
X185431491Y-74816000D01*
X185437491Y-74816000D01*
X185442491Y-74815000D01*
X185822491Y-74815000D01*
X185822491Y-74577000D01*
X185934491Y-74465000D01*
X186422491Y-74465000D01*
X186422491Y-75065000D01*
G36*
X186422491Y-76265000D02*
G01*
X185442491Y-76265000D01*
X185437491Y-76264000D01*
X185431491Y-76264000D01*
X185421491Y-76262000D01*
X185406491Y-76256000D01*
X185402491Y-76254000D01*
X185397491Y-76252000D01*
X185393491Y-76249000D01*
X185388491Y-76246000D01*
X185384491Y-76243000D01*
X185380491Y-76239000D01*
X185376491Y-76236000D01*
X185373491Y-76232000D01*
X185369491Y-76228000D01*
X185366491Y-76224000D01*
X185363491Y-76219000D01*
X185360491Y-76215000D01*
X185358491Y-76210000D01*
X185356491Y-76206000D01*
X185350491Y-76191000D01*
X185348491Y-76181000D01*
X185348491Y-76175000D01*
X185347491Y-76170000D01*
X185347491Y-75760000D01*
X185348491Y-75755000D01*
X185348491Y-75749000D01*
X185350491Y-75739000D01*
X185356491Y-75724000D01*
X185358491Y-75720000D01*
X185360491Y-75715000D01*
X185363491Y-75711000D01*
X185366491Y-75706000D01*
X185369491Y-75702000D01*
X185373491Y-75698000D01*
X185376491Y-75694000D01*
X185380491Y-75691000D01*
X185384491Y-75687000D01*
X185388491Y-75684000D01*
X185393491Y-75681000D01*
X185397491Y-75678000D01*
X185402491Y-75676000D01*
X185406491Y-75674000D01*
X185421491Y-75668000D01*
X185431491Y-75666000D01*
X185437491Y-75666000D01*
X185442491Y-75665000D01*
X186422491Y-75665000D01*
X186422491Y-76265000D01*
G37*
X186422491Y-76265000D02*
X185442491Y-76265000D01*
X185437491Y-76264000D01*
X185431491Y-76264000D01*
X185421491Y-76262000D01*
X185406491Y-76256000D01*
X185402491Y-76254000D01*
X185397491Y-76252000D01*
X185393491Y-76249000D01*
X185388491Y-76246000D01*
X185384491Y-76243000D01*
X185380491Y-76239000D01*
X185376491Y-76236000D01*
X185373491Y-76232000D01*
X185369491Y-76228000D01*
X185366491Y-76224000D01*
X185363491Y-76219000D01*
X185360491Y-76215000D01*
X185358491Y-76210000D01*
X185356491Y-76206000D01*
X185350491Y-76191000D01*
X185348491Y-76181000D01*
X185348491Y-76175000D01*
X185347491Y-76170000D01*
X185347491Y-75760000D01*
X185348491Y-75755000D01*
X185348491Y-75749000D01*
X185350491Y-75739000D01*
X185356491Y-75724000D01*
X185358491Y-75720000D01*
X185360491Y-75715000D01*
X185363491Y-75711000D01*
X185366491Y-75706000D01*
X185369491Y-75702000D01*
X185373491Y-75698000D01*
X185376491Y-75694000D01*
X185380491Y-75691000D01*
X185384491Y-75687000D01*
X185388491Y-75684000D01*
X185393491Y-75681000D01*
X185397491Y-75678000D01*
X185402491Y-75676000D01*
X185406491Y-75674000D01*
X185421491Y-75668000D01*
X185431491Y-75666000D01*
X185437491Y-75666000D01*
X185442491Y-75665000D01*
X186422491Y-75665000D01*
X186422491Y-76265000D01*
G36*
X184522491Y-74345000D02*
G01*
X184521491Y-74350000D01*
X184521491Y-74356000D01*
X184519491Y-74366000D01*
X184513491Y-74381000D01*
X184511491Y-74385000D01*
X184509491Y-74390000D01*
X184506491Y-74394000D01*
X184503491Y-74399000D01*
X184500491Y-74403000D01*
X184496491Y-74407000D01*
X184493491Y-74411000D01*
X184489491Y-74414000D01*
X184485491Y-74418000D01*
X184481491Y-74421000D01*
X184476491Y-74424000D01*
X184472491Y-74427000D01*
X184467491Y-74429000D01*
X184463491Y-74431000D01*
X184448491Y-74437000D01*
X184438491Y-74439000D01*
X184432491Y-74439000D01*
X184427491Y-74440000D01*
X184417491Y-74440000D01*
X184412491Y-74439000D01*
X184406491Y-74439000D01*
X184396491Y-74437000D01*
X184381491Y-74431000D01*
X184377491Y-74429000D01*
X184372491Y-74427000D01*
X184368491Y-74424000D01*
X184363491Y-74421000D01*
X184359491Y-74418000D01*
X184355491Y-74414000D01*
X184351491Y-74411000D01*
X184348491Y-74407000D01*
X184344491Y-74403000D01*
X184341491Y-74399000D01*
X184338491Y-74394000D01*
X184335491Y-74390000D01*
X184333491Y-74385000D01*
X184331491Y-74381000D01*
X184325491Y-74366000D01*
X184323491Y-74356000D01*
X184323491Y-74350000D01*
X184322491Y-74345000D01*
X184322491Y-73765000D01*
X184522491Y-73765000D01*
X184522491Y-74345000D01*
G37*
X184522491Y-74345000D02*
X184521491Y-74350000D01*
X184521491Y-74356000D01*
X184519491Y-74366000D01*
X184513491Y-74381000D01*
X184511491Y-74385000D01*
X184509491Y-74390000D01*
X184506491Y-74394000D01*
X184503491Y-74399000D01*
X184500491Y-74403000D01*
X184496491Y-74407000D01*
X184493491Y-74411000D01*
X184489491Y-74414000D01*
X184485491Y-74418000D01*
X184481491Y-74421000D01*
X184476491Y-74424000D01*
X184472491Y-74427000D01*
X184467491Y-74429000D01*
X184463491Y-74431000D01*
X184448491Y-74437000D01*
X184438491Y-74439000D01*
X184432491Y-74439000D01*
X184427491Y-74440000D01*
X184417491Y-74440000D01*
X184412491Y-74439000D01*
X184406491Y-74439000D01*
X184396491Y-74437000D01*
X184381491Y-74431000D01*
X184377491Y-74429000D01*
X184372491Y-74427000D01*
X184368491Y-74424000D01*
X184363491Y-74421000D01*
X184359491Y-74418000D01*
X184355491Y-74414000D01*
X184351491Y-74411000D01*
X184348491Y-74407000D01*
X184344491Y-74403000D01*
X184341491Y-74399000D01*
X184338491Y-74394000D01*
X184335491Y-74390000D01*
X184333491Y-74385000D01*
X184331491Y-74381000D01*
X184325491Y-74366000D01*
X184323491Y-74356000D01*
X184323491Y-74350000D01*
X184322491Y-74345000D01*
X184322491Y-73765000D01*
X184522491Y-73765000D01*
X184522491Y-74345000D01*
G36*
X184032491Y-75791000D02*
G01*
X184038491Y-75791000D01*
X184048491Y-75793000D01*
X184063491Y-75799000D01*
X184067491Y-75801000D01*
X184072491Y-75803000D01*
X184076491Y-75806000D01*
X184081491Y-75809000D01*
X184085491Y-75812000D01*
X184089491Y-75816000D01*
X184093491Y-75819000D01*
X184096491Y-75823000D01*
X184100491Y-75827000D01*
X184103491Y-75831000D01*
X184106491Y-75836000D01*
X184109491Y-75840000D01*
X184111491Y-75845000D01*
X184113491Y-75849000D01*
X184119491Y-75864000D01*
X184121491Y-75874000D01*
X184121491Y-75880000D01*
X184122491Y-75885000D01*
X184122491Y-77365000D01*
X183522491Y-77365000D01*
X183522491Y-76877000D01*
X183684491Y-76715000D01*
X183872491Y-76715000D01*
X183872491Y-75885000D01*
X183873491Y-75880000D01*
X183873491Y-75874000D01*
X183875491Y-75864000D01*
X183881491Y-75849000D01*
X183883491Y-75845000D01*
X183885491Y-75840000D01*
X183888491Y-75836000D01*
X183891491Y-75831000D01*
X183894491Y-75827000D01*
X183898491Y-75823000D01*
X183901491Y-75819000D01*
X183905491Y-75816000D01*
X183909491Y-75812000D01*
X183913491Y-75809000D01*
X183918491Y-75806000D01*
X183922491Y-75803000D01*
X183927491Y-75801000D01*
X183931491Y-75799000D01*
X183946491Y-75793000D01*
X183956491Y-75791000D01*
X183962491Y-75791000D01*
X183967491Y-75790000D01*
X184027491Y-75790000D01*
X184032491Y-75791000D01*
G37*
X184032491Y-75791000D02*
X184038491Y-75791000D01*
X184048491Y-75793000D01*
X184063491Y-75799000D01*
X184067491Y-75801000D01*
X184072491Y-75803000D01*
X184076491Y-75806000D01*
X184081491Y-75809000D01*
X184085491Y-75812000D01*
X184089491Y-75816000D01*
X184093491Y-75819000D01*
X184096491Y-75823000D01*
X184100491Y-75827000D01*
X184103491Y-75831000D01*
X184106491Y-75836000D01*
X184109491Y-75840000D01*
X184111491Y-75845000D01*
X184113491Y-75849000D01*
X184119491Y-75864000D01*
X184121491Y-75874000D01*
X184121491Y-75880000D01*
X184122491Y-75885000D01*
X184122491Y-77365000D01*
X183522491Y-77365000D01*
X183522491Y-76877000D01*
X183684491Y-76715000D01*
X183872491Y-76715000D01*
X183872491Y-75885000D01*
X183873491Y-75880000D01*
X183873491Y-75874000D01*
X183875491Y-75864000D01*
X183881491Y-75849000D01*
X183883491Y-75845000D01*
X183885491Y-75840000D01*
X183888491Y-75836000D01*
X183891491Y-75831000D01*
X183894491Y-75827000D01*
X183898491Y-75823000D01*
X183901491Y-75819000D01*
X183905491Y-75816000D01*
X183909491Y-75812000D01*
X183913491Y-75809000D01*
X183918491Y-75806000D01*
X183922491Y-75803000D01*
X183927491Y-75801000D01*
X183931491Y-75799000D01*
X183946491Y-75793000D01*
X183956491Y-75791000D01*
X183962491Y-75791000D01*
X183967491Y-75790000D01*
X184027491Y-75790000D01*
X184032491Y-75791000D01*
G36*
X186422491Y-76665000D02*
G01*
X185972491Y-76665000D01*
X185722491Y-76915000D01*
X185722491Y-77365000D01*
X185522491Y-77365000D01*
X185522491Y-76560000D01*
X185523491Y-76555000D01*
X185523491Y-76549000D01*
X185525491Y-76539000D01*
X185531491Y-76524000D01*
X185533491Y-76520000D01*
X185535491Y-76515000D01*
X185538491Y-76511000D01*
X185541491Y-76506000D01*
X185544491Y-76502000D01*
X185548491Y-76498000D01*
X185551491Y-76494000D01*
X185555491Y-76491000D01*
X185559491Y-76487000D01*
X185563491Y-76484000D01*
X185568491Y-76481000D01*
X185572491Y-76478000D01*
X185577491Y-76476000D01*
X185581491Y-76474000D01*
X185596491Y-76468000D01*
X185606491Y-76466000D01*
X185612491Y-76466000D01*
X185617491Y-76465000D01*
X186422491Y-76465000D01*
X186422491Y-76665000D01*
G37*
X186422491Y-76665000D02*
X185972491Y-76665000D01*
X185722491Y-76915000D01*
X185722491Y-77365000D01*
X185522491Y-77365000D01*
X185522491Y-76560000D01*
X185523491Y-76555000D01*
X185523491Y-76549000D01*
X185525491Y-76539000D01*
X185531491Y-76524000D01*
X185533491Y-76520000D01*
X185535491Y-76515000D01*
X185538491Y-76511000D01*
X185541491Y-76506000D01*
X185544491Y-76502000D01*
X185548491Y-76498000D01*
X185551491Y-76494000D01*
X185555491Y-76491000D01*
X185559491Y-76487000D01*
X185563491Y-76484000D01*
X185568491Y-76481000D01*
X185572491Y-76478000D01*
X185577491Y-76476000D01*
X185581491Y-76474000D01*
X185596491Y-76468000D01*
X185606491Y-76466000D01*
X185612491Y-76466000D01*
X185617491Y-76465000D01*
X186422491Y-76465000D01*
X186422491Y-76665000D01*
%TD*%
D11*
%TO.C,D1*%
X163694000Y-137033000D03*
X165744000Y-137033000D03*
%TD*%
D12*
%TO.C,R22*%
X130175000Y-101600000D03*
X130175000Y-99600000D03*
%TD*%
D13*
%TO.C,SW9*%
X170600008Y-118169928D03*
X176600008Y-118169928D03*
X170600008Y-121869928D03*
X176600008Y-121869928D03*
D14*
X173600008Y-117519928D03*
X173600008Y-122519928D03*
%TD*%
D15*
%TO.C,R1*%
X161385000Y-137033000D03*
X159385000Y-137033000D03*
%TD*%
D16*
%TO.C,C4*%
X192172500Y-76200000D03*
X190097500Y-76200000D03*
%TD*%
D12*
%TO.C,R48*%
X199390000Y-65135000D03*
X199390000Y-63135000D03*
%TD*%
D17*
%TO.C,L1*%
X191135000Y-78847500D03*
X191135000Y-81172500D03*
%TD*%
D18*
%TO.C,C19*%
X109855000Y-121517500D03*
X109855000Y-123592500D03*
%TD*%
D12*
%TO.C,R4*%
X189865000Y-133470000D03*
X189865000Y-131470000D03*
%TD*%
D19*
%TO.C,R12*%
X167275000Y-92710000D03*
X169275000Y-92710000D03*
%TD*%
%TO.C,R34*%
X179975000Y-102870000D03*
X181975000Y-102870000D03*
%TD*%
D20*
%TO.C,C3*%
X187960000Y-73427500D03*
X187960000Y-71352500D03*
%TD*%
D21*
%TO.C,C22*%
X158982500Y-113665000D03*
X161057500Y-113665000D03*
%TD*%
D18*
%TO.C,C20*%
X176530000Y-124692500D03*
X176530000Y-126767500D03*
%TD*%
D19*
%TO.C,R16*%
X145304000Y-114935000D03*
X147304000Y-114935000D03*
%TD*%
D15*
%TO.C,R31*%
X161020000Y-117475000D03*
X159020000Y-117475000D03*
%TD*%
D13*
%TO.C,SW3*%
X184600006Y-91419994D03*
X190600006Y-91419994D03*
X184600006Y-95119994D03*
X190600006Y-95119994D03*
D14*
X187600006Y-90769994D03*
X187600006Y-95769994D03*
%TD*%
D19*
%TO.C,R35*%
X179975000Y-106680000D03*
X181975000Y-106680000D03*
%TD*%
D22*
%TO.C,L2*%
X180486500Y-89535000D03*
X178161500Y-89535000D03*
%TD*%
D20*
%TO.C,C17*%
X195580000Y-88667500D03*
X195580000Y-86592500D03*
%TD*%
D18*
%TO.C,C23*%
X182245000Y-122152500D03*
X182245000Y-124227500D03*
%TD*%
%TO.C,C25*%
X189865000Y-114532500D03*
X189865000Y-116607500D03*
%TD*%
D12*
%TO.C,R28*%
X135890000Y-118475000D03*
X135890000Y-116475000D03*
%TD*%
D15*
%TO.C,R30*%
X161020000Y-109855000D03*
X159020000Y-109855000D03*
%TD*%
D16*
%TO.C,C15*%
X147341500Y-118744999D03*
X145266500Y-118744999D03*
%TD*%
D12*
%TO.C,R33*%
X179705000Y-124190000D03*
X179705000Y-122190000D03*
%TD*%
D13*
%TO.C,SW1*%
X119199996Y-116120003D03*
X113199996Y-116120003D03*
X119199996Y-112420003D03*
X113199996Y-112420003D03*
D14*
X116199996Y-116770003D03*
X116199996Y-111770003D03*
%TD*%
D23*
%TO.C,SW8*%
X164249998Y-115519917D03*
X164249998Y-109519917D03*
X167949998Y-115519917D03*
X167949998Y-109519917D03*
D24*
X163599998Y-112519917D03*
X168599998Y-112519917D03*
%TD*%
D13*
%TO.C,SW7*%
X127799992Y-112420003D03*
X133799992Y-112420003D03*
X127799992Y-116120003D03*
X133799992Y-116120003D03*
D14*
X130799992Y-111770003D03*
X130799992Y-116770003D03*
%TD*%
D25*
%TO.C,R32*%
X179705000Y-118380000D03*
X179705000Y-120380000D03*
%TD*%
D26*
%TO.C,SW13*%
X196745000Y-58707993D03*
X193145000Y-58707993D03*
X196745000Y-57257993D03*
X193145000Y-57257993D03*
%TD*%
D16*
%TO.C,C18*%
X122957500Y-99695000D03*
X120882500Y-99695000D03*
%TD*%
D27*
%TO.C,D2*%
X186055000Y-135915000D03*
X186055000Y-137965000D03*
%TD*%
D12*
%TO.C,R24*%
X170180000Y-126730000D03*
X170180000Y-124730000D03*
%TD*%
D28*
%TO.C,C2*%
X173990000Y-76427500D03*
X173990000Y-74702500D03*
%TD*%
D25*
%TO.C,R19*%
X198120000Y-93980000D03*
X198120000Y-95980000D03*
%TD*%
D18*
%TO.C,C21*%
X139700000Y-116437500D03*
X139700000Y-118512500D03*
%TD*%
D25*
%TO.C,R26*%
X135890000Y-112665000D03*
X135890000Y-114665000D03*
%TD*%
D19*
%TO.C,R18*%
X193310000Y-91440000D03*
X195310000Y-91440000D03*
%TD*%
D21*
%TO.C,C16*%
X193272500Y-93980000D03*
X195347500Y-93980000D03*
%TD*%
%TO.C,C24*%
X185017500Y-106680000D03*
X187092500Y-106680000D03*
%TD*%
D12*
%TO.C,R14*%
X147320001Y-122919999D03*
X147320001Y-120919999D03*
%TD*%
D20*
%TO.C,C5*%
X191135000Y-71522500D03*
X191135000Y-69447500D03*
%TD*%
D29*
%TO.C,R6*%
X178907500Y-76557500D03*
X178907500Y-78382500D03*
%TD*%
D12*
%TO.C,R17*%
X191770000Y-88630000D03*
X191770000Y-86630000D03*
%TD*%
%TO.C,R37*%
X187325000Y-116570000D03*
X187325000Y-114570000D03*
%TD*%
%TO.C,R20*%
X126365000Y-101600000D03*
X126365000Y-99600000D03*
%TD*%
D27*
%TO.C,D3*%
X189865000Y-135890000D03*
X189865000Y-137940000D03*
%TD*%
D25*
%TO.C,R36*%
X187325000Y-110760000D03*
X187325000Y-112760000D03*
%TD*%
D12*
%TO.C,R21*%
X116840000Y-123555000D03*
X116840000Y-121555000D03*
%TD*%
D20*
%TO.C,C7*%
X194945000Y-71522500D03*
X194945000Y-69447500D03*
%TD*%
D29*
%TO.C,R7*%
X176367500Y-76557500D03*
X176367500Y-78382500D03*
%TD*%
D13*
%TO.C,SW4*%
X120500007Y-105119992D03*
X126500007Y-105119992D03*
X120500007Y-108819992D03*
X126500007Y-108819992D03*
D14*
X123500007Y-104469992D03*
X123500007Y-109469992D03*
%TD*%
D30*
%TO.C,U4*%
X174350001Y-93584999D03*
X174350001Y-92935000D03*
D31*
X174099999Y-92053899D03*
X173450000Y-92053899D03*
X172800001Y-92053899D03*
D30*
X172549999Y-92935000D03*
X172549999Y-93584999D03*
D32*
X173450000Y-93765001D03*
%TD*%
D33*
%TO.C,U6*%
X121607500Y-136865000D03*
X121607500Y-136215000D03*
X121607500Y-135565000D03*
X121607500Y-134915000D03*
X115882500Y-134915000D03*
X115882500Y-135565000D03*
X115882500Y-136215000D03*
X115882500Y-136865000D03*
%TD*%
D12*
%TO.C,R25*%
X172720000Y-126730000D03*
X172720000Y-124730000D03*
%TD*%
D21*
%TO.C,C12*%
X169777500Y-88900000D03*
X171852500Y-88900000D03*
%TD*%
D13*
%TO.C,SW2*%
X153100005Y-130619923D03*
X147100005Y-130619923D03*
X153100005Y-126919923D03*
X147100005Y-126919923D03*
D14*
X150100005Y-131269923D03*
X150100005Y-126269923D03*
%TD*%
D34*
%TO.C,C8*%
X185827500Y-86995000D03*
X187552500Y-86995000D03*
%TD*%
D21*
%TO.C,C11*%
X184382500Y-83820000D03*
X186457500Y-83820000D03*
%TD*%
%TO.C,C9*%
X184382500Y-81280000D03*
X186457500Y-81280000D03*
%TD*%
D15*
%TO.C,R11*%
X174736000Y-96520000D03*
X172736000Y-96520000D03*
%TD*%
D12*
%TO.C,R23*%
X113665000Y-123555000D03*
X113665000Y-121555000D03*
%TD*%
%TO.C,R5*%
X186055000Y-133495000D03*
X186055000Y-131495000D03*
%TD*%
D13*
%TO.C,SW11*%
X178099993Y-110669917D03*
X184099993Y-110669917D03*
X178099993Y-114369917D03*
X184099993Y-114369917D03*
D14*
X181099993Y-110019917D03*
X181099993Y-115019917D03*
%TD*%
D16*
%TO.C,C6*%
X183120000Y-78740000D03*
X181045000Y-78740000D03*
%TD*%
D18*
%TO.C,C32*%
X196215000Y-63097500D03*
X196215000Y-65172500D03*
%TD*%
D13*
%TO.C,SW5*%
X126500007Y-123319988D03*
X120500007Y-123319988D03*
X126500007Y-119619988D03*
X120500007Y-119619988D03*
D14*
X123500007Y-123969988D03*
X123500007Y-118969988D03*
%TD*%
D13*
%TO.C,SW6*%
X159600005Y-126919923D03*
X165600005Y-126919923D03*
X159600005Y-130619923D03*
X165600005Y-130619923D03*
D14*
X162600005Y-126269923D03*
X162600005Y-131269923D03*
%TD*%
D13*
%TO.C,SW10*%
X170600008Y-103169907D03*
X176600008Y-103169907D03*
X170600008Y-106869907D03*
X176600008Y-106869907D03*
D14*
X173600008Y-102519907D03*
X173600008Y-107519907D03*
%TD*%
D21*
%TO.C,C13*%
X169777500Y-86360000D03*
X171852500Y-86360000D03*
%TD*%
D25*
%TO.C,R44*%
X199390000Y-59325000D03*
X199390000Y-61325000D03*
%TD*%
M02*
