%TF.GenerationSoftware,KiCad,Pcbnew,(6.0.0)*%
%TF.CreationDate,2022-06-01T15:47:08+01:00*%
%TF.ProjectId,CM4Carrier,434d3443-6172-4726-9965-722e6b696361,Rev1-Untested*%
%TF.SameCoordinates,Original*%
%TF.FileFunction,Soldermask,Bot*%
%TF.FilePolarity,Negative*%
%FSLAX46Y46*%
G04 Gerber Fmt 4.6, Leading zero omitted, Abs format (unit mm)*
G04 Created by KiCad (PCBNEW (6.0.0)) date 2022-06-01 15:47:08*
%MOMM*%
%LPD*%
G01*
G04 APERTURE LIST*
G04 Aperture macros list*
%AMRoundRect*
0 Rectangle with rounded corners*
0 $1 Rounding radius*
0 $2 $3 $4 $5 $6 $7 $8 $9 X,Y pos of 4 corners*
0 Add a 4 corners polygon primitive as box body*
4,1,4,$2,$3,$4,$5,$6,$7,$8,$9,$2,$3,0*
0 Add four circle primitives for the rounded corners*
1,1,$1+$1,$2,$3*
1,1,$1+$1,$4,$5*
1,1,$1+$1,$6,$7*
1,1,$1+$1,$8,$9*
0 Add four rect primitives between the rounded corners*
20,1,$1+$1,$2,$3,$4,$5,0*
20,1,$1+$1,$4,$5,$6,$7,0*
20,1,$1+$1,$6,$7,$8,$9,0*
20,1,$1+$1,$8,$9,$2,$3,0*%
G04 Aperture macros list end*
%ADD10C,2.700000*%
%ADD11R,1.000000X1.000000*%
%ADD12RoundRect,0.250000X-0.550000X0.550000X-0.550000X-0.550000X0.550000X-0.550000X0.550000X0.550000X0*%
%ADD13C,1.600000*%
%ADD14RoundRect,0.250000X0.550000X0.550000X-0.550000X0.550000X-0.550000X-0.550000X0.550000X-0.550000X0*%
%ADD15RoundRect,0.250001X0.899999X0.899999X-0.899999X0.899999X-0.899999X-0.899999X0.899999X-0.899999X0*%
%ADD16C,2.300000*%
%ADD17R,1.000000X0.700000*%
%ADD18R,0.700000X0.600000*%
%ADD19C,1.700000*%
%ADD20R,2.800000X2.200000*%
%ADD21R,2.800000X2.800000*%
%ADD22R,2.800000X2.600000*%
%ADD23RoundRect,0.250000X0.475000X-0.337500X0.475000X0.337500X-0.475000X0.337500X-0.475000X-0.337500X0*%
%ADD24RoundRect,0.250000X-0.450000X0.350000X-0.450000X-0.350000X0.450000X-0.350000X0.450000X0.350000X0*%
%ADD25R,0.400000X0.650000*%
%ADD26RoundRect,0.250000X-0.475000X0.337500X-0.475000X-0.337500X0.475000X-0.337500X0.475000X0.337500X0*%
%ADD27RoundRect,0.100000X0.100000X-0.712500X0.100000X0.712500X-0.100000X0.712500X-0.100000X-0.712500X0*%
%ADD28RoundRect,0.237500X0.250000X0.237500X-0.250000X0.237500X-0.250000X-0.237500X0.250000X-0.237500X0*%
%ADD29RoundRect,0.250000X-0.337500X-0.475000X0.337500X-0.475000X0.337500X0.475000X-0.337500X0.475000X0*%
%ADD30RoundRect,0.250000X0.350000X0.450000X-0.350000X0.450000X-0.350000X-0.450000X0.350000X-0.450000X0*%
%ADD31RoundRect,0.250001X-0.462499X-1.074999X0.462499X-1.074999X0.462499X1.074999X-0.462499X1.074999X0*%
%ADD32RoundRect,0.150000X-0.150000X0.825000X-0.150000X-0.825000X0.150000X-0.825000X0.150000X0.825000X0*%
%ADD33RoundRect,0.250000X0.450000X-0.350000X0.450000X0.350000X-0.450000X0.350000X-0.450000X-0.350000X0*%
%ADD34C,6.100000*%
%ADD35R,0.200000X0.700000*%
%ADD36R,0.610000X2.000000*%
%ADD37R,2.680000X3.600000*%
%ADD38RoundRect,0.250000X0.325000X0.450000X-0.325000X0.450000X-0.325000X-0.450000X0.325000X-0.450000X0*%
%ADD39RoundRect,0.250000X-0.350000X-0.450000X0.350000X-0.450000X0.350000X0.450000X-0.350000X0.450000X0*%
%ADD40RoundRect,0.250000X0.750000X-0.600000X0.750000X0.600000X-0.750000X0.600000X-0.750000X-0.600000X0*%
%ADD41O,2.000000X1.700000*%
%ADD42RoundRect,0.050000X0.337500X0.050000X-0.337500X0.050000X-0.337500X-0.050000X0.337500X-0.050000X0*%
%ADD43R,1.780000X2.350000*%
%ADD44C,0.650000*%
%ADD45R,1.150000X0.600000*%
%ADD46R,1.150000X0.300000*%
%ADD47R,2.000000X2.180000*%
%ADD48R,1.428000X1.428000*%
%ADD49C,1.428000*%
%ADD50O,1.108000X2.216000*%
%ADD51R,0.800000X1.200000*%
%ADD52R,1.500000X2.000000*%
%ADD53RoundRect,0.237500X0.237500X-0.250000X0.237500X0.250000X-0.237500X0.250000X-0.237500X-0.250000X0*%
%ADD54RoundRect,0.237500X0.237500X-0.300000X0.237500X0.300000X-0.237500X0.300000X-0.237500X-0.300000X0*%
G04 APERTURE END LIST*
D10*
%TO.C,REF\u002A\u002A*%
X200297000Y-136462000D03*
%TD*%
D11*
%TO.C,TP26*%
X190500000Y-63500000D03*
%TD*%
%TO.C,TP5*%
X166740000Y-88900000D03*
%TD*%
%TO.C,TP7*%
X147320000Y-110490000D03*
%TD*%
%TO.C,TP18*%
X156210000Y-109855000D03*
%TD*%
%TO.C,TP2*%
X166878000Y-134874000D03*
%TD*%
%TO.C,TP10*%
X162560000Y-121285000D03*
%TD*%
%TO.C,TP23*%
X189865000Y-108585000D03*
%TD*%
D12*
%TO.C,J2*%
X110490000Y-127949999D03*
D13*
X110490000Y-131549999D03*
X110490000Y-135149999D03*
X110490000Y-138749999D03*
%TD*%
D10*
%TO.C,REF\u002A\u002A*%
X185400000Y-63470000D03*
%TD*%
D11*
%TO.C,TP6*%
X109855000Y-110490000D03*
%TD*%
%TO.C,TP9*%
X109855000Y-118110000D03*
%TD*%
%TO.C,TP27*%
X122174000Y-113792000D03*
%TD*%
%TO.C,TP4*%
X169275000Y-94742000D03*
%TD*%
D10*
%TO.C,REF\u002A\u002A*%
X200297000Y-88464000D03*
%TD*%
D11*
%TO.C,TP1*%
X147955000Y-66675000D03*
%TD*%
%TO.C,TP19*%
X183515000Y-119380000D03*
%TD*%
D14*
%TO.C,J8*%
X135680000Y-138430000D03*
D13*
X132080000Y-138430000D03*
X128480000Y-138430000D03*
X124880000Y-138430000D03*
%TD*%
D15*
%TO.C,J7*%
X144500000Y-62230000D03*
D16*
X139700000Y-62230000D03*
X134900000Y-62230000D03*
%TD*%
D11*
%TO.C,TP3*%
X167386000Y-97790000D03*
%TD*%
%TO.C,TP8*%
X130175000Y-97155000D03*
%TD*%
%TO.C,TP24*%
X147828000Y-61468000D03*
%TD*%
%TO.C,TP11*%
X139700000Y-113030000D03*
%TD*%
%TO.C,TP22*%
X184785000Y-102870000D03*
%TD*%
%TO.C,TP14*%
X201930000Y-119380000D03*
%TD*%
D17*
%TO.C,SW14*%
X126349995Y-119119913D03*
X120349995Y-119119913D03*
X126349995Y-122819913D03*
X120349995Y-122819913D03*
D18*
X123349995Y-118469913D03*
X123349995Y-123469913D03*
%TD*%
D19*
%TO.C,J6*%
X140335000Y-133310000D03*
X140335000Y-126310000D03*
D20*
X144035000Y-132410000D03*
X136635000Y-134410000D03*
D21*
X136635000Y-125010000D03*
D22*
X141085000Y-121010000D03*
%TD*%
D11*
%TO.C,TP12*%
X195580000Y-119380000D03*
%TD*%
%TO.C,TP13*%
X195580000Y-126365000D03*
%TD*%
D23*
%TO.C,C14*%
X113030000Y-114067500D03*
X113030000Y-111992500D03*
%TD*%
D24*
%TO.C,R15*%
X116840000Y-112030000D03*
X116840000Y-114030000D03*
%TD*%
%TO.C,R2*%
X168148000Y-101616000D03*
X168148000Y-103616000D03*
%TD*%
D25*
%TO.C,D4*%
X129555011Y-133044997D03*
X128905000Y-133045000D03*
X128255000Y-133045000D03*
X128255000Y-131145000D03*
X128905000Y-131145000D03*
X129555000Y-131145000D03*
%TD*%
D26*
%TO.C,C34*%
X151892000Y-120882500D03*
X151892000Y-122957500D03*
%TD*%
D27*
%TO.C,U1*%
X188300000Y-107522500D03*
X187650000Y-107522500D03*
X187000007Y-107522493D03*
X186350000Y-107522500D03*
X186350000Y-103297500D03*
X187000000Y-103297500D03*
X187650000Y-103297500D03*
X188300000Y-103297500D03*
%TD*%
D28*
%TO.C,R10*%
X169187500Y-62865000D03*
X167362500Y-62865000D03*
%TD*%
D29*
%TO.C,C26*%
X133985000Y-65405000D03*
X136060000Y-65405000D03*
%TD*%
D26*
%TO.C,C29*%
X125095000Y-134217500D03*
X125095000Y-136292500D03*
%TD*%
D23*
%TO.C,C1*%
X188595000Y-100330000D03*
X188595000Y-98255000D03*
%TD*%
D30*
%TO.C,R46*%
X153908000Y-118872000D03*
X151908000Y-118872000D03*
%TD*%
%TO.C,R38*%
X194040000Y-65405000D03*
X192040000Y-65405000D03*
%TD*%
D26*
%TO.C,C33*%
X110744000Y-119866500D03*
X110744000Y-121941500D03*
%TD*%
D24*
%TO.C,R3*%
X187960000Y-110395000D03*
X187960000Y-112395000D03*
%TD*%
D11*
%TO.C,TP15*%
X201930000Y-126365000D03*
%TD*%
D23*
%TO.C,C30*%
X125095000Y-130577500D03*
X125095000Y-128502500D03*
%TD*%
D31*
%TO.C,F1*%
X183297500Y-127000000D03*
X186272500Y-127000000D03*
%TD*%
D24*
%TO.C,R39*%
X118110000Y-133890000D03*
X118110000Y-135890000D03*
%TD*%
D32*
%TO.C,U5*%
X191643000Y-103824000D03*
X192913000Y-103824000D03*
X194183000Y-103824000D03*
X195453000Y-103824000D03*
X196723000Y-103824000D03*
X197993000Y-103824000D03*
X199263000Y-103824000D03*
X199263000Y-108774000D03*
X197993000Y-108774000D03*
X196723000Y-108774000D03*
X195453000Y-108774000D03*
X194183000Y-108774000D03*
X192913000Y-108774000D03*
X191643000Y-108774000D03*
%TD*%
D33*
%TO.C,R50*%
X149352000Y-122920000D03*
X149352000Y-120920000D03*
%TD*%
D24*
%TO.C,R45*%
X117856000Y-119904000D03*
X117856000Y-121904000D03*
%TD*%
D11*
%TO.C,TP16*%
X195580000Y-112014000D03*
%TD*%
D34*
%TO.C,Module1*%
X112525000Y-71765000D03*
X160525000Y-104765000D03*
X160525000Y-71765000D03*
X112525000Y-104765000D03*
D35*
X129225000Y-69765000D03*
X129225000Y-72845000D03*
X129625000Y-69765000D03*
X129625000Y-72845000D03*
X130025000Y-69765000D03*
X130025000Y-72845000D03*
X130425000Y-69765000D03*
X130425000Y-72845000D03*
X130825000Y-69765000D03*
X130825000Y-72845000D03*
X131225000Y-69765000D03*
X131225000Y-72845000D03*
X131625000Y-69765000D03*
X131625000Y-72845000D03*
X132025000Y-69765000D03*
X132025000Y-72845000D03*
X132425000Y-69765000D03*
X132425000Y-72845000D03*
X132825000Y-69765000D03*
X132825000Y-72845000D03*
X133225000Y-69765000D03*
X133225000Y-72845000D03*
X133625000Y-69765000D03*
X133625000Y-72845000D03*
X134025000Y-69765000D03*
X134025000Y-72845000D03*
X134425000Y-69765000D03*
X134425000Y-72845000D03*
X134825000Y-69765000D03*
X134825000Y-72845000D03*
X135225000Y-69765000D03*
X135225000Y-72845000D03*
X135625000Y-69765000D03*
X135625000Y-72845000D03*
X136025000Y-69765000D03*
X136025000Y-72845000D03*
X136425000Y-69765000D03*
X136425000Y-72845000D03*
X136825000Y-69765000D03*
X136825000Y-72845000D03*
X137225000Y-69765000D03*
X137225000Y-72845000D03*
X137625000Y-69765000D03*
X137625000Y-72845000D03*
X138025000Y-69765000D03*
X138025000Y-72845000D03*
X138425000Y-69765000D03*
X138425000Y-72845000D03*
X138825000Y-69765000D03*
X138825000Y-72845000D03*
X139225000Y-69765000D03*
X139225000Y-72845000D03*
X139625000Y-69765000D03*
X139625000Y-72845000D03*
X140025000Y-69765000D03*
X140025000Y-72845000D03*
X140425000Y-69765000D03*
X140425000Y-72845000D03*
X140825000Y-69765000D03*
X140825000Y-72845000D03*
X141225000Y-69765000D03*
X141225000Y-72845000D03*
X141625000Y-69765000D03*
X141625000Y-72845000D03*
X142025000Y-69765000D03*
X142025000Y-72845000D03*
X142425000Y-69765000D03*
X142425000Y-72845000D03*
X142825000Y-69765000D03*
X142825000Y-72845000D03*
X143225000Y-69765000D03*
X143225000Y-72845000D03*
X143625000Y-69765000D03*
X143625000Y-72845000D03*
X144025000Y-69765000D03*
X144025000Y-72845000D03*
X144425000Y-69765000D03*
X144425000Y-72845000D03*
X144825000Y-69765000D03*
X144825000Y-72845000D03*
X145225000Y-69765000D03*
X145225000Y-72845000D03*
X145625000Y-69765000D03*
X145625000Y-72845000D03*
X146025000Y-69765000D03*
X146025000Y-72845000D03*
X146425000Y-69765000D03*
X146425000Y-72845000D03*
X146825000Y-69765000D03*
X146825000Y-72845000D03*
X147225000Y-69765000D03*
X147225000Y-72845000D03*
X147625000Y-69765000D03*
X147625000Y-72845000D03*
X148025000Y-69765000D03*
X148025000Y-72845000D03*
X148425000Y-69765000D03*
X148425000Y-72845000D03*
X148825000Y-69765000D03*
X148825000Y-72845000D03*
X129225000Y-103685000D03*
X129225000Y-106765000D03*
X129625000Y-103685000D03*
X129625000Y-106765000D03*
X130025000Y-103685000D03*
X130025000Y-106765000D03*
X130425000Y-103685000D03*
X130425000Y-106765000D03*
X130825000Y-103685000D03*
X130825000Y-106765000D03*
X131225000Y-103685000D03*
X131225000Y-106765000D03*
X131625000Y-103685000D03*
X131625000Y-106765000D03*
X132025000Y-103685000D03*
X132025000Y-106765000D03*
X132425000Y-103685000D03*
X132425000Y-106765000D03*
X132825000Y-103685000D03*
X132825000Y-106765000D03*
X133225000Y-103685000D03*
X133225000Y-106765000D03*
X133625000Y-103685000D03*
X133625000Y-106765000D03*
X134025000Y-103685000D03*
X134025000Y-106765000D03*
X134425000Y-103685000D03*
X134425000Y-106765000D03*
X134825000Y-103685000D03*
X134825000Y-106765000D03*
X135225000Y-103685000D03*
X135225000Y-106765000D03*
X135625000Y-103685000D03*
X135625000Y-106765000D03*
X136025000Y-103685000D03*
X136025000Y-106765000D03*
X136425000Y-103685000D03*
X136425000Y-106765000D03*
X136825000Y-103685000D03*
X136825000Y-106765000D03*
X137225000Y-103685000D03*
X137225000Y-106765000D03*
X137625000Y-103685000D03*
X137625000Y-106765000D03*
X138025000Y-103685000D03*
X138025000Y-106765000D03*
X138425000Y-103685000D03*
X138425000Y-106765000D03*
X138825000Y-103685000D03*
X138825000Y-106765000D03*
X139225000Y-103685000D03*
X139225000Y-106765000D03*
X139625000Y-103685000D03*
X139625000Y-106765000D03*
X140025000Y-103685000D03*
X140025000Y-106765000D03*
X140425000Y-103685000D03*
X140425000Y-106765000D03*
X140825000Y-103685000D03*
X140825000Y-106765000D03*
X141225000Y-103685000D03*
X141225000Y-106765000D03*
X141625000Y-103685000D03*
X141625000Y-106765000D03*
X142025000Y-103685000D03*
X142025000Y-106765000D03*
X142425000Y-103685000D03*
X142425000Y-106765000D03*
X142825000Y-103685000D03*
X142825000Y-106765000D03*
X143225000Y-103685000D03*
X143225000Y-106765000D03*
X143625000Y-103685000D03*
X143625000Y-106765000D03*
X144025000Y-103685000D03*
X144025000Y-106765000D03*
X144425000Y-103685000D03*
X144425000Y-106765000D03*
X144825000Y-103685000D03*
X144825000Y-106765000D03*
X145225000Y-103685000D03*
X145225000Y-106765000D03*
X145625000Y-103685000D03*
X145625000Y-106765000D03*
X146025000Y-103685000D03*
X146025000Y-106765000D03*
X146425000Y-103685000D03*
X146425000Y-106765000D03*
X146825000Y-103685000D03*
X146825000Y-106765000D03*
X147225000Y-103685000D03*
X147225000Y-106765000D03*
X147625000Y-103685000D03*
X147625000Y-106765000D03*
X148025000Y-103685000D03*
X148025000Y-106765000D03*
X148425000Y-103685000D03*
X148425000Y-106765000D03*
X148825000Y-103685000D03*
X148825000Y-106765000D03*
%TD*%
D36*
%TO.C,J5*%
X113650000Y-65245000D03*
X114650000Y-65245000D03*
X115650000Y-65245000D03*
X116650000Y-65245000D03*
X117650000Y-65245000D03*
X118650000Y-65245000D03*
X119650000Y-65245000D03*
X120650000Y-65245000D03*
X121650000Y-65245000D03*
X122650000Y-65245000D03*
X123650000Y-65245000D03*
X124650000Y-65245000D03*
X125650000Y-65245000D03*
X126650000Y-65245000D03*
X127650000Y-65245000D03*
D37*
X110660000Y-62445000D03*
X130640000Y-62445000D03*
%TD*%
D24*
%TO.C,R40*%
X115570000Y-130212500D03*
X115570000Y-132212500D03*
%TD*%
D30*
%TO.C,R42*%
X122920000Y-130577499D03*
X120920000Y-130577499D03*
%TD*%
D33*
%TO.C,R49*%
X114300000Y-121904000D03*
X114300000Y-119904000D03*
%TD*%
D11*
%TO.C,TP28*%
X149352000Y-118872000D03*
%TD*%
D38*
%TO.C,F2*%
X191525000Y-71247000D03*
X189475000Y-71247000D03*
%TD*%
D39*
%TO.C,TH1*%
X181880000Y-59944000D03*
X183880000Y-59944000D03*
%TD*%
D26*
%TO.C,C27*%
X120649999Y-136122500D03*
X120649999Y-138197500D03*
%TD*%
D17*
%TO.C,SW15*%
X162349999Y-119119913D03*
X156349999Y-119119913D03*
X162349999Y-122819913D03*
X156349999Y-122819913D03*
D18*
X159349999Y-118469913D03*
X159349999Y-123469913D03*
%TD*%
D33*
%TO.C,R13*%
X109855000Y-115935000D03*
X109855000Y-113935000D03*
%TD*%
D40*
%TO.C,BT1*%
X163470000Y-64115000D03*
D41*
X163470000Y-61615000D03*
%TD*%
D42*
%TO.C,U3*%
X179922500Y-61030000D03*
X179922500Y-61430000D03*
X179922500Y-61830000D03*
X179922500Y-62230000D03*
X179922500Y-62630000D03*
X179922500Y-63030000D03*
X179922500Y-63430000D03*
X176947500Y-63430000D03*
X176947500Y-63030000D03*
X176947500Y-62630000D03*
X176947500Y-62230000D03*
X176947500Y-61830000D03*
X176947500Y-61430000D03*
X176947500Y-61030000D03*
D43*
X178435000Y-62230000D03*
%TD*%
D44*
%TO.C,J4*%
X197327500Y-76550000D03*
X197327500Y-70770000D03*
D45*
X196252500Y-70460000D03*
X196252500Y-71260000D03*
D46*
X196252500Y-72410000D03*
X196252500Y-73410000D03*
X196252500Y-73910000D03*
X196252500Y-74910000D03*
D45*
X196252500Y-76860000D03*
X196252500Y-76060000D03*
D46*
X196252500Y-75410000D03*
X196252500Y-74410000D03*
X196252500Y-72910000D03*
X196252500Y-71910000D03*
D47*
X196827500Y-68550000D03*
X196827500Y-78770000D03*
X200757500Y-68550000D03*
X200757500Y-78770000D03*
%TD*%
D30*
%TO.C,R41*%
X122920000Y-133984999D03*
X120920000Y-133984999D03*
%TD*%
D48*
%TO.C,J3*%
X178450000Y-129822500D03*
D49*
X175950000Y-129822500D03*
X173950000Y-129822500D03*
X171450000Y-129822500D03*
D50*
X181350000Y-131022500D03*
X168550000Y-131022500D03*
%TD*%
D23*
%TO.C,C28*%
X118745000Y-130344999D03*
X118745000Y-128269999D03*
%TD*%
D30*
%TO.C,R8*%
X183880000Y-67310000D03*
X181880000Y-67310000D03*
%TD*%
D51*
%TO.C,J1*%
X179755000Y-101515000D03*
X178655000Y-101515000D03*
X177555000Y-101515000D03*
X176455000Y-101515000D03*
X175355000Y-101515000D03*
X174255000Y-101515000D03*
X173155000Y-101515000D03*
X172055000Y-101515000D03*
D52*
X169585000Y-99315000D03*
X169585000Y-107515000D03*
X183475000Y-107515000D03*
X183475000Y-99315000D03*
%TD*%
D53*
%TO.C,R9*%
X172085000Y-64412500D03*
X172085000Y-62587500D03*
%TD*%
D54*
%TO.C,C10*%
X173990000Y-61822500D03*
X173990000Y-60097500D03*
%TD*%
D11*
%TO.C,TP17*%
X201930000Y-112014001D03*
%TD*%
D33*
%TO.C,R27*%
X198120000Y-101330000D03*
X198120000Y-99330000D03*
%TD*%
D30*
%TO.C,R29*%
X195310000Y-99695000D03*
X193310000Y-99695000D03*
%TD*%
M02*
