M48
; DRILL file {KiCad (6.0.0)} date Sun May  1 17:17:00 2022
; FORMAT={-:-/ absolute / inch / decimal}
; #@! TF.CreationDate,2022-05-01T17:17:00+01:00
; #@! TF.GenerationSoftware,Kicad,Pcbnew,(6.0.0)
; #@! TF.FileFunction,Plated,1,4,PTH
FMAT,2
INCH
; #@! TA.AperFunction,Plated,PTH,ViaDrill
T1C0.0157
; #@! TA.AperFunction,Plated,PTH,ComponentDrill
T2C0.0197
; #@! TA.AperFunction,Plated,PTH,ComponentDrill
T3C0.0236
; #@! TA.AperFunction,Plated,PTH,ComponentDrill
T4C0.0362
; #@! TA.AperFunction,Plated,PTH,ComponentDrill
T5C0.0394
%
G90
G05
T1
X6.66Y-4.2
X6.8Y-5.05
X6.85Y-2.575
X6.8998Y-2.4263
X6.9Y-2.5
X6.925Y-2.375
X6.925Y-2.4046
X6.95Y-2.625
X6.95Y-2.675
X7.0Y-2.625
X7.0Y-2.675
X7.025Y-3.175
X7.025Y-4.2
X7.05Y-2.625
X7.05Y-2.675
X7.075Y-3.175
X7.075Y-4.95
X7.1Y-2.625
X7.1Y-2.675
X7.125Y-3.175
X7.175Y-3.175
X7.2655Y-2.7429
X7.2761Y-2.7706
X7.2763Y-2.7154
X7.2795Y-2.8
X7.325Y-2.875
X7.325Y-3.11
X7.35Y-2.875
X7.36Y-3.11
X7.375Y-3.0
X7.375Y-4.65
X7.39Y-3.11
X7.4Y-3.0
X7.42Y-3.11
X7.45Y-3.11
X7.5Y-3.05
X7.525Y-2.65
X7.5304Y-3.0513
X7.55Y-2.925
X7.575Y-2.65
X7.625Y-2.875
X7.625Y-2.65
X7.6492Y-2.9122
X7.675Y-3.0
X7.675Y-3.03
X7.675Y-2.65
X7.76Y-3.6
T2
X4.325Y-4.65
X4.675Y-2.65
X4.8Y-2.65
X5.125Y-3.825
X5.5Y-4.45
X5.64Y-4.28
X5.826Y-3.2791
X5.88Y-4.68
X5.8953Y-3.1591
X5.9063Y-3.8608
X6.0154Y-3.1606
X6.0264Y-3.8608
X6.1Y-4.46
X6.1386Y-4.0478
X6.1728Y-3.1
X6.2547Y-4.1963
X6.4Y-4.775
X6.5646Y-3.5
X6.6644Y-3.725
X6.6644Y-3.85
X7.225Y-4.7
X7.2272Y-2.7512
X7.275Y-4.05
X7.475Y-4.275
X7.7Y-4.41
X7.7Y-4.7
X7.7Y-4.975
X7.95Y-4.41
X7.95Y-4.7
X7.95Y-4.975
T3
X4.35Y-5.0374
X4.35Y-5.1791
X4.35Y-5.3209
X4.35Y-5.4626
T4
X5.5372Y-2.6222
X5.6356Y-2.6222
X5.7144Y-2.6222
X5.8128Y-2.6222
T5
X6.6108Y-2.6508
X6.6108Y-2.7492
T3
G00X5.423Y-2.5947
M15
G01X5.423Y-2.5553
M16
G05
G00X5.927Y-2.5947
M15
G01X5.927Y-2.5553
M16
G05
T0
M30
