M48
; DRILL file {KiCad (6.0.0)} date Mon May  2 00:50:10 2022
; FORMAT={-:-/ absolute / inch / decimal}
; #@! TF.CreationDate,2022-05-02T00:50:10+01:00
; #@! TF.GenerationSoftware,Kicad,Pcbnew,(6.0.0)
; #@! TF.FileFunction,Plated,1,4,PTH
FMAT,2
INCH
; #@! TA.AperFunction,Plated,PTH,ViaDrill
T1C0.0157
; #@! TA.AperFunction,Plated,PTH,ComponentDrill
T2C0.0197
; #@! TA.AperFunction,Plated,PTH,ComponentDrill
T3C0.0236
; #@! TA.AperFunction,Plated,PTH,ComponentDrill
T4C0.0362
; #@! TA.AperFunction,Plated,PTH,ComponentDrill
T5C0.0394
%
G90
G05
T1
X4.4Y-4.575
X4.4Y-4.85
X4.48Y-5.42
X4.5Y-5.36
X4.5Y-5.3982
X4.55Y-5.25
X4.6Y-4.35
X4.6147Y-5.3064
X4.65Y-5.3983
X4.6879Y-5.3087
X4.7705Y-2.7024
X4.8Y-2.7
X4.85Y-2.925
X4.85Y-3.0
X4.8506Y-2.8948
X4.8506Y-2.9698
X4.98Y-3.74
X5.025Y-5.275
X5.05Y-5.125
X5.08Y-2.78
X5.08Y-2.84
X5.1Y-2.5583
X5.1Y-5.275
X5.1165Y-5.1227
X5.12Y-2.78
X5.12Y-2.8363
X5.12Y-4.24
X5.125Y-3.55
X5.14Y-4.14
X5.15Y-2.5583
X5.1525Y-3.5775
X5.16Y-2.78
X5.18Y-4.0
X5.18Y-4.12
X5.18Y-4.24
X5.1804Y-2.8395
X5.2Y-2.5583
X5.22Y-4.24
X5.2383Y-4.12
X5.24Y-2.68
X5.24Y-2.9
X5.25Y-2.8
X5.2583Y-4.24
X5.275Y-2.65
X5.2817Y-4.12
X5.3017Y-2.8002
X5.3183Y-4.12
X5.3183Y-4.24
X5.32Y-2.9
X5.3313Y-2.7999
X5.34Y-2.7
X5.34Y-3.02
X5.3617Y-4.12
X5.3617Y-4.16
X5.3617Y-4.24
X5.375Y-3.85
X5.38Y-2.68
X5.38Y-4.72
X5.4Y-2.8
X5.4029Y-3.8971
X5.4177Y-2.9247
X5.42Y-2.7
X5.4405Y-2.8365
X5.4471Y-2.9279
X5.45Y-2.8
X5.4721Y-2.6971
X5.475Y-2.65
X5.4801Y-2.8399
X5.4973Y-4.26
X5.5Y-2.92
X5.5073Y-4.1139
X5.5216Y-2.8061
X5.5227Y-3.9747
X5.5312Y-2.7781
X5.54Y-2.62
X5.55Y-2.7
X5.5523Y-3.975
X5.5527Y-4.2539
X5.56Y-2.66
X5.56Y-4.16
X5.5617Y-2.9554
X5.5627Y-4.12
X5.575Y-2.775
X5.575Y-3.85
X5.575Y-4.025
X5.58Y-4.26
X5.5989Y-2.7
X5.6046Y-4.025
X5.62Y-4.26
X5.6202Y-2.8009
X5.6212Y-2.7151
X5.65Y-2.8
X5.66Y-4.26
X5.66Y-4.52
X5.6757Y-2.7
X5.68Y-4.04
X5.7Y-2.8
X5.7Y-2.9
X5.7Y-2.96
X5.7Y-4.12
X5.7Y-4.26
X5.725Y-2.7
X5.725Y-3.925
X5.74Y-4.12
X5.74Y-4.16
X5.75Y-2.9
X5.7546Y-3.925
X5.76Y-3.0
X5.775Y-2.7
X5.78Y-2.8
X5.78Y-4.12
X5.78Y-4.16
X5.8Y-2.9
X5.82Y-4.12
X5.82Y-4.16
X5.84Y-2.82
X5.86Y-2.92
X5.88Y-4.9
X6.05Y-2.85
X6.05Y-3.975
X6.4Y-4.625
X6.7Y-4.4
X6.7Y-4.45
X6.75Y-3.62
X6.75Y-3.68
X6.775Y-3.95
X6.8Y-5.05
X6.825Y-3.95
X6.83Y-3.49
X6.83Y-3.52
X6.83Y-3.55
X6.83Y-3.58
X6.85Y-2.575
X6.8954Y-3.95
X6.9Y-2.5
X6.9Y-3.66
X6.9143Y-2.4343
X6.925Y-2.375
X6.925Y-2.4046
X6.95Y-2.625
X6.95Y-2.675
X6.95Y-3.95
X7.0Y-2.625
X7.0Y-2.675
X7.0Y-3.5
X7.0Y-3.53
X7.0Y-3.56
X7.0Y-3.95
X7.025Y-3.175
X7.025Y-4.2
X7.03Y-3.5
X7.03Y-3.53
X7.03Y-3.56
X7.05Y-2.625
X7.05Y-2.675
X7.05Y-3.95
X7.075Y-3.175
X7.075Y-4.95
X7.1Y-2.625
X7.1Y-2.675
X7.125Y-3.175
X7.175Y-3.175
X7.2655Y-2.7429
X7.2761Y-2.7706
X7.2763Y-2.7154
X7.2795Y-2.8
X7.325Y-2.875
X7.325Y-3.11
X7.35Y-2.875
X7.36Y-3.11
X7.375Y-3.0
X7.375Y-4.0
X7.375Y-4.65
X7.39Y-3.11
X7.4Y-3.0
X7.4056Y-4.1733
X7.42Y-3.11
X7.45Y-3.11
X7.5Y-3.05
X7.525Y-2.65
X7.525Y-4.35
X7.5304Y-3.0513
X7.55Y-2.925
X7.575Y-2.65
X7.625Y-2.875
X7.625Y-2.65
X7.6492Y-2.9122
X7.675Y-3.0
X7.675Y-3.03
X7.675Y-2.65
X7.7Y-4.025
X7.76Y-3.6
X7.8Y-3.85
T2
X1.8766Y-4.1146
X1.9967Y-4.1146
X2.1089Y-4.3016
X4.325Y-4.35
X4.325Y-4.65
X4.65Y-4.6
X5.125Y-3.825
X5.5Y-4.45
X5.8Y-4.35
X5.82Y-2.42
X5.825Y-2.625
X5.88Y-4.68
X6.15Y-4.325
X6.4Y-4.775
X6.5646Y-3.5
X6.6368Y-1.2906
X6.6644Y-3.725
X6.6644Y-3.85
X7.225Y-4.7
X7.275Y-4.05
X7.475Y-4.275
X7.7Y-4.41
X7.7Y-4.7
X7.7Y-4.975
X7.95Y-4.41
X7.95Y-4.7
X7.95Y-4.975
T3
X4.35Y-5.0374
X4.35Y-5.1791
X4.35Y-5.3209
X4.35Y-5.4626
T4
X6.75Y-5.1111
X6.8484Y-5.1111
X6.9272Y-5.1111
X7.0256Y-5.1111
T5
X6.6108Y-2.6508
X6.6108Y-2.7492
T3
G00X6.6358Y-5.1781
M15
G01X6.6358Y-5.1387
M16
G05
G00X7.1398Y-5.1781
M15
G01X7.1398Y-5.1387
M16
G05
T0
M30
