%TF.GenerationSoftware,KiCad,Pcbnew,(6.0.0)*%
%TF.CreationDate,2022-05-01T16:32:44+01:00*%
%TF.ProjectId,CM4Carrier,434d3443-6172-4726-9965-722e6b696361,indev*%
%TF.SameCoordinates,Original*%
%TF.FileFunction,Soldermask,Bot*%
%TF.FilePolarity,Negative*%
%FSLAX46Y46*%
G04 Gerber Fmt 4.6, Leading zero omitted, Abs format (unit mm)*
G04 Created by KiCad (PCBNEW (6.0.0)) date 2022-05-01 16:32:44*
%MOMM*%
%LPD*%
G01*
G04 APERTURE LIST*
G04 Aperture macros list*
%AMRoundRect*
0 Rectangle with rounded corners*
0 $1 Rounding radius*
0 $2 $3 $4 $5 $6 $7 $8 $9 X,Y pos of 4 corners*
0 Add a 4 corners polygon primitive as box body*
4,1,4,$2,$3,$4,$5,$6,$7,$8,$9,$2,$3,0*
0 Add four circle primitives for the rounded corners*
1,1,$1+$1,$2,$3*
1,1,$1+$1,$4,$5*
1,1,$1+$1,$6,$7*
1,1,$1+$1,$8,$9*
0 Add four rect primitives between the rounded corners*
20,1,$1+$1,$2,$3,$4,$5,0*
20,1,$1+$1,$4,$5,$6,$7,0*
20,1,$1+$1,$6,$7,$8,$9,0*
20,1,$1+$1,$8,$9,$2,$3,0*%
G04 Aperture macros list end*
%ADD10C,2.700000*%
%ADD11R,1.000000X1.000000*%
%ADD12R,1.000000X0.700000*%
%ADD13R,0.700000X0.600000*%
%ADD14C,1.700000*%
%ADD15R,2.800000X2.200000*%
%ADD16R,2.800000X2.800000*%
%ADD17R,2.800000X2.600000*%
%ADD18RoundRect,0.250000X-0.350000X-0.450000X0.350000X-0.450000X0.350000X0.450000X-0.350000X0.450000X0*%
%ADD19R,0.400000X0.650000*%
%ADD20RoundRect,0.250000X-0.475000X0.337500X-0.475000X-0.337500X0.475000X-0.337500X0.475000X0.337500X0*%
%ADD21RoundRect,0.100000X-0.100000X0.712500X-0.100000X-0.712500X0.100000X-0.712500X0.100000X0.712500X0*%
%ADD22RoundRect,0.237500X0.250000X0.237500X-0.250000X0.237500X-0.250000X-0.237500X0.250000X-0.237500X0*%
%ADD23RoundRect,0.250000X0.475000X-0.337500X0.475000X0.337500X-0.475000X0.337500X-0.475000X-0.337500X0*%
%ADD24RoundRect,0.250000X-0.337500X-0.475000X0.337500X-0.475000X0.337500X0.475000X-0.337500X0.475000X0*%
%ADD25RoundRect,0.250000X0.350000X0.450000X-0.350000X0.450000X-0.350000X-0.450000X0.350000X-0.450000X0*%
%ADD26RoundRect,0.250001X0.462499X1.074999X-0.462499X1.074999X-0.462499X-1.074999X0.462499X-1.074999X0*%
%ADD27R,1.428000X1.428000*%
%ADD28C,1.428000*%
%ADD29O,1.108000X2.216000*%
%ADD30RoundRect,0.250000X-0.450000X0.350000X-0.450000X-0.350000X0.450000X-0.350000X0.450000X0.350000X0*%
%ADD31RoundRect,0.150000X-0.825000X-0.150000X0.825000X-0.150000X0.825000X0.150000X-0.825000X0.150000X0*%
%ADD32RoundRect,0.250000X0.450000X-0.350000X0.450000X0.350000X-0.450000X0.350000X-0.450000X-0.350000X0*%
%ADD33RoundRect,0.100000X0.100000X-0.637500X0.100000X0.637500X-0.100000X0.637500X-0.100000X-0.637500X0*%
%ADD34C,6.100000*%
%ADD35R,0.200000X0.700000*%
%ADD36R,0.610000X2.000000*%
%ADD37R,2.680000X3.600000*%
%ADD38RoundRect,0.250000X0.325000X0.450000X-0.325000X0.450000X-0.325000X-0.450000X0.325000X-0.450000X0*%
%ADD39RoundRect,0.250000X-0.550000X0.550000X-0.550000X-0.550000X0.550000X-0.550000X0.550000X0.550000X0*%
%ADD40C,1.600000*%
%ADD41RoundRect,0.250000X0.750000X-0.600000X0.750000X0.600000X-0.750000X0.600000X-0.750000X-0.600000X0*%
%ADD42O,2.000000X1.700000*%
%ADD43RoundRect,0.050000X0.337500X0.050000X-0.337500X0.050000X-0.337500X-0.050000X0.337500X-0.050000X0*%
%ADD44R,1.780000X2.350000*%
%ADD45C,0.650000*%
%ADD46R,1.150000X0.600000*%
%ADD47R,1.150000X0.300000*%
%ADD48R,2.000000X2.180000*%
%ADD49R,0.800000X1.200000*%
%ADD50R,1.500000X2.000000*%
%ADD51RoundRect,0.237500X0.237500X-0.250000X0.237500X0.250000X-0.237500X0.250000X-0.237500X-0.250000X0*%
%ADD52RoundRect,0.237500X0.237500X-0.300000X0.237500X0.300000X-0.237500X0.300000X-0.237500X-0.300000X0*%
G04 APERTURE END LIST*
D10*
%TO.C,REF\u002A\u002A*%
X200297000Y-136462000D03*
%TD*%
D11*
%TO.C,TP26*%
X145925000Y-75635000D03*
%TD*%
%TO.C,TP5*%
X166740000Y-88900000D03*
%TD*%
%TO.C,TP7*%
X143256000Y-108712000D03*
%TD*%
%TO.C,TP18*%
X154940000Y-113284000D03*
%TD*%
%TO.C,TP21*%
X81915000Y-128270000D03*
%TD*%
%TO.C,TP10*%
X162560000Y-121285000D03*
%TD*%
%TO.C,TP23*%
X189865000Y-108585000D03*
%TD*%
D10*
%TO.C,REF\u002A\u002A*%
X185400000Y-63470000D03*
%TD*%
D11*
%TO.C,TP20*%
X81915000Y-121285000D03*
%TD*%
%TO.C,TP9*%
X109855000Y-118110000D03*
%TD*%
%TO.C,TP2*%
X80645000Y-60960000D03*
%TD*%
D10*
%TO.C,REF\u002A\u002A*%
X97300000Y-63470000D03*
%TD*%
D11*
%TO.C,TP4*%
X169275000Y-94615000D03*
%TD*%
%TO.C,TP27*%
X140025000Y-70885000D03*
%TD*%
D10*
%TO.C,REF\u002A\u002A*%
X200297000Y-88464000D03*
%TD*%
D11*
%TO.C,TP1*%
X118745000Y-67310000D03*
%TD*%
%TO.C,TP19*%
X183515000Y-119380000D03*
%TD*%
%TO.C,TP3*%
X169275000Y-97790000D03*
%TD*%
D10*
%TO.C,REF\u002A\u002A*%
X82403000Y-136462000D03*
%TD*%
D11*
%TO.C,TP28*%
X148875000Y-79405000D03*
%TD*%
%TO.C,TP8*%
X130175000Y-97155000D03*
%TD*%
%TO.C,TP25*%
X143075000Y-70885000D03*
%TD*%
%TO.C,TP24*%
X121920000Y-67310000D03*
%TD*%
%TO.C,TP6*%
X104775000Y-102870000D03*
%TD*%
%TO.C,TP11*%
X139700000Y-113030000D03*
%TD*%
%TO.C,TP22*%
X184785000Y-102870000D03*
%TD*%
D10*
%TO.C,REF\u002A\u002A*%
X82403000Y-88464000D03*
%TD*%
D11*
%TO.C,TP14*%
X154940000Y-87630000D03*
%TD*%
D12*
%TO.C,SW14*%
X126349995Y-119119913D03*
X120349995Y-119119913D03*
X126349995Y-122819913D03*
X120349995Y-122819913D03*
D13*
X123349995Y-118469913D03*
X123349995Y-123469913D03*
%TD*%
D14*
%TO.C,J6*%
X137795000Y-133945000D03*
X137795000Y-126945000D03*
D15*
X141495000Y-133045000D03*
X134095000Y-135045000D03*
D16*
X134095000Y-125645000D03*
D17*
X138545000Y-121645000D03*
%TD*%
D11*
%TO.C,TP12*%
X154940000Y-95250000D03*
%TD*%
%TO.C,TP13*%
X154940000Y-97790000D03*
%TD*%
D18*
%TO.C,R2*%
X160925000Y-113665000D03*
X162925000Y-113665000D03*
%TD*%
D19*
%TO.C,D4*%
X129555000Y-133045000D03*
X128905000Y-133045000D03*
X128255000Y-133045000D03*
X128255000Y-131145000D03*
X128905000Y-131145000D03*
X129555000Y-131145000D03*
%TD*%
D20*
%TO.C,C34*%
X151892000Y-120882500D03*
X151892000Y-122957500D03*
%TD*%
D21*
%TO.C,U1*%
X160950000Y-103297500D03*
X161600000Y-103297500D03*
X162250000Y-103297500D03*
X162900000Y-103297500D03*
X162900000Y-107522500D03*
X162250000Y-107522500D03*
X161600000Y-107522500D03*
X160950000Y-107522500D03*
%TD*%
D22*
%TO.C,R10*%
X169187500Y-62865000D03*
X167362500Y-62865000D03*
%TD*%
D23*
%TO.C,C26*%
X146685000Y-67712500D03*
X146685000Y-65637500D03*
%TD*%
D20*
%TO.C,C29*%
X125095000Y-134217500D03*
X125095000Y-136292500D03*
%TD*%
D24*
%TO.C,C1*%
X165332500Y-106045000D03*
X167407500Y-106045000D03*
%TD*%
D25*
%TO.C,R46*%
X153908000Y-118872000D03*
X151908000Y-118872000D03*
%TD*%
%TO.C,R38*%
X194040000Y-68580000D03*
X192040000Y-68580000D03*
%TD*%
D26*
%TO.C,F1*%
X101817500Y-69850000D03*
X98842500Y-69850000D03*
%TD*%
D20*
%TO.C,C33*%
X110744000Y-119866500D03*
X110744000Y-121941500D03*
%TD*%
D18*
%TO.C,R3*%
X165370000Y-103505000D03*
X167370000Y-103505000D03*
%TD*%
D11*
%TO.C,TP15*%
X154940000Y-90170000D03*
%TD*%
D23*
%TO.C,C30*%
X125095000Y-130577500D03*
X125095000Y-128502500D03*
%TD*%
D27*
%TO.C,J3*%
X105085000Y-66392504D03*
D28*
X107585000Y-66392504D03*
X109585000Y-66392504D03*
X112085000Y-66392504D03*
D29*
X102185000Y-65192504D03*
X114985000Y-65192504D03*
%TD*%
D30*
%TO.C,R39*%
X118110000Y-133890000D03*
X118110000Y-135890000D03*
%TD*%
D31*
%TO.C,U5*%
X146750000Y-95885000D03*
X146750000Y-94615000D03*
X146750000Y-93345000D03*
X146750000Y-92075000D03*
X146750000Y-90805000D03*
X146750000Y-89535000D03*
X146750000Y-88265000D03*
X151700000Y-88265000D03*
X151700000Y-89535000D03*
X151700000Y-90805000D03*
X151700000Y-92075000D03*
X151700000Y-93345000D03*
X151700000Y-94615000D03*
X151700000Y-95885000D03*
%TD*%
D32*
%TO.C,R50*%
X149352000Y-122920000D03*
X149352000Y-120920000D03*
%TD*%
D33*
%TO.C,U6*%
X84160000Y-103827500D03*
X83510000Y-103827500D03*
X82860000Y-103827500D03*
X82210000Y-103827500D03*
X82210000Y-98102500D03*
X82860000Y-98102500D03*
X83510000Y-98102500D03*
X84160000Y-98102500D03*
%TD*%
D30*
%TO.C,R45*%
X117856000Y-119904000D03*
X117856000Y-121904000D03*
%TD*%
D11*
%TO.C,TP16*%
X154940000Y-92710000D03*
%TD*%
D34*
%TO.C,Module1*%
X89665000Y-75575000D03*
X137665000Y-108575000D03*
X137665000Y-75575000D03*
X89665000Y-108575000D03*
D35*
X106365000Y-73575000D03*
X106365000Y-76655000D03*
X106765000Y-73575000D03*
X106765000Y-76655000D03*
X107165000Y-73575000D03*
X107165000Y-76655000D03*
X107565000Y-73575000D03*
X107565000Y-76655000D03*
X107965000Y-73575000D03*
X107965000Y-76655000D03*
X108365000Y-73575000D03*
X108365000Y-76655000D03*
X108765000Y-73575000D03*
X108765000Y-76655000D03*
X109165000Y-73575000D03*
X109165000Y-76655000D03*
X109565000Y-73575000D03*
X109565000Y-76655000D03*
X109965000Y-73575000D03*
X109965000Y-76655000D03*
X110365000Y-73575000D03*
X110365000Y-76655000D03*
X110765000Y-73575000D03*
X110765000Y-76655000D03*
X111165000Y-73575000D03*
X111165000Y-76655000D03*
X111565000Y-73575000D03*
X111565000Y-76655000D03*
X111965000Y-73575000D03*
X111965000Y-76655000D03*
X112365000Y-73575000D03*
X112365000Y-76655000D03*
X112765000Y-73575000D03*
X112765000Y-76655000D03*
X113165000Y-73575000D03*
X113165000Y-76655000D03*
X113565000Y-73575000D03*
X113565000Y-76655000D03*
X113965000Y-73575000D03*
X113965000Y-76655000D03*
X114365000Y-73575000D03*
X114365000Y-76655000D03*
X114765000Y-73575000D03*
X114765000Y-76655000D03*
X115165000Y-73575000D03*
X115165000Y-76655000D03*
X115565000Y-73575000D03*
X115565000Y-76655000D03*
X115965000Y-73575000D03*
X115965000Y-76655000D03*
X116365000Y-73575000D03*
X116365000Y-76655000D03*
X116765000Y-73575000D03*
X116765000Y-76655000D03*
X117165000Y-73575000D03*
X117165000Y-76655000D03*
X117565000Y-73575000D03*
X117565000Y-76655000D03*
X117965000Y-73575000D03*
X117965000Y-76655000D03*
X118365000Y-73575000D03*
X118365000Y-76655000D03*
X118765000Y-73575000D03*
X118765000Y-76655000D03*
X119165000Y-73575000D03*
X119165000Y-76655000D03*
X119565000Y-73575000D03*
X119565000Y-76655000D03*
X119965000Y-73575000D03*
X119965000Y-76655000D03*
X120365000Y-73575000D03*
X120365000Y-76655000D03*
X120765000Y-73575000D03*
X120765000Y-76655000D03*
X121165000Y-73575000D03*
X121165000Y-76655000D03*
X121565000Y-73575000D03*
X121565000Y-76655000D03*
X121965000Y-73575000D03*
X121965000Y-76655000D03*
X122365000Y-73575000D03*
X122365000Y-76655000D03*
X122765000Y-73575000D03*
X122765000Y-76655000D03*
X123165000Y-73575000D03*
X123165000Y-76655000D03*
X123565000Y-73575000D03*
X123565000Y-76655000D03*
X123965000Y-73575000D03*
X123965000Y-76655000D03*
X124365000Y-73575000D03*
X124365000Y-76655000D03*
X124765000Y-73575000D03*
X124765000Y-76655000D03*
X125165000Y-73575000D03*
X125165000Y-76655000D03*
X125565000Y-73575000D03*
X125565000Y-76655000D03*
X125965000Y-73575000D03*
X125965000Y-76655000D03*
X106365000Y-107495000D03*
X106365000Y-110575000D03*
X106765000Y-107495000D03*
X106765000Y-110575000D03*
X107165000Y-107495000D03*
X107165000Y-110575000D03*
X107565000Y-107495000D03*
X107565000Y-110575000D03*
X107965000Y-107495000D03*
X107965000Y-110575000D03*
X108365000Y-107495000D03*
X108365000Y-110575000D03*
X108765000Y-107495000D03*
X108765000Y-110575000D03*
X109165000Y-107495000D03*
X109165000Y-110575000D03*
X109565000Y-107495000D03*
X109565000Y-110575000D03*
X109965000Y-107495000D03*
X109965000Y-110575000D03*
X110365000Y-107495000D03*
X110365000Y-110575000D03*
X110765000Y-107495000D03*
X110765000Y-110575000D03*
X111165000Y-107495000D03*
X111165000Y-110575000D03*
X111565000Y-107495000D03*
X111565000Y-110575000D03*
X111965000Y-107495000D03*
X111965000Y-110575000D03*
X112365000Y-107495000D03*
X112365000Y-110575000D03*
X112765000Y-107495000D03*
X112765000Y-110575000D03*
X113165000Y-107495000D03*
X113165000Y-110575000D03*
X113565000Y-107495000D03*
X113565000Y-110575000D03*
X113965000Y-107495000D03*
X113965000Y-110575000D03*
X114365000Y-107495000D03*
X114365000Y-110575000D03*
X114765000Y-107495000D03*
X114765000Y-110575000D03*
X115165000Y-107495000D03*
X115165000Y-110575000D03*
X115565000Y-107495000D03*
X115565000Y-110575000D03*
X115965000Y-107495000D03*
X115965000Y-110575000D03*
X116365000Y-107495000D03*
X116365000Y-110575000D03*
X116765000Y-107495000D03*
X116765000Y-110575000D03*
X117165000Y-107495000D03*
X117165000Y-110575000D03*
X117565000Y-107495000D03*
X117565000Y-110575000D03*
X117965000Y-107495000D03*
X117965000Y-110575000D03*
X118365000Y-107495000D03*
X118365000Y-110575000D03*
X118765000Y-107495000D03*
X118765000Y-110575000D03*
X119165000Y-107495000D03*
X119165000Y-110575000D03*
X119565000Y-107495000D03*
X119565000Y-110575000D03*
X119965000Y-107495000D03*
X119965000Y-110575000D03*
X120365000Y-107495000D03*
X120365000Y-110575000D03*
X120765000Y-107495000D03*
X120765000Y-110575000D03*
X121165000Y-107495000D03*
X121165000Y-110575000D03*
X121565000Y-107495000D03*
X121565000Y-110575000D03*
X121965000Y-107495000D03*
X121965000Y-110575000D03*
X122365000Y-107495000D03*
X122365000Y-110575000D03*
X122765000Y-107495000D03*
X122765000Y-110575000D03*
X123165000Y-107495000D03*
X123165000Y-110575000D03*
X123565000Y-107495000D03*
X123565000Y-110575000D03*
X123965000Y-107495000D03*
X123965000Y-110575000D03*
X124365000Y-107495000D03*
X124365000Y-110575000D03*
X124765000Y-107495000D03*
X124765000Y-110575000D03*
X125165000Y-107495000D03*
X125165000Y-110575000D03*
X125565000Y-107495000D03*
X125565000Y-110575000D03*
X125965000Y-107495000D03*
X125965000Y-110575000D03*
%TD*%
D36*
%TO.C,J5*%
X124445000Y-65880005D03*
X125445000Y-65880005D03*
X126445000Y-65880005D03*
X127445000Y-65880005D03*
X128445000Y-65880005D03*
X129445000Y-65880005D03*
X130445000Y-65880005D03*
X131445000Y-65880005D03*
X132445000Y-65880005D03*
X133445000Y-65880005D03*
X134445000Y-65880005D03*
X135445000Y-65880005D03*
X136445000Y-65880005D03*
X137445000Y-65880005D03*
X138445000Y-65880005D03*
D37*
X121455000Y-63080005D03*
X141435000Y-63080005D03*
%TD*%
D30*
%TO.C,R40*%
X115570000Y-130212500D03*
X115570000Y-132212500D03*
%TD*%
D11*
%TO.C,TP27*%
X108712000Y-113284000D03*
%TD*%
D25*
%TO.C,R42*%
X122920000Y-130577499D03*
X120920000Y-130577499D03*
%TD*%
D32*
%TO.C,R49*%
X114300000Y-121904000D03*
X114300000Y-119904000D03*
%TD*%
D11*
%TO.C,TP28*%
X149352000Y-118872000D03*
%TD*%
D38*
%TO.C,F2*%
X194065000Y-71120000D03*
X192015000Y-71120000D03*
%TD*%
D39*
%TO.C,J2*%
X84455000Y-117685000D03*
D40*
X84455000Y-121285000D03*
X84455000Y-124885000D03*
X84455000Y-128485000D03*
%TD*%
D18*
%TO.C,TH1*%
X185055000Y-98425000D03*
X187055000Y-98425000D03*
%TD*%
D20*
%TO.C,C27*%
X120649999Y-136122500D03*
X120649999Y-138197500D03*
%TD*%
D12*
%TO.C,SW15*%
X162349999Y-119119913D03*
X156349999Y-119119913D03*
X162349999Y-122819913D03*
X156349999Y-122819913D03*
D13*
X159349999Y-118469913D03*
X159349999Y-123469913D03*
%TD*%
D41*
%TO.C,BT1*%
X167915000Y-69830000D03*
D42*
X167915000Y-67330000D03*
%TD*%
D43*
%TO.C,U3*%
X179922500Y-61030000D03*
X179922500Y-61430000D03*
X179922500Y-61830000D03*
X179922500Y-62230000D03*
X179922500Y-62630000D03*
X179922500Y-63030000D03*
X179922500Y-63430000D03*
X176947500Y-63430000D03*
X176947500Y-63030000D03*
X176947500Y-62630000D03*
X176947500Y-62230000D03*
X176947500Y-61830000D03*
X176947500Y-61430000D03*
X176947500Y-61030000D03*
D44*
X178435000Y-62230000D03*
%TD*%
D45*
%TO.C,J4*%
X197327500Y-76550000D03*
X197327500Y-70770000D03*
D46*
X196252500Y-70460000D03*
X196252500Y-71260000D03*
D47*
X196252500Y-72410000D03*
X196252500Y-73410000D03*
X196252500Y-73910000D03*
X196252500Y-74910000D03*
D46*
X196252500Y-76860000D03*
X196252500Y-76060000D03*
D47*
X196252500Y-75410000D03*
X196252500Y-74410000D03*
X196252500Y-72910000D03*
X196252500Y-71910000D03*
D48*
X196827500Y-68550000D03*
X196827500Y-78770000D03*
X200757500Y-68550000D03*
X200757500Y-78770000D03*
%TD*%
D25*
%TO.C,R41*%
X122920000Y-133984999D03*
X120920000Y-133984999D03*
%TD*%
D23*
%TO.C,C28*%
X118745000Y-130344999D03*
X118745000Y-128269999D03*
%TD*%
D18*
%TO.C,R8*%
X172990000Y-67310000D03*
X174990000Y-67310000D03*
%TD*%
D49*
%TO.C,J1*%
X148540000Y-110575000D03*
X149640000Y-110575000D03*
X150740000Y-110575000D03*
X151840000Y-110575000D03*
X152940000Y-110575000D03*
X154040000Y-110575000D03*
X155140000Y-110575000D03*
X156240000Y-110575000D03*
D50*
X158710000Y-112775000D03*
X158710000Y-104575000D03*
X144820000Y-104575000D03*
X144820000Y-112775000D03*
%TD*%
D51*
%TO.C,R9*%
X172085000Y-64412500D03*
X172085000Y-62587500D03*
%TD*%
D52*
%TO.C,C10*%
X173990000Y-61822500D03*
X173990000Y-60097500D03*
%TD*%
D11*
%TO.C,TP17*%
X154940000Y-85090000D03*
%TD*%
D25*
%TO.C,R27*%
X144256000Y-89408000D03*
X142256000Y-89408000D03*
%TD*%
D30*
%TO.C,R29*%
X142621000Y-92218000D03*
X142621000Y-94218000D03*
%TD*%
M02*
