%TF.GenerationSoftware,KiCad,Pcbnew,(6.0.0)*%
%TF.CreationDate,2022-05-01T17:17:02+01:00*%
%TF.ProjectId,CM4Carrier,434d3443-6172-4726-9965-722e6b696361,indev*%
%TF.SameCoordinates,Original*%
%TF.FileFunction,Copper,L2,Inr*%
%TF.FilePolarity,Positive*%
%FSLAX46Y46*%
G04 Gerber Fmt 4.6, Leading zero omitted, Abs format (unit mm)*
G04 Created by KiCad (PCBNEW (6.0.0)) date 2022-05-01 17:17:02*
%MOMM*%
%LPD*%
G01*
G04 APERTURE LIST*
G04 Aperture macros list*
%AMRoundRect*
0 Rectangle with rounded corners*
0 $1 Rounding radius*
0 $2 $3 $4 $5 $6 $7 $8 $9 X,Y pos of 4 corners*
0 Add a 4 corners polygon primitive as box body*
4,1,4,$2,$3,$4,$5,$6,$7,$8,$9,$2,$3,0*
0 Add four circle primitives for the rounded corners*
1,1,$1+$1,$2,$3*
1,1,$1+$1,$4,$5*
1,1,$1+$1,$6,$7*
1,1,$1+$1,$8,$9*
0 Add four rect primitives between the rounded corners*
20,1,$1+$1,$2,$3,$4,$5,0*
20,1,$1+$1,$4,$5,$6,$7,0*
20,1,$1+$1,$6,$7,$8,$9,0*
20,1,$1+$1,$8,$9,$2,$3,0*%
G04 Aperture macros list end*
%TA.AperFunction,ComponentPad*%
%ADD10R,1.000000X1.000000*%
%TD*%
%TA.AperFunction,ComponentPad*%
%ADD11C,1.428000*%
%TD*%
%TA.AperFunction,ComponentPad*%
%ADD12R,1.428000X1.428000*%
%TD*%
%TA.AperFunction,ComponentPad*%
%ADD13O,1.108000X2.216000*%
%TD*%
%TA.AperFunction,ComponentPad*%
%ADD14RoundRect,0.250000X-0.550000X0.550000X-0.550000X-0.550000X0.550000X-0.550000X0.550000X0.550000X0*%
%TD*%
%TA.AperFunction,ComponentPad*%
%ADD15C,1.600000*%
%TD*%
%TA.AperFunction,ComponentPad*%
%ADD16RoundRect,0.250000X0.750000X-0.600000X0.750000X0.600000X-0.750000X0.600000X-0.750000X-0.600000X0*%
%TD*%
%TA.AperFunction,ComponentPad*%
%ADD17O,2.000000X1.700000*%
%TD*%
%TA.AperFunction,ViaPad*%
%ADD18C,0.800000*%
%TD*%
%TA.AperFunction,ViaPad*%
%ADD19C,0.600000*%
%TD*%
%TA.AperFunction,Conductor*%
%ADD20C,1.270000*%
%TD*%
%TA.AperFunction,Conductor*%
%ADD21C,0.635000*%
%TD*%
%TA.AperFunction,Conductor*%
%ADD22C,0.200000*%
%TD*%
G04 APERTURE END LIST*
D10*
%TO.N,/Buttons/SHOULDERL2*%
%TO.C,TP27*%
X152790000Y-80279999D03*
%TD*%
%TO.N,Net-(J2-Pad4)*%
%TO.C,TP21*%
X147980000Y-83290000D03*
%TD*%
%TO.N,Net-(J2-Pad2)*%
%TO.C,TP20*%
X156790000Y-78740000D03*
%TD*%
%TO.N,/bi4*%
%TO.C,TP6*%
X149740000Y-80240000D03*
%TD*%
%TO.N,/3v3*%
%TO.C,TP2*%
X183570000Y-69880000D03*
%TD*%
D11*
%TO.N,GND*%
%TO.C,J3*%
X140645000Y-66605000D03*
D12*
%TO.N,Net-(F1-Pad1)*%
X147645000Y-66605000D03*
D11*
%TO.N,/IO B/D+*%
X143145000Y-66605000D03*
%TO.N,/IO B/D-*%
X145145000Y-66605000D03*
D13*
%TO.N,GND*%
X137745000Y-65405000D03*
X150545000Y-65405000D03*
%TD*%
D14*
%TO.N,/3v3*%
%TO.C,J2*%
X110490000Y-127949999D03*
D15*
%TO.N,Net-(J2-Pad2)*%
X110490000Y-131549999D03*
%TO.N,GND*%
X110490000Y-135149999D03*
%TO.N,Net-(J2-Pad4)*%
X110490000Y-138749999D03*
%TD*%
D10*
%TO.N,/Buttons/SHOULDERR*%
%TO.C,TP26*%
X155919999Y-102815000D03*
%TD*%
%TO.N,/_5v*%
%TO.C,TP5*%
X166740000Y-88900000D03*
%TD*%
%TO.N,/bi0*%
%TO.C,TP7*%
X143256000Y-108712000D03*
%TD*%
%TO.N,/bi6*%
%TO.C,TP18*%
X154940000Y-113284000D03*
%TD*%
%TO.N,/bi1*%
%TO.C,TP10*%
X162560000Y-121285000D03*
%TD*%
%TO.N,/bi9*%
%TO.C,TP23*%
X189865000Y-108585000D03*
%TD*%
%TO.N,/bi3*%
%TO.C,TP9*%
X109855000Y-118110000D03*
%TD*%
%TO.N,Net-(R12-Pad2)*%
%TO.C,TP4*%
X169275000Y-94615000D03*
%TD*%
%TO.N,/Buttons/SHOULDERL2*%
%TO.C,TP27*%
X150019999Y-98065000D03*
%TD*%
%TO.N,Net-(Module1-Pad95)*%
%TO.C,TP1*%
X118745000Y-67310000D03*
%TD*%
%TO.N,/bi8*%
%TO.C,TP19*%
X183515000Y-119380000D03*
%TD*%
%TO.N,Net-(R11-Pad2)*%
%TO.C,TP3*%
X169275000Y-97790000D03*
%TD*%
%TO.N,/Buttons/SHOULDERR2*%
%TO.C,TP28*%
X158869999Y-106585000D03*
%TD*%
%TO.N,/bi2*%
%TO.C,TP8*%
X130175000Y-97155000D03*
%TD*%
%TO.N,/Buttons/SHOULDERL*%
%TO.C,TP25*%
X153069999Y-98065000D03*
%TD*%
%TO.N,/Buttons/GLOBAL-EN*%
%TO.C,TP24*%
X121920000Y-67310000D03*
%TD*%
%TO.N,/bi5*%
%TO.C,TP11*%
X139700000Y-113030000D03*
%TD*%
%TO.N,/bi7*%
%TO.C,TP22*%
X184785000Y-102870000D03*
%TD*%
%TO.N,Net-(TP14-Pad1)*%
%TO.C,TP14*%
X201930000Y-119380000D03*
%TD*%
%TO.N,Net-(TP12-Pad1)*%
%TO.C,TP12*%
X195580000Y-119380000D03*
%TD*%
%TO.N,Net-(TP13-Pad1)*%
%TO.C,TP13*%
X195580000Y-126365000D03*
%TD*%
%TO.N,Net-(TP15-Pad1)*%
%TO.C,TP15*%
X201930000Y-126365000D03*
%TD*%
%TO.N,Net-(TP16-Pad1)*%
%TO.C,TP16*%
X195580000Y-112014000D03*
%TD*%
%TO.N,/Buttons/SHOULDERR2*%
%TO.C,TP28*%
X149352000Y-118872000D03*
%TD*%
D16*
%TO.N,/Battery/BATT__*%
%TO.C,BT1*%
X167915000Y-69830000D03*
D17*
%TO.N,Net-(BT1-Pad2)*%
X167915000Y-67330000D03*
%TD*%
D10*
%TO.N,Net-(TP17-Pad1)*%
%TO.C,TP17*%
X201930000Y-112014001D03*
%TD*%
D18*
%TO.N,GND*%
X180340000Y-67945000D03*
D19*
%TO.N,Net-(C4-Pad2)*%
X187325000Y-76200000D03*
X190500000Y-77470000D03*
%TO.N,Net-(C4-Pad1)*%
X194945000Y-76962000D03*
%TO.N,GND*%
X191135000Y-67310000D03*
X194945002Y-67310000D03*
D18*
X176530000Y-66675000D03*
D19*
%TO.N,Net-(C4-Pad2)*%
X191272789Y-77503210D03*
%TO.N,GND*%
X189230000Y-78994000D03*
D18*
X177800000Y-66675000D03*
X180340000Y-66675000D03*
D19*
X186944000Y-78994000D03*
X187706000Y-78994000D03*
X193675000Y-67310000D03*
X188468000Y-78994000D03*
D18*
X177800000Y-67945000D03*
X179070000Y-67945000D03*
D19*
%TO.N,Net-(C4-Pad1)*%
X186690000Y-73025000D03*
%TO.N,GND*%
X186055000Y-78994000D03*
%TO.N,Net-(C4-Pad2)*%
X187960000Y-76200000D03*
%TO.N,GND*%
X192405000Y-67310000D03*
%TO.N,Net-(C4-Pad1)*%
X186055000Y-73025000D03*
X194945000Y-76200000D03*
D18*
%TO.N,GND*%
X176530000Y-67945000D03*
X179070000Y-66675000D03*
%TO.N,Net-(C17-Pad1)*%
X197104000Y-91440000D03*
D19*
%TO.N,/Battery/CHRG-CC2*%
X184900025Y-71119998D03*
%TO.N,/Battery/ALRT*%
X175255427Y-61628803D03*
%TO.N,/IO/I2C_SDA*%
X175895000Y-61076903D03*
%TO.N,/3v3*%
X187325000Y-118110000D03*
%TO.N,/Battery/CHRG-D+*%
X191770000Y-74295000D03*
X184544248Y-69670710D03*
%TO.N,/Battery/CHRG-D-*%
X194289849Y-73971122D03*
%TO.N,/Battery/CHRG-CC1*%
X184812219Y-70373240D03*
%TO.N,/Battery/CHRG-D-*%
X193674998Y-73025001D03*
%TO.N,/IO/I2C_SCLK*%
X175895000Y-60325000D03*
%TO.N,/Battery/CHRG-D-*%
X184818842Y-68970742D03*
%TO.N,/3v3*%
X172720000Y-128270000D03*
%TO.N,/Battery/BATT__*%
X179705000Y-80645000D03*
X182245000Y-80645000D03*
X180975000Y-80645000D03*
%TO.N,/3v3*%
X179705000Y-125730000D03*
X169164000Y-106680000D03*
D18*
%TO.N,Net-(BT1-Pad2)*%
X173990000Y-65405000D03*
D19*
%TO.N,/Battery/BATT__*%
X178435000Y-80645000D03*
D18*
%TO.N,Net-(BT1-Pad2)*%
X175260000Y-63500000D03*
D19*
%TO.N,/3v3*%
X178435000Y-106680000D03*
%TD*%
D20*
%TO.N,GND*%
X192405000Y-67310000D02*
X191135000Y-67310000D01*
X188468000Y-78994000D02*
X189230000Y-78994000D01*
X194945002Y-67310000D02*
X193675000Y-67310000D01*
X193675000Y-67310000D02*
X192405000Y-67310000D01*
X186944000Y-78994000D02*
X186055000Y-78994000D01*
X186944000Y-78994000D02*
X187706000Y-78994000D01*
X188468000Y-78994000D02*
X187706000Y-78994000D01*
D21*
%TO.N,Net-(C4-Pad2)*%
X187960000Y-76200000D02*
X189230000Y-77470000D01*
X188595000Y-77470000D02*
X189230000Y-77470000D01*
X191239579Y-77470000D02*
X191272789Y-77503210D01*
X189230000Y-77470000D02*
X191239579Y-77470000D01*
X187325000Y-76200000D02*
X188595000Y-77470000D01*
X187960000Y-76200000D02*
X187325000Y-76200000D01*
D22*
%TO.N,/bi7*%
X169641500Y-102870000D02*
X155671500Y-88900000D01*
X184785000Y-102870000D02*
X169641500Y-102870000D01*
%TO.N,/bi8*%
X183515000Y-119380000D02*
X155056911Y-90921911D01*
%TO.N,/bi9*%
X174858822Y-108585000D02*
X155691911Y-89418089D01*
X189865000Y-108585000D02*
X174858822Y-108585000D01*
%TO.N,/Battery/CHRG-D-*%
X188350740Y-68970742D02*
X184818842Y-68970742D01*
X193674998Y-73025001D02*
X192404999Y-73025001D01*
X193351120Y-73971122D02*
X194289849Y-73971122D01*
X192404999Y-73025001D02*
X193351120Y-73971122D01*
X192404999Y-73025001D02*
X188350740Y-68970742D01*
%TO.N,/Battery/CHRG-D+*%
X187145710Y-69670710D02*
X184544248Y-69670710D01*
%TO.N,/Battery/ALRT*%
X171450000Y-81280000D02*
X171450000Y-65405000D01*
X171450000Y-65405000D02*
X175226197Y-61628803D01*
%TO.N,/Battery/CHRG-D+*%
X191770000Y-74295000D02*
X187145710Y-69670710D01*
%TO.N,/Battery/ALRT*%
X165100000Y-87630000D02*
X171450000Y-81280000D01*
X175226197Y-61628803D02*
X175255427Y-61628803D01*
X160157323Y-87630000D02*
X165100000Y-87630000D01*
%TO.N,/IO/I2C_SCLK*%
X174625000Y-60325000D02*
X170180000Y-64770000D01*
X165100000Y-86360000D02*
X160020000Y-86360000D01*
%TO.N,/IO/I2C_SDA*%
X170815000Y-64770000D02*
X170815000Y-81280000D01*
X175895000Y-61076903D02*
X174508097Y-61076903D01*
X165100000Y-86995000D02*
X160020000Y-86995000D01*
%TO.N,/IO/I2C_SCLK*%
X170180000Y-64770000D02*
X170180000Y-81280000D01*
%TO.N,/IO/I2C_SDA*%
X170815000Y-81280000D02*
X165100000Y-86995000D01*
%TO.N,/IO/I2C_SCLK*%
X175895000Y-60325000D02*
X174625000Y-60325000D01*
%TO.N,/IO/I2C_SDA*%
X174508097Y-61076903D02*
X170815000Y-64770000D01*
%TO.N,/IO/I2C_SCLK*%
X170180000Y-81280000D02*
X165100000Y-86360000D01*
%TD*%
%TA.AperFunction,Conductor*%
%TO.N,/3v3*%
G36*
X159377762Y-56957132D02*
G01*
X159445870Y-56977165D01*
X159492338Y-57030842D01*
X159503697Y-57084000D01*
X159387509Y-73931144D01*
X159367039Y-73999123D01*
X159310238Y-74046470D01*
X159185564Y-74098750D01*
X159052160Y-74173460D01*
X158929922Y-74241917D01*
X158883290Y-74268032D01*
X158602122Y-74470444D01*
X158599471Y-74472852D01*
X158599466Y-74472856D01*
X158393091Y-74660314D01*
X158345675Y-74703384D01*
X158117247Y-74963857D01*
X157919772Y-75248515D01*
X157755792Y-75553697D01*
X157627413Y-75875481D01*
X157536287Y-76209729D01*
X157525253Y-76281416D01*
X157491118Y-76503198D01*
X157483584Y-76552145D01*
X157482508Y-76579525D01*
X157470957Y-76873520D01*
X157469982Y-76898326D01*
X157495657Y-77243821D01*
X157560278Y-77584188D01*
X157561338Y-77587603D01*
X157561574Y-77588548D01*
X157558645Y-77659484D01*
X157517830Y-77717576D01*
X157452088Y-77744380D01*
X157410172Y-77741612D01*
X157407708Y-77741026D01*
X157400316Y-77738255D01*
X157392466Y-77737402D01*
X157392465Y-77737402D01*
X157341531Y-77731869D01*
X157338134Y-77731500D01*
X156241866Y-77731500D01*
X156179684Y-77738255D01*
X156043295Y-77789385D01*
X155926739Y-77876739D01*
X155839385Y-77993295D01*
X155788255Y-78129684D01*
X155781500Y-78191866D01*
X155781500Y-79288134D01*
X155788255Y-79350316D01*
X155839385Y-79486705D01*
X155926739Y-79603261D01*
X156043295Y-79690615D01*
X156179684Y-79741745D01*
X156241866Y-79748500D01*
X157338134Y-79748500D01*
X157400316Y-79741745D01*
X157536705Y-79690615D01*
X157653261Y-79603261D01*
X157740615Y-79486705D01*
X157791745Y-79350316D01*
X157798500Y-79288134D01*
X157798500Y-78671615D01*
X157818502Y-78603494D01*
X157872158Y-78557001D01*
X157942432Y-78546897D01*
X158007012Y-78576391D01*
X158025458Y-78596226D01*
X158074928Y-78662474D01*
X158184364Y-78809027D01*
X158186808Y-78811625D01*
X158186813Y-78811631D01*
X158240116Y-78868293D01*
X158421744Y-79061369D01*
X158455328Y-79089800D01*
X158681216Y-79281028D01*
X158686164Y-79285217D01*
X158689128Y-79287197D01*
X158689130Y-79287199D01*
X158893450Y-79423721D01*
X158974225Y-79477693D01*
X158977407Y-79479332D01*
X158977409Y-79479333D01*
X159279040Y-79634684D01*
X159279045Y-79634686D01*
X159282223Y-79636323D01*
X159285564Y-79637589D01*
X159285569Y-79637591D01*
X159433844Y-79693767D01*
X159606199Y-79759066D01*
X159609663Y-79759946D01*
X159609667Y-79759947D01*
X159938519Y-79843465D01*
X159938527Y-79843467D01*
X159941986Y-79844345D01*
X160110779Y-79867317D01*
X160282277Y-79890657D01*
X160282284Y-79890658D01*
X160285270Y-79891064D01*
X160398174Y-79895500D01*
X160612754Y-79895500D01*
X160751975Y-79887594D01*
X160867322Y-79881045D01*
X160867329Y-79881044D01*
X160870890Y-79880842D01*
X161212334Y-79822171D01*
X161215766Y-79821171D01*
X161215769Y-79821170D01*
X161541497Y-79726229D01*
X161541500Y-79726228D01*
X161544941Y-79725225D01*
X161548241Y-79723841D01*
X161548250Y-79723838D01*
X161772781Y-79629684D01*
X161864436Y-79591250D01*
X162166710Y-79421968D01*
X162447878Y-79219556D01*
X162450529Y-79217148D01*
X162450534Y-79217144D01*
X162701675Y-78989023D01*
X162704325Y-78986616D01*
X162932753Y-78726143D01*
X163130228Y-78441485D01*
X163294208Y-78136303D01*
X163301697Y-78117533D01*
X163347908Y-78001703D01*
X163422587Y-77814519D01*
X163513713Y-77480271D01*
X163539752Y-77311094D01*
X163565874Y-77141378D01*
X163565874Y-77141374D01*
X163566416Y-77137855D01*
X163573480Y-76958062D01*
X163579878Y-76795244D01*
X163579878Y-76795239D01*
X163580018Y-76791674D01*
X163560410Y-76527824D01*
X163554608Y-76449741D01*
X163554607Y-76449736D01*
X163554343Y-76446179D01*
X163489722Y-76105812D01*
X163483945Y-76087205D01*
X163419190Y-75878661D01*
X163386986Y-75774947D01*
X163380055Y-75759195D01*
X163248899Y-75461121D01*
X163248897Y-75461116D01*
X163247455Y-75457840D01*
X163072924Y-75158566D01*
X162865636Y-74880973D01*
X162863192Y-74878375D01*
X162863187Y-74878369D01*
X162746946Y-74754802D01*
X162628256Y-74628631D01*
X162480941Y-74503920D01*
X162366558Y-74407087D01*
X162366554Y-74407084D01*
X162363836Y-74404783D01*
X162307823Y-74367356D01*
X162279390Y-74348358D01*
X162075775Y-74212307D01*
X162072591Y-74210667D01*
X162072586Y-74210664D01*
X161993308Y-74169833D01*
X161941906Y-74120860D01*
X161925000Y-74057817D01*
X161925000Y-57084386D01*
X161945002Y-57016265D01*
X161998658Y-56969772D01*
X162051057Y-56958386D01*
X194524567Y-56973624D01*
X203216059Y-56977703D01*
X203284170Y-56997737D01*
X203330638Y-57051414D01*
X203342000Y-57103703D01*
X203342000Y-139835703D01*
X203321998Y-139903824D01*
X203268342Y-139950317D01*
X203215942Y-139961703D01*
X111475972Y-139918655D01*
X111407862Y-139898621D01*
X111361394Y-139844944D01*
X111351323Y-139774665D01*
X111380846Y-139710098D01*
X111386937Y-139703560D01*
X111496198Y-139594299D01*
X111627523Y-139406748D01*
X111629846Y-139401766D01*
X111629849Y-139401761D01*
X111721961Y-139204224D01*
X111721961Y-139204223D01*
X111724284Y-139199242D01*
X111783543Y-138978086D01*
X111803498Y-138749999D01*
X111783543Y-138521912D01*
X111782119Y-138516597D01*
X111725707Y-138306066D01*
X111725706Y-138306064D01*
X111724284Y-138300756D01*
X111710361Y-138270898D01*
X111629849Y-138098237D01*
X111629846Y-138098232D01*
X111627523Y-138093250D01*
X111554098Y-137988388D01*
X111499357Y-137910210D01*
X111499355Y-137910207D01*
X111496198Y-137905699D01*
X111334300Y-137743801D01*
X111329792Y-137740644D01*
X111329789Y-137740642D01*
X111216192Y-137661101D01*
X111146749Y-137612476D01*
X111141767Y-137610153D01*
X111141762Y-137610150D01*
X110944225Y-137518038D01*
X110944224Y-137518038D01*
X110939243Y-137515715D01*
X110933935Y-137514293D01*
X110933933Y-137514292D01*
X110723402Y-137457880D01*
X110723400Y-137457880D01*
X110718087Y-137456456D01*
X110490000Y-137436501D01*
X110261913Y-137456456D01*
X110256600Y-137457880D01*
X110256598Y-137457880D01*
X110046067Y-137514292D01*
X110046065Y-137514293D01*
X110040757Y-137515715D01*
X110035776Y-137518038D01*
X110035775Y-137518038D01*
X109838238Y-137610150D01*
X109838233Y-137610153D01*
X109833251Y-137612476D01*
X109763808Y-137661101D01*
X109650211Y-137740642D01*
X109650208Y-137740644D01*
X109645700Y-137743801D01*
X109483802Y-137905699D01*
X109480645Y-137910207D01*
X109480643Y-137910210D01*
X109425902Y-137988388D01*
X109352477Y-138093250D01*
X109350154Y-138098232D01*
X109350151Y-138098237D01*
X109269639Y-138270898D01*
X109255716Y-138300756D01*
X109254294Y-138306064D01*
X109254293Y-138306066D01*
X109197881Y-138516597D01*
X109196457Y-138521912D01*
X109176502Y-138749999D01*
X109196457Y-138978086D01*
X109255716Y-139199242D01*
X109258039Y-139204223D01*
X109258039Y-139204224D01*
X109350151Y-139401761D01*
X109350154Y-139401766D01*
X109352477Y-139406748D01*
X109483802Y-139594299D01*
X109592136Y-139702633D01*
X109626162Y-139764945D01*
X109621097Y-139835760D01*
X109578550Y-139892596D01*
X109512030Y-139917407D01*
X109502982Y-139917728D01*
X108583941Y-139917297D01*
X108515830Y-139897263D01*
X108469362Y-139843586D01*
X108458000Y-139791297D01*
X108458000Y-136504277D01*
X198434009Y-136504277D01*
X198459625Y-136772769D01*
X198460710Y-136777203D01*
X198460711Y-136777209D01*
X198522645Y-137030312D01*
X198523731Y-137034750D01*
X198624985Y-137284733D01*
X198761265Y-137517482D01*
X198873377Y-137657671D01*
X198881686Y-137668060D01*
X198929716Y-137728119D01*
X199126809Y-137912234D01*
X199348416Y-138065968D01*
X199352499Y-138067999D01*
X199352502Y-138068001D01*
X199468013Y-138125466D01*
X199589894Y-138186101D01*
X199594228Y-138187522D01*
X199594231Y-138187523D01*
X199841853Y-138268698D01*
X199841859Y-138268699D01*
X199846186Y-138270118D01*
X199850677Y-138270898D01*
X199850678Y-138270898D01*
X200108140Y-138315601D01*
X200108148Y-138315602D01*
X200111921Y-138316257D01*
X200115758Y-138316448D01*
X200195578Y-138320422D01*
X200195586Y-138320422D01*
X200197149Y-138320500D01*
X200365512Y-138320500D01*
X200367780Y-138320335D01*
X200367792Y-138320335D01*
X200498884Y-138310823D01*
X200566004Y-138305953D01*
X200570459Y-138304969D01*
X200570462Y-138304969D01*
X200824912Y-138248791D01*
X200824916Y-138248790D01*
X200829372Y-138247806D01*
X200955480Y-138200028D01*
X201077318Y-138153868D01*
X201077321Y-138153867D01*
X201081588Y-138152250D01*
X201317368Y-138021286D01*
X201531773Y-137857657D01*
X201720312Y-137664792D01*
X201879034Y-137446730D01*
X201962190Y-137288676D01*
X202002490Y-137212079D01*
X202002493Y-137212073D01*
X202004615Y-137208039D01*
X202067378Y-137030312D01*
X202092902Y-136958033D01*
X202092902Y-136958032D01*
X202094425Y-136953720D01*
X202146581Y-136689100D01*
X202155782Y-136504277D01*
X202159764Y-136424292D01*
X202159764Y-136424286D01*
X202159991Y-136419723D01*
X202134375Y-136151231D01*
X202094871Y-135989788D01*
X202071355Y-135893688D01*
X202070269Y-135889250D01*
X201969015Y-135639267D01*
X201832735Y-135406518D01*
X201714928Y-135259208D01*
X201667136Y-135199447D01*
X201667135Y-135199445D01*
X201664284Y-135195881D01*
X201467191Y-135011766D01*
X201245584Y-134858032D01*
X201241501Y-134856001D01*
X201241498Y-134855999D01*
X201076606Y-134773967D01*
X201004106Y-134737899D01*
X200999772Y-134736478D01*
X200999769Y-134736477D01*
X200752147Y-134655302D01*
X200752141Y-134655301D01*
X200747814Y-134653882D01*
X200743322Y-134653102D01*
X200485860Y-134608399D01*
X200485852Y-134608398D01*
X200482079Y-134607743D01*
X200470817Y-134607182D01*
X200398422Y-134603578D01*
X200398414Y-134603578D01*
X200396851Y-134603500D01*
X200228488Y-134603500D01*
X200226220Y-134603665D01*
X200226208Y-134603665D01*
X200095116Y-134613177D01*
X200027996Y-134618047D01*
X200023541Y-134619031D01*
X200023538Y-134619031D01*
X199769088Y-134675209D01*
X199769084Y-134675210D01*
X199764628Y-134676194D01*
X199699798Y-134700756D01*
X199516682Y-134770132D01*
X199516679Y-134770133D01*
X199512412Y-134771750D01*
X199276632Y-134902714D01*
X199062227Y-135066343D01*
X198873688Y-135259208D01*
X198714966Y-135477270D01*
X198712844Y-135481304D01*
X198591510Y-135711921D01*
X198591507Y-135711927D01*
X198589385Y-135715961D01*
X198587865Y-135720266D01*
X198587863Y-135720270D01*
X198501098Y-135965967D01*
X198499575Y-135970280D01*
X198498692Y-135974762D01*
X198462309Y-136159356D01*
X198447419Y-136234900D01*
X198447192Y-136239453D01*
X198447192Y-136239456D01*
X198437009Y-136444021D01*
X198434009Y-136504277D01*
X108458000Y-136504277D01*
X108458000Y-135149999D01*
X109176502Y-135149999D01*
X109196457Y-135378086D01*
X109197881Y-135383399D01*
X109197881Y-135383401D01*
X109203120Y-135402951D01*
X109255716Y-135599242D01*
X109258039Y-135604223D01*
X109258039Y-135604224D01*
X109350151Y-135801761D01*
X109350154Y-135801766D01*
X109352477Y-135806748D01*
X109355634Y-135811256D01*
X109466984Y-135970280D01*
X109483802Y-135994299D01*
X109645700Y-136156197D01*
X109650208Y-136159354D01*
X109650211Y-136159356D01*
X109728389Y-136214097D01*
X109833251Y-136287522D01*
X109838233Y-136289845D01*
X109838238Y-136289848D01*
X110035775Y-136381960D01*
X110040757Y-136384283D01*
X110046065Y-136385705D01*
X110046067Y-136385706D01*
X110256598Y-136442118D01*
X110256600Y-136442118D01*
X110261913Y-136443542D01*
X110490000Y-136463497D01*
X110718087Y-136443542D01*
X110723400Y-136442118D01*
X110723402Y-136442118D01*
X110933933Y-136385706D01*
X110933935Y-136385705D01*
X110939243Y-136384283D01*
X110944225Y-136381960D01*
X111141762Y-136289848D01*
X111141767Y-136289845D01*
X111146749Y-136287522D01*
X111251611Y-136214097D01*
X111329789Y-136159356D01*
X111329792Y-136159354D01*
X111334300Y-136156197D01*
X111496198Y-135994299D01*
X111513017Y-135970280D01*
X111624366Y-135811256D01*
X111627523Y-135806748D01*
X111629846Y-135801766D01*
X111629849Y-135801761D01*
X111721961Y-135604224D01*
X111721961Y-135604223D01*
X111724284Y-135599242D01*
X111776881Y-135402951D01*
X111782119Y-135383401D01*
X111782119Y-135383399D01*
X111783543Y-135378086D01*
X111803498Y-135149999D01*
X111783543Y-134921912D01*
X111743307Y-134771750D01*
X111725707Y-134706066D01*
X111725706Y-134706064D01*
X111724284Y-134700756D01*
X111712371Y-134675209D01*
X111629849Y-134498237D01*
X111629846Y-134498232D01*
X111627523Y-134493250D01*
X111496198Y-134305699D01*
X111334300Y-134143801D01*
X111329792Y-134140644D01*
X111329789Y-134140642D01*
X111251611Y-134085901D01*
X111146749Y-134012476D01*
X111141767Y-134010153D01*
X111141762Y-134010150D01*
X110944225Y-133918038D01*
X110944224Y-133918038D01*
X110939243Y-133915715D01*
X110933935Y-133914293D01*
X110933933Y-133914292D01*
X110808843Y-133880774D01*
X136433102Y-133880774D01*
X136441751Y-134111158D01*
X136489093Y-134336791D01*
X136491051Y-134341750D01*
X136491052Y-134341752D01*
X136549102Y-134488742D01*
X136573776Y-134551221D01*
X136576543Y-134555780D01*
X136576544Y-134555783D01*
X136614127Y-134617717D01*
X136693377Y-134748317D01*
X136696874Y-134752347D01*
X136829761Y-134905486D01*
X136844477Y-134922445D01*
X136886030Y-134956516D01*
X137018627Y-135065240D01*
X137018633Y-135065244D01*
X137022755Y-135068624D01*
X137027391Y-135071263D01*
X137027394Y-135071265D01*
X137136422Y-135133327D01*
X137223114Y-135182675D01*
X137439825Y-135261337D01*
X137445074Y-135262286D01*
X137445077Y-135262287D01*
X137662608Y-135301623D01*
X137662615Y-135301624D01*
X137666692Y-135302361D01*
X137684414Y-135303197D01*
X137689356Y-135303430D01*
X137689363Y-135303430D01*
X137690844Y-135303500D01*
X137852890Y-135303500D01*
X137919809Y-135297822D01*
X138019409Y-135289371D01*
X138019413Y-135289370D01*
X138024720Y-135288920D01*
X138029875Y-135287582D01*
X138029881Y-135287581D01*
X138242703Y-135232343D01*
X138242707Y-135232342D01*
X138247872Y-135231001D01*
X138252738Y-135228809D01*
X138252741Y-135228808D01*
X138453202Y-135138507D01*
X138458075Y-135136312D01*
X138649319Y-135007559D01*
X138816135Y-134848424D01*
X138953754Y-134663458D01*
X138959020Y-134653102D01*
X139013342Y-134546256D01*
X139058240Y-134457949D01*
X139094321Y-134341752D01*
X139125024Y-134242871D01*
X139126607Y-134237773D01*
X139139062Y-134143801D01*
X139156198Y-134014511D01*
X139156198Y-134014506D01*
X139156898Y-134009226D01*
X139148249Y-133778842D01*
X139100907Y-133553209D01*
X139016224Y-133338779D01*
X138896623Y-133141683D01*
X138809755Y-133041576D01*
X138749023Y-132971588D01*
X138749021Y-132971586D01*
X138745523Y-132967555D01*
X138703970Y-132933484D01*
X138571373Y-132824760D01*
X138571367Y-132824756D01*
X138567245Y-132821376D01*
X138562609Y-132818737D01*
X138562606Y-132818735D01*
X138371529Y-132709968D01*
X138366886Y-132707325D01*
X138150175Y-132628663D01*
X138144926Y-132627714D01*
X138144923Y-132627713D01*
X137927392Y-132588377D01*
X137927385Y-132588376D01*
X137923308Y-132587639D01*
X137905586Y-132586803D01*
X137900644Y-132586570D01*
X137900637Y-132586570D01*
X137899156Y-132586500D01*
X137737110Y-132586500D01*
X137670191Y-132592178D01*
X137570591Y-132600629D01*
X137570587Y-132600630D01*
X137565280Y-132601080D01*
X137560125Y-132602418D01*
X137560119Y-132602419D01*
X137347297Y-132657657D01*
X137347293Y-132657658D01*
X137342128Y-132658999D01*
X137337262Y-132661191D01*
X137337259Y-132661192D01*
X137228980Y-132709968D01*
X137131925Y-132753688D01*
X136940681Y-132882441D01*
X136773865Y-133041576D01*
X136636246Y-133226542D01*
X136531760Y-133432051D01*
X136530178Y-133437145D01*
X136530177Y-133437148D01*
X136468115Y-133637020D01*
X136463393Y-133652227D01*
X136462692Y-133657516D01*
X136436389Y-133855977D01*
X136433102Y-133880774D01*
X110808843Y-133880774D01*
X110723402Y-133857880D01*
X110723400Y-133857880D01*
X110718087Y-133856456D01*
X110490000Y-133836501D01*
X110261913Y-133856456D01*
X110256600Y-133857880D01*
X110256598Y-133857880D01*
X110046067Y-133914292D01*
X110046065Y-133914293D01*
X110040757Y-133915715D01*
X110035776Y-133918038D01*
X110035775Y-133918038D01*
X109838238Y-134010150D01*
X109838233Y-134010153D01*
X109833251Y-134012476D01*
X109728389Y-134085901D01*
X109650211Y-134140642D01*
X109650208Y-134140644D01*
X109645700Y-134143801D01*
X109483802Y-134305699D01*
X109352477Y-134493250D01*
X109350154Y-134498232D01*
X109350151Y-134498237D01*
X109267629Y-134675209D01*
X109255716Y-134700756D01*
X109254294Y-134706064D01*
X109254293Y-134706066D01*
X109236693Y-134771750D01*
X109196457Y-134921912D01*
X109176502Y-135149999D01*
X108458000Y-135149999D01*
X108458000Y-131549999D01*
X109176502Y-131549999D01*
X109196457Y-131778086D01*
X109255716Y-131999242D01*
X109258039Y-132004223D01*
X109258039Y-132004224D01*
X109350151Y-132201761D01*
X109350154Y-132201766D01*
X109352477Y-132206748D01*
X109483802Y-132394299D01*
X109645700Y-132556197D01*
X109650208Y-132559354D01*
X109650211Y-132559356D01*
X109709155Y-132600629D01*
X109833251Y-132687522D01*
X109838233Y-132689845D01*
X109838238Y-132689848D01*
X110035775Y-132781960D01*
X110040757Y-132784283D01*
X110046065Y-132785705D01*
X110046067Y-132785706D01*
X110256598Y-132842118D01*
X110256600Y-132842118D01*
X110261913Y-132843542D01*
X110490000Y-132863497D01*
X110718087Y-132843542D01*
X110723400Y-132842118D01*
X110723402Y-132842118D01*
X110933933Y-132785706D01*
X110933935Y-132785705D01*
X110939243Y-132784283D01*
X110944225Y-132781960D01*
X111141762Y-132689848D01*
X111141767Y-132689845D01*
X111146749Y-132687522D01*
X111270845Y-132600629D01*
X111329789Y-132559356D01*
X111329792Y-132559354D01*
X111334300Y-132556197D01*
X111496198Y-132394299D01*
X111627523Y-132206748D01*
X111629846Y-132201766D01*
X111629849Y-132201761D01*
X111721961Y-132004224D01*
X111721961Y-132004223D01*
X111724284Y-131999242D01*
X111783543Y-131778086D01*
X111803498Y-131549999D01*
X111783543Y-131321912D01*
X111724284Y-131100756D01*
X111721961Y-131095774D01*
X111629849Y-130898237D01*
X111629846Y-130898232D01*
X111627523Y-130893250D01*
X111496198Y-130705699D01*
X111334300Y-130543801D01*
X111329792Y-130540644D01*
X111329789Y-130540642D01*
X111251611Y-130485901D01*
X111146749Y-130412476D01*
X111141767Y-130410153D01*
X111141762Y-130410150D01*
X110944225Y-130318038D01*
X110944224Y-130318038D01*
X110939243Y-130315715D01*
X110933935Y-130314293D01*
X110933933Y-130314292D01*
X110723402Y-130257880D01*
X110723400Y-130257880D01*
X110718087Y-130256456D01*
X110490000Y-130236501D01*
X110261913Y-130256456D01*
X110256600Y-130257880D01*
X110256598Y-130257880D01*
X110046067Y-130314292D01*
X110046065Y-130314293D01*
X110040757Y-130315715D01*
X110035776Y-130318038D01*
X110035775Y-130318038D01*
X109838238Y-130410150D01*
X109838233Y-130410153D01*
X109833251Y-130412476D01*
X109728389Y-130485901D01*
X109650211Y-130540642D01*
X109650208Y-130540644D01*
X109645700Y-130543801D01*
X109483802Y-130705699D01*
X109352477Y-130893250D01*
X109350154Y-130898232D01*
X109350151Y-130898237D01*
X109258039Y-131095774D01*
X109255716Y-131100756D01*
X109196457Y-131321912D01*
X109176502Y-131549999D01*
X108458000Y-131549999D01*
X108458000Y-128547094D01*
X109182001Y-128547094D01*
X109182338Y-128553613D01*
X109192257Y-128649205D01*
X109195149Y-128662599D01*
X109246588Y-128816783D01*
X109252761Y-128829961D01*
X109338063Y-128967806D01*
X109347099Y-128979207D01*
X109461829Y-129093738D01*
X109473240Y-129102750D01*
X109611243Y-129187815D01*
X109624424Y-129193962D01*
X109778710Y-129245137D01*
X109792086Y-129248004D01*
X109886438Y-129257671D01*
X109892854Y-129257999D01*
X110217885Y-129257999D01*
X110233124Y-129253524D01*
X110234329Y-129252134D01*
X110236000Y-129244451D01*
X110236000Y-129239883D01*
X110744000Y-129239883D01*
X110748475Y-129255122D01*
X110749865Y-129256327D01*
X110757548Y-129257998D01*
X111087095Y-129257998D01*
X111093614Y-129257661D01*
X111189206Y-129247742D01*
X111202600Y-129244850D01*
X111356784Y-129193411D01*
X111369962Y-129187238D01*
X111507807Y-129101936D01*
X111519208Y-129092900D01*
X111633739Y-128978170D01*
X111642751Y-128966759D01*
X111727816Y-128828756D01*
X111733963Y-128815575D01*
X111785138Y-128661289D01*
X111788005Y-128647913D01*
X111797672Y-128553561D01*
X111798000Y-128547145D01*
X111798000Y-128222114D01*
X111793525Y-128206875D01*
X111792135Y-128205670D01*
X111784452Y-128203999D01*
X110762115Y-128203999D01*
X110746876Y-128208474D01*
X110745671Y-128209864D01*
X110744000Y-128217547D01*
X110744000Y-129239883D01*
X110236000Y-129239883D01*
X110236000Y-128222114D01*
X110231525Y-128206875D01*
X110230135Y-128205670D01*
X110222452Y-128203999D01*
X109200116Y-128203999D01*
X109184877Y-128208474D01*
X109183672Y-128209864D01*
X109182001Y-128217547D01*
X109182001Y-128547094D01*
X108458000Y-128547094D01*
X108458000Y-127677884D01*
X109182000Y-127677884D01*
X109186475Y-127693123D01*
X109187865Y-127694328D01*
X109195548Y-127695999D01*
X110217885Y-127695999D01*
X110233124Y-127691524D01*
X110234329Y-127690134D01*
X110236000Y-127682451D01*
X110236000Y-127677884D01*
X110744000Y-127677884D01*
X110748475Y-127693123D01*
X110749865Y-127694328D01*
X110757548Y-127695999D01*
X111779884Y-127695999D01*
X111795123Y-127691524D01*
X111796328Y-127690134D01*
X111797999Y-127682451D01*
X111797999Y-127352904D01*
X111797662Y-127346385D01*
X111787743Y-127250793D01*
X111784851Y-127237399D01*
X111733412Y-127083215D01*
X111727239Y-127070037D01*
X111641937Y-126932192D01*
X111632901Y-126920791D01*
X111592814Y-126880774D01*
X136433102Y-126880774D01*
X136433302Y-126886103D01*
X136433302Y-126886105D01*
X136434317Y-126913134D01*
X136441751Y-127111158D01*
X136442846Y-127116377D01*
X136464815Y-127221081D01*
X136489093Y-127336791D01*
X136491051Y-127341750D01*
X136491052Y-127341752D01*
X136495437Y-127352854D01*
X136573776Y-127551221D01*
X136693377Y-127748317D01*
X136696874Y-127752347D01*
X136783438Y-127852103D01*
X136844477Y-127922445D01*
X136848608Y-127925832D01*
X137018627Y-128065240D01*
X137018633Y-128065244D01*
X137022755Y-128068624D01*
X137027391Y-128071263D01*
X137027394Y-128071265D01*
X137136422Y-128133327D01*
X137223114Y-128182675D01*
X137439825Y-128261337D01*
X137445074Y-128262286D01*
X137445077Y-128262287D01*
X137662608Y-128301623D01*
X137662615Y-128301624D01*
X137666692Y-128302361D01*
X137684414Y-128303197D01*
X137689356Y-128303430D01*
X137689363Y-128303430D01*
X137690844Y-128303500D01*
X137852890Y-128303500D01*
X137919809Y-128297822D01*
X138019409Y-128289371D01*
X138019413Y-128289370D01*
X138024720Y-128288920D01*
X138029875Y-128287582D01*
X138029881Y-128287581D01*
X138242703Y-128232343D01*
X138242707Y-128232342D01*
X138247872Y-128231001D01*
X138252738Y-128228809D01*
X138252741Y-128228808D01*
X138453202Y-128138507D01*
X138458075Y-128136312D01*
X138649319Y-128007559D01*
X138816135Y-127848424D01*
X138953754Y-127663458D01*
X139058240Y-127457949D01*
X139084463Y-127373500D01*
X139125024Y-127242871D01*
X139126607Y-127237773D01*
X139128819Y-127221081D01*
X139156198Y-127014511D01*
X139156198Y-127014506D01*
X139156898Y-127009226D01*
X139153291Y-126913134D01*
X194571500Y-126913134D01*
X194578255Y-126975316D01*
X194629385Y-127111705D01*
X194716739Y-127228261D01*
X194833295Y-127315615D01*
X194969684Y-127366745D01*
X195031866Y-127373500D01*
X196128134Y-127373500D01*
X196190316Y-127366745D01*
X196326705Y-127315615D01*
X196443261Y-127228261D01*
X196530615Y-127111705D01*
X196581745Y-126975316D01*
X196588500Y-126913134D01*
X200921500Y-126913134D01*
X200928255Y-126975316D01*
X200979385Y-127111705D01*
X201066739Y-127228261D01*
X201183295Y-127315615D01*
X201319684Y-127366745D01*
X201381866Y-127373500D01*
X202478134Y-127373500D01*
X202540316Y-127366745D01*
X202676705Y-127315615D01*
X202793261Y-127228261D01*
X202880615Y-127111705D01*
X202931745Y-126975316D01*
X202938500Y-126913134D01*
X202938500Y-125816866D01*
X202931745Y-125754684D01*
X202880615Y-125618295D01*
X202793261Y-125501739D01*
X202676705Y-125414385D01*
X202540316Y-125363255D01*
X202478134Y-125356500D01*
X201381866Y-125356500D01*
X201319684Y-125363255D01*
X201183295Y-125414385D01*
X201066739Y-125501739D01*
X200979385Y-125618295D01*
X200928255Y-125754684D01*
X200921500Y-125816866D01*
X200921500Y-126913134D01*
X196588500Y-126913134D01*
X196588500Y-125816866D01*
X196581745Y-125754684D01*
X196530615Y-125618295D01*
X196443261Y-125501739D01*
X196326705Y-125414385D01*
X196190316Y-125363255D01*
X196128134Y-125356500D01*
X195031866Y-125356500D01*
X194969684Y-125363255D01*
X194833295Y-125414385D01*
X194716739Y-125501739D01*
X194629385Y-125618295D01*
X194578255Y-125754684D01*
X194571500Y-125816866D01*
X194571500Y-126913134D01*
X139153291Y-126913134D01*
X139148249Y-126778842D01*
X139100907Y-126553209D01*
X139098948Y-126548248D01*
X139018185Y-126343744D01*
X139018184Y-126343742D01*
X139016224Y-126338779D01*
X138896623Y-126141683D01*
X138809755Y-126041576D01*
X138749023Y-125971588D01*
X138749021Y-125971586D01*
X138745523Y-125967555D01*
X138703970Y-125933484D01*
X138571373Y-125824760D01*
X138571367Y-125824756D01*
X138567245Y-125821376D01*
X138562609Y-125818737D01*
X138562606Y-125818735D01*
X138371529Y-125709968D01*
X138366886Y-125707325D01*
X138150175Y-125628663D01*
X138144926Y-125627714D01*
X138144923Y-125627713D01*
X137927392Y-125588377D01*
X137927385Y-125588376D01*
X137923308Y-125587639D01*
X137905586Y-125586803D01*
X137900644Y-125586570D01*
X137900637Y-125586570D01*
X137899156Y-125586500D01*
X137737110Y-125586500D01*
X137670191Y-125592178D01*
X137570591Y-125600629D01*
X137570587Y-125600630D01*
X137565280Y-125601080D01*
X137560125Y-125602418D01*
X137560119Y-125602419D01*
X137347297Y-125657657D01*
X137347293Y-125657658D01*
X137342128Y-125658999D01*
X137337262Y-125661191D01*
X137337259Y-125661192D01*
X137228980Y-125709968D01*
X137131925Y-125753688D01*
X136940681Y-125882441D01*
X136773865Y-126041576D01*
X136636246Y-126226542D01*
X136531760Y-126432051D01*
X136530178Y-126437145D01*
X136530177Y-126437148D01*
X136468115Y-126637020D01*
X136463393Y-126652227D01*
X136462692Y-126657516D01*
X136442867Y-126807098D01*
X136433102Y-126880774D01*
X111592814Y-126880774D01*
X111518171Y-126806260D01*
X111506760Y-126797248D01*
X111368757Y-126712183D01*
X111355576Y-126706036D01*
X111201290Y-126654861D01*
X111187914Y-126651994D01*
X111093562Y-126642327D01*
X111087145Y-126641999D01*
X110762115Y-126641999D01*
X110746876Y-126646474D01*
X110745671Y-126647864D01*
X110744000Y-126655547D01*
X110744000Y-127677884D01*
X110236000Y-127677884D01*
X110236000Y-126660115D01*
X110231525Y-126644876D01*
X110230135Y-126643671D01*
X110222452Y-126642000D01*
X109892905Y-126642000D01*
X109886386Y-126642337D01*
X109790794Y-126652256D01*
X109777400Y-126655148D01*
X109623216Y-126706587D01*
X109610038Y-126712760D01*
X109472193Y-126798062D01*
X109460792Y-126807098D01*
X109346261Y-126921828D01*
X109337249Y-126933239D01*
X109252184Y-127071242D01*
X109246037Y-127084423D01*
X109194862Y-127238709D01*
X109191995Y-127252085D01*
X109182328Y-127346437D01*
X109182000Y-127352854D01*
X109182000Y-127677884D01*
X108458000Y-127677884D01*
X108458000Y-126491000D01*
X108478002Y-126422879D01*
X108531658Y-126376386D01*
X108584000Y-126365000D01*
X131445000Y-126365000D01*
X131445000Y-125095000D01*
X108584000Y-125095000D01*
X108515879Y-125074998D01*
X108469386Y-125021342D01*
X108458000Y-124969000D01*
X108458000Y-121833134D01*
X161551500Y-121833134D01*
X161558255Y-121895316D01*
X161609385Y-122031705D01*
X161696739Y-122148261D01*
X161813295Y-122235615D01*
X161949684Y-122286745D01*
X162011866Y-122293500D01*
X163108134Y-122293500D01*
X163170316Y-122286745D01*
X163306705Y-122235615D01*
X163423261Y-122148261D01*
X163510615Y-122031705D01*
X163561745Y-121895316D01*
X163568500Y-121833134D01*
X163568500Y-120736866D01*
X163561745Y-120674684D01*
X163510615Y-120538295D01*
X163423261Y-120421739D01*
X163306705Y-120334385D01*
X163170316Y-120283255D01*
X163108134Y-120276500D01*
X162011866Y-120276500D01*
X161949684Y-120283255D01*
X161813295Y-120334385D01*
X161696739Y-120421739D01*
X161609385Y-120538295D01*
X161558255Y-120674684D01*
X161551500Y-120736866D01*
X161551500Y-121833134D01*
X108458000Y-121833134D01*
X108458000Y-119420134D01*
X148343500Y-119420134D01*
X148350255Y-119482316D01*
X148401385Y-119618705D01*
X148488739Y-119735261D01*
X148605295Y-119822615D01*
X148741684Y-119873745D01*
X148803866Y-119880500D01*
X149900134Y-119880500D01*
X149962316Y-119873745D01*
X150098705Y-119822615D01*
X150215261Y-119735261D01*
X150302615Y-119618705D01*
X150353745Y-119482316D01*
X150360500Y-119420134D01*
X150360500Y-118323866D01*
X150353745Y-118261684D01*
X150302615Y-118125295D01*
X150215261Y-118008739D01*
X150098705Y-117921385D01*
X149962316Y-117870255D01*
X149900134Y-117863500D01*
X148803866Y-117863500D01*
X148741684Y-117870255D01*
X148605295Y-117921385D01*
X148488739Y-118008739D01*
X148401385Y-118125295D01*
X148350255Y-118261684D01*
X148343500Y-118323866D01*
X148343500Y-119420134D01*
X108458000Y-119420134D01*
X108458000Y-118658134D01*
X108846500Y-118658134D01*
X108853255Y-118720316D01*
X108904385Y-118856705D01*
X108991739Y-118973261D01*
X109108295Y-119060615D01*
X109244684Y-119111745D01*
X109306866Y-119118500D01*
X110403134Y-119118500D01*
X110465316Y-119111745D01*
X110601705Y-119060615D01*
X110718261Y-118973261D01*
X110805615Y-118856705D01*
X110856745Y-118720316D01*
X110863500Y-118658134D01*
X110863500Y-117561866D01*
X110856745Y-117499684D01*
X110805615Y-117363295D01*
X110718261Y-117246739D01*
X110601705Y-117159385D01*
X110465316Y-117108255D01*
X110403134Y-117101500D01*
X109306866Y-117101500D01*
X109244684Y-117108255D01*
X109108295Y-117159385D01*
X108991739Y-117246739D01*
X108904385Y-117363295D01*
X108853255Y-117499684D01*
X108846500Y-117561866D01*
X108846500Y-118658134D01*
X108458000Y-118658134D01*
X108458000Y-113578134D01*
X138691500Y-113578134D01*
X138698255Y-113640316D01*
X138749385Y-113776705D01*
X138836739Y-113893261D01*
X138953295Y-113980615D01*
X139089684Y-114031745D01*
X139151866Y-114038500D01*
X140248134Y-114038500D01*
X140310316Y-114031745D01*
X140446705Y-113980615D01*
X140563261Y-113893261D01*
X140609073Y-113832134D01*
X153931500Y-113832134D01*
X153938255Y-113894316D01*
X153989385Y-114030705D01*
X154076739Y-114147261D01*
X154193295Y-114234615D01*
X154329684Y-114285745D01*
X154391866Y-114292500D01*
X155488134Y-114292500D01*
X155550316Y-114285745D01*
X155686705Y-114234615D01*
X155803261Y-114147261D01*
X155890615Y-114030705D01*
X155941745Y-113894316D01*
X155948500Y-113832134D01*
X155948500Y-112735866D01*
X155941745Y-112673684D01*
X155890615Y-112537295D01*
X155803261Y-112420739D01*
X155686705Y-112333385D01*
X155550316Y-112282255D01*
X155488134Y-112275500D01*
X154391866Y-112275500D01*
X154329684Y-112282255D01*
X154193295Y-112333385D01*
X154076739Y-112420739D01*
X153989385Y-112537295D01*
X153938255Y-112673684D01*
X153931500Y-112735866D01*
X153931500Y-113832134D01*
X140609073Y-113832134D01*
X140650615Y-113776705D01*
X140701745Y-113640316D01*
X140708500Y-113578134D01*
X140708500Y-112481866D01*
X140701745Y-112419684D01*
X140650615Y-112283295D01*
X140563261Y-112166739D01*
X140446705Y-112079385D01*
X140310316Y-112028255D01*
X140248134Y-112021500D01*
X139151866Y-112021500D01*
X139089684Y-112028255D01*
X138953295Y-112079385D01*
X138836739Y-112166739D01*
X138749385Y-112283295D01*
X138698255Y-112419684D01*
X138691500Y-112481866D01*
X138691500Y-113578134D01*
X108458000Y-113578134D01*
X108458000Y-109898326D01*
X109469982Y-109898326D01*
X109495657Y-110243821D01*
X109560278Y-110584188D01*
X109663014Y-110915053D01*
X109664455Y-110918327D01*
X109664455Y-110918328D01*
X109760367Y-111136303D01*
X109802545Y-111232160D01*
X109977076Y-111531434D01*
X110184364Y-111809027D01*
X110186808Y-111811625D01*
X110186813Y-111811631D01*
X110303054Y-111935198D01*
X110421744Y-112061369D01*
X110449388Y-112084771D01*
X110681658Y-112281402D01*
X110686164Y-112285217D01*
X110689128Y-112287197D01*
X110689130Y-112287199D01*
X110899733Y-112427919D01*
X110974225Y-112477693D01*
X110977407Y-112479332D01*
X110977409Y-112479333D01*
X111279040Y-112634684D01*
X111279045Y-112634686D01*
X111282223Y-112636323D01*
X111285564Y-112637589D01*
X111285569Y-112637591D01*
X111513216Y-112723838D01*
X111606199Y-112759066D01*
X111609663Y-112759946D01*
X111609667Y-112759947D01*
X111938519Y-112843465D01*
X111938527Y-112843467D01*
X111941986Y-112844345D01*
X112110779Y-112867317D01*
X112282277Y-112890657D01*
X112282284Y-112890658D01*
X112285270Y-112891064D01*
X112398174Y-112895500D01*
X112612754Y-112895500D01*
X112751975Y-112887594D01*
X112867322Y-112881045D01*
X112867329Y-112881044D01*
X112870890Y-112880842D01*
X113212334Y-112822171D01*
X113215766Y-112821171D01*
X113215769Y-112821170D01*
X113541497Y-112726229D01*
X113541500Y-112726228D01*
X113544941Y-112725225D01*
X113548241Y-112723841D01*
X113548250Y-112723838D01*
X113804314Y-112616461D01*
X113864436Y-112591250D01*
X114166710Y-112421968D01*
X114447878Y-112219556D01*
X114450529Y-112217148D01*
X114450534Y-112217144D01*
X114701675Y-111989023D01*
X114704325Y-111986616D01*
X114932753Y-111726143D01*
X115130228Y-111441485D01*
X115294208Y-111136303D01*
X115422587Y-110814519D01*
X115513713Y-110480271D01*
X115550106Y-110243821D01*
X115565874Y-110141378D01*
X115565874Y-110141374D01*
X115566416Y-110137855D01*
X115575688Y-109901886D01*
X115575828Y-109898326D01*
X157469982Y-109898326D01*
X157495657Y-110243821D01*
X157560278Y-110584188D01*
X157663014Y-110915053D01*
X157664455Y-110918327D01*
X157664455Y-110918328D01*
X157760367Y-111136303D01*
X157802545Y-111232160D01*
X157977076Y-111531434D01*
X158184364Y-111809027D01*
X158186808Y-111811625D01*
X158186813Y-111811631D01*
X158303054Y-111935198D01*
X158421744Y-112061369D01*
X158449388Y-112084771D01*
X158681658Y-112281402D01*
X158686164Y-112285217D01*
X158689128Y-112287197D01*
X158689130Y-112287199D01*
X158899733Y-112427919D01*
X158974225Y-112477693D01*
X158977407Y-112479332D01*
X158977409Y-112479333D01*
X159279040Y-112634684D01*
X159279045Y-112634686D01*
X159282223Y-112636323D01*
X159285564Y-112637589D01*
X159285569Y-112637591D01*
X159513216Y-112723838D01*
X159606199Y-112759066D01*
X159609663Y-112759946D01*
X159609667Y-112759947D01*
X159938519Y-112843465D01*
X159938527Y-112843467D01*
X159941986Y-112844345D01*
X160110779Y-112867317D01*
X160282277Y-112890657D01*
X160282284Y-112890658D01*
X160285270Y-112891064D01*
X160398174Y-112895500D01*
X160612754Y-112895500D01*
X160751975Y-112887594D01*
X160867322Y-112881045D01*
X160867329Y-112881044D01*
X160870890Y-112880842D01*
X161212334Y-112822171D01*
X161215766Y-112821171D01*
X161215769Y-112821170D01*
X161541497Y-112726229D01*
X161541500Y-112726228D01*
X161544941Y-112725225D01*
X161548241Y-112723841D01*
X161548250Y-112723838D01*
X161804314Y-112616461D01*
X161864436Y-112591250D01*
X162166710Y-112421968D01*
X162447878Y-112219556D01*
X162450529Y-112217148D01*
X162450534Y-112217144D01*
X162701675Y-111989023D01*
X162704325Y-111986616D01*
X162932753Y-111726143D01*
X163130228Y-111441485D01*
X163294208Y-111136303D01*
X163422587Y-110814519D01*
X163513713Y-110480271D01*
X163550106Y-110243821D01*
X163565874Y-110141378D01*
X163565874Y-110141374D01*
X163566416Y-110137855D01*
X163575688Y-109901886D01*
X163579878Y-109795244D01*
X163579878Y-109795239D01*
X163580018Y-109791674D01*
X163554343Y-109446179D01*
X163489722Y-109105812D01*
X163485136Y-109091040D01*
X163419275Y-108878934D01*
X163386986Y-108774947D01*
X163291097Y-108557023D01*
X163248899Y-108461121D01*
X163248897Y-108461116D01*
X163247455Y-108457840D01*
X163072924Y-108158566D01*
X162865636Y-107880973D01*
X162863192Y-107878375D01*
X162863187Y-107878369D01*
X162698686Y-107703500D01*
X162628256Y-107628631D01*
X162421551Y-107453642D01*
X162366558Y-107407087D01*
X162366554Y-107407084D01*
X162363836Y-107404783D01*
X162241884Y-107323297D01*
X162078752Y-107214296D01*
X162078750Y-107214295D01*
X162075775Y-107212307D01*
X162027532Y-107187460D01*
X161770960Y-107055316D01*
X161770955Y-107055314D01*
X161767777Y-107053677D01*
X161764436Y-107052411D01*
X161764431Y-107052409D01*
X161447145Y-106932201D01*
X161447146Y-106932201D01*
X161443801Y-106930934D01*
X161440337Y-106930054D01*
X161440333Y-106930053D01*
X161111481Y-106846535D01*
X161111473Y-106846533D01*
X161108014Y-106845655D01*
X160939221Y-106822683D01*
X160767723Y-106799343D01*
X160767716Y-106799342D01*
X160764730Y-106798936D01*
X160651826Y-106794500D01*
X160437246Y-106794500D01*
X160298025Y-106802406D01*
X160182678Y-106808955D01*
X160182671Y-106808956D01*
X160179110Y-106809158D01*
X160110624Y-106820926D01*
X160025837Y-106835495D01*
X159955313Y-106827318D01*
X159900405Y-106782311D01*
X159878499Y-106711315D01*
X159878499Y-106036866D01*
X159871744Y-105974684D01*
X159820614Y-105838295D01*
X159733260Y-105721739D01*
X159616704Y-105634385D01*
X159480315Y-105583255D01*
X159418133Y-105576500D01*
X158321865Y-105576500D01*
X158259683Y-105583255D01*
X158123294Y-105634385D01*
X158006738Y-105721739D01*
X157919384Y-105838295D01*
X157868254Y-105974684D01*
X157861499Y-106036866D01*
X157861499Y-107133134D01*
X157868254Y-107195316D01*
X157919384Y-107331705D01*
X158006738Y-107448261D01*
X158123294Y-107535615D01*
X158131702Y-107538767D01*
X158230675Y-107575871D01*
X158287439Y-107618513D01*
X158312139Y-107685075D01*
X158296931Y-107754423D01*
X158281177Y-107776930D01*
X158117247Y-107963857D01*
X157919772Y-108248515D01*
X157755792Y-108553697D01*
X157627413Y-108875481D01*
X157536287Y-109209729D01*
X157535745Y-109213251D01*
X157499346Y-109449741D01*
X157483584Y-109552145D01*
X157483444Y-109555710D01*
X157474173Y-109791674D01*
X157469982Y-109898326D01*
X115575828Y-109898326D01*
X115579878Y-109795244D01*
X115579878Y-109795239D01*
X115580018Y-109791674D01*
X115554343Y-109446179D01*
X115519021Y-109260134D01*
X142247500Y-109260134D01*
X142254255Y-109322316D01*
X142305385Y-109458705D01*
X142392739Y-109575261D01*
X142509295Y-109662615D01*
X142645684Y-109713745D01*
X142707866Y-109720500D01*
X143804134Y-109720500D01*
X143866316Y-109713745D01*
X144002705Y-109662615D01*
X144119261Y-109575261D01*
X144206615Y-109458705D01*
X144257745Y-109322316D01*
X144264500Y-109260134D01*
X144264500Y-108163866D01*
X144257745Y-108101684D01*
X144206615Y-107965295D01*
X144119261Y-107848739D01*
X144002705Y-107761385D01*
X143866316Y-107710255D01*
X143804134Y-107703500D01*
X142707866Y-107703500D01*
X142645684Y-107710255D01*
X142509295Y-107761385D01*
X142392739Y-107848739D01*
X142305385Y-107965295D01*
X142254255Y-108101684D01*
X142247500Y-108163866D01*
X142247500Y-109260134D01*
X115519021Y-109260134D01*
X115489722Y-109105812D01*
X115485136Y-109091040D01*
X115419275Y-108878934D01*
X115386986Y-108774947D01*
X115291097Y-108557023D01*
X115248899Y-108461121D01*
X115248897Y-108461116D01*
X115247455Y-108457840D01*
X115072924Y-108158566D01*
X114865636Y-107880973D01*
X114863192Y-107878375D01*
X114863187Y-107878369D01*
X114698686Y-107703500D01*
X114628256Y-107628631D01*
X114421551Y-107453642D01*
X114366558Y-107407087D01*
X114366554Y-107407084D01*
X114363836Y-107404783D01*
X114241884Y-107323297D01*
X114078752Y-107214296D01*
X114078750Y-107214295D01*
X114075775Y-107212307D01*
X114027532Y-107187460D01*
X113770960Y-107055316D01*
X113770955Y-107055314D01*
X113767777Y-107053677D01*
X113764436Y-107052411D01*
X113764431Y-107052409D01*
X113447145Y-106932201D01*
X113447146Y-106932201D01*
X113443801Y-106930934D01*
X113440337Y-106930054D01*
X113440333Y-106930053D01*
X113111481Y-106846535D01*
X113111473Y-106846533D01*
X113108014Y-106845655D01*
X112939221Y-106822683D01*
X112767723Y-106799343D01*
X112767716Y-106799342D01*
X112764730Y-106798936D01*
X112651826Y-106794500D01*
X112437246Y-106794500D01*
X112298025Y-106802406D01*
X112182678Y-106808955D01*
X112182671Y-106808956D01*
X112179110Y-106809158D01*
X111837666Y-106867829D01*
X111834234Y-106868829D01*
X111834231Y-106868830D01*
X111508503Y-106963771D01*
X111508500Y-106963772D01*
X111505059Y-106964775D01*
X111501759Y-106966159D01*
X111501750Y-106966162D01*
X111300062Y-107050737D01*
X111185564Y-107098750D01*
X110883290Y-107268032D01*
X110602122Y-107470444D01*
X110599471Y-107472852D01*
X110599466Y-107472856D01*
X110466648Y-107593500D01*
X110345675Y-107703384D01*
X110117247Y-107963857D01*
X109919772Y-108248515D01*
X109755792Y-108553697D01*
X109627413Y-108875481D01*
X109536287Y-109209729D01*
X109535745Y-109213251D01*
X109499346Y-109449741D01*
X109483584Y-109552145D01*
X109483444Y-109555710D01*
X109474173Y-109791674D01*
X109469982Y-109898326D01*
X108458000Y-109898326D01*
X108458000Y-103363134D01*
X154911499Y-103363134D01*
X154918254Y-103425316D01*
X154969384Y-103561705D01*
X155056738Y-103678261D01*
X155173294Y-103765615D01*
X155309683Y-103816745D01*
X155371865Y-103823500D01*
X156468133Y-103823500D01*
X156530315Y-103816745D01*
X156666704Y-103765615D01*
X156783260Y-103678261D01*
X156870614Y-103561705D01*
X156921744Y-103425316D01*
X156928499Y-103363134D01*
X156928499Y-102266866D01*
X156921744Y-102204684D01*
X156870614Y-102068295D01*
X156783260Y-101951739D01*
X156666704Y-101864385D01*
X156530315Y-101813255D01*
X156468133Y-101806500D01*
X155371865Y-101806500D01*
X155309683Y-101813255D01*
X155173294Y-101864385D01*
X155056738Y-101951739D01*
X154969384Y-102068295D01*
X154918254Y-102204684D01*
X154911499Y-102266866D01*
X154911499Y-103363134D01*
X108458000Y-103363134D01*
X108458000Y-98613134D01*
X149011499Y-98613134D01*
X149018254Y-98675316D01*
X149069384Y-98811705D01*
X149156738Y-98928261D01*
X149273294Y-99015615D01*
X149409683Y-99066745D01*
X149471865Y-99073500D01*
X150568133Y-99073500D01*
X150630315Y-99066745D01*
X150766704Y-99015615D01*
X150883260Y-98928261D01*
X150970614Y-98811705D01*
X151021744Y-98675316D01*
X151028499Y-98613134D01*
X152061499Y-98613134D01*
X152068254Y-98675316D01*
X152119384Y-98811705D01*
X152206738Y-98928261D01*
X152323294Y-99015615D01*
X152459683Y-99066745D01*
X152521865Y-99073500D01*
X153618133Y-99073500D01*
X153680315Y-99066745D01*
X153816704Y-99015615D01*
X153933260Y-98928261D01*
X154020614Y-98811705D01*
X154071744Y-98675316D01*
X154078499Y-98613134D01*
X154078499Y-97516866D01*
X154071744Y-97454684D01*
X154020614Y-97318295D01*
X153933260Y-97201739D01*
X153816704Y-97114385D01*
X153680315Y-97063255D01*
X153618133Y-97056500D01*
X152521865Y-97056500D01*
X152459683Y-97063255D01*
X152323294Y-97114385D01*
X152206738Y-97201739D01*
X152119384Y-97318295D01*
X152068254Y-97454684D01*
X152061499Y-97516866D01*
X152061499Y-98613134D01*
X151028499Y-98613134D01*
X151028499Y-97516866D01*
X151021744Y-97454684D01*
X150970614Y-97318295D01*
X150883260Y-97201739D01*
X150766704Y-97114385D01*
X150630315Y-97063255D01*
X150568133Y-97056500D01*
X149471865Y-97056500D01*
X149409683Y-97063255D01*
X149273294Y-97114385D01*
X149156738Y-97201739D01*
X149069384Y-97318295D01*
X149018254Y-97454684D01*
X149011499Y-97516866D01*
X149011499Y-98613134D01*
X108458000Y-98613134D01*
X108458000Y-97703134D01*
X129166500Y-97703134D01*
X129173255Y-97765316D01*
X129224385Y-97901705D01*
X129311739Y-98018261D01*
X129428295Y-98105615D01*
X129564684Y-98156745D01*
X129626866Y-98163500D01*
X130723134Y-98163500D01*
X130785316Y-98156745D01*
X130921705Y-98105615D01*
X131038261Y-98018261D01*
X131125615Y-97901705D01*
X131176745Y-97765316D01*
X131183500Y-97703134D01*
X131183500Y-96606866D01*
X131176745Y-96544684D01*
X131125615Y-96408295D01*
X131038261Y-96291739D01*
X130921705Y-96204385D01*
X130785316Y-96153255D01*
X130723134Y-96146500D01*
X129626866Y-96146500D01*
X129564684Y-96153255D01*
X129428295Y-96204385D01*
X129311739Y-96291739D01*
X129224385Y-96408295D01*
X129173255Y-96544684D01*
X129166500Y-96606866D01*
X129166500Y-97703134D01*
X108458000Y-97703134D01*
X108458000Y-90921911D01*
X154443161Y-90921911D01*
X154464073Y-91080762D01*
X154525387Y-91228787D01*
X154530414Y-91235338D01*
X154530415Y-91235340D01*
X154546756Y-91256635D01*
X154598434Y-91323983D01*
X182469595Y-119195144D01*
X182503621Y-119257456D01*
X182506500Y-119284239D01*
X182506500Y-119928134D01*
X182513255Y-119990316D01*
X182564385Y-120126705D01*
X182651739Y-120243261D01*
X182768295Y-120330615D01*
X182904684Y-120381745D01*
X182966866Y-120388500D01*
X184063134Y-120388500D01*
X184125316Y-120381745D01*
X184261705Y-120330615D01*
X184378261Y-120243261D01*
X184465615Y-120126705D01*
X184516745Y-119990316D01*
X184523500Y-119928134D01*
X194571500Y-119928134D01*
X194578255Y-119990316D01*
X194629385Y-120126705D01*
X194716739Y-120243261D01*
X194833295Y-120330615D01*
X194969684Y-120381745D01*
X195031866Y-120388500D01*
X196128134Y-120388500D01*
X196190316Y-120381745D01*
X196326705Y-120330615D01*
X196443261Y-120243261D01*
X196530615Y-120126705D01*
X196581745Y-119990316D01*
X196588500Y-119928134D01*
X200921500Y-119928134D01*
X200928255Y-119990316D01*
X200979385Y-120126705D01*
X201066739Y-120243261D01*
X201183295Y-120330615D01*
X201319684Y-120381745D01*
X201381866Y-120388500D01*
X202478134Y-120388500D01*
X202540316Y-120381745D01*
X202676705Y-120330615D01*
X202793261Y-120243261D01*
X202880615Y-120126705D01*
X202931745Y-119990316D01*
X202938500Y-119928134D01*
X202938500Y-118831866D01*
X202931745Y-118769684D01*
X202880615Y-118633295D01*
X202793261Y-118516739D01*
X202676705Y-118429385D01*
X202540316Y-118378255D01*
X202478134Y-118371500D01*
X201381866Y-118371500D01*
X201319684Y-118378255D01*
X201183295Y-118429385D01*
X201066739Y-118516739D01*
X200979385Y-118633295D01*
X200928255Y-118769684D01*
X200921500Y-118831866D01*
X200921500Y-119928134D01*
X196588500Y-119928134D01*
X196588500Y-118831866D01*
X196581745Y-118769684D01*
X196530615Y-118633295D01*
X196443261Y-118516739D01*
X196326705Y-118429385D01*
X196190316Y-118378255D01*
X196128134Y-118371500D01*
X195031866Y-118371500D01*
X194969684Y-118378255D01*
X194833295Y-118429385D01*
X194716739Y-118516739D01*
X194629385Y-118633295D01*
X194578255Y-118769684D01*
X194571500Y-118831866D01*
X194571500Y-119928134D01*
X184523500Y-119928134D01*
X184523500Y-118831866D01*
X184516745Y-118769684D01*
X184465615Y-118633295D01*
X184378261Y-118516739D01*
X184261705Y-118429385D01*
X184125316Y-118378255D01*
X184063134Y-118371500D01*
X183419239Y-118371500D01*
X183351118Y-118351498D01*
X183330144Y-118334595D01*
X177557683Y-112562134D01*
X194571500Y-112562134D01*
X194578255Y-112624316D01*
X194629385Y-112760705D01*
X194716739Y-112877261D01*
X194833295Y-112964615D01*
X194969684Y-113015745D01*
X195031866Y-113022500D01*
X196128134Y-113022500D01*
X196190316Y-113015745D01*
X196326705Y-112964615D01*
X196443261Y-112877261D01*
X196530615Y-112760705D01*
X196581745Y-112624316D01*
X196588500Y-112562135D01*
X200921500Y-112562135D01*
X200928255Y-112624317D01*
X200979385Y-112760706D01*
X201066739Y-112877262D01*
X201183295Y-112964616D01*
X201319684Y-113015746D01*
X201381866Y-113022501D01*
X202478134Y-113022501D01*
X202540316Y-113015746D01*
X202676705Y-112964616D01*
X202793261Y-112877262D01*
X202880615Y-112760706D01*
X202931745Y-112624317D01*
X202938500Y-112562135D01*
X202938500Y-111465867D01*
X202931745Y-111403685D01*
X202880615Y-111267296D01*
X202793261Y-111150740D01*
X202676705Y-111063386D01*
X202540316Y-111012256D01*
X202478134Y-111005501D01*
X201381866Y-111005501D01*
X201319684Y-111012256D01*
X201183295Y-111063386D01*
X201066739Y-111150740D01*
X200979385Y-111267296D01*
X200928255Y-111403685D01*
X200921500Y-111465867D01*
X200921500Y-112562135D01*
X196588500Y-112562135D01*
X196588500Y-112562134D01*
X196588500Y-111465866D01*
X196581745Y-111403684D01*
X196530615Y-111267295D01*
X196443261Y-111150739D01*
X196326705Y-111063385D01*
X196190316Y-111012255D01*
X196128134Y-111005500D01*
X195031866Y-111005500D01*
X194969684Y-111012255D01*
X194833295Y-111063385D01*
X194716739Y-111150739D01*
X194629385Y-111267295D01*
X194578255Y-111403684D01*
X194571500Y-111465866D01*
X194571500Y-112562134D01*
X177557683Y-112562134D01*
X155458983Y-90463434D01*
X155363787Y-90390387D01*
X155215762Y-90329073D01*
X155207575Y-90327995D01*
X155207574Y-90327995D01*
X155065100Y-90309239D01*
X155056911Y-90308161D01*
X155048722Y-90309239D01*
X154906249Y-90327995D01*
X154906248Y-90327995D01*
X154898061Y-90329073D01*
X154890434Y-90332232D01*
X154890431Y-90332233D01*
X154757663Y-90387227D01*
X154757661Y-90387228D01*
X154750035Y-90390387D01*
X154622924Y-90487924D01*
X154617901Y-90494470D01*
X154589487Y-90531500D01*
X154525387Y-90615035D01*
X154522228Y-90622661D01*
X154522227Y-90622663D01*
X154494730Y-90689048D01*
X154464073Y-90763060D01*
X154443161Y-90921911D01*
X108458000Y-90921911D01*
X108458000Y-88900000D01*
X155057750Y-88900000D01*
X155058828Y-88908189D01*
X155075753Y-89036750D01*
X155078662Y-89058851D01*
X155081823Y-89066482D01*
X155110396Y-89135466D01*
X155117985Y-89206055D01*
X155110396Y-89231900D01*
X155102234Y-89251606D01*
X155099073Y-89259238D01*
X155078161Y-89418089D01*
X155099073Y-89576940D01*
X155160387Y-89724965D01*
X155165414Y-89731516D01*
X155165415Y-89731518D01*
X155184263Y-89756081D01*
X155233434Y-89820161D01*
X174394507Y-108981234D01*
X174405374Y-108993625D01*
X174424835Y-109018987D01*
X174456747Y-109043474D01*
X174456750Y-109043477D01*
X174518735Y-109091039D01*
X174542568Y-109109327D01*
X174551947Y-109116524D01*
X174559573Y-109119683D01*
X174559575Y-109119684D01*
X174692343Y-109174678D01*
X174699972Y-109177838D01*
X174818937Y-109193500D01*
X174818942Y-109193500D01*
X174818951Y-109193501D01*
X174850634Y-109197672D01*
X174858822Y-109198750D01*
X174890515Y-109194578D01*
X174906958Y-109193500D01*
X188775246Y-109193500D01*
X188843367Y-109213502D01*
X188889860Y-109267158D01*
X188893228Y-109275270D01*
X188914385Y-109331705D01*
X189001739Y-109448261D01*
X189118295Y-109535615D01*
X189254684Y-109586745D01*
X189316866Y-109593500D01*
X190413134Y-109593500D01*
X190475316Y-109586745D01*
X190611705Y-109535615D01*
X190728261Y-109448261D01*
X190815615Y-109331705D01*
X190866745Y-109195316D01*
X190873500Y-109133134D01*
X190873500Y-108036866D01*
X190866745Y-107974684D01*
X190815615Y-107838295D01*
X190728261Y-107721739D01*
X190611705Y-107634385D01*
X190475316Y-107583255D01*
X190413134Y-107576500D01*
X189316866Y-107576500D01*
X189254684Y-107583255D01*
X189118295Y-107634385D01*
X189001739Y-107721739D01*
X188914385Y-107838295D01*
X188911233Y-107846703D01*
X188893228Y-107894730D01*
X188850586Y-107951495D01*
X188784024Y-107976194D01*
X188775246Y-107976500D01*
X175163061Y-107976500D01*
X175094940Y-107956498D01*
X175073966Y-107939595D01*
X170827966Y-103693595D01*
X170793940Y-103631283D01*
X170799005Y-103560468D01*
X170841552Y-103503632D01*
X170908072Y-103478821D01*
X170917061Y-103478500D01*
X183695246Y-103478500D01*
X183763367Y-103498502D01*
X183809860Y-103552158D01*
X183813228Y-103560270D01*
X183813766Y-103561705D01*
X183834385Y-103616705D01*
X183921739Y-103733261D01*
X184038295Y-103820615D01*
X184174684Y-103871745D01*
X184236866Y-103878500D01*
X185333134Y-103878500D01*
X185395316Y-103871745D01*
X185531705Y-103820615D01*
X185648261Y-103733261D01*
X185735615Y-103616705D01*
X185786745Y-103480316D01*
X185793500Y-103418134D01*
X185793500Y-102321866D01*
X185786745Y-102259684D01*
X185735615Y-102123295D01*
X185648261Y-102006739D01*
X185531705Y-101919385D01*
X185395316Y-101868255D01*
X185333134Y-101861500D01*
X184236866Y-101861500D01*
X184174684Y-101868255D01*
X184038295Y-101919385D01*
X183921739Y-102006739D01*
X183834385Y-102123295D01*
X183831233Y-102131703D01*
X183813228Y-102179730D01*
X183770586Y-102236495D01*
X183704024Y-102261194D01*
X183695246Y-102261500D01*
X169945739Y-102261500D01*
X169877618Y-102241498D01*
X169856644Y-102224595D01*
X165970183Y-98338134D01*
X168266500Y-98338134D01*
X168273255Y-98400316D01*
X168324385Y-98536705D01*
X168411739Y-98653261D01*
X168528295Y-98740615D01*
X168664684Y-98791745D01*
X168726866Y-98798500D01*
X169823134Y-98798500D01*
X169885316Y-98791745D01*
X170021705Y-98740615D01*
X170138261Y-98653261D01*
X170225615Y-98536705D01*
X170276745Y-98400316D01*
X170283500Y-98338134D01*
X170283500Y-97241866D01*
X170276745Y-97179684D01*
X170225615Y-97043295D01*
X170138261Y-96926739D01*
X170021705Y-96839385D01*
X169885316Y-96788255D01*
X169823134Y-96781500D01*
X168726866Y-96781500D01*
X168664684Y-96788255D01*
X168528295Y-96839385D01*
X168411739Y-96926739D01*
X168324385Y-97043295D01*
X168273255Y-97179684D01*
X168266500Y-97241866D01*
X168266500Y-98338134D01*
X165970183Y-98338134D01*
X162795183Y-95163134D01*
X168266500Y-95163134D01*
X168273255Y-95225316D01*
X168324385Y-95361705D01*
X168411739Y-95478261D01*
X168528295Y-95565615D01*
X168664684Y-95616745D01*
X168726866Y-95623500D01*
X169823134Y-95623500D01*
X169885316Y-95616745D01*
X170021705Y-95565615D01*
X170138261Y-95478261D01*
X170225615Y-95361705D01*
X170276745Y-95225316D01*
X170283500Y-95163134D01*
X170283500Y-94066866D01*
X170276745Y-94004684D01*
X170225615Y-93868295D01*
X170138261Y-93751739D01*
X170021705Y-93664385D01*
X169885316Y-93613255D01*
X169823134Y-93606500D01*
X168726866Y-93606500D01*
X168664684Y-93613255D01*
X168528295Y-93664385D01*
X168411739Y-93751739D01*
X168324385Y-93868295D01*
X168273255Y-94004684D01*
X168266500Y-94066866D01*
X168266500Y-95163134D01*
X162795183Y-95163134D01*
X159072049Y-91440000D01*
X196190496Y-91440000D01*
X196210458Y-91629928D01*
X196269473Y-91811556D01*
X196364960Y-91976944D01*
X196492747Y-92118866D01*
X196647248Y-92231118D01*
X196653276Y-92233802D01*
X196653278Y-92233803D01*
X196815681Y-92306109D01*
X196821712Y-92308794D01*
X196915112Y-92328647D01*
X197002056Y-92347128D01*
X197002061Y-92347128D01*
X197008513Y-92348500D01*
X197199487Y-92348500D01*
X197205939Y-92347128D01*
X197205944Y-92347128D01*
X197292888Y-92328647D01*
X197386288Y-92308794D01*
X197392319Y-92306109D01*
X197554722Y-92233803D01*
X197554724Y-92233802D01*
X197560752Y-92231118D01*
X197715253Y-92118866D01*
X197843040Y-91976944D01*
X197938527Y-91811556D01*
X197997542Y-91629928D01*
X198017504Y-91440000D01*
X197997542Y-91250072D01*
X197938527Y-91068444D01*
X197843040Y-90903056D01*
X197715253Y-90761134D01*
X197560752Y-90648882D01*
X197554724Y-90646198D01*
X197554722Y-90646197D01*
X197392319Y-90573891D01*
X197392318Y-90573891D01*
X197386288Y-90571206D01*
X197292887Y-90551353D01*
X197205944Y-90532872D01*
X197205939Y-90532872D01*
X197199487Y-90531500D01*
X197008513Y-90531500D01*
X197002061Y-90532872D01*
X197002056Y-90532872D01*
X196915113Y-90551353D01*
X196821712Y-90571206D01*
X196815682Y-90573891D01*
X196815681Y-90573891D01*
X196653278Y-90646197D01*
X196653276Y-90646198D01*
X196647248Y-90648882D01*
X196492747Y-90761134D01*
X196364960Y-90903056D01*
X196269473Y-91068444D01*
X196210458Y-91250072D01*
X196190496Y-91440000D01*
X159072049Y-91440000D01*
X156073572Y-88441523D01*
X155978376Y-88368476D01*
X155830351Y-88307162D01*
X155822164Y-88306084D01*
X155822163Y-88306084D01*
X155679689Y-88287328D01*
X155671500Y-88286250D01*
X155663311Y-88287328D01*
X155520838Y-88306084D01*
X155520837Y-88306084D01*
X155512650Y-88307162D01*
X155505023Y-88310321D01*
X155505020Y-88310322D01*
X155372252Y-88365316D01*
X155372250Y-88365317D01*
X155364624Y-88368476D01*
X155237513Y-88466013D01*
X155139976Y-88593124D01*
X155078662Y-88741149D01*
X155077584Y-88749336D01*
X155077584Y-88749337D01*
X155058828Y-88891811D01*
X155057750Y-88900000D01*
X108458000Y-88900000D01*
X108458000Y-86995000D01*
X159406249Y-86995000D01*
X159427162Y-87153850D01*
X159488476Y-87301875D01*
X159541431Y-87370887D01*
X159567032Y-87437107D01*
X159563991Y-87471085D01*
X159564485Y-87471150D01*
X159543572Y-87630000D01*
X159564485Y-87788850D01*
X159625799Y-87936875D01*
X159723336Y-88063987D01*
X159850448Y-88161524D01*
X159998473Y-88222838D01*
X160006661Y-88223916D01*
X160105285Y-88236900D01*
X160117438Y-88238500D01*
X165051864Y-88238500D01*
X165068307Y-88239578D01*
X165100000Y-88243750D01*
X165108189Y-88242672D01*
X165139874Y-88238501D01*
X165139884Y-88238500D01*
X165139885Y-88238500D01*
X165143972Y-88237962D01*
X165239457Y-88225391D01*
X165250664Y-88223916D01*
X165250666Y-88223915D01*
X165258851Y-88222838D01*
X165406876Y-88161524D01*
X165417601Y-88153295D01*
X165502072Y-88088477D01*
X165502075Y-88088474D01*
X165527434Y-88069015D01*
X165533987Y-88063987D01*
X165549386Y-88043919D01*
X165553452Y-88038621D01*
X165564319Y-88026230D01*
X165596500Y-87994049D01*
X165658812Y-87960023D01*
X165729627Y-87965088D01*
X165786463Y-88007635D01*
X165811274Y-88074155D01*
X165796114Y-88143654D01*
X165794768Y-88146113D01*
X165789385Y-88153295D01*
X165738255Y-88289684D01*
X165731500Y-88351866D01*
X165731500Y-89448134D01*
X165738255Y-89510316D01*
X165789385Y-89646705D01*
X165876739Y-89763261D01*
X165993295Y-89850615D01*
X166129684Y-89901745D01*
X166191866Y-89908500D01*
X167288134Y-89908500D01*
X167350316Y-89901745D01*
X167486705Y-89850615D01*
X167603261Y-89763261D01*
X167690615Y-89646705D01*
X167741745Y-89510316D01*
X167748500Y-89448134D01*
X167748500Y-88506277D01*
X198434009Y-88506277D01*
X198459625Y-88774769D01*
X198460710Y-88779203D01*
X198460711Y-88779209D01*
X198522645Y-89032312D01*
X198523731Y-89036750D01*
X198624985Y-89286733D01*
X198761265Y-89519482D01*
X198813316Y-89584568D01*
X198881686Y-89670060D01*
X198929716Y-89730119D01*
X199126809Y-89914234D01*
X199348416Y-90067968D01*
X199352499Y-90069999D01*
X199352502Y-90070001D01*
X199468013Y-90127466D01*
X199589894Y-90188101D01*
X199594228Y-90189522D01*
X199594231Y-90189523D01*
X199841853Y-90270698D01*
X199841859Y-90270699D01*
X199846186Y-90272118D01*
X199850677Y-90272898D01*
X199850678Y-90272898D01*
X200108140Y-90317601D01*
X200108148Y-90317602D01*
X200111921Y-90318257D01*
X200115758Y-90318448D01*
X200195578Y-90322422D01*
X200195586Y-90322422D01*
X200197149Y-90322500D01*
X200365512Y-90322500D01*
X200367780Y-90322335D01*
X200367792Y-90322335D01*
X200498884Y-90312823D01*
X200566004Y-90307953D01*
X200570459Y-90306969D01*
X200570462Y-90306969D01*
X200824912Y-90250791D01*
X200824916Y-90250790D01*
X200829372Y-90249806D01*
X200955480Y-90202028D01*
X201077318Y-90155868D01*
X201077321Y-90155867D01*
X201081588Y-90154250D01*
X201317368Y-90023286D01*
X201464354Y-89911110D01*
X201528141Y-89862429D01*
X201528142Y-89862428D01*
X201531773Y-89859657D01*
X201545878Y-89845229D01*
X201717117Y-89670060D01*
X201720312Y-89666792D01*
X201879034Y-89448730D01*
X201962190Y-89290676D01*
X202002490Y-89214079D01*
X202002493Y-89214073D01*
X202004615Y-89210039D01*
X202013923Y-89183683D01*
X202092902Y-88960033D01*
X202092902Y-88960032D01*
X202094425Y-88955720D01*
X202135103Y-88749337D01*
X202145700Y-88695572D01*
X202145701Y-88695566D01*
X202146581Y-88691100D01*
X202151079Y-88600752D01*
X202159764Y-88426292D01*
X202159764Y-88426286D01*
X202159991Y-88421723D01*
X202134375Y-88153231D01*
X202132633Y-88146109D01*
X202071355Y-87895688D01*
X202070269Y-87891250D01*
X201969015Y-87641267D01*
X201849475Y-87437107D01*
X201835045Y-87412463D01*
X201835044Y-87412462D01*
X201832735Y-87408518D01*
X201714928Y-87261208D01*
X201667136Y-87201447D01*
X201667135Y-87201445D01*
X201664284Y-87197881D01*
X201467191Y-87013766D01*
X201245584Y-86860032D01*
X201241501Y-86858001D01*
X201241498Y-86857999D01*
X201076606Y-86775967D01*
X201004106Y-86739899D01*
X200999772Y-86738478D01*
X200999769Y-86738477D01*
X200752147Y-86657302D01*
X200752141Y-86657301D01*
X200747814Y-86655882D01*
X200743322Y-86655102D01*
X200485860Y-86610399D01*
X200485852Y-86610398D01*
X200482079Y-86609743D01*
X200470817Y-86609182D01*
X200398422Y-86605578D01*
X200398414Y-86605578D01*
X200396851Y-86605500D01*
X200228488Y-86605500D01*
X200226220Y-86605665D01*
X200226208Y-86605665D01*
X200095116Y-86615177D01*
X200027996Y-86620047D01*
X200023541Y-86621031D01*
X200023538Y-86621031D01*
X199769088Y-86677209D01*
X199769084Y-86677210D01*
X199764628Y-86678194D01*
X199707410Y-86699872D01*
X199516682Y-86772132D01*
X199516679Y-86772133D01*
X199512412Y-86773750D01*
X199276632Y-86904714D01*
X199062227Y-87068343D01*
X198873688Y-87261208D01*
X198714966Y-87479270D01*
X198712844Y-87483304D01*
X198591510Y-87713921D01*
X198591507Y-87713927D01*
X198589385Y-87717961D01*
X198587865Y-87722266D01*
X198587863Y-87722270D01*
X198508662Y-87946548D01*
X198499575Y-87972280D01*
X198485455Y-88043919D01*
X198450191Y-88222838D01*
X198447419Y-88236900D01*
X198447192Y-88241453D01*
X198447192Y-88241456D01*
X198435688Y-88472559D01*
X198434009Y-88506277D01*
X167748500Y-88506277D01*
X167748500Y-88351866D01*
X167741745Y-88289684D01*
X167690615Y-88153295D01*
X167603261Y-88036739D01*
X167486705Y-87949385D01*
X167350316Y-87898255D01*
X167288134Y-87891500D01*
X166191866Y-87891500D01*
X166129684Y-87898255D01*
X166060919Y-87924034D01*
X166001697Y-87946235D01*
X166001696Y-87946236D01*
X165993295Y-87949385D01*
X165986113Y-87954768D01*
X165983654Y-87956114D01*
X165914297Y-87971284D01*
X165847749Y-87946548D01*
X165805138Y-87889761D01*
X165799993Y-87818951D01*
X165834049Y-87756500D01*
X171846234Y-81744315D01*
X171858625Y-81733448D01*
X171877437Y-81719013D01*
X171883987Y-81713987D01*
X171908474Y-81682075D01*
X171908480Y-81682069D01*
X171976496Y-81593429D01*
X171976497Y-81593427D01*
X171981524Y-81586876D01*
X172042838Y-81438851D01*
X172049803Y-81385947D01*
X172058500Y-81319885D01*
X172058500Y-81319880D01*
X172063750Y-81280000D01*
X172059578Y-81248307D01*
X172058500Y-81231864D01*
X172058500Y-80633640D01*
X177621463Y-80633640D01*
X177639163Y-80814160D01*
X177696418Y-80986273D01*
X177700065Y-80992295D01*
X177700066Y-80992297D01*
X177770527Y-81108642D01*
X177790380Y-81141424D01*
X177795269Y-81146487D01*
X177795270Y-81146488D01*
X177840927Y-81193767D01*
X177916382Y-81271902D01*
X178068159Y-81371222D01*
X178074763Y-81373678D01*
X178074765Y-81373679D01*
X178231558Y-81431990D01*
X178231560Y-81431990D01*
X178238168Y-81434448D01*
X178321995Y-81445633D01*
X178410980Y-81457507D01*
X178410984Y-81457507D01*
X178417961Y-81458438D01*
X178424972Y-81457800D01*
X178424976Y-81457800D01*
X178567459Y-81444832D01*
X178598600Y-81441998D01*
X178605302Y-81439820D01*
X178605304Y-81439820D01*
X178764409Y-81388124D01*
X178764412Y-81388123D01*
X178771108Y-81385947D01*
X178926912Y-81293069D01*
X178982118Y-81240497D01*
X179045243Y-81208005D01*
X179115914Y-81214798D01*
X179159643Y-81244214D01*
X179186382Y-81271902D01*
X179338159Y-81371222D01*
X179344763Y-81373678D01*
X179344765Y-81373679D01*
X179501558Y-81431990D01*
X179501560Y-81431990D01*
X179508168Y-81434448D01*
X179591995Y-81445633D01*
X179680980Y-81457507D01*
X179680984Y-81457507D01*
X179687961Y-81458438D01*
X179694972Y-81457800D01*
X179694976Y-81457800D01*
X179837459Y-81444832D01*
X179868600Y-81441998D01*
X179875302Y-81439820D01*
X179875304Y-81439820D01*
X180034409Y-81388124D01*
X180034412Y-81388123D01*
X180041108Y-81385947D01*
X180196912Y-81293069D01*
X180252118Y-81240497D01*
X180315243Y-81208005D01*
X180385914Y-81214798D01*
X180429643Y-81244214D01*
X180456382Y-81271902D01*
X180608159Y-81371222D01*
X180614763Y-81373678D01*
X180614765Y-81373679D01*
X180771558Y-81431990D01*
X180771560Y-81431990D01*
X180778168Y-81434448D01*
X180861995Y-81445633D01*
X180950980Y-81457507D01*
X180950984Y-81457507D01*
X180957961Y-81458438D01*
X180964972Y-81457800D01*
X180964976Y-81457800D01*
X181107459Y-81444832D01*
X181138600Y-81441998D01*
X181145302Y-81439820D01*
X181145304Y-81439820D01*
X181304409Y-81388124D01*
X181304412Y-81388123D01*
X181311108Y-81385947D01*
X181466912Y-81293069D01*
X181522118Y-81240497D01*
X181585243Y-81208005D01*
X181655914Y-81214798D01*
X181699643Y-81244214D01*
X181726382Y-81271902D01*
X181878159Y-81371222D01*
X181884763Y-81373678D01*
X181884765Y-81373679D01*
X182041558Y-81431990D01*
X182041560Y-81431990D01*
X182048168Y-81434448D01*
X182131995Y-81445633D01*
X182220980Y-81457507D01*
X182220984Y-81457507D01*
X182227961Y-81458438D01*
X182234972Y-81457800D01*
X182234976Y-81457800D01*
X182377459Y-81444832D01*
X182408600Y-81441998D01*
X182415302Y-81439820D01*
X182415304Y-81439820D01*
X182574409Y-81388124D01*
X182574412Y-81388123D01*
X182581108Y-81385947D01*
X182736912Y-81293069D01*
X182868266Y-81167982D01*
X182968643Y-81016902D01*
X183033055Y-80847338D01*
X183036234Y-80824716D01*
X183057748Y-80671639D01*
X183057748Y-80671636D01*
X183058299Y-80667717D01*
X183058616Y-80645000D01*
X183038397Y-80464745D01*
X183036080Y-80458091D01*
X182981064Y-80300106D01*
X182981062Y-80300103D01*
X182978745Y-80293448D01*
X182882626Y-80139624D01*
X182866286Y-80123169D01*
X182800275Y-80056696D01*
X182754815Y-80010918D01*
X182743697Y-80003862D01*
X182664417Y-79953550D01*
X182601666Y-79913727D01*
X182572463Y-79903328D01*
X182437425Y-79855243D01*
X182437420Y-79855242D01*
X182430790Y-79852881D01*
X182423802Y-79852048D01*
X182423799Y-79852047D01*
X182300698Y-79837368D01*
X182250680Y-79831404D01*
X182243677Y-79832140D01*
X182243676Y-79832140D01*
X182077288Y-79849628D01*
X182077286Y-79849629D01*
X182070288Y-79850364D01*
X181898579Y-79908818D01*
X181892575Y-79912512D01*
X181750095Y-80000166D01*
X181750092Y-80000168D01*
X181744088Y-80003862D01*
X181739053Y-80008793D01*
X181739050Y-80008795D01*
X181698487Y-80048518D01*
X181635822Y-80081889D01*
X181565063Y-80076083D01*
X181520923Y-80047279D01*
X181489775Y-80015913D01*
X181484815Y-80010918D01*
X181473697Y-80003862D01*
X181394417Y-79953550D01*
X181331666Y-79913727D01*
X181302463Y-79903328D01*
X181167425Y-79855243D01*
X181167420Y-79855242D01*
X181160790Y-79852881D01*
X181153802Y-79852048D01*
X181153799Y-79852047D01*
X181030698Y-79837368D01*
X180980680Y-79831404D01*
X180973677Y-79832140D01*
X180973676Y-79832140D01*
X180807288Y-79849628D01*
X180807286Y-79849629D01*
X180800288Y-79850364D01*
X180628579Y-79908818D01*
X180622575Y-79912512D01*
X180480095Y-80000166D01*
X180480092Y-80000168D01*
X180474088Y-80003862D01*
X180469053Y-80008793D01*
X180469050Y-80008795D01*
X180428487Y-80048518D01*
X180365822Y-80081889D01*
X180295063Y-80076083D01*
X180250923Y-80047279D01*
X180219775Y-80015913D01*
X180214815Y-80010918D01*
X180203697Y-80003862D01*
X180124417Y-79953550D01*
X180061666Y-79913727D01*
X180032463Y-79903328D01*
X179897425Y-79855243D01*
X179897420Y-79855242D01*
X179890790Y-79852881D01*
X179883802Y-79852048D01*
X179883799Y-79852047D01*
X179760698Y-79837368D01*
X179710680Y-79831404D01*
X179703677Y-79832140D01*
X179703676Y-79832140D01*
X179537288Y-79849628D01*
X179537286Y-79849629D01*
X179530288Y-79850364D01*
X179358579Y-79908818D01*
X179352575Y-79912512D01*
X179210095Y-80000166D01*
X179210092Y-80000168D01*
X179204088Y-80003862D01*
X179199053Y-80008793D01*
X179199050Y-80008795D01*
X179158487Y-80048518D01*
X179095822Y-80081889D01*
X179025063Y-80076083D01*
X178980923Y-80047279D01*
X178949775Y-80015913D01*
X178944815Y-80010918D01*
X178933697Y-80003862D01*
X178854417Y-79953550D01*
X178791666Y-79913727D01*
X178762463Y-79903328D01*
X178627425Y-79855243D01*
X178627420Y-79855242D01*
X178620790Y-79852881D01*
X178613802Y-79852048D01*
X178613799Y-79852047D01*
X178490698Y-79837368D01*
X178440680Y-79831404D01*
X178433677Y-79832140D01*
X178433676Y-79832140D01*
X178267288Y-79849628D01*
X178267286Y-79849629D01*
X178260288Y-79850364D01*
X178088579Y-79908818D01*
X178082575Y-79912512D01*
X177940095Y-80000166D01*
X177940092Y-80000168D01*
X177934088Y-80003862D01*
X177929053Y-80008793D01*
X177929050Y-80008795D01*
X177809525Y-80125843D01*
X177804493Y-80130771D01*
X177706235Y-80283238D01*
X177703826Y-80289858D01*
X177703824Y-80289861D01*
X177646606Y-80447066D01*
X177644197Y-80453685D01*
X177621463Y-80633640D01*
X172058500Y-80633640D01*
X172058500Y-79084102D01*
X184910141Y-79084102D01*
X184911120Y-79089799D01*
X184911120Y-79089800D01*
X184937106Y-79241029D01*
X184945732Y-79291228D01*
X185018472Y-79488399D01*
X185125926Y-79669012D01*
X185264494Y-79827019D01*
X185294107Y-79850364D01*
X185379277Y-79917506D01*
X185429537Y-79957128D01*
X185434653Y-79959819D01*
X185434655Y-79959821D01*
X185531775Y-80010918D01*
X185615527Y-80054982D01*
X185816234Y-80117304D01*
X185821969Y-80117983D01*
X185821970Y-80117983D01*
X185852532Y-80121600D01*
X185986874Y-80137500D01*
X189283316Y-80137500D01*
X189439279Y-80123169D01*
X189444841Y-80121600D01*
X189444843Y-80121600D01*
X189606233Y-80076083D01*
X189641549Y-80066123D01*
X189830037Y-79973171D01*
X189909643Y-79913727D01*
X189993805Y-79850880D01*
X189993806Y-79850879D01*
X189998429Y-79847427D01*
X190012560Y-79832140D01*
X190137167Y-79697341D01*
X190137169Y-79697338D01*
X190141086Y-79693101D01*
X190253231Y-79515362D01*
X190331108Y-79320163D01*
X190332233Y-79314506D01*
X190332235Y-79314500D01*
X190370981Y-79119707D01*
X190370981Y-79119705D01*
X190372108Y-79114040D01*
X190372426Y-79089800D01*
X190374783Y-78909680D01*
X190374859Y-78903898D01*
X190344778Y-78728835D01*
X190340247Y-78702469D01*
X190340247Y-78702468D01*
X190339268Y-78696772D01*
X190266528Y-78499601D01*
X190258687Y-78486421D01*
X190241048Y-78417652D01*
X190263389Y-78350262D01*
X190318617Y-78305648D01*
X190366973Y-78296000D01*
X191022653Y-78296000D01*
X191053135Y-78299743D01*
X191153404Y-78324743D01*
X191153407Y-78324743D01*
X191160027Y-78326394D01*
X191166844Y-78326584D01*
X191166848Y-78326585D01*
X191249725Y-78328899D01*
X191339424Y-78331405D01*
X191515713Y-78297776D01*
X191661579Y-78235258D01*
X191674391Y-78229767D01*
X191674392Y-78229767D01*
X191680667Y-78227077D01*
X191826591Y-78122604D01*
X191946679Y-77989234D01*
X191950047Y-77983305D01*
X191950050Y-77983301D01*
X192031956Y-77839117D01*
X192031956Y-77839116D01*
X192035324Y-77833188D01*
X192088394Y-77661748D01*
X192103412Y-77482910D01*
X192090139Y-77383431D01*
X192080579Y-77311787D01*
X192080579Y-77311786D01*
X192079676Y-77305020D01*
X192030867Y-77170920D01*
X192020628Y-77142788D01*
X192020627Y-77142786D01*
X192018294Y-77136376D01*
X191987436Y-77087751D01*
X191924898Y-76989205D01*
X191924894Y-76989199D01*
X191922131Y-76984846D01*
X191918466Y-76980746D01*
X191888360Y-76950640D01*
X194131463Y-76950640D01*
X194149163Y-77131160D01*
X194206418Y-77303273D01*
X194210065Y-77309295D01*
X194210066Y-77309297D01*
X194255005Y-77383500D01*
X194300380Y-77458424D01*
X194305269Y-77463487D01*
X194305270Y-77463488D01*
X194324026Y-77482910D01*
X194426382Y-77588902D01*
X194578159Y-77688222D01*
X194584763Y-77690678D01*
X194584765Y-77690679D01*
X194741558Y-77748990D01*
X194741560Y-77748990D01*
X194748168Y-77751448D01*
X194831995Y-77762633D01*
X194920980Y-77774507D01*
X194920984Y-77774507D01*
X194927961Y-77775438D01*
X194934972Y-77774800D01*
X194934976Y-77774800D01*
X195077459Y-77761832D01*
X195108600Y-77758998D01*
X195115302Y-77756820D01*
X195115304Y-77756820D01*
X195274409Y-77705124D01*
X195274412Y-77705123D01*
X195281108Y-77702947D01*
X195436912Y-77610069D01*
X195568266Y-77484982D01*
X195668643Y-77333902D01*
X195733055Y-77164338D01*
X195736777Y-77137855D01*
X195757748Y-76988639D01*
X195757748Y-76988636D01*
X195758299Y-76984717D01*
X195758616Y-76962000D01*
X195738397Y-76781745D01*
X195735807Y-76774307D01*
X195681993Y-76619774D01*
X195678479Y-76548864D01*
X195683196Y-76533594D01*
X195694742Y-76503198D01*
X196490392Y-76503198D01*
X196490749Y-76510015D01*
X196490749Y-76510019D01*
X196496723Y-76623998D01*
X196499870Y-76684047D01*
X196501681Y-76690620D01*
X196501681Y-76690623D01*
X196525051Y-76775466D01*
X196547961Y-76858641D01*
X196632422Y-77018836D01*
X196636827Y-77024049D01*
X196636830Y-77024053D01*
X196744906Y-77151943D01*
X196744910Y-77151947D01*
X196749313Y-77157157D01*
X196754737Y-77161304D01*
X196754738Y-77161305D01*
X196887757Y-77263006D01*
X196887761Y-77263009D01*
X196893178Y-77267150D01*
X196992087Y-77313272D01*
X197051131Y-77340805D01*
X197051134Y-77340806D01*
X197057308Y-77343685D01*
X197063956Y-77345171D01*
X197063959Y-77345172D01*
X197169921Y-77368857D01*
X197234043Y-77383190D01*
X197239588Y-77383500D01*
X197372744Y-77383500D01*
X197507537Y-77368857D01*
X197630979Y-77327314D01*
X197672704Y-77313272D01*
X197672706Y-77313271D01*
X197679175Y-77311094D01*
X197834405Y-77217823D01*
X197839362Y-77213135D01*
X197839365Y-77213133D01*
X197961027Y-77098082D01*
X197961029Y-77098080D01*
X197965985Y-77093393D01*
X197969817Y-77087755D01*
X197969820Y-77087751D01*
X198063942Y-76949255D01*
X198067777Y-76943612D01*
X198135030Y-76775466D01*
X198136144Y-76768738D01*
X198136145Y-76768734D01*
X198163493Y-76603539D01*
X198163493Y-76603536D01*
X198164608Y-76596802D01*
X198163340Y-76572595D01*
X198155487Y-76422766D01*
X198155130Y-76415953D01*
X198150238Y-76398190D01*
X198108852Y-76247941D01*
X198107039Y-76241359D01*
X198022578Y-76081164D01*
X198018173Y-76075951D01*
X198018170Y-76075947D01*
X197910094Y-75948057D01*
X197910090Y-75948053D01*
X197905687Y-75942843D01*
X197874775Y-75919209D01*
X197767243Y-75836994D01*
X197767239Y-75836991D01*
X197761822Y-75832850D01*
X197644966Y-75778359D01*
X197603869Y-75759195D01*
X197603866Y-75759194D01*
X197597692Y-75756315D01*
X197591044Y-75754829D01*
X197591041Y-75754828D01*
X197425994Y-75717936D01*
X197425995Y-75717936D01*
X197420957Y-75716810D01*
X197415412Y-75716500D01*
X197282256Y-75716500D01*
X197147463Y-75731143D01*
X197029310Y-75770906D01*
X196982296Y-75786728D01*
X196982294Y-75786729D01*
X196975825Y-75788906D01*
X196820595Y-75882177D01*
X196815638Y-75886865D01*
X196815635Y-75886867D01*
X196693973Y-76001918D01*
X196689015Y-76006607D01*
X196685183Y-76012245D01*
X196685180Y-76012249D01*
X196623632Y-76102814D01*
X196587223Y-76156388D01*
X196519970Y-76324534D01*
X196518856Y-76331262D01*
X196518855Y-76331266D01*
X196498978Y-76451335D01*
X196490392Y-76503198D01*
X195694742Y-76503198D01*
X195730554Y-76408924D01*
X195730556Y-76408917D01*
X195733055Y-76402338D01*
X195734588Y-76391429D01*
X195757748Y-76226639D01*
X195757748Y-76226636D01*
X195758299Y-76222717D01*
X195758616Y-76200000D01*
X195738397Y-76019745D01*
X195734843Y-76009539D01*
X195681064Y-75855106D01*
X195681062Y-75855103D01*
X195678745Y-75848448D01*
X195632817Y-75774947D01*
X195586359Y-75700598D01*
X195582626Y-75694624D01*
X195555331Y-75667138D01*
X195459778Y-75570915D01*
X195459774Y-75570912D01*
X195454815Y-75565918D01*
X195443697Y-75558862D01*
X195395538Y-75528300D01*
X195301666Y-75468727D01*
X195263032Y-75454970D01*
X195137425Y-75410243D01*
X195137420Y-75410242D01*
X195130790Y-75407881D01*
X195123802Y-75407048D01*
X195123799Y-75407047D01*
X195000698Y-75392368D01*
X194950680Y-75386404D01*
X194943677Y-75387140D01*
X194943676Y-75387140D01*
X194777288Y-75404628D01*
X194777286Y-75404629D01*
X194770288Y-75405364D01*
X194598579Y-75463818D01*
X194546762Y-75495696D01*
X194450095Y-75555166D01*
X194450092Y-75555168D01*
X194444088Y-75558862D01*
X194439053Y-75563793D01*
X194439050Y-75563795D01*
X194333520Y-75667138D01*
X194314493Y-75685771D01*
X194216235Y-75838238D01*
X194213826Y-75844858D01*
X194213824Y-75844861D01*
X194176264Y-75948057D01*
X194154197Y-76008685D01*
X194131463Y-76188640D01*
X194149163Y-76369160D01*
X194201944Y-76527824D01*
X194206418Y-76541273D01*
X194204156Y-76542026D01*
X194212928Y-76601178D01*
X194206533Y-76626893D01*
X194156606Y-76764066D01*
X194154197Y-76770685D01*
X194131463Y-76950640D01*
X191888360Y-76950640D01*
X191851961Y-76914241D01*
X191844818Y-76906474D01*
X191816969Y-76873520D01*
X191812564Y-76868307D01*
X191750513Y-76820866D01*
X191748093Y-76818968D01*
X191696736Y-76777675D01*
X191687229Y-76770031D01*
X191681119Y-76766998D01*
X191679083Y-76765696D01*
X191678627Y-76765377D01*
X191677969Y-76764967D01*
X191677479Y-76764698D01*
X191675413Y-76763447D01*
X191669993Y-76759303D01*
X191599225Y-76726304D01*
X191596454Y-76724970D01*
X191574347Y-76713996D01*
X191526477Y-76690233D01*
X191519852Y-76688581D01*
X191517585Y-76687747D01*
X191517060Y-76687528D01*
X191516356Y-76687279D01*
X191515806Y-76687117D01*
X191513522Y-76686339D01*
X191507340Y-76683457D01*
X191500682Y-76681969D01*
X191500674Y-76681966D01*
X191431121Y-76666419D01*
X191428125Y-76665711D01*
X191358964Y-76648467D01*
X191358961Y-76648467D01*
X191352341Y-76646816D01*
X191345520Y-76646625D01*
X191343123Y-76646297D01*
X191342009Y-76646096D01*
X191337235Y-76645434D01*
X191332195Y-76644307D01*
X191326704Y-76644000D01*
X191253290Y-76644000D01*
X191249772Y-76643951D01*
X191248862Y-76643926D01*
X191172944Y-76641805D01*
X191166237Y-76643084D01*
X191159902Y-76643594D01*
X191149795Y-76644000D01*
X189624331Y-76644000D01*
X189556210Y-76623998D01*
X189535241Y-76607100D01*
X188572374Y-75644234D01*
X188565242Y-75636478D01*
X188537390Y-75603520D01*
X188532985Y-75598307D01*
X188470934Y-75550866D01*
X188468514Y-75548968D01*
X188407650Y-75500031D01*
X188401540Y-75496998D01*
X188399504Y-75495696D01*
X188399048Y-75495377D01*
X188398390Y-75494967D01*
X188397900Y-75494698D01*
X188395834Y-75493447D01*
X188390414Y-75489303D01*
X188319646Y-75456304D01*
X188316875Y-75454970D01*
X188316416Y-75454742D01*
X188246898Y-75420233D01*
X188240273Y-75418581D01*
X188238006Y-75417747D01*
X188237481Y-75417528D01*
X188236777Y-75417279D01*
X188236227Y-75417117D01*
X188233943Y-75416339D01*
X188227761Y-75413457D01*
X188221103Y-75411969D01*
X188221095Y-75411966D01*
X188151542Y-75396419D01*
X188148546Y-75395711D01*
X188079385Y-75378467D01*
X188079382Y-75378467D01*
X188072762Y-75376816D01*
X188065941Y-75376625D01*
X188063544Y-75376297D01*
X188062430Y-75376096D01*
X188057656Y-75375434D01*
X188052616Y-75374307D01*
X188047125Y-75374000D01*
X187973711Y-75374000D01*
X187970193Y-75373951D01*
X187969283Y-75373926D01*
X187893365Y-75371805D01*
X187886658Y-75373084D01*
X187880323Y-75373594D01*
X187870216Y-75374000D01*
X187338711Y-75374000D01*
X187335193Y-75373951D01*
X187334283Y-75373926D01*
X187258365Y-75371805D01*
X187251661Y-75373084D01*
X187251659Y-75373084D01*
X187207780Y-75381454D01*
X187197780Y-75382949D01*
X187179356Y-75384951D01*
X187146583Y-75388511D01*
X187140117Y-75390687D01*
X187140108Y-75390689D01*
X187123047Y-75396431D01*
X187106472Y-75400780D01*
X187088775Y-75404156D01*
X187082076Y-75405434D01*
X187034735Y-75425724D01*
X187025292Y-75429330D01*
X186982953Y-75443578D01*
X186982948Y-75443580D01*
X186976489Y-75445754D01*
X186970646Y-75449265D01*
X186970637Y-75449269D01*
X186955204Y-75458542D01*
X186939947Y-75466350D01*
X186925707Y-75472454D01*
X186917122Y-75476133D01*
X186875238Y-75506120D01*
X186866811Y-75511655D01*
X186822656Y-75538186D01*
X186817701Y-75542872D01*
X186817694Y-75542877D01*
X186804608Y-75555252D01*
X186791385Y-75566152D01*
X186776749Y-75576631D01*
X186776745Y-75576635D01*
X186771198Y-75580606D01*
X186766636Y-75585673D01*
X186766630Y-75585678D01*
X186736745Y-75618869D01*
X186729691Y-75626099D01*
X186692260Y-75661496D01*
X186678299Y-75682038D01*
X186667730Y-75695517D01*
X186651110Y-75713976D01*
X186627059Y-75756315D01*
X186625679Y-75758744D01*
X186620335Y-75767330D01*
X186591384Y-75809930D01*
X186588853Y-75816259D01*
X186588851Y-75816262D01*
X186582158Y-75832996D01*
X186574727Y-75848438D01*
X186562465Y-75870022D01*
X186560447Y-75876541D01*
X186547239Y-75919209D01*
X186543870Y-75928724D01*
X186524736Y-75976562D01*
X186520678Y-76001073D01*
X186516739Y-76017739D01*
X186509395Y-76041462D01*
X186508824Y-76048262D01*
X186505085Y-76092782D01*
X186503835Y-76102814D01*
X186495425Y-76153620D01*
X186495782Y-76160438D01*
X186495782Y-76160443D01*
X186496724Y-76178416D01*
X186496455Y-76195551D01*
X186495749Y-76203962D01*
X186494377Y-76220300D01*
X186495279Y-76227060D01*
X186495279Y-76227062D01*
X186501188Y-76271346D01*
X186502122Y-76281415D01*
X186504817Y-76332841D01*
X186506628Y-76339414D01*
X186506628Y-76339417D01*
X186511412Y-76356784D01*
X186514829Y-76373579D01*
X186518113Y-76398190D01*
X186535723Y-76446573D01*
X186538797Y-76456204D01*
X186552476Y-76505864D01*
X186564058Y-76527832D01*
X186571000Y-76543497D01*
X186572954Y-76548864D01*
X186579494Y-76566834D01*
X186600693Y-76600238D01*
X186607090Y-76610319D01*
X186612160Y-76619066D01*
X186636177Y-76664617D01*
X186640580Y-76669828D01*
X186640582Y-76669830D01*
X186652203Y-76683582D01*
X186662352Y-76697397D01*
X186675657Y-76718364D01*
X186679323Y-76722464D01*
X186712621Y-76755762D01*
X186719763Y-76763528D01*
X186752015Y-76801693D01*
X186773141Y-76817845D01*
X186785691Y-76828832D01*
X187592266Y-77635407D01*
X187626290Y-77697717D01*
X187621226Y-77768532D01*
X187578679Y-77825368D01*
X187512159Y-77850179D01*
X187503170Y-77850500D01*
X186001684Y-77850500D01*
X185845721Y-77864831D01*
X185840159Y-77866400D01*
X185840157Y-77866400D01*
X185810923Y-77874645D01*
X185643451Y-77921877D01*
X185454963Y-78014829D01*
X185286571Y-78140573D01*
X185282657Y-78144807D01*
X185282655Y-78144809D01*
X185206608Y-78227077D01*
X185143914Y-78294899D01*
X185031769Y-78472638D01*
X184953892Y-78667837D01*
X184952767Y-78673494D01*
X184952765Y-78673500D01*
X184925808Y-78809027D01*
X184912892Y-78873960D01*
X184912816Y-78879735D01*
X184912816Y-78879739D01*
X184912500Y-78903898D01*
X184910141Y-79084102D01*
X172058500Y-79084102D01*
X172058500Y-73013640D01*
X185241463Y-73013640D01*
X185259163Y-73194160D01*
X185316418Y-73366273D01*
X185320065Y-73372295D01*
X185320066Y-73372297D01*
X185372568Y-73458988D01*
X185410380Y-73521424D01*
X185536382Y-73651902D01*
X185688159Y-73751222D01*
X185694763Y-73753678D01*
X185694765Y-73753679D01*
X185851558Y-73811990D01*
X185851560Y-73811990D01*
X185858168Y-73814448D01*
X185941995Y-73825633D01*
X186030980Y-73837507D01*
X186030984Y-73837507D01*
X186037961Y-73838438D01*
X186044972Y-73837800D01*
X186044976Y-73837800D01*
X186187459Y-73824832D01*
X186218600Y-73821998D01*
X186225300Y-73819821D01*
X186225305Y-73819820D01*
X186334245Y-73784423D01*
X186405213Y-73782396D01*
X186417088Y-73786154D01*
X186493168Y-73814448D01*
X186576995Y-73825633D01*
X186665980Y-73837507D01*
X186665984Y-73837507D01*
X186672961Y-73838438D01*
X186679972Y-73837800D01*
X186679976Y-73837800D01*
X186822459Y-73824832D01*
X186853600Y-73821998D01*
X186860302Y-73819820D01*
X186860304Y-73819820D01*
X187019409Y-73768124D01*
X187019412Y-73768123D01*
X187026108Y-73765947D01*
X187181912Y-73673069D01*
X187313266Y-73547982D01*
X187413643Y-73396902D01*
X187471867Y-73243628D01*
X187475555Y-73233920D01*
X187475556Y-73233918D01*
X187478055Y-73227338D01*
X187480279Y-73211512D01*
X187502748Y-73051639D01*
X187502748Y-73051636D01*
X187503299Y-73047717D01*
X187503616Y-73025000D01*
X187483397Y-72844745D01*
X187481080Y-72838091D01*
X187426064Y-72680106D01*
X187426062Y-72680103D01*
X187423745Y-72673448D01*
X187327626Y-72519624D01*
X187313941Y-72505843D01*
X187204778Y-72395915D01*
X187204774Y-72395912D01*
X187199815Y-72390918D01*
X187188697Y-72383862D01*
X187052622Y-72297507D01*
X187046666Y-72293727D01*
X186975107Y-72268246D01*
X186882425Y-72235243D01*
X186882420Y-72235242D01*
X186875790Y-72232881D01*
X186868802Y-72232048D01*
X186868799Y-72232047D01*
X186745698Y-72217368D01*
X186695680Y-72211404D01*
X186688677Y-72212140D01*
X186688676Y-72212140D01*
X186639561Y-72217302D01*
X186515288Y-72230364D01*
X186508622Y-72232633D01*
X186508619Y-72232634D01*
X186464913Y-72247513D01*
X186412876Y-72265228D01*
X186341945Y-72268246D01*
X186330004Y-72264649D01*
X186247424Y-72235243D01*
X186247422Y-72235242D01*
X186240790Y-72232881D01*
X186233802Y-72232048D01*
X186233799Y-72232047D01*
X186110698Y-72217368D01*
X186060680Y-72211404D01*
X186053677Y-72212140D01*
X186053676Y-72212140D01*
X185887288Y-72229628D01*
X185887286Y-72229629D01*
X185880288Y-72230364D01*
X185708579Y-72288818D01*
X185646109Y-72327250D01*
X185560095Y-72380166D01*
X185560092Y-72380168D01*
X185554088Y-72383862D01*
X185549053Y-72388793D01*
X185549050Y-72388795D01*
X185521302Y-72415968D01*
X185424493Y-72510771D01*
X185326235Y-72663238D01*
X185323826Y-72669858D01*
X185323824Y-72669861D01*
X185320095Y-72680107D01*
X185264197Y-72833685D01*
X185241463Y-73013640D01*
X172058500Y-73013640D01*
X172058500Y-70424669D01*
X182562001Y-70424669D01*
X182562371Y-70431490D01*
X182567895Y-70482352D01*
X182571521Y-70497604D01*
X182616676Y-70618054D01*
X182625214Y-70633649D01*
X182701715Y-70735724D01*
X182714276Y-70748285D01*
X182816351Y-70824786D01*
X182831946Y-70833324D01*
X182952394Y-70878478D01*
X182967649Y-70882105D01*
X183018514Y-70887631D01*
X183025328Y-70888000D01*
X183297885Y-70888000D01*
X183313124Y-70883525D01*
X183314329Y-70882135D01*
X183316000Y-70874452D01*
X183316000Y-70152115D01*
X183311525Y-70136876D01*
X183310135Y-70135671D01*
X183302452Y-70134000D01*
X182580116Y-70134000D01*
X182564877Y-70138475D01*
X182563672Y-70139865D01*
X182562001Y-70147548D01*
X182562001Y-70424669D01*
X172058500Y-70424669D01*
X172058500Y-69659350D01*
X183730711Y-69659350D01*
X183748411Y-69839870D01*
X183805666Y-70011983D01*
X183809314Y-70018007D01*
X183812270Y-70024404D01*
X183809567Y-70025653D01*
X183824000Y-70077436D01*
X183824000Y-70869884D01*
X183828475Y-70885123D01*
X183829865Y-70886328D01*
X183837548Y-70887999D01*
X183971443Y-70887999D01*
X184039564Y-70908001D01*
X184086057Y-70961657D01*
X184096449Y-71029791D01*
X184086488Y-71108638D01*
X184104188Y-71289158D01*
X184161443Y-71461271D01*
X184165090Y-71467293D01*
X184165091Y-71467295D01*
X184247356Y-71603131D01*
X184255405Y-71616422D01*
X184381407Y-71746900D01*
X184533184Y-71846220D01*
X184539788Y-71848676D01*
X184539790Y-71848677D01*
X184696583Y-71906988D01*
X184696585Y-71906988D01*
X184703193Y-71909446D01*
X184787020Y-71920631D01*
X184876005Y-71932505D01*
X184876009Y-71932505D01*
X184882986Y-71933436D01*
X184889997Y-71932798D01*
X184890001Y-71932798D01*
X185032484Y-71919830D01*
X185063625Y-71916996D01*
X185070327Y-71914818D01*
X185070329Y-71914818D01*
X185229434Y-71863122D01*
X185229437Y-71863121D01*
X185236133Y-71860945D01*
X185391937Y-71768067D01*
X185523291Y-71642980D01*
X185623668Y-71491900D01*
X185688080Y-71322336D01*
X185690130Y-71307751D01*
X185712773Y-71146637D01*
X185712773Y-71146634D01*
X185713324Y-71142715D01*
X185713477Y-71131736D01*
X185713586Y-71123960D01*
X185713586Y-71123955D01*
X185713641Y-71119998D01*
X185693422Y-70939743D01*
X185689571Y-70928683D01*
X185636088Y-70775103D01*
X185633770Y-70768446D01*
X185609758Y-70730019D01*
X185600518Y-70715231D01*
X185581383Y-70646861D01*
X185589585Y-70603719D01*
X185597770Y-70582171D01*
X185597771Y-70582167D01*
X185600274Y-70575578D01*
X185611233Y-70497604D01*
X185624967Y-70399876D01*
X185625518Y-70395957D01*
X185625532Y-70394936D01*
X185650466Y-70329162D01*
X185707529Y-70286920D01*
X185750929Y-70279210D01*
X186841471Y-70279210D01*
X186909592Y-70299212D01*
X186930566Y-70316115D01*
X190930907Y-74316456D01*
X190964933Y-74378768D01*
X190967211Y-74393256D01*
X190974163Y-74464160D01*
X191031418Y-74636273D01*
X191035065Y-74642295D01*
X191035066Y-74642297D01*
X191120837Y-74783922D01*
X191125380Y-74791424D01*
X191251382Y-74921902D01*
X191403159Y-75021222D01*
X191409763Y-75023678D01*
X191409765Y-75023679D01*
X191566558Y-75081990D01*
X191566560Y-75081990D01*
X191573168Y-75084448D01*
X191656995Y-75095633D01*
X191745980Y-75107507D01*
X191745984Y-75107507D01*
X191752961Y-75108438D01*
X191759972Y-75107800D01*
X191759976Y-75107800D01*
X191902459Y-75094832D01*
X191933600Y-75091998D01*
X191940302Y-75089820D01*
X191940304Y-75089820D01*
X192099409Y-75038124D01*
X192099412Y-75038123D01*
X192106108Y-75035947D01*
X192261912Y-74943069D01*
X192393266Y-74817982D01*
X192493643Y-74666902D01*
X192535423Y-74556917D01*
X192555555Y-74503920D01*
X192555556Y-74503918D01*
X192558055Y-74497338D01*
X192561779Y-74470844D01*
X192579410Y-74345389D01*
X192608698Y-74280715D01*
X192668302Y-74242142D01*
X192739298Y-74241917D01*
X192793279Y-74273830D01*
X192886805Y-74367356D01*
X192897672Y-74379747D01*
X192917133Y-74405109D01*
X192923683Y-74410135D01*
X192949045Y-74429596D01*
X192949048Y-74429599D01*
X193037327Y-74497338D01*
X193044244Y-74502646D01*
X193192269Y-74563960D01*
X193200456Y-74565038D01*
X193200457Y-74565038D01*
X193211662Y-74566513D01*
X193242858Y-74570620D01*
X193311235Y-74579622D01*
X193311238Y-74579622D01*
X193311246Y-74579623D01*
X193342931Y-74583794D01*
X193351120Y-74584872D01*
X193382813Y-74580700D01*
X193399256Y-74579622D01*
X193705548Y-74579622D01*
X193774541Y-74600190D01*
X193885460Y-74672773D01*
X193923008Y-74697344D01*
X193929612Y-74699800D01*
X193929614Y-74699801D01*
X194086407Y-74758112D01*
X194086409Y-74758112D01*
X194093017Y-74760570D01*
X194176844Y-74771755D01*
X194265829Y-74783629D01*
X194265833Y-74783629D01*
X194272810Y-74784560D01*
X194279821Y-74783922D01*
X194279825Y-74783922D01*
X194422308Y-74770954D01*
X194453449Y-74768120D01*
X194460151Y-74765942D01*
X194460153Y-74765942D01*
X194619258Y-74714246D01*
X194619261Y-74714245D01*
X194625957Y-74712069D01*
X194722362Y-74654600D01*
X194775709Y-74622799D01*
X194775711Y-74622798D01*
X194781761Y-74619191D01*
X194913115Y-74494104D01*
X195013492Y-74343024D01*
X195063770Y-74210667D01*
X195075404Y-74180042D01*
X195075405Y-74180040D01*
X195077904Y-74173460D01*
X195078884Y-74166488D01*
X195102597Y-73997761D01*
X195102597Y-73997758D01*
X195103148Y-73993839D01*
X195103465Y-73971122D01*
X195083246Y-73790867D01*
X195043481Y-73676677D01*
X195025913Y-73626228D01*
X195025911Y-73626225D01*
X195023594Y-73619570D01*
X195019858Y-73613591D01*
X194931208Y-73471720D01*
X194927475Y-73465746D01*
X194828694Y-73366273D01*
X194804627Y-73342037D01*
X194804623Y-73342034D01*
X194799664Y-73337040D01*
X194646515Y-73239849D01*
X194566929Y-73211510D01*
X194509468Y-73169818D01*
X194483667Y-73103675D01*
X194484424Y-73075277D01*
X194487745Y-73051643D01*
X194488297Y-73047718D01*
X194488614Y-73025001D01*
X194468395Y-72844746D01*
X194466078Y-72838092D01*
X194411062Y-72680107D01*
X194411060Y-72680104D01*
X194408743Y-72673449D01*
X194312624Y-72519625D01*
X194298938Y-72505843D01*
X194189776Y-72395916D01*
X194189772Y-72395913D01*
X194184813Y-72390919D01*
X194173695Y-72383863D01*
X194125536Y-72353301D01*
X194031664Y-72293728D01*
X193991336Y-72279368D01*
X193867423Y-72235244D01*
X193867418Y-72235243D01*
X193860788Y-72232882D01*
X193853800Y-72232049D01*
X193853797Y-72232048D01*
X193730696Y-72217369D01*
X193680678Y-72211405D01*
X193673675Y-72212141D01*
X193673674Y-72212141D01*
X193507286Y-72229629D01*
X193507284Y-72229630D01*
X193500286Y-72230365D01*
X193328577Y-72288819D01*
X193174086Y-72383863D01*
X193169052Y-72388792D01*
X193167774Y-72389791D01*
X193101780Y-72415968D01*
X193090202Y-72416501D01*
X192709238Y-72416501D01*
X192641117Y-72396499D01*
X192620143Y-72379596D01*
X190963745Y-70723198D01*
X196490392Y-70723198D01*
X196490749Y-70730015D01*
X196490749Y-70730019D01*
X196497010Y-70849475D01*
X196499870Y-70904047D01*
X196501681Y-70910620D01*
X196501681Y-70910623D01*
X196535205Y-71032332D01*
X196547961Y-71078641D01*
X196632422Y-71238836D01*
X196636827Y-71244049D01*
X196636830Y-71244053D01*
X196744906Y-71371943D01*
X196744910Y-71371947D01*
X196749313Y-71377157D01*
X196754737Y-71381304D01*
X196754738Y-71381305D01*
X196887757Y-71483006D01*
X196887761Y-71483009D01*
X196893178Y-71487150D01*
X196979872Y-71527576D01*
X197051131Y-71560805D01*
X197051134Y-71560806D01*
X197057308Y-71563685D01*
X197063956Y-71565171D01*
X197063959Y-71565172D01*
X197169921Y-71588857D01*
X197234043Y-71603190D01*
X197239588Y-71603500D01*
X197372744Y-71603500D01*
X197507537Y-71588857D01*
X197625690Y-71549094D01*
X197672704Y-71533272D01*
X197672706Y-71533271D01*
X197679175Y-71531094D01*
X197834405Y-71437823D01*
X197839362Y-71433135D01*
X197839365Y-71433133D01*
X197961027Y-71318082D01*
X197961029Y-71318080D01*
X197965985Y-71313393D01*
X197969817Y-71307755D01*
X197969820Y-71307751D01*
X198063942Y-71169255D01*
X198067777Y-71163612D01*
X198135030Y-70995466D01*
X198136144Y-70988738D01*
X198136145Y-70988734D01*
X198163493Y-70823539D01*
X198163493Y-70823536D01*
X198164608Y-70816802D01*
X198162856Y-70783359D01*
X198155487Y-70642766D01*
X198155130Y-70635953D01*
X198146252Y-70603719D01*
X198108852Y-70467941D01*
X198107039Y-70461359D01*
X198022578Y-70301164D01*
X198018173Y-70295951D01*
X198018170Y-70295947D01*
X197910094Y-70168057D01*
X197910090Y-70168053D01*
X197905687Y-70162843D01*
X197900262Y-70158695D01*
X197767243Y-70056994D01*
X197767239Y-70056991D01*
X197761822Y-70052850D01*
X197656686Y-70003825D01*
X197603869Y-69979195D01*
X197603866Y-69979194D01*
X197597692Y-69976315D01*
X197591044Y-69974829D01*
X197591041Y-69974828D01*
X197425994Y-69937936D01*
X197425995Y-69937936D01*
X197420957Y-69936810D01*
X197415412Y-69936500D01*
X197282256Y-69936500D01*
X197147463Y-69951143D01*
X197064109Y-69979195D01*
X196982296Y-70006728D01*
X196982294Y-70006729D01*
X196975825Y-70008906D01*
X196820595Y-70102177D01*
X196815638Y-70106865D01*
X196815635Y-70106867D01*
X196767787Y-70152115D01*
X196689015Y-70226607D01*
X196685183Y-70232245D01*
X196685180Y-70232249D01*
X196634240Y-70307205D01*
X196587223Y-70376388D01*
X196519970Y-70544534D01*
X196518856Y-70551262D01*
X196518855Y-70551266D01*
X196491711Y-70715231D01*
X196490392Y-70723198D01*
X190963745Y-70723198D01*
X188815055Y-68574508D01*
X188804188Y-68562117D01*
X188789753Y-68543305D01*
X188784727Y-68536755D01*
X188752815Y-68512268D01*
X188752812Y-68512265D01*
X188721382Y-68488148D01*
X188664169Y-68444246D01*
X188664167Y-68444245D01*
X188657616Y-68439218D01*
X188509591Y-68377904D01*
X188501404Y-68376826D01*
X188501403Y-68376826D01*
X188490198Y-68375351D01*
X188457011Y-68370982D01*
X188390625Y-68362242D01*
X188390622Y-68362242D01*
X188390614Y-68362241D01*
X188358929Y-68358070D01*
X188350740Y-68356992D01*
X188319047Y-68361164D01*
X188302604Y-68362242D01*
X185403593Y-68362242D01*
X185335472Y-68342240D01*
X185330999Y-68339018D01*
X185328657Y-68336660D01*
X185317539Y-68329604D01*
X185248382Y-68285716D01*
X185175508Y-68239469D01*
X185146305Y-68229070D01*
X185011267Y-68180985D01*
X185011262Y-68180984D01*
X185004632Y-68178623D01*
X184997644Y-68177790D01*
X184997641Y-68177789D01*
X184874540Y-68163110D01*
X184824522Y-68157146D01*
X184817519Y-68157882D01*
X184817518Y-68157882D01*
X184651130Y-68175370D01*
X184651128Y-68175371D01*
X184644130Y-68176106D01*
X184472421Y-68234560D01*
X184424946Y-68263767D01*
X184323937Y-68325908D01*
X184323934Y-68325910D01*
X184317930Y-68329604D01*
X184312895Y-68334535D01*
X184312892Y-68334537D01*
X184193367Y-68451585D01*
X184188335Y-68456513D01*
X184090077Y-68608980D01*
X184087668Y-68615600D01*
X184087666Y-68615603D01*
X184034044Y-68762928D01*
X184028039Y-68779427D01*
X184027657Y-68779288D01*
X183994306Y-68837136D01*
X183931222Y-68869708D01*
X183907299Y-68872000D01*
X183842115Y-68872000D01*
X183826876Y-68876475D01*
X183825671Y-68877865D01*
X183824000Y-68885548D01*
X183824000Y-69264004D01*
X183813616Y-69308269D01*
X183815483Y-69308948D01*
X183753445Y-69479395D01*
X183730711Y-69659350D01*
X172058500Y-69659350D01*
X172058500Y-69607885D01*
X182562000Y-69607885D01*
X182566475Y-69623124D01*
X182567865Y-69624329D01*
X182575548Y-69626000D01*
X183297885Y-69626000D01*
X183313124Y-69621525D01*
X183314329Y-69620135D01*
X183316000Y-69612452D01*
X183316000Y-68890116D01*
X183311525Y-68874877D01*
X183310135Y-68873672D01*
X183302452Y-68872001D01*
X183025331Y-68872001D01*
X183018510Y-68872371D01*
X182967648Y-68877895D01*
X182952396Y-68881521D01*
X182831946Y-68926676D01*
X182816351Y-68935214D01*
X182714276Y-69011715D01*
X182701715Y-69024276D01*
X182625214Y-69126351D01*
X182616676Y-69141946D01*
X182571522Y-69262394D01*
X182567895Y-69277649D01*
X182562369Y-69328514D01*
X182562000Y-69335328D01*
X182562000Y-69607885D01*
X172058500Y-69607885D01*
X172058500Y-67945000D01*
X175616496Y-67945000D01*
X175617186Y-67951565D01*
X175628237Y-68056705D01*
X175636458Y-68134928D01*
X175695473Y-68316556D01*
X175698776Y-68322278D01*
X175698777Y-68322279D01*
X175729418Y-68375351D01*
X175790960Y-68481944D01*
X175795378Y-68486851D01*
X175795379Y-68486852D01*
X175911307Y-68615603D01*
X175918747Y-68623866D01*
X176073248Y-68736118D01*
X176079276Y-68738802D01*
X176079278Y-68738803D01*
X176241681Y-68811109D01*
X176247712Y-68813794D01*
X176341113Y-68833647D01*
X176428056Y-68852128D01*
X176428061Y-68852128D01*
X176434513Y-68853500D01*
X176625487Y-68853500D01*
X176631939Y-68852128D01*
X176631944Y-68852128D01*
X176718887Y-68833647D01*
X176812288Y-68813794D01*
X176818319Y-68811109D01*
X176980722Y-68738803D01*
X176980724Y-68738802D01*
X176986752Y-68736118D01*
X177090940Y-68660421D01*
X177157806Y-68636563D01*
X177226958Y-68652643D01*
X177239056Y-68660418D01*
X177343248Y-68736118D01*
X177349276Y-68738802D01*
X177349278Y-68738803D01*
X177511681Y-68811109D01*
X177517712Y-68813794D01*
X177611113Y-68833647D01*
X177698056Y-68852128D01*
X177698061Y-68852128D01*
X177704513Y-68853500D01*
X177895487Y-68853500D01*
X177901939Y-68852128D01*
X177901944Y-68852128D01*
X177988887Y-68833647D01*
X178082288Y-68813794D01*
X178088319Y-68811109D01*
X178250722Y-68738803D01*
X178250724Y-68738802D01*
X178256752Y-68736118D01*
X178360940Y-68660421D01*
X178427806Y-68636563D01*
X178496958Y-68652643D01*
X178509056Y-68660418D01*
X178613248Y-68736118D01*
X178619276Y-68738802D01*
X178619278Y-68738803D01*
X178781681Y-68811109D01*
X178787712Y-68813794D01*
X178881113Y-68833647D01*
X178968056Y-68852128D01*
X178968061Y-68852128D01*
X178974513Y-68853500D01*
X179165487Y-68853500D01*
X179171939Y-68852128D01*
X179171944Y-68852128D01*
X179258887Y-68833647D01*
X179352288Y-68813794D01*
X179358319Y-68811109D01*
X179520722Y-68738803D01*
X179520724Y-68738802D01*
X179526752Y-68736118D01*
X179630940Y-68660421D01*
X179697806Y-68636563D01*
X179766958Y-68652643D01*
X179779056Y-68660418D01*
X179883248Y-68736118D01*
X179889276Y-68738802D01*
X179889278Y-68738803D01*
X180051681Y-68811109D01*
X180057712Y-68813794D01*
X180151113Y-68833647D01*
X180238056Y-68852128D01*
X180238061Y-68852128D01*
X180244513Y-68853500D01*
X180435487Y-68853500D01*
X180441939Y-68852128D01*
X180441944Y-68852128D01*
X180528887Y-68833647D01*
X180622288Y-68813794D01*
X180628319Y-68811109D01*
X180790722Y-68738803D01*
X180790724Y-68738802D01*
X180796752Y-68736118D01*
X180951253Y-68623866D01*
X180958693Y-68615603D01*
X181074621Y-68486852D01*
X181074622Y-68486851D01*
X181079040Y-68481944D01*
X181140582Y-68375351D01*
X181171223Y-68322279D01*
X181171224Y-68322278D01*
X181174527Y-68316556D01*
X181233542Y-68134928D01*
X181241764Y-68056705D01*
X181252814Y-67951565D01*
X181253504Y-67945000D01*
X181241490Y-67830692D01*
X181234232Y-67761635D01*
X181234232Y-67761633D01*
X181233542Y-67755072D01*
X181174527Y-67573444D01*
X181158144Y-67545067D01*
X181082341Y-67413774D01*
X181079040Y-67408056D01*
X181071878Y-67400102D01*
X189990141Y-67400102D01*
X189991120Y-67405799D01*
X189991120Y-67405800D01*
X190017152Y-67557297D01*
X190025732Y-67607228D01*
X190098472Y-67804399D01*
X190101424Y-67809360D01*
X190101424Y-67809361D01*
X190106547Y-67817971D01*
X190205926Y-67985012D01*
X190344494Y-68143019D01*
X190349024Y-68146590D01*
X190497663Y-68263767D01*
X190509537Y-68273128D01*
X190514653Y-68275819D01*
X190514655Y-68275821D01*
X190690410Y-68368290D01*
X190695527Y-68370982D01*
X190896234Y-68433304D01*
X190901969Y-68433983D01*
X190901970Y-68433983D01*
X190919503Y-68436058D01*
X191066874Y-68453500D01*
X194998318Y-68453500D01*
X195154281Y-68439169D01*
X195159843Y-68437600D01*
X195159845Y-68437600D01*
X195309726Y-68395329D01*
X195356551Y-68382123D01*
X195545039Y-68289171D01*
X195606538Y-68243248D01*
X195708807Y-68166880D01*
X195708808Y-68166879D01*
X195713431Y-68163427D01*
X195739775Y-68134928D01*
X195852169Y-68013341D01*
X195852171Y-68013338D01*
X195856088Y-68009101D01*
X195968233Y-67831362D01*
X196046110Y-67636163D01*
X196047235Y-67630506D01*
X196047237Y-67630500D01*
X196085983Y-67435707D01*
X196085983Y-67435705D01*
X196087110Y-67430040D01*
X196087223Y-67421460D01*
X196089063Y-67280849D01*
X196089861Y-67219898D01*
X196088780Y-67213604D01*
X196055249Y-67018469D01*
X196055249Y-67018468D01*
X196054270Y-67012772D01*
X195981530Y-66815601D01*
X195924187Y-66719217D01*
X195877030Y-66639953D01*
X195877029Y-66639952D01*
X195874076Y-66634988D01*
X195735508Y-66476981D01*
X195627588Y-66391904D01*
X195575004Y-66350450D01*
X195575002Y-66350449D01*
X195570465Y-66346872D01*
X195565349Y-66344181D01*
X195565347Y-66344179D01*
X195389592Y-66251710D01*
X195389590Y-66251709D01*
X195384475Y-66249018D01*
X195183768Y-66186696D01*
X195178033Y-66186017D01*
X195178032Y-66186017D01*
X195129735Y-66180301D01*
X195013128Y-66166500D01*
X191081684Y-66166500D01*
X190925721Y-66180831D01*
X190920159Y-66182400D01*
X190920157Y-66182400D01*
X190885278Y-66192237D01*
X190723451Y-66237877D01*
X190534963Y-66330829D01*
X190366571Y-66456573D01*
X190362657Y-66460807D01*
X190362655Y-66460809D01*
X190264581Y-66566906D01*
X190223914Y-66610899D01*
X190111769Y-66788638D01*
X190033892Y-66983837D01*
X190032767Y-66989494D01*
X190032765Y-66989500D01*
X190020278Y-67052279D01*
X189992892Y-67189960D01*
X189992816Y-67195735D01*
X189992816Y-67195739D01*
X189991830Y-67271105D01*
X189990141Y-67400102D01*
X181071878Y-67400102D01*
X181066662Y-67394309D01*
X181035946Y-67330303D01*
X181044710Y-67259850D01*
X181066661Y-67225693D01*
X181079040Y-67211944D01*
X181137314Y-67111010D01*
X181171223Y-67052279D01*
X181171224Y-67052278D01*
X181174527Y-67046556D01*
X181233542Y-66864928D01*
X181235269Y-66848502D01*
X181252814Y-66681565D01*
X181253504Y-66675000D01*
X181242143Y-66566906D01*
X181234232Y-66491635D01*
X181234232Y-66491633D01*
X181233542Y-66485072D01*
X181174527Y-66303444D01*
X181142115Y-66247304D01*
X181106730Y-66186017D01*
X181079040Y-66138056D01*
X181040244Y-66094968D01*
X180955675Y-66001045D01*
X180955674Y-66001044D01*
X180951253Y-65996134D01*
X180821392Y-65901784D01*
X180802094Y-65887763D01*
X180802093Y-65887762D01*
X180796752Y-65883882D01*
X180790724Y-65881198D01*
X180790722Y-65881197D01*
X180628319Y-65808891D01*
X180628318Y-65808891D01*
X180622288Y-65806206D01*
X180509721Y-65782279D01*
X180441944Y-65767872D01*
X180441939Y-65767872D01*
X180435487Y-65766500D01*
X180244513Y-65766500D01*
X180238061Y-65767872D01*
X180238056Y-65767872D01*
X180170279Y-65782279D01*
X180057712Y-65806206D01*
X180051682Y-65808891D01*
X180051681Y-65808891D01*
X179889278Y-65881197D01*
X179889276Y-65881198D01*
X179883248Y-65883882D01*
X179877907Y-65887762D01*
X179877906Y-65887763D01*
X179858608Y-65901784D01*
X179779060Y-65959579D01*
X179712194Y-65983437D01*
X179643042Y-65967357D01*
X179630944Y-65959582D01*
X179551392Y-65901784D01*
X179532094Y-65887763D01*
X179532093Y-65887762D01*
X179526752Y-65883882D01*
X179520724Y-65881198D01*
X179520722Y-65881197D01*
X179358319Y-65808891D01*
X179358318Y-65808891D01*
X179352288Y-65806206D01*
X179239721Y-65782279D01*
X179171944Y-65767872D01*
X179171939Y-65767872D01*
X179165487Y-65766500D01*
X178974513Y-65766500D01*
X178968061Y-65767872D01*
X178968056Y-65767872D01*
X178900279Y-65782279D01*
X178787712Y-65806206D01*
X178781682Y-65808891D01*
X178781681Y-65808891D01*
X178619278Y-65881197D01*
X178619276Y-65881198D01*
X178613248Y-65883882D01*
X178607907Y-65887762D01*
X178607906Y-65887763D01*
X178588608Y-65901784D01*
X178509060Y-65959579D01*
X178442194Y-65983437D01*
X178373042Y-65967357D01*
X178360944Y-65959582D01*
X178281392Y-65901784D01*
X178262094Y-65887763D01*
X178262093Y-65887762D01*
X178256752Y-65883882D01*
X178250724Y-65881198D01*
X178250722Y-65881197D01*
X178088319Y-65808891D01*
X178088318Y-65808891D01*
X178082288Y-65806206D01*
X177969721Y-65782279D01*
X177901944Y-65767872D01*
X177901939Y-65767872D01*
X177895487Y-65766500D01*
X177704513Y-65766500D01*
X177698061Y-65767872D01*
X177698056Y-65767872D01*
X177630279Y-65782279D01*
X177517712Y-65806206D01*
X177511682Y-65808891D01*
X177511681Y-65808891D01*
X177349278Y-65881197D01*
X177349276Y-65881198D01*
X177343248Y-65883882D01*
X177337907Y-65887762D01*
X177337906Y-65887763D01*
X177318608Y-65901784D01*
X177239060Y-65959579D01*
X177172194Y-65983437D01*
X177103042Y-65967357D01*
X177090944Y-65959582D01*
X177011392Y-65901784D01*
X176992094Y-65887763D01*
X176992093Y-65887762D01*
X176986752Y-65883882D01*
X176980724Y-65881198D01*
X176980722Y-65881197D01*
X176818319Y-65808891D01*
X176818318Y-65808891D01*
X176812288Y-65806206D01*
X176699721Y-65782279D01*
X176631944Y-65767872D01*
X176631939Y-65767872D01*
X176625487Y-65766500D01*
X176434513Y-65766500D01*
X176428061Y-65767872D01*
X176428056Y-65767872D01*
X176360279Y-65782279D01*
X176247712Y-65806206D01*
X176241682Y-65808891D01*
X176241681Y-65808891D01*
X176079278Y-65881197D01*
X176079276Y-65881198D01*
X176073248Y-65883882D01*
X176067907Y-65887762D01*
X176067906Y-65887763D01*
X176048608Y-65901784D01*
X175918747Y-65996134D01*
X175914326Y-66001044D01*
X175914325Y-66001045D01*
X175829757Y-66094968D01*
X175790960Y-66138056D01*
X175763270Y-66186017D01*
X175727886Y-66247304D01*
X175695473Y-66303444D01*
X175636458Y-66485072D01*
X175635768Y-66491633D01*
X175635768Y-66491635D01*
X175627857Y-66566906D01*
X175616496Y-66675000D01*
X175617186Y-66681565D01*
X175634732Y-66848502D01*
X175636458Y-66864928D01*
X175695473Y-67046556D01*
X175698776Y-67052278D01*
X175698777Y-67052279D01*
X175732686Y-67111010D01*
X175790960Y-67211944D01*
X175803338Y-67225691D01*
X175834054Y-67289697D01*
X175825290Y-67360150D01*
X175803339Y-67394307D01*
X175790960Y-67408056D01*
X175787659Y-67413774D01*
X175711857Y-67545067D01*
X175695473Y-67573444D01*
X175636458Y-67755072D01*
X175635768Y-67761633D01*
X175635768Y-67761635D01*
X175628510Y-67830692D01*
X175616496Y-67945000D01*
X172058500Y-67945000D01*
X172058500Y-65709239D01*
X172078502Y-65641118D01*
X172095405Y-65620144D01*
X172310549Y-65405000D01*
X173076496Y-65405000D01*
X173096458Y-65594928D01*
X173155473Y-65776556D01*
X173250960Y-65941944D01*
X173255378Y-65946851D01*
X173255379Y-65946852D01*
X173344825Y-66046192D01*
X173378747Y-66083866D01*
X173390390Y-66092325D01*
X173525644Y-66190593D01*
X173533248Y-66196118D01*
X173539276Y-66198802D01*
X173539278Y-66198803D01*
X173701681Y-66271109D01*
X173707712Y-66273794D01*
X173801112Y-66293647D01*
X173888056Y-66312128D01*
X173888061Y-66312128D01*
X173894513Y-66313500D01*
X174085487Y-66313500D01*
X174091939Y-66312128D01*
X174091944Y-66312128D01*
X174178888Y-66293647D01*
X174272288Y-66273794D01*
X174278319Y-66271109D01*
X174440722Y-66198803D01*
X174440724Y-66198802D01*
X174446752Y-66196118D01*
X174454357Y-66190593D01*
X174589610Y-66092325D01*
X174601253Y-66083866D01*
X174635175Y-66046192D01*
X174724621Y-65946852D01*
X174724622Y-65946851D01*
X174729040Y-65941944D01*
X174824527Y-65776556D01*
X174883542Y-65594928D01*
X174903504Y-65405000D01*
X174895464Y-65328500D01*
X174884232Y-65221635D01*
X174884232Y-65221633D01*
X174883542Y-65215072D01*
X174824527Y-65033444D01*
X174729040Y-64868056D01*
X174723938Y-64862389D01*
X174605675Y-64731045D01*
X174605674Y-64731044D01*
X174601253Y-64726134D01*
X174476019Y-64635146D01*
X174452094Y-64617763D01*
X174452093Y-64617762D01*
X174446752Y-64613882D01*
X174440724Y-64611198D01*
X174440722Y-64611197D01*
X174278319Y-64538891D01*
X174278318Y-64538891D01*
X174272288Y-64536206D01*
X174178888Y-64516353D01*
X174091944Y-64497872D01*
X174091939Y-64497872D01*
X174085487Y-64496500D01*
X173894513Y-64496500D01*
X173888061Y-64497872D01*
X173888056Y-64497872D01*
X173801112Y-64516353D01*
X173707712Y-64536206D01*
X173701682Y-64538891D01*
X173701681Y-64538891D01*
X173539278Y-64611197D01*
X173539276Y-64611198D01*
X173533248Y-64613882D01*
X173527907Y-64617762D01*
X173527906Y-64617763D01*
X173503981Y-64635146D01*
X173378747Y-64726134D01*
X173374326Y-64731044D01*
X173374325Y-64731045D01*
X173256063Y-64862389D01*
X173250960Y-64868056D01*
X173155473Y-65033444D01*
X173096458Y-65215072D01*
X173095768Y-65221633D01*
X173095768Y-65221635D01*
X173084536Y-65328500D01*
X173076496Y-65405000D01*
X172310549Y-65405000D01*
X174147249Y-63568300D01*
X174209561Y-63534274D01*
X174280376Y-63539339D01*
X174337212Y-63581886D01*
X174361654Y-63644223D01*
X174366458Y-63689928D01*
X174425473Y-63871556D01*
X174520960Y-64036944D01*
X174525378Y-64041851D01*
X174525379Y-64041852D01*
X174573038Y-64094783D01*
X174648747Y-64178866D01*
X174803248Y-64291118D01*
X174809276Y-64293802D01*
X174809278Y-64293803D01*
X174904084Y-64336013D01*
X174977712Y-64368794D01*
X175071113Y-64388647D01*
X175158056Y-64407128D01*
X175158061Y-64407128D01*
X175164513Y-64408500D01*
X175355487Y-64408500D01*
X175361939Y-64407128D01*
X175361944Y-64407128D01*
X175448887Y-64388647D01*
X175542288Y-64368794D01*
X175615916Y-64336013D01*
X175710722Y-64293803D01*
X175710724Y-64293802D01*
X175716752Y-64291118D01*
X175871253Y-64178866D01*
X175946962Y-64094783D01*
X175994621Y-64041852D01*
X175994622Y-64041851D01*
X175999040Y-64036944D01*
X176094527Y-63871556D01*
X176153542Y-63689928D01*
X176166326Y-63568300D01*
X176172214Y-63512277D01*
X183537009Y-63512277D01*
X183562625Y-63780769D01*
X183563710Y-63785203D01*
X183563711Y-63785209D01*
X183608883Y-63969810D01*
X183626731Y-64042750D01*
X183727985Y-64292733D01*
X183864265Y-64525482D01*
X183938064Y-64617763D01*
X183984686Y-64676060D01*
X184032716Y-64736119D01*
X184229809Y-64920234D01*
X184451416Y-65073968D01*
X184455499Y-65075999D01*
X184455502Y-65076001D01*
X184571013Y-65133466D01*
X184692894Y-65194101D01*
X184697228Y-65195522D01*
X184697231Y-65195523D01*
X184944853Y-65276698D01*
X184944859Y-65276699D01*
X184949186Y-65278118D01*
X184953677Y-65278898D01*
X184953678Y-65278898D01*
X185211140Y-65323601D01*
X185211148Y-65323602D01*
X185214921Y-65324257D01*
X185218758Y-65324448D01*
X185298578Y-65328422D01*
X185298586Y-65328422D01*
X185300149Y-65328500D01*
X185468512Y-65328500D01*
X185470780Y-65328335D01*
X185470792Y-65328335D01*
X185601884Y-65318823D01*
X185669004Y-65313953D01*
X185673459Y-65312969D01*
X185673462Y-65312969D01*
X185927912Y-65256791D01*
X185927916Y-65256790D01*
X185932372Y-65255806D01*
X186058480Y-65208028D01*
X186180318Y-65161868D01*
X186180321Y-65161867D01*
X186184588Y-65160250D01*
X186420368Y-65029286D01*
X186634773Y-64865657D01*
X186703354Y-64795503D01*
X186820117Y-64676060D01*
X186823312Y-64672792D01*
X186982034Y-64454730D01*
X187066702Y-64293803D01*
X187105490Y-64220079D01*
X187105493Y-64220073D01*
X187107615Y-64216039D01*
X187120743Y-64178866D01*
X187195902Y-63966033D01*
X187195902Y-63966032D01*
X187197425Y-63961720D01*
X187228852Y-63802270D01*
X187248700Y-63701572D01*
X187248701Y-63701566D01*
X187249581Y-63697100D01*
X187250265Y-63683365D01*
X187262764Y-63432292D01*
X187262764Y-63432286D01*
X187262991Y-63427723D01*
X187237375Y-63159231D01*
X187231380Y-63134729D01*
X187174355Y-62901688D01*
X187173269Y-62897250D01*
X187072015Y-62647267D01*
X186958411Y-62453246D01*
X186938045Y-62418463D01*
X186938044Y-62418462D01*
X186935735Y-62414518D01*
X186817928Y-62267208D01*
X186770136Y-62207447D01*
X186770135Y-62207445D01*
X186767284Y-62203881D01*
X186570191Y-62019766D01*
X186348584Y-61866032D01*
X186344501Y-61864001D01*
X186344498Y-61863999D01*
X186179606Y-61781967D01*
X186107106Y-61745899D01*
X186102772Y-61744478D01*
X186102769Y-61744477D01*
X185855147Y-61663302D01*
X185855141Y-61663301D01*
X185850814Y-61661882D01*
X185846322Y-61661102D01*
X185588860Y-61616399D01*
X185588852Y-61616398D01*
X185585079Y-61615743D01*
X185573817Y-61615182D01*
X185501422Y-61611578D01*
X185501414Y-61611578D01*
X185499851Y-61611500D01*
X185331488Y-61611500D01*
X185329220Y-61611665D01*
X185329208Y-61611665D01*
X185198116Y-61621177D01*
X185130996Y-61626047D01*
X185126541Y-61627031D01*
X185126538Y-61627031D01*
X184872088Y-61683209D01*
X184872084Y-61683210D01*
X184867628Y-61684194D01*
X184772819Y-61720114D01*
X184619682Y-61778132D01*
X184619679Y-61778133D01*
X184615412Y-61779750D01*
X184379632Y-61910714D01*
X184165227Y-62074343D01*
X183976688Y-62267208D01*
X183817966Y-62485270D01*
X183815844Y-62489304D01*
X183694510Y-62719921D01*
X183694507Y-62719927D01*
X183692385Y-62723961D01*
X183690865Y-62728266D01*
X183690863Y-62728270D01*
X183609684Y-62958148D01*
X183602575Y-62978280D01*
X183550419Y-63242900D01*
X183550192Y-63247453D01*
X183550192Y-63247456D01*
X183540991Y-63432292D01*
X183537009Y-63512277D01*
X176172214Y-63512277D01*
X176172814Y-63506565D01*
X176173504Y-63500000D01*
X176166388Y-63432292D01*
X176154232Y-63316635D01*
X176154232Y-63316633D01*
X176153542Y-63310072D01*
X176094527Y-63128444D01*
X175999040Y-62963056D01*
X175935979Y-62893019D01*
X175875675Y-62826045D01*
X175875674Y-62826044D01*
X175871253Y-62821134D01*
X175743437Y-62728270D01*
X175722094Y-62712763D01*
X175722093Y-62712762D01*
X175716752Y-62708882D01*
X175710724Y-62706198D01*
X175710722Y-62706197D01*
X175548319Y-62633891D01*
X175548318Y-62633891D01*
X175542288Y-62631206D01*
X175535833Y-62629834D01*
X175532263Y-62628674D01*
X175473657Y-62588600D01*
X175446021Y-62523203D01*
X175458128Y-62453246D01*
X175506135Y-62400940D01*
X175532262Y-62389009D01*
X175552357Y-62382480D01*
X175584836Y-62371927D01*
X175584839Y-62371926D01*
X175591535Y-62369750D01*
X175747339Y-62276872D01*
X175878693Y-62151785D01*
X175979070Y-62000705D01*
X175981573Y-61994116D01*
X175981575Y-61994112D01*
X176001387Y-61941959D01*
X176044276Y-61885381D01*
X176080238Y-61866871D01*
X176224408Y-61820027D01*
X176231108Y-61817850D01*
X176386912Y-61724972D01*
X176518266Y-61599885D01*
X176618643Y-61448805D01*
X176683055Y-61279241D01*
X176708299Y-61099620D01*
X176708616Y-61076903D01*
X176688397Y-60896648D01*
X176633827Y-60739944D01*
X176630313Y-60669034D01*
X176635030Y-60653763D01*
X176680555Y-60533920D01*
X176680556Y-60533918D01*
X176683055Y-60527338D01*
X176708299Y-60347717D01*
X176708616Y-60325000D01*
X176688397Y-60144745D01*
X176628745Y-59973448D01*
X176561933Y-59866526D01*
X176536359Y-59825598D01*
X176532626Y-59819624D01*
X176506660Y-59793476D01*
X176409778Y-59695915D01*
X176409774Y-59695912D01*
X176404815Y-59690918D01*
X176393697Y-59683862D01*
X176345538Y-59653300D01*
X176251666Y-59593727D01*
X176222463Y-59583328D01*
X176087425Y-59535243D01*
X176087420Y-59535242D01*
X176080790Y-59532881D01*
X176073802Y-59532048D01*
X176073799Y-59532047D01*
X175950698Y-59517368D01*
X175900680Y-59511404D01*
X175893677Y-59512140D01*
X175893676Y-59512140D01*
X175727288Y-59529628D01*
X175727286Y-59529629D01*
X175720288Y-59530364D01*
X175548579Y-59588818D01*
X175394088Y-59683862D01*
X175389054Y-59688791D01*
X175387776Y-59689790D01*
X175321782Y-59715967D01*
X175310204Y-59716500D01*
X174673136Y-59716500D01*
X174656690Y-59715422D01*
X174633188Y-59712328D01*
X174625000Y-59711250D01*
X174616812Y-59712328D01*
X174585129Y-59716499D01*
X174585120Y-59716500D01*
X174585115Y-59716500D01*
X174466150Y-59732162D01*
X174318125Y-59793476D01*
X174318123Y-59793477D01*
X174318124Y-59793477D01*
X174222928Y-59866523D01*
X174222925Y-59866526D01*
X174191013Y-59891013D01*
X174185983Y-59897568D01*
X174171548Y-59916379D01*
X174160681Y-59928770D01*
X169783766Y-64305685D01*
X169771375Y-64316552D01*
X169746013Y-64336013D01*
X169721526Y-64367925D01*
X169721523Y-64367928D01*
X169719806Y-64370166D01*
X169691444Y-64407128D01*
X169648476Y-64463124D01*
X169587162Y-64611149D01*
X169587162Y-64611150D01*
X169571500Y-64730115D01*
X169571500Y-64730120D01*
X169566250Y-64770000D01*
X169567328Y-64778188D01*
X169570422Y-64801690D01*
X169571500Y-64818136D01*
X169571500Y-66784060D01*
X169551498Y-66852181D01*
X169497842Y-66898674D01*
X169427568Y-66908778D01*
X169362988Y-66879284D01*
X169328308Y-66830342D01*
X169288185Y-66728744D01*
X169288184Y-66728742D01*
X169286224Y-66723779D01*
X169281029Y-66715217D01*
X169169390Y-66531243D01*
X169166623Y-66526683D01*
X169102789Y-66453120D01*
X169019023Y-66356588D01*
X169019021Y-66356586D01*
X169015523Y-66352555D01*
X168948648Y-66297721D01*
X168841373Y-66209760D01*
X168841367Y-66209756D01*
X168837245Y-66206376D01*
X168832609Y-66203737D01*
X168832606Y-66203735D01*
X168641529Y-66094968D01*
X168636886Y-66092325D01*
X168420175Y-66013663D01*
X168414926Y-66012714D01*
X168414923Y-66012713D01*
X168197392Y-65973377D01*
X168197385Y-65973376D01*
X168193308Y-65972639D01*
X168175586Y-65971803D01*
X168170644Y-65971570D01*
X168170637Y-65971570D01*
X168169156Y-65971500D01*
X167707110Y-65971500D01*
X167640191Y-65977178D01*
X167540591Y-65985629D01*
X167540587Y-65985630D01*
X167535280Y-65986080D01*
X167530125Y-65987418D01*
X167530119Y-65987419D01*
X167317297Y-66042657D01*
X167317293Y-66042658D01*
X167312128Y-66043999D01*
X167307262Y-66046191D01*
X167307259Y-66046192D01*
X167198980Y-66094968D01*
X167101925Y-66138688D01*
X166910681Y-66267441D01*
X166743865Y-66426576D01*
X166740682Y-66430854D01*
X166705014Y-66478794D01*
X166606246Y-66611542D01*
X166603830Y-66616293D01*
X166603828Y-66616297D01*
X166565194Y-66692285D01*
X166501760Y-66817051D01*
X166500178Y-66822145D01*
X166500177Y-66822148D01*
X166484944Y-66871206D01*
X166433393Y-67037227D01*
X166432692Y-67042516D01*
X166406617Y-67239255D01*
X166403102Y-67265774D01*
X166403302Y-67271103D01*
X166403302Y-67271105D01*
X166406645Y-67360150D01*
X166411751Y-67496158D01*
X166459093Y-67721791D01*
X166461051Y-67726750D01*
X166461052Y-67726752D01*
X166500247Y-67825998D01*
X166543776Y-67936221D01*
X166546543Y-67940780D01*
X166546544Y-67940783D01*
X166611883Y-68048458D01*
X166663377Y-68133317D01*
X166666874Y-68137347D01*
X166800837Y-68291726D01*
X166814477Y-68307445D01*
X166850120Y-68336670D01*
X166890114Y-68395329D01*
X166892046Y-68466299D01*
X166855302Y-68527048D01*
X166836532Y-68541248D01*
X166727079Y-68608980D01*
X166690652Y-68631522D01*
X166565695Y-68756697D01*
X166561855Y-68762927D01*
X166561854Y-68762928D01*
X166491006Y-68877865D01*
X166472885Y-68907262D01*
X166417203Y-69075139D01*
X166406500Y-69179600D01*
X166406500Y-70480400D01*
X166417474Y-70586166D01*
X166419655Y-70592702D01*
X166419655Y-70592704D01*
X166442837Y-70662188D01*
X166473450Y-70753946D01*
X166566522Y-70904348D01*
X166691697Y-71029305D01*
X166697927Y-71033145D01*
X166697928Y-71033146D01*
X166835090Y-71117694D01*
X166842262Y-71122115D01*
X166916194Y-71146637D01*
X167003611Y-71175632D01*
X167003613Y-71175632D01*
X167010139Y-71177797D01*
X167016975Y-71178497D01*
X167016978Y-71178498D01*
X167060031Y-71182909D01*
X167114600Y-71188500D01*
X168715400Y-71188500D01*
X168718646Y-71188163D01*
X168718650Y-71188163D01*
X168814308Y-71178238D01*
X168814312Y-71178237D01*
X168821166Y-71177526D01*
X168827702Y-71175345D01*
X168827704Y-71175345D01*
X168959806Y-71131272D01*
X168988946Y-71121550D01*
X169139348Y-71028478D01*
X169264305Y-70903303D01*
X169273966Y-70887631D01*
X169338240Y-70783359D01*
X169391013Y-70735866D01*
X169461084Y-70724442D01*
X169526208Y-70752716D01*
X169565707Y-70811710D01*
X169571500Y-70849475D01*
X169571500Y-80975761D01*
X169551498Y-81043882D01*
X169534595Y-81064856D01*
X164884856Y-85714595D01*
X164822544Y-85748621D01*
X164795761Y-85751500D01*
X159980115Y-85751500D01*
X159861150Y-85767162D01*
X159713125Y-85828476D01*
X159649569Y-85877244D01*
X159592566Y-85920984D01*
X159592563Y-85920987D01*
X159586013Y-85926013D01*
X159488476Y-86053124D01*
X159427162Y-86201150D01*
X159406249Y-86360000D01*
X159427162Y-86518850D01*
X159430321Y-86526477D01*
X159430322Y-86526480D01*
X159472904Y-86629282D01*
X159480493Y-86699872D01*
X159472904Y-86725718D01*
X159453009Y-86773750D01*
X159427162Y-86836150D01*
X159406249Y-86995000D01*
X108458000Y-86995000D01*
X108458000Y-83838134D01*
X146971500Y-83838134D01*
X146978255Y-83900316D01*
X147029385Y-84036705D01*
X147116739Y-84153261D01*
X147233295Y-84240615D01*
X147369684Y-84291745D01*
X147431866Y-84298500D01*
X148528134Y-84298500D01*
X148590316Y-84291745D01*
X148726705Y-84240615D01*
X148843261Y-84153261D01*
X148930615Y-84036705D01*
X148981745Y-83900316D01*
X148988500Y-83838134D01*
X148988500Y-82741866D01*
X148981745Y-82679684D01*
X148930615Y-82543295D01*
X148843261Y-82426739D01*
X148726705Y-82339385D01*
X148590316Y-82288255D01*
X148528134Y-82281500D01*
X147431866Y-82281500D01*
X147369684Y-82288255D01*
X147233295Y-82339385D01*
X147116739Y-82426739D01*
X147029385Y-82543295D01*
X146978255Y-82679684D01*
X146971500Y-82741866D01*
X146971500Y-83838134D01*
X108458000Y-83838134D01*
X108458000Y-80788134D01*
X148731500Y-80788134D01*
X148738255Y-80850316D01*
X148789385Y-80986705D01*
X148876739Y-81103261D01*
X148993295Y-81190615D01*
X149129684Y-81241745D01*
X149191866Y-81248500D01*
X150288134Y-81248500D01*
X150350316Y-81241745D01*
X150486705Y-81190615D01*
X150603261Y-81103261D01*
X150690615Y-80986705D01*
X150741745Y-80850316D01*
X150744155Y-80828133D01*
X151781500Y-80828133D01*
X151788255Y-80890315D01*
X151839385Y-81026704D01*
X151926739Y-81143260D01*
X152043295Y-81230614D01*
X152179684Y-81281744D01*
X152241866Y-81288499D01*
X153338134Y-81288499D01*
X153400316Y-81281744D01*
X153536705Y-81230614D01*
X153653261Y-81143260D01*
X153740615Y-81026704D01*
X153791745Y-80890315D01*
X153798500Y-80828133D01*
X153798500Y-79731865D01*
X153791745Y-79669683D01*
X153740615Y-79533294D01*
X153653261Y-79416738D01*
X153536705Y-79329384D01*
X153400316Y-79278254D01*
X153338134Y-79271499D01*
X152241866Y-79271499D01*
X152179684Y-79278254D01*
X152043295Y-79329384D01*
X151926739Y-79416738D01*
X151839385Y-79533294D01*
X151788255Y-79669683D01*
X151781500Y-79731865D01*
X151781500Y-80828133D01*
X150744155Y-80828133D01*
X150748500Y-80788134D01*
X150748500Y-79691866D01*
X150748104Y-79688216D01*
X150742598Y-79637540D01*
X150741745Y-79629684D01*
X150690615Y-79493295D01*
X150603261Y-79376739D01*
X150486705Y-79289385D01*
X150350316Y-79238255D01*
X150288134Y-79231500D01*
X149191866Y-79231500D01*
X149129684Y-79238255D01*
X148993295Y-79289385D01*
X148876739Y-79376739D01*
X148789385Y-79493295D01*
X148738255Y-79629684D01*
X148737402Y-79637540D01*
X148731897Y-79688216D01*
X148731500Y-79691866D01*
X148731500Y-80788134D01*
X108458000Y-80788134D01*
X108458000Y-76898326D01*
X109469982Y-76898326D01*
X109495657Y-77243821D01*
X109560278Y-77584188D01*
X109561336Y-77587597D01*
X109561338Y-77587603D01*
X109601696Y-77717576D01*
X109663014Y-77915053D01*
X109664455Y-77918327D01*
X109664455Y-77918328D01*
X109786319Y-78195283D01*
X109802545Y-78232160D01*
X109977076Y-78531434D01*
X110184364Y-78809027D01*
X110186808Y-78811625D01*
X110186813Y-78811631D01*
X110240116Y-78868293D01*
X110421744Y-79061369D01*
X110455328Y-79089800D01*
X110681216Y-79281028D01*
X110686164Y-79285217D01*
X110689128Y-79287197D01*
X110689130Y-79287199D01*
X110893450Y-79423721D01*
X110974225Y-79477693D01*
X110977407Y-79479332D01*
X110977409Y-79479333D01*
X111279040Y-79634684D01*
X111279045Y-79634686D01*
X111282223Y-79636323D01*
X111285564Y-79637589D01*
X111285569Y-79637591D01*
X111433844Y-79693767D01*
X111606199Y-79759066D01*
X111609663Y-79759946D01*
X111609667Y-79759947D01*
X111938519Y-79843465D01*
X111938527Y-79843467D01*
X111941986Y-79844345D01*
X112110779Y-79867317D01*
X112282277Y-79890657D01*
X112282284Y-79890658D01*
X112285270Y-79891064D01*
X112398174Y-79895500D01*
X112612754Y-79895500D01*
X112751975Y-79887594D01*
X112867322Y-79881045D01*
X112867329Y-79881044D01*
X112870890Y-79880842D01*
X113212334Y-79822171D01*
X113215766Y-79821171D01*
X113215769Y-79821170D01*
X113541497Y-79726229D01*
X113541500Y-79726228D01*
X113544941Y-79725225D01*
X113548241Y-79723841D01*
X113548250Y-79723838D01*
X113772781Y-79629684D01*
X113864436Y-79591250D01*
X114166710Y-79421968D01*
X114447878Y-79219556D01*
X114450529Y-79217148D01*
X114450534Y-79217144D01*
X114701675Y-78989023D01*
X114704325Y-78986616D01*
X114932753Y-78726143D01*
X115130228Y-78441485D01*
X115294208Y-78136303D01*
X115301697Y-78117533D01*
X115347908Y-78001703D01*
X115422587Y-77814519D01*
X115513713Y-77480271D01*
X115539752Y-77311094D01*
X115565874Y-77141378D01*
X115565874Y-77141374D01*
X115566416Y-77137855D01*
X115573480Y-76958062D01*
X115579878Y-76795244D01*
X115579878Y-76795239D01*
X115580018Y-76791674D01*
X115560410Y-76527824D01*
X115554608Y-76449741D01*
X115554607Y-76449736D01*
X115554343Y-76446179D01*
X115489722Y-76105812D01*
X115483945Y-76087205D01*
X115419190Y-75878661D01*
X115386986Y-75774947D01*
X115380055Y-75759195D01*
X115248899Y-75461121D01*
X115248897Y-75461116D01*
X115247455Y-75457840D01*
X115072924Y-75158566D01*
X114865636Y-74880973D01*
X114863192Y-74878375D01*
X114863187Y-74878369D01*
X114746946Y-74754802D01*
X114628256Y-74628631D01*
X114480941Y-74503920D01*
X114366558Y-74407087D01*
X114366554Y-74407084D01*
X114363836Y-74404783D01*
X114307823Y-74367356D01*
X114078752Y-74214296D01*
X114078750Y-74214295D01*
X114075775Y-74212307D01*
X114013129Y-74180042D01*
X113770960Y-74055316D01*
X113770955Y-74055314D01*
X113767777Y-74053677D01*
X113764436Y-74052411D01*
X113764431Y-74052409D01*
X113447145Y-73932201D01*
X113447146Y-73932201D01*
X113443801Y-73930934D01*
X113440337Y-73930054D01*
X113440333Y-73930053D01*
X113111481Y-73846535D01*
X113111473Y-73846533D01*
X113108014Y-73845655D01*
X112934186Y-73821998D01*
X112767723Y-73799343D01*
X112767716Y-73799342D01*
X112764730Y-73798936D01*
X112651826Y-73794500D01*
X112437246Y-73794500D01*
X112298025Y-73802406D01*
X112182678Y-73808955D01*
X112182671Y-73808956D01*
X112179110Y-73809158D01*
X111837666Y-73867829D01*
X111834234Y-73868829D01*
X111834231Y-73868830D01*
X111508503Y-73963771D01*
X111508500Y-73963772D01*
X111505059Y-73964775D01*
X111501759Y-73966159D01*
X111501750Y-73966162D01*
X111310238Y-74046470D01*
X111185564Y-74098750D01*
X111052160Y-74173460D01*
X110929922Y-74241917D01*
X110883290Y-74268032D01*
X110602122Y-74470444D01*
X110599471Y-74472852D01*
X110599466Y-74472856D01*
X110393091Y-74660314D01*
X110345675Y-74703384D01*
X110117247Y-74963857D01*
X109919772Y-75248515D01*
X109755792Y-75553697D01*
X109627413Y-75875481D01*
X109536287Y-76209729D01*
X109525253Y-76281416D01*
X109491118Y-76503198D01*
X109483584Y-76552145D01*
X109482508Y-76579525D01*
X109470957Y-76873520D01*
X109469982Y-76898326D01*
X108458000Y-76898326D01*
X108458000Y-67858134D01*
X117736500Y-67858134D01*
X117743255Y-67920316D01*
X117794385Y-68056705D01*
X117881739Y-68173261D01*
X117998295Y-68260615D01*
X118134684Y-68311745D01*
X118196866Y-68318500D01*
X119293134Y-68318500D01*
X119355316Y-68311745D01*
X119491705Y-68260615D01*
X119608261Y-68173261D01*
X119695615Y-68056705D01*
X119746745Y-67920316D01*
X119753500Y-67858134D01*
X120911500Y-67858134D01*
X120918255Y-67920316D01*
X120969385Y-68056705D01*
X121056739Y-68173261D01*
X121173295Y-68260615D01*
X121309684Y-68311745D01*
X121371866Y-68318500D01*
X122468134Y-68318500D01*
X122530316Y-68311745D01*
X122666705Y-68260615D01*
X122783261Y-68173261D01*
X122870615Y-68056705D01*
X122921745Y-67920316D01*
X122928500Y-67858134D01*
X122928500Y-66761866D01*
X122921745Y-66699684D01*
X122870615Y-66563295D01*
X122783261Y-66446739D01*
X122666705Y-66359385D01*
X122530316Y-66308255D01*
X122468134Y-66301500D01*
X121371866Y-66301500D01*
X121309684Y-66308255D01*
X121173295Y-66359385D01*
X121056739Y-66446739D01*
X120969385Y-66563295D01*
X120918255Y-66699684D01*
X120911500Y-66761866D01*
X120911500Y-67858134D01*
X119753500Y-67858134D01*
X119753500Y-66761866D01*
X119746745Y-66699684D01*
X119695615Y-66563295D01*
X119608261Y-66446739D01*
X119491705Y-66359385D01*
X119355316Y-66308255D01*
X119293134Y-66301500D01*
X118196866Y-66301500D01*
X118134684Y-66308255D01*
X117998295Y-66359385D01*
X117881739Y-66446739D01*
X117794385Y-66563295D01*
X117743255Y-66699684D01*
X117736500Y-66761866D01*
X117736500Y-67858134D01*
X108458000Y-67858134D01*
X108458000Y-66011432D01*
X136682500Y-66011432D01*
X136697692Y-66166373D01*
X136757917Y-66365846D01*
X136855739Y-66549824D01*
X136859633Y-66554598D01*
X136859634Y-66554600D01*
X136865818Y-66562182D01*
X136987433Y-66711296D01*
X137147983Y-66844115D01*
X137331272Y-66943219D01*
X137530321Y-67004835D01*
X137536446Y-67005479D01*
X137536447Y-67005479D01*
X137731418Y-67025971D01*
X137731420Y-67025971D01*
X137737547Y-67026615D01*
X137868261Y-67014719D01*
X137938915Y-67008289D01*
X137938916Y-67008289D01*
X137945056Y-67007730D01*
X137950970Y-67005989D01*
X137950972Y-67005989D01*
X138139026Y-66950641D01*
X138139025Y-66950641D01*
X138144945Y-66948899D01*
X138221690Y-66908778D01*
X138324142Y-66855218D01*
X138324143Y-66855217D01*
X138329601Y-66852364D01*
X138491989Y-66721800D01*
X138589996Y-66605000D01*
X139417830Y-66605000D01*
X139436473Y-66818096D01*
X139458064Y-66898674D01*
X139486510Y-67004835D01*
X139491837Y-67024717D01*
X139494159Y-67029697D01*
X139494160Y-67029699D01*
X139571587Y-67195739D01*
X139582240Y-67218585D01*
X139704933Y-67393810D01*
X139856190Y-67545067D01*
X140031415Y-67667760D01*
X140036393Y-67670081D01*
X140036396Y-67670083D01*
X140205191Y-67748794D01*
X140225283Y-67758163D01*
X140230591Y-67759585D01*
X140230593Y-67759586D01*
X140268022Y-67769615D01*
X140431904Y-67813527D01*
X140645000Y-67832170D01*
X140858096Y-67813527D01*
X141021978Y-67769615D01*
X141059407Y-67759586D01*
X141059409Y-67759585D01*
X141064717Y-67758163D01*
X141084809Y-67748794D01*
X141253604Y-67670083D01*
X141253607Y-67670081D01*
X141258585Y-67667760D01*
X141433810Y-67545067D01*
X141585067Y-67393810D01*
X141707760Y-67218585D01*
X141718414Y-67195739D01*
X141780805Y-67061941D01*
X141827723Y-67008656D01*
X141896000Y-66989195D01*
X141963960Y-67009737D01*
X142009195Y-67061941D01*
X142071587Y-67195739D01*
X142082240Y-67218585D01*
X142204933Y-67393810D01*
X142356190Y-67545067D01*
X142531415Y-67667760D01*
X142536393Y-67670081D01*
X142536396Y-67670083D01*
X142705191Y-67748794D01*
X142725283Y-67758163D01*
X142730591Y-67759585D01*
X142730593Y-67759586D01*
X142768022Y-67769615D01*
X142931904Y-67813527D01*
X143145000Y-67832170D01*
X143358096Y-67813527D01*
X143521978Y-67769615D01*
X143559407Y-67759586D01*
X143559409Y-67759585D01*
X143564717Y-67758163D01*
X143584809Y-67748794D01*
X143753604Y-67670083D01*
X143753607Y-67670081D01*
X143758585Y-67667760D01*
X143933810Y-67545067D01*
X144055905Y-67422972D01*
X144118217Y-67388946D01*
X144189032Y-67394011D01*
X144234095Y-67422972D01*
X144356190Y-67545067D01*
X144531415Y-67667760D01*
X144536393Y-67670081D01*
X144536396Y-67670083D01*
X144705191Y-67748794D01*
X144725283Y-67758163D01*
X144730591Y-67759585D01*
X144730593Y-67759586D01*
X144768022Y-67769615D01*
X144931904Y-67813527D01*
X145145000Y-67832170D01*
X145358096Y-67813527D01*
X145521978Y-67769615D01*
X145559407Y-67759586D01*
X145559409Y-67759585D01*
X145564717Y-67758163D01*
X145584809Y-67748794D01*
X145753604Y-67670083D01*
X145753607Y-67670081D01*
X145758585Y-67667760D01*
X145933810Y-67545067D01*
X146085067Y-67393810D01*
X146193287Y-67239255D01*
X146248744Y-67194926D01*
X146319363Y-67187617D01*
X146382724Y-67219647D01*
X146418709Y-67280849D01*
X146422500Y-67311525D01*
X146422500Y-67367134D01*
X146429255Y-67429316D01*
X146480385Y-67565705D01*
X146567739Y-67682261D01*
X146684295Y-67769615D01*
X146820684Y-67820745D01*
X146882866Y-67827500D01*
X148407134Y-67827500D01*
X148469316Y-67820745D01*
X148605705Y-67769615D01*
X148722261Y-67682261D01*
X148809615Y-67565705D01*
X148860745Y-67429316D01*
X148867500Y-67367134D01*
X148867500Y-66011432D01*
X149482500Y-66011432D01*
X149497692Y-66166373D01*
X149557917Y-66365846D01*
X149655739Y-66549824D01*
X149659633Y-66554598D01*
X149659634Y-66554600D01*
X149665818Y-66562182D01*
X149787433Y-66711296D01*
X149947983Y-66844115D01*
X150131272Y-66943219D01*
X150330321Y-67004835D01*
X150336446Y-67005479D01*
X150336447Y-67005479D01*
X150531418Y-67025971D01*
X150531420Y-67025971D01*
X150537547Y-67026615D01*
X150668261Y-67014719D01*
X150738915Y-67008289D01*
X150738916Y-67008289D01*
X150745056Y-67007730D01*
X150750970Y-67005989D01*
X150750972Y-67005989D01*
X150939026Y-66950641D01*
X150939025Y-66950641D01*
X150944945Y-66948899D01*
X151021690Y-66908778D01*
X151124142Y-66855218D01*
X151124143Y-66855217D01*
X151129601Y-66852364D01*
X151291989Y-66721800D01*
X151425925Y-66562182D01*
X151526307Y-66379589D01*
X151589310Y-66180975D01*
X151594054Y-66138688D01*
X151600754Y-66078955D01*
X151607500Y-66018812D01*
X151607500Y-64798568D01*
X151592308Y-64643627D01*
X151532083Y-64444154D01*
X151434261Y-64260176D01*
X151428590Y-64253222D01*
X151367946Y-64178866D01*
X151302567Y-64098704D01*
X151142017Y-63965885D01*
X150958728Y-63866781D01*
X150759679Y-63805165D01*
X150753554Y-63804521D01*
X150753553Y-63804521D01*
X150558582Y-63784029D01*
X150558580Y-63784029D01*
X150552453Y-63783385D01*
X150421739Y-63795281D01*
X150351085Y-63801711D01*
X150351084Y-63801711D01*
X150344944Y-63802270D01*
X150339030Y-63804011D01*
X150339028Y-63804011D01*
X150328917Y-63806987D01*
X150145055Y-63861101D01*
X149960399Y-63957636D01*
X149798011Y-64088200D01*
X149664075Y-64247818D01*
X149563693Y-64430411D01*
X149500690Y-64629025D01*
X149500004Y-64635142D01*
X149500003Y-64635146D01*
X149495414Y-64676060D01*
X149482500Y-64791188D01*
X149482500Y-66011432D01*
X148867500Y-66011432D01*
X148867500Y-65842866D01*
X148860745Y-65780684D01*
X148809615Y-65644295D01*
X148722261Y-65527739D01*
X148605705Y-65440385D01*
X148469316Y-65389255D01*
X148407134Y-65382500D01*
X146882866Y-65382500D01*
X146820684Y-65389255D01*
X146684295Y-65440385D01*
X146567739Y-65527739D01*
X146480385Y-65644295D01*
X146429255Y-65780684D01*
X146422500Y-65842866D01*
X146422500Y-65898475D01*
X146402498Y-65966596D01*
X146348842Y-66013089D01*
X146278568Y-66023193D01*
X146213988Y-65993699D01*
X146193287Y-65970745D01*
X146106138Y-65846283D01*
X146085067Y-65816190D01*
X145933810Y-65664933D01*
X145758585Y-65542240D01*
X145753607Y-65539919D01*
X145753604Y-65539917D01*
X145569699Y-65454160D01*
X145569697Y-65454159D01*
X145564717Y-65451837D01*
X145559409Y-65450415D01*
X145559407Y-65450414D01*
X145495006Y-65433158D01*
X145358096Y-65396473D01*
X145145000Y-65377830D01*
X144931904Y-65396473D01*
X144794994Y-65433158D01*
X144730593Y-65450414D01*
X144730591Y-65450415D01*
X144725283Y-65451837D01*
X144720303Y-65454159D01*
X144720301Y-65454160D01*
X144536396Y-65539917D01*
X144536393Y-65539919D01*
X144531415Y-65542240D01*
X144356190Y-65664933D01*
X144234095Y-65787028D01*
X144171783Y-65821054D01*
X144100968Y-65815989D01*
X144055905Y-65787028D01*
X143933810Y-65664933D01*
X143758585Y-65542240D01*
X143753607Y-65539919D01*
X143753604Y-65539917D01*
X143569699Y-65454160D01*
X143569697Y-65454159D01*
X143564717Y-65451837D01*
X143559409Y-65450415D01*
X143559407Y-65450414D01*
X143495006Y-65433158D01*
X143358096Y-65396473D01*
X143145000Y-65377830D01*
X142931904Y-65396473D01*
X142794994Y-65433158D01*
X142730593Y-65450414D01*
X142730591Y-65450415D01*
X142725283Y-65451837D01*
X142720303Y-65454159D01*
X142720301Y-65454160D01*
X142536396Y-65539917D01*
X142536393Y-65539919D01*
X142531415Y-65542240D01*
X142356190Y-65664933D01*
X142204933Y-65816190D01*
X142082240Y-65991415D01*
X142079919Y-65996393D01*
X142079917Y-65996396D01*
X142009195Y-66148059D01*
X141962277Y-66201344D01*
X141894000Y-66220805D01*
X141826040Y-66200263D01*
X141780805Y-66148059D01*
X141710083Y-65996396D01*
X141710081Y-65996393D01*
X141707760Y-65991415D01*
X141585067Y-65816190D01*
X141433810Y-65664933D01*
X141258585Y-65542240D01*
X141253607Y-65539919D01*
X141253604Y-65539917D01*
X141069699Y-65454160D01*
X141069697Y-65454159D01*
X141064717Y-65451837D01*
X141059409Y-65450415D01*
X141059407Y-65450414D01*
X140995006Y-65433158D01*
X140858096Y-65396473D01*
X140645000Y-65377830D01*
X140431904Y-65396473D01*
X140294994Y-65433158D01*
X140230593Y-65450414D01*
X140230591Y-65450415D01*
X140225283Y-65451837D01*
X140220303Y-65454159D01*
X140220301Y-65454160D01*
X140036396Y-65539917D01*
X140036393Y-65539919D01*
X140031415Y-65542240D01*
X139856190Y-65664933D01*
X139704933Y-65816190D01*
X139582240Y-65991415D01*
X139579919Y-65996393D01*
X139579917Y-65996396D01*
X139513565Y-66138688D01*
X139491837Y-66185283D01*
X139490415Y-66190591D01*
X139490414Y-66190593D01*
X139474759Y-66249018D01*
X139436473Y-66391904D01*
X139417830Y-66605000D01*
X138589996Y-66605000D01*
X138625925Y-66562182D01*
X138726307Y-66379589D01*
X138789310Y-66180975D01*
X138794054Y-66138688D01*
X138800754Y-66078955D01*
X138807500Y-66018812D01*
X138807500Y-64798568D01*
X138792308Y-64643627D01*
X138732083Y-64444154D01*
X138634261Y-64260176D01*
X138628590Y-64253222D01*
X138567946Y-64178866D01*
X138502567Y-64098704D01*
X138342017Y-63965885D01*
X138158728Y-63866781D01*
X137959679Y-63805165D01*
X137953554Y-63804521D01*
X137953553Y-63804521D01*
X137758582Y-63784029D01*
X137758580Y-63784029D01*
X137752453Y-63783385D01*
X137621739Y-63795281D01*
X137551085Y-63801711D01*
X137551084Y-63801711D01*
X137544944Y-63802270D01*
X137539030Y-63804011D01*
X137539028Y-63804011D01*
X137528917Y-63806987D01*
X137345055Y-63861101D01*
X137160399Y-63957636D01*
X136998011Y-64088200D01*
X136864075Y-64247818D01*
X136763693Y-64430411D01*
X136700690Y-64629025D01*
X136700004Y-64635142D01*
X136700003Y-64635146D01*
X136695414Y-64676060D01*
X136682500Y-64791188D01*
X136682500Y-66011432D01*
X108458000Y-66011432D01*
X108458000Y-57059297D01*
X108478002Y-56991176D01*
X108531658Y-56944683D01*
X108584058Y-56933297D01*
X159377762Y-56957132D01*
G37*
%TD.AperFunction*%
%TD*%
M02*
