%TF.GenerationSoftware,KiCad,Pcbnew,(6.0.0)*%
%TF.CreationDate,2022-05-01T17:17:02+01:00*%
%TF.ProjectId,CM4Carrier,434d3443-6172-4726-9965-722e6b696361,indev*%
%TF.SameCoordinates,Original*%
%TF.FileFunction,Legend,Bot*%
%TF.FilePolarity,Positive*%
%FSLAX46Y46*%
G04 Gerber Fmt 4.6, Leading zero omitted, Abs format (unit mm)*
G04 Created by KiCad (PCBNEW (6.0.0)) date 2022-05-01 17:17:02*
%MOMM*%
%LPD*%
G01*
G04 APERTURE LIST*
%ADD10C,0.150000*%
%ADD11C,0.120000*%
%ADD12C,0.127000*%
%ADD13C,0.200000*%
G04 APERTURE END LIST*
D10*
%TO.C,C26*%
X111892142Y-70477142D02*
X111939761Y-70429523D01*
X111987380Y-70286666D01*
X111987380Y-70191428D01*
X111939761Y-70048571D01*
X111844523Y-69953333D01*
X111749285Y-69905714D01*
X111558809Y-69858095D01*
X111415952Y-69858095D01*
X111225476Y-69905714D01*
X111130238Y-69953333D01*
X111035000Y-70048571D01*
X110987380Y-70191428D01*
X110987380Y-70286666D01*
X111035000Y-70429523D01*
X111082619Y-70477142D01*
X111082619Y-70858095D02*
X111035000Y-70905714D01*
X110987380Y-71000952D01*
X110987380Y-71239047D01*
X111035000Y-71334285D01*
X111082619Y-71381904D01*
X111177857Y-71429523D01*
X111273095Y-71429523D01*
X111415952Y-71381904D01*
X111987380Y-70810476D01*
X111987380Y-71429523D01*
X110987380Y-72286666D02*
X110987380Y-72096190D01*
X111035000Y-72000952D01*
X111082619Y-71953333D01*
X111225476Y-71858095D01*
X111415952Y-71810476D01*
X111796904Y-71810476D01*
X111892142Y-71858095D01*
X111939761Y-71905714D01*
X111987380Y-72000952D01*
X111987380Y-72191428D01*
X111939761Y-72286666D01*
X111892142Y-72334285D01*
X111796904Y-72381904D01*
X111558809Y-72381904D01*
X111463571Y-72334285D01*
X111415952Y-72286666D01*
X111368333Y-72191428D01*
X111368333Y-72000952D01*
X111415952Y-71905714D01*
X111463571Y-71858095D01*
X111558809Y-71810476D01*
%TO.C,TP14*%
X201382380Y-121451904D02*
X201382380Y-122023333D01*
X202382380Y-121737619D02*
X201382380Y-121737619D01*
X202382380Y-122356666D02*
X201382380Y-122356666D01*
X201382380Y-122737619D01*
X201430000Y-122832857D01*
X201477619Y-122880476D01*
X201572857Y-122928095D01*
X201715714Y-122928095D01*
X201810952Y-122880476D01*
X201858571Y-122832857D01*
X201906190Y-122737619D01*
X201906190Y-122356666D01*
X202382380Y-123880476D02*
X202382380Y-123309047D01*
X202382380Y-123594761D02*
X201382380Y-123594761D01*
X201525238Y-123499523D01*
X201620476Y-123404285D01*
X201668095Y-123309047D01*
X201715714Y-124737619D02*
X202382380Y-124737619D01*
X201334761Y-124499523D02*
X202049047Y-124261428D01*
X202049047Y-124880476D01*
%TO.C,SW14*%
X124984518Y-117239674D02*
X124841661Y-117287293D01*
X124603566Y-117287293D01*
X124508328Y-117239674D01*
X124460709Y-117192055D01*
X124413090Y-117096817D01*
X124413090Y-117001579D01*
X124460709Y-116906341D01*
X124508328Y-116858722D01*
X124603566Y-116811103D01*
X124794042Y-116763484D01*
X124889280Y-116715865D01*
X124936899Y-116668246D01*
X124984518Y-116573008D01*
X124984518Y-116477770D01*
X124936899Y-116382532D01*
X124889280Y-116334913D01*
X124794042Y-116287293D01*
X124555947Y-116287293D01*
X124413090Y-116334913D01*
X124079756Y-116287293D02*
X123841661Y-117287293D01*
X123651185Y-116573008D01*
X123460709Y-117287293D01*
X123222614Y-116287293D01*
X122317852Y-117287293D02*
X122889280Y-117287293D01*
X122603566Y-117287293D02*
X122603566Y-116287293D01*
X122698804Y-116430151D01*
X122794042Y-116525389D01*
X122889280Y-116573008D01*
X121460709Y-116620627D02*
X121460709Y-117287293D01*
X121698804Y-116239674D02*
X121936899Y-116953960D01*
X121317852Y-116953960D01*
%TO.C,J6*%
X138128333Y-140797380D02*
X138128333Y-141511666D01*
X138175952Y-141654523D01*
X138271190Y-141749761D01*
X138414047Y-141797380D01*
X138509285Y-141797380D01*
X137223571Y-140797380D02*
X137414047Y-140797380D01*
X137509285Y-140845000D01*
X137556904Y-140892619D01*
X137652142Y-141035476D01*
X137699761Y-141225952D01*
X137699761Y-141606904D01*
X137652142Y-141702142D01*
X137604523Y-141749761D01*
X137509285Y-141797380D01*
X137318809Y-141797380D01*
X137223571Y-141749761D01*
X137175952Y-141702142D01*
X137128333Y-141606904D01*
X137128333Y-141368809D01*
X137175952Y-141273571D01*
X137223571Y-141225952D01*
X137318809Y-141178333D01*
X137509285Y-141178333D01*
X137604523Y-141225952D01*
X137652142Y-141273571D01*
X137699761Y-141368809D01*
%TO.C,TP12*%
X195032380Y-121451904D02*
X195032380Y-122023333D01*
X196032380Y-121737619D02*
X195032380Y-121737619D01*
X196032380Y-122356666D02*
X195032380Y-122356666D01*
X195032380Y-122737619D01*
X195080000Y-122832857D01*
X195127619Y-122880476D01*
X195222857Y-122928095D01*
X195365714Y-122928095D01*
X195460952Y-122880476D01*
X195508571Y-122832857D01*
X195556190Y-122737619D01*
X195556190Y-122356666D01*
X196032380Y-123880476D02*
X196032380Y-123309047D01*
X196032380Y-123594761D02*
X195032380Y-123594761D01*
X195175238Y-123499523D01*
X195270476Y-123404285D01*
X195318095Y-123309047D01*
X195127619Y-124261428D02*
X195080000Y-124309047D01*
X195032380Y-124404285D01*
X195032380Y-124642380D01*
X195080000Y-124737619D01*
X195127619Y-124785238D01*
X195222857Y-124832857D01*
X195318095Y-124832857D01*
X195460952Y-124785238D01*
X196032380Y-124213809D01*
X196032380Y-124832857D01*
%TO.C,TP13*%
X195032380Y-128436904D02*
X195032380Y-129008333D01*
X196032380Y-128722619D02*
X195032380Y-128722619D01*
X196032380Y-129341666D02*
X195032380Y-129341666D01*
X195032380Y-129722619D01*
X195080000Y-129817857D01*
X195127619Y-129865476D01*
X195222857Y-129913095D01*
X195365714Y-129913095D01*
X195460952Y-129865476D01*
X195508571Y-129817857D01*
X195556190Y-129722619D01*
X195556190Y-129341666D01*
X196032380Y-130865476D02*
X196032380Y-130294047D01*
X196032380Y-130579761D02*
X195032380Y-130579761D01*
X195175238Y-130484523D01*
X195270476Y-130389285D01*
X195318095Y-130294047D01*
X195032380Y-131198809D02*
X195032380Y-131817857D01*
X195413333Y-131484523D01*
X195413333Y-131627380D01*
X195460952Y-131722619D01*
X195508571Y-131770238D01*
X195603809Y-131817857D01*
X195841904Y-131817857D01*
X195937142Y-131770238D01*
X195984761Y-131722619D01*
X196032380Y-131627380D01*
X196032380Y-131341666D01*
X195984761Y-131246428D01*
X195937142Y-131198809D01*
%TO.C,R2*%
X162091666Y-115767380D02*
X162425000Y-115291190D01*
X162663095Y-115767380D02*
X162663095Y-114767380D01*
X162282142Y-114767380D01*
X162186904Y-114815000D01*
X162139285Y-114862619D01*
X162091666Y-114957857D01*
X162091666Y-115100714D01*
X162139285Y-115195952D01*
X162186904Y-115243571D01*
X162282142Y-115291190D01*
X162663095Y-115291190D01*
X161710714Y-114862619D02*
X161663095Y-114815000D01*
X161567857Y-114767380D01*
X161329761Y-114767380D01*
X161234523Y-114815000D01*
X161186904Y-114862619D01*
X161139285Y-114957857D01*
X161139285Y-115053095D01*
X161186904Y-115195952D01*
X161758333Y-115767380D01*
X161139285Y-115767380D01*
%TO.C,D4*%
X131357380Y-131356904D02*
X130357380Y-131356904D01*
X130357380Y-131595000D01*
X130405000Y-131737857D01*
X130500238Y-131833095D01*
X130595476Y-131880714D01*
X130785952Y-131928333D01*
X130928809Y-131928333D01*
X131119285Y-131880714D01*
X131214523Y-131833095D01*
X131309761Y-131737857D01*
X131357380Y-131595000D01*
X131357380Y-131356904D01*
X130690714Y-132785476D02*
X131357380Y-132785476D01*
X130309761Y-132547380D02*
X131024047Y-132309285D01*
X131024047Y-132928333D01*
%TO.C,C34*%
X154281142Y-121277142D02*
X154328761Y-121229523D01*
X154376380Y-121086666D01*
X154376380Y-120991428D01*
X154328761Y-120848571D01*
X154233523Y-120753333D01*
X154138285Y-120705714D01*
X153947809Y-120658095D01*
X153804952Y-120658095D01*
X153614476Y-120705714D01*
X153519238Y-120753333D01*
X153424000Y-120848571D01*
X153376380Y-120991428D01*
X153376380Y-121086666D01*
X153424000Y-121229523D01*
X153471619Y-121277142D01*
X153376380Y-121610476D02*
X153376380Y-122229523D01*
X153757333Y-121896190D01*
X153757333Y-122039047D01*
X153804952Y-122134285D01*
X153852571Y-122181904D01*
X153947809Y-122229523D01*
X154185904Y-122229523D01*
X154281142Y-122181904D01*
X154328761Y-122134285D01*
X154376380Y-122039047D01*
X154376380Y-121753333D01*
X154328761Y-121658095D01*
X154281142Y-121610476D01*
X153709714Y-123086666D02*
X154376380Y-123086666D01*
X153328761Y-122848571D02*
X154043047Y-122610476D01*
X154043047Y-123229523D01*
%TO.C,U1*%
X158927380Y-104648095D02*
X159736904Y-104648095D01*
X159832142Y-104695714D01*
X159879761Y-104743333D01*
X159927380Y-104838571D01*
X159927380Y-105029047D01*
X159879761Y-105124285D01*
X159832142Y-105171904D01*
X159736904Y-105219523D01*
X158927380Y-105219523D01*
X159927380Y-106219523D02*
X159927380Y-105648095D01*
X159927380Y-105933809D02*
X158927380Y-105933809D01*
X159070238Y-105838571D01*
X159165476Y-105743333D01*
X159213095Y-105648095D01*
%TO.C,R10*%
X168917857Y-61887380D02*
X169251190Y-61411190D01*
X169489285Y-61887380D02*
X169489285Y-60887380D01*
X169108333Y-60887380D01*
X169013095Y-60935000D01*
X168965476Y-60982619D01*
X168917857Y-61077857D01*
X168917857Y-61220714D01*
X168965476Y-61315952D01*
X169013095Y-61363571D01*
X169108333Y-61411190D01*
X169489285Y-61411190D01*
X167965476Y-61887380D02*
X168536904Y-61887380D01*
X168251190Y-61887380D02*
X168251190Y-60887380D01*
X168346428Y-61030238D01*
X168441666Y-61125476D01*
X168536904Y-61173095D01*
X167346428Y-60887380D02*
X167251190Y-60887380D01*
X167155952Y-60935000D01*
X167108333Y-60982619D01*
X167060714Y-61077857D01*
X167013095Y-61268333D01*
X167013095Y-61506428D01*
X167060714Y-61696904D01*
X167108333Y-61792142D01*
X167155952Y-61839761D01*
X167251190Y-61887380D01*
X167346428Y-61887380D01*
X167441666Y-61839761D01*
X167489285Y-61792142D01*
X167536904Y-61696904D01*
X167584523Y-61506428D01*
X167584523Y-61268333D01*
X167536904Y-61077857D01*
X167489285Y-60982619D01*
X167441666Y-60935000D01*
X167346428Y-60887380D01*
%TO.C,C29*%
X127357142Y-134612142D02*
X127404761Y-134564523D01*
X127452380Y-134421666D01*
X127452380Y-134326428D01*
X127404761Y-134183571D01*
X127309523Y-134088333D01*
X127214285Y-134040714D01*
X127023809Y-133993095D01*
X126880952Y-133993095D01*
X126690476Y-134040714D01*
X126595238Y-134088333D01*
X126500000Y-134183571D01*
X126452380Y-134326428D01*
X126452380Y-134421666D01*
X126500000Y-134564523D01*
X126547619Y-134612142D01*
X126547619Y-134993095D02*
X126500000Y-135040714D01*
X126452380Y-135135952D01*
X126452380Y-135374047D01*
X126500000Y-135469285D01*
X126547619Y-135516904D01*
X126642857Y-135564523D01*
X126738095Y-135564523D01*
X126880952Y-135516904D01*
X127452380Y-134945476D01*
X127452380Y-135564523D01*
X127452380Y-136040714D02*
X127452380Y-136231190D01*
X127404761Y-136326428D01*
X127357142Y-136374047D01*
X127214285Y-136469285D01*
X127023809Y-136516904D01*
X126642857Y-136516904D01*
X126547619Y-136469285D01*
X126500000Y-136421666D01*
X126452380Y-136326428D01*
X126452380Y-136135952D01*
X126500000Y-136040714D01*
X126547619Y-135993095D01*
X126642857Y-135945476D01*
X126880952Y-135945476D01*
X126976190Y-135993095D01*
X127023809Y-136040714D01*
X127071428Y-136135952D01*
X127071428Y-136326428D01*
X127023809Y-136421666D01*
X126976190Y-136469285D01*
X126880952Y-136516904D01*
%TO.C,C1*%
X166536666Y-108082142D02*
X166584285Y-108129761D01*
X166727142Y-108177380D01*
X166822380Y-108177380D01*
X166965238Y-108129761D01*
X167060476Y-108034523D01*
X167108095Y-107939285D01*
X167155714Y-107748809D01*
X167155714Y-107605952D01*
X167108095Y-107415476D01*
X167060476Y-107320238D01*
X166965238Y-107225000D01*
X166822380Y-107177380D01*
X166727142Y-107177380D01*
X166584285Y-107225000D01*
X166536666Y-107272619D01*
X165584285Y-108177380D02*
X166155714Y-108177380D01*
X165870000Y-108177380D02*
X165870000Y-107177380D01*
X165965238Y-107320238D01*
X166060476Y-107415476D01*
X166155714Y-107463095D01*
%TO.C,R46*%
X153550857Y-117674380D02*
X153884190Y-117198190D01*
X154122285Y-117674380D02*
X154122285Y-116674380D01*
X153741333Y-116674380D01*
X153646095Y-116722000D01*
X153598476Y-116769619D01*
X153550857Y-116864857D01*
X153550857Y-117007714D01*
X153598476Y-117102952D01*
X153646095Y-117150571D01*
X153741333Y-117198190D01*
X154122285Y-117198190D01*
X152693714Y-117007714D02*
X152693714Y-117674380D01*
X152931809Y-116626761D02*
X153169904Y-117341047D01*
X152550857Y-117341047D01*
X151741333Y-116674380D02*
X151931809Y-116674380D01*
X152027047Y-116722000D01*
X152074666Y-116769619D01*
X152169904Y-116912476D01*
X152217523Y-117102952D01*
X152217523Y-117483904D01*
X152169904Y-117579142D01*
X152122285Y-117626761D01*
X152027047Y-117674380D01*
X151836571Y-117674380D01*
X151741333Y-117626761D01*
X151693714Y-117579142D01*
X151646095Y-117483904D01*
X151646095Y-117245809D01*
X151693714Y-117150571D01*
X151741333Y-117102952D01*
X151836571Y-117055333D01*
X152027047Y-117055333D01*
X152122285Y-117102952D01*
X152169904Y-117150571D01*
X152217523Y-117245809D01*
%TO.C,R38*%
X193682857Y-67382380D02*
X194016190Y-66906190D01*
X194254285Y-67382380D02*
X194254285Y-66382380D01*
X193873333Y-66382380D01*
X193778095Y-66430000D01*
X193730476Y-66477619D01*
X193682857Y-66572857D01*
X193682857Y-66715714D01*
X193730476Y-66810952D01*
X193778095Y-66858571D01*
X193873333Y-66906190D01*
X194254285Y-66906190D01*
X193349523Y-66382380D02*
X192730476Y-66382380D01*
X193063809Y-66763333D01*
X192920952Y-66763333D01*
X192825714Y-66810952D01*
X192778095Y-66858571D01*
X192730476Y-66953809D01*
X192730476Y-67191904D01*
X192778095Y-67287142D01*
X192825714Y-67334761D01*
X192920952Y-67382380D01*
X193206666Y-67382380D01*
X193301904Y-67334761D01*
X193349523Y-67287142D01*
X192159047Y-66810952D02*
X192254285Y-66763333D01*
X192301904Y-66715714D01*
X192349523Y-66620476D01*
X192349523Y-66572857D01*
X192301904Y-66477619D01*
X192254285Y-66430000D01*
X192159047Y-66382380D01*
X191968571Y-66382380D01*
X191873333Y-66430000D01*
X191825714Y-66477619D01*
X191778095Y-66572857D01*
X191778095Y-66620476D01*
X191825714Y-66715714D01*
X191873333Y-66763333D01*
X191968571Y-66810952D01*
X192159047Y-66810952D01*
X192254285Y-66858571D01*
X192301904Y-66906190D01*
X192349523Y-67001428D01*
X192349523Y-67191904D01*
X192301904Y-67287142D01*
X192254285Y-67334761D01*
X192159047Y-67382380D01*
X191968571Y-67382380D01*
X191873333Y-67334761D01*
X191825714Y-67287142D01*
X191778095Y-67191904D01*
X191778095Y-67001428D01*
X191825714Y-66906190D01*
X191873333Y-66858571D01*
X191968571Y-66810952D01*
%TO.C,C33*%
X113133142Y-120261142D02*
X113180761Y-120213523D01*
X113228380Y-120070666D01*
X113228380Y-119975428D01*
X113180761Y-119832571D01*
X113085523Y-119737333D01*
X112990285Y-119689714D01*
X112799809Y-119642095D01*
X112656952Y-119642095D01*
X112466476Y-119689714D01*
X112371238Y-119737333D01*
X112276000Y-119832571D01*
X112228380Y-119975428D01*
X112228380Y-120070666D01*
X112276000Y-120213523D01*
X112323619Y-120261142D01*
X112228380Y-120594476D02*
X112228380Y-121213523D01*
X112609333Y-120880190D01*
X112609333Y-121023047D01*
X112656952Y-121118285D01*
X112704571Y-121165904D01*
X112799809Y-121213523D01*
X113037904Y-121213523D01*
X113133142Y-121165904D01*
X113180761Y-121118285D01*
X113228380Y-121023047D01*
X113228380Y-120737333D01*
X113180761Y-120642095D01*
X113133142Y-120594476D01*
X112228380Y-121546857D02*
X112228380Y-122165904D01*
X112609333Y-121832571D01*
X112609333Y-121975428D01*
X112656952Y-122070666D01*
X112704571Y-122118285D01*
X112799809Y-122165904D01*
X113037904Y-122165904D01*
X113133142Y-122118285D01*
X113180761Y-122070666D01*
X113228380Y-121975428D01*
X113228380Y-121689714D01*
X113180761Y-121594476D01*
X113133142Y-121546857D01*
%TO.C,R3*%
X166536666Y-102052380D02*
X166870000Y-101576190D01*
X167108095Y-102052380D02*
X167108095Y-101052380D01*
X166727142Y-101052380D01*
X166631904Y-101100000D01*
X166584285Y-101147619D01*
X166536666Y-101242857D01*
X166536666Y-101385714D01*
X166584285Y-101480952D01*
X166631904Y-101528571D01*
X166727142Y-101576190D01*
X167108095Y-101576190D01*
X166203333Y-101052380D02*
X165584285Y-101052380D01*
X165917619Y-101433333D01*
X165774761Y-101433333D01*
X165679523Y-101480952D01*
X165631904Y-101528571D01*
X165584285Y-101623809D01*
X165584285Y-101861904D01*
X165631904Y-101957142D01*
X165679523Y-102004761D01*
X165774761Y-102052380D01*
X166060476Y-102052380D01*
X166155714Y-102004761D01*
X166203333Y-101957142D01*
%TO.C,TP15*%
X201382380Y-128436904D02*
X201382380Y-129008333D01*
X202382380Y-128722619D02*
X201382380Y-128722619D01*
X202382380Y-129341666D02*
X201382380Y-129341666D01*
X201382380Y-129722619D01*
X201430000Y-129817857D01*
X201477619Y-129865476D01*
X201572857Y-129913095D01*
X201715714Y-129913095D01*
X201810952Y-129865476D01*
X201858571Y-129817857D01*
X201906190Y-129722619D01*
X201906190Y-129341666D01*
X202382380Y-130865476D02*
X202382380Y-130294047D01*
X202382380Y-130579761D02*
X201382380Y-130579761D01*
X201525238Y-130484523D01*
X201620476Y-130389285D01*
X201668095Y-130294047D01*
X201382380Y-131770238D02*
X201382380Y-131294047D01*
X201858571Y-131246428D01*
X201810952Y-131294047D01*
X201763333Y-131389285D01*
X201763333Y-131627380D01*
X201810952Y-131722619D01*
X201858571Y-131770238D01*
X201953809Y-131817857D01*
X202191904Y-131817857D01*
X202287142Y-131770238D01*
X202334761Y-131722619D01*
X202382380Y-131627380D01*
X202382380Y-131389285D01*
X202334761Y-131294047D01*
X202287142Y-131246428D01*
%TO.C,C30*%
X127132142Y-128897142D02*
X127179761Y-128849523D01*
X127227380Y-128706666D01*
X127227380Y-128611428D01*
X127179761Y-128468571D01*
X127084523Y-128373333D01*
X126989285Y-128325714D01*
X126798809Y-128278095D01*
X126655952Y-128278095D01*
X126465476Y-128325714D01*
X126370238Y-128373333D01*
X126275000Y-128468571D01*
X126227380Y-128611428D01*
X126227380Y-128706666D01*
X126275000Y-128849523D01*
X126322619Y-128897142D01*
X126227380Y-129230476D02*
X126227380Y-129849523D01*
X126608333Y-129516190D01*
X126608333Y-129659047D01*
X126655952Y-129754285D01*
X126703571Y-129801904D01*
X126798809Y-129849523D01*
X127036904Y-129849523D01*
X127132142Y-129801904D01*
X127179761Y-129754285D01*
X127227380Y-129659047D01*
X127227380Y-129373333D01*
X127179761Y-129278095D01*
X127132142Y-129230476D01*
X126227380Y-130468571D02*
X126227380Y-130563809D01*
X126275000Y-130659047D01*
X126322619Y-130706666D01*
X126417857Y-130754285D01*
X126608333Y-130801904D01*
X126846428Y-130801904D01*
X127036904Y-130754285D01*
X127132142Y-130706666D01*
X127179761Y-130659047D01*
X127227380Y-130563809D01*
X127227380Y-130468571D01*
X127179761Y-130373333D01*
X127132142Y-130325714D01*
X127036904Y-130278095D01*
X126846428Y-130230476D01*
X126608333Y-130230476D01*
X126417857Y-130278095D01*
X126322619Y-130325714D01*
X126275000Y-130373333D01*
X126227380Y-130468571D01*
%TO.C,R39*%
X116912380Y-134247142D02*
X116436190Y-133913809D01*
X116912380Y-133675714D02*
X115912380Y-133675714D01*
X115912380Y-134056666D01*
X115960000Y-134151904D01*
X116007619Y-134199523D01*
X116102857Y-134247142D01*
X116245714Y-134247142D01*
X116340952Y-134199523D01*
X116388571Y-134151904D01*
X116436190Y-134056666D01*
X116436190Y-133675714D01*
X115912380Y-134580476D02*
X115912380Y-135199523D01*
X116293333Y-134866190D01*
X116293333Y-135009047D01*
X116340952Y-135104285D01*
X116388571Y-135151904D01*
X116483809Y-135199523D01*
X116721904Y-135199523D01*
X116817142Y-135151904D01*
X116864761Y-135104285D01*
X116912380Y-135009047D01*
X116912380Y-134723333D01*
X116864761Y-134628095D01*
X116817142Y-134580476D01*
X116912380Y-135675714D02*
X116912380Y-135866190D01*
X116864761Y-135961428D01*
X116817142Y-136009047D01*
X116674285Y-136104285D01*
X116483809Y-136151904D01*
X116102857Y-136151904D01*
X116007619Y-136104285D01*
X115960000Y-136056666D01*
X115912380Y-135961428D01*
X115912380Y-135770952D01*
X115960000Y-135675714D01*
X116007619Y-135628095D01*
X116102857Y-135580476D01*
X116340952Y-135580476D01*
X116436190Y-135628095D01*
X116483809Y-135675714D01*
X116531428Y-135770952D01*
X116531428Y-135961428D01*
X116483809Y-136056666D01*
X116436190Y-136104285D01*
X116340952Y-136151904D01*
%TO.C,U5*%
X189625380Y-105537095D02*
X190434904Y-105537095D01*
X190530142Y-105584714D01*
X190577761Y-105632333D01*
X190625380Y-105727571D01*
X190625380Y-105918047D01*
X190577761Y-106013285D01*
X190530142Y-106060904D01*
X190434904Y-106108523D01*
X189625380Y-106108523D01*
X189625380Y-107060904D02*
X189625380Y-106584714D01*
X190101571Y-106537095D01*
X190053952Y-106584714D01*
X190006333Y-106679952D01*
X190006333Y-106918047D01*
X190053952Y-107013285D01*
X190101571Y-107060904D01*
X190196809Y-107108523D01*
X190434904Y-107108523D01*
X190530142Y-107060904D01*
X190577761Y-107013285D01*
X190625380Y-106918047D01*
X190625380Y-106679952D01*
X190577761Y-106584714D01*
X190530142Y-106537095D01*
%TO.C,R50*%
X148280380Y-121277142D02*
X147804190Y-120943809D01*
X148280380Y-120705714D02*
X147280380Y-120705714D01*
X147280380Y-121086666D01*
X147328000Y-121181904D01*
X147375619Y-121229523D01*
X147470857Y-121277142D01*
X147613714Y-121277142D01*
X147708952Y-121229523D01*
X147756571Y-121181904D01*
X147804190Y-121086666D01*
X147804190Y-120705714D01*
X147280380Y-122181904D02*
X147280380Y-121705714D01*
X147756571Y-121658095D01*
X147708952Y-121705714D01*
X147661333Y-121800952D01*
X147661333Y-122039047D01*
X147708952Y-122134285D01*
X147756571Y-122181904D01*
X147851809Y-122229523D01*
X148089904Y-122229523D01*
X148185142Y-122181904D01*
X148232761Y-122134285D01*
X148280380Y-122039047D01*
X148280380Y-121800952D01*
X148232761Y-121705714D01*
X148185142Y-121658095D01*
X147280380Y-122848571D02*
X147280380Y-122943809D01*
X147328000Y-123039047D01*
X147375619Y-123086666D01*
X147470857Y-123134285D01*
X147661333Y-123181904D01*
X147899428Y-123181904D01*
X148089904Y-123134285D01*
X148185142Y-123086666D01*
X148232761Y-123039047D01*
X148280380Y-122943809D01*
X148280380Y-122848571D01*
X148232761Y-122753333D01*
X148185142Y-122705714D01*
X148089904Y-122658095D01*
X147899428Y-122610476D01*
X147661333Y-122610476D01*
X147470857Y-122658095D01*
X147375619Y-122705714D01*
X147328000Y-122753333D01*
X147280380Y-122848571D01*
%TO.C,R45*%
X116658380Y-120261142D02*
X116182190Y-119927809D01*
X116658380Y-119689714D02*
X115658380Y-119689714D01*
X115658380Y-120070666D01*
X115706000Y-120165904D01*
X115753619Y-120213523D01*
X115848857Y-120261142D01*
X115991714Y-120261142D01*
X116086952Y-120213523D01*
X116134571Y-120165904D01*
X116182190Y-120070666D01*
X116182190Y-119689714D01*
X115991714Y-121118285D02*
X116658380Y-121118285D01*
X115610761Y-120880190D02*
X116325047Y-120642095D01*
X116325047Y-121261142D01*
X115658380Y-122118285D02*
X115658380Y-121642095D01*
X116134571Y-121594476D01*
X116086952Y-121642095D01*
X116039333Y-121737333D01*
X116039333Y-121975428D01*
X116086952Y-122070666D01*
X116134571Y-122118285D01*
X116229809Y-122165904D01*
X116467904Y-122165904D01*
X116563142Y-122118285D01*
X116610761Y-122070666D01*
X116658380Y-121975428D01*
X116658380Y-121737333D01*
X116610761Y-121642095D01*
X116563142Y-121594476D01*
%TO.C,TP16*%
X195032380Y-114085904D02*
X195032380Y-114657333D01*
X196032380Y-114371619D02*
X195032380Y-114371619D01*
X196032380Y-114990666D02*
X195032380Y-114990666D01*
X195032380Y-115371619D01*
X195080000Y-115466857D01*
X195127619Y-115514476D01*
X195222857Y-115562095D01*
X195365714Y-115562095D01*
X195460952Y-115514476D01*
X195508571Y-115466857D01*
X195556190Y-115371619D01*
X195556190Y-114990666D01*
X196032380Y-116514476D02*
X196032380Y-115943047D01*
X196032380Y-116228761D02*
X195032380Y-116228761D01*
X195175238Y-116133523D01*
X195270476Y-116038285D01*
X195318095Y-115943047D01*
X195032380Y-117371619D02*
X195032380Y-117181142D01*
X195080000Y-117085904D01*
X195127619Y-117038285D01*
X195270476Y-116943047D01*
X195460952Y-116895428D01*
X195841904Y-116895428D01*
X195937142Y-116943047D01*
X195984761Y-116990666D01*
X196032380Y-117085904D01*
X196032380Y-117276380D01*
X195984761Y-117371619D01*
X195937142Y-117419238D01*
X195841904Y-117466857D01*
X195603809Y-117466857D01*
X195508571Y-117419238D01*
X195460952Y-117371619D01*
X195413333Y-117276380D01*
X195413333Y-117085904D01*
X195460952Y-116990666D01*
X195508571Y-116943047D01*
X195603809Y-116895428D01*
%TO.C,Module1*%
X158302142Y-95677380D02*
X158302142Y-94677380D01*
X157968809Y-95391666D01*
X157635476Y-94677380D01*
X157635476Y-95677380D01*
X157016428Y-95677380D02*
X157111666Y-95629761D01*
X157159285Y-95582142D01*
X157206904Y-95486904D01*
X157206904Y-95201190D01*
X157159285Y-95105952D01*
X157111666Y-95058333D01*
X157016428Y-95010714D01*
X156873571Y-95010714D01*
X156778333Y-95058333D01*
X156730714Y-95105952D01*
X156683095Y-95201190D01*
X156683095Y-95486904D01*
X156730714Y-95582142D01*
X156778333Y-95629761D01*
X156873571Y-95677380D01*
X157016428Y-95677380D01*
X155825952Y-95677380D02*
X155825952Y-94677380D01*
X155825952Y-95629761D02*
X155921190Y-95677380D01*
X156111666Y-95677380D01*
X156206904Y-95629761D01*
X156254523Y-95582142D01*
X156302142Y-95486904D01*
X156302142Y-95201190D01*
X156254523Y-95105952D01*
X156206904Y-95058333D01*
X156111666Y-95010714D01*
X155921190Y-95010714D01*
X155825952Y-95058333D01*
X154921190Y-95010714D02*
X154921190Y-95677380D01*
X155349761Y-95010714D02*
X155349761Y-95534523D01*
X155302142Y-95629761D01*
X155206904Y-95677380D01*
X155064047Y-95677380D01*
X154968809Y-95629761D01*
X154921190Y-95582142D01*
X154302142Y-95677380D02*
X154397380Y-95629761D01*
X154445000Y-95534523D01*
X154445000Y-94677380D01*
X153540238Y-95629761D02*
X153635476Y-95677380D01*
X153825952Y-95677380D01*
X153921190Y-95629761D01*
X153968809Y-95534523D01*
X153968809Y-95153571D01*
X153921190Y-95058333D01*
X153825952Y-95010714D01*
X153635476Y-95010714D01*
X153540238Y-95058333D01*
X153492619Y-95153571D01*
X153492619Y-95248809D01*
X153968809Y-95344047D01*
X152540238Y-95677380D02*
X153111666Y-95677380D01*
X152825952Y-95677380D02*
X152825952Y-94677380D01*
X152921190Y-94820238D01*
X153016428Y-94915476D01*
X153111666Y-94963095D01*
%TO.C,J5*%
X112658333Y-67082380D02*
X112658333Y-67796666D01*
X112705952Y-67939523D01*
X112801190Y-68034761D01*
X112944047Y-68082380D01*
X113039285Y-68082380D01*
X111705952Y-67082380D02*
X112182142Y-67082380D01*
X112229761Y-67558571D01*
X112182142Y-67510952D01*
X112086904Y-67463333D01*
X111848809Y-67463333D01*
X111753571Y-67510952D01*
X111705952Y-67558571D01*
X111658333Y-67653809D01*
X111658333Y-67891904D01*
X111705952Y-67987142D01*
X111753571Y-68034761D01*
X111848809Y-68082380D01*
X112086904Y-68082380D01*
X112182142Y-68034761D01*
X112229761Y-67987142D01*
%TO.C,R40*%
X114372380Y-130569642D02*
X113896190Y-130236309D01*
X114372380Y-129998214D02*
X113372380Y-129998214D01*
X113372380Y-130379166D01*
X113420000Y-130474404D01*
X113467619Y-130522023D01*
X113562857Y-130569642D01*
X113705714Y-130569642D01*
X113800952Y-130522023D01*
X113848571Y-130474404D01*
X113896190Y-130379166D01*
X113896190Y-129998214D01*
X113705714Y-131426785D02*
X114372380Y-131426785D01*
X113324761Y-131188690D02*
X114039047Y-130950595D01*
X114039047Y-131569642D01*
X113372380Y-132141071D02*
X113372380Y-132236309D01*
X113420000Y-132331547D01*
X113467619Y-132379166D01*
X113562857Y-132426785D01*
X113753333Y-132474404D01*
X113991428Y-132474404D01*
X114181904Y-132426785D01*
X114277142Y-132379166D01*
X114324761Y-132331547D01*
X114372380Y-132236309D01*
X114372380Y-132141071D01*
X114324761Y-132045833D01*
X114277142Y-131998214D01*
X114181904Y-131950595D01*
X113991428Y-131902976D01*
X113753333Y-131902976D01*
X113562857Y-131950595D01*
X113467619Y-131998214D01*
X113420000Y-132045833D01*
X113372380Y-132141071D01*
%TO.C,R42*%
X122562857Y-129379879D02*
X122896190Y-128903689D01*
X123134285Y-129379879D02*
X123134285Y-128379879D01*
X122753333Y-128379879D01*
X122658095Y-128427499D01*
X122610476Y-128475118D01*
X122562857Y-128570356D01*
X122562857Y-128713213D01*
X122610476Y-128808451D01*
X122658095Y-128856070D01*
X122753333Y-128903689D01*
X123134285Y-128903689D01*
X121705714Y-128713213D02*
X121705714Y-129379879D01*
X121943809Y-128332260D02*
X122181904Y-129046546D01*
X121562857Y-129046546D01*
X121229523Y-128475118D02*
X121181904Y-128427499D01*
X121086666Y-128379879D01*
X120848571Y-128379879D01*
X120753333Y-128427499D01*
X120705714Y-128475118D01*
X120658095Y-128570356D01*
X120658095Y-128665594D01*
X120705714Y-128808451D01*
X121277142Y-129379879D01*
X120658095Y-129379879D01*
%TO.C,R49*%
X116402380Y-120261142D02*
X115926190Y-119927809D01*
X116402380Y-119689714D02*
X115402380Y-119689714D01*
X115402380Y-120070666D01*
X115450000Y-120165904D01*
X115497619Y-120213523D01*
X115592857Y-120261142D01*
X115735714Y-120261142D01*
X115830952Y-120213523D01*
X115878571Y-120165904D01*
X115926190Y-120070666D01*
X115926190Y-119689714D01*
X115735714Y-121118285D02*
X116402380Y-121118285D01*
X115354761Y-120880190D02*
X116069047Y-120642095D01*
X116069047Y-121261142D01*
X116402380Y-121689714D02*
X116402380Y-121880190D01*
X116354761Y-121975428D01*
X116307142Y-122023047D01*
X116164285Y-122118285D01*
X115973809Y-122165904D01*
X115592857Y-122165904D01*
X115497619Y-122118285D01*
X115450000Y-122070666D01*
X115402380Y-121975428D01*
X115402380Y-121784952D01*
X115450000Y-121689714D01*
X115497619Y-121642095D01*
X115592857Y-121594476D01*
X115830952Y-121594476D01*
X115926190Y-121642095D01*
X115973809Y-121689714D01*
X116021428Y-121784952D01*
X116021428Y-121975428D01*
X115973809Y-122070666D01*
X115926190Y-122118285D01*
X115830952Y-122165904D01*
%TO.C,TP28*%
X151090095Y-116876380D02*
X150518666Y-116876380D01*
X150804380Y-117876380D02*
X150804380Y-116876380D01*
X150185333Y-117876380D02*
X150185333Y-116876380D01*
X149804380Y-116876380D01*
X149709142Y-116924000D01*
X149661523Y-116971619D01*
X149613904Y-117066857D01*
X149613904Y-117209714D01*
X149661523Y-117304952D01*
X149709142Y-117352571D01*
X149804380Y-117400190D01*
X150185333Y-117400190D01*
X149232952Y-116971619D02*
X149185333Y-116924000D01*
X149090095Y-116876380D01*
X148852000Y-116876380D01*
X148756761Y-116924000D01*
X148709142Y-116971619D01*
X148661523Y-117066857D01*
X148661523Y-117162095D01*
X148709142Y-117304952D01*
X149280571Y-117876380D01*
X148661523Y-117876380D01*
X148090095Y-117304952D02*
X148185333Y-117257333D01*
X148232952Y-117209714D01*
X148280571Y-117114476D01*
X148280571Y-117066857D01*
X148232952Y-116971619D01*
X148185333Y-116924000D01*
X148090095Y-116876380D01*
X147899619Y-116876380D01*
X147804380Y-116924000D01*
X147756761Y-116971619D01*
X147709142Y-117066857D01*
X147709142Y-117114476D01*
X147756761Y-117209714D01*
X147804380Y-117257333D01*
X147899619Y-117304952D01*
X148090095Y-117304952D01*
X148185333Y-117352571D01*
X148232952Y-117400190D01*
X148280571Y-117495428D01*
X148280571Y-117685904D01*
X148232952Y-117781142D01*
X148185333Y-117828761D01*
X148090095Y-117876380D01*
X147899619Y-117876380D01*
X147804380Y-117828761D01*
X147756761Y-117781142D01*
X147709142Y-117685904D01*
X147709142Y-117495428D01*
X147756761Y-117400190D01*
X147804380Y-117352571D01*
X147899619Y-117304952D01*
%TO.C,F2*%
X193373333Y-69398571D02*
X193706666Y-69398571D01*
X193706666Y-69922380D02*
X193706666Y-68922380D01*
X193230476Y-68922380D01*
X192897142Y-69017619D02*
X192849523Y-68970000D01*
X192754285Y-68922380D01*
X192516190Y-68922380D01*
X192420952Y-68970000D01*
X192373333Y-69017619D01*
X192325714Y-69112857D01*
X192325714Y-69208095D01*
X192373333Y-69350952D01*
X192944761Y-69922380D01*
X192325714Y-69922380D01*
%TO.C,TH1*%
X187340714Y-99527380D02*
X186769285Y-99527380D01*
X187055000Y-100527380D02*
X187055000Y-99527380D01*
X186435952Y-100527380D02*
X186435952Y-99527380D01*
X186435952Y-100003571D02*
X185864523Y-100003571D01*
X185864523Y-100527380D02*
X185864523Y-99527380D01*
X184864523Y-100527380D02*
X185435952Y-100527380D01*
X185150238Y-100527380D02*
X185150238Y-99527380D01*
X185245476Y-99670238D01*
X185340714Y-99765476D01*
X185435952Y-99813095D01*
%TO.C,C27*%
X122912141Y-136517142D02*
X122959760Y-136469523D01*
X123007379Y-136326666D01*
X123007379Y-136231428D01*
X122959760Y-136088571D01*
X122864522Y-135993333D01*
X122769284Y-135945714D01*
X122578808Y-135898095D01*
X122435951Y-135898095D01*
X122245475Y-135945714D01*
X122150237Y-135993333D01*
X122054999Y-136088571D01*
X122007379Y-136231428D01*
X122007379Y-136326666D01*
X122054999Y-136469523D01*
X122102618Y-136517142D01*
X122102618Y-136898095D02*
X122054999Y-136945714D01*
X122007379Y-137040952D01*
X122007379Y-137279047D01*
X122054999Y-137374285D01*
X122102618Y-137421904D01*
X122197856Y-137469523D01*
X122293094Y-137469523D01*
X122435951Y-137421904D01*
X123007379Y-136850476D01*
X123007379Y-137469523D01*
X122007379Y-137802857D02*
X122007379Y-138469523D01*
X123007379Y-138040952D01*
%TO.C,SW15*%
X160984522Y-117239674D02*
X160841665Y-117287293D01*
X160603570Y-117287293D01*
X160508332Y-117239674D01*
X160460713Y-117192055D01*
X160413094Y-117096817D01*
X160413094Y-117001579D01*
X160460713Y-116906341D01*
X160508332Y-116858722D01*
X160603570Y-116811103D01*
X160794046Y-116763484D01*
X160889284Y-116715865D01*
X160936903Y-116668246D01*
X160984522Y-116573008D01*
X160984522Y-116477770D01*
X160936903Y-116382532D01*
X160889284Y-116334913D01*
X160794046Y-116287293D01*
X160555951Y-116287293D01*
X160413094Y-116334913D01*
X160079760Y-116287293D02*
X159841665Y-117287293D01*
X159651189Y-116573008D01*
X159460713Y-117287293D01*
X159222618Y-116287293D01*
X158317856Y-117287293D02*
X158889284Y-117287293D01*
X158603570Y-117287293D02*
X158603570Y-116287293D01*
X158698808Y-116430151D01*
X158794046Y-116525389D01*
X158889284Y-116573008D01*
X157413094Y-116287293D02*
X157889284Y-116287293D01*
X157936903Y-116763484D01*
X157889284Y-116715865D01*
X157794046Y-116668246D01*
X157555951Y-116668246D01*
X157460713Y-116715865D01*
X157413094Y-116763484D01*
X157365475Y-116858722D01*
X157365475Y-117096817D01*
X157413094Y-117192055D01*
X157460713Y-117239674D01*
X157555951Y-117287293D01*
X157794046Y-117287293D01*
X157889284Y-117239674D01*
X157936903Y-117192055D01*
%TO.C,BT1*%
X171343571Y-67794285D02*
X171391190Y-67937142D01*
X171438809Y-67984761D01*
X171534047Y-68032380D01*
X171676904Y-68032380D01*
X171772142Y-67984761D01*
X171819761Y-67937142D01*
X171867380Y-67841904D01*
X171867380Y-67460952D01*
X170867380Y-67460952D01*
X170867380Y-67794285D01*
X170915000Y-67889523D01*
X170962619Y-67937142D01*
X171057857Y-67984761D01*
X171153095Y-67984761D01*
X171248333Y-67937142D01*
X171295952Y-67889523D01*
X171343571Y-67794285D01*
X171343571Y-67460952D01*
X170867380Y-68318095D02*
X170867380Y-68889523D01*
X171867380Y-68603809D02*
X170867380Y-68603809D01*
X171867380Y-69746666D02*
X171867380Y-69175238D01*
X171867380Y-69460952D02*
X170867380Y-69460952D01*
X171010238Y-69365714D01*
X171105476Y-69270476D01*
X171153095Y-69175238D01*
%TO.C,U3*%
X179196904Y-59232380D02*
X179196904Y-60041904D01*
X179149285Y-60137142D01*
X179101666Y-60184761D01*
X179006428Y-60232380D01*
X178815952Y-60232380D01*
X178720714Y-60184761D01*
X178673095Y-60137142D01*
X178625476Y-60041904D01*
X178625476Y-59232380D01*
X178244523Y-59232380D02*
X177625476Y-59232380D01*
X177958809Y-59613333D01*
X177815952Y-59613333D01*
X177720714Y-59660952D01*
X177673095Y-59708571D01*
X177625476Y-59803809D01*
X177625476Y-60041904D01*
X177673095Y-60137142D01*
X177720714Y-60184761D01*
X177815952Y-60232380D01*
X178101666Y-60232380D01*
X178196904Y-60184761D01*
X178244523Y-60137142D01*
%TO.C,J4*%
X193762385Y-79041666D02*
X194476671Y-79041666D01*
X194619528Y-78994047D01*
X194714766Y-78898809D01*
X194762385Y-78755952D01*
X194762385Y-78660714D01*
X194095719Y-79946428D02*
X194762385Y-79946428D01*
X193714766Y-79708333D02*
X194429052Y-79470238D01*
X194429052Y-80089285D01*
%TO.C,R41*%
X122562857Y-132787379D02*
X122896190Y-132311189D01*
X123134285Y-132787379D02*
X123134285Y-131787379D01*
X122753333Y-131787379D01*
X122658095Y-131834999D01*
X122610476Y-131882618D01*
X122562857Y-131977856D01*
X122562857Y-132120713D01*
X122610476Y-132215951D01*
X122658095Y-132263570D01*
X122753333Y-132311189D01*
X123134285Y-132311189D01*
X121705714Y-132120713D02*
X121705714Y-132787379D01*
X121943809Y-131739760D02*
X122181904Y-132454046D01*
X121562857Y-132454046D01*
X120658095Y-132787379D02*
X121229523Y-132787379D01*
X120943809Y-132787379D02*
X120943809Y-131787379D01*
X121039047Y-131930237D01*
X121134285Y-132025475D01*
X121229523Y-132073094D01*
%TO.C,C28*%
X120782142Y-128664641D02*
X120829761Y-128617022D01*
X120877380Y-128474165D01*
X120877380Y-128378927D01*
X120829761Y-128236070D01*
X120734523Y-128140832D01*
X120639285Y-128093213D01*
X120448809Y-128045594D01*
X120305952Y-128045594D01*
X120115476Y-128093213D01*
X120020238Y-128140832D01*
X119925000Y-128236070D01*
X119877380Y-128378927D01*
X119877380Y-128474165D01*
X119925000Y-128617022D01*
X119972619Y-128664641D01*
X119972619Y-129045594D02*
X119925000Y-129093213D01*
X119877380Y-129188451D01*
X119877380Y-129426546D01*
X119925000Y-129521784D01*
X119972619Y-129569403D01*
X120067857Y-129617022D01*
X120163095Y-129617022D01*
X120305952Y-129569403D01*
X120877380Y-128997975D01*
X120877380Y-129617022D01*
X120305952Y-130188451D02*
X120258333Y-130093213D01*
X120210714Y-130045594D01*
X120115476Y-129997975D01*
X120067857Y-129997975D01*
X119972619Y-130045594D01*
X119925000Y-130093213D01*
X119877380Y-130188451D01*
X119877380Y-130378927D01*
X119925000Y-130474165D01*
X119972619Y-130521784D01*
X120067857Y-130569403D01*
X120115476Y-130569403D01*
X120210714Y-130521784D01*
X120258333Y-130474165D01*
X120305952Y-130378927D01*
X120305952Y-130188451D01*
X120353571Y-130093213D01*
X120401190Y-130045594D01*
X120496428Y-129997975D01*
X120686904Y-129997975D01*
X120782142Y-130045594D01*
X120829761Y-130093213D01*
X120877380Y-130188451D01*
X120877380Y-130378927D01*
X120829761Y-130474165D01*
X120782142Y-130521784D01*
X120686904Y-130569403D01*
X120496428Y-130569403D01*
X120401190Y-130521784D01*
X120353571Y-130474165D01*
X120305952Y-130378927D01*
%TO.C,R8*%
X174156666Y-69412380D02*
X174490000Y-68936190D01*
X174728095Y-69412380D02*
X174728095Y-68412380D01*
X174347142Y-68412380D01*
X174251904Y-68460000D01*
X174204285Y-68507619D01*
X174156666Y-68602857D01*
X174156666Y-68745714D01*
X174204285Y-68840952D01*
X174251904Y-68888571D01*
X174347142Y-68936190D01*
X174728095Y-68936190D01*
X173585238Y-68840952D02*
X173680476Y-68793333D01*
X173728095Y-68745714D01*
X173775714Y-68650476D01*
X173775714Y-68602857D01*
X173728095Y-68507619D01*
X173680476Y-68460000D01*
X173585238Y-68412380D01*
X173394761Y-68412380D01*
X173299523Y-68460000D01*
X173251904Y-68507619D01*
X173204285Y-68602857D01*
X173204285Y-68650476D01*
X173251904Y-68745714D01*
X173299523Y-68793333D01*
X173394761Y-68840952D01*
X173585238Y-68840952D01*
X173680476Y-68888571D01*
X173728095Y-68936190D01*
X173775714Y-69031428D01*
X173775714Y-69221904D01*
X173728095Y-69317142D01*
X173680476Y-69364761D01*
X173585238Y-69412380D01*
X173394761Y-69412380D01*
X173299523Y-69364761D01*
X173251904Y-69317142D01*
X173204285Y-69221904D01*
X173204285Y-69031428D01*
X173251904Y-68936190D01*
X173299523Y-68888571D01*
X173394761Y-68840952D01*
%TO.C,J1*%
X152934099Y-98594400D02*
X152934099Y-99738899D01*
X153010399Y-99967799D01*
X153162999Y-100120399D01*
X153391899Y-100196699D01*
X153544499Y-100196699D01*
X151331800Y-100196699D02*
X152247400Y-100196699D01*
X151789600Y-100196699D02*
X151789600Y-98594400D01*
X151942200Y-98823300D01*
X152094800Y-98975900D01*
X152247400Y-99052200D01*
%TO.C,R9*%
X171267380Y-63078609D02*
X170791190Y-62745276D01*
X171267380Y-62507180D02*
X170267380Y-62507180D01*
X170267380Y-62888133D01*
X170315000Y-62983371D01*
X170362619Y-63030990D01*
X170457857Y-63078609D01*
X170600714Y-63078609D01*
X170695952Y-63030990D01*
X170743571Y-62983371D01*
X170791190Y-62888133D01*
X170791190Y-62507180D01*
X171267380Y-63554799D02*
X171267380Y-63745276D01*
X171219761Y-63840514D01*
X171172142Y-63888133D01*
X171029285Y-63983371D01*
X170838809Y-64030990D01*
X170457857Y-64030990D01*
X170362619Y-63983371D01*
X170315000Y-63935752D01*
X170267380Y-63840514D01*
X170267380Y-63650037D01*
X170315000Y-63554799D01*
X170362619Y-63507180D01*
X170457857Y-63459561D01*
X170695952Y-63459561D01*
X170791190Y-63507180D01*
X170838809Y-63554799D01*
X170886428Y-63650037D01*
X170886428Y-63840514D01*
X170838809Y-63935752D01*
X170791190Y-63983371D01*
X170695952Y-64030990D01*
%TO.C,C10*%
X175777142Y-60317142D02*
X175824761Y-60269523D01*
X175872380Y-60126666D01*
X175872380Y-60031428D01*
X175824761Y-59888571D01*
X175729523Y-59793333D01*
X175634285Y-59745714D01*
X175443809Y-59698095D01*
X175300952Y-59698095D01*
X175110476Y-59745714D01*
X175015238Y-59793333D01*
X174920000Y-59888571D01*
X174872380Y-60031428D01*
X174872380Y-60126666D01*
X174920000Y-60269523D01*
X174967619Y-60317142D01*
X175872380Y-61269523D02*
X175872380Y-60698095D01*
X175872380Y-60983809D02*
X174872380Y-60983809D01*
X175015238Y-60888571D01*
X175110476Y-60793333D01*
X175158095Y-60698095D01*
X174872380Y-61888571D02*
X174872380Y-61983809D01*
X174920000Y-62079047D01*
X174967619Y-62126666D01*
X175062857Y-62174285D01*
X175253333Y-62221904D01*
X175491428Y-62221904D01*
X175681904Y-62174285D01*
X175777142Y-62126666D01*
X175824761Y-62079047D01*
X175872380Y-61983809D01*
X175872380Y-61888571D01*
X175824761Y-61793333D01*
X175777142Y-61745714D01*
X175681904Y-61698095D01*
X175491428Y-61650476D01*
X175253333Y-61650476D01*
X175062857Y-61698095D01*
X174967619Y-61745714D01*
X174920000Y-61793333D01*
X174872380Y-61888571D01*
%TO.C,TP17*%
X201382380Y-114085905D02*
X201382380Y-114657334D01*
X202382380Y-114371620D02*
X201382380Y-114371620D01*
X202382380Y-114990667D02*
X201382380Y-114990667D01*
X201382380Y-115371620D01*
X201430000Y-115466858D01*
X201477619Y-115514477D01*
X201572857Y-115562096D01*
X201715714Y-115562096D01*
X201810952Y-115514477D01*
X201858571Y-115466858D01*
X201906190Y-115371620D01*
X201906190Y-114990667D01*
X202382380Y-116514477D02*
X202382380Y-115943048D01*
X202382380Y-116228762D02*
X201382380Y-116228762D01*
X201525238Y-116133524D01*
X201620476Y-116038286D01*
X201668095Y-115943048D01*
X201382380Y-116847810D02*
X201382380Y-117514477D01*
X202382380Y-117085905D01*
%TO.C,R27*%
X200222380Y-99687142D02*
X199746190Y-99353809D01*
X200222380Y-99115714D02*
X199222380Y-99115714D01*
X199222380Y-99496666D01*
X199270000Y-99591904D01*
X199317619Y-99639523D01*
X199412857Y-99687142D01*
X199555714Y-99687142D01*
X199650952Y-99639523D01*
X199698571Y-99591904D01*
X199746190Y-99496666D01*
X199746190Y-99115714D01*
X199317619Y-100068095D02*
X199270000Y-100115714D01*
X199222380Y-100210952D01*
X199222380Y-100449047D01*
X199270000Y-100544285D01*
X199317619Y-100591904D01*
X199412857Y-100639523D01*
X199508095Y-100639523D01*
X199650952Y-100591904D01*
X200222380Y-100020476D01*
X200222380Y-100639523D01*
X199222380Y-100972857D02*
X199222380Y-101639523D01*
X200222380Y-101210952D01*
%TO.C,R29*%
X194952857Y-98497380D02*
X195286190Y-98021190D01*
X195524285Y-98497380D02*
X195524285Y-97497380D01*
X195143333Y-97497380D01*
X195048095Y-97545000D01*
X195000476Y-97592619D01*
X194952857Y-97687857D01*
X194952857Y-97830714D01*
X195000476Y-97925952D01*
X195048095Y-97973571D01*
X195143333Y-98021190D01*
X195524285Y-98021190D01*
X194571904Y-97592619D02*
X194524285Y-97545000D01*
X194429047Y-97497380D01*
X194190952Y-97497380D01*
X194095714Y-97545000D01*
X194048095Y-97592619D01*
X194000476Y-97687857D01*
X194000476Y-97783095D01*
X194048095Y-97925952D01*
X194619523Y-98497380D01*
X194000476Y-98497380D01*
X193524285Y-98497380D02*
X193333809Y-98497380D01*
X193238571Y-98449761D01*
X193190952Y-98402142D01*
X193095714Y-98259285D01*
X193048095Y-98068809D01*
X193048095Y-97687857D01*
X193095714Y-97592619D01*
X193143333Y-97545000D01*
X193238571Y-97497380D01*
X193429047Y-97497380D01*
X193524285Y-97545000D01*
X193571904Y-97592619D01*
X193619523Y-97687857D01*
X193619523Y-97925952D01*
X193571904Y-98021190D01*
X193524285Y-98068809D01*
X193429047Y-98116428D01*
X193238571Y-98116428D01*
X193143333Y-98068809D01*
X193095714Y-98021190D01*
X193048095Y-97925952D01*
D11*
%TO.C,C26*%
X109120000Y-71381252D02*
X109120000Y-70858748D01*
X110590000Y-71381252D02*
X110590000Y-70858748D01*
%TO.C,TP14*%
X202630000Y-118680000D02*
X201230000Y-118680000D01*
X201230000Y-120080000D02*
X202630000Y-120080000D01*
X202630000Y-120080000D02*
X202630000Y-118680000D01*
X201230000Y-118680000D02*
X201230000Y-120080000D01*
D12*
%TO.C,SW14*%
X125949995Y-119789913D02*
X125949995Y-122149913D01*
X122679995Y-118369913D02*
X120749995Y-118369913D01*
X122679995Y-123569913D02*
X120749995Y-123569913D01*
X120749995Y-119789913D02*
X120749995Y-122149913D01*
X125949995Y-118369913D02*
X124019995Y-118369913D01*
X125949995Y-123569913D02*
X124019995Y-123569913D01*
D13*
X127549995Y-119119913D02*
G75*
G03*
X127549995Y-119119913I-100000J0D01*
G01*
D11*
%TO.C,J6*%
X140395000Y-137545000D02*
X140895000Y-137545000D01*
X135195000Y-140045000D02*
X140395000Y-140045000D01*
X134695000Y-122845000D02*
X134695000Y-124045000D01*
X140895000Y-122845000D02*
X140145000Y-122845000D01*
X134695000Y-136345000D02*
X132695000Y-136345000D01*
X140395000Y-140045000D02*
X140395000Y-137545000D01*
X135195000Y-137545000D02*
X135195000Y-140045000D01*
X140895000Y-137545000D02*
X140895000Y-134345000D01*
X134695000Y-127245000D02*
X134695000Y-133745000D01*
X134695000Y-137545000D02*
X135195000Y-137545000D01*
X134695000Y-136345000D02*
X134695000Y-137545000D01*
X140895000Y-131745000D02*
X140895000Y-122845000D01*
X134695000Y-133745000D02*
X132695000Y-133745000D01*
X136945000Y-122845000D02*
X134695000Y-122845000D01*
%TO.C,TP12*%
X194880000Y-118680000D02*
X194880000Y-120080000D01*
X196280000Y-120080000D02*
X196280000Y-118680000D01*
X194880000Y-120080000D02*
X196280000Y-120080000D01*
X196280000Y-118680000D02*
X194880000Y-118680000D01*
%TO.C,TP13*%
X196280000Y-127065000D02*
X196280000Y-125665000D01*
X194880000Y-127065000D02*
X196280000Y-127065000D01*
X194880000Y-125665000D02*
X194880000Y-127065000D01*
X196280000Y-125665000D02*
X194880000Y-125665000D01*
%TO.C,R2*%
X161697936Y-114400000D02*
X162152064Y-114400000D01*
X161697936Y-112930000D02*
X162152064Y-112930000D01*
%TO.C,D4*%
X127745000Y-132795000D02*
X127745000Y-131395000D01*
X130065000Y-131395000D02*
X130065000Y-133295000D01*
%TO.C,C34*%
X152627000Y-121658748D02*
X152627000Y-122181252D01*
X151157000Y-121658748D02*
X151157000Y-122181252D01*
%TO.C,U1*%
X163535000Y-105410000D02*
X163535000Y-106910000D01*
X160315000Y-105410000D02*
X160315000Y-106910000D01*
X163535000Y-105410000D02*
X163535000Y-103910000D01*
X160315000Y-105410000D02*
X160315000Y-102485000D01*
%TO.C,R10*%
X168529724Y-63387500D02*
X168020276Y-63387500D01*
X168529724Y-62342500D02*
X168020276Y-62342500D01*
%TO.C,C29*%
X124360000Y-134993748D02*
X124360000Y-135516252D01*
X125830000Y-134993748D02*
X125830000Y-135516252D01*
%TO.C,C1*%
X166108748Y-106780000D02*
X166631252Y-106780000D01*
X166108748Y-105310000D02*
X166631252Y-105310000D01*
%TO.C,R46*%
X153135064Y-118137000D02*
X152680936Y-118137000D01*
X153135064Y-119607000D02*
X152680936Y-119607000D01*
%TO.C,R38*%
X193267064Y-69315000D02*
X192812936Y-69315000D01*
X193267064Y-67845000D02*
X192812936Y-67845000D01*
%TO.C,C33*%
X110009000Y-120642748D02*
X110009000Y-121165252D01*
X111479000Y-120642748D02*
X111479000Y-121165252D01*
%TO.C,R3*%
X166142936Y-104240000D02*
X166597064Y-104240000D01*
X166142936Y-102770000D02*
X166597064Y-102770000D01*
%TO.C,TP15*%
X202630000Y-127065000D02*
X202630000Y-125665000D01*
X202630000Y-125665000D02*
X201230000Y-125665000D01*
X201230000Y-125665000D02*
X201230000Y-127065000D01*
X201230000Y-127065000D02*
X202630000Y-127065000D01*
%TO.C,C30*%
X125830000Y-129801252D02*
X125830000Y-129278748D01*
X124360000Y-129801252D02*
X124360000Y-129278748D01*
%TO.C,R39*%
X118845000Y-134662936D02*
X118845000Y-135117064D01*
X117375000Y-134662936D02*
X117375000Y-135117064D01*
%TO.C,U5*%
X191018000Y-106299000D02*
X191018000Y-102849000D01*
X199888000Y-106299000D02*
X199888000Y-108249000D01*
X199888000Y-106299000D02*
X199888000Y-104349000D01*
X191018000Y-106299000D02*
X191018000Y-108249000D01*
%TO.C,R50*%
X150087000Y-122147064D02*
X150087000Y-121692936D01*
X148617000Y-122147064D02*
X148617000Y-121692936D01*
%TO.C,R45*%
X118591000Y-120676936D02*
X118591000Y-121131064D01*
X117121000Y-120676936D02*
X117121000Y-121131064D01*
%TO.C,TP16*%
X196280000Y-112714000D02*
X196280000Y-111314000D01*
X194880000Y-111314000D02*
X194880000Y-112714000D01*
X196280000Y-111314000D02*
X194880000Y-111314000D01*
X194880000Y-112714000D02*
X196280000Y-112714000D01*
%TO.C,Module1*%
X150425000Y-74495000D02*
X150425000Y-78275000D01*
X127625000Y-108415000D02*
X127625000Y-112195000D01*
X127625000Y-112195000D02*
X128625000Y-112195000D01*
X109025000Y-109845000D02*
X109025000Y-76845000D01*
X150425000Y-74495000D02*
X149425000Y-74495000D01*
X150425000Y-108415000D02*
X149425000Y-108415000D01*
X127625000Y-74495000D02*
X127625000Y-78275000D01*
X150425000Y-112195000D02*
X149425000Y-112195000D01*
X112525000Y-73345000D02*
X160525000Y-73345000D01*
X160525000Y-113345000D02*
X112525000Y-113345000D01*
X150425000Y-108415000D02*
X150425000Y-112195000D01*
X150425000Y-78275000D02*
X149425000Y-78275000D01*
X127625000Y-108415000D02*
X128625000Y-108415000D01*
X164025000Y-76845000D02*
X164025000Y-109845000D01*
X164025000Y-76845000D02*
G75*
G03*
X160525000Y-73345000I-3499999J1D01*
G01*
X109025000Y-109845000D02*
G75*
G03*
X112525000Y-113345000I3499999J-1D01*
G01*
X112525000Y-73345000D02*
G75*
G03*
X109025000Y-76845000I-1J-3499999D01*
G01*
X160525000Y-113345000D02*
G75*
G03*
X164025000Y-109845000I1J3499999D01*
G01*
D12*
%TO.C,J5*%
X132110000Y-59735000D02*
X132110000Y-58845000D01*
X132110000Y-59735000D02*
X131325000Y-59735000D01*
X109190000Y-58845000D02*
X109190000Y-59735000D01*
X131325000Y-60245000D02*
X131325000Y-59735000D01*
X109975000Y-59735000D02*
X109190000Y-59735000D01*
X112450000Y-64245000D02*
X113010000Y-64245000D01*
X109975000Y-60245000D02*
X109975000Y-59735000D01*
X132110000Y-58845000D02*
X109190000Y-58845000D01*
X128290000Y-64245000D02*
X128850000Y-64245000D01*
D13*
X112750000Y-65415000D02*
G75*
G03*
X112750000Y-65415000I-100000J0D01*
G01*
D11*
%TO.C,R40*%
X116305000Y-130985436D02*
X116305000Y-131439564D01*
X114835000Y-130985436D02*
X114835000Y-131439564D01*
%TO.C,R42*%
X122147064Y-131312499D02*
X121692936Y-131312499D01*
X122147064Y-129842499D02*
X121692936Y-129842499D01*
%TO.C,R49*%
X113565000Y-121131064D02*
X113565000Y-120676936D01*
X115035000Y-121131064D02*
X115035000Y-120676936D01*
%TO.C,TP28*%
X150052000Y-119572000D02*
X150052000Y-118172000D01*
X150052000Y-118172000D02*
X148652000Y-118172000D01*
X148652000Y-119572000D02*
X150052000Y-119572000D01*
X148652000Y-118172000D02*
X148652000Y-119572000D01*
%TO.C,F2*%
X193301252Y-71830000D02*
X192778748Y-71830000D01*
X193301252Y-70410000D02*
X192778748Y-70410000D01*
%TO.C,TH1*%
X185827936Y-97690000D02*
X186282064Y-97690000D01*
X185827936Y-99160000D02*
X186282064Y-99160000D01*
%TO.C,C27*%
X119914999Y-136898748D02*
X119914999Y-137421252D01*
X121384999Y-136898748D02*
X121384999Y-137421252D01*
D12*
%TO.C,SW15*%
X158679999Y-123569913D02*
X156749999Y-123569913D01*
X161949999Y-123569913D02*
X160019999Y-123569913D01*
X156749999Y-119789913D02*
X156749999Y-122149913D01*
X161949999Y-119789913D02*
X161949999Y-122149913D01*
X158679999Y-118369913D02*
X156749999Y-118369913D01*
X161949999Y-118369913D02*
X160019999Y-118369913D01*
D13*
X163549999Y-119119913D02*
G75*
G03*
X163549999Y-119119913I-100000J0D01*
G01*
D11*
%TO.C,BT1*%
X165825000Y-66190000D02*
X165825000Y-68580000D01*
X165825000Y-70970000D02*
X165825000Y-68580000D01*
X170325000Y-64770000D02*
X170325000Y-66190000D01*
X164715000Y-67080000D02*
X164715000Y-67580000D01*
X164715000Y-70080000D02*
X159215000Y-70080000D01*
X170325000Y-66190000D02*
X165825000Y-66190000D01*
X159215000Y-67080000D02*
X164715000Y-67080000D01*
X169415000Y-69830000D02*
X170015000Y-70130000D01*
X159215000Y-67580000D02*
X159215000Y-67080000D01*
X164715000Y-67580000D02*
X159215000Y-67580000D01*
X170325000Y-70970000D02*
X165825000Y-70970000D01*
X170015000Y-69530000D02*
X169415000Y-69830000D01*
X170325000Y-72390000D02*
X170325000Y-70970000D01*
X158605000Y-68580000D02*
X158605000Y-64770000D01*
X158605000Y-68580000D02*
X158605000Y-72390000D01*
X158605000Y-64770000D02*
X170325000Y-64770000D01*
X170015000Y-70130000D02*
X170015000Y-69530000D01*
X158605000Y-72390000D02*
X170325000Y-72390000D01*
X159215000Y-70080000D02*
X159215000Y-69580000D01*
X159215000Y-69580000D02*
X164715000Y-69580000D01*
X164715000Y-69580000D02*
X164715000Y-70080000D01*
%TO.C,U3*%
X179935000Y-63840000D02*
X176935000Y-63840000D01*
X178435000Y-60620000D02*
X176935000Y-60620000D01*
D13*
%TO.C,J4*%
X202117500Y-69190000D02*
X203607500Y-69190000D01*
X198187500Y-78130000D02*
X199397500Y-78130000D01*
X203607500Y-69190000D02*
X203607500Y-78130000D01*
X198187500Y-69190000D02*
X199397500Y-69190000D01*
X203607500Y-78130000D02*
X202117500Y-78130000D01*
X195197500Y-69880000D02*
G75*
G03*
X195197500Y-69880000I-100000J0D01*
G01*
D11*
%TO.C,R41*%
X122147064Y-134719999D02*
X121692936Y-134719999D01*
X122147064Y-133249999D02*
X121692936Y-133249999D01*
%TO.C,C28*%
X118010000Y-129568751D02*
X118010000Y-129046247D01*
X119480000Y-129568751D02*
X119480000Y-129046247D01*
%TO.C,R8*%
X173762936Y-66575000D02*
X174217064Y-66575000D01*
X173762936Y-68045000D02*
X174217064Y-68045000D01*
D13*
%TO.C,J1*%
X158565000Y-103225000D02*
X158565000Y-100725000D01*
X158565000Y-115175000D02*
X157015000Y-115175000D01*
X144965000Y-115175000D02*
X144965000Y-114225000D01*
X158565000Y-115175000D02*
X158565000Y-114225000D01*
X158565000Y-100725000D02*
X144965000Y-100725000D01*
X144965000Y-103225000D02*
X144965000Y-100725000D01*
X146515000Y-115175000D02*
X144965000Y-115175000D01*
X157015000Y-115175000D02*
G75*
G03*
X146515000Y-115175000I-5250000J-9038541D01*
G01*
X147665000Y-110650000D02*
G75*
G03*
X147665000Y-110650000I-100000J0D01*
G01*
D11*
%TO.C,R9*%
X172607500Y-63754724D02*
X172607500Y-63245276D01*
X171562500Y-63754724D02*
X171562500Y-63245276D01*
%TO.C,C10*%
X174500000Y-61106267D02*
X174500000Y-60813733D01*
X173480000Y-61106267D02*
X173480000Y-60813733D01*
%TO.C,TP17*%
X202630000Y-112714001D02*
X202630000Y-111314001D01*
X201230000Y-112714001D02*
X202630000Y-112714001D01*
X201230000Y-111314001D02*
X201230000Y-112714001D01*
X202630000Y-111314001D02*
X201230000Y-111314001D01*
%TO.C,R27*%
X198855000Y-100557064D02*
X198855000Y-100102936D01*
X197385000Y-100557064D02*
X197385000Y-100102936D01*
%TO.C,R29*%
X194537064Y-100430000D02*
X194082936Y-100430000D01*
X194537064Y-98960000D02*
X194082936Y-98960000D01*
%TD*%
M02*
