%TF.GenerationSoftware,KiCad,Pcbnew,(6.0.0)*%
%TF.CreationDate,2022-05-01T17:17:02+01:00*%
%TF.ProjectId,CM4Carrier,434d3443-6172-4726-9965-722e6b696361,indev*%
%TF.SameCoordinates,Original*%
%TF.FileFunction,Soldermask,Top*%
%TF.FilePolarity,Negative*%
%FSLAX46Y46*%
G04 Gerber Fmt 4.6, Leading zero omitted, Abs format (unit mm)*
G04 Created by KiCad (PCBNEW (6.0.0)) date 2022-05-01 17:17:02*
%MOMM*%
%LPD*%
G01*
G04 APERTURE LIST*
G04 Aperture macros list*
%AMRoundRect*
0 Rectangle with rounded corners*
0 $1 Rounding radius*
0 $2 $3 $4 $5 $6 $7 $8 $9 X,Y pos of 4 corners*
0 Add a 4 corners polygon primitive as box body*
4,1,4,$2,$3,$4,$5,$6,$7,$8,$9,$2,$3,0*
0 Add four circle primitives for the rounded corners*
1,1,$1+$1,$2,$3*
1,1,$1+$1,$4,$5*
1,1,$1+$1,$6,$7*
1,1,$1+$1,$8,$9*
0 Add four rect primitives between the rounded corners*
20,1,$1+$1,$2,$3,$4,$5,0*
20,1,$1+$1,$4,$5,$6,$7,0*
20,1,$1+$1,$6,$7,$8,$9,0*
20,1,$1+$1,$8,$9,$2,$3,0*%
G04 Aperture macros list end*
%ADD10C,0.010000*%
%ADD11RoundRect,0.100000X0.637500X0.100000X-0.637500X0.100000X-0.637500X-0.100000X0.637500X-0.100000X0*%
%ADD12R,1.000000X1.000000*%
%ADD13RoundRect,0.250000X0.350000X0.450000X-0.350000X0.450000X-0.350000X-0.450000X0.350000X-0.450000X0*%
%ADD14C,1.428000*%
%ADD15R,1.428000X1.428000*%
%ADD16O,1.108000X2.216000*%
%ADD17RoundRect,0.250000X-0.550000X0.550000X-0.550000X-0.550000X0.550000X-0.550000X0.550000X0.550000X0*%
%ADD18C,1.600000*%
%ADD19RoundRect,0.250001X0.462499X1.074999X-0.462499X1.074999X-0.462499X-1.074999X0.462499X-1.074999X0*%
%ADD20RoundRect,0.250000X0.325000X0.450000X-0.325000X0.450000X-0.325000X-0.450000X0.325000X-0.450000X0*%
%ADD21RoundRect,0.250000X0.337500X0.475000X-0.337500X0.475000X-0.337500X-0.475000X0.337500X-0.475000X0*%
%ADD22C,2.700000*%
%ADD23RoundRect,0.250000X0.450000X-0.350000X0.450000X0.350000X-0.450000X0.350000X-0.450000X-0.350000X0*%
%ADD24R,1.000000X0.700000*%
%ADD25R,0.700000X0.600000*%
%ADD26RoundRect,0.250001X-0.849999X0.462499X-0.849999X-0.462499X0.849999X-0.462499X0.849999X0.462499X0*%
%ADD27RoundRect,0.250000X-0.475000X0.337500X-0.475000X-0.337500X0.475000X-0.337500X0.475000X0.337500X0*%
%ADD28RoundRect,0.250000X-0.350000X-0.450000X0.350000X-0.450000X0.350000X0.450000X-0.350000X0.450000X0*%
%ADD29RoundRect,0.250000X0.475000X-0.337500X0.475000X0.337500X-0.475000X0.337500X-0.475000X-0.337500X0*%
%ADD30RoundRect,0.250000X-0.337500X-0.475000X0.337500X-0.475000X0.337500X0.475000X-0.337500X0.475000X0*%
%ADD31RoundRect,0.250001X0.462499X0.849999X-0.462499X0.849999X-0.462499X-0.849999X0.462499X-0.849999X0*%
%ADD32R,0.700000X1.000000*%
%ADD33R,0.600000X0.700000*%
%ADD34RoundRect,0.250000X-0.450000X0.350000X-0.450000X-0.350000X0.450000X-0.350000X0.450000X0.350000X0*%
%ADD35RoundRect,0.250000X-0.450000X0.325000X-0.450000X-0.325000X0.450000X-0.325000X0.450000X0.325000X0*%
%ADD36RoundRect,0.237500X0.237500X-0.300000X0.237500X0.300000X-0.237500X0.300000X-0.237500X-0.300000X0*%
%ADD37RoundRect,0.237500X-0.237500X0.250000X-0.237500X-0.250000X0.237500X-0.250000X0.237500X0.250000X0*%
%ADD38R,0.609600X0.304800*%
%ADD39R,0.304800X0.787400*%
%ADD40R,0.304800X0.609600*%
%ADD41RoundRect,0.237500X-0.300000X-0.237500X0.300000X-0.237500X0.300000X0.237500X-0.300000X0.237500X0*%
%ADD42C,1.700000*%
%ADD43C,6.100000*%
%ADD44RoundRect,0.250000X0.750000X-0.600000X0.750000X0.600000X-0.750000X0.600000X-0.750000X-0.600000X0*%
%ADD45O,2.000000X1.700000*%
%ADD46C,0.650000*%
G04 APERTURE END LIST*
D10*
%TO.C,U2*%
X184572491Y-73715000D02*
X184572491Y-74340000D01*
X184572491Y-74340000D02*
X184572491Y-74348000D01*
X184572491Y-74348000D02*
X184571491Y-74356000D01*
X184571491Y-74356000D02*
X184570491Y-74363000D01*
X184570491Y-74363000D02*
X184569491Y-74371000D01*
X184569491Y-74371000D02*
X184567491Y-74379000D01*
X184567491Y-74379000D02*
X184565491Y-74386000D01*
X184565491Y-74386000D02*
X184562491Y-74394000D01*
X184562491Y-74394000D02*
X184559491Y-74401000D01*
X184559491Y-74401000D02*
X184556491Y-74408000D01*
X184556491Y-74408000D02*
X184552491Y-74415000D01*
X184552491Y-74415000D02*
X184548491Y-74422000D01*
X184548491Y-74422000D02*
X184543491Y-74428000D01*
X184543491Y-74428000D02*
X184539491Y-74434000D01*
X184539491Y-74434000D02*
X184533491Y-74440000D01*
X184533491Y-74440000D02*
X184528491Y-74446000D01*
X184528491Y-74446000D02*
X184522491Y-74451000D01*
X184522491Y-74451000D02*
X184516491Y-74457000D01*
X184516491Y-74457000D02*
X184510491Y-74461000D01*
X184510491Y-74461000D02*
X184504491Y-74466000D01*
X184504491Y-74466000D02*
X184497491Y-74470000D01*
X184497491Y-74470000D02*
X184490491Y-74474000D01*
X184490491Y-74474000D02*
X184483491Y-74477000D01*
X184483491Y-74477000D02*
X184476491Y-74480000D01*
X184476491Y-74480000D02*
X184468491Y-74483000D01*
X184468491Y-74483000D02*
X184461491Y-74485000D01*
X184461491Y-74485000D02*
X184453491Y-74487000D01*
X184453491Y-74487000D02*
X184445491Y-74488000D01*
X184445491Y-74488000D02*
X184438491Y-74489000D01*
X184438491Y-74489000D02*
X184430491Y-74490000D01*
X184430491Y-74490000D02*
X184422491Y-74490000D01*
X184422491Y-74490000D02*
X184414491Y-74490000D01*
X184414491Y-74490000D02*
X184406491Y-74489000D01*
X184406491Y-74489000D02*
X184399491Y-74488000D01*
X184399491Y-74488000D02*
X184391491Y-74487000D01*
X184391491Y-74487000D02*
X184383491Y-74485000D01*
X184383491Y-74485000D02*
X184376491Y-74483000D01*
X184376491Y-74483000D02*
X184368491Y-74480000D01*
X184368491Y-74480000D02*
X184361491Y-74477000D01*
X184361491Y-74477000D02*
X184354491Y-74474000D01*
X184354491Y-74474000D02*
X184347491Y-74470000D01*
X184347491Y-74470000D02*
X184340491Y-74466000D01*
X184340491Y-74466000D02*
X184334491Y-74461000D01*
X184334491Y-74461000D02*
X184328491Y-74457000D01*
X184328491Y-74457000D02*
X184322491Y-74451000D01*
X184322491Y-74451000D02*
X184316491Y-74446000D01*
X184316491Y-74446000D02*
X184311491Y-74440000D01*
X184311491Y-74440000D02*
X184305491Y-74434000D01*
X184305491Y-74434000D02*
X184301491Y-74428000D01*
X184301491Y-74428000D02*
X184296491Y-74422000D01*
X184296491Y-74422000D02*
X184292491Y-74415000D01*
X184292491Y-74415000D02*
X184288491Y-74408000D01*
X184288491Y-74408000D02*
X184285491Y-74401000D01*
X184285491Y-74401000D02*
X184282491Y-74394000D01*
X184282491Y-74394000D02*
X184279491Y-74386000D01*
X184279491Y-74386000D02*
X184277491Y-74379000D01*
X184277491Y-74379000D02*
X184275491Y-74371000D01*
X184275491Y-74371000D02*
X184274491Y-74363000D01*
X184274491Y-74363000D02*
X184273491Y-74356000D01*
X184273491Y-74356000D02*
X184272491Y-74348000D01*
X184272491Y-74348000D02*
X184272491Y-74340000D01*
X184272491Y-74340000D02*
X184272491Y-73715000D01*
X184272491Y-73715000D02*
X184572491Y-73715000D01*
X184572491Y-73715000D02*
X184572491Y-73715000D01*
G36*
X184572491Y-74348000D02*
G01*
X184571491Y-74356000D01*
X184570491Y-74363000D01*
X184569491Y-74371000D01*
X184567491Y-74379000D01*
X184565491Y-74386000D01*
X184562491Y-74394000D01*
X184556491Y-74408000D01*
X184548491Y-74422000D01*
X184543491Y-74428000D01*
X184539491Y-74434000D01*
X184533491Y-74440000D01*
X184528491Y-74446000D01*
X184522491Y-74451000D01*
X184516491Y-74457000D01*
X184510491Y-74461000D01*
X184504491Y-74466000D01*
X184490491Y-74474000D01*
X184476491Y-74480000D01*
X184468491Y-74483000D01*
X184461491Y-74485000D01*
X184453491Y-74487000D01*
X184445491Y-74488000D01*
X184438491Y-74489000D01*
X184430491Y-74490000D01*
X184414491Y-74490000D01*
X184406491Y-74489000D01*
X184399491Y-74488000D01*
X184391491Y-74487000D01*
X184383491Y-74485000D01*
X184376491Y-74483000D01*
X184368491Y-74480000D01*
X184354491Y-74474000D01*
X184340491Y-74466000D01*
X184334491Y-74461000D01*
X184328491Y-74457000D01*
X184322491Y-74451000D01*
X184316491Y-74446000D01*
X184311491Y-74440000D01*
X184305491Y-74434000D01*
X184301491Y-74428000D01*
X184296491Y-74422000D01*
X184288491Y-74408000D01*
X184282491Y-74394000D01*
X184279491Y-74386000D01*
X184277491Y-74379000D01*
X184275491Y-74371000D01*
X184274491Y-74363000D01*
X184273491Y-74356000D01*
X184272491Y-74348000D01*
X184272491Y-73715000D01*
X184572491Y-73715000D01*
X184572491Y-74348000D01*
G37*
X184572491Y-74348000D02*
X184571491Y-74356000D01*
X184570491Y-74363000D01*
X184569491Y-74371000D01*
X184567491Y-74379000D01*
X184565491Y-74386000D01*
X184562491Y-74394000D01*
X184556491Y-74408000D01*
X184548491Y-74422000D01*
X184543491Y-74428000D01*
X184539491Y-74434000D01*
X184533491Y-74440000D01*
X184528491Y-74446000D01*
X184522491Y-74451000D01*
X184516491Y-74457000D01*
X184510491Y-74461000D01*
X184504491Y-74466000D01*
X184490491Y-74474000D01*
X184476491Y-74480000D01*
X184468491Y-74483000D01*
X184461491Y-74485000D01*
X184453491Y-74487000D01*
X184445491Y-74488000D01*
X184438491Y-74489000D01*
X184430491Y-74490000D01*
X184414491Y-74490000D01*
X184406491Y-74489000D01*
X184399491Y-74488000D01*
X184391491Y-74487000D01*
X184383491Y-74485000D01*
X184376491Y-74483000D01*
X184368491Y-74480000D01*
X184354491Y-74474000D01*
X184340491Y-74466000D01*
X184334491Y-74461000D01*
X184328491Y-74457000D01*
X184322491Y-74451000D01*
X184316491Y-74446000D01*
X184311491Y-74440000D01*
X184305491Y-74434000D01*
X184301491Y-74428000D01*
X184296491Y-74422000D01*
X184288491Y-74408000D01*
X184282491Y-74394000D01*
X184279491Y-74386000D01*
X184277491Y-74379000D01*
X184275491Y-74371000D01*
X184274491Y-74363000D01*
X184273491Y-74356000D01*
X184272491Y-74348000D01*
X184272491Y-73715000D01*
X184572491Y-73715000D01*
X184572491Y-74348000D01*
X184172491Y-73715000D02*
X184172491Y-74340000D01*
X184172491Y-74340000D02*
X184172491Y-74348000D01*
X184172491Y-74348000D02*
X184171491Y-74356000D01*
X184171491Y-74356000D02*
X184170491Y-74363000D01*
X184170491Y-74363000D02*
X184169491Y-74371000D01*
X184169491Y-74371000D02*
X184167491Y-74379000D01*
X184167491Y-74379000D02*
X184165491Y-74386000D01*
X184165491Y-74386000D02*
X184162491Y-74394000D01*
X184162491Y-74394000D02*
X184159491Y-74401000D01*
X184159491Y-74401000D02*
X184156491Y-74408000D01*
X184156491Y-74408000D02*
X184152491Y-74415000D01*
X184152491Y-74415000D02*
X184148491Y-74422000D01*
X184148491Y-74422000D02*
X184143491Y-74428000D01*
X184143491Y-74428000D02*
X184139491Y-74434000D01*
X184139491Y-74434000D02*
X184133491Y-74440000D01*
X184133491Y-74440000D02*
X184128491Y-74446000D01*
X184128491Y-74446000D02*
X184122491Y-74451000D01*
X184122491Y-74451000D02*
X184116491Y-74457000D01*
X184116491Y-74457000D02*
X184110491Y-74461000D01*
X184110491Y-74461000D02*
X184104491Y-74466000D01*
X184104491Y-74466000D02*
X184097491Y-74470000D01*
X184097491Y-74470000D02*
X184090491Y-74474000D01*
X184090491Y-74474000D02*
X184083491Y-74477000D01*
X184083491Y-74477000D02*
X184076491Y-74480000D01*
X184076491Y-74480000D02*
X184068491Y-74483000D01*
X184068491Y-74483000D02*
X184061491Y-74485000D01*
X184061491Y-74485000D02*
X184053491Y-74487000D01*
X184053491Y-74487000D02*
X184045491Y-74488000D01*
X184045491Y-74488000D02*
X184038491Y-74489000D01*
X184038491Y-74489000D02*
X184030491Y-74490000D01*
X184030491Y-74490000D02*
X184022491Y-74490000D01*
X184022491Y-74490000D02*
X184014491Y-74490000D01*
X184014491Y-74490000D02*
X184006491Y-74489000D01*
X184006491Y-74489000D02*
X183999491Y-74488000D01*
X183999491Y-74488000D02*
X183991491Y-74487000D01*
X183991491Y-74487000D02*
X183983491Y-74485000D01*
X183983491Y-74485000D02*
X183976491Y-74483000D01*
X183976491Y-74483000D02*
X183968491Y-74480000D01*
X183968491Y-74480000D02*
X183961491Y-74477000D01*
X183961491Y-74477000D02*
X183954491Y-74474000D01*
X183954491Y-74474000D02*
X183947491Y-74470000D01*
X183947491Y-74470000D02*
X183940491Y-74466000D01*
X183940491Y-74466000D02*
X183934491Y-74461000D01*
X183934491Y-74461000D02*
X183928491Y-74457000D01*
X183928491Y-74457000D02*
X183922491Y-74451000D01*
X183922491Y-74451000D02*
X183916491Y-74446000D01*
X183916491Y-74446000D02*
X183911491Y-74440000D01*
X183911491Y-74440000D02*
X183905491Y-74434000D01*
X183905491Y-74434000D02*
X183901491Y-74428000D01*
X183901491Y-74428000D02*
X183896491Y-74422000D01*
X183896491Y-74422000D02*
X183892491Y-74415000D01*
X183892491Y-74415000D02*
X183888491Y-74408000D01*
X183888491Y-74408000D02*
X183885491Y-74401000D01*
X183885491Y-74401000D02*
X183882491Y-74394000D01*
X183882491Y-74394000D02*
X183879491Y-74386000D01*
X183879491Y-74386000D02*
X183877491Y-74379000D01*
X183877491Y-74379000D02*
X183875491Y-74371000D01*
X183875491Y-74371000D02*
X183874491Y-74363000D01*
X183874491Y-74363000D02*
X183873491Y-74356000D01*
X183873491Y-74356000D02*
X183872491Y-74348000D01*
X183872491Y-74348000D02*
X183872491Y-74340000D01*
X183872491Y-74340000D02*
X183872491Y-73715000D01*
X183872491Y-73715000D02*
X184172491Y-73715000D01*
X184172491Y-73715000D02*
X184172491Y-73715000D01*
G36*
X184172491Y-74348000D02*
G01*
X184171491Y-74356000D01*
X184170491Y-74363000D01*
X184169491Y-74371000D01*
X184167491Y-74379000D01*
X184165491Y-74386000D01*
X184162491Y-74394000D01*
X184156491Y-74408000D01*
X184148491Y-74422000D01*
X184143491Y-74428000D01*
X184139491Y-74434000D01*
X184133491Y-74440000D01*
X184128491Y-74446000D01*
X184122491Y-74451000D01*
X184116491Y-74457000D01*
X184110491Y-74461000D01*
X184104491Y-74466000D01*
X184090491Y-74474000D01*
X184076491Y-74480000D01*
X184068491Y-74483000D01*
X184061491Y-74485000D01*
X184053491Y-74487000D01*
X184045491Y-74488000D01*
X184038491Y-74489000D01*
X184030491Y-74490000D01*
X184014491Y-74490000D01*
X184006491Y-74489000D01*
X183999491Y-74488000D01*
X183991491Y-74487000D01*
X183983491Y-74485000D01*
X183976491Y-74483000D01*
X183968491Y-74480000D01*
X183954491Y-74474000D01*
X183940491Y-74466000D01*
X183934491Y-74461000D01*
X183928491Y-74457000D01*
X183922491Y-74451000D01*
X183916491Y-74446000D01*
X183911491Y-74440000D01*
X183905491Y-74434000D01*
X183901491Y-74428000D01*
X183896491Y-74422000D01*
X183888491Y-74408000D01*
X183882491Y-74394000D01*
X183879491Y-74386000D01*
X183877491Y-74379000D01*
X183875491Y-74371000D01*
X183874491Y-74363000D01*
X183873491Y-74356000D01*
X183872491Y-74348000D01*
X183872491Y-73715000D01*
X184172491Y-73715000D01*
X184172491Y-74348000D01*
G37*
X184172491Y-74348000D02*
X184171491Y-74356000D01*
X184170491Y-74363000D01*
X184169491Y-74371000D01*
X184167491Y-74379000D01*
X184165491Y-74386000D01*
X184162491Y-74394000D01*
X184156491Y-74408000D01*
X184148491Y-74422000D01*
X184143491Y-74428000D01*
X184139491Y-74434000D01*
X184133491Y-74440000D01*
X184128491Y-74446000D01*
X184122491Y-74451000D01*
X184116491Y-74457000D01*
X184110491Y-74461000D01*
X184104491Y-74466000D01*
X184090491Y-74474000D01*
X184076491Y-74480000D01*
X184068491Y-74483000D01*
X184061491Y-74485000D01*
X184053491Y-74487000D01*
X184045491Y-74488000D01*
X184038491Y-74489000D01*
X184030491Y-74490000D01*
X184014491Y-74490000D01*
X184006491Y-74489000D01*
X183999491Y-74488000D01*
X183991491Y-74487000D01*
X183983491Y-74485000D01*
X183976491Y-74483000D01*
X183968491Y-74480000D01*
X183954491Y-74474000D01*
X183940491Y-74466000D01*
X183934491Y-74461000D01*
X183928491Y-74457000D01*
X183922491Y-74451000D01*
X183916491Y-74446000D01*
X183911491Y-74440000D01*
X183905491Y-74434000D01*
X183901491Y-74428000D01*
X183896491Y-74422000D01*
X183888491Y-74408000D01*
X183882491Y-74394000D01*
X183879491Y-74386000D01*
X183877491Y-74379000D01*
X183875491Y-74371000D01*
X183874491Y-74363000D01*
X183873491Y-74356000D01*
X183872491Y-74348000D01*
X183872491Y-73715000D01*
X184172491Y-73715000D01*
X184172491Y-74348000D01*
X183772491Y-73715000D02*
X183772491Y-74440000D01*
X183772491Y-74440000D02*
X183609491Y-74440000D01*
X183609491Y-74440000D02*
X183472491Y-74303000D01*
X183472491Y-74303000D02*
X183472491Y-73715000D01*
X183472491Y-73715000D02*
X183772491Y-73715000D01*
G36*
X183772491Y-74440000D02*
G01*
X183609491Y-74440000D01*
X183472491Y-74303000D01*
X183472491Y-73715000D01*
X183772491Y-73715000D01*
X183772491Y-74440000D01*
G37*
X183772491Y-74440000D02*
X183609491Y-74440000D01*
X183472491Y-74303000D01*
X183472491Y-73715000D01*
X183772491Y-73715000D01*
X183772491Y-74440000D01*
X183472491Y-77415000D02*
X183472491Y-76852000D01*
X183472491Y-76852000D02*
X183659491Y-76665000D01*
X183659491Y-76665000D02*
X183822491Y-76665000D01*
X183822491Y-76665000D02*
X183822491Y-75890000D01*
X183822491Y-75890000D02*
X183822491Y-75882000D01*
X183822491Y-75882000D02*
X183823491Y-75874000D01*
X183823491Y-75874000D02*
X183824491Y-75867000D01*
X183824491Y-75867000D02*
X183825491Y-75859000D01*
X183825491Y-75859000D02*
X183827491Y-75851000D01*
X183827491Y-75851000D02*
X183829491Y-75844000D01*
X183829491Y-75844000D02*
X183832491Y-75836000D01*
X183832491Y-75836000D02*
X183835491Y-75829000D01*
X183835491Y-75829000D02*
X183838491Y-75822000D01*
X183838491Y-75822000D02*
X183842491Y-75815000D01*
X183842491Y-75815000D02*
X183846491Y-75808000D01*
X183846491Y-75808000D02*
X183851491Y-75802000D01*
X183851491Y-75802000D02*
X183855491Y-75796000D01*
X183855491Y-75796000D02*
X183861491Y-75790000D01*
X183861491Y-75790000D02*
X183866491Y-75784000D01*
X183866491Y-75784000D02*
X183872491Y-75779000D01*
X183872491Y-75779000D02*
X183878491Y-75773000D01*
X183878491Y-75773000D02*
X183884491Y-75769000D01*
X183884491Y-75769000D02*
X183890491Y-75764000D01*
X183890491Y-75764000D02*
X183897491Y-75760000D01*
X183897491Y-75760000D02*
X183904491Y-75756000D01*
X183904491Y-75756000D02*
X183911491Y-75753000D01*
X183911491Y-75753000D02*
X183918491Y-75750000D01*
X183918491Y-75750000D02*
X183926491Y-75747000D01*
X183926491Y-75747000D02*
X183933491Y-75745000D01*
X183933491Y-75745000D02*
X183941491Y-75743000D01*
X183941491Y-75743000D02*
X183949491Y-75742000D01*
X183949491Y-75742000D02*
X183956491Y-75741000D01*
X183956491Y-75741000D02*
X183964491Y-75740000D01*
X183964491Y-75740000D02*
X183972491Y-75740000D01*
X183972491Y-75740000D02*
X184022491Y-75740000D01*
X184022491Y-75740000D02*
X184030491Y-75740000D01*
X184030491Y-75740000D02*
X184038491Y-75741000D01*
X184038491Y-75741000D02*
X184045491Y-75742000D01*
X184045491Y-75742000D02*
X184053491Y-75743000D01*
X184053491Y-75743000D02*
X184061491Y-75745000D01*
X184061491Y-75745000D02*
X184068491Y-75747000D01*
X184068491Y-75747000D02*
X184076491Y-75750000D01*
X184076491Y-75750000D02*
X184083491Y-75753000D01*
X184083491Y-75753000D02*
X184090491Y-75756000D01*
X184090491Y-75756000D02*
X184097491Y-75760000D01*
X184097491Y-75760000D02*
X184104491Y-75764000D01*
X184104491Y-75764000D02*
X184110491Y-75769000D01*
X184110491Y-75769000D02*
X184116491Y-75773000D01*
X184116491Y-75773000D02*
X184122491Y-75779000D01*
X184122491Y-75779000D02*
X184128491Y-75784000D01*
X184128491Y-75784000D02*
X184133491Y-75790000D01*
X184133491Y-75790000D02*
X184139491Y-75796000D01*
X184139491Y-75796000D02*
X184143491Y-75802000D01*
X184143491Y-75802000D02*
X184148491Y-75808000D01*
X184148491Y-75808000D02*
X184152491Y-75815000D01*
X184152491Y-75815000D02*
X184156491Y-75822000D01*
X184156491Y-75822000D02*
X184159491Y-75829000D01*
X184159491Y-75829000D02*
X184162491Y-75836000D01*
X184162491Y-75836000D02*
X184165491Y-75844000D01*
X184165491Y-75844000D02*
X184167491Y-75851000D01*
X184167491Y-75851000D02*
X184169491Y-75859000D01*
X184169491Y-75859000D02*
X184170491Y-75867000D01*
X184170491Y-75867000D02*
X184171491Y-75874000D01*
X184171491Y-75874000D02*
X184172491Y-75882000D01*
X184172491Y-75882000D02*
X184172491Y-75890000D01*
X184172491Y-75890000D02*
X184172491Y-77415000D01*
X184172491Y-77415000D02*
X183472491Y-77415000D01*
X183472491Y-77415000D02*
X183472491Y-77415000D01*
G36*
X184038491Y-75741000D02*
G01*
X184045491Y-75742000D01*
X184053491Y-75743000D01*
X184061491Y-75745000D01*
X184068491Y-75747000D01*
X184076491Y-75750000D01*
X184090491Y-75756000D01*
X184104491Y-75764000D01*
X184110491Y-75769000D01*
X184116491Y-75773000D01*
X184122491Y-75779000D01*
X184128491Y-75784000D01*
X184133491Y-75790000D01*
X184139491Y-75796000D01*
X184143491Y-75802000D01*
X184148491Y-75808000D01*
X184156491Y-75822000D01*
X184162491Y-75836000D01*
X184165491Y-75844000D01*
X184167491Y-75851000D01*
X184169491Y-75859000D01*
X184170491Y-75867000D01*
X184171491Y-75874000D01*
X184172491Y-75882000D01*
X184172491Y-77415000D01*
X183472491Y-77415000D01*
X183472491Y-76852000D01*
X183659491Y-76665000D01*
X183822491Y-76665000D01*
X183822491Y-75882000D01*
X183823491Y-75874000D01*
X183824491Y-75867000D01*
X183825491Y-75859000D01*
X183827491Y-75851000D01*
X183829491Y-75844000D01*
X183832491Y-75836000D01*
X183838491Y-75822000D01*
X183846491Y-75808000D01*
X183851491Y-75802000D01*
X183855491Y-75796000D01*
X183861491Y-75790000D01*
X183866491Y-75784000D01*
X183872491Y-75779000D01*
X183878491Y-75773000D01*
X183884491Y-75769000D01*
X183890491Y-75764000D01*
X183904491Y-75756000D01*
X183918491Y-75750000D01*
X183926491Y-75747000D01*
X183933491Y-75745000D01*
X183941491Y-75743000D01*
X183949491Y-75742000D01*
X183956491Y-75741000D01*
X183964491Y-75740000D01*
X184030491Y-75740000D01*
X184038491Y-75741000D01*
G37*
X184038491Y-75741000D02*
X184045491Y-75742000D01*
X184053491Y-75743000D01*
X184061491Y-75745000D01*
X184068491Y-75747000D01*
X184076491Y-75750000D01*
X184090491Y-75756000D01*
X184104491Y-75764000D01*
X184110491Y-75769000D01*
X184116491Y-75773000D01*
X184122491Y-75779000D01*
X184128491Y-75784000D01*
X184133491Y-75790000D01*
X184139491Y-75796000D01*
X184143491Y-75802000D01*
X184148491Y-75808000D01*
X184156491Y-75822000D01*
X184162491Y-75836000D01*
X184165491Y-75844000D01*
X184167491Y-75851000D01*
X184169491Y-75859000D01*
X184170491Y-75867000D01*
X184171491Y-75874000D01*
X184172491Y-75882000D01*
X184172491Y-77415000D01*
X183472491Y-77415000D01*
X183472491Y-76852000D01*
X183659491Y-76665000D01*
X183822491Y-76665000D01*
X183822491Y-75882000D01*
X183823491Y-75874000D01*
X183824491Y-75867000D01*
X183825491Y-75859000D01*
X183827491Y-75851000D01*
X183829491Y-75844000D01*
X183832491Y-75836000D01*
X183838491Y-75822000D01*
X183846491Y-75808000D01*
X183851491Y-75802000D01*
X183855491Y-75796000D01*
X183861491Y-75790000D01*
X183866491Y-75784000D01*
X183872491Y-75779000D01*
X183878491Y-75773000D01*
X183884491Y-75769000D01*
X183890491Y-75764000D01*
X183904491Y-75756000D01*
X183918491Y-75750000D01*
X183926491Y-75747000D01*
X183933491Y-75745000D01*
X183941491Y-75743000D01*
X183949491Y-75742000D01*
X183956491Y-75741000D01*
X183964491Y-75740000D01*
X184030491Y-75740000D01*
X184038491Y-75741000D01*
X182772491Y-74815000D02*
X183397491Y-74815000D01*
X183397491Y-74815000D02*
X183405491Y-74815000D01*
X183405491Y-74815000D02*
X183413491Y-74816000D01*
X183413491Y-74816000D02*
X183420491Y-74817000D01*
X183420491Y-74817000D02*
X183428491Y-74818000D01*
X183428491Y-74818000D02*
X183436491Y-74820000D01*
X183436491Y-74820000D02*
X183443491Y-74822000D01*
X183443491Y-74822000D02*
X183451491Y-74825000D01*
X183451491Y-74825000D02*
X183458491Y-74828000D01*
X183458491Y-74828000D02*
X183465491Y-74831000D01*
X183465491Y-74831000D02*
X183472491Y-74835000D01*
X183472491Y-74835000D02*
X183479491Y-74839000D01*
X183479491Y-74839000D02*
X183485491Y-74844000D01*
X183485491Y-74844000D02*
X183491491Y-74848000D01*
X183491491Y-74848000D02*
X183497491Y-74854000D01*
X183497491Y-74854000D02*
X183503491Y-74859000D01*
X183503491Y-74859000D02*
X183508491Y-74865000D01*
X183508491Y-74865000D02*
X183514491Y-74871000D01*
X183514491Y-74871000D02*
X183518491Y-74877000D01*
X183518491Y-74877000D02*
X183523491Y-74883000D01*
X183523491Y-74883000D02*
X183527491Y-74890000D01*
X183527491Y-74890000D02*
X183531491Y-74897000D01*
X183531491Y-74897000D02*
X183534491Y-74904000D01*
X183534491Y-74904000D02*
X183537491Y-74911000D01*
X183537491Y-74911000D02*
X183540491Y-74919000D01*
X183540491Y-74919000D02*
X183542491Y-74926000D01*
X183542491Y-74926000D02*
X183544491Y-74934000D01*
X183544491Y-74934000D02*
X183545491Y-74942000D01*
X183545491Y-74942000D02*
X183546491Y-74949000D01*
X183546491Y-74949000D02*
X183547491Y-74957000D01*
X183547491Y-74957000D02*
X183547491Y-74965000D01*
X183547491Y-74965000D02*
X183547491Y-74973000D01*
X183547491Y-74973000D02*
X183546491Y-74981000D01*
X183546491Y-74981000D02*
X183545491Y-74988000D01*
X183545491Y-74988000D02*
X183544491Y-74996000D01*
X183544491Y-74996000D02*
X183542491Y-75004000D01*
X183542491Y-75004000D02*
X183540491Y-75011000D01*
X183540491Y-75011000D02*
X183537491Y-75019000D01*
X183537491Y-75019000D02*
X183534491Y-75026000D01*
X183534491Y-75026000D02*
X183531491Y-75033000D01*
X183531491Y-75033000D02*
X183527491Y-75040000D01*
X183527491Y-75040000D02*
X183523491Y-75047000D01*
X183523491Y-75047000D02*
X183518491Y-75053000D01*
X183518491Y-75053000D02*
X183514491Y-75059000D01*
X183514491Y-75059000D02*
X183508491Y-75065000D01*
X183508491Y-75065000D02*
X183503491Y-75071000D01*
X183503491Y-75071000D02*
X183497491Y-75076000D01*
X183497491Y-75076000D02*
X183491491Y-75082000D01*
X183491491Y-75082000D02*
X183485491Y-75086000D01*
X183485491Y-75086000D02*
X183479491Y-75091000D01*
X183479491Y-75091000D02*
X183472491Y-75095000D01*
X183472491Y-75095000D02*
X183465491Y-75099000D01*
X183465491Y-75099000D02*
X183458491Y-75102000D01*
X183458491Y-75102000D02*
X183451491Y-75105000D01*
X183451491Y-75105000D02*
X183443491Y-75108000D01*
X183443491Y-75108000D02*
X183436491Y-75110000D01*
X183436491Y-75110000D02*
X183428491Y-75112000D01*
X183428491Y-75112000D02*
X183420491Y-75113000D01*
X183420491Y-75113000D02*
X183413491Y-75114000D01*
X183413491Y-75114000D02*
X183405491Y-75115000D01*
X183405491Y-75115000D02*
X183397491Y-75115000D01*
X183397491Y-75115000D02*
X182772491Y-75115000D01*
X182772491Y-75115000D02*
X182772491Y-74815000D01*
X182772491Y-74815000D02*
X182772491Y-74815000D01*
G36*
X183413491Y-74816000D02*
G01*
X183420491Y-74817000D01*
X183428491Y-74818000D01*
X183436491Y-74820000D01*
X183443491Y-74822000D01*
X183451491Y-74825000D01*
X183465491Y-74831000D01*
X183479491Y-74839000D01*
X183485491Y-74844000D01*
X183491491Y-74848000D01*
X183497491Y-74854000D01*
X183503491Y-74859000D01*
X183508491Y-74865000D01*
X183514491Y-74871000D01*
X183518491Y-74877000D01*
X183523491Y-74883000D01*
X183531491Y-74897000D01*
X183537491Y-74911000D01*
X183540491Y-74919000D01*
X183542491Y-74926000D01*
X183544491Y-74934000D01*
X183545491Y-74942000D01*
X183546491Y-74949000D01*
X183547491Y-74957000D01*
X183547491Y-74973000D01*
X183546491Y-74981000D01*
X183545491Y-74988000D01*
X183544491Y-74996000D01*
X183542491Y-75004000D01*
X183540491Y-75011000D01*
X183537491Y-75019000D01*
X183531491Y-75033000D01*
X183523491Y-75047000D01*
X183518491Y-75053000D01*
X183514491Y-75059000D01*
X183508491Y-75065000D01*
X183503491Y-75071000D01*
X183497491Y-75076000D01*
X183491491Y-75082000D01*
X183485491Y-75086000D01*
X183479491Y-75091000D01*
X183465491Y-75099000D01*
X183451491Y-75105000D01*
X183443491Y-75108000D01*
X183436491Y-75110000D01*
X183428491Y-75112000D01*
X183420491Y-75113000D01*
X183413491Y-75114000D01*
X183405491Y-75115000D01*
X182772491Y-75115000D01*
X182772491Y-74815000D01*
X183405491Y-74815000D01*
X183413491Y-74816000D01*
G37*
X183413491Y-74816000D02*
X183420491Y-74817000D01*
X183428491Y-74818000D01*
X183436491Y-74820000D01*
X183443491Y-74822000D01*
X183451491Y-74825000D01*
X183465491Y-74831000D01*
X183479491Y-74839000D01*
X183485491Y-74844000D01*
X183491491Y-74848000D01*
X183497491Y-74854000D01*
X183503491Y-74859000D01*
X183508491Y-74865000D01*
X183514491Y-74871000D01*
X183518491Y-74877000D01*
X183523491Y-74883000D01*
X183531491Y-74897000D01*
X183537491Y-74911000D01*
X183540491Y-74919000D01*
X183542491Y-74926000D01*
X183544491Y-74934000D01*
X183545491Y-74942000D01*
X183546491Y-74949000D01*
X183547491Y-74957000D01*
X183547491Y-74973000D01*
X183546491Y-74981000D01*
X183545491Y-74988000D01*
X183544491Y-74996000D01*
X183542491Y-75004000D01*
X183540491Y-75011000D01*
X183537491Y-75019000D01*
X183531491Y-75033000D01*
X183523491Y-75047000D01*
X183518491Y-75053000D01*
X183514491Y-75059000D01*
X183508491Y-75065000D01*
X183503491Y-75071000D01*
X183497491Y-75076000D01*
X183491491Y-75082000D01*
X183485491Y-75086000D01*
X183479491Y-75091000D01*
X183465491Y-75099000D01*
X183451491Y-75105000D01*
X183443491Y-75108000D01*
X183436491Y-75110000D01*
X183428491Y-75112000D01*
X183420491Y-75113000D01*
X183413491Y-75114000D01*
X183405491Y-75115000D01*
X182772491Y-75115000D01*
X182772491Y-74815000D01*
X183405491Y-74815000D01*
X183413491Y-74816000D01*
X182772491Y-76415000D02*
X183497491Y-76415000D01*
X183497491Y-76415000D02*
X183497491Y-76578000D01*
X183497491Y-76578000D02*
X183360491Y-76715000D01*
X183360491Y-76715000D02*
X182772491Y-76715000D01*
X182772491Y-76715000D02*
X182772491Y-76415000D01*
G36*
X183497491Y-76578000D02*
G01*
X183360491Y-76715000D01*
X182772491Y-76715000D01*
X182772491Y-76415000D01*
X183497491Y-76415000D01*
X183497491Y-76578000D01*
G37*
X183497491Y-76578000D02*
X183360491Y-76715000D01*
X182772491Y-76715000D01*
X182772491Y-76415000D01*
X183497491Y-76415000D01*
X183497491Y-76578000D01*
X184272491Y-77415000D02*
X184272491Y-75890000D01*
X184272491Y-75890000D02*
X184272491Y-75882000D01*
X184272491Y-75882000D02*
X184273491Y-75874000D01*
X184273491Y-75874000D02*
X184274491Y-75867000D01*
X184274491Y-75867000D02*
X184275491Y-75859000D01*
X184275491Y-75859000D02*
X184277491Y-75851000D01*
X184277491Y-75851000D02*
X184279491Y-75844000D01*
X184279491Y-75844000D02*
X184282491Y-75836000D01*
X184282491Y-75836000D02*
X184285491Y-75829000D01*
X184285491Y-75829000D02*
X184288491Y-75822000D01*
X184288491Y-75822000D02*
X184292491Y-75815000D01*
X184292491Y-75815000D02*
X184296491Y-75808000D01*
X184296491Y-75808000D02*
X184301491Y-75802000D01*
X184301491Y-75802000D02*
X184305491Y-75796000D01*
X184305491Y-75796000D02*
X184311491Y-75790000D01*
X184311491Y-75790000D02*
X184316491Y-75784000D01*
X184316491Y-75784000D02*
X184322491Y-75779000D01*
X184322491Y-75779000D02*
X184328491Y-75773000D01*
X184328491Y-75773000D02*
X184334491Y-75769000D01*
X184334491Y-75769000D02*
X184340491Y-75764000D01*
X184340491Y-75764000D02*
X184347491Y-75760000D01*
X184347491Y-75760000D02*
X184354491Y-75756000D01*
X184354491Y-75756000D02*
X184361491Y-75753000D01*
X184361491Y-75753000D02*
X184368491Y-75750000D01*
X184368491Y-75750000D02*
X184376491Y-75747000D01*
X184376491Y-75747000D02*
X184383491Y-75745000D01*
X184383491Y-75745000D02*
X184391491Y-75743000D01*
X184391491Y-75743000D02*
X184399491Y-75742000D01*
X184399491Y-75742000D02*
X184406491Y-75741000D01*
X184406491Y-75741000D02*
X184414491Y-75740000D01*
X184414491Y-75740000D02*
X184422491Y-75740000D01*
X184422491Y-75740000D02*
X184472491Y-75740000D01*
X184472491Y-75740000D02*
X184480491Y-75740000D01*
X184480491Y-75740000D02*
X184488491Y-75741000D01*
X184488491Y-75741000D02*
X184495491Y-75742000D01*
X184495491Y-75742000D02*
X184503491Y-75743000D01*
X184503491Y-75743000D02*
X184511491Y-75745000D01*
X184511491Y-75745000D02*
X184518491Y-75747000D01*
X184518491Y-75747000D02*
X184526491Y-75750000D01*
X184526491Y-75750000D02*
X184533491Y-75753000D01*
X184533491Y-75753000D02*
X184540491Y-75756000D01*
X184540491Y-75756000D02*
X184547491Y-75760000D01*
X184547491Y-75760000D02*
X184554491Y-75764000D01*
X184554491Y-75764000D02*
X184560491Y-75769000D01*
X184560491Y-75769000D02*
X184566491Y-75773000D01*
X184566491Y-75773000D02*
X184572491Y-75779000D01*
X184572491Y-75779000D02*
X184578491Y-75784000D01*
X184578491Y-75784000D02*
X184583491Y-75790000D01*
X184583491Y-75790000D02*
X184589491Y-75796000D01*
X184589491Y-75796000D02*
X184593491Y-75802000D01*
X184593491Y-75802000D02*
X184598491Y-75808000D01*
X184598491Y-75808000D02*
X184602491Y-75815000D01*
X184602491Y-75815000D02*
X184606491Y-75822000D01*
X184606491Y-75822000D02*
X184609491Y-75829000D01*
X184609491Y-75829000D02*
X184612491Y-75836000D01*
X184612491Y-75836000D02*
X184615491Y-75844000D01*
X184615491Y-75844000D02*
X184617491Y-75851000D01*
X184617491Y-75851000D02*
X184619491Y-75859000D01*
X184619491Y-75859000D02*
X184620491Y-75867000D01*
X184620491Y-75867000D02*
X184621491Y-75874000D01*
X184621491Y-75874000D02*
X184622491Y-75882000D01*
X184622491Y-75882000D02*
X184622491Y-75890000D01*
X184622491Y-75890000D02*
X184622491Y-76665000D01*
X184622491Y-76665000D02*
X184822491Y-76665000D01*
X184822491Y-76665000D02*
X184830491Y-76665000D01*
X184830491Y-76665000D02*
X184838491Y-76666000D01*
X184838491Y-76666000D02*
X184845491Y-76667000D01*
X184845491Y-76667000D02*
X184853491Y-76668000D01*
X184853491Y-76668000D02*
X184861491Y-76670000D01*
X184861491Y-76670000D02*
X184868491Y-76672000D01*
X184868491Y-76672000D02*
X184876491Y-76675000D01*
X184876491Y-76675000D02*
X184883491Y-76678000D01*
X184883491Y-76678000D02*
X184890491Y-76681000D01*
X184890491Y-76681000D02*
X184897491Y-76685000D01*
X184897491Y-76685000D02*
X184904491Y-76689000D01*
X184904491Y-76689000D02*
X184910491Y-76694000D01*
X184910491Y-76694000D02*
X184916491Y-76698000D01*
X184916491Y-76698000D02*
X184922491Y-76704000D01*
X184922491Y-76704000D02*
X184928491Y-76709000D01*
X184928491Y-76709000D02*
X184933491Y-76715000D01*
X184933491Y-76715000D02*
X184939491Y-76721000D01*
X184939491Y-76721000D02*
X184943491Y-76727000D01*
X184943491Y-76727000D02*
X184948491Y-76733000D01*
X184948491Y-76733000D02*
X184952491Y-76740000D01*
X184952491Y-76740000D02*
X184956491Y-76747000D01*
X184956491Y-76747000D02*
X184959491Y-76754000D01*
X184959491Y-76754000D02*
X184962491Y-76761000D01*
X184962491Y-76761000D02*
X184965491Y-76769000D01*
X184965491Y-76769000D02*
X184967491Y-76776000D01*
X184967491Y-76776000D02*
X184969491Y-76784000D01*
X184969491Y-76784000D02*
X184970491Y-76792000D01*
X184970491Y-76792000D02*
X184971491Y-76799000D01*
X184971491Y-76799000D02*
X184972491Y-76807000D01*
X184972491Y-76807000D02*
X184972491Y-76815000D01*
X184972491Y-76815000D02*
X184972491Y-77415000D01*
X184972491Y-77415000D02*
X184272491Y-77415000D01*
X184272491Y-77415000D02*
X184272491Y-77415000D01*
G36*
X184488491Y-75741000D02*
G01*
X184495491Y-75742000D01*
X184503491Y-75743000D01*
X184511491Y-75745000D01*
X184518491Y-75747000D01*
X184526491Y-75750000D01*
X184540491Y-75756000D01*
X184554491Y-75764000D01*
X184560491Y-75769000D01*
X184566491Y-75773000D01*
X184572491Y-75779000D01*
X184578491Y-75784000D01*
X184583491Y-75790000D01*
X184589491Y-75796000D01*
X184593491Y-75802000D01*
X184598491Y-75808000D01*
X184606491Y-75822000D01*
X184612491Y-75836000D01*
X184615491Y-75844000D01*
X184617491Y-75851000D01*
X184619491Y-75859000D01*
X184620491Y-75867000D01*
X184621491Y-75874000D01*
X184622491Y-75882000D01*
X184622491Y-76665000D01*
X184830491Y-76665000D01*
X184838491Y-76666000D01*
X184845491Y-76667000D01*
X184853491Y-76668000D01*
X184861491Y-76670000D01*
X184868491Y-76672000D01*
X184876491Y-76675000D01*
X184890491Y-76681000D01*
X184904491Y-76689000D01*
X184910491Y-76694000D01*
X184916491Y-76698000D01*
X184922491Y-76704000D01*
X184928491Y-76709000D01*
X184933491Y-76715000D01*
X184939491Y-76721000D01*
X184943491Y-76727000D01*
X184948491Y-76733000D01*
X184956491Y-76747000D01*
X184962491Y-76761000D01*
X184965491Y-76769000D01*
X184967491Y-76776000D01*
X184969491Y-76784000D01*
X184970491Y-76792000D01*
X184971491Y-76799000D01*
X184972491Y-76807000D01*
X184972491Y-77415000D01*
X184272491Y-77415000D01*
X184272491Y-75882000D01*
X184273491Y-75874000D01*
X184274491Y-75867000D01*
X184275491Y-75859000D01*
X184277491Y-75851000D01*
X184279491Y-75844000D01*
X184282491Y-75836000D01*
X184288491Y-75822000D01*
X184296491Y-75808000D01*
X184301491Y-75802000D01*
X184305491Y-75796000D01*
X184311491Y-75790000D01*
X184316491Y-75784000D01*
X184322491Y-75779000D01*
X184328491Y-75773000D01*
X184334491Y-75769000D01*
X184340491Y-75764000D01*
X184354491Y-75756000D01*
X184368491Y-75750000D01*
X184376491Y-75747000D01*
X184383491Y-75745000D01*
X184391491Y-75743000D01*
X184399491Y-75742000D01*
X184406491Y-75741000D01*
X184414491Y-75740000D01*
X184480491Y-75740000D01*
X184488491Y-75741000D01*
G37*
X184488491Y-75741000D02*
X184495491Y-75742000D01*
X184503491Y-75743000D01*
X184511491Y-75745000D01*
X184518491Y-75747000D01*
X184526491Y-75750000D01*
X184540491Y-75756000D01*
X184554491Y-75764000D01*
X184560491Y-75769000D01*
X184566491Y-75773000D01*
X184572491Y-75779000D01*
X184578491Y-75784000D01*
X184583491Y-75790000D01*
X184589491Y-75796000D01*
X184593491Y-75802000D01*
X184598491Y-75808000D01*
X184606491Y-75822000D01*
X184612491Y-75836000D01*
X184615491Y-75844000D01*
X184617491Y-75851000D01*
X184619491Y-75859000D01*
X184620491Y-75867000D01*
X184621491Y-75874000D01*
X184622491Y-75882000D01*
X184622491Y-76665000D01*
X184830491Y-76665000D01*
X184838491Y-76666000D01*
X184845491Y-76667000D01*
X184853491Y-76668000D01*
X184861491Y-76670000D01*
X184868491Y-76672000D01*
X184876491Y-76675000D01*
X184890491Y-76681000D01*
X184904491Y-76689000D01*
X184910491Y-76694000D01*
X184916491Y-76698000D01*
X184922491Y-76704000D01*
X184928491Y-76709000D01*
X184933491Y-76715000D01*
X184939491Y-76721000D01*
X184943491Y-76727000D01*
X184948491Y-76733000D01*
X184956491Y-76747000D01*
X184962491Y-76761000D01*
X184965491Y-76769000D01*
X184967491Y-76776000D01*
X184969491Y-76784000D01*
X184970491Y-76792000D01*
X184971491Y-76799000D01*
X184972491Y-76807000D01*
X184972491Y-77415000D01*
X184272491Y-77415000D01*
X184272491Y-75882000D01*
X184273491Y-75874000D01*
X184274491Y-75867000D01*
X184275491Y-75859000D01*
X184277491Y-75851000D01*
X184279491Y-75844000D01*
X184282491Y-75836000D01*
X184288491Y-75822000D01*
X184296491Y-75808000D01*
X184301491Y-75802000D01*
X184305491Y-75796000D01*
X184311491Y-75790000D01*
X184316491Y-75784000D01*
X184322491Y-75779000D01*
X184328491Y-75773000D01*
X184334491Y-75769000D01*
X184340491Y-75764000D01*
X184354491Y-75756000D01*
X184368491Y-75750000D01*
X184376491Y-75747000D01*
X184383491Y-75745000D01*
X184391491Y-75743000D01*
X184399491Y-75742000D01*
X184406491Y-75741000D01*
X184414491Y-75740000D01*
X184480491Y-75740000D01*
X184488491Y-75741000D01*
X186472491Y-75115000D02*
X185447491Y-75115000D01*
X185447491Y-75115000D02*
X185439491Y-75115000D01*
X185439491Y-75115000D02*
X185431491Y-75114000D01*
X185431491Y-75114000D02*
X185424491Y-75113000D01*
X185424491Y-75113000D02*
X185416491Y-75112000D01*
X185416491Y-75112000D02*
X185408491Y-75110000D01*
X185408491Y-75110000D02*
X185401491Y-75108000D01*
X185401491Y-75108000D02*
X185393491Y-75105000D01*
X185393491Y-75105000D02*
X185386491Y-75102000D01*
X185386491Y-75102000D02*
X185379491Y-75099000D01*
X185379491Y-75099000D02*
X185372491Y-75095000D01*
X185372491Y-75095000D02*
X185365491Y-75091000D01*
X185365491Y-75091000D02*
X185359491Y-75086000D01*
X185359491Y-75086000D02*
X185353491Y-75082000D01*
X185353491Y-75082000D02*
X185347491Y-75076000D01*
X185347491Y-75076000D02*
X185341491Y-75071000D01*
X185341491Y-75071000D02*
X185336491Y-75065000D01*
X185336491Y-75065000D02*
X185330491Y-75059000D01*
X185330491Y-75059000D02*
X185326491Y-75053000D01*
X185326491Y-75053000D02*
X185321491Y-75047000D01*
X185321491Y-75047000D02*
X185317491Y-75040000D01*
X185317491Y-75040000D02*
X185313491Y-75033000D01*
X185313491Y-75033000D02*
X185310491Y-75026000D01*
X185310491Y-75026000D02*
X185307491Y-75019000D01*
X185307491Y-75019000D02*
X185304491Y-75011000D01*
X185304491Y-75011000D02*
X185302491Y-75004000D01*
X185302491Y-75004000D02*
X185300491Y-74996000D01*
X185300491Y-74996000D02*
X185299491Y-74988000D01*
X185299491Y-74988000D02*
X185298491Y-74981000D01*
X185298491Y-74981000D02*
X185297491Y-74973000D01*
X185297491Y-74973000D02*
X185297491Y-74965000D01*
X185297491Y-74965000D02*
X185297491Y-74915000D01*
X185297491Y-74915000D02*
X185297491Y-74907000D01*
X185297491Y-74907000D02*
X185298491Y-74899000D01*
X185298491Y-74899000D02*
X185299491Y-74892000D01*
X185299491Y-74892000D02*
X185300491Y-74884000D01*
X185300491Y-74884000D02*
X185302491Y-74876000D01*
X185302491Y-74876000D02*
X185304491Y-74869000D01*
X185304491Y-74869000D02*
X185307491Y-74861000D01*
X185307491Y-74861000D02*
X185310491Y-74854000D01*
X185310491Y-74854000D02*
X185313491Y-74847000D01*
X185313491Y-74847000D02*
X185317491Y-74840000D01*
X185317491Y-74840000D02*
X185321491Y-74833000D01*
X185321491Y-74833000D02*
X185326491Y-74827000D01*
X185326491Y-74827000D02*
X185330491Y-74821000D01*
X185330491Y-74821000D02*
X185336491Y-74815000D01*
X185336491Y-74815000D02*
X185341491Y-74809000D01*
X185341491Y-74809000D02*
X185347491Y-74804000D01*
X185347491Y-74804000D02*
X185353491Y-74798000D01*
X185353491Y-74798000D02*
X185359491Y-74794000D01*
X185359491Y-74794000D02*
X185365491Y-74789000D01*
X185365491Y-74789000D02*
X185372491Y-74785000D01*
X185372491Y-74785000D02*
X185379491Y-74781000D01*
X185379491Y-74781000D02*
X185386491Y-74778000D01*
X185386491Y-74778000D02*
X185393491Y-74775000D01*
X185393491Y-74775000D02*
X185401491Y-74772000D01*
X185401491Y-74772000D02*
X185408491Y-74770000D01*
X185408491Y-74770000D02*
X185416491Y-74768000D01*
X185416491Y-74768000D02*
X185424491Y-74767000D01*
X185424491Y-74767000D02*
X185431491Y-74766000D01*
X185431491Y-74766000D02*
X185439491Y-74765000D01*
X185439491Y-74765000D02*
X185447491Y-74765000D01*
X185447491Y-74765000D02*
X185772491Y-74765000D01*
X185772491Y-74765000D02*
X185772491Y-74552000D01*
X185772491Y-74552000D02*
X185909491Y-74415000D01*
X185909491Y-74415000D02*
X186472491Y-74415000D01*
X186472491Y-74415000D02*
X186472491Y-75115000D01*
X186472491Y-75115000D02*
X186472491Y-75115000D01*
G36*
X186472491Y-75115000D02*
G01*
X185439491Y-75115000D01*
X185431491Y-75114000D01*
X185424491Y-75113000D01*
X185416491Y-75112000D01*
X185408491Y-75110000D01*
X185401491Y-75108000D01*
X185393491Y-75105000D01*
X185379491Y-75099000D01*
X185365491Y-75091000D01*
X185359491Y-75086000D01*
X185353491Y-75082000D01*
X185347491Y-75076000D01*
X185341491Y-75071000D01*
X185336491Y-75065000D01*
X185330491Y-75059000D01*
X185326491Y-75053000D01*
X185321491Y-75047000D01*
X185313491Y-75033000D01*
X185307491Y-75019000D01*
X185304491Y-75011000D01*
X185302491Y-75004000D01*
X185300491Y-74996000D01*
X185299491Y-74988000D01*
X185298491Y-74981000D01*
X185297491Y-74973000D01*
X185297491Y-74907000D01*
X185298491Y-74899000D01*
X185299491Y-74892000D01*
X185300491Y-74884000D01*
X185302491Y-74876000D01*
X185304491Y-74869000D01*
X185307491Y-74861000D01*
X185313491Y-74847000D01*
X185321491Y-74833000D01*
X185326491Y-74827000D01*
X185330491Y-74821000D01*
X185336491Y-74815000D01*
X185341491Y-74809000D01*
X185347491Y-74804000D01*
X185353491Y-74798000D01*
X185359491Y-74794000D01*
X185365491Y-74789000D01*
X185379491Y-74781000D01*
X185393491Y-74775000D01*
X185401491Y-74772000D01*
X185408491Y-74770000D01*
X185416491Y-74768000D01*
X185424491Y-74767000D01*
X185431491Y-74766000D01*
X185439491Y-74765000D01*
X185772491Y-74765000D01*
X185772491Y-74552000D01*
X185909491Y-74415000D01*
X186472491Y-74415000D01*
X186472491Y-75115000D01*
G37*
X186472491Y-75115000D02*
X185439491Y-75115000D01*
X185431491Y-75114000D01*
X185424491Y-75113000D01*
X185416491Y-75112000D01*
X185408491Y-75110000D01*
X185401491Y-75108000D01*
X185393491Y-75105000D01*
X185379491Y-75099000D01*
X185365491Y-75091000D01*
X185359491Y-75086000D01*
X185353491Y-75082000D01*
X185347491Y-75076000D01*
X185341491Y-75071000D01*
X185336491Y-75065000D01*
X185330491Y-75059000D01*
X185326491Y-75053000D01*
X185321491Y-75047000D01*
X185313491Y-75033000D01*
X185307491Y-75019000D01*
X185304491Y-75011000D01*
X185302491Y-75004000D01*
X185300491Y-74996000D01*
X185299491Y-74988000D01*
X185298491Y-74981000D01*
X185297491Y-74973000D01*
X185297491Y-74907000D01*
X185298491Y-74899000D01*
X185299491Y-74892000D01*
X185300491Y-74884000D01*
X185302491Y-74876000D01*
X185304491Y-74869000D01*
X185307491Y-74861000D01*
X185313491Y-74847000D01*
X185321491Y-74833000D01*
X185326491Y-74827000D01*
X185330491Y-74821000D01*
X185336491Y-74815000D01*
X185341491Y-74809000D01*
X185347491Y-74804000D01*
X185353491Y-74798000D01*
X185359491Y-74794000D01*
X185365491Y-74789000D01*
X185379491Y-74781000D01*
X185393491Y-74775000D01*
X185401491Y-74772000D01*
X185408491Y-74770000D01*
X185416491Y-74768000D01*
X185424491Y-74767000D01*
X185431491Y-74766000D01*
X185439491Y-74765000D01*
X185772491Y-74765000D01*
X185772491Y-74552000D01*
X185909491Y-74415000D01*
X186472491Y-74415000D01*
X186472491Y-75115000D01*
X186472491Y-75515000D02*
X185447491Y-75515000D01*
X185447491Y-75515000D02*
X185439491Y-75515000D01*
X185439491Y-75515000D02*
X185431491Y-75514000D01*
X185431491Y-75514000D02*
X185424491Y-75513000D01*
X185424491Y-75513000D02*
X185416491Y-75512000D01*
X185416491Y-75512000D02*
X185408491Y-75510000D01*
X185408491Y-75510000D02*
X185401491Y-75508000D01*
X185401491Y-75508000D02*
X185393491Y-75505000D01*
X185393491Y-75505000D02*
X185386491Y-75502000D01*
X185386491Y-75502000D02*
X185379491Y-75499000D01*
X185379491Y-75499000D02*
X185372491Y-75495000D01*
X185372491Y-75495000D02*
X185365491Y-75491000D01*
X185365491Y-75491000D02*
X185359491Y-75486000D01*
X185359491Y-75486000D02*
X185353491Y-75482000D01*
X185353491Y-75482000D02*
X185347491Y-75476000D01*
X185347491Y-75476000D02*
X185341491Y-75471000D01*
X185341491Y-75471000D02*
X185336491Y-75465000D01*
X185336491Y-75465000D02*
X185330491Y-75459000D01*
X185330491Y-75459000D02*
X185326491Y-75453000D01*
X185326491Y-75453000D02*
X185321491Y-75447000D01*
X185321491Y-75447000D02*
X185317491Y-75440000D01*
X185317491Y-75440000D02*
X185313491Y-75433000D01*
X185313491Y-75433000D02*
X185310491Y-75426000D01*
X185310491Y-75426000D02*
X185307491Y-75419000D01*
X185307491Y-75419000D02*
X185304491Y-75411000D01*
X185304491Y-75411000D02*
X185302491Y-75404000D01*
X185302491Y-75404000D02*
X185300491Y-75396000D01*
X185300491Y-75396000D02*
X185299491Y-75388000D01*
X185299491Y-75388000D02*
X185298491Y-75381000D01*
X185298491Y-75381000D02*
X185297491Y-75373000D01*
X185297491Y-75373000D02*
X185297491Y-75365000D01*
X185297491Y-75365000D02*
X185297491Y-75357000D01*
X185297491Y-75357000D02*
X185298491Y-75349000D01*
X185298491Y-75349000D02*
X185299491Y-75342000D01*
X185299491Y-75342000D02*
X185300491Y-75334000D01*
X185300491Y-75334000D02*
X185302491Y-75326000D01*
X185302491Y-75326000D02*
X185304491Y-75319000D01*
X185304491Y-75319000D02*
X185307491Y-75311000D01*
X185307491Y-75311000D02*
X185310491Y-75304000D01*
X185310491Y-75304000D02*
X185313491Y-75297000D01*
X185313491Y-75297000D02*
X185317491Y-75290000D01*
X185317491Y-75290000D02*
X185321491Y-75283000D01*
X185321491Y-75283000D02*
X185326491Y-75277000D01*
X185326491Y-75277000D02*
X185330491Y-75271000D01*
X185330491Y-75271000D02*
X185336491Y-75265000D01*
X185336491Y-75265000D02*
X185341491Y-75259000D01*
X185341491Y-75259000D02*
X185347491Y-75254000D01*
X185347491Y-75254000D02*
X185353491Y-75248000D01*
X185353491Y-75248000D02*
X185359491Y-75244000D01*
X185359491Y-75244000D02*
X185365491Y-75239000D01*
X185365491Y-75239000D02*
X185372491Y-75235000D01*
X185372491Y-75235000D02*
X185379491Y-75231000D01*
X185379491Y-75231000D02*
X185386491Y-75228000D01*
X185386491Y-75228000D02*
X185393491Y-75225000D01*
X185393491Y-75225000D02*
X185401491Y-75222000D01*
X185401491Y-75222000D02*
X185408491Y-75220000D01*
X185408491Y-75220000D02*
X185416491Y-75218000D01*
X185416491Y-75218000D02*
X185424491Y-75217000D01*
X185424491Y-75217000D02*
X185431491Y-75216000D01*
X185431491Y-75216000D02*
X185439491Y-75215000D01*
X185439491Y-75215000D02*
X185447491Y-75215000D01*
X185447491Y-75215000D02*
X186472491Y-75215000D01*
X186472491Y-75215000D02*
X186472491Y-75515000D01*
X186472491Y-75515000D02*
X186472491Y-75515000D01*
G36*
X186472491Y-75515000D02*
G01*
X185439491Y-75515000D01*
X185431491Y-75514000D01*
X185424491Y-75513000D01*
X185416491Y-75512000D01*
X185408491Y-75510000D01*
X185401491Y-75508000D01*
X185393491Y-75505000D01*
X185379491Y-75499000D01*
X185365491Y-75491000D01*
X185359491Y-75486000D01*
X185353491Y-75482000D01*
X185347491Y-75476000D01*
X185341491Y-75471000D01*
X185336491Y-75465000D01*
X185330491Y-75459000D01*
X185326491Y-75453000D01*
X185321491Y-75447000D01*
X185313491Y-75433000D01*
X185307491Y-75419000D01*
X185304491Y-75411000D01*
X185302491Y-75404000D01*
X185300491Y-75396000D01*
X185299491Y-75388000D01*
X185298491Y-75381000D01*
X185297491Y-75373000D01*
X185297491Y-75357000D01*
X185298491Y-75349000D01*
X185299491Y-75342000D01*
X185300491Y-75334000D01*
X185302491Y-75326000D01*
X185304491Y-75319000D01*
X185307491Y-75311000D01*
X185313491Y-75297000D01*
X185321491Y-75283000D01*
X185326491Y-75277000D01*
X185330491Y-75271000D01*
X185336491Y-75265000D01*
X185341491Y-75259000D01*
X185347491Y-75254000D01*
X185353491Y-75248000D01*
X185359491Y-75244000D01*
X185365491Y-75239000D01*
X185379491Y-75231000D01*
X185393491Y-75225000D01*
X185401491Y-75222000D01*
X185408491Y-75220000D01*
X185416491Y-75218000D01*
X185424491Y-75217000D01*
X185431491Y-75216000D01*
X185439491Y-75215000D01*
X186472491Y-75215000D01*
X186472491Y-75515000D01*
G37*
X186472491Y-75515000D02*
X185439491Y-75515000D01*
X185431491Y-75514000D01*
X185424491Y-75513000D01*
X185416491Y-75512000D01*
X185408491Y-75510000D01*
X185401491Y-75508000D01*
X185393491Y-75505000D01*
X185379491Y-75499000D01*
X185365491Y-75491000D01*
X185359491Y-75486000D01*
X185353491Y-75482000D01*
X185347491Y-75476000D01*
X185341491Y-75471000D01*
X185336491Y-75465000D01*
X185330491Y-75459000D01*
X185326491Y-75453000D01*
X185321491Y-75447000D01*
X185313491Y-75433000D01*
X185307491Y-75419000D01*
X185304491Y-75411000D01*
X185302491Y-75404000D01*
X185300491Y-75396000D01*
X185299491Y-75388000D01*
X185298491Y-75381000D01*
X185297491Y-75373000D01*
X185297491Y-75357000D01*
X185298491Y-75349000D01*
X185299491Y-75342000D01*
X185300491Y-75334000D01*
X185302491Y-75326000D01*
X185304491Y-75319000D01*
X185307491Y-75311000D01*
X185313491Y-75297000D01*
X185321491Y-75283000D01*
X185326491Y-75277000D01*
X185330491Y-75271000D01*
X185336491Y-75265000D01*
X185341491Y-75259000D01*
X185347491Y-75254000D01*
X185353491Y-75248000D01*
X185359491Y-75244000D01*
X185365491Y-75239000D01*
X185379491Y-75231000D01*
X185393491Y-75225000D01*
X185401491Y-75222000D01*
X185408491Y-75220000D01*
X185416491Y-75218000D01*
X185424491Y-75217000D01*
X185431491Y-75216000D01*
X185439491Y-75215000D01*
X186472491Y-75215000D01*
X186472491Y-75515000D01*
X185472491Y-73715000D02*
X185472491Y-74440000D01*
X185472491Y-74440000D02*
X185635491Y-74440000D01*
X185635491Y-74440000D02*
X185772491Y-74303000D01*
X185772491Y-74303000D02*
X185772491Y-73715000D01*
X185772491Y-73715000D02*
X185472491Y-73715000D01*
G36*
X185772491Y-74303000D02*
G01*
X185635491Y-74440000D01*
X185472491Y-74440000D01*
X185472491Y-73715000D01*
X185772491Y-73715000D01*
X185772491Y-74303000D01*
G37*
X185772491Y-74303000D02*
X185635491Y-74440000D01*
X185472491Y-74440000D01*
X185472491Y-73715000D01*
X185772491Y-73715000D01*
X185772491Y-74303000D01*
X185072491Y-77415000D02*
X185072491Y-76790000D01*
X185072491Y-76790000D02*
X185072491Y-76782000D01*
X185072491Y-76782000D02*
X185073491Y-76774000D01*
X185073491Y-76774000D02*
X185074491Y-76767000D01*
X185074491Y-76767000D02*
X185075491Y-76759000D01*
X185075491Y-76759000D02*
X185077491Y-76751000D01*
X185077491Y-76751000D02*
X185079491Y-76744000D01*
X185079491Y-76744000D02*
X185082491Y-76736000D01*
X185082491Y-76736000D02*
X185085491Y-76729000D01*
X185085491Y-76729000D02*
X185088491Y-76722000D01*
X185088491Y-76722000D02*
X185092491Y-76715000D01*
X185092491Y-76715000D02*
X185096491Y-76708000D01*
X185096491Y-76708000D02*
X185101491Y-76702000D01*
X185101491Y-76702000D02*
X185105491Y-76696000D01*
X185105491Y-76696000D02*
X185111491Y-76690000D01*
X185111491Y-76690000D02*
X185116491Y-76684000D01*
X185116491Y-76684000D02*
X185122491Y-76679000D01*
X185122491Y-76679000D02*
X185128491Y-76673000D01*
X185128491Y-76673000D02*
X185134491Y-76669000D01*
X185134491Y-76669000D02*
X185140491Y-76664000D01*
X185140491Y-76664000D02*
X185147491Y-76660000D01*
X185147491Y-76660000D02*
X185154491Y-76656000D01*
X185154491Y-76656000D02*
X185161491Y-76653000D01*
X185161491Y-76653000D02*
X185168491Y-76650000D01*
X185168491Y-76650000D02*
X185176491Y-76647000D01*
X185176491Y-76647000D02*
X185183491Y-76645000D01*
X185183491Y-76645000D02*
X185191491Y-76643000D01*
X185191491Y-76643000D02*
X185199491Y-76642000D01*
X185199491Y-76642000D02*
X185206491Y-76641000D01*
X185206491Y-76641000D02*
X185214491Y-76640000D01*
X185214491Y-76640000D02*
X185222491Y-76640000D01*
X185222491Y-76640000D02*
X185230491Y-76640000D01*
X185230491Y-76640000D02*
X185238491Y-76641000D01*
X185238491Y-76641000D02*
X185245491Y-76642000D01*
X185245491Y-76642000D02*
X185253491Y-76643000D01*
X185253491Y-76643000D02*
X185261491Y-76645000D01*
X185261491Y-76645000D02*
X185268491Y-76647000D01*
X185268491Y-76647000D02*
X185276491Y-76650000D01*
X185276491Y-76650000D02*
X185283491Y-76653000D01*
X185283491Y-76653000D02*
X185290491Y-76656000D01*
X185290491Y-76656000D02*
X185297491Y-76660000D01*
X185297491Y-76660000D02*
X185304491Y-76664000D01*
X185304491Y-76664000D02*
X185310491Y-76669000D01*
X185310491Y-76669000D02*
X185316491Y-76673000D01*
X185316491Y-76673000D02*
X185322491Y-76679000D01*
X185322491Y-76679000D02*
X185328491Y-76684000D01*
X185328491Y-76684000D02*
X185333491Y-76690000D01*
X185333491Y-76690000D02*
X185339491Y-76696000D01*
X185339491Y-76696000D02*
X185343491Y-76702000D01*
X185343491Y-76702000D02*
X185348491Y-76708000D01*
X185348491Y-76708000D02*
X185352491Y-76715000D01*
X185352491Y-76715000D02*
X185356491Y-76722000D01*
X185356491Y-76722000D02*
X185359491Y-76729000D01*
X185359491Y-76729000D02*
X185362491Y-76736000D01*
X185362491Y-76736000D02*
X185365491Y-76744000D01*
X185365491Y-76744000D02*
X185367491Y-76751000D01*
X185367491Y-76751000D02*
X185369491Y-76759000D01*
X185369491Y-76759000D02*
X185370491Y-76767000D01*
X185370491Y-76767000D02*
X185371491Y-76774000D01*
X185371491Y-76774000D02*
X185372491Y-76782000D01*
X185372491Y-76782000D02*
X185372491Y-76790000D01*
X185372491Y-76790000D02*
X185372491Y-77415000D01*
X185372491Y-77415000D02*
X185072491Y-77415000D01*
X185072491Y-77415000D02*
X185072491Y-77415000D01*
G36*
X185238491Y-76641000D02*
G01*
X185245491Y-76642000D01*
X185253491Y-76643000D01*
X185261491Y-76645000D01*
X185268491Y-76647000D01*
X185276491Y-76650000D01*
X185290491Y-76656000D01*
X185304491Y-76664000D01*
X185310491Y-76669000D01*
X185316491Y-76673000D01*
X185322491Y-76679000D01*
X185328491Y-76684000D01*
X185333491Y-76690000D01*
X185339491Y-76696000D01*
X185343491Y-76702000D01*
X185348491Y-76708000D01*
X185356491Y-76722000D01*
X185362491Y-76736000D01*
X185365491Y-76744000D01*
X185367491Y-76751000D01*
X185369491Y-76759000D01*
X185370491Y-76767000D01*
X185371491Y-76774000D01*
X185372491Y-76782000D01*
X185372491Y-77415000D01*
X185072491Y-77415000D01*
X185072491Y-76782000D01*
X185073491Y-76774000D01*
X185074491Y-76767000D01*
X185075491Y-76759000D01*
X185077491Y-76751000D01*
X185079491Y-76744000D01*
X185082491Y-76736000D01*
X185088491Y-76722000D01*
X185096491Y-76708000D01*
X185101491Y-76702000D01*
X185105491Y-76696000D01*
X185111491Y-76690000D01*
X185116491Y-76684000D01*
X185122491Y-76679000D01*
X185128491Y-76673000D01*
X185134491Y-76669000D01*
X185140491Y-76664000D01*
X185154491Y-76656000D01*
X185168491Y-76650000D01*
X185176491Y-76647000D01*
X185183491Y-76645000D01*
X185191491Y-76643000D01*
X185199491Y-76642000D01*
X185206491Y-76641000D01*
X185214491Y-76640000D01*
X185230491Y-76640000D01*
X185238491Y-76641000D01*
G37*
X185238491Y-76641000D02*
X185245491Y-76642000D01*
X185253491Y-76643000D01*
X185261491Y-76645000D01*
X185268491Y-76647000D01*
X185276491Y-76650000D01*
X185290491Y-76656000D01*
X185304491Y-76664000D01*
X185310491Y-76669000D01*
X185316491Y-76673000D01*
X185322491Y-76679000D01*
X185328491Y-76684000D01*
X185333491Y-76690000D01*
X185339491Y-76696000D01*
X185343491Y-76702000D01*
X185348491Y-76708000D01*
X185356491Y-76722000D01*
X185362491Y-76736000D01*
X185365491Y-76744000D01*
X185367491Y-76751000D01*
X185369491Y-76759000D01*
X185370491Y-76767000D01*
X185371491Y-76774000D01*
X185372491Y-76782000D01*
X185372491Y-77415000D01*
X185072491Y-77415000D01*
X185072491Y-76782000D01*
X185073491Y-76774000D01*
X185074491Y-76767000D01*
X185075491Y-76759000D01*
X185077491Y-76751000D01*
X185079491Y-76744000D01*
X185082491Y-76736000D01*
X185088491Y-76722000D01*
X185096491Y-76708000D01*
X185101491Y-76702000D01*
X185105491Y-76696000D01*
X185111491Y-76690000D01*
X185116491Y-76684000D01*
X185122491Y-76679000D01*
X185128491Y-76673000D01*
X185134491Y-76669000D01*
X185140491Y-76664000D01*
X185154491Y-76656000D01*
X185168491Y-76650000D01*
X185176491Y-76647000D01*
X185183491Y-76645000D01*
X185191491Y-76643000D01*
X185199491Y-76642000D01*
X185206491Y-76641000D01*
X185214491Y-76640000D01*
X185230491Y-76640000D01*
X185238491Y-76641000D01*
X184972491Y-73715000D02*
X184972491Y-74340000D01*
X184972491Y-74340000D02*
X184972491Y-74348000D01*
X184972491Y-74348000D02*
X184971491Y-74356000D01*
X184971491Y-74356000D02*
X184970491Y-74363000D01*
X184970491Y-74363000D02*
X184969491Y-74371000D01*
X184969491Y-74371000D02*
X184967491Y-74379000D01*
X184967491Y-74379000D02*
X184965491Y-74386000D01*
X184965491Y-74386000D02*
X184962491Y-74394000D01*
X184962491Y-74394000D02*
X184959491Y-74401000D01*
X184959491Y-74401000D02*
X184956491Y-74408000D01*
X184956491Y-74408000D02*
X184952491Y-74415000D01*
X184952491Y-74415000D02*
X184948491Y-74422000D01*
X184948491Y-74422000D02*
X184943491Y-74428000D01*
X184943491Y-74428000D02*
X184939491Y-74434000D01*
X184939491Y-74434000D02*
X184933491Y-74440000D01*
X184933491Y-74440000D02*
X184928491Y-74446000D01*
X184928491Y-74446000D02*
X184922491Y-74451000D01*
X184922491Y-74451000D02*
X184916491Y-74457000D01*
X184916491Y-74457000D02*
X184910491Y-74461000D01*
X184910491Y-74461000D02*
X184904491Y-74466000D01*
X184904491Y-74466000D02*
X184897491Y-74470000D01*
X184897491Y-74470000D02*
X184890491Y-74474000D01*
X184890491Y-74474000D02*
X184883491Y-74477000D01*
X184883491Y-74477000D02*
X184876491Y-74480000D01*
X184876491Y-74480000D02*
X184868491Y-74483000D01*
X184868491Y-74483000D02*
X184861491Y-74485000D01*
X184861491Y-74485000D02*
X184853491Y-74487000D01*
X184853491Y-74487000D02*
X184845491Y-74488000D01*
X184845491Y-74488000D02*
X184838491Y-74489000D01*
X184838491Y-74489000D02*
X184830491Y-74490000D01*
X184830491Y-74490000D02*
X184822491Y-74490000D01*
X184822491Y-74490000D02*
X184814491Y-74490000D01*
X184814491Y-74490000D02*
X184806491Y-74489000D01*
X184806491Y-74489000D02*
X184799491Y-74488000D01*
X184799491Y-74488000D02*
X184791491Y-74487000D01*
X184791491Y-74487000D02*
X184783491Y-74485000D01*
X184783491Y-74485000D02*
X184776491Y-74483000D01*
X184776491Y-74483000D02*
X184768491Y-74480000D01*
X184768491Y-74480000D02*
X184761491Y-74477000D01*
X184761491Y-74477000D02*
X184754491Y-74474000D01*
X184754491Y-74474000D02*
X184747491Y-74470000D01*
X184747491Y-74470000D02*
X184740491Y-74466000D01*
X184740491Y-74466000D02*
X184734491Y-74461000D01*
X184734491Y-74461000D02*
X184728491Y-74457000D01*
X184728491Y-74457000D02*
X184722491Y-74451000D01*
X184722491Y-74451000D02*
X184716491Y-74446000D01*
X184716491Y-74446000D02*
X184711491Y-74440000D01*
X184711491Y-74440000D02*
X184705491Y-74434000D01*
X184705491Y-74434000D02*
X184701491Y-74428000D01*
X184701491Y-74428000D02*
X184696491Y-74422000D01*
X184696491Y-74422000D02*
X184692491Y-74415000D01*
X184692491Y-74415000D02*
X184688491Y-74408000D01*
X184688491Y-74408000D02*
X184685491Y-74401000D01*
X184685491Y-74401000D02*
X184682491Y-74394000D01*
X184682491Y-74394000D02*
X184679491Y-74386000D01*
X184679491Y-74386000D02*
X184677491Y-74379000D01*
X184677491Y-74379000D02*
X184675491Y-74371000D01*
X184675491Y-74371000D02*
X184674491Y-74363000D01*
X184674491Y-74363000D02*
X184673491Y-74356000D01*
X184673491Y-74356000D02*
X184672491Y-74348000D01*
X184672491Y-74348000D02*
X184672491Y-74340000D01*
X184672491Y-74340000D02*
X184672491Y-73715000D01*
X184672491Y-73715000D02*
X184972491Y-73715000D01*
X184972491Y-73715000D02*
X184972491Y-73715000D01*
G36*
X184972491Y-74348000D02*
G01*
X184971491Y-74356000D01*
X184970491Y-74363000D01*
X184969491Y-74371000D01*
X184967491Y-74379000D01*
X184965491Y-74386000D01*
X184962491Y-74394000D01*
X184956491Y-74408000D01*
X184948491Y-74422000D01*
X184943491Y-74428000D01*
X184939491Y-74434000D01*
X184933491Y-74440000D01*
X184928491Y-74446000D01*
X184922491Y-74451000D01*
X184916491Y-74457000D01*
X184910491Y-74461000D01*
X184904491Y-74466000D01*
X184890491Y-74474000D01*
X184876491Y-74480000D01*
X184868491Y-74483000D01*
X184861491Y-74485000D01*
X184853491Y-74487000D01*
X184845491Y-74488000D01*
X184838491Y-74489000D01*
X184830491Y-74490000D01*
X184814491Y-74490000D01*
X184806491Y-74489000D01*
X184799491Y-74488000D01*
X184791491Y-74487000D01*
X184783491Y-74485000D01*
X184776491Y-74483000D01*
X184768491Y-74480000D01*
X184754491Y-74474000D01*
X184740491Y-74466000D01*
X184734491Y-74461000D01*
X184728491Y-74457000D01*
X184722491Y-74451000D01*
X184716491Y-74446000D01*
X184711491Y-74440000D01*
X184705491Y-74434000D01*
X184701491Y-74428000D01*
X184696491Y-74422000D01*
X184688491Y-74408000D01*
X184682491Y-74394000D01*
X184679491Y-74386000D01*
X184677491Y-74379000D01*
X184675491Y-74371000D01*
X184674491Y-74363000D01*
X184673491Y-74356000D01*
X184672491Y-74348000D01*
X184672491Y-73715000D01*
X184972491Y-73715000D01*
X184972491Y-74348000D01*
G37*
X184972491Y-74348000D02*
X184971491Y-74356000D01*
X184970491Y-74363000D01*
X184969491Y-74371000D01*
X184967491Y-74379000D01*
X184965491Y-74386000D01*
X184962491Y-74394000D01*
X184956491Y-74408000D01*
X184948491Y-74422000D01*
X184943491Y-74428000D01*
X184939491Y-74434000D01*
X184933491Y-74440000D01*
X184928491Y-74446000D01*
X184922491Y-74451000D01*
X184916491Y-74457000D01*
X184910491Y-74461000D01*
X184904491Y-74466000D01*
X184890491Y-74474000D01*
X184876491Y-74480000D01*
X184868491Y-74483000D01*
X184861491Y-74485000D01*
X184853491Y-74487000D01*
X184845491Y-74488000D01*
X184838491Y-74489000D01*
X184830491Y-74490000D01*
X184814491Y-74490000D01*
X184806491Y-74489000D01*
X184799491Y-74488000D01*
X184791491Y-74487000D01*
X184783491Y-74485000D01*
X184776491Y-74483000D01*
X184768491Y-74480000D01*
X184754491Y-74474000D01*
X184740491Y-74466000D01*
X184734491Y-74461000D01*
X184728491Y-74457000D01*
X184722491Y-74451000D01*
X184716491Y-74446000D01*
X184711491Y-74440000D01*
X184705491Y-74434000D01*
X184701491Y-74428000D01*
X184696491Y-74422000D01*
X184688491Y-74408000D01*
X184682491Y-74394000D01*
X184679491Y-74386000D01*
X184677491Y-74379000D01*
X184675491Y-74371000D01*
X184674491Y-74363000D01*
X184673491Y-74356000D01*
X184672491Y-74348000D01*
X184672491Y-73715000D01*
X184972491Y-73715000D01*
X184972491Y-74348000D01*
X182772491Y-75615000D02*
X183397491Y-75615000D01*
X183397491Y-75615000D02*
X183405491Y-75615000D01*
X183405491Y-75615000D02*
X183413491Y-75616000D01*
X183413491Y-75616000D02*
X183420491Y-75617000D01*
X183420491Y-75617000D02*
X183428491Y-75618000D01*
X183428491Y-75618000D02*
X183436491Y-75620000D01*
X183436491Y-75620000D02*
X183443491Y-75622000D01*
X183443491Y-75622000D02*
X183451491Y-75625000D01*
X183451491Y-75625000D02*
X183458491Y-75628000D01*
X183458491Y-75628000D02*
X183465491Y-75631000D01*
X183465491Y-75631000D02*
X183472491Y-75635000D01*
X183472491Y-75635000D02*
X183479491Y-75639000D01*
X183479491Y-75639000D02*
X183485491Y-75644000D01*
X183485491Y-75644000D02*
X183491491Y-75648000D01*
X183491491Y-75648000D02*
X183497491Y-75654000D01*
X183497491Y-75654000D02*
X183503491Y-75659000D01*
X183503491Y-75659000D02*
X183508491Y-75665000D01*
X183508491Y-75665000D02*
X183514491Y-75671000D01*
X183514491Y-75671000D02*
X183518491Y-75677000D01*
X183518491Y-75677000D02*
X183523491Y-75683000D01*
X183523491Y-75683000D02*
X183527491Y-75690000D01*
X183527491Y-75690000D02*
X183531491Y-75697000D01*
X183531491Y-75697000D02*
X183534491Y-75704000D01*
X183534491Y-75704000D02*
X183537491Y-75711000D01*
X183537491Y-75711000D02*
X183540491Y-75719000D01*
X183540491Y-75719000D02*
X183542491Y-75726000D01*
X183542491Y-75726000D02*
X183544491Y-75734000D01*
X183544491Y-75734000D02*
X183545491Y-75742000D01*
X183545491Y-75742000D02*
X183546491Y-75749000D01*
X183546491Y-75749000D02*
X183547491Y-75757000D01*
X183547491Y-75757000D02*
X183547491Y-75765000D01*
X183547491Y-75765000D02*
X183547491Y-75773000D01*
X183547491Y-75773000D02*
X183546491Y-75781000D01*
X183546491Y-75781000D02*
X183545491Y-75788000D01*
X183545491Y-75788000D02*
X183544491Y-75796000D01*
X183544491Y-75796000D02*
X183542491Y-75804000D01*
X183542491Y-75804000D02*
X183540491Y-75811000D01*
X183540491Y-75811000D02*
X183537491Y-75819000D01*
X183537491Y-75819000D02*
X183534491Y-75826000D01*
X183534491Y-75826000D02*
X183531491Y-75833000D01*
X183531491Y-75833000D02*
X183527491Y-75840000D01*
X183527491Y-75840000D02*
X183523491Y-75847000D01*
X183523491Y-75847000D02*
X183518491Y-75853000D01*
X183518491Y-75853000D02*
X183514491Y-75859000D01*
X183514491Y-75859000D02*
X183508491Y-75865000D01*
X183508491Y-75865000D02*
X183503491Y-75871000D01*
X183503491Y-75871000D02*
X183497491Y-75876000D01*
X183497491Y-75876000D02*
X183491491Y-75882000D01*
X183491491Y-75882000D02*
X183485491Y-75886000D01*
X183485491Y-75886000D02*
X183479491Y-75891000D01*
X183479491Y-75891000D02*
X183472491Y-75895000D01*
X183472491Y-75895000D02*
X183465491Y-75899000D01*
X183465491Y-75899000D02*
X183458491Y-75902000D01*
X183458491Y-75902000D02*
X183451491Y-75905000D01*
X183451491Y-75905000D02*
X183443491Y-75908000D01*
X183443491Y-75908000D02*
X183436491Y-75910000D01*
X183436491Y-75910000D02*
X183428491Y-75912000D01*
X183428491Y-75912000D02*
X183420491Y-75913000D01*
X183420491Y-75913000D02*
X183413491Y-75914000D01*
X183413491Y-75914000D02*
X183405491Y-75915000D01*
X183405491Y-75915000D02*
X183397491Y-75915000D01*
X183397491Y-75915000D02*
X182772491Y-75915000D01*
X182772491Y-75915000D02*
X182772491Y-75615000D01*
X182772491Y-75615000D02*
X182772491Y-75615000D01*
G36*
X183413491Y-75616000D02*
G01*
X183420491Y-75617000D01*
X183428491Y-75618000D01*
X183436491Y-75620000D01*
X183443491Y-75622000D01*
X183451491Y-75625000D01*
X183465491Y-75631000D01*
X183479491Y-75639000D01*
X183485491Y-75644000D01*
X183491491Y-75648000D01*
X183497491Y-75654000D01*
X183503491Y-75659000D01*
X183508491Y-75665000D01*
X183514491Y-75671000D01*
X183518491Y-75677000D01*
X183523491Y-75683000D01*
X183531491Y-75697000D01*
X183537491Y-75711000D01*
X183540491Y-75719000D01*
X183542491Y-75726000D01*
X183544491Y-75734000D01*
X183545491Y-75742000D01*
X183546491Y-75749000D01*
X183547491Y-75757000D01*
X183547491Y-75773000D01*
X183546491Y-75781000D01*
X183545491Y-75788000D01*
X183544491Y-75796000D01*
X183542491Y-75804000D01*
X183540491Y-75811000D01*
X183537491Y-75819000D01*
X183531491Y-75833000D01*
X183523491Y-75847000D01*
X183518491Y-75853000D01*
X183514491Y-75859000D01*
X183508491Y-75865000D01*
X183503491Y-75871000D01*
X183497491Y-75876000D01*
X183491491Y-75882000D01*
X183485491Y-75886000D01*
X183479491Y-75891000D01*
X183465491Y-75899000D01*
X183451491Y-75905000D01*
X183443491Y-75908000D01*
X183436491Y-75910000D01*
X183428491Y-75912000D01*
X183420491Y-75913000D01*
X183413491Y-75914000D01*
X183405491Y-75915000D01*
X182772491Y-75915000D01*
X182772491Y-75615000D01*
X183405491Y-75615000D01*
X183413491Y-75616000D01*
G37*
X183413491Y-75616000D02*
X183420491Y-75617000D01*
X183428491Y-75618000D01*
X183436491Y-75620000D01*
X183443491Y-75622000D01*
X183451491Y-75625000D01*
X183465491Y-75631000D01*
X183479491Y-75639000D01*
X183485491Y-75644000D01*
X183491491Y-75648000D01*
X183497491Y-75654000D01*
X183503491Y-75659000D01*
X183508491Y-75665000D01*
X183514491Y-75671000D01*
X183518491Y-75677000D01*
X183523491Y-75683000D01*
X183531491Y-75697000D01*
X183537491Y-75711000D01*
X183540491Y-75719000D01*
X183542491Y-75726000D01*
X183544491Y-75734000D01*
X183545491Y-75742000D01*
X183546491Y-75749000D01*
X183547491Y-75757000D01*
X183547491Y-75773000D01*
X183546491Y-75781000D01*
X183545491Y-75788000D01*
X183544491Y-75796000D01*
X183542491Y-75804000D01*
X183540491Y-75811000D01*
X183537491Y-75819000D01*
X183531491Y-75833000D01*
X183523491Y-75847000D01*
X183518491Y-75853000D01*
X183514491Y-75859000D01*
X183508491Y-75865000D01*
X183503491Y-75871000D01*
X183497491Y-75876000D01*
X183491491Y-75882000D01*
X183485491Y-75886000D01*
X183479491Y-75891000D01*
X183465491Y-75899000D01*
X183451491Y-75905000D01*
X183443491Y-75908000D01*
X183436491Y-75910000D01*
X183428491Y-75912000D01*
X183420491Y-75913000D01*
X183413491Y-75914000D01*
X183405491Y-75915000D01*
X182772491Y-75915000D01*
X182772491Y-75615000D01*
X183405491Y-75615000D01*
X183413491Y-75616000D01*
X185472491Y-77415000D02*
X185472491Y-76565000D01*
X185472491Y-76565000D02*
X185472491Y-76557000D01*
X185472491Y-76557000D02*
X185473491Y-76549000D01*
X185473491Y-76549000D02*
X185474491Y-76542000D01*
X185474491Y-76542000D02*
X185475491Y-76534000D01*
X185475491Y-76534000D02*
X185477491Y-76526000D01*
X185477491Y-76526000D02*
X185479491Y-76519000D01*
X185479491Y-76519000D02*
X185482491Y-76511000D01*
X185482491Y-76511000D02*
X185485491Y-76504000D01*
X185485491Y-76504000D02*
X185488491Y-76497000D01*
X185488491Y-76497000D02*
X185492491Y-76490000D01*
X185492491Y-76490000D02*
X185496491Y-76483000D01*
X185496491Y-76483000D02*
X185501491Y-76477000D01*
X185501491Y-76477000D02*
X185505491Y-76471000D01*
X185505491Y-76471000D02*
X185511491Y-76465000D01*
X185511491Y-76465000D02*
X185516491Y-76459000D01*
X185516491Y-76459000D02*
X185522491Y-76454000D01*
X185522491Y-76454000D02*
X185528491Y-76448000D01*
X185528491Y-76448000D02*
X185534491Y-76444000D01*
X185534491Y-76444000D02*
X185540491Y-76439000D01*
X185540491Y-76439000D02*
X185547491Y-76435000D01*
X185547491Y-76435000D02*
X185554491Y-76431000D01*
X185554491Y-76431000D02*
X185561491Y-76428000D01*
X185561491Y-76428000D02*
X185568491Y-76425000D01*
X185568491Y-76425000D02*
X185576491Y-76422000D01*
X185576491Y-76422000D02*
X185583491Y-76420000D01*
X185583491Y-76420000D02*
X185591491Y-76418000D01*
X185591491Y-76418000D02*
X185599491Y-76417000D01*
X185599491Y-76417000D02*
X185606491Y-76416000D01*
X185606491Y-76416000D02*
X185614491Y-76415000D01*
X185614491Y-76415000D02*
X185622491Y-76415000D01*
X185622491Y-76415000D02*
X186472491Y-76415000D01*
X186472491Y-76415000D02*
X186472491Y-76715000D01*
X186472491Y-76715000D02*
X185997491Y-76715000D01*
X185997491Y-76715000D02*
X185772491Y-76940000D01*
X185772491Y-76940000D02*
X185772491Y-77415000D01*
X185772491Y-77415000D02*
X185472491Y-77415000D01*
X185472491Y-77415000D02*
X185472491Y-77415000D01*
G36*
X186472491Y-76715000D02*
G01*
X185997491Y-76715000D01*
X185772491Y-76940000D01*
X185772491Y-77415000D01*
X185472491Y-77415000D01*
X185472491Y-76557000D01*
X185473491Y-76549000D01*
X185474491Y-76542000D01*
X185475491Y-76534000D01*
X185477491Y-76526000D01*
X185479491Y-76519000D01*
X185482491Y-76511000D01*
X185488491Y-76497000D01*
X185496491Y-76483000D01*
X185501491Y-76477000D01*
X185505491Y-76471000D01*
X185511491Y-76465000D01*
X185516491Y-76459000D01*
X185522491Y-76454000D01*
X185528491Y-76448000D01*
X185534491Y-76444000D01*
X185540491Y-76439000D01*
X185554491Y-76431000D01*
X185568491Y-76425000D01*
X185576491Y-76422000D01*
X185583491Y-76420000D01*
X185591491Y-76418000D01*
X185599491Y-76417000D01*
X185606491Y-76416000D01*
X185614491Y-76415000D01*
X186472491Y-76415000D01*
X186472491Y-76715000D01*
G37*
X186472491Y-76715000D02*
X185997491Y-76715000D01*
X185772491Y-76940000D01*
X185772491Y-77415000D01*
X185472491Y-77415000D01*
X185472491Y-76557000D01*
X185473491Y-76549000D01*
X185474491Y-76542000D01*
X185475491Y-76534000D01*
X185477491Y-76526000D01*
X185479491Y-76519000D01*
X185482491Y-76511000D01*
X185488491Y-76497000D01*
X185496491Y-76483000D01*
X185501491Y-76477000D01*
X185505491Y-76471000D01*
X185511491Y-76465000D01*
X185516491Y-76459000D01*
X185522491Y-76454000D01*
X185528491Y-76448000D01*
X185534491Y-76444000D01*
X185540491Y-76439000D01*
X185554491Y-76431000D01*
X185568491Y-76425000D01*
X185576491Y-76422000D01*
X185583491Y-76420000D01*
X185591491Y-76418000D01*
X185599491Y-76417000D01*
X185606491Y-76416000D01*
X185614491Y-76415000D01*
X186472491Y-76415000D01*
X186472491Y-76715000D01*
X182772491Y-74715000D02*
X183497491Y-74715000D01*
X183497491Y-74715000D02*
X183497491Y-74552000D01*
X183497491Y-74552000D02*
X183360491Y-74415000D01*
X183360491Y-74415000D02*
X182772491Y-74415000D01*
X182772491Y-74415000D02*
X182772491Y-74715000D01*
G36*
X183497491Y-74552000D02*
G01*
X183497491Y-74715000D01*
X182772491Y-74715000D01*
X182772491Y-74415000D01*
X183360491Y-74415000D01*
X183497491Y-74552000D01*
G37*
X183497491Y-74552000D02*
X183497491Y-74715000D01*
X182772491Y-74715000D01*
X182772491Y-74415000D01*
X183360491Y-74415000D01*
X183497491Y-74552000D01*
X185372491Y-73715000D02*
X185372491Y-74340000D01*
X185372491Y-74340000D02*
X185372491Y-74348000D01*
X185372491Y-74348000D02*
X185371491Y-74356000D01*
X185371491Y-74356000D02*
X185370491Y-74363000D01*
X185370491Y-74363000D02*
X185369491Y-74371000D01*
X185369491Y-74371000D02*
X185367491Y-74379000D01*
X185367491Y-74379000D02*
X185365491Y-74386000D01*
X185365491Y-74386000D02*
X185362491Y-74394000D01*
X185362491Y-74394000D02*
X185359491Y-74401000D01*
X185359491Y-74401000D02*
X185356491Y-74408000D01*
X185356491Y-74408000D02*
X185352491Y-74415000D01*
X185352491Y-74415000D02*
X185348491Y-74422000D01*
X185348491Y-74422000D02*
X185343491Y-74428000D01*
X185343491Y-74428000D02*
X185339491Y-74434000D01*
X185339491Y-74434000D02*
X185333491Y-74440000D01*
X185333491Y-74440000D02*
X185328491Y-74446000D01*
X185328491Y-74446000D02*
X185322491Y-74451000D01*
X185322491Y-74451000D02*
X185316491Y-74457000D01*
X185316491Y-74457000D02*
X185310491Y-74461000D01*
X185310491Y-74461000D02*
X185304491Y-74466000D01*
X185304491Y-74466000D02*
X185297491Y-74470000D01*
X185297491Y-74470000D02*
X185290491Y-74474000D01*
X185290491Y-74474000D02*
X185283491Y-74477000D01*
X185283491Y-74477000D02*
X185276491Y-74480000D01*
X185276491Y-74480000D02*
X185268491Y-74483000D01*
X185268491Y-74483000D02*
X185261491Y-74485000D01*
X185261491Y-74485000D02*
X185253491Y-74487000D01*
X185253491Y-74487000D02*
X185245491Y-74488000D01*
X185245491Y-74488000D02*
X185238491Y-74489000D01*
X185238491Y-74489000D02*
X185230491Y-74490000D01*
X185230491Y-74490000D02*
X185222491Y-74490000D01*
X185222491Y-74490000D02*
X185214491Y-74490000D01*
X185214491Y-74490000D02*
X185206491Y-74489000D01*
X185206491Y-74489000D02*
X185199491Y-74488000D01*
X185199491Y-74488000D02*
X185191491Y-74487000D01*
X185191491Y-74487000D02*
X185183491Y-74485000D01*
X185183491Y-74485000D02*
X185176491Y-74483000D01*
X185176491Y-74483000D02*
X185168491Y-74480000D01*
X185168491Y-74480000D02*
X185161491Y-74477000D01*
X185161491Y-74477000D02*
X185154491Y-74474000D01*
X185154491Y-74474000D02*
X185147491Y-74470000D01*
X185147491Y-74470000D02*
X185140491Y-74466000D01*
X185140491Y-74466000D02*
X185134491Y-74461000D01*
X185134491Y-74461000D02*
X185128491Y-74457000D01*
X185128491Y-74457000D02*
X185122491Y-74451000D01*
X185122491Y-74451000D02*
X185116491Y-74446000D01*
X185116491Y-74446000D02*
X185111491Y-74440000D01*
X185111491Y-74440000D02*
X185105491Y-74434000D01*
X185105491Y-74434000D02*
X185101491Y-74428000D01*
X185101491Y-74428000D02*
X185096491Y-74422000D01*
X185096491Y-74422000D02*
X185092491Y-74415000D01*
X185092491Y-74415000D02*
X185088491Y-74408000D01*
X185088491Y-74408000D02*
X185085491Y-74401000D01*
X185085491Y-74401000D02*
X185082491Y-74394000D01*
X185082491Y-74394000D02*
X185079491Y-74386000D01*
X185079491Y-74386000D02*
X185077491Y-74379000D01*
X185077491Y-74379000D02*
X185075491Y-74371000D01*
X185075491Y-74371000D02*
X185074491Y-74363000D01*
X185074491Y-74363000D02*
X185073491Y-74356000D01*
X185073491Y-74356000D02*
X185072491Y-74348000D01*
X185072491Y-74348000D02*
X185072491Y-74340000D01*
X185072491Y-74340000D02*
X185072491Y-73715000D01*
X185072491Y-73715000D02*
X185372491Y-73715000D01*
X185372491Y-73715000D02*
X185372491Y-73715000D01*
G36*
X185372491Y-74348000D02*
G01*
X185371491Y-74356000D01*
X185370491Y-74363000D01*
X185369491Y-74371000D01*
X185367491Y-74379000D01*
X185365491Y-74386000D01*
X185362491Y-74394000D01*
X185356491Y-74408000D01*
X185348491Y-74422000D01*
X185343491Y-74428000D01*
X185339491Y-74434000D01*
X185333491Y-74440000D01*
X185328491Y-74446000D01*
X185322491Y-74451000D01*
X185316491Y-74457000D01*
X185310491Y-74461000D01*
X185304491Y-74466000D01*
X185290491Y-74474000D01*
X185276491Y-74480000D01*
X185268491Y-74483000D01*
X185261491Y-74485000D01*
X185253491Y-74487000D01*
X185245491Y-74488000D01*
X185238491Y-74489000D01*
X185230491Y-74490000D01*
X185214491Y-74490000D01*
X185206491Y-74489000D01*
X185199491Y-74488000D01*
X185191491Y-74487000D01*
X185183491Y-74485000D01*
X185176491Y-74483000D01*
X185168491Y-74480000D01*
X185154491Y-74474000D01*
X185140491Y-74466000D01*
X185134491Y-74461000D01*
X185128491Y-74457000D01*
X185122491Y-74451000D01*
X185116491Y-74446000D01*
X185111491Y-74440000D01*
X185105491Y-74434000D01*
X185101491Y-74428000D01*
X185096491Y-74422000D01*
X185088491Y-74408000D01*
X185082491Y-74394000D01*
X185079491Y-74386000D01*
X185077491Y-74379000D01*
X185075491Y-74371000D01*
X185074491Y-74363000D01*
X185073491Y-74356000D01*
X185072491Y-74348000D01*
X185072491Y-73715000D01*
X185372491Y-73715000D01*
X185372491Y-74348000D01*
G37*
X185372491Y-74348000D02*
X185371491Y-74356000D01*
X185370491Y-74363000D01*
X185369491Y-74371000D01*
X185367491Y-74379000D01*
X185365491Y-74386000D01*
X185362491Y-74394000D01*
X185356491Y-74408000D01*
X185348491Y-74422000D01*
X185343491Y-74428000D01*
X185339491Y-74434000D01*
X185333491Y-74440000D01*
X185328491Y-74446000D01*
X185322491Y-74451000D01*
X185316491Y-74457000D01*
X185310491Y-74461000D01*
X185304491Y-74466000D01*
X185290491Y-74474000D01*
X185276491Y-74480000D01*
X185268491Y-74483000D01*
X185261491Y-74485000D01*
X185253491Y-74487000D01*
X185245491Y-74488000D01*
X185238491Y-74489000D01*
X185230491Y-74490000D01*
X185214491Y-74490000D01*
X185206491Y-74489000D01*
X185199491Y-74488000D01*
X185191491Y-74487000D01*
X185183491Y-74485000D01*
X185176491Y-74483000D01*
X185168491Y-74480000D01*
X185154491Y-74474000D01*
X185140491Y-74466000D01*
X185134491Y-74461000D01*
X185128491Y-74457000D01*
X185122491Y-74451000D01*
X185116491Y-74446000D01*
X185111491Y-74440000D01*
X185105491Y-74434000D01*
X185101491Y-74428000D01*
X185096491Y-74422000D01*
X185088491Y-74408000D01*
X185082491Y-74394000D01*
X185079491Y-74386000D01*
X185077491Y-74379000D01*
X185075491Y-74371000D01*
X185074491Y-74363000D01*
X185073491Y-74356000D01*
X185072491Y-74348000D01*
X185072491Y-73715000D01*
X185372491Y-73715000D01*
X185372491Y-74348000D01*
X182772491Y-76015000D02*
X183397491Y-76015000D01*
X183397491Y-76015000D02*
X183405491Y-76015000D01*
X183405491Y-76015000D02*
X183413491Y-76016000D01*
X183413491Y-76016000D02*
X183420491Y-76017000D01*
X183420491Y-76017000D02*
X183428491Y-76018000D01*
X183428491Y-76018000D02*
X183436491Y-76020000D01*
X183436491Y-76020000D02*
X183443491Y-76022000D01*
X183443491Y-76022000D02*
X183451491Y-76025000D01*
X183451491Y-76025000D02*
X183458491Y-76028000D01*
X183458491Y-76028000D02*
X183465491Y-76031000D01*
X183465491Y-76031000D02*
X183472491Y-76035000D01*
X183472491Y-76035000D02*
X183479491Y-76039000D01*
X183479491Y-76039000D02*
X183485491Y-76044000D01*
X183485491Y-76044000D02*
X183491491Y-76048000D01*
X183491491Y-76048000D02*
X183497491Y-76054000D01*
X183497491Y-76054000D02*
X183503491Y-76059000D01*
X183503491Y-76059000D02*
X183508491Y-76065000D01*
X183508491Y-76065000D02*
X183514491Y-76071000D01*
X183514491Y-76071000D02*
X183518491Y-76077000D01*
X183518491Y-76077000D02*
X183523491Y-76083000D01*
X183523491Y-76083000D02*
X183527491Y-76090000D01*
X183527491Y-76090000D02*
X183531491Y-76097000D01*
X183531491Y-76097000D02*
X183534491Y-76104000D01*
X183534491Y-76104000D02*
X183537491Y-76111000D01*
X183537491Y-76111000D02*
X183540491Y-76119000D01*
X183540491Y-76119000D02*
X183542491Y-76126000D01*
X183542491Y-76126000D02*
X183544491Y-76134000D01*
X183544491Y-76134000D02*
X183545491Y-76142000D01*
X183545491Y-76142000D02*
X183546491Y-76149000D01*
X183546491Y-76149000D02*
X183547491Y-76157000D01*
X183547491Y-76157000D02*
X183547491Y-76165000D01*
X183547491Y-76165000D02*
X183547491Y-76173000D01*
X183547491Y-76173000D02*
X183546491Y-76181000D01*
X183546491Y-76181000D02*
X183545491Y-76188000D01*
X183545491Y-76188000D02*
X183544491Y-76196000D01*
X183544491Y-76196000D02*
X183542491Y-76204000D01*
X183542491Y-76204000D02*
X183540491Y-76211000D01*
X183540491Y-76211000D02*
X183537491Y-76219000D01*
X183537491Y-76219000D02*
X183534491Y-76226000D01*
X183534491Y-76226000D02*
X183531491Y-76233000D01*
X183531491Y-76233000D02*
X183527491Y-76240000D01*
X183527491Y-76240000D02*
X183523491Y-76247000D01*
X183523491Y-76247000D02*
X183518491Y-76253000D01*
X183518491Y-76253000D02*
X183514491Y-76259000D01*
X183514491Y-76259000D02*
X183508491Y-76265000D01*
X183508491Y-76265000D02*
X183503491Y-76271000D01*
X183503491Y-76271000D02*
X183497491Y-76276000D01*
X183497491Y-76276000D02*
X183491491Y-76282000D01*
X183491491Y-76282000D02*
X183485491Y-76286000D01*
X183485491Y-76286000D02*
X183479491Y-76291000D01*
X183479491Y-76291000D02*
X183472491Y-76295000D01*
X183472491Y-76295000D02*
X183465491Y-76299000D01*
X183465491Y-76299000D02*
X183458491Y-76302000D01*
X183458491Y-76302000D02*
X183451491Y-76305000D01*
X183451491Y-76305000D02*
X183443491Y-76308000D01*
X183443491Y-76308000D02*
X183436491Y-76310000D01*
X183436491Y-76310000D02*
X183428491Y-76312000D01*
X183428491Y-76312000D02*
X183420491Y-76313000D01*
X183420491Y-76313000D02*
X183413491Y-76314000D01*
X183413491Y-76314000D02*
X183405491Y-76315000D01*
X183405491Y-76315000D02*
X183397491Y-76315000D01*
X183397491Y-76315000D02*
X182772491Y-76315000D01*
X182772491Y-76315000D02*
X182772491Y-76015000D01*
X182772491Y-76015000D02*
X182772491Y-76015000D01*
G36*
X183413491Y-76016000D02*
G01*
X183420491Y-76017000D01*
X183428491Y-76018000D01*
X183436491Y-76020000D01*
X183443491Y-76022000D01*
X183451491Y-76025000D01*
X183465491Y-76031000D01*
X183479491Y-76039000D01*
X183485491Y-76044000D01*
X183491491Y-76048000D01*
X183497491Y-76054000D01*
X183503491Y-76059000D01*
X183508491Y-76065000D01*
X183514491Y-76071000D01*
X183518491Y-76077000D01*
X183523491Y-76083000D01*
X183531491Y-76097000D01*
X183537491Y-76111000D01*
X183540491Y-76119000D01*
X183542491Y-76126000D01*
X183544491Y-76134000D01*
X183545491Y-76142000D01*
X183546491Y-76149000D01*
X183547491Y-76157000D01*
X183547491Y-76173000D01*
X183546491Y-76181000D01*
X183545491Y-76188000D01*
X183544491Y-76196000D01*
X183542491Y-76204000D01*
X183540491Y-76211000D01*
X183537491Y-76219000D01*
X183531491Y-76233000D01*
X183523491Y-76247000D01*
X183518491Y-76253000D01*
X183514491Y-76259000D01*
X183508491Y-76265000D01*
X183503491Y-76271000D01*
X183497491Y-76276000D01*
X183491491Y-76282000D01*
X183485491Y-76286000D01*
X183479491Y-76291000D01*
X183465491Y-76299000D01*
X183451491Y-76305000D01*
X183443491Y-76308000D01*
X183436491Y-76310000D01*
X183428491Y-76312000D01*
X183420491Y-76313000D01*
X183413491Y-76314000D01*
X183405491Y-76315000D01*
X182772491Y-76315000D01*
X182772491Y-76015000D01*
X183405491Y-76015000D01*
X183413491Y-76016000D01*
G37*
X183413491Y-76016000D02*
X183420491Y-76017000D01*
X183428491Y-76018000D01*
X183436491Y-76020000D01*
X183443491Y-76022000D01*
X183451491Y-76025000D01*
X183465491Y-76031000D01*
X183479491Y-76039000D01*
X183485491Y-76044000D01*
X183491491Y-76048000D01*
X183497491Y-76054000D01*
X183503491Y-76059000D01*
X183508491Y-76065000D01*
X183514491Y-76071000D01*
X183518491Y-76077000D01*
X183523491Y-76083000D01*
X183531491Y-76097000D01*
X183537491Y-76111000D01*
X183540491Y-76119000D01*
X183542491Y-76126000D01*
X183544491Y-76134000D01*
X183545491Y-76142000D01*
X183546491Y-76149000D01*
X183547491Y-76157000D01*
X183547491Y-76173000D01*
X183546491Y-76181000D01*
X183545491Y-76188000D01*
X183544491Y-76196000D01*
X183542491Y-76204000D01*
X183540491Y-76211000D01*
X183537491Y-76219000D01*
X183531491Y-76233000D01*
X183523491Y-76247000D01*
X183518491Y-76253000D01*
X183514491Y-76259000D01*
X183508491Y-76265000D01*
X183503491Y-76271000D01*
X183497491Y-76276000D01*
X183491491Y-76282000D01*
X183485491Y-76286000D01*
X183479491Y-76291000D01*
X183465491Y-76299000D01*
X183451491Y-76305000D01*
X183443491Y-76308000D01*
X183436491Y-76310000D01*
X183428491Y-76312000D01*
X183420491Y-76313000D01*
X183413491Y-76314000D01*
X183405491Y-76315000D01*
X182772491Y-76315000D01*
X182772491Y-76015000D01*
X183405491Y-76015000D01*
X183413491Y-76016000D01*
X182772491Y-75215000D02*
X184047491Y-75215000D01*
X184047491Y-75215000D02*
X184055491Y-75215000D01*
X184055491Y-75215000D02*
X184063491Y-75216000D01*
X184063491Y-75216000D02*
X184070491Y-75217000D01*
X184070491Y-75217000D02*
X184078491Y-75218000D01*
X184078491Y-75218000D02*
X184086491Y-75220000D01*
X184086491Y-75220000D02*
X184093491Y-75222000D01*
X184093491Y-75222000D02*
X184101491Y-75225000D01*
X184101491Y-75225000D02*
X184108491Y-75228000D01*
X184108491Y-75228000D02*
X184115491Y-75231000D01*
X184115491Y-75231000D02*
X184122491Y-75235000D01*
X184122491Y-75235000D02*
X184129491Y-75239000D01*
X184129491Y-75239000D02*
X184135491Y-75244000D01*
X184135491Y-75244000D02*
X184141491Y-75248000D01*
X184141491Y-75248000D02*
X184147491Y-75254000D01*
X184147491Y-75254000D02*
X184153491Y-75259000D01*
X184153491Y-75259000D02*
X184158491Y-75265000D01*
X184158491Y-75265000D02*
X184164491Y-75271000D01*
X184164491Y-75271000D02*
X184168491Y-75277000D01*
X184168491Y-75277000D02*
X184173491Y-75283000D01*
X184173491Y-75283000D02*
X184177491Y-75290000D01*
X184177491Y-75290000D02*
X184181491Y-75297000D01*
X184181491Y-75297000D02*
X184184491Y-75304000D01*
X184184491Y-75304000D02*
X184187491Y-75311000D01*
X184187491Y-75311000D02*
X184190491Y-75319000D01*
X184190491Y-75319000D02*
X184192491Y-75326000D01*
X184192491Y-75326000D02*
X184194491Y-75334000D01*
X184194491Y-75334000D02*
X184195491Y-75342000D01*
X184195491Y-75342000D02*
X184196491Y-75349000D01*
X184196491Y-75349000D02*
X184197491Y-75357000D01*
X184197491Y-75357000D02*
X184197491Y-75365000D01*
X184197491Y-75365000D02*
X184197491Y-75373000D01*
X184197491Y-75373000D02*
X184196491Y-75381000D01*
X184196491Y-75381000D02*
X184195491Y-75388000D01*
X184195491Y-75388000D02*
X184194491Y-75396000D01*
X184194491Y-75396000D02*
X184192491Y-75404000D01*
X184192491Y-75404000D02*
X184190491Y-75411000D01*
X184190491Y-75411000D02*
X184187491Y-75419000D01*
X184187491Y-75419000D02*
X184184491Y-75426000D01*
X184184491Y-75426000D02*
X184181491Y-75433000D01*
X184181491Y-75433000D02*
X184177491Y-75440000D01*
X184177491Y-75440000D02*
X184173491Y-75447000D01*
X184173491Y-75447000D02*
X184168491Y-75453000D01*
X184168491Y-75453000D02*
X184164491Y-75459000D01*
X184164491Y-75459000D02*
X184158491Y-75465000D01*
X184158491Y-75465000D02*
X184153491Y-75471000D01*
X184153491Y-75471000D02*
X184147491Y-75476000D01*
X184147491Y-75476000D02*
X184141491Y-75482000D01*
X184141491Y-75482000D02*
X184135491Y-75486000D01*
X184135491Y-75486000D02*
X184129491Y-75491000D01*
X184129491Y-75491000D02*
X184122491Y-75495000D01*
X184122491Y-75495000D02*
X184115491Y-75499000D01*
X184115491Y-75499000D02*
X184108491Y-75502000D01*
X184108491Y-75502000D02*
X184101491Y-75505000D01*
X184101491Y-75505000D02*
X184093491Y-75508000D01*
X184093491Y-75508000D02*
X184086491Y-75510000D01*
X184086491Y-75510000D02*
X184078491Y-75512000D01*
X184078491Y-75512000D02*
X184070491Y-75513000D01*
X184070491Y-75513000D02*
X184063491Y-75514000D01*
X184063491Y-75514000D02*
X184055491Y-75515000D01*
X184055491Y-75515000D02*
X184047491Y-75515000D01*
X184047491Y-75515000D02*
X182772491Y-75515000D01*
X182772491Y-75515000D02*
X182772491Y-75215000D01*
X182772491Y-75215000D02*
X182772491Y-75215000D01*
G36*
X184063491Y-75216000D02*
G01*
X184070491Y-75217000D01*
X184078491Y-75218000D01*
X184086491Y-75220000D01*
X184093491Y-75222000D01*
X184101491Y-75225000D01*
X184115491Y-75231000D01*
X184129491Y-75239000D01*
X184135491Y-75244000D01*
X184141491Y-75248000D01*
X184147491Y-75254000D01*
X184153491Y-75259000D01*
X184158491Y-75265000D01*
X184164491Y-75271000D01*
X184168491Y-75277000D01*
X184173491Y-75283000D01*
X184181491Y-75297000D01*
X184187491Y-75311000D01*
X184190491Y-75319000D01*
X184192491Y-75326000D01*
X184194491Y-75334000D01*
X184195491Y-75342000D01*
X184196491Y-75349000D01*
X184197491Y-75357000D01*
X184197491Y-75373000D01*
X184196491Y-75381000D01*
X184195491Y-75388000D01*
X184194491Y-75396000D01*
X184192491Y-75404000D01*
X184190491Y-75411000D01*
X184187491Y-75419000D01*
X184181491Y-75433000D01*
X184173491Y-75447000D01*
X184168491Y-75453000D01*
X184164491Y-75459000D01*
X184158491Y-75465000D01*
X184153491Y-75471000D01*
X184147491Y-75476000D01*
X184141491Y-75482000D01*
X184135491Y-75486000D01*
X184129491Y-75491000D01*
X184115491Y-75499000D01*
X184101491Y-75505000D01*
X184093491Y-75508000D01*
X184086491Y-75510000D01*
X184078491Y-75512000D01*
X184070491Y-75513000D01*
X184063491Y-75514000D01*
X184055491Y-75515000D01*
X182772491Y-75515000D01*
X182772491Y-75215000D01*
X184055491Y-75215000D01*
X184063491Y-75216000D01*
G37*
X184063491Y-75216000D02*
X184070491Y-75217000D01*
X184078491Y-75218000D01*
X184086491Y-75220000D01*
X184093491Y-75222000D01*
X184101491Y-75225000D01*
X184115491Y-75231000D01*
X184129491Y-75239000D01*
X184135491Y-75244000D01*
X184141491Y-75248000D01*
X184147491Y-75254000D01*
X184153491Y-75259000D01*
X184158491Y-75265000D01*
X184164491Y-75271000D01*
X184168491Y-75277000D01*
X184173491Y-75283000D01*
X184181491Y-75297000D01*
X184187491Y-75311000D01*
X184190491Y-75319000D01*
X184192491Y-75326000D01*
X184194491Y-75334000D01*
X184195491Y-75342000D01*
X184196491Y-75349000D01*
X184197491Y-75357000D01*
X184197491Y-75373000D01*
X184196491Y-75381000D01*
X184195491Y-75388000D01*
X184194491Y-75396000D01*
X184192491Y-75404000D01*
X184190491Y-75411000D01*
X184187491Y-75419000D01*
X184181491Y-75433000D01*
X184173491Y-75447000D01*
X184168491Y-75453000D01*
X184164491Y-75459000D01*
X184158491Y-75465000D01*
X184153491Y-75471000D01*
X184147491Y-75476000D01*
X184141491Y-75482000D01*
X184135491Y-75486000D01*
X184129491Y-75491000D01*
X184115491Y-75499000D01*
X184101491Y-75505000D01*
X184093491Y-75508000D01*
X184086491Y-75510000D01*
X184078491Y-75512000D01*
X184070491Y-75513000D01*
X184063491Y-75514000D01*
X184055491Y-75515000D01*
X182772491Y-75515000D01*
X182772491Y-75215000D01*
X184055491Y-75215000D01*
X184063491Y-75216000D01*
X186472491Y-76315000D02*
X185447491Y-76315000D01*
X185447491Y-76315000D02*
X185439491Y-76315000D01*
X185439491Y-76315000D02*
X185431491Y-76314000D01*
X185431491Y-76314000D02*
X185424491Y-76313000D01*
X185424491Y-76313000D02*
X185416491Y-76312000D01*
X185416491Y-76312000D02*
X185408491Y-76310000D01*
X185408491Y-76310000D02*
X185401491Y-76308000D01*
X185401491Y-76308000D02*
X185393491Y-76305000D01*
X185393491Y-76305000D02*
X185386491Y-76302000D01*
X185386491Y-76302000D02*
X185379491Y-76299000D01*
X185379491Y-76299000D02*
X185372491Y-76295000D01*
X185372491Y-76295000D02*
X185365491Y-76291000D01*
X185365491Y-76291000D02*
X185359491Y-76286000D01*
X185359491Y-76286000D02*
X185353491Y-76282000D01*
X185353491Y-76282000D02*
X185347491Y-76276000D01*
X185347491Y-76276000D02*
X185341491Y-76271000D01*
X185341491Y-76271000D02*
X185336491Y-76265000D01*
X185336491Y-76265000D02*
X185330491Y-76259000D01*
X185330491Y-76259000D02*
X185326491Y-76253000D01*
X185326491Y-76253000D02*
X185321491Y-76247000D01*
X185321491Y-76247000D02*
X185317491Y-76240000D01*
X185317491Y-76240000D02*
X185313491Y-76233000D01*
X185313491Y-76233000D02*
X185310491Y-76226000D01*
X185310491Y-76226000D02*
X185307491Y-76219000D01*
X185307491Y-76219000D02*
X185304491Y-76211000D01*
X185304491Y-76211000D02*
X185302491Y-76204000D01*
X185302491Y-76204000D02*
X185300491Y-76196000D01*
X185300491Y-76196000D02*
X185299491Y-76188000D01*
X185299491Y-76188000D02*
X185298491Y-76181000D01*
X185298491Y-76181000D02*
X185297491Y-76173000D01*
X185297491Y-76173000D02*
X185297491Y-76165000D01*
X185297491Y-76165000D02*
X185297491Y-75765000D01*
X185297491Y-75765000D02*
X185297491Y-75757000D01*
X185297491Y-75757000D02*
X185298491Y-75749000D01*
X185298491Y-75749000D02*
X185299491Y-75742000D01*
X185299491Y-75742000D02*
X185300491Y-75734000D01*
X185300491Y-75734000D02*
X185302491Y-75726000D01*
X185302491Y-75726000D02*
X185304491Y-75719000D01*
X185304491Y-75719000D02*
X185307491Y-75711000D01*
X185307491Y-75711000D02*
X185310491Y-75704000D01*
X185310491Y-75704000D02*
X185313491Y-75697000D01*
X185313491Y-75697000D02*
X185317491Y-75690000D01*
X185317491Y-75690000D02*
X185321491Y-75683000D01*
X185321491Y-75683000D02*
X185326491Y-75677000D01*
X185326491Y-75677000D02*
X185330491Y-75671000D01*
X185330491Y-75671000D02*
X185336491Y-75665000D01*
X185336491Y-75665000D02*
X185341491Y-75659000D01*
X185341491Y-75659000D02*
X185347491Y-75654000D01*
X185347491Y-75654000D02*
X185353491Y-75648000D01*
X185353491Y-75648000D02*
X185359491Y-75644000D01*
X185359491Y-75644000D02*
X185365491Y-75639000D01*
X185365491Y-75639000D02*
X185372491Y-75635000D01*
X185372491Y-75635000D02*
X185379491Y-75631000D01*
X185379491Y-75631000D02*
X185386491Y-75628000D01*
X185386491Y-75628000D02*
X185393491Y-75625000D01*
X185393491Y-75625000D02*
X185401491Y-75622000D01*
X185401491Y-75622000D02*
X185408491Y-75620000D01*
X185408491Y-75620000D02*
X185416491Y-75618000D01*
X185416491Y-75618000D02*
X185424491Y-75617000D01*
X185424491Y-75617000D02*
X185431491Y-75616000D01*
X185431491Y-75616000D02*
X185439491Y-75615000D01*
X185439491Y-75615000D02*
X185447491Y-75615000D01*
X185447491Y-75615000D02*
X186472491Y-75615000D01*
X186472491Y-75615000D02*
X186472491Y-76315000D01*
X186472491Y-76315000D02*
X186472491Y-76315000D01*
G36*
X186472491Y-76315000D02*
G01*
X185439491Y-76315000D01*
X185431491Y-76314000D01*
X185424491Y-76313000D01*
X185416491Y-76312000D01*
X185408491Y-76310000D01*
X185401491Y-76308000D01*
X185393491Y-76305000D01*
X185379491Y-76299000D01*
X185365491Y-76291000D01*
X185359491Y-76286000D01*
X185353491Y-76282000D01*
X185347491Y-76276000D01*
X185341491Y-76271000D01*
X185336491Y-76265000D01*
X185330491Y-76259000D01*
X185326491Y-76253000D01*
X185321491Y-76247000D01*
X185313491Y-76233000D01*
X185307491Y-76219000D01*
X185304491Y-76211000D01*
X185302491Y-76204000D01*
X185300491Y-76196000D01*
X185299491Y-76188000D01*
X185298491Y-76181000D01*
X185297491Y-76173000D01*
X185297491Y-75757000D01*
X185298491Y-75749000D01*
X185299491Y-75742000D01*
X185300491Y-75734000D01*
X185302491Y-75726000D01*
X185304491Y-75719000D01*
X185307491Y-75711000D01*
X185313491Y-75697000D01*
X185321491Y-75683000D01*
X185326491Y-75677000D01*
X185330491Y-75671000D01*
X185336491Y-75665000D01*
X185341491Y-75659000D01*
X185347491Y-75654000D01*
X185353491Y-75648000D01*
X185359491Y-75644000D01*
X185365491Y-75639000D01*
X185379491Y-75631000D01*
X185393491Y-75625000D01*
X185401491Y-75622000D01*
X185408491Y-75620000D01*
X185416491Y-75618000D01*
X185424491Y-75617000D01*
X185431491Y-75616000D01*
X185439491Y-75615000D01*
X186472491Y-75615000D01*
X186472491Y-76315000D01*
G37*
X186472491Y-76315000D02*
X185439491Y-76315000D01*
X185431491Y-76314000D01*
X185424491Y-76313000D01*
X185416491Y-76312000D01*
X185408491Y-76310000D01*
X185401491Y-76308000D01*
X185393491Y-76305000D01*
X185379491Y-76299000D01*
X185365491Y-76291000D01*
X185359491Y-76286000D01*
X185353491Y-76282000D01*
X185347491Y-76276000D01*
X185341491Y-76271000D01*
X185336491Y-76265000D01*
X185330491Y-76259000D01*
X185326491Y-76253000D01*
X185321491Y-76247000D01*
X185313491Y-76233000D01*
X185307491Y-76219000D01*
X185304491Y-76211000D01*
X185302491Y-76204000D01*
X185300491Y-76196000D01*
X185299491Y-76188000D01*
X185298491Y-76181000D01*
X185297491Y-76173000D01*
X185297491Y-75757000D01*
X185298491Y-75749000D01*
X185299491Y-75742000D01*
X185300491Y-75734000D01*
X185302491Y-75726000D01*
X185304491Y-75719000D01*
X185307491Y-75711000D01*
X185313491Y-75697000D01*
X185321491Y-75683000D01*
X185326491Y-75677000D01*
X185330491Y-75671000D01*
X185336491Y-75665000D01*
X185341491Y-75659000D01*
X185347491Y-75654000D01*
X185353491Y-75648000D01*
X185359491Y-75644000D01*
X185365491Y-75639000D01*
X185379491Y-75631000D01*
X185393491Y-75625000D01*
X185401491Y-75622000D01*
X185408491Y-75620000D01*
X185416491Y-75618000D01*
X185424491Y-75617000D01*
X185431491Y-75616000D01*
X185439491Y-75615000D01*
X186472491Y-75615000D01*
X186472491Y-76315000D01*
%TD*%
D11*
%TO.C,U6*%
X121607500Y-136865000D03*
X121607500Y-136215000D03*
X121607500Y-135565000D03*
X121607500Y-134915000D03*
X115882500Y-134915000D03*
X115882500Y-135565000D03*
X115882500Y-136215000D03*
X115882500Y-136865000D03*
%TD*%
D12*
%TO.C,TP27*%
X152790000Y-80279999D03*
%TD*%
%TO.C,TP21*%
X147980000Y-83290000D03*
%TD*%
%TO.C,TP20*%
X156790000Y-78740000D03*
%TD*%
%TO.C,TP6*%
X149740000Y-80240000D03*
%TD*%
%TO.C,TP2*%
X183570000Y-69880000D03*
%TD*%
D13*
%TO.C,R15*%
X161690000Y-78790000D03*
X159690000Y-78790000D03*
%TD*%
%TO.C,R1*%
X188510000Y-66890000D03*
X186510000Y-66890000D03*
%TD*%
D14*
%TO.C,J3*%
X140645000Y-66605000D03*
D15*
X147645000Y-66605000D03*
D14*
X143145000Y-66605000D03*
X145145000Y-66605000D03*
D16*
X137745000Y-65405000D03*
X150545000Y-65405000D03*
%TD*%
D17*
%TO.C,J2*%
X110490000Y-127949999D03*
D18*
X110490000Y-131549999D03*
X110490000Y-135149999D03*
X110490000Y-138749999D03*
%TD*%
D19*
%TO.C,F1*%
X172937500Y-86360000D03*
X169962500Y-86360000D03*
%TD*%
D20*
%TO.C,D1*%
X188490000Y-69885000D03*
X186440000Y-69885000D03*
%TD*%
D21*
%TO.C,C14*%
X152947500Y-83310000D03*
X150872500Y-83310000D03*
%TD*%
D22*
%TO.C,REF\u002A\u002A*%
X200297000Y-136462000D03*
%TD*%
D23*
%TO.C,R22*%
X130175000Y-101600000D03*
X130175000Y-99600000D03*
%TD*%
D12*
%TO.C,TP26*%
X155919999Y-102815000D03*
%TD*%
D24*
%TO.C,SW9*%
X170600008Y-118169928D03*
X176600008Y-118169928D03*
X170600008Y-121869928D03*
X176600008Y-121869928D03*
D25*
X173600008Y-117519928D03*
X173600008Y-122519928D03*
%TD*%
D21*
%TO.C,C4*%
X193837500Y-76200000D03*
X191762500Y-76200000D03*
%TD*%
D23*
%TO.C,R48*%
X152919999Y-102965000D03*
X152919999Y-100965000D03*
%TD*%
D12*
%TO.C,TP5*%
X166740000Y-88900000D03*
%TD*%
D26*
%TO.C,L1*%
X191135000Y-78847500D03*
X191135000Y-81172500D03*
%TD*%
D23*
%TO.C,R47*%
X152919999Y-107715001D03*
X152919999Y-105715001D03*
%TD*%
D27*
%TO.C,C19*%
X109855000Y-121517500D03*
X109855000Y-123592500D03*
%TD*%
D23*
%TO.C,R4*%
X189865000Y-133470000D03*
X189865000Y-131470000D03*
%TD*%
D28*
%TO.C,R12*%
X167275000Y-92710000D03*
X169275000Y-92710000D03*
%TD*%
%TO.C,R34*%
X179975000Y-102870000D03*
X181975000Y-102870000D03*
%TD*%
D12*
%TO.C,TP7*%
X143256000Y-108712000D03*
%TD*%
D29*
%TO.C,C3*%
X187960000Y-73427500D03*
X187960000Y-71352500D03*
%TD*%
D30*
%TO.C,C22*%
X158982500Y-113665000D03*
X161057500Y-113665000D03*
%TD*%
D27*
%TO.C,C20*%
X176530000Y-124692500D03*
X176530000Y-126767500D03*
%TD*%
D28*
%TO.C,R16*%
X145304000Y-114935000D03*
X147304000Y-114935000D03*
%TD*%
D13*
%TO.C,R31*%
X161020000Y-117475000D03*
X159020000Y-117475000D03*
%TD*%
D24*
%TO.C,SW3*%
X184600006Y-91419994D03*
X190600006Y-91419994D03*
X184600006Y-95119994D03*
X190600006Y-95119994D03*
D25*
X187600006Y-90769994D03*
X187600006Y-95769994D03*
%TD*%
D28*
%TO.C,R35*%
X179975000Y-106680000D03*
X181975000Y-106680000D03*
%TD*%
D31*
%TO.C,L2*%
X178800000Y-89535000D03*
X176475000Y-89535000D03*
%TD*%
D12*
%TO.C,TP18*%
X154940000Y-113284000D03*
%TD*%
D29*
%TO.C,C17*%
X195580000Y-88667500D03*
X195580000Y-86592500D03*
%TD*%
D27*
%TO.C,C23*%
X182245000Y-122152500D03*
X182245000Y-124227500D03*
%TD*%
%TO.C,C25*%
X189865000Y-114532500D03*
X189865000Y-116607500D03*
%TD*%
D12*
%TO.C,TP10*%
X162560000Y-121285000D03*
%TD*%
%TO.C,TP23*%
X189865000Y-108585000D03*
%TD*%
D23*
%TO.C,R28*%
X135890000Y-118475000D03*
X135890000Y-116475000D03*
%TD*%
D13*
%TO.C,R30*%
X161020000Y-109855000D03*
X159020000Y-109855000D03*
%TD*%
D21*
%TO.C,C15*%
X147341500Y-118744999D03*
X145266500Y-118744999D03*
%TD*%
D23*
%TO.C,R33*%
X179705000Y-124190000D03*
X179705000Y-122190000D03*
%TD*%
D24*
%TO.C,SW1*%
X119199996Y-116120003D03*
X113199996Y-116120003D03*
X119199996Y-112420003D03*
X113199996Y-112420003D03*
D25*
X116199996Y-116770003D03*
X116199996Y-111770003D03*
%TD*%
D32*
%TO.C,SW8*%
X164249998Y-115519917D03*
X164249998Y-109519917D03*
X167949998Y-115519917D03*
X167949998Y-109519917D03*
D33*
X163599998Y-112519917D03*
X168599998Y-112519917D03*
%TD*%
D22*
%TO.C,REF\u002A\u002A*%
X185400000Y-63470000D03*
%TD*%
D24*
%TO.C,SW7*%
X127799992Y-112420003D03*
X133799992Y-112420003D03*
X127799992Y-116120003D03*
X133799992Y-116120003D03*
D25*
X130799992Y-111770003D03*
X130799992Y-116770003D03*
%TD*%
D34*
%TO.C,R32*%
X179705000Y-118380000D03*
X179705000Y-120380000D03*
%TD*%
D32*
%TO.C,SW12*%
X154359999Y-125430001D03*
X154359999Y-119430001D03*
X158059999Y-125430001D03*
X158059999Y-119430001D03*
D33*
X153709999Y-122430001D03*
X158709999Y-122430001D03*
%TD*%
D32*
%TO.C,SW13*%
X147209999Y-125430000D03*
X147209999Y-119430000D03*
X150909999Y-125430000D03*
X150909999Y-119430000D03*
D33*
X146559999Y-122430000D03*
X151559999Y-122430000D03*
%TD*%
D21*
%TO.C,C18*%
X122957500Y-99695000D03*
X120882500Y-99695000D03*
%TD*%
D35*
%TO.C,D2*%
X186055000Y-135915000D03*
X186055000Y-137965000D03*
%TD*%
D23*
%TO.C,R24*%
X170180000Y-126730000D03*
X170180000Y-124730000D03*
%TD*%
D36*
%TO.C,C2*%
X173990000Y-76427500D03*
X173990000Y-74702500D03*
%TD*%
D34*
%TO.C,R19*%
X198120000Y-93980000D03*
X198120000Y-95980000D03*
%TD*%
D27*
%TO.C,C21*%
X139700000Y-116437500D03*
X139700000Y-118512500D03*
%TD*%
D12*
%TO.C,TP9*%
X109855000Y-118110000D03*
%TD*%
D34*
%TO.C,R26*%
X135890000Y-112665000D03*
X135890000Y-114665000D03*
%TD*%
D28*
%TO.C,R18*%
X193310000Y-91440000D03*
X195310000Y-91440000D03*
%TD*%
D30*
%TO.C,C16*%
X193272500Y-93980000D03*
X195347500Y-93980000D03*
%TD*%
%TO.C,C24*%
X185017500Y-106680000D03*
X187092500Y-106680000D03*
%TD*%
D23*
%TO.C,R14*%
X147320001Y-122919999D03*
X147320001Y-120919999D03*
%TD*%
D29*
%TO.C,C5*%
X191135000Y-71522500D03*
X191135000Y-69447500D03*
%TD*%
D37*
%TO.C,R6*%
X178907500Y-76557500D03*
X178907500Y-78382500D03*
%TD*%
D23*
%TO.C,R13*%
X111125000Y-108315000D03*
X111125000Y-106315000D03*
%TD*%
%TO.C,R17*%
X191770000Y-88630000D03*
X191770000Y-86630000D03*
%TD*%
%TO.C,R37*%
X187325000Y-116570000D03*
X187325000Y-114570000D03*
%TD*%
%TO.C,R20*%
X126365000Y-101600000D03*
X126365000Y-99600000D03*
%TD*%
D12*
%TO.C,TP4*%
X169275000Y-94615000D03*
%TD*%
D35*
%TO.C,D3*%
X189865000Y-135890000D03*
X189865000Y-137940000D03*
%TD*%
D34*
%TO.C,R36*%
X187325000Y-110760000D03*
X187325000Y-112760000D03*
%TD*%
D12*
%TO.C,TP27*%
X150019999Y-98065000D03*
%TD*%
D23*
%TO.C,R21*%
X116840000Y-123555000D03*
X116840000Y-121555000D03*
%TD*%
D22*
%TO.C,REF\u002A\u002A*%
X200297000Y-88464000D03*
%TD*%
D29*
%TO.C,C7*%
X194945000Y-71522500D03*
X194945000Y-69447500D03*
%TD*%
D12*
%TO.C,TP1*%
X118745000Y-67310000D03*
%TD*%
D37*
%TO.C,R7*%
X176367500Y-76557500D03*
X176367500Y-78382500D03*
%TD*%
D12*
%TO.C,TP19*%
X183515000Y-119380000D03*
%TD*%
D24*
%TO.C,SW4*%
X120500007Y-105119992D03*
X126500007Y-105119992D03*
X120500007Y-108819992D03*
X126500007Y-108819992D03*
D25*
X123500007Y-104469992D03*
X123500007Y-109469992D03*
%TD*%
D38*
%TO.C,U4*%
X174350001Y-93584999D03*
X174350001Y-92935000D03*
D39*
X174099999Y-92053899D03*
X173450000Y-92053899D03*
X172800001Y-92053899D03*
D38*
X172549999Y-92935000D03*
X172549999Y-93584999D03*
D40*
X173450000Y-93765001D03*
%TD*%
D12*
%TO.C,TP3*%
X169275000Y-97790000D03*
%TD*%
D23*
%TO.C,R43*%
X146959999Y-98095000D03*
X146959999Y-96095000D03*
%TD*%
%TO.C,R25*%
X172720000Y-126730000D03*
X172720000Y-124730000D03*
%TD*%
D30*
%TO.C,C12*%
X170777500Y-89535000D03*
X172852500Y-89535000D03*
%TD*%
D24*
%TO.C,SW2*%
X153100005Y-130619923D03*
X147100005Y-130619923D03*
X153100005Y-126919923D03*
X147100005Y-126919923D03*
D25*
X150100005Y-131269923D03*
X150100005Y-126269923D03*
%TD*%
D41*
%TO.C,C8*%
X185827500Y-86995000D03*
X187552500Y-86995000D03*
%TD*%
D30*
%TO.C,C11*%
X184382500Y-83820000D03*
X186457500Y-83820000D03*
%TD*%
%TO.C,C9*%
X184382500Y-81280000D03*
X186457500Y-81280000D03*
%TD*%
D12*
%TO.C,TP28*%
X158869999Y-106585000D03*
%TD*%
%TO.C,TP8*%
X130175000Y-97155000D03*
%TD*%
D13*
%TO.C,R11*%
X174720000Y-97790000D03*
X172720000Y-97790000D03*
%TD*%
D23*
%TO.C,R23*%
X113665000Y-123555000D03*
X113665000Y-121555000D03*
%TD*%
%TO.C,R5*%
X186055000Y-133495000D03*
X186055000Y-131495000D03*
%TD*%
D12*
%TO.C,TP25*%
X153069999Y-98065000D03*
%TD*%
D24*
%TO.C,SW11*%
X178099993Y-110669917D03*
X184099993Y-110669917D03*
X178099993Y-114369917D03*
X184099993Y-114369917D03*
D25*
X181099993Y-110019917D03*
X181099993Y-115019917D03*
%TD*%
D12*
%TO.C,TP24*%
X121920000Y-67310000D03*
%TD*%
D21*
%TO.C,C6*%
X183120000Y-78740000D03*
X181045000Y-78740000D03*
%TD*%
D29*
%TO.C,C32*%
X161289999Y-125862500D03*
X161289999Y-123787500D03*
%TD*%
%TO.C,C31*%
X161290000Y-121052500D03*
X161290000Y-118977500D03*
%TD*%
D24*
%TO.C,SW5*%
X126500007Y-123319988D03*
X120500007Y-123319988D03*
X126500007Y-119619988D03*
X120500007Y-119619988D03*
D25*
X123500007Y-123969988D03*
X123500007Y-118969988D03*
%TD*%
D24*
%TO.C,SW6*%
X159600005Y-126919923D03*
X165600005Y-126919923D03*
X159600005Y-130619923D03*
X165600005Y-130619923D03*
D25*
X162600005Y-126269923D03*
X162600005Y-131269923D03*
%TD*%
D24*
%TO.C,SW10*%
X170600008Y-103169907D03*
X176600008Y-103169907D03*
X170600008Y-106869907D03*
X176600008Y-106869907D03*
D25*
X173600008Y-102519907D03*
X173600008Y-107519907D03*
%TD*%
D30*
%TO.C,C13*%
X170777500Y-86360000D03*
X172852500Y-86360000D03*
%TD*%
D12*
%TO.C,TP11*%
X139700000Y-113030000D03*
%TD*%
%TO.C,TP22*%
X184785000Y-102870000D03*
%TD*%
D23*
%TO.C,R44*%
X161259999Y-116235000D03*
X161259999Y-114235000D03*
%TD*%
D12*
%TO.C,TP14*%
X201930000Y-119380000D03*
%TD*%
D42*
%TO.C,J6*%
X137795000Y-133945000D03*
X137795000Y-126945000D03*
%TD*%
D12*
%TO.C,TP12*%
X195580000Y-119380000D03*
%TD*%
%TO.C,TP13*%
X195580000Y-126365000D03*
%TD*%
%TO.C,TP15*%
X201930000Y-126365000D03*
%TD*%
%TO.C,TP16*%
X195580000Y-112014000D03*
%TD*%
D43*
%TO.C,Module1*%
X112525000Y-76845000D03*
X160525000Y-109845000D03*
X160525000Y-76845000D03*
X112525000Y-109845000D03*
%TD*%
D12*
%TO.C,TP28*%
X149352000Y-118872000D03*
%TD*%
D44*
%TO.C,BT1*%
X167915000Y-69830000D03*
D45*
X167915000Y-67330000D03*
%TD*%
D46*
%TO.C,J4*%
X197327500Y-76550000D03*
X197327500Y-70770000D03*
%TD*%
D12*
%TO.C,TP17*%
X201930000Y-112014001D03*
%TD*%
M02*
