%TF.GenerationSoftware,KiCad,Pcbnew,(6.0.0)*%
%TF.CreationDate,2022-05-02T00:50:15+01:00*%
%TF.ProjectId,CM4Carrier,434d3443-6172-4726-9965-722e6b696361,indev*%
%TF.SameCoordinates,Original*%
%TF.FileFunction,Legend,Bot*%
%TF.FilePolarity,Positive*%
%FSLAX46Y46*%
G04 Gerber Fmt 4.6, Leading zero omitted, Abs format (unit mm)*
G04 Created by KiCad (PCBNEW (6.0.0)) date 2022-05-02 00:50:15*
%MOMM*%
%LPD*%
G01*
G04 APERTURE LIST*
%ADD10C,0.300000*%
%ADD11C,0.150000*%
%ADD12C,0.200000*%
%ADD13C,0.120000*%
%ADD14C,0.127000*%
G04 APERTURE END LIST*
D10*
X202354571Y-103564857D02*
X200854571Y-103564857D01*
X202354571Y-104422000D01*
X200854571Y-104422000D01*
X201926000Y-105064857D02*
X201926000Y-105779142D01*
X202354571Y-104922000D02*
X200854571Y-105422000D01*
X202354571Y-105922000D01*
X202354571Y-106422000D02*
X200854571Y-106422000D01*
X202354571Y-107279142D01*
X200854571Y-107279142D01*
X202354571Y-107993428D02*
X200854571Y-107993428D01*
X200854571Y-108350571D01*
X200926000Y-108564857D01*
X201068857Y-108707714D01*
X201211714Y-108779142D01*
X201497428Y-108850571D01*
X201711714Y-108850571D01*
X201997428Y-108779142D01*
X202140285Y-108707714D01*
X202283142Y-108564857D01*
X202354571Y-108350571D01*
X202354571Y-107993428D01*
D11*
%TO.C,J3*%
X178839333Y-126664880D02*
X178839333Y-127379166D01*
X178886952Y-127522023D01*
X178982190Y-127617261D01*
X179125047Y-127664880D01*
X179220285Y-127664880D01*
X178458380Y-126664880D02*
X177839333Y-126664880D01*
X178172666Y-127045833D01*
X178029809Y-127045833D01*
X177934571Y-127093452D01*
X177886952Y-127141071D01*
X177839333Y-127236309D01*
X177839333Y-127474404D01*
X177886952Y-127569642D01*
X177934571Y-127617261D01*
X178029809Y-127664880D01*
X178315523Y-127664880D01*
X178410761Y-127617261D01*
X178458380Y-127569642D01*
%TO.C,TP14*%
X201382380Y-121451904D02*
X201382380Y-122023333D01*
X202382380Y-121737619D02*
X201382380Y-121737619D01*
X202382380Y-122356666D02*
X201382380Y-122356666D01*
X201382380Y-122737619D01*
X201430000Y-122832857D01*
X201477619Y-122880476D01*
X201572857Y-122928095D01*
X201715714Y-122928095D01*
X201810952Y-122880476D01*
X201858571Y-122832857D01*
X201906190Y-122737619D01*
X201906190Y-122356666D01*
X202382380Y-123880476D02*
X202382380Y-123309047D01*
X202382380Y-123594761D02*
X201382380Y-123594761D01*
X201525238Y-123499523D01*
X201620476Y-123404285D01*
X201668095Y-123309047D01*
X201715714Y-124737619D02*
X202382380Y-124737619D01*
X201334761Y-124499523D02*
X202049047Y-124261428D01*
X202049047Y-124880476D01*
%TO.C,SW14*%
X124984518Y-117239674D02*
X124841661Y-117287293D01*
X124603566Y-117287293D01*
X124508328Y-117239674D01*
X124460709Y-117192055D01*
X124413090Y-117096817D01*
X124413090Y-117001579D01*
X124460709Y-116906341D01*
X124508328Y-116858722D01*
X124603566Y-116811103D01*
X124794042Y-116763484D01*
X124889280Y-116715865D01*
X124936899Y-116668246D01*
X124984518Y-116573008D01*
X124984518Y-116477770D01*
X124936899Y-116382532D01*
X124889280Y-116334913D01*
X124794042Y-116287293D01*
X124555947Y-116287293D01*
X124413090Y-116334913D01*
X124079756Y-116287293D02*
X123841661Y-117287293D01*
X123651185Y-116573008D01*
X123460709Y-117287293D01*
X123222614Y-116287293D01*
X122317852Y-117287293D02*
X122889280Y-117287293D01*
X122603566Y-117287293D02*
X122603566Y-116287293D01*
X122698804Y-116430151D01*
X122794042Y-116525389D01*
X122889280Y-116573008D01*
X121460709Y-116620627D02*
X121460709Y-117287293D01*
X121698804Y-116239674D02*
X121936899Y-116953960D01*
X121317852Y-116953960D01*
%TO.C,J6*%
X140668333Y-140162380D02*
X140668333Y-140876666D01*
X140715952Y-141019523D01*
X140811190Y-141114761D01*
X140954047Y-141162380D01*
X141049285Y-141162380D01*
X139763571Y-140162380D02*
X139954047Y-140162380D01*
X140049285Y-140210000D01*
X140096904Y-140257619D01*
X140192142Y-140400476D01*
X140239761Y-140590952D01*
X140239761Y-140971904D01*
X140192142Y-141067142D01*
X140144523Y-141114761D01*
X140049285Y-141162380D01*
X139858809Y-141162380D01*
X139763571Y-141114761D01*
X139715952Y-141067142D01*
X139668333Y-140971904D01*
X139668333Y-140733809D01*
X139715952Y-140638571D01*
X139763571Y-140590952D01*
X139858809Y-140543333D01*
X140049285Y-140543333D01*
X140144523Y-140590952D01*
X140192142Y-140638571D01*
X140239761Y-140733809D01*
%TO.C,TP12*%
X195032380Y-121451904D02*
X195032380Y-122023333D01*
X196032380Y-121737619D02*
X195032380Y-121737619D01*
X196032380Y-122356666D02*
X195032380Y-122356666D01*
X195032380Y-122737619D01*
X195080000Y-122832857D01*
X195127619Y-122880476D01*
X195222857Y-122928095D01*
X195365714Y-122928095D01*
X195460952Y-122880476D01*
X195508571Y-122832857D01*
X195556190Y-122737619D01*
X195556190Y-122356666D01*
X196032380Y-123880476D02*
X196032380Y-123309047D01*
X196032380Y-123594761D02*
X195032380Y-123594761D01*
X195175238Y-123499523D01*
X195270476Y-123404285D01*
X195318095Y-123309047D01*
X195127619Y-124261428D02*
X195080000Y-124309047D01*
X195032380Y-124404285D01*
X195032380Y-124642380D01*
X195080000Y-124737619D01*
X195127619Y-124785238D01*
X195222857Y-124832857D01*
X195318095Y-124832857D01*
X195460952Y-124785238D01*
X196032380Y-124213809D01*
X196032380Y-124832857D01*
X197778666Y-119141904D02*
X197778666Y-119618095D01*
X198064380Y-119046666D02*
X197064380Y-119380000D01*
X198064380Y-119713333D01*
%TO.C,TP13*%
X195032380Y-128436904D02*
X195032380Y-129008333D01*
X196032380Y-128722619D02*
X195032380Y-128722619D01*
X196032380Y-129341666D02*
X195032380Y-129341666D01*
X195032380Y-129722619D01*
X195080000Y-129817857D01*
X195127619Y-129865476D01*
X195222857Y-129913095D01*
X195365714Y-129913095D01*
X195460952Y-129865476D01*
X195508571Y-129817857D01*
X195556190Y-129722619D01*
X195556190Y-129341666D01*
X196032380Y-130865476D02*
X196032380Y-130294047D01*
X196032380Y-130579761D02*
X195032380Y-130579761D01*
X195175238Y-130484523D01*
X195270476Y-130389285D01*
X195318095Y-130294047D01*
X195032380Y-131198809D02*
X195032380Y-131817857D01*
X195413333Y-131484523D01*
X195413333Y-131627380D01*
X195460952Y-131722619D01*
X195508571Y-131770238D01*
X195603809Y-131817857D01*
X195841904Y-131817857D01*
X195937142Y-131770238D01*
X195984761Y-131722619D01*
X196032380Y-131627380D01*
X196032380Y-131341666D01*
X195984761Y-131246428D01*
X195937142Y-131198809D01*
X197540571Y-126436428D02*
X197588190Y-126579285D01*
X197635809Y-126626904D01*
X197731047Y-126674523D01*
X197873904Y-126674523D01*
X197969142Y-126626904D01*
X198016761Y-126579285D01*
X198064380Y-126484047D01*
X198064380Y-126103095D01*
X197064380Y-126103095D01*
X197064380Y-126436428D01*
X197112000Y-126531666D01*
X197159619Y-126579285D01*
X197254857Y-126626904D01*
X197350095Y-126626904D01*
X197445333Y-126579285D01*
X197492952Y-126531666D01*
X197540571Y-126436428D01*
X197540571Y-126103095D01*
%TO.C,C14*%
X115067142Y-112387142D02*
X115114761Y-112339523D01*
X115162380Y-112196666D01*
X115162380Y-112101428D01*
X115114761Y-111958571D01*
X115019523Y-111863333D01*
X114924285Y-111815714D01*
X114733809Y-111768095D01*
X114590952Y-111768095D01*
X114400476Y-111815714D01*
X114305238Y-111863333D01*
X114210000Y-111958571D01*
X114162380Y-112101428D01*
X114162380Y-112196666D01*
X114210000Y-112339523D01*
X114257619Y-112387142D01*
X115162380Y-113339523D02*
X115162380Y-112768095D01*
X115162380Y-113053809D02*
X114162380Y-113053809D01*
X114305238Y-112958571D01*
X114400476Y-112863333D01*
X114448095Y-112768095D01*
X114495714Y-114196666D02*
X115162380Y-114196666D01*
X114114761Y-113958571D02*
X114829047Y-113720476D01*
X114829047Y-114339523D01*
%TO.C,R15*%
X115642380Y-112387142D02*
X115166190Y-112053809D01*
X115642380Y-111815714D02*
X114642380Y-111815714D01*
X114642380Y-112196666D01*
X114690000Y-112291904D01*
X114737619Y-112339523D01*
X114832857Y-112387142D01*
X114975714Y-112387142D01*
X115070952Y-112339523D01*
X115118571Y-112291904D01*
X115166190Y-112196666D01*
X115166190Y-111815714D01*
X115642380Y-113339523D02*
X115642380Y-112768095D01*
X115642380Y-113053809D02*
X114642380Y-113053809D01*
X114785238Y-112958571D01*
X114880476Y-112863333D01*
X114928095Y-112768095D01*
X114642380Y-114244285D02*
X114642380Y-113768095D01*
X115118571Y-113720476D01*
X115070952Y-113768095D01*
X115023333Y-113863333D01*
X115023333Y-114101428D01*
X115070952Y-114196666D01*
X115118571Y-114244285D01*
X115213809Y-114291904D01*
X115451904Y-114291904D01*
X115547142Y-114244285D01*
X115594761Y-114196666D01*
X115642380Y-114101428D01*
X115642380Y-113863333D01*
X115594761Y-113768095D01*
X115547142Y-113720476D01*
%TO.C,R2*%
X166950380Y-102449333D02*
X166474190Y-102116000D01*
X166950380Y-101877904D02*
X165950380Y-101877904D01*
X165950380Y-102258857D01*
X165998000Y-102354095D01*
X166045619Y-102401714D01*
X166140857Y-102449333D01*
X166283714Y-102449333D01*
X166378952Y-102401714D01*
X166426571Y-102354095D01*
X166474190Y-102258857D01*
X166474190Y-101877904D01*
X166045619Y-102830285D02*
X165998000Y-102877904D01*
X165950380Y-102973142D01*
X165950380Y-103211238D01*
X165998000Y-103306476D01*
X166045619Y-103354095D01*
X166140857Y-103401714D01*
X166236095Y-103401714D01*
X166378952Y-103354095D01*
X166950380Y-102782666D01*
X166950380Y-103401714D01*
%TO.C,D4*%
X131357380Y-131356904D02*
X130357380Y-131356904D01*
X130357380Y-131595000D01*
X130405000Y-131737857D01*
X130500238Y-131833095D01*
X130595476Y-131880714D01*
X130785952Y-131928333D01*
X130928809Y-131928333D01*
X131119285Y-131880714D01*
X131214523Y-131833095D01*
X131309761Y-131737857D01*
X131357380Y-131595000D01*
X131357380Y-131356904D01*
X130690714Y-132785476D02*
X131357380Y-132785476D01*
X130309761Y-132547380D02*
X131024047Y-132309285D01*
X131024047Y-132928333D01*
%TO.C,C34*%
X154281142Y-121277142D02*
X154328761Y-121229523D01*
X154376380Y-121086666D01*
X154376380Y-120991428D01*
X154328761Y-120848571D01*
X154233523Y-120753333D01*
X154138285Y-120705714D01*
X153947809Y-120658095D01*
X153804952Y-120658095D01*
X153614476Y-120705714D01*
X153519238Y-120753333D01*
X153424000Y-120848571D01*
X153376380Y-120991428D01*
X153376380Y-121086666D01*
X153424000Y-121229523D01*
X153471619Y-121277142D01*
X153376380Y-121610476D02*
X153376380Y-122229523D01*
X153757333Y-121896190D01*
X153757333Y-122039047D01*
X153804952Y-122134285D01*
X153852571Y-122181904D01*
X153947809Y-122229523D01*
X154185904Y-122229523D01*
X154281142Y-122181904D01*
X154328761Y-122134285D01*
X154376380Y-122039047D01*
X154376380Y-121753333D01*
X154328761Y-121658095D01*
X154281142Y-121610476D01*
X153709714Y-123086666D02*
X154376380Y-123086666D01*
X153328761Y-122848571D02*
X154043047Y-122610476D01*
X154043047Y-123229523D01*
%TO.C,U1*%
X189227380Y-104648095D02*
X190036904Y-104648095D01*
X190132142Y-104695714D01*
X190179761Y-104743333D01*
X190227380Y-104838571D01*
X190227380Y-105029047D01*
X190179761Y-105124285D01*
X190132142Y-105171904D01*
X190036904Y-105219523D01*
X189227380Y-105219523D01*
X190227380Y-106219523D02*
X190227380Y-105648095D01*
X190227380Y-105933809D02*
X189227380Y-105933809D01*
X189370238Y-105838571D01*
X189465476Y-105743333D01*
X189513095Y-105648095D01*
%TO.C,R10*%
X168917857Y-61887380D02*
X169251190Y-61411190D01*
X169489285Y-61887380D02*
X169489285Y-60887380D01*
X169108333Y-60887380D01*
X169013095Y-60935000D01*
X168965476Y-60982619D01*
X168917857Y-61077857D01*
X168917857Y-61220714D01*
X168965476Y-61315952D01*
X169013095Y-61363571D01*
X169108333Y-61411190D01*
X169489285Y-61411190D01*
X167965476Y-61887380D02*
X168536904Y-61887380D01*
X168251190Y-61887380D02*
X168251190Y-60887380D01*
X168346428Y-61030238D01*
X168441666Y-61125476D01*
X168536904Y-61173095D01*
X167346428Y-60887380D02*
X167251190Y-60887380D01*
X167155952Y-60935000D01*
X167108333Y-60982619D01*
X167060714Y-61077857D01*
X167013095Y-61268333D01*
X167013095Y-61506428D01*
X167060714Y-61696904D01*
X167108333Y-61792142D01*
X167155952Y-61839761D01*
X167251190Y-61887380D01*
X167346428Y-61887380D01*
X167441666Y-61839761D01*
X167489285Y-61792142D01*
X167536904Y-61696904D01*
X167584523Y-61506428D01*
X167584523Y-61268333D01*
X167536904Y-61077857D01*
X167489285Y-60982619D01*
X167441666Y-60935000D01*
X167346428Y-60887380D01*
%TO.C,C26*%
X135665357Y-67442142D02*
X135712976Y-67489761D01*
X135855833Y-67537380D01*
X135951071Y-67537380D01*
X136093928Y-67489761D01*
X136189166Y-67394523D01*
X136236785Y-67299285D01*
X136284404Y-67108809D01*
X136284404Y-66965952D01*
X136236785Y-66775476D01*
X136189166Y-66680238D01*
X136093928Y-66585000D01*
X135951071Y-66537380D01*
X135855833Y-66537380D01*
X135712976Y-66585000D01*
X135665357Y-66632619D01*
X135284404Y-66632619D02*
X135236785Y-66585000D01*
X135141547Y-66537380D01*
X134903452Y-66537380D01*
X134808214Y-66585000D01*
X134760595Y-66632619D01*
X134712976Y-66727857D01*
X134712976Y-66823095D01*
X134760595Y-66965952D01*
X135332023Y-67537380D01*
X134712976Y-67537380D01*
X133855833Y-66537380D02*
X134046309Y-66537380D01*
X134141547Y-66585000D01*
X134189166Y-66632619D01*
X134284404Y-66775476D01*
X134332023Y-66965952D01*
X134332023Y-67346904D01*
X134284404Y-67442142D01*
X134236785Y-67489761D01*
X134141547Y-67537380D01*
X133951071Y-67537380D01*
X133855833Y-67489761D01*
X133808214Y-67442142D01*
X133760595Y-67346904D01*
X133760595Y-67108809D01*
X133808214Y-67013571D01*
X133855833Y-66965952D01*
X133951071Y-66918333D01*
X134141547Y-66918333D01*
X134236785Y-66965952D01*
X134284404Y-67013571D01*
X134332023Y-67108809D01*
%TO.C,C29*%
X127357142Y-134612142D02*
X127404761Y-134564523D01*
X127452380Y-134421666D01*
X127452380Y-134326428D01*
X127404761Y-134183571D01*
X127309523Y-134088333D01*
X127214285Y-134040714D01*
X127023809Y-133993095D01*
X126880952Y-133993095D01*
X126690476Y-134040714D01*
X126595238Y-134088333D01*
X126500000Y-134183571D01*
X126452380Y-134326428D01*
X126452380Y-134421666D01*
X126500000Y-134564523D01*
X126547619Y-134612142D01*
X126547619Y-134993095D02*
X126500000Y-135040714D01*
X126452380Y-135135952D01*
X126452380Y-135374047D01*
X126500000Y-135469285D01*
X126547619Y-135516904D01*
X126642857Y-135564523D01*
X126738095Y-135564523D01*
X126880952Y-135516904D01*
X127452380Y-134945476D01*
X127452380Y-135564523D01*
X127452380Y-136040714D02*
X127452380Y-136231190D01*
X127404761Y-136326428D01*
X127357142Y-136374047D01*
X127214285Y-136469285D01*
X127023809Y-136516904D01*
X126642857Y-136516904D01*
X126547619Y-136469285D01*
X126500000Y-136421666D01*
X126452380Y-136326428D01*
X126452380Y-136135952D01*
X126500000Y-136040714D01*
X126547619Y-135993095D01*
X126642857Y-135945476D01*
X126880952Y-135945476D01*
X126976190Y-135993095D01*
X127023809Y-136040714D01*
X127071428Y-136135952D01*
X127071428Y-136326428D01*
X127023809Y-136421666D01*
X126976190Y-136469285D01*
X126880952Y-136516904D01*
%TO.C,C1*%
X190632142Y-99125833D02*
X190679761Y-99078214D01*
X190727380Y-98935357D01*
X190727380Y-98840119D01*
X190679761Y-98697261D01*
X190584523Y-98602023D01*
X190489285Y-98554404D01*
X190298809Y-98506785D01*
X190155952Y-98506785D01*
X189965476Y-98554404D01*
X189870238Y-98602023D01*
X189775000Y-98697261D01*
X189727380Y-98840119D01*
X189727380Y-98935357D01*
X189775000Y-99078214D01*
X189822619Y-99125833D01*
X190727380Y-100078214D02*
X190727380Y-99506785D01*
X190727380Y-99792500D02*
X189727380Y-99792500D01*
X189870238Y-99697261D01*
X189965476Y-99602023D01*
X190013095Y-99506785D01*
%TO.C,R46*%
X153550857Y-117674380D02*
X153884190Y-117198190D01*
X154122285Y-117674380D02*
X154122285Y-116674380D01*
X153741333Y-116674380D01*
X153646095Y-116722000D01*
X153598476Y-116769619D01*
X153550857Y-116864857D01*
X153550857Y-117007714D01*
X153598476Y-117102952D01*
X153646095Y-117150571D01*
X153741333Y-117198190D01*
X154122285Y-117198190D01*
X152693714Y-117007714D02*
X152693714Y-117674380D01*
X152931809Y-116626761D02*
X153169904Y-117341047D01*
X152550857Y-117341047D01*
X151741333Y-116674380D02*
X151931809Y-116674380D01*
X152027047Y-116722000D01*
X152074666Y-116769619D01*
X152169904Y-116912476D01*
X152217523Y-117102952D01*
X152217523Y-117483904D01*
X152169904Y-117579142D01*
X152122285Y-117626761D01*
X152027047Y-117674380D01*
X151836571Y-117674380D01*
X151741333Y-117626761D01*
X151693714Y-117579142D01*
X151646095Y-117483904D01*
X151646095Y-117245809D01*
X151693714Y-117150571D01*
X151741333Y-117102952D01*
X151836571Y-117055333D01*
X152027047Y-117055333D01*
X152122285Y-117102952D01*
X152169904Y-117150571D01*
X152217523Y-117245809D01*
%TO.C,R38*%
X193682857Y-67382380D02*
X194016190Y-66906190D01*
X194254285Y-67382380D02*
X194254285Y-66382380D01*
X193873333Y-66382380D01*
X193778095Y-66430000D01*
X193730476Y-66477619D01*
X193682857Y-66572857D01*
X193682857Y-66715714D01*
X193730476Y-66810952D01*
X193778095Y-66858571D01*
X193873333Y-66906190D01*
X194254285Y-66906190D01*
X193349523Y-66382380D02*
X192730476Y-66382380D01*
X193063809Y-66763333D01*
X192920952Y-66763333D01*
X192825714Y-66810952D01*
X192778095Y-66858571D01*
X192730476Y-66953809D01*
X192730476Y-67191904D01*
X192778095Y-67287142D01*
X192825714Y-67334761D01*
X192920952Y-67382380D01*
X193206666Y-67382380D01*
X193301904Y-67334761D01*
X193349523Y-67287142D01*
X192159047Y-66810952D02*
X192254285Y-66763333D01*
X192301904Y-66715714D01*
X192349523Y-66620476D01*
X192349523Y-66572857D01*
X192301904Y-66477619D01*
X192254285Y-66430000D01*
X192159047Y-66382380D01*
X191968571Y-66382380D01*
X191873333Y-66430000D01*
X191825714Y-66477619D01*
X191778095Y-66572857D01*
X191778095Y-66620476D01*
X191825714Y-66715714D01*
X191873333Y-66763333D01*
X191968571Y-66810952D01*
X192159047Y-66810952D01*
X192254285Y-66858571D01*
X192301904Y-66906190D01*
X192349523Y-67001428D01*
X192349523Y-67191904D01*
X192301904Y-67287142D01*
X192254285Y-67334761D01*
X192159047Y-67382380D01*
X191968571Y-67382380D01*
X191873333Y-67334761D01*
X191825714Y-67287142D01*
X191778095Y-67191904D01*
X191778095Y-67001428D01*
X191825714Y-66906190D01*
X191873333Y-66858571D01*
X191968571Y-66810952D01*
%TO.C,C33*%
X113133142Y-120261142D02*
X113180761Y-120213523D01*
X113228380Y-120070666D01*
X113228380Y-119975428D01*
X113180761Y-119832571D01*
X113085523Y-119737333D01*
X112990285Y-119689714D01*
X112799809Y-119642095D01*
X112656952Y-119642095D01*
X112466476Y-119689714D01*
X112371238Y-119737333D01*
X112276000Y-119832571D01*
X112228380Y-119975428D01*
X112228380Y-120070666D01*
X112276000Y-120213523D01*
X112323619Y-120261142D01*
X112228380Y-120594476D02*
X112228380Y-121213523D01*
X112609333Y-120880190D01*
X112609333Y-121023047D01*
X112656952Y-121118285D01*
X112704571Y-121165904D01*
X112799809Y-121213523D01*
X113037904Y-121213523D01*
X113133142Y-121165904D01*
X113180761Y-121118285D01*
X113228380Y-121023047D01*
X113228380Y-120737333D01*
X113180761Y-120642095D01*
X113133142Y-120594476D01*
X112228380Y-121546857D02*
X112228380Y-122165904D01*
X112609333Y-121832571D01*
X112609333Y-121975428D01*
X112656952Y-122070666D01*
X112704571Y-122118285D01*
X112799809Y-122165904D01*
X113037904Y-122165904D01*
X113133142Y-122118285D01*
X113180761Y-122070666D01*
X113228380Y-121975428D01*
X113228380Y-121689714D01*
X113180761Y-121594476D01*
X113133142Y-121546857D01*
%TO.C,R3*%
X190317380Y-111228333D02*
X189841190Y-110895000D01*
X190317380Y-110656904D02*
X189317380Y-110656904D01*
X189317380Y-111037857D01*
X189365000Y-111133095D01*
X189412619Y-111180714D01*
X189507857Y-111228333D01*
X189650714Y-111228333D01*
X189745952Y-111180714D01*
X189793571Y-111133095D01*
X189841190Y-111037857D01*
X189841190Y-110656904D01*
X189317380Y-111561666D02*
X189317380Y-112180714D01*
X189698333Y-111847380D01*
X189698333Y-111990238D01*
X189745952Y-112085476D01*
X189793571Y-112133095D01*
X189888809Y-112180714D01*
X190126904Y-112180714D01*
X190222142Y-112133095D01*
X190269761Y-112085476D01*
X190317380Y-111990238D01*
X190317380Y-111704523D01*
X190269761Y-111609285D01*
X190222142Y-111561666D01*
%TO.C,TP15*%
X201382380Y-128436904D02*
X201382380Y-129008333D01*
X202382380Y-128722619D02*
X201382380Y-128722619D01*
X202382380Y-129341666D02*
X201382380Y-129341666D01*
X201382380Y-129722619D01*
X201430000Y-129817857D01*
X201477619Y-129865476D01*
X201572857Y-129913095D01*
X201715714Y-129913095D01*
X201810952Y-129865476D01*
X201858571Y-129817857D01*
X201906190Y-129722619D01*
X201906190Y-129341666D01*
X202382380Y-130865476D02*
X202382380Y-130294047D01*
X202382380Y-130579761D02*
X201382380Y-130579761D01*
X201525238Y-130484523D01*
X201620476Y-130389285D01*
X201668095Y-130294047D01*
X201382380Y-131770238D02*
X201382380Y-131294047D01*
X201858571Y-131246428D01*
X201810952Y-131294047D01*
X201763333Y-131389285D01*
X201763333Y-131627380D01*
X201810952Y-131722619D01*
X201858571Y-131770238D01*
X201953809Y-131817857D01*
X202191904Y-131817857D01*
X202287142Y-131770238D01*
X202334761Y-131722619D01*
X202382380Y-131627380D01*
X202382380Y-131389285D01*
X202334761Y-131294047D01*
X202287142Y-131246428D01*
%TO.C,C30*%
X127132142Y-128897142D02*
X127179761Y-128849523D01*
X127227380Y-128706666D01*
X127227380Y-128611428D01*
X127179761Y-128468571D01*
X127084523Y-128373333D01*
X126989285Y-128325714D01*
X126798809Y-128278095D01*
X126655952Y-128278095D01*
X126465476Y-128325714D01*
X126370238Y-128373333D01*
X126275000Y-128468571D01*
X126227380Y-128611428D01*
X126227380Y-128706666D01*
X126275000Y-128849523D01*
X126322619Y-128897142D01*
X126227380Y-129230476D02*
X126227380Y-129849523D01*
X126608333Y-129516190D01*
X126608333Y-129659047D01*
X126655952Y-129754285D01*
X126703571Y-129801904D01*
X126798809Y-129849523D01*
X127036904Y-129849523D01*
X127132142Y-129801904D01*
X127179761Y-129754285D01*
X127227380Y-129659047D01*
X127227380Y-129373333D01*
X127179761Y-129278095D01*
X127132142Y-129230476D01*
X126227380Y-130468571D02*
X126227380Y-130563809D01*
X126275000Y-130659047D01*
X126322619Y-130706666D01*
X126417857Y-130754285D01*
X126608333Y-130801904D01*
X126846428Y-130801904D01*
X127036904Y-130754285D01*
X127132142Y-130706666D01*
X127179761Y-130659047D01*
X127227380Y-130563809D01*
X127227380Y-130468571D01*
X127179761Y-130373333D01*
X127132142Y-130325714D01*
X127036904Y-130278095D01*
X126846428Y-130230476D01*
X126608333Y-130230476D01*
X126417857Y-130278095D01*
X126322619Y-130325714D01*
X126275000Y-130373333D01*
X126227380Y-130468571D01*
%TO.C,F1*%
X185118333Y-129208571D02*
X185451666Y-129208571D01*
X185451666Y-129732380D02*
X185451666Y-128732380D01*
X184975476Y-128732380D01*
X184070714Y-129732380D02*
X184642142Y-129732380D01*
X184356428Y-129732380D02*
X184356428Y-128732380D01*
X184451666Y-128875238D01*
X184546904Y-128970476D01*
X184642142Y-129018095D01*
%TO.C,R39*%
X116912380Y-134247142D02*
X116436190Y-133913809D01*
X116912380Y-133675714D02*
X115912380Y-133675714D01*
X115912380Y-134056666D01*
X115960000Y-134151904D01*
X116007619Y-134199523D01*
X116102857Y-134247142D01*
X116245714Y-134247142D01*
X116340952Y-134199523D01*
X116388571Y-134151904D01*
X116436190Y-134056666D01*
X116436190Y-133675714D01*
X115912380Y-134580476D02*
X115912380Y-135199523D01*
X116293333Y-134866190D01*
X116293333Y-135009047D01*
X116340952Y-135104285D01*
X116388571Y-135151904D01*
X116483809Y-135199523D01*
X116721904Y-135199523D01*
X116817142Y-135151904D01*
X116864761Y-135104285D01*
X116912380Y-135009047D01*
X116912380Y-134723333D01*
X116864761Y-134628095D01*
X116817142Y-134580476D01*
X116912380Y-135675714D02*
X116912380Y-135866190D01*
X116864761Y-135961428D01*
X116817142Y-136009047D01*
X116674285Y-136104285D01*
X116483809Y-136151904D01*
X116102857Y-136151904D01*
X116007619Y-136104285D01*
X115960000Y-136056666D01*
X115912380Y-135961428D01*
X115912380Y-135770952D01*
X115960000Y-135675714D01*
X116007619Y-135628095D01*
X116102857Y-135580476D01*
X116340952Y-135580476D01*
X116436190Y-135628095D01*
X116483809Y-135675714D01*
X116531428Y-135770952D01*
X116531428Y-135961428D01*
X116483809Y-136056666D01*
X116436190Y-136104285D01*
X116340952Y-136151904D01*
%TO.C,U5*%
X189625380Y-105537095D02*
X190434904Y-105537095D01*
X190530142Y-105584714D01*
X190577761Y-105632333D01*
X190625380Y-105727571D01*
X190625380Y-105918047D01*
X190577761Y-106013285D01*
X190530142Y-106060904D01*
X190434904Y-106108523D01*
X189625380Y-106108523D01*
X189625380Y-107060904D02*
X189625380Y-106584714D01*
X190101571Y-106537095D01*
X190053952Y-106584714D01*
X190006333Y-106679952D01*
X190006333Y-106918047D01*
X190053952Y-107013285D01*
X190101571Y-107060904D01*
X190196809Y-107108523D01*
X190434904Y-107108523D01*
X190530142Y-107060904D01*
X190577761Y-107013285D01*
X190625380Y-106918047D01*
X190625380Y-106679952D01*
X190577761Y-106584714D01*
X190530142Y-106537095D01*
%TO.C,R50*%
X148280380Y-121277142D02*
X147804190Y-120943809D01*
X148280380Y-120705714D02*
X147280380Y-120705714D01*
X147280380Y-121086666D01*
X147328000Y-121181904D01*
X147375619Y-121229523D01*
X147470857Y-121277142D01*
X147613714Y-121277142D01*
X147708952Y-121229523D01*
X147756571Y-121181904D01*
X147804190Y-121086666D01*
X147804190Y-120705714D01*
X147280380Y-122181904D02*
X147280380Y-121705714D01*
X147756571Y-121658095D01*
X147708952Y-121705714D01*
X147661333Y-121800952D01*
X147661333Y-122039047D01*
X147708952Y-122134285D01*
X147756571Y-122181904D01*
X147851809Y-122229523D01*
X148089904Y-122229523D01*
X148185142Y-122181904D01*
X148232761Y-122134285D01*
X148280380Y-122039047D01*
X148280380Y-121800952D01*
X148232761Y-121705714D01*
X148185142Y-121658095D01*
X147280380Y-122848571D02*
X147280380Y-122943809D01*
X147328000Y-123039047D01*
X147375619Y-123086666D01*
X147470857Y-123134285D01*
X147661333Y-123181904D01*
X147899428Y-123181904D01*
X148089904Y-123134285D01*
X148185142Y-123086666D01*
X148232761Y-123039047D01*
X148280380Y-122943809D01*
X148280380Y-122848571D01*
X148232761Y-122753333D01*
X148185142Y-122705714D01*
X148089904Y-122658095D01*
X147899428Y-122610476D01*
X147661333Y-122610476D01*
X147470857Y-122658095D01*
X147375619Y-122705714D01*
X147328000Y-122753333D01*
X147280380Y-122848571D01*
%TO.C,R45*%
X116658380Y-120261142D02*
X116182190Y-119927809D01*
X116658380Y-119689714D02*
X115658380Y-119689714D01*
X115658380Y-120070666D01*
X115706000Y-120165904D01*
X115753619Y-120213523D01*
X115848857Y-120261142D01*
X115991714Y-120261142D01*
X116086952Y-120213523D01*
X116134571Y-120165904D01*
X116182190Y-120070666D01*
X116182190Y-119689714D01*
X115991714Y-121118285D02*
X116658380Y-121118285D01*
X115610761Y-120880190D02*
X116325047Y-120642095D01*
X116325047Y-121261142D01*
X115658380Y-122118285D02*
X115658380Y-121642095D01*
X116134571Y-121594476D01*
X116086952Y-121642095D01*
X116039333Y-121737333D01*
X116039333Y-121975428D01*
X116086952Y-122070666D01*
X116134571Y-122118285D01*
X116229809Y-122165904D01*
X116467904Y-122165904D01*
X116563142Y-122118285D01*
X116610761Y-122070666D01*
X116658380Y-121975428D01*
X116658380Y-121737333D01*
X116610761Y-121642095D01*
X116563142Y-121594476D01*
%TO.C,TP16*%
X195032380Y-114085904D02*
X195032380Y-114657333D01*
X196032380Y-114371619D02*
X195032380Y-114371619D01*
X196032380Y-114990666D02*
X195032380Y-114990666D01*
X195032380Y-115371619D01*
X195080000Y-115466857D01*
X195127619Y-115514476D01*
X195222857Y-115562095D01*
X195365714Y-115562095D01*
X195460952Y-115514476D01*
X195508571Y-115466857D01*
X195556190Y-115371619D01*
X195556190Y-114990666D01*
X196032380Y-116514476D02*
X196032380Y-115943047D01*
X196032380Y-116228761D02*
X195032380Y-116228761D01*
X195175238Y-116133523D01*
X195270476Y-116038285D01*
X195318095Y-115943047D01*
X195032380Y-117371619D02*
X195032380Y-117181142D01*
X195080000Y-117085904D01*
X195127619Y-117038285D01*
X195270476Y-116943047D01*
X195460952Y-116895428D01*
X195841904Y-116895428D01*
X195937142Y-116943047D01*
X195984761Y-116990666D01*
X196032380Y-117085904D01*
X196032380Y-117276380D01*
X195984761Y-117371619D01*
X195937142Y-117419238D01*
X195841904Y-117466857D01*
X195603809Y-117466857D01*
X195508571Y-117419238D01*
X195460952Y-117371619D01*
X195413333Y-117276380D01*
X195413333Y-117085904D01*
X195460952Y-116990666D01*
X195508571Y-116943047D01*
X195603809Y-116895428D01*
X197064380Y-111633047D02*
X197112000Y-111728285D01*
X197207238Y-111823523D01*
X197350095Y-111966380D01*
X197397714Y-112061619D01*
X197397714Y-112156857D01*
X197159619Y-112109238D02*
X197207238Y-112204476D01*
X197302476Y-112299714D01*
X197492952Y-112347333D01*
X197826285Y-112347333D01*
X198016761Y-112299714D01*
X198112000Y-112204476D01*
X198159619Y-112109238D01*
X198159619Y-111918761D01*
X198112000Y-111823523D01*
X198016761Y-111728285D01*
X197826285Y-111680666D01*
X197492952Y-111680666D01*
X197302476Y-111728285D01*
X197207238Y-111823523D01*
X197159619Y-111918761D01*
X197159619Y-112109238D01*
%TO.C,Module1*%
X158302142Y-90597380D02*
X158302142Y-89597380D01*
X157968809Y-90311666D01*
X157635476Y-89597380D01*
X157635476Y-90597380D01*
X157016428Y-90597380D02*
X157111666Y-90549761D01*
X157159285Y-90502142D01*
X157206904Y-90406904D01*
X157206904Y-90121190D01*
X157159285Y-90025952D01*
X157111666Y-89978333D01*
X157016428Y-89930714D01*
X156873571Y-89930714D01*
X156778333Y-89978333D01*
X156730714Y-90025952D01*
X156683095Y-90121190D01*
X156683095Y-90406904D01*
X156730714Y-90502142D01*
X156778333Y-90549761D01*
X156873571Y-90597380D01*
X157016428Y-90597380D01*
X155825952Y-90597380D02*
X155825952Y-89597380D01*
X155825952Y-90549761D02*
X155921190Y-90597380D01*
X156111666Y-90597380D01*
X156206904Y-90549761D01*
X156254523Y-90502142D01*
X156302142Y-90406904D01*
X156302142Y-90121190D01*
X156254523Y-90025952D01*
X156206904Y-89978333D01*
X156111666Y-89930714D01*
X155921190Y-89930714D01*
X155825952Y-89978333D01*
X154921190Y-89930714D02*
X154921190Y-90597380D01*
X155349761Y-89930714D02*
X155349761Y-90454523D01*
X155302142Y-90549761D01*
X155206904Y-90597380D01*
X155064047Y-90597380D01*
X154968809Y-90549761D01*
X154921190Y-90502142D01*
X154302142Y-90597380D02*
X154397380Y-90549761D01*
X154445000Y-90454523D01*
X154445000Y-89597380D01*
X153540238Y-90549761D02*
X153635476Y-90597380D01*
X153825952Y-90597380D01*
X153921190Y-90549761D01*
X153968809Y-90454523D01*
X153968809Y-90073571D01*
X153921190Y-89978333D01*
X153825952Y-89930714D01*
X153635476Y-89930714D01*
X153540238Y-89978333D01*
X153492619Y-90073571D01*
X153492619Y-90168809D01*
X153968809Y-90264047D01*
X152540238Y-90597380D02*
X153111666Y-90597380D01*
X152825952Y-90597380D02*
X152825952Y-89597380D01*
X152921190Y-89740238D01*
X153016428Y-89835476D01*
X153111666Y-89883095D01*
%TO.C,J5*%
X112658333Y-67082380D02*
X112658333Y-67796666D01*
X112705952Y-67939523D01*
X112801190Y-68034761D01*
X112944047Y-68082380D01*
X113039285Y-68082380D01*
X111705952Y-67082380D02*
X112182142Y-67082380D01*
X112229761Y-67558571D01*
X112182142Y-67510952D01*
X112086904Y-67463333D01*
X111848809Y-67463333D01*
X111753571Y-67510952D01*
X111705952Y-67558571D01*
X111658333Y-67653809D01*
X111658333Y-67891904D01*
X111705952Y-67987142D01*
X111753571Y-68034761D01*
X111848809Y-68082380D01*
X112086904Y-68082380D01*
X112182142Y-68034761D01*
X112229761Y-67987142D01*
%TO.C,R40*%
X114372380Y-130569642D02*
X113896190Y-130236309D01*
X114372380Y-129998214D02*
X113372380Y-129998214D01*
X113372380Y-130379166D01*
X113420000Y-130474404D01*
X113467619Y-130522023D01*
X113562857Y-130569642D01*
X113705714Y-130569642D01*
X113800952Y-130522023D01*
X113848571Y-130474404D01*
X113896190Y-130379166D01*
X113896190Y-129998214D01*
X113705714Y-131426785D02*
X114372380Y-131426785D01*
X113324761Y-131188690D02*
X114039047Y-130950595D01*
X114039047Y-131569642D01*
X113372380Y-132141071D02*
X113372380Y-132236309D01*
X113420000Y-132331547D01*
X113467619Y-132379166D01*
X113562857Y-132426785D01*
X113753333Y-132474404D01*
X113991428Y-132474404D01*
X114181904Y-132426785D01*
X114277142Y-132379166D01*
X114324761Y-132331547D01*
X114372380Y-132236309D01*
X114372380Y-132141071D01*
X114324761Y-132045833D01*
X114277142Y-131998214D01*
X114181904Y-131950595D01*
X113991428Y-131902976D01*
X113753333Y-131902976D01*
X113562857Y-131950595D01*
X113467619Y-131998214D01*
X113420000Y-132045833D01*
X113372380Y-132141071D01*
%TO.C,R42*%
X122562857Y-129379879D02*
X122896190Y-128903689D01*
X123134285Y-129379879D02*
X123134285Y-128379879D01*
X122753333Y-128379879D01*
X122658095Y-128427499D01*
X122610476Y-128475118D01*
X122562857Y-128570356D01*
X122562857Y-128713213D01*
X122610476Y-128808451D01*
X122658095Y-128856070D01*
X122753333Y-128903689D01*
X123134285Y-128903689D01*
X121705714Y-128713213D02*
X121705714Y-129379879D01*
X121943809Y-128332260D02*
X122181904Y-129046546D01*
X121562857Y-129046546D01*
X121229523Y-128475118D02*
X121181904Y-128427499D01*
X121086666Y-128379879D01*
X120848571Y-128379879D01*
X120753333Y-128427499D01*
X120705714Y-128475118D01*
X120658095Y-128570356D01*
X120658095Y-128665594D01*
X120705714Y-128808451D01*
X121277142Y-129379879D01*
X120658095Y-129379879D01*
%TO.C,R49*%
X116402380Y-120261142D02*
X115926190Y-119927809D01*
X116402380Y-119689714D02*
X115402380Y-119689714D01*
X115402380Y-120070666D01*
X115450000Y-120165904D01*
X115497619Y-120213523D01*
X115592857Y-120261142D01*
X115735714Y-120261142D01*
X115830952Y-120213523D01*
X115878571Y-120165904D01*
X115926190Y-120070666D01*
X115926190Y-119689714D01*
X115735714Y-121118285D02*
X116402380Y-121118285D01*
X115354761Y-120880190D02*
X116069047Y-120642095D01*
X116069047Y-121261142D01*
X116402380Y-121689714D02*
X116402380Y-121880190D01*
X116354761Y-121975428D01*
X116307142Y-122023047D01*
X116164285Y-122118285D01*
X115973809Y-122165904D01*
X115592857Y-122165904D01*
X115497619Y-122118285D01*
X115450000Y-122070666D01*
X115402380Y-121975428D01*
X115402380Y-121784952D01*
X115450000Y-121689714D01*
X115497619Y-121642095D01*
X115592857Y-121594476D01*
X115830952Y-121594476D01*
X115926190Y-121642095D01*
X115973809Y-121689714D01*
X116021428Y-121784952D01*
X116021428Y-121975428D01*
X115973809Y-122070666D01*
X115926190Y-122118285D01*
X115830952Y-122165904D01*
%TO.C,TP28*%
X151090095Y-116876380D02*
X150518666Y-116876380D01*
X150804380Y-117876380D02*
X150804380Y-116876380D01*
X150185333Y-117876380D02*
X150185333Y-116876380D01*
X149804380Y-116876380D01*
X149709142Y-116924000D01*
X149661523Y-116971619D01*
X149613904Y-117066857D01*
X149613904Y-117209714D01*
X149661523Y-117304952D01*
X149709142Y-117352571D01*
X149804380Y-117400190D01*
X150185333Y-117400190D01*
X149232952Y-116971619D02*
X149185333Y-116924000D01*
X149090095Y-116876380D01*
X148852000Y-116876380D01*
X148756761Y-116924000D01*
X148709142Y-116971619D01*
X148661523Y-117066857D01*
X148661523Y-117162095D01*
X148709142Y-117304952D01*
X149280571Y-117876380D01*
X148661523Y-117876380D01*
X148090095Y-117304952D02*
X148185333Y-117257333D01*
X148232952Y-117209714D01*
X148280571Y-117114476D01*
X148280571Y-117066857D01*
X148232952Y-116971619D01*
X148185333Y-116924000D01*
X148090095Y-116876380D01*
X147899619Y-116876380D01*
X147804380Y-116924000D01*
X147756761Y-116971619D01*
X147709142Y-117066857D01*
X147709142Y-117114476D01*
X147756761Y-117209714D01*
X147804380Y-117257333D01*
X147899619Y-117304952D01*
X148090095Y-117304952D01*
X148185333Y-117352571D01*
X148232952Y-117400190D01*
X148280571Y-117495428D01*
X148280571Y-117685904D01*
X148232952Y-117781142D01*
X148185333Y-117828761D01*
X148090095Y-117876380D01*
X147899619Y-117876380D01*
X147804380Y-117828761D01*
X147756761Y-117781142D01*
X147709142Y-117685904D01*
X147709142Y-117495428D01*
X147756761Y-117400190D01*
X147804380Y-117352571D01*
X147899619Y-117304952D01*
%TO.C,F2*%
X193373333Y-69398571D02*
X193706666Y-69398571D01*
X193706666Y-69922380D02*
X193706666Y-68922380D01*
X193230476Y-68922380D01*
X192897142Y-69017619D02*
X192849523Y-68970000D01*
X192754285Y-68922380D01*
X192516190Y-68922380D01*
X192420952Y-68970000D01*
X192373333Y-69017619D01*
X192325714Y-69112857D01*
X192325714Y-69208095D01*
X192373333Y-69350952D01*
X192944761Y-69922380D01*
X192325714Y-69922380D01*
%TO.C,TH1*%
X180117714Y-53426380D02*
X179546285Y-53426380D01*
X179832000Y-54426380D02*
X179832000Y-53426380D01*
X179212952Y-54426380D02*
X179212952Y-53426380D01*
X179212952Y-53902571D02*
X178641523Y-53902571D01*
X178641523Y-54426380D02*
X178641523Y-53426380D01*
X177641523Y-54426380D02*
X178212952Y-54426380D01*
X177927238Y-54426380D02*
X177927238Y-53426380D01*
X178022476Y-53569238D01*
X178117714Y-53664476D01*
X178212952Y-53712095D01*
%TO.C,C27*%
X122912141Y-136517142D02*
X122959760Y-136469523D01*
X123007379Y-136326666D01*
X123007379Y-136231428D01*
X122959760Y-136088571D01*
X122864522Y-135993333D01*
X122769284Y-135945714D01*
X122578808Y-135898095D01*
X122435951Y-135898095D01*
X122245475Y-135945714D01*
X122150237Y-135993333D01*
X122054999Y-136088571D01*
X122007379Y-136231428D01*
X122007379Y-136326666D01*
X122054999Y-136469523D01*
X122102618Y-136517142D01*
X122102618Y-136898095D02*
X122054999Y-136945714D01*
X122007379Y-137040952D01*
X122007379Y-137279047D01*
X122054999Y-137374285D01*
X122102618Y-137421904D01*
X122197856Y-137469523D01*
X122293094Y-137469523D01*
X122435951Y-137421904D01*
X123007379Y-136850476D01*
X123007379Y-137469523D01*
X122007379Y-137802857D02*
X122007379Y-138469523D01*
X123007379Y-138040952D01*
%TO.C,SW15*%
X160984522Y-117239674D02*
X160841665Y-117287293D01*
X160603570Y-117287293D01*
X160508332Y-117239674D01*
X160460713Y-117192055D01*
X160413094Y-117096817D01*
X160413094Y-117001579D01*
X160460713Y-116906341D01*
X160508332Y-116858722D01*
X160603570Y-116811103D01*
X160794046Y-116763484D01*
X160889284Y-116715865D01*
X160936903Y-116668246D01*
X160984522Y-116573008D01*
X160984522Y-116477770D01*
X160936903Y-116382532D01*
X160889284Y-116334913D01*
X160794046Y-116287293D01*
X160555951Y-116287293D01*
X160413094Y-116334913D01*
X160079760Y-116287293D02*
X159841665Y-117287293D01*
X159651189Y-116573008D01*
X159460713Y-117287293D01*
X159222618Y-116287293D01*
X158317856Y-117287293D02*
X158889284Y-117287293D01*
X158603570Y-117287293D02*
X158603570Y-116287293D01*
X158698808Y-116430151D01*
X158794046Y-116525389D01*
X158889284Y-116573008D01*
X157413094Y-116287293D02*
X157889284Y-116287293D01*
X157936903Y-116763484D01*
X157889284Y-116715865D01*
X157794046Y-116668246D01*
X157555951Y-116668246D01*
X157460713Y-116715865D01*
X157413094Y-116763484D01*
X157365475Y-116858722D01*
X157365475Y-117096817D01*
X157413094Y-117192055D01*
X157460713Y-117239674D01*
X157555951Y-117287293D01*
X157794046Y-117287293D01*
X157889284Y-117239674D01*
X157936903Y-117192055D01*
%TO.C,R13*%
X111957380Y-114292142D02*
X111481190Y-113958809D01*
X111957380Y-113720714D02*
X110957380Y-113720714D01*
X110957380Y-114101666D01*
X111005000Y-114196904D01*
X111052619Y-114244523D01*
X111147857Y-114292142D01*
X111290714Y-114292142D01*
X111385952Y-114244523D01*
X111433571Y-114196904D01*
X111481190Y-114101666D01*
X111481190Y-113720714D01*
X111957380Y-115244523D02*
X111957380Y-114673095D01*
X111957380Y-114958809D02*
X110957380Y-114958809D01*
X111100238Y-114863571D01*
X111195476Y-114768333D01*
X111243095Y-114673095D01*
X110957380Y-115577857D02*
X110957380Y-116196904D01*
X111338333Y-115863571D01*
X111338333Y-116006428D01*
X111385952Y-116101666D01*
X111433571Y-116149285D01*
X111528809Y-116196904D01*
X111766904Y-116196904D01*
X111862142Y-116149285D01*
X111909761Y-116101666D01*
X111957380Y-116006428D01*
X111957380Y-115720714D01*
X111909761Y-115625476D01*
X111862142Y-115577857D01*
%TO.C,BT1*%
X171343571Y-67794285D02*
X171391190Y-67937142D01*
X171438809Y-67984761D01*
X171534047Y-68032380D01*
X171676904Y-68032380D01*
X171772142Y-67984761D01*
X171819761Y-67937142D01*
X171867380Y-67841904D01*
X171867380Y-67460952D01*
X170867380Y-67460952D01*
X170867380Y-67794285D01*
X170915000Y-67889523D01*
X170962619Y-67937142D01*
X171057857Y-67984761D01*
X171153095Y-67984761D01*
X171248333Y-67937142D01*
X171295952Y-67889523D01*
X171343571Y-67794285D01*
X171343571Y-67460952D01*
X170867380Y-68318095D02*
X170867380Y-68889523D01*
X171867380Y-68603809D02*
X170867380Y-68603809D01*
X171867380Y-69746666D02*
X171867380Y-69175238D01*
X171867380Y-69460952D02*
X170867380Y-69460952D01*
X171010238Y-69365714D01*
X171105476Y-69270476D01*
X171153095Y-69175238D01*
%TO.C,U3*%
X179196904Y-59232380D02*
X179196904Y-60041904D01*
X179149285Y-60137142D01*
X179101666Y-60184761D01*
X179006428Y-60232380D01*
X178815952Y-60232380D01*
X178720714Y-60184761D01*
X178673095Y-60137142D01*
X178625476Y-60041904D01*
X178625476Y-59232380D01*
X178244523Y-59232380D02*
X177625476Y-59232380D01*
X177958809Y-59613333D01*
X177815952Y-59613333D01*
X177720714Y-59660952D01*
X177673095Y-59708571D01*
X177625476Y-59803809D01*
X177625476Y-60041904D01*
X177673095Y-60137142D01*
X177720714Y-60184761D01*
X177815952Y-60232380D01*
X178101666Y-60232380D01*
X178196904Y-60184761D01*
X178244523Y-60137142D01*
%TO.C,J4*%
X193762385Y-79041666D02*
X194476671Y-79041666D01*
X194619528Y-78994047D01*
X194714766Y-78898809D01*
X194762385Y-78755952D01*
X194762385Y-78660714D01*
X194095719Y-79946428D02*
X194762385Y-79946428D01*
X193714766Y-79708333D02*
X194429052Y-79470238D01*
X194429052Y-80089285D01*
%TO.C,R41*%
X122562857Y-132787379D02*
X122896190Y-132311189D01*
X123134285Y-132787379D02*
X123134285Y-131787379D01*
X122753333Y-131787379D01*
X122658095Y-131834999D01*
X122610476Y-131882618D01*
X122562857Y-131977856D01*
X122562857Y-132120713D01*
X122610476Y-132215951D01*
X122658095Y-132263570D01*
X122753333Y-132311189D01*
X123134285Y-132311189D01*
X121705714Y-132120713D02*
X121705714Y-132787379D01*
X121943809Y-131739760D02*
X122181904Y-132454046D01*
X121562857Y-132454046D01*
X120658095Y-132787379D02*
X121229523Y-132787379D01*
X120943809Y-132787379D02*
X120943809Y-131787379D01*
X121039047Y-131930237D01*
X121134285Y-132025475D01*
X121229523Y-132073094D01*
%TO.C,C28*%
X120782142Y-128664641D02*
X120829761Y-128617022D01*
X120877380Y-128474165D01*
X120877380Y-128378927D01*
X120829761Y-128236070D01*
X120734523Y-128140832D01*
X120639285Y-128093213D01*
X120448809Y-128045594D01*
X120305952Y-128045594D01*
X120115476Y-128093213D01*
X120020238Y-128140832D01*
X119925000Y-128236070D01*
X119877380Y-128378927D01*
X119877380Y-128474165D01*
X119925000Y-128617022D01*
X119972619Y-128664641D01*
X119972619Y-129045594D02*
X119925000Y-129093213D01*
X119877380Y-129188451D01*
X119877380Y-129426546D01*
X119925000Y-129521784D01*
X119972619Y-129569403D01*
X120067857Y-129617022D01*
X120163095Y-129617022D01*
X120305952Y-129569403D01*
X120877380Y-128997975D01*
X120877380Y-129617022D01*
X120305952Y-130188451D02*
X120258333Y-130093213D01*
X120210714Y-130045594D01*
X120115476Y-129997975D01*
X120067857Y-129997975D01*
X119972619Y-130045594D01*
X119925000Y-130093213D01*
X119877380Y-130188451D01*
X119877380Y-130378927D01*
X119925000Y-130474165D01*
X119972619Y-130521784D01*
X120067857Y-130569403D01*
X120115476Y-130569403D01*
X120210714Y-130521784D01*
X120258333Y-130474165D01*
X120305952Y-130378927D01*
X120305952Y-130188451D01*
X120353571Y-130093213D01*
X120401190Y-130045594D01*
X120496428Y-129997975D01*
X120686904Y-129997975D01*
X120782142Y-130045594D01*
X120829761Y-130093213D01*
X120877380Y-130188451D01*
X120877380Y-130378927D01*
X120829761Y-130474165D01*
X120782142Y-130521784D01*
X120686904Y-130569403D01*
X120496428Y-130569403D01*
X120401190Y-130521784D01*
X120353571Y-130474165D01*
X120305952Y-130378927D01*
%TO.C,R8*%
X174156666Y-69412380D02*
X174490000Y-68936190D01*
X174728095Y-69412380D02*
X174728095Y-68412380D01*
X174347142Y-68412380D01*
X174251904Y-68460000D01*
X174204285Y-68507619D01*
X174156666Y-68602857D01*
X174156666Y-68745714D01*
X174204285Y-68840952D01*
X174251904Y-68888571D01*
X174347142Y-68936190D01*
X174728095Y-68936190D01*
X173585238Y-68840952D02*
X173680476Y-68793333D01*
X173728095Y-68745714D01*
X173775714Y-68650476D01*
X173775714Y-68602857D01*
X173728095Y-68507619D01*
X173680476Y-68460000D01*
X173585238Y-68412380D01*
X173394761Y-68412380D01*
X173299523Y-68460000D01*
X173251904Y-68507619D01*
X173204285Y-68602857D01*
X173204285Y-68650476D01*
X173251904Y-68745714D01*
X173299523Y-68793333D01*
X173394761Y-68840952D01*
X173585238Y-68840952D01*
X173680476Y-68888571D01*
X173728095Y-68936190D01*
X173775714Y-69031428D01*
X173775714Y-69221904D01*
X173728095Y-69317142D01*
X173680476Y-69364761D01*
X173585238Y-69412380D01*
X173394761Y-69412380D01*
X173299523Y-69364761D01*
X173251904Y-69317142D01*
X173204285Y-69221904D01*
X173204285Y-69031428D01*
X173251904Y-68936190D01*
X173299523Y-68888571D01*
X173394761Y-68840952D01*
%TO.C,J1*%
X176429099Y-111740700D02*
X176429099Y-112885199D01*
X176505399Y-113114099D01*
X176657999Y-113266699D01*
X176886899Y-113342999D01*
X177039499Y-113342999D01*
X174826800Y-113342999D02*
X175742400Y-113342999D01*
X175284600Y-113342999D02*
X175284600Y-111740700D01*
X175437200Y-111969600D01*
X175589800Y-112122200D01*
X175742400Y-112198500D01*
%TO.C,R9*%
X171267380Y-63078609D02*
X170791190Y-62745276D01*
X171267380Y-62507180D02*
X170267380Y-62507180D01*
X170267380Y-62888133D01*
X170315000Y-62983371D01*
X170362619Y-63030990D01*
X170457857Y-63078609D01*
X170600714Y-63078609D01*
X170695952Y-63030990D01*
X170743571Y-62983371D01*
X170791190Y-62888133D01*
X170791190Y-62507180D01*
X171267380Y-63554799D02*
X171267380Y-63745276D01*
X171219761Y-63840514D01*
X171172142Y-63888133D01*
X171029285Y-63983371D01*
X170838809Y-64030990D01*
X170457857Y-64030990D01*
X170362619Y-63983371D01*
X170315000Y-63935752D01*
X170267380Y-63840514D01*
X170267380Y-63650037D01*
X170315000Y-63554799D01*
X170362619Y-63507180D01*
X170457857Y-63459561D01*
X170695952Y-63459561D01*
X170791190Y-63507180D01*
X170838809Y-63554799D01*
X170886428Y-63650037D01*
X170886428Y-63840514D01*
X170838809Y-63935752D01*
X170791190Y-63983371D01*
X170695952Y-64030990D01*
%TO.C,C10*%
X175777142Y-60317142D02*
X175824761Y-60269523D01*
X175872380Y-60126666D01*
X175872380Y-60031428D01*
X175824761Y-59888571D01*
X175729523Y-59793333D01*
X175634285Y-59745714D01*
X175443809Y-59698095D01*
X175300952Y-59698095D01*
X175110476Y-59745714D01*
X175015238Y-59793333D01*
X174920000Y-59888571D01*
X174872380Y-60031428D01*
X174872380Y-60126666D01*
X174920000Y-60269523D01*
X174967619Y-60317142D01*
X175872380Y-61269523D02*
X175872380Y-60698095D01*
X175872380Y-60983809D02*
X174872380Y-60983809D01*
X175015238Y-60888571D01*
X175110476Y-60793333D01*
X175158095Y-60698095D01*
X174872380Y-61888571D02*
X174872380Y-61983809D01*
X174920000Y-62079047D01*
X174967619Y-62126666D01*
X175062857Y-62174285D01*
X175253333Y-62221904D01*
X175491428Y-62221904D01*
X175681904Y-62174285D01*
X175777142Y-62126666D01*
X175824761Y-62079047D01*
X175872380Y-61983809D01*
X175872380Y-61888571D01*
X175824761Y-61793333D01*
X175777142Y-61745714D01*
X175681904Y-61698095D01*
X175491428Y-61650476D01*
X175253333Y-61650476D01*
X175062857Y-61698095D01*
X174967619Y-61745714D01*
X174920000Y-61793333D01*
X174872380Y-61888571D01*
%TO.C,TP17*%
X201382380Y-114085905D02*
X201382380Y-114657334D01*
X202382380Y-114371620D02*
X201382380Y-114371620D01*
X202382380Y-114990667D02*
X201382380Y-114990667D01*
X201382380Y-115371620D01*
X201430000Y-115466858D01*
X201477619Y-115514477D01*
X201572857Y-115562096D01*
X201715714Y-115562096D01*
X201810952Y-115514477D01*
X201858571Y-115466858D01*
X201906190Y-115371620D01*
X201906190Y-114990667D01*
X202382380Y-116514477D02*
X202382380Y-115943048D01*
X202382380Y-116228762D02*
X201382380Y-116228762D01*
X201525238Y-116133524D01*
X201620476Y-116038286D01*
X201668095Y-115943048D01*
X201382380Y-116847810D02*
X201382380Y-117514477D01*
X202382380Y-117085905D01*
%TO.C,R27*%
X200222380Y-99687142D02*
X199746190Y-99353809D01*
X200222380Y-99115714D02*
X199222380Y-99115714D01*
X199222380Y-99496666D01*
X199270000Y-99591904D01*
X199317619Y-99639523D01*
X199412857Y-99687142D01*
X199555714Y-99687142D01*
X199650952Y-99639523D01*
X199698571Y-99591904D01*
X199746190Y-99496666D01*
X199746190Y-99115714D01*
X199317619Y-100068095D02*
X199270000Y-100115714D01*
X199222380Y-100210952D01*
X199222380Y-100449047D01*
X199270000Y-100544285D01*
X199317619Y-100591904D01*
X199412857Y-100639523D01*
X199508095Y-100639523D01*
X199650952Y-100591904D01*
X200222380Y-100020476D01*
X200222380Y-100639523D01*
X199222380Y-100972857D02*
X199222380Y-101639523D01*
X200222380Y-101210952D01*
%TO.C,R29*%
X194952857Y-98497380D02*
X195286190Y-98021190D01*
X195524285Y-98497380D02*
X195524285Y-97497380D01*
X195143333Y-97497380D01*
X195048095Y-97545000D01*
X195000476Y-97592619D01*
X194952857Y-97687857D01*
X194952857Y-97830714D01*
X195000476Y-97925952D01*
X195048095Y-97973571D01*
X195143333Y-98021190D01*
X195524285Y-98021190D01*
X194571904Y-97592619D02*
X194524285Y-97545000D01*
X194429047Y-97497380D01*
X194190952Y-97497380D01*
X194095714Y-97545000D01*
X194048095Y-97592619D01*
X194000476Y-97687857D01*
X194000476Y-97783095D01*
X194048095Y-97925952D01*
X194619523Y-98497380D01*
X194000476Y-98497380D01*
X193524285Y-98497380D02*
X193333809Y-98497380D01*
X193238571Y-98449761D01*
X193190952Y-98402142D01*
X193095714Y-98259285D01*
X193048095Y-98068809D01*
X193048095Y-97687857D01*
X193095714Y-97592619D01*
X193143333Y-97545000D01*
X193238571Y-97497380D01*
X193429047Y-97497380D01*
X193524285Y-97545000D01*
X193571904Y-97592619D01*
X193619523Y-97687857D01*
X193619523Y-97925952D01*
X193571904Y-98021190D01*
X193524285Y-98068809D01*
X193429047Y-98116428D01*
X193238571Y-98116428D01*
X193143333Y-98068809D01*
X193095714Y-98021190D01*
X193048095Y-97925952D01*
D12*
%TO.C,J3*%
X168400000Y-139572500D02*
X168400000Y-132522500D01*
X180900000Y-129572500D02*
X179500000Y-129572500D01*
X169000000Y-129572500D02*
X170400000Y-129572500D01*
X181500000Y-139572500D02*
X168400000Y-139572500D01*
X181500000Y-132522500D02*
X181500000Y-139572500D01*
X178650000Y-128322500D02*
G75*
G03*
X178650000Y-128322500I-100000J0D01*
G01*
D13*
%TO.C,TP14*%
X202630000Y-118680000D02*
X201230000Y-118680000D01*
X201230000Y-120080000D02*
X202630000Y-120080000D01*
X202630000Y-120080000D02*
X202630000Y-118680000D01*
X201230000Y-118680000D02*
X201230000Y-120080000D01*
D14*
%TO.C,SW14*%
X125949995Y-119789913D02*
X125949995Y-122149913D01*
X122679995Y-118369913D02*
X120749995Y-118369913D01*
X122679995Y-123569913D02*
X120749995Y-123569913D01*
X120749995Y-119789913D02*
X120749995Y-122149913D01*
X125949995Y-118369913D02*
X124019995Y-118369913D01*
X125949995Y-123569913D02*
X124019995Y-123569913D01*
D12*
X127549995Y-119119913D02*
G75*
G03*
X127549995Y-119119913I-100000J0D01*
G01*
D13*
%TO.C,J6*%
X142935000Y-136910000D02*
X143435000Y-136910000D01*
X137735000Y-139410000D02*
X142935000Y-139410000D01*
X137235000Y-122210000D02*
X137235000Y-123410000D01*
X143435000Y-122210000D02*
X142685000Y-122210000D01*
X137235000Y-135710000D02*
X135235000Y-135710000D01*
X142935000Y-139410000D02*
X142935000Y-136910000D01*
X137735000Y-136910000D02*
X137735000Y-139410000D01*
X143435000Y-136910000D02*
X143435000Y-133710000D01*
X137235000Y-126610000D02*
X137235000Y-133110000D01*
X137235000Y-136910000D02*
X137735000Y-136910000D01*
X137235000Y-135710000D02*
X137235000Y-136910000D01*
X143435000Y-131110000D02*
X143435000Y-122210000D01*
X137235000Y-133110000D02*
X135235000Y-133110000D01*
X139485000Y-122210000D02*
X137235000Y-122210000D01*
%TO.C,TP12*%
X194880000Y-118680000D02*
X194880000Y-120080000D01*
X196280000Y-120080000D02*
X196280000Y-118680000D01*
X194880000Y-120080000D02*
X196280000Y-120080000D01*
X196280000Y-118680000D02*
X194880000Y-118680000D01*
%TO.C,TP13*%
X196280000Y-127065000D02*
X196280000Y-125665000D01*
X194880000Y-127065000D02*
X196280000Y-127065000D01*
X194880000Y-125665000D02*
X194880000Y-127065000D01*
X196280000Y-125665000D02*
X194880000Y-125665000D01*
%TO.C,C14*%
X112295000Y-113291252D02*
X112295000Y-112768748D01*
X113765000Y-113291252D02*
X113765000Y-112768748D01*
%TO.C,R15*%
X117575000Y-112802936D02*
X117575000Y-113257064D01*
X116105000Y-112802936D02*
X116105000Y-113257064D01*
%TO.C,R2*%
X167413000Y-102388936D02*
X167413000Y-102843064D01*
X168883000Y-102388936D02*
X168883000Y-102843064D01*
%TO.C,D4*%
X127745000Y-132795000D02*
X127745000Y-131395000D01*
X130065000Y-131395000D02*
X130065000Y-133295000D01*
%TO.C,C34*%
X152627000Y-121658748D02*
X152627000Y-122181252D01*
X151157000Y-121658748D02*
X151157000Y-122181252D01*
%TO.C,U1*%
X185715000Y-105410000D02*
X185715000Y-103910000D01*
X188935000Y-105410000D02*
X188935000Y-103910000D01*
X185715000Y-105410000D02*
X185715000Y-106910000D01*
X188935000Y-105410000D02*
X188935000Y-108335000D01*
%TO.C,R10*%
X168529724Y-63387500D02*
X168020276Y-63387500D01*
X168529724Y-62342500D02*
X168020276Y-62342500D01*
%TO.C,C26*%
X134761248Y-66140000D02*
X135283752Y-66140000D01*
X134761248Y-64670000D02*
X135283752Y-64670000D01*
%TO.C,C29*%
X124360000Y-134993748D02*
X124360000Y-135516252D01*
X125830000Y-134993748D02*
X125830000Y-135516252D01*
%TO.C,C1*%
X189330000Y-99553752D02*
X189330000Y-99031248D01*
X187860000Y-99553752D02*
X187860000Y-99031248D01*
%TO.C,R46*%
X153135064Y-118137000D02*
X152680936Y-118137000D01*
X153135064Y-119607000D02*
X152680936Y-119607000D01*
%TO.C,R38*%
X193267064Y-69315000D02*
X192812936Y-69315000D01*
X193267064Y-67845000D02*
X192812936Y-67845000D01*
%TO.C,C33*%
X110009000Y-120642748D02*
X110009000Y-121165252D01*
X111479000Y-120642748D02*
X111479000Y-121165252D01*
%TO.C,R3*%
X187225000Y-111167936D02*
X187225000Y-111622064D01*
X188695000Y-111167936D02*
X188695000Y-111622064D01*
%TO.C,TP15*%
X202630000Y-127065000D02*
X202630000Y-125665000D01*
X202630000Y-125665000D02*
X201230000Y-125665000D01*
X201230000Y-125665000D02*
X201230000Y-127065000D01*
X201230000Y-127065000D02*
X202630000Y-127065000D01*
%TO.C,C30*%
X125830000Y-129801252D02*
X125830000Y-129278748D01*
X124360000Y-129801252D02*
X124360000Y-129278748D01*
%TO.C,F1*%
X184182936Y-128360000D02*
X185387064Y-128360000D01*
X184182936Y-125640000D02*
X185387064Y-125640000D01*
%TO.C,R39*%
X118845000Y-134662936D02*
X118845000Y-135117064D01*
X117375000Y-134662936D02*
X117375000Y-135117064D01*
%TO.C,U5*%
X191018000Y-106299000D02*
X191018000Y-102849000D01*
X199888000Y-106299000D02*
X199888000Y-108249000D01*
X199888000Y-106299000D02*
X199888000Y-104349000D01*
X191018000Y-106299000D02*
X191018000Y-108249000D01*
%TO.C,R50*%
X150087000Y-122147064D02*
X150087000Y-121692936D01*
X148617000Y-122147064D02*
X148617000Y-121692936D01*
%TO.C,R45*%
X118591000Y-120676936D02*
X118591000Y-121131064D01*
X117121000Y-120676936D02*
X117121000Y-121131064D01*
%TO.C,TP16*%
X196280000Y-112714000D02*
X196280000Y-111314000D01*
X194880000Y-111314000D02*
X194880000Y-112714000D01*
X196280000Y-111314000D02*
X194880000Y-111314000D01*
X194880000Y-112714000D02*
X196280000Y-112714000D01*
%TO.C,Module1*%
X150425000Y-69415000D02*
X150425000Y-73195000D01*
X127625000Y-103335000D02*
X127625000Y-107115000D01*
X127625000Y-107115000D02*
X128625000Y-107115000D01*
X109025000Y-104765000D02*
X109025000Y-71765000D01*
X150425000Y-69415000D02*
X149425000Y-69415000D01*
X150425000Y-103335000D02*
X149425000Y-103335000D01*
X127625000Y-69415000D02*
X127625000Y-73195000D01*
X150425000Y-107115000D02*
X149425000Y-107115000D01*
X112525000Y-68265000D02*
X160525000Y-68265000D01*
X160525000Y-108265000D02*
X112525000Y-108265000D01*
X150425000Y-103335000D02*
X150425000Y-107115000D01*
X150425000Y-73195000D02*
X149425000Y-73195000D01*
X127625000Y-103335000D02*
X128625000Y-103335000D01*
X164025000Y-71765000D02*
X164025000Y-104765000D01*
X164025000Y-71765000D02*
G75*
G03*
X160525000Y-68265000I-3499999J1D01*
G01*
X109025000Y-104765000D02*
G75*
G03*
X112525000Y-108265000I3499999J-1D01*
G01*
X112525000Y-68265000D02*
G75*
G03*
X109025000Y-71765000I-1J-3499999D01*
G01*
X160525000Y-108265000D02*
G75*
G03*
X164025000Y-104765000I1J3499999D01*
G01*
D14*
%TO.C,J5*%
X132110000Y-59735000D02*
X132110000Y-58845000D01*
X132110000Y-59735000D02*
X131325000Y-59735000D01*
X109190000Y-58845000D02*
X109190000Y-59735000D01*
X131325000Y-60245000D02*
X131325000Y-59735000D01*
X109975000Y-59735000D02*
X109190000Y-59735000D01*
X112450000Y-64245000D02*
X113010000Y-64245000D01*
X109975000Y-60245000D02*
X109975000Y-59735000D01*
X132110000Y-58845000D02*
X109190000Y-58845000D01*
X128290000Y-64245000D02*
X128850000Y-64245000D01*
D12*
X112750000Y-65415000D02*
G75*
G03*
X112750000Y-65415000I-100000J0D01*
G01*
D13*
%TO.C,R40*%
X116305000Y-130985436D02*
X116305000Y-131439564D01*
X114835000Y-130985436D02*
X114835000Y-131439564D01*
%TO.C,R42*%
X122147064Y-131312499D02*
X121692936Y-131312499D01*
X122147064Y-129842499D02*
X121692936Y-129842499D01*
%TO.C,R49*%
X113565000Y-121131064D02*
X113565000Y-120676936D01*
X115035000Y-121131064D02*
X115035000Y-120676936D01*
%TO.C,TP28*%
X150052000Y-119572000D02*
X150052000Y-118172000D01*
X150052000Y-118172000D02*
X148652000Y-118172000D01*
X148652000Y-119572000D02*
X150052000Y-119572000D01*
X148652000Y-118172000D02*
X148652000Y-119572000D01*
%TO.C,F2*%
X193301252Y-71830000D02*
X192778748Y-71830000D01*
X193301252Y-70410000D02*
X192778748Y-70410000D01*
%TO.C,TH1*%
X178604936Y-51589000D02*
X179059064Y-51589000D01*
X178604936Y-53059000D02*
X179059064Y-53059000D01*
%TO.C,C27*%
X119914999Y-136898748D02*
X119914999Y-137421252D01*
X121384999Y-136898748D02*
X121384999Y-137421252D01*
D14*
%TO.C,SW15*%
X158679999Y-123569913D02*
X156749999Y-123569913D01*
X161949999Y-123569913D02*
X160019999Y-123569913D01*
X156749999Y-119789913D02*
X156749999Y-122149913D01*
X161949999Y-119789913D02*
X161949999Y-122149913D01*
X158679999Y-118369913D02*
X156749999Y-118369913D01*
X161949999Y-118369913D02*
X160019999Y-118369913D01*
D12*
X163549999Y-119119913D02*
G75*
G03*
X163549999Y-119119913I-100000J0D01*
G01*
D13*
%TO.C,R13*%
X109120000Y-115162064D02*
X109120000Y-114707936D01*
X110590000Y-115162064D02*
X110590000Y-114707936D01*
%TO.C,BT1*%
X165825000Y-66190000D02*
X165825000Y-68580000D01*
X165825000Y-70970000D02*
X165825000Y-68580000D01*
X170325000Y-64770000D02*
X170325000Y-66190000D01*
X164715000Y-67080000D02*
X164715000Y-67580000D01*
X164715000Y-70080000D02*
X159215000Y-70080000D01*
X170325000Y-66190000D02*
X165825000Y-66190000D01*
X159215000Y-67080000D02*
X164715000Y-67080000D01*
X169415000Y-69830000D02*
X170015000Y-70130000D01*
X159215000Y-67580000D02*
X159215000Y-67080000D01*
X164715000Y-67580000D02*
X159215000Y-67580000D01*
X170325000Y-70970000D02*
X165825000Y-70970000D01*
X170015000Y-69530000D02*
X169415000Y-69830000D01*
X170325000Y-72390000D02*
X170325000Y-70970000D01*
X158605000Y-68580000D02*
X158605000Y-64770000D01*
X158605000Y-68580000D02*
X158605000Y-72390000D01*
X158605000Y-64770000D02*
X170325000Y-64770000D01*
X170015000Y-70130000D02*
X170015000Y-69530000D01*
X158605000Y-72390000D02*
X170325000Y-72390000D01*
X159215000Y-70080000D02*
X159215000Y-69580000D01*
X159215000Y-69580000D02*
X164715000Y-69580000D01*
X164715000Y-69580000D02*
X164715000Y-70080000D01*
%TO.C,U3*%
X179935000Y-63840000D02*
X176935000Y-63840000D01*
X178435000Y-60620000D02*
X176935000Y-60620000D01*
D12*
%TO.C,J4*%
X202117500Y-69190000D02*
X203607500Y-69190000D01*
X198187500Y-78130000D02*
X199397500Y-78130000D01*
X203607500Y-69190000D02*
X203607500Y-78130000D01*
X198187500Y-69190000D02*
X199397500Y-69190000D01*
X203607500Y-78130000D02*
X202117500Y-78130000D01*
X195197500Y-69880000D02*
G75*
G03*
X195197500Y-69880000I-100000J0D01*
G01*
D13*
%TO.C,R41*%
X122147064Y-134719999D02*
X121692936Y-134719999D01*
X122147064Y-133249999D02*
X121692936Y-133249999D01*
%TO.C,C28*%
X118010000Y-129568751D02*
X118010000Y-129046247D01*
X119480000Y-129568751D02*
X119480000Y-129046247D01*
%TO.C,R8*%
X173762936Y-66575000D02*
X174217064Y-66575000D01*
X173762936Y-68045000D02*
X174217064Y-68045000D01*
D12*
%TO.C,J1*%
X169730000Y-108865000D02*
X169730000Y-111365000D01*
X169730000Y-96915000D02*
X171280000Y-96915000D01*
X183330000Y-96915000D02*
X183330000Y-97865000D01*
X169730000Y-96915000D02*
X169730000Y-97865000D01*
X169730000Y-111365000D02*
X183330000Y-111365000D01*
X183330000Y-108865000D02*
X183330000Y-111365000D01*
X181780000Y-96915000D02*
X183330000Y-96915000D01*
X171280000Y-96915000D02*
G75*
G03*
X181780000Y-96915000I5250000J9038541D01*
G01*
X180830000Y-101440000D02*
G75*
G03*
X180830000Y-101440000I-100000J0D01*
G01*
D13*
%TO.C,R9*%
X172607500Y-63754724D02*
X172607500Y-63245276D01*
X171562500Y-63754724D02*
X171562500Y-63245276D01*
%TO.C,C10*%
X174500000Y-61106267D02*
X174500000Y-60813733D01*
X173480000Y-61106267D02*
X173480000Y-60813733D01*
%TO.C,TP17*%
X202630000Y-112714001D02*
X202630000Y-111314001D01*
X201230000Y-112714001D02*
X202630000Y-112714001D01*
X201230000Y-111314001D02*
X201230000Y-112714001D01*
X202630000Y-111314001D02*
X201230000Y-111314001D01*
%TO.C,R27*%
X198855000Y-100557064D02*
X198855000Y-100102936D01*
X197385000Y-100557064D02*
X197385000Y-100102936D01*
%TO.C,R29*%
X194537064Y-100430000D02*
X194082936Y-100430000D01*
X194537064Y-98960000D02*
X194082936Y-98960000D01*
%TD*%
M02*
