M48
; DRILL file {KiCad (6.0.0)} date Sun May  1 16:32:40 2022
; FORMAT={-:-/ absolute / inch / decimal}
; #@! TF.CreationDate,2022-05-01T16:32:40+01:00
; #@! TF.GenerationSoftware,Kicad,Pcbnew,(6.0.0)
; #@! TF.FileFunction,Plated,1,4,PTH
FMAT,2
INCH
; #@! TA.AperFunction,Plated,PTH,ViaDrill
T1C0.0157
; #@! TA.AperFunction,Plated,PTH,ComponentDrill
T2C0.0197
; #@! TA.AperFunction,Plated,PTH,ComponentDrill
T3C0.0236
; #@! TA.AperFunction,Plated,PTH,ComponentDrill
T4C0.0362
; #@! TA.AperFunction,Plated,PTH,ComponentDrill
T5C0.0394
%
G90
G05
T1
X3.175Y-2.325
X3.2691Y-3.7688
X3.3Y-3.775
X3.325Y-3.675
X3.325Y-4.15
X3.35Y-3.875
X3.875Y-2.875
X3.925Y-2.875
X4.125Y-3.95
X4.2Y-4.3
X4.225Y-2.85
X4.275Y-2.85
X4.325Y-2.825
X4.325Y-4.575
X4.35Y-2.95
X4.3795Y-2.9525
X4.3845Y-2.8447
X4.425Y-2.825
X4.425Y-2.95
X4.448Y-3.0749
X4.4487Y-2.85
X4.475Y-2.95
X4.475Y-4.925
X4.475Y-5.2
X4.4783Y-2.85
X4.4794Y-3.0769
X4.4964Y-2.7928
X4.5046Y-2.95
X4.5104Y-3.0712
X4.5177Y-3.0999
X4.5279Y-2.8279
X4.5454Y-2.95
X4.5471Y-3.1029
X4.55Y-2.85
X4.575Y-2.95
X4.5971Y-2.8221
X4.6Y-5.35
X4.625Y-2.95
X4.65Y-3.125
X4.65Y-4.15
X4.65Y-4.275
X4.653Y-2.8544
X4.6775Y-3.914
X4.6781Y-3.0771
X4.6784Y-2.8378
X4.6975Y-3.8725
X4.7Y-4.275
X4.7029Y-2.9471
X4.7048Y-2.8513
X4.725Y-2.825
X4.725Y-3.825
X4.75Y-2.7493
X4.75Y-3.05
X4.7516Y-3.7291
X4.775Y-2.975
X4.775Y-3.25
X4.775Y-3.775
X4.775Y-3.825
X4.8Y-2.75
X4.8001Y-2.9282
X4.825Y-3.175
X4.85Y-2.75
X4.9Y-2.75
X4.9Y-3.275
X4.9154Y-2.9596
X4.925Y-3.05
X4.9426Y-2.8
X4.95Y-3.075
X4.975Y-2.925
X4.9819Y-2.8
X5.0154Y-3.0596
X5.0213Y-2.8
X5.0275Y-3.0475
X5.0475Y-3.0275
X5.0606Y-2.8
X5.0675Y-3.0075
X5.075Y-5.125
X5.075Y-5.275
X5.1Y-2.8
X5.1Y-3.05
X5.1Y-3.225
X5.125Y-4.05
X5.15Y-2.8
X5.1752Y-2.8498
X5.2606Y-3.225
X5.3Y-3.225
X5.3Y-3.325
X5.35Y-4.725
X5.65Y-4.525
X5.7Y-3.62
X5.84Y-3.72
X5.85Y-4.225
X5.88Y-4.9
X5.8884Y-4.275
X5.925Y-4.3
X5.975Y-4.45
X6.0Y-4.3
X6.05Y-3.8
X6.1Y-4.25
X6.1Y-4.3
X6.275Y-4.275
X6.325Y-4.0
X6.375Y-4.0
X6.4Y-4.625
X6.66Y-4.2
X6.8Y-5.05
X6.85Y-2.575
X6.8998Y-2.4263
X6.9Y-2.5
X6.925Y-2.375
X6.925Y-2.4046
X6.95Y-2.625
X6.95Y-2.675
X7.0Y-2.625
X7.0Y-2.675
X7.025Y-3.175
X7.025Y-4.2
X7.05Y-2.625
X7.05Y-2.675
X7.075Y-3.175
X7.075Y-4.95
X7.1Y-2.625
X7.1Y-2.675
X7.125Y-3.175
X7.175Y-3.175
X7.2655Y-2.7429
X7.2761Y-2.7706
X7.2763Y-2.7154
X7.2795Y-2.8
X7.325Y-2.875
X7.325Y-3.11
X7.35Y-2.875
X7.36Y-3.11
X7.375Y-3.0
X7.375Y-4.65
X7.39Y-3.11
X7.4Y-3.0
X7.42Y-3.11
X7.45Y-3.11
X7.5Y-3.05
X7.525Y-2.65
X7.5304Y-3.0513
X7.55Y-2.925
X7.575Y-2.65
X7.625Y-2.875
X7.625Y-2.65
X7.6492Y-2.9122
X7.675Y-3.0
X7.675Y-3.03
X7.675Y-2.65
X7.76Y-3.6
T2
X3.175Y-2.4
X3.225Y-4.775
X3.225Y-5.05
X4.125Y-4.05
X4.28Y-4.46
X4.325Y-4.65
X4.675Y-2.65
X4.8Y-2.65
X5.125Y-3.825
X5.5Y-4.45
X5.5128Y-2.7907
X5.6329Y-2.7907
X5.64Y-4.28
X5.7451Y-2.9778
X5.8612Y-3.1262
X5.88Y-4.68
X6.1Y-3.35
X6.1Y-3.45
X6.1Y-3.55
X6.1Y-3.65
X6.1Y-3.75
X6.1Y-3.85
X6.1Y-4.46
X6.4Y-4.775
X6.5646Y-3.5
X6.6644Y-3.725
X6.6644Y-3.85
X7.225Y-4.7
X7.275Y-4.05
X7.475Y-4.275
T3
X3.325Y-4.6333
X3.325Y-4.775
X3.325Y-4.9167
X3.325Y-5.0585
T4
X4.1372Y-2.6139
X4.2356Y-2.6139
X4.3144Y-2.6139
X4.4128Y-2.6139
T5
X6.6108Y-2.6508
X6.6108Y-2.7492
T3
G00X4.023Y-2.5469
M15
G01X4.023Y-2.5863
M16
G05
G00X4.527Y-2.5469
M15
G01X4.527Y-2.5863
M16
G05
T0
M30
