  0
SECTION
  2
HEADER
  9
$ACADVER
  1
AC1014
  9
$HANDSEED
  5
FFFF
  9
$MEASUREMENT
 70
     1
  0
ENDSEC
  0
SECTION
  2
TABLES
  0
TABLE
  2
VPORT
  5
8
330
0
100
AcDbSymbolTable
 70
     4
  0
VPORT
  5
2E
330
8
100
AcDbSymbolTableRecord
100
AcDbViewportTableRecord
  2
*ACTIVE
 70
     0
 10
0.0
 20
0.0
 11
1.0
 21
1.0
 12
210.0
 22
148.5
 13
0.0
 23
0.0
 14
10.0
 24
10.0
 15
10.0
 25
10.0
 16
0.0
 26
0.0
 36
1.0
 17
0.0
 27
0.0
 37
0.0
 40
341.0
 41
1.24
 42
50.0
 43
0.0
 44
0.0
 50
0.0
 51
0.0
 71
     0
 72
   100
 73
     1
 74
     3
 75
     0
 76
     0
 77
     0
 78
     0
  0
ENDTAB
  0
TABLE
  2
LTYPE
  5
5
330
0
100
AcDbSymbolTable
 70
     1
  0
LTYPE
  5
14
330
5
100
AcDbSymbolTableRecord
100
AcDbLinetypeTableRecord
  2
BYBLOCK
 70
     0
  3

 72
    65
 73
     0
 40
0.0
  0
LTYPE
  5
15
330
5
100
AcDbSymbolTableRecord
100
AcDbLinetypeTableRecord
  2
BYLAYER
 70
     0
  3

 72
    65
 73
     0
 40
0.0
  0
LTYPE
  5
16
330
5
100
AcDbSymbolTableRecord
100
AcDbLinetypeTableRecord
  2
CONTINUOUS
 70
     0
  3
Solid line
 72
    65
 73
     0
 40
0.0
  0
ENDTAB
  0
TABLE
  2
LAYER
  5
2
100
AcDbSymbolTable
 70
1
  0
LAYER
  5
50
100
AcDbSymbolTableRecord
100
AcDbLayerTableRecord
  2
0
 70
0
  6
CONTINUOUS
  0
ENDTAB
  0
TABLE
  2
STYLE
  5
3
330
0
100
AcDbSymbolTable
 70
     1
  0
STYLE
  5
11
330
3
100
AcDbSymbolTableRecord
100
AcDbTextStyleTableRecord
  2
STANDARD
 70
     0
 40
0.0
 41
1.0
 50
0.0
 71
     0
 42
2.5
  3
txt
  4

  0
ENDTAB
  0
TABLE
  2
VIEW
  5
6
330
0
100
AcDbSymbolTable
 70
     0
  0
ENDTAB
  0
TABLE
  2
UCS
  5
7
330
0
100
AcDbSymbolTable
 70
     0
  0
ENDTAB
  0
TABLE
  2
APPID
  5
9
330
0
100
AcDbSymbolTable
 70
     2
  0
APPID
  5
12
330
9
100
AcDbSymbolTableRecord
100
AcDbRegAppTableRecord
  2
ACAD
 70
     0
  0
ENDTAB
  0
TABLE
  2
DIMSTYLE
  5
A
330
0
100
AcDbSymbolTable
 70
     1
  0
DIMSTYLE
105
27
330
A
100
AcDbSymbolTableRecord
100
AcDbDimStyleTableRecord
  2
ISO-25
 70
     0
  3

  4

  5

  6

  7

 40
1.0
 41
2.5
 42
0.625
 43
3.75
 44
1.25
 45
0.0
 46
0.0
 47
0.0
 48
0.0
140
2.5
141
2.5
142
0.0
143
0.03937007874016
144
1.0
145
0.0
146
1.0
147
0.625
 71
     0
 72
     0
 73
     0
 74
     0
 75
     0
 76
     0
 77
     1
 78
     8
170
     0
171
     3
172
     1
173
     0
174
     0
175
     0
176
     0
177
     0
178
     0
270
     2
271
     2
272
     2
273
     2
274
     3
340
11
275
     0
280
     0
281
     0
282
     0
283
     0
284
     8
285
     0
286
     0
287
     3
288
     0
  0
ENDTAB
  0
TABLE
  2
BLOCK_RECORD
  5
1
330
0
100
AcDbSymbolTable
 70
     1
  0
BLOCK_RECORD
  5
1F
330
1
100
AcDbSymbolTableRecord
100
AcDbBlockTableRecord
  2
*MODEL_SPACE
  0
BLOCK_RECORD
  5
1B
330
1
100
AcDbSymbolTableRecord
100
AcDbBlockTableRecord
  2
*PAPER_SPACE
  0
ENDTAB
  0
ENDSEC
  0
SECTION
  2
BLOCKS
  0
BLOCK
  5
20
330
1F
100
AcDbEntity
  8
0
100
AcDbBlockBegin
  2
*MODEL_SPACE
 70
     0
 10
0.0
 20
0.0
 30
0.0
  3
*MODEL_SPACE
  1

  0
ENDBLK
  5
21
330
1F
100
AcDbEntity
  8
0
100
AcDbBlockEnd
  0
BLOCK
  5
1C
330
1B
100
AcDbEntity
 67
     1
  8
0
100
AcDbBlockBegin
  2
*PAPER_SPACE
  1

  0
ENDBLK
  5
1D
330
1B
100
AcDbEntity
 67
     1
  8
0
100
AcDbBlockEnd
  0
ENDSEC
  0
SECTION
  2
ENTITIES
  0
SPLINE
  5
100
100
AcDbEntity
  8
0
 62
7
100
AcDbSpline
 70
8
 71
3
 72
8
 73
4
 74
0
 40
0
 40
0
 40
0
 40
0
 40
1
 40
1
 40
1
 40
1
 10
59.465308
 20
38.027405
 30
0.0
 10
60.153233
 20
37.683442
 30
0.0
 10
60.550113
 20
37.141040
 30
0.0
 10
60.655948
 20
36.400197
 30
0.0
  0
SPLINE
  5
101
100
AcDbEntity
  8
0
 62
7
100
AcDbSpline
 70
8
 71
3
 72
8
 73
4
 74
0
 40
0
 40
0
 40
0
 40
0
 40
1
 40
1
 40
1
 40
1
 10
60.655948
 20
36.400197
 30
0.0
 10
60.788241
 20
35.659354
 30
0.0
 10
60.603031
 20
34.984658
 30
0.0
 10
60.100316
 20
34.376109
 30
0.0
  0
SPLINE
  5
102
100
AcDbEntity
  8
0
 62
7
100
AcDbSpline
 70
8
 71
3
 72
8
 73
4
 74
0
 40
0
 40
0
 40
0
 40
0
 40
1
 40
1
 40
1
 40
1
 10
60.100316
 20
34.376109
 30
0.0
 10
59.756353
 20
33.899853
 30
0.0
 10
59.306556
 20
33.635266
 30
0.0
 10
58.750924
 20
33.582349
 30
0.0
  0
SPLINE
  5
103
100
AcDbEntity
  8
0
 62
7
100
AcDbSpline
 70
8
 71
3
 72
8
 73
4
 74
0
 40
0
 40
0
 40
0
 40
0
 40
1
 40
1
 40
1
 40
1
 10
58.750924
 20
33.582349
 30
0.0
 10
58.221751
 20
33.529429
 30
0.0
 10
57.679348
 20
33.635264
 30
0.0
 10
57.123716
 20
33.899853
 30
0.0
  0
SPLINE
  5
104
100
AcDbEntity
  8
0
 62
7
100
AcDbSpline
 70
8
 71
3
 72
8
 73
4
 74
0
 40
0
 40
0
 40
0
 40
0
 40
1
 40
1
 40
1
 40
1
 10
57.123716
 20
33.899853
 30
0.0
 10
56.488708
 20
34.190898
 30
0.0
 10
55.814012
 20
34.415797
 30
0.0
 10
55.099628
 20
34.574549
 30
0.0
  0
SPLINE
  5
105
100
AcDbEntity
  8
0
 62
7
100
AcDbSpline
 70
8
 71
3
 72
8
 73
4
 74
0
 40
0
 40
0
 40
0
 40
0
 40
1
 40
1
 40
1
 40
1
 10
55.099628
 20
34.574549
 30
0.0
 10
54.411703
 20
34.733301
 30
0.0
 10
53.684089
 20
34.812677
 30
0.0
 10
52.916788
 20
34.812677
 30
0.0
  0
SPLINE
  5
106
100
AcDbEntity
  8
0
 62
7
100
AcDbSpline
 70
8
 71
3
 72
8
 73
4
 74
0
 40
0
 40
0
 40
0
 40
0
 40
1
 40
1
 40
1
 40
1
 10
52.916788
 20
34.812677
 30
0.0
 10
51.488020
 20
34.812677
 30
0.0
 10
50.204775
 20
34.587778
 30
0.0
 10
49.067052
 20
34.137981
 30
0.0
  0
SPLINE
  5
107
100
AcDbEntity
  8
0
 62
7
100
AcDbSpline
 70
8
 71
3
 72
8
 73
4
 74
0
 40
0
 40
0
 40
0
 40
0
 40
1
 40
1
 40
1
 40
1
 10
49.067052
 20
34.137981
 30
0.0
 10
47.955788
 20
33.688184
 30
0.0
 10
47.003276
 20
33.039946
 30
0.0
 10
46.209516
 20
32.193269
 30
0.0
  0
SPLINE
  5
108
100
AcDbEntity
  8
0
 62
7
100
AcDbSpline
 70
8
 71
3
 72
8
 73
4
 74
0
 40
0
 40
0
 40
0
 40
0
 40
1
 40
1
 40
1
 40
1
 10
46.209516
 20
32.193269
 30
0.0
 10
45.415756
 20
31.373050
 30
0.0
 10
44.807207
 20
30.394080
 30
0.0
 10
44.383868
 20
29.256357
 30
0.0
  0
SPLINE
  5
109
100
AcDbEntity
  8
0
 62
7
100
AcDbSpline
 70
8
 71
3
 72
8
 73
4
 74
0
 40
0
 40
0
 40
0
 40
0
 40
1
 40
1
 40
1
 40
1
 10
44.383868
 20
29.256357
 30
0.0
 10
43.986988
 20
28.118634
 30
0.0
 10
43.788548
 20
26.861848
 30
0.0
 10
43.788548
 20
25.485997
 30
0.0
  0
SPLINE
  5
10a
100
AcDbEntity
  8
0
 62
7
100
AcDbSpline
 70
8
 71
3
 72
8
 73
4
 74
0
 40
0
 40
0
 40
0
 40
0
 40
1
 40
1
 40
1
 40
1
 10
43.788548
 20
25.485997
 30
0.0
 10
43.788548
 20
23.872018
 30
0.0
 10
44.013447
 20
22.469709
 30
0.0
 10
44.463244
 20
21.279069
 30
0.0
  0
SPLINE
  5
10b
100
AcDbEntity
  8
0
 62
7
100
AcDbSpline
 70
8
 71
3
 72
8
 73
4
 74
0
 40
0
 40
0
 40
0
 40
0
 40
1
 40
1
 40
1
 40
1
 10
44.463244
 20
21.279069
 30
0.0
 10
44.939500
 20
20.088429
 30
0.0
 10
45.587737
 20
19.096229
 30
0.0
 10
46.407956
 20
18.302469
 30
0.0
  0
SPLINE
  5
10c
100
AcDbEntity
  8
0
 62
7
100
AcDbSpline
 70
8
 71
3
 72
8
 73
4
 74
0
 40
0
 40
0
 40
0
 40
0
 40
1
 40
1
 40
1
 40
1
 10
46.407956
 20
18.302469
 30
0.0
 10
47.228175
 20
17.508709
 30
0.0
 10
48.193916
 20
16.913389
 30
0.0
 10
49.305180
 20
16.516509
 30
0.0
  0
SPLINE
  5
10d
100
AcDbEntity
  8
0
 62
7
100
AcDbSpline
 70
8
 71
3
 72
8
 73
4
 74
0
 40
0
 40
0
 40
0
 40
0
 40
1
 40
1
 40
1
 40
1
 10
49.305180
 20
16.516509
 30
0.0
 10
50.416444
 20
16.146088
 30
0.0
 10
51.620313
 20
15.960877
 30
0.0
 10
52.916788
 20
15.960877
 30
0.0
  0
SPLINE
  5
10e
100
AcDbEntity
  8
0
 62
7
100
AcDbSpline
 70
8
 71
3
 72
8
 73
4
 74
0
 40
0
 40
0
 40
0
 40
0
 40
1
 40
1
 40
1
 40
1
 10
52.916788
 20
15.960877
 30
0.0
 10
53.631172
 20
15.960877
 30
0.0
 10
54.345556
 20
16.027024
 30
0.0
 10
55.059940
 20
16.159317
 30
0.0
  0
SPLINE
  5
10f
100
AcDbEntity
  8
0
 62
7
100
AcDbSpline
 70
8
 71
3
 72
8
 73
4
 74
0
 40
0
 40
0
 40
0
 40
0
 40
1
 40
1
 40
1
 40
1
 10
55.059940
 20
16.159317
 30
0.0
 10
55.774324
 20
16.291610
 30
0.0
 10
56.462249
 20
16.529738
 30
0.0
 10
57.123716
 20
16.873701
 30
0.0
  0
SPLINE
  5
110
100
AcDbEntity
  8
0
 62
7
100
AcDbSpline
 70
8
 71
3
 72
8
 73
4
 74
0
 40
0
 40
0
 40
0
 40
0
 40
1
 40
1
 40
1
 40
1
 10
57.123716
 20
16.873701
 30
0.0
 10
57.679348
 20
17.138288
 30
0.0
 10
58.221751
 20
17.230893
 30
0.0
 10
58.750924
 20
17.151517
 30
0.0
  0
SPLINE
  5
111
100
AcDbEntity
  8
0
 62
7
100
AcDbSpline
 70
8
 71
3
 72
8
 73
4
 74
0
 40
0
 40
0
 40
0
 40
0
 40
1
 40
1
 40
1
 40
1
 10
58.750924
 20
17.151517
 30
0.0
 10
59.306556
 20
17.072141
 30
0.0
 10
59.769583
 20
16.794325
 30
0.0
 10
60.140004
 20
16.318069
 30
0.0
  0
SPLINE
  5
112
100
AcDbEntity
  8
0
 62
7
100
AcDbSpline
 70
8
 71
3
 72
8
 73
4
 74
0
 40
0
 40
0
 40
0
 40
0
 40
1
 40
1
 40
1
 40
1
 10
60.140004
 20
16.318069
 30
0.0
 10
60.669177
 20
15.656602
 30
0.0
 10
60.854388
 20
14.968677
 30
0.0
 10
60.695636
 20
14.254293
 30
0.0
  0
SPLINE
  5
113
100
AcDbEntity
  8
0
 62
7
100
AcDbSpline
 70
8
 71
3
 72
8
 73
4
 74
0
 40
0
 40
0
 40
0
 40
0
 40
1
 40
1
 40
1
 40
1
 10
60.695636
 20
14.254293
 30
0.0
 10
60.563343
 20
13.566368
 30
0.0
 10
60.166463
 20
13.063653
 30
0.0
 10
59.504996
 20
12.746149
 30
0.0
  0
SPLINE
  5
114
100
AcDbEntity
  8
0
 62
7
100
AcDbSpline
 70
8
 71
3
 72
8
 73
4
 74
0
 40
0
 40
0
 40
0
 40
0
 40
1
 40
1
 40
1
 40
1
 10
59.504996
 20
12.746149
 30
0.0
 10
58.817071
 20
12.402186
 30
0.0
 10
58.102687
 20
12.111141
 30
0.0
 10
57.361844
 20
11.873013
 30
0.0
  0
SPLINE
  5
115
100
AcDbEntity
  8
0
 62
7
100
AcDbSpline
 70
8
 71
3
 72
8
 73
4
 74
0
 40
0
 40
0
 40
0
 40
0
 40
1
 40
1
 40
1
 40
1
 10
57.361844
 20
11.873013
 30
0.0
 10
56.647460
 20
11.661344
 30
0.0
 10
55.919847
 20
11.502592
 30
0.0
 10
55.179004
 20
11.396757
 30
0.0
  0
SPLINE
  5
116
100
AcDbEntity
  8
0
 62
7
100
AcDbSpline
 70
8
 71
3
 72
8
 73
4
 74
0
 40
0
 40
0
 40
0
 40
0
 40
1
 40
1
 40
1
 40
1
 10
55.179004
 20
11.396757
 30
0.0
 10
54.438161
 20
11.264464
 30
0.0
 10
53.684089
 20
11.198317
 30
0.0
 10
52.916788
 20
11.198317
 30
0.0
  0
SPLINE
  5
117
100
AcDbEntity
  8
0
 62
7
100
AcDbSpline
 70
8
 71
3
 72
8
 73
4
 74
0
 40
0
 40
0
 40
0
 40
0
 40
1
 40
1
 40
1
 40
1
 10
52.916788
 20
11.198317
 30
0.0
 10
51.011764
 20
11.198317
 30
0.0
 10
49.199345
 20
11.502592
 30
0.0
 10
47.479532
 20
12.111141
 30
0.0
  0
SPLINE
  5
118
100
AcDbEntity
  8
0
 62
7
100
AcDbSpline
 70
8
 71
3
 72
8
 73
4
 74
0
 40
0
 40
0
 40
0
 40
0
 40
1
 40
1
 40
1
 40
1
 10
47.479532
 20
12.111141
 30
0.0
 10
45.786177
 20
12.719690
 30
0.0
 10
44.264804
 20
13.619285
 30
0.0
 10
42.915412
 20
14.809925
 30
0.0
  0
SPLINE
  5
119
100
AcDbEntity
  8
0
 62
7
100
AcDbSpline
 70
8
 71
3
 72
8
 73
4
 74
0
 40
0
 40
0
 40
0
 40
0
 40
1
 40
1
 40
1
 40
1
 10
42.915412
 20
14.809925
 30
0.0
 10
41.592479
 20
16.000565
 30
0.0
 10
40.547361
 20
17.482250
 30
0.0
 10
39.780060
 20
19.254981
 30
0.0
  0
SPLINE
  5
11a
100
AcDbEntity
  8
0
 62
7
100
AcDbSpline
 70
8
 71
3
 72
8
 73
4
 74
0
 40
0
 40
0
 40
0
 40
0
 40
1
 40
1
 40
1
 40
1
 10
39.780060
 20
19.254981
 30
0.0
 10
39.012759
 20
21.054170
 30
0.0
 10
38.629108
 20
23.131176
 30
0.0
 10
38.629108
 20
25.485997
 30
0.0
  0
SPLINE
  5
11b
100
AcDbEntity
  8
0
 62
7
100
AcDbSpline
 70
8
 71
3
 72
8
 73
4
 74
0
 40
0
 40
0
 40
0
 40
0
 40
1
 40
1
 40
1
 40
1
 10
38.629108
 20
25.485997
 30
0.0
 10
38.629108
 20
27.523314
 30
0.0
 10
38.973071
 20
29.401880
 30
0.0
 10
39.660996
 20
31.121693
 30
0.0
  0
SPLINE
  5
11c
100
AcDbEntity
  8
0
 62
7
100
AcDbSpline
 70
8
 71
3
 72
8
 73
4
 74
0
 40
0
 40
0
 40
0
 40
0
 40
1
 40
1
 40
1
 40
1
 10
39.660996
 20
31.121693
 30
0.0
 10
40.375380
 20
32.841506
 30
0.0
 10
41.367580
 20
34.323192
 30
0.0
 10
42.637596
 20
35.566749
 30
0.0
  0
SPLINE
  5
11d
100
AcDbEntity
  8
0
 62
7
100
AcDbSpline
 70
8
 71
3
 72
8
 73
4
 74
0
 40
0
 40
0
 40
0
 40
0
 40
1
 40
1
 40
1
 40
1
 10
42.637596
 20
35.566749
 30
0.0
 10
43.934071
 20
36.836765
 30
0.0
 10
45.455444
 20
37.815736
 30
0.0
 10
47.201716
 20
38.503661
 30
0.0
  0
SPLINE
  5
11e
100
AcDbEntity
  8
0
 62
7
100
AcDbSpline
 70
8
 71
3
 72
8
 73
4
 74
0
 40
0
 40
0
 40
0
 40
0
 40
1
 40
1
 40
1
 40
1
 10
47.201716
 20
38.503661
 30
0.0
 10
48.947988
 20
39.218045
 30
0.0
 10
50.853012
 20
39.575237
 30
0.0
 10
52.916788
 20
39.575237
 30
0.0
  0
SPLINE
  5
11f
100
AcDbEntity
  8
0
 62
7
100
AcDbSpline
 70
8
 71
3
 72
8
 73
4
 74
0
 40
0
 40
0
 40
0
 40
0
 40
1
 40
1
 40
1
 40
1
 10
52.916788
 20
39.575237
 30
0.0
 10
54.080969
 20
39.575237
 30
0.0
 10
55.218692
 20
39.442944
 30
0.0
 10
56.329956
 20
39.178357
 30
0.0
  0
SPLINE
  5
120
100
AcDbEntity
  8
0
 62
7
100
AcDbSpline
 70
8
 71
3
 72
8
 73
4
 74
0
 40
0
 40
0
 40
0
 40
0
 40
1
 40
1
 40
1
 40
1
 10
56.329956
 20
39.178357
 30
0.0
 10
57.441220
 20
38.913770
 30
0.0
 10
58.486337
 20
38.530120
 30
0.0
 10
59.465308
 20
38.027405
 30
0.0
  0
LWPOLYLINE
  5
121
100
AcDbEntity
  8
0
 62
7
100
AcDbPolyline
 90
4
 70
1
 10
-0.000005
 20
52.122750
 30
0.0
 10
264.579980
 20
52.122750
 30
0.0
 10
264.579980
 20
-0.794250
 30
0.0
 10
-0.000005
 20
-0.794250
 30
0.0
  0
SPLINE
  5
122
100
AcDbEntity
  8
0
 62
7
100
AcDbSpline
 70
8
 71
3
 72
8
 73
4
 74
0
 40
0
 40
0
 40
0
 40
0
 40
1
 40
1
 40
1
 40
1
 10
68.990459
 20
14.016165
 30
0.0
 10
68.990459
 20
13.328240
 30
0.0
 10
68.765560
 20
12.746149
 30
0.0
 10
68.315763
 20
12.269893
 30
0.0
  0
SPLINE
  5
123
100
AcDbEntity
  8
0
 62
7
100
AcDbSpline
 70
8
 71
3
 72
8
 73
4
 74
0
 40
0
 40
0
 40
0
 40
0
 40
1
 40
1
 40
1
 40
1
 10
68.315763
 20
12.269893
 30
0.0
 10
67.865966
 20
11.820096
 30
0.0
 10
67.297104
 20
11.595197
 30
0.0
 10
66.609179
 20
11.595197
 30
0.0
  0
SPLINE
  5
124
100
AcDbEntity
  8
0
 62
7
100
AcDbSpline
 70
8
 71
3
 72
8
 73
4
 74
0
 40
0
 40
0
 40
0
 40
0
 40
1
 40
1
 40
1
 40
1
 10
66.609179
 20
11.595197
 30
0.0
 10
65.921254
 20
11.595197
 30
0.0
 10
65.352392
 20
11.820096
 30
0.0
 10
64.902595
 20
12.269893
 30
0.0
  0
SPLINE
  5
125
100
AcDbEntity
  8
0
 62
7
100
AcDbSpline
 70
8
 71
3
 72
8
 73
4
 74
0
 40
0
 40
0
 40
0
 40
0
 40
1
 40
1
 40
1
 40
1
 10
64.902595
 20
12.269893
 30
0.0
 10
64.452798
 20
12.746149
 30
0.0
 10
64.227899
 20
13.328240
 30
0.0
 10
64.227899
 20
14.016165
 30
0.0
  0
LWPOLYLINE
  5
126
100
AcDbEntity
  8
0
 62
7
100
AcDbPolyline
 90
1
 70
1
 10
59.465308
 20
38.027405
 30
0.0
  0
SPLINE
  5
127
100
AcDbEntity
  8
0
 62
7
100
AcDbSpline
 70
8
 71
3
 72
8
 73
4
 74
0
 40
0
 40
0
 40
0
 40
0
 40
1
 40
1
 40
1
 40
1
 10
64.227899
 20
30.407309
 30
0.0
 10
64.227899
 20
31.095234
 30
0.0
 10
64.452798
 20
31.664096
 30
0.0
 10
64.902595
 20
32.113893
 30
0.0
  0
SPLINE
  5
128
100
AcDbEntity
  8
0
 62
7
100
AcDbSpline
 70
8
 71
3
 72
8
 73
4
 74
0
 40
0
 40
0
 40
0
 40
0
 40
1
 40
1
 40
1
 40
1
 10
64.902595
 20
32.113893
 30
0.0
 10
65.352392
 20
32.590149
 30
0.0
 10
65.921254
 20
32.828277
 30
0.0
 10
66.609179
 20
32.828277
 30
0.0
  0
SPLINE
  5
129
100
AcDbEntity
  8
0
 62
7
100
AcDbSpline
 70
8
 71
3
 72
8
 73
4
 74
0
 40
0
 40
0
 40
0
 40
0
 40
1
 40
1
 40
1
 40
1
 10
66.609179
 20
32.828277
 30
0.0
 10
67.297104
 20
32.828277
 30
0.0
 10
67.865966
 20
32.590149
 30
0.0
 10
68.315763
 20
32.113893
 30
0.0
  0
SPLINE
  5
12a
100
AcDbEntity
  8
0
 62
7
100
AcDbSpline
 70
8
 71
3
 72
8
 73
4
 74
0
 40
0
 40
0
 40
0
 40
0
 40
1
 40
1
 40
1
 40
1
 10
68.315763
 20
32.113893
 30
0.0
 10
68.765560
 20
31.664096
 30
0.0
 10
68.990459
 20
31.095234
 30
0.0
 10
68.990459
 20
30.407309
 30
0.0
  0
LWPOLYLINE
  5
12b
100
AcDbEntity
  8
0
 62
7
100
AcDbPolyline
 90
2
 70
0
 10
64.227899
 20
14.016165
 30
0.0
 10
64.227899
 20
30.407309
 30
0.0
  0
SPLINE
  5
12c
100
AcDbEntity
  8
0
 62
7
100
AcDbSpline
 70
8
 71
3
 72
8
 73
4
 74
0
 40
0
 40
0
 40
0
 40
0
 40
1
 40
1
 40
1
 40
1
 10
66.569491
 20
35.407997
 30
0.0
 10
65.669896
 20
35.407997
 30
0.0
 10
65.034888
 20
35.553520
 30
0.0
 10
64.664467
 20
35.844565
 30
0.0
  0
SPLINE
  5
12d
100
AcDbEntity
  8
0
 62
7
100
AcDbSpline
 70
8
 71
3
 72
8
 73
4
 74
0
 40
0
 40
0
 40
0
 40
0
 40
1
 40
1
 40
1
 40
1
 10
64.664467
 20
35.844565
 30
0.0
 10
64.294046
 20
36.135610
 30
0.0
 10
64.108835
 20
36.651554
 30
0.0
 10
64.108835
 20
37.392397
 30
0.0
  0
LWPOLYLINE
  5
12e
100
AcDbEntity
  8
0
 62
7
100
AcDbPolyline
 90
2
 70
0
 10
68.990459
 20
30.407309
 30
0.0
 10
68.990459
 20
14.016165
 30
0.0
  0
SPLINE
  5
12f
100
AcDbEntity
  8
0
 62
7
100
AcDbSpline
 70
8
 71
3
 72
8
 73
4
 74
0
 40
0
 40
0
 40
0
 40
0
 40
1
 40
1
 40
1
 40
1
 10
64.108835
 20
38.146469
 30
0.0
 10
64.108835
 20
38.913770
 30
0.0
 10
64.307275
 20
39.429714
 30
0.0
 10
64.704155
 20
39.694301
 30
0.0
  0
SPLINE
  5
130
100
AcDbEntity
  8
0
 62
7
100
AcDbSpline
 70
8
 71
3
 72
8
 73
4
 74
0
 40
0
 40
0
 40
0
 40
0
 40
1
 40
1
 40
1
 40
1
 10
64.704155
 20
39.694301
 30
0.0
 10
65.127494
 20
39.985346
 30
0.0
 10
65.762502
 20
40.130869
 30
0.0
 10
66.609179
 20
40.130869
 30
0.0
  0
SPLINE
  5
131
100
AcDbEntity
  8
0
 62
7
100
AcDbSpline
 70
8
 71
3
 72
8
 73
4
 74
0
 40
0
 40
0
 40
0
 40
0
 40
1
 40
1
 40
1
 40
1
 10
66.609179
 20
40.130869
 30
0.0
 10
67.535232
 20
40.130869
 30
0.0
 10
68.183470
 20
39.985346
 30
0.0
 10
68.553891
 20
39.694301
 30
0.0
  0
SPLINE
  5
132
100
AcDbEntity
  8
0
 62
7
100
AcDbSpline
 70
8
 71
3
 72
8
 73
4
 74
0
 40
0
 40
0
 40
0
 40
0
 40
1
 40
1
 40
1
 40
1
 10
68.553891
 20
39.694301
 30
0.0
 10
68.924312
 20
39.403256
 30
0.0
 10
69.109523
 20
38.887312
 30
0.0
 10
69.109523
 20
38.146469
 30
0.0
  0
LWPOLYLINE
  5
133
100
AcDbEntity
  8
0
 62
7
100
AcDbPolyline
 90
2
 70
0
 10
64.108835
 20
37.392397
 30
0.0
 10
64.108835
 20
38.146469
 30
0.0
  0
SPLINE
  5
134
100
AcDbEntity
  8
0
 62
7
100
AcDbSpline
 70
8
 71
3
 72
8
 73
4
 74
0
 40
0
 40
0
 40
0
 40
0
 40
1
 40
1
 40
1
 40
1
 10
69.109523
 20
37.392397
 30
0.0
 10
69.109523
 20
36.625096
 30
0.0
 10
68.911083
 20
36.095922
 30
0.0
 10
68.514203
 20
35.804877
 30
0.0
  0
SPLINE
  5
135
100
AcDbEntity
  8
0
 62
7
100
AcDbSpline
 70
8
 71
3
 72
8
 73
4
 74
0
 40
0
 40
0
 40
0
 40
0
 40
1
 40
1
 40
1
 40
1
 10
68.514203
 20
35.804877
 30
0.0
 10
68.117323
 20
35.540290
 30
0.0
 10
67.469086
 20
35.407997
 30
0.0
 10
66.569491
 20
35.407997
 30
0.0
  0
LWPOLYLINE
  5
136
100
AcDbEntity
  8
0
 62
7
100
AcDbPolyline
 90
2
 70
0
 10
69.109523
 20
38.146469
 30
0.0
 10
69.109523
 20
37.392397
 30
0.0
  0
SPLINE
  5
137
100
AcDbEntity
  8
0
 62
7
100
AcDbSpline
 70
8
 71
3
 72
8
 73
4
 74
0
 40
0
 40
0
 40
0
 40
0
 40
1
 40
1
 40
1
 40
1
 10
85.222854
 20
33.225157
 30
0.0
 10
87.180795
 20
33.225157
 30
0.0
 10
88.662481
 20
32.815048
 30
0.0
 10
89.667910
 20
31.994829
 30
0.0
  0
SPLINE
  5
138
100
AcDbEntity
  8
0
 62
7
100
AcDbSpline
 70
8
 71
3
 72
8
 73
4
 74
0
 40
0
 40
0
 40
0
 40
0
 40
1
 40
1
 40
1
 40
1
 10
89.667910
 20
31.994829
 30
0.0
 10
90.699798
 20
31.174610
 30
0.0
 10
91.400953
 20
30.076576
 30
0.0
 10
91.771374
 20
28.700725
 30
0.0
  0
SPLINE
  5
139
100
AcDbEntity
  8
0
 62
7
100
AcDbSpline
 70
8
 71
3
 72
8
 73
4
 74
0
 40
0
 40
0
 40
0
 40
0
 40
1
 40
1
 40
1
 40
1
 10
91.771374
 20
28.700725
 30
0.0
 10
92.168254
 20
27.351333
 30
0.0
 10
92.366694
 20
25.843189
 30
0.0
 10
92.366694
 20
24.176293
 30
0.0
  0
LWPOLYLINE
  5
13a
100
AcDbEntity
  8
0
 62
7
100
AcDbPolyline
 90
1
 70
1
 10
66.569491
 20
35.407997
 30
0.0
  0
SPLINE
  5
13b
100
AcDbEntity
  8
0
 62
7
100
AcDbSpline
 70
8
 71
3
 72
8
 73
4
 74
0
 40
0
 40
0
 40
0
 40
0
 40
1
 40
1
 40
1
 40
1
 10
92.366694
 20
14.016165
 30
0.0
 10
92.366694
 20
13.328240
 30
0.0
 10
92.141795
 20
12.746149
 30
0.0
 10
91.691998
 20
12.269893
 30
0.0
  0
SPLINE
  5
13c
100
AcDbEntity
  8
0
 62
7
100
AcDbSpline
 70
8
 71
3
 72
8
 73
4
 74
0
 40
0
 40
0
 40
0
 40
0
 40
1
 40
1
 40
1
 40
1
 10
91.691998
 20
12.269893
 30
0.0
 10
91.242201
 20
11.820096
 30
0.0
 10
90.673339
 20
11.595197
 30
0.0
 10
89.985414
 20
11.595197
 30
0.0
  0
SPLINE
  5
13d
100
AcDbEntity
  8
0
 62
7
100
AcDbSpline
 70
8
 71
3
 72
8
 73
4
 74
0
 40
0
 40
0
 40
0
 40
0
 40
1
 40
1
 40
1
 40
1
 10
89.985414
 20
11.595197
 30
0.0
 10
89.297489
 20
11.595197
 30
0.0
 10
88.728627
 20
11.820096
 30
0.0
 10
88.278830
 20
12.269893
 30
0.0
  0
SPLINE
  5
13e
100
AcDbEntity
  8
0
 62
7
100
AcDbSpline
 70
8
 71
3
 72
8
 73
4
 74
0
 40
0
 40
0
 40
0
 40
0
 40
1
 40
1
 40
1
 40
1
 10
88.278830
 20
12.269893
 30
0.0
 10
87.829033
 20
12.746149
 30
0.0
 10
87.604134
 20
13.328240
 30
0.0
 10
87.604134
 20
14.016165
 30
0.0
  0
LWPOLYLINE
  5
13f
100
AcDbEntity
  8
0
 62
7
100
AcDbPolyline
 90
2
 70
0
 10
92.366694
 20
24.176293
 30
0.0
 10
92.366694
 20
14.016165
 30
0.0
  0
SPLINE
  5
140
100
AcDbEntity
  8
0
 62
7
100
AcDbSpline
 70
8
 71
3
 72
8
 73
4
 74
0
 40
0
 40
0
 40
0
 40
0
 40
1
 40
1
 40
1
 40
1
 10
87.604134
 20
24.176293
 30
0.0
 10
87.604134
 20
25.049429
 30
0.0
 10
87.485070
 20
25.829960
 30
0.0
 10
87.246942
 20
26.517885
 30
0.0
  0
SPLINE
  5
141
100
AcDbEntity
  8
0
 62
7
100
AcDbSpline
 70
8
 71
3
 72
8
 73
4
 74
0
 40
0
 40
0
 40
0
 40
0
 40
1
 40
1
 40
1
 40
1
 10
87.246942
 20
26.517885
 30
0.0
 10
87.035273
 20
27.232269
 30
0.0
 10
86.638393
 20
27.801130
 30
0.0
 10
86.056302
 20
28.224469
 30
0.0
  0
SPLINE
  5
142
100
AcDbEntity
  8
0
 62
7
100
AcDbSpline
 70
8
 71
3
 72
8
 73
4
 74
0
 40
0
 40
0
 40
0
 40
0
 40
1
 40
1
 40
1
 40
1
 10
86.056302
 20
28.224469
 30
0.0
 10
85.474211
 20
28.647808
 30
0.0
 10
84.640763
 20
28.859477
 30
0.0
 10
83.555958
 20
28.859477
 30
0.0
  0
SPLINE
  5
143
100
AcDbEntity
  8
0
 62
7
100
AcDbSpline
 70
8
 71
3
 72
8
 73
4
 74
0
 40
0
 40
0
 40
0
 40
0
 40
1
 40
1
 40
1
 40
1
 10
83.555958
 20
28.859477
 30
0.0
 10
82.497611
 20
28.859477
 30
0.0
 10
81.598017
 20
28.647808
 30
0.0
 10
80.857174
 20
28.224469
 30
0.0
  0
SPLINE
  5
144
100
AcDbEntity
  8
0
 62
7
100
AcDbSpline
 70
8
 71
3
 72
8
 73
4
 74
0
 40
0
 40
0
 40
0
 40
0
 40
1
 40
1
 40
1
 40
1
 10
80.857174
 20
28.224469
 30
0.0
 10
80.142790
 20
27.801130
 30
0.0
 10
79.587158
 20
27.232269
 30
0.0
 10
79.190278
 20
26.517885
 30
0.0
  0
SPLINE
  5
145
100
AcDbEntity
  8
0
 62
7
100
AcDbSpline
 70
8
 71
3
 72
8
 73
4
 74
0
 40
0
 40
0
 40
0
 40
0
 40
1
 40
1
 40
1
 40
1
 10
79.190278
 20
26.517885
 30
0.0
 10
78.819857
 20
25.829960
 30
0.0
 10
78.634646
 20
25.049429
 30
0.0
 10
78.634646
 20
24.176293
 30
0.0
  0
LWPOLYLINE
  5
146
100
AcDbEntity
  8
0
 62
7
100
AcDbPolyline
 90
2
 70
0
 10
87.604134
 20
14.016165
 30
0.0
 10
87.604134
 20
24.176293
 30
0.0
  0
SPLINE
  5
147
100
AcDbEntity
  8
0
 62
7
100
AcDbSpline
 70
8
 71
3
 72
8
 73
4
 74
0
 40
0
 40
0
 40
0
 40
0
 40
1
 40
1
 40
1
 40
1
 10
78.634646
 20
14.016165
 30
0.0
 10
78.634646
 20
13.328240
 30
0.0
 10
78.409747
 20
12.746149
 30
0.0
 10
77.959950
 20
12.269893
 30
0.0
  0
SPLINE
  5
148
100
AcDbEntity
  8
0
 62
7
100
AcDbSpline
 70
8
 71
3
 72
8
 73
4
 74
0
 40
0
 40
0
 40
0
 40
0
 40
1
 40
1
 40
1
 40
1
 10
77.959950
 20
12.269893
 30
0.0
 10
77.510153
 20
11.820096
 30
0.0
 10
76.941291
 20
11.595197
 30
0.0
 10
76.253366
 20
11.595197
 30
0.0
  0
SPLINE
  5
149
100
AcDbEntity
  8
0
 62
7
100
AcDbSpline
 70
8
 71
3
 72
8
 73
4
 74
0
 40
0
 40
0
 40
0
 40
0
 40
1
 40
1
 40
1
 40
1
 10
76.253366
 20
11.595197
 30
0.0
 10
75.565441
 20
11.595197
 30
0.0
 10
74.996579
 20
11.820096
 30
0.0
 10
74.546782
 20
12.269893
 30
0.0
  0
SPLINE
  5
14a
100
AcDbEntity
  8
0
 62
7
100
AcDbSpline
 70
8
 71
3
 72
8
 73
4
 74
0
 40
0
 40
0
 40
0
 40
0
 40
1
 40
1
 40
1
 40
1
 10
74.546782
 20
12.269893
 30
0.0
 10
74.096985
 20
12.746149
 30
0.0
 10
73.872086
 20
13.328240
 30
0.0
 10
73.872086
 20
14.016165
 30
0.0
  0
LWPOLYLINE
  5
14b
100
AcDbEntity
  8
0
 62
7
100
AcDbPolyline
 90
2
 70
0
 10
78.634646
 20
24.176293
 30
0.0
 10
78.634646
 20
14.016165
 30
0.0
  0
SPLINE
  5
14c
100
AcDbEntity
  8
0
 62
7
100
AcDbSpline
 70
8
 71
3
 72
8
 73
4
 74
0
 40
0
 40
0
 40
0
 40
0
 40
1
 40
1
 40
1
 40
1
 10
73.872086
 20
30.407309
 30
0.0
 10
73.872086
 20
31.095234
 30
0.0
 10
74.096985
 20
31.664096
 30
0.0
 10
74.546782
 20
32.113893
 30
0.0
  0
SPLINE
  5
14d
100
AcDbEntity
  8
0
 62
7
100
AcDbSpline
 70
8
 71
3
 72
8
 73
4
 74
0
 40
0
 40
0
 40
0
 40
0
 40
1
 40
1
 40
1
 40
1
 10
74.546782
 20
32.113893
 30
0.0
 10
74.996579
 20
32.590149
 30
0.0
 10
75.565441
 20
32.828277
 30
0.0
 10
76.253366
 20
32.828277
 30
0.0
  0
SPLINE
  5
14e
100
AcDbEntity
  8
0
 62
7
100
AcDbSpline
 70
8
 71
3
 72
8
 73
4
 74
0
 40
0
 40
0
 40
0
 40
0
 40
1
 40
1
 40
1
 40
1
 10
76.253366
 20
32.828277
 30
0.0
 10
76.941291
 20
32.828277
 30
0.0
 10
77.510153
 20
32.590149
 30
0.0
 10
77.959950
 20
32.113893
 30
0.0
  0
SPLINE
  5
14f
100
AcDbEntity
  8
0
 62
7
100
AcDbSpline
 70
8
 71
3
 72
8
 73
4
 74
0
 40
0
 40
0
 40
0
 40
0
 40
1
 40
1
 40
1
 40
1
 10
77.959950
 20
32.113893
 30
0.0
 10
78.409747
 20
31.664096
 30
0.0
 10
78.634646
 20
31.095234
 30
0.0
 10
78.634646
 20
30.407309
 30
0.0
  0
LWPOLYLINE
  5
150
100
AcDbEntity
  8
0
 62
7
100
AcDbPolyline
 90
2
 70
0
 10
73.872086
 20
14.016165
 30
0.0
 10
73.872086
 20
30.407309
 30
0.0
  0
SPLINE
  5
151
100
AcDbEntity
  8
0
 62
7
100
AcDbSpline
 70
8
 71
3
 72
8
 73
4
 74
0
 40
0
 40
0
 40
0
 40
0
 40
1
 40
1
 40
1
 40
1
 10
78.039326
 20
28.819789
 30
0.0
 10
78.277454
 20
29.269586
 30
0.0
 10
78.621417
 20
29.745842
 30
0.0
 10
79.071214
 20
30.248557
 30
0.0
  0
SPLINE
  5
152
100
AcDbEntity
  8
0
 62
7
100
AcDbSpline
 70
8
 71
3
 72
8
 73
4
 74
0
 40
0
 40
0
 40
0
 40
0
 40
1
 40
1
 40
1
 40
1
 10
79.071214
 20
30.248557
 30
0.0
 10
79.521011
 20
30.777730
 30
0.0
 10
80.050185
 20
31.267216
 30
0.0
 10
80.658734
 20
31.717013
 30
0.0
  0
SPLINE
  5
153
100
AcDbEntity
  8
0
 62
7
100
AcDbSpline
 70
8
 71
3
 72
8
 73
4
 74
0
 40
0
 40
0
 40
0
 40
0
 40
1
 40
1
 40
1
 40
1
 10
80.658734
 20
31.717013
 30
0.0
 10
81.267283
 20
32.166810
 30
0.0
 10
81.955209
 20
32.524002
 30
0.0
 10
82.722510
 20
32.788589
 30
0.0
  0
SPLINE
  5
154
100
AcDbEntity
  8
0
 62
7
100
AcDbSpline
 70
8
 71
3
 72
8
 73
4
 74
0
 40
0
 40
0
 40
0
 40
0
 40
1
 40
1
 40
1
 40
1
 10
82.722510
 20
32.788589
 30
0.0
 10
83.489811
 20
33.079634
 30
0.0
 10
84.323259
 20
33.225157
 30
0.0
 10
85.222854
 20
33.225157
 30
0.0
  0
LWPOLYLINE
  5
155
100
AcDbEntity
  8
0
 62
7
100
AcDbPolyline
 90
3
 70
0
 10
78.634646
 20
30.407309
 30
0.0
 10
78.634646
 20
28.700725
 30
0.0
 10
78.039326
 20
28.819789
 30
0.0
  0
SPLINE
  5
156
100
AcDbEntity
  8
0
 62
7
100
AcDbSpline
 70
8
 71
3
 72
8
 73
4
 74
0
 40
0
 40
0
 40
0
 40
0
 40
1
 40
1
 40
1
 40
1
 10
108.876930
 20
33.225157
 30
0.0
 10
110.834870
 20
33.225157
 30
0.0
 10
112.316553
 20
32.815048
 30
0.0
 10
113.321980
 20
31.994829
 30
0.0
  0
SPLINE
  5
157
100
AcDbEntity
  8
0
 62
7
100
AcDbSpline
 70
8
 71
3
 72
8
 73
4
 74
0
 40
0
 40
0
 40
0
 40
0
 40
1
 40
1
 40
1
 40
1
 10
113.321980
 20
31.994829
 30
0.0
 10
114.353867
 20
31.174610
 30
0.0
 10
115.055023
 20
30.076576
 30
0.0
 10
115.425450
 20
28.700725
 30
0.0
  0
SPLINE
  5
158
100
AcDbEntity
  8
0
 62
7
100
AcDbSpline
 70
8
 71
3
 72
8
 73
4
 74
0
 40
0
 40
0
 40
0
 40
0
 40
1
 40
1
 40
1
 40
1
 10
115.425450
 20
28.700725
 30
0.0
 10
115.822330
 20
27.351333
 30
0.0
 10
116.020770
 20
25.843189
 30
0.0
 10
116.020770
 20
24.176293
 30
0.0
  0
LWPOLYLINE
  5
159
100
AcDbEntity
  8
0
 62
7
100
AcDbPolyline
 90
1
 70
1
 10
85.222854
 20
33.225157
 30
0.0
  0
SPLINE
  5
15a
100
AcDbEntity
  8
0
 62
7
100
AcDbSpline
 70
8
 71
3
 72
8
 73
4
 74
0
 40
0
 40
0
 40
0
 40
0
 40
1
 40
1
 40
1
 40
1
 10
116.020770
 20
14.016165
 30
0.0
 10
116.020770
 20
13.328240
 30
0.0
 10
115.795870
 20
12.746149
 30
0.0
 10
115.346070
 20
12.269893
 30
0.0
  0
SPLINE
  5
15b
100
AcDbEntity
  8
0
 62
7
100
AcDbSpline
 70
8
 71
3
 72
8
 73
4
 74
0
 40
0
 40
0
 40
0
 40
0
 40
1
 40
1
 40
1
 40
1
 10
115.346070
 20
12.269893
 30
0.0
 10
114.896270
 20
11.820096
 30
0.0
 10
114.327410
 20
11.595197
 30
0.0
 10
113.639490
 20
11.595197
 30
0.0
  0
SPLINE
  5
15c
100
AcDbEntity
  8
0
 62
7
100
AcDbSpline
 70
8
 71
3
 72
8
 73
4
 74
0
 40
0
 40
0
 40
0
 40
0
 40
1
 40
1
 40
1
 40
1
 10
113.639490
 20
11.595197
 30
0.0
 10
112.951563
 20
11.595197
 30
0.0
 10
112.382700
 20
11.820096
 30
0.0
 10
111.932900
 20
12.269893
 30
0.0
  0
SPLINE
  5
15d
100
AcDbEntity
  8
0
 62
7
100
AcDbSpline
 70
8
 71
3
 72
8
 73
4
 74
0
 40
0
 40
0
 40
0
 40
0
 40
1
 40
1
 40
1
 40
1
 10
111.932900
 20
12.269893
 30
0.0
 10
111.483107
 20
12.746149
 30
0.0
 10
111.258210
 20
13.328240
 30
0.0
 10
111.258210
 20
14.016165
 30
0.0
  0
LWPOLYLINE
  5
15e
100
AcDbEntity
  8
0
 62
7
100
AcDbPolyline
 90
2
 70
0
 10
116.020770
 20
24.176293
 30
0.0
 10
116.020770
 20
14.016165
 30
0.0
  0
SPLINE
  5
15f
100
AcDbEntity
  8
0
 62
7
100
AcDbSpline
 70
8
 71
3
 72
8
 73
4
 74
0
 40
0
 40
0
 40
0
 40
0
 40
1
 40
1
 40
1
 40
1
 10
111.258210
 20
24.176293
 30
0.0
 10
111.258210
 20
25.049429
 30
0.0
 10
111.139143
 20
25.829960
 30
0.0
 10
110.901010
 20
26.517885
 30
0.0
  0
SPLINE
  5
160
100
AcDbEntity
  8
0
 62
7
100
AcDbSpline
 70
8
 71
3
 72
8
 73
4
 74
0
 40
0
 40
0
 40
0
 40
0
 40
1
 40
1
 40
1
 40
1
 10
110.901010
 20
26.517885
 30
0.0
 10
110.689343
 20
27.232269
 30
0.0
 10
110.292463
 20
27.801130
 30
0.0
 10
109.710370
 20
28.224469
 30
0.0
  0
SPLINE
  5
161
100
AcDbEntity
  8
0
 62
7
100
AcDbSpline
 70
8
 71
3
 72
8
 73
4
 74
0
 40
0
 40
0
 40
0
 40
0
 40
1
 40
1
 40
1
 40
1
 10
109.710370
 20
28.224469
 30
0.0
 10
109.128283
 20
28.647808
 30
0.0
 10
108.294837
 20
28.859477
 30
0.0
 10
107.210030
 20
28.859477
 30
0.0
  0
SPLINE
  5
162
100
AcDbEntity
  8
0
 62
7
100
AcDbSpline
 70
8
 71
3
 72
8
 73
4
 74
0
 40
0
 40
0
 40
0
 40
0
 40
1
 40
1
 40
1
 40
1
 10
107.210030
 20
28.859477
 30
0.0
 10
106.151683
 20
28.859477
 30
0.0
 10
105.252090
 20
28.647808
 30
0.0
 10
104.511250
 20
28.224469
 30
0.0
  0
SPLINE
  5
163
100
AcDbEntity
  8
0
 62
7
100
AcDbSpline
 70
8
 71
3
 72
8
 73
4
 74
0
 40
0
 40
0
 40
0
 40
0
 40
1
 40
1
 40
1
 40
1
 10
104.511250
 20
28.224469
 30
0.0
 10
103.796863
 20
27.801130
 30
0.0
 10
103.241230
 20
27.232269
 30
0.0
 10
102.844350
 20
26.517885
 30
0.0
  0
SPLINE
  5
164
100
AcDbEntity
  8
0
 62
7
100
AcDbSpline
 70
8
 71
3
 72
8
 73
4
 74
0
 40
0
 40
0
 40
0
 40
0
 40
1
 40
1
 40
1
 40
1
 10
102.844350
 20
26.517885
 30
0.0
 10
102.473930
 20
25.829960
 30
0.0
 10
102.288720
 20
25.049429
 30
0.0
 10
102.288720
 20
24.176293
 30
0.0
  0
LWPOLYLINE
  5
165
100
AcDbEntity
  8
0
 62
7
100
AcDbPolyline
 90
2
 70
0
 10
111.258210
 20
14.016165
 30
0.0
 10
111.258210
 20
24.176293
 30
0.0
  0
SPLINE
  5
166
100
AcDbEntity
  8
0
 62
7
100
AcDbSpline
 70
8
 71
3
 72
8
 73
4
 74
0
 40
0
 40
0
 40
0
 40
0
 40
1
 40
1
 40
1
 40
1
 10
102.288720
 20
14.016165
 30
0.0
 10
102.288720
 20
13.328240
 30
0.0
 10
102.063820
 20
12.746149
 30
0.0
 10
101.614020
 20
12.269893
 30
0.0
  0
SPLINE
  5
167
100
AcDbEntity
  8
0
 62
7
100
AcDbSpline
 70
8
 71
3
 72
8
 73
4
 74
0
 40
0
 40
0
 40
0
 40
0
 40
1
 40
1
 40
1
 40
1
 10
101.614020
 20
12.269893
 30
0.0
 10
101.164227
 20
11.820096
 30
0.0
 10
100.595366
 20
11.595197
 30
0.0
 10
99.907438
 20
11.595197
 30
0.0
  0
SPLINE
  5
168
100
AcDbEntity
  8
0
 62
7
100
AcDbSpline
 70
8
 71
3
 72
8
 73
4
 74
0
 40
0
 40
0
 40
0
 40
0
 40
1
 40
1
 40
1
 40
1
 10
99.907438
 20
11.595197
 30
0.0
 10
99.219513
 20
11.595197
 30
0.0
 10
98.650651
 20
11.820096
 30
0.0
 10
98.200854
 20
12.269893
 30
0.0
  0
SPLINE
  5
169
100
AcDbEntity
  8
0
 62
7
100
AcDbSpline
 70
8
 71
3
 72
8
 73
4
 74
0
 40
0
 40
0
 40
0
 40
0
 40
1
 40
1
 40
1
 40
1
 10
98.200854
 20
12.269893
 30
0.0
 10
97.751057
 20
12.746149
 30
0.0
 10
97.526158
 20
13.328240
 30
0.0
 10
97.526158
 20
14.016165
 30
0.0
  0
LWPOLYLINE
  5
16a
100
AcDbEntity
  8
0
 62
7
100
AcDbPolyline
 90
2
 70
0
 10
102.288720
 20
24.176293
 30
0.0
 10
102.288720
 20
14.016165
 30
0.0
  0
SPLINE
  5
16b
100
AcDbEntity
  8
0
 62
7
100
AcDbSpline
 70
8
 71
3
 72
8
 73
4
 74
0
 40
0
 40
0
 40
0
 40
0
 40
1
 40
1
 40
1
 40
1
 10
97.526158
 20
30.407309
 30
0.0
 10
97.526158
 20
31.095234
 30
0.0
 10
97.751057
 20
31.664096
 30
0.0
 10
98.200854
 20
32.113893
 30
0.0
  0
SPLINE
  5
16c
100
AcDbEntity
  8
0
 62
7
100
AcDbSpline
 70
8
 71
3
 72
8
 73
4
 74
0
 40
0
 40
0
 40
0
 40
0
 40
1
 40
1
 40
1
 40
1
 10
98.200854
 20
32.113893
 30
0.0
 10
98.650651
 20
32.590149
 30
0.0
 10
99.219513
 20
32.828277
 30
0.0
 10
99.907438
 20
32.828277
 30
0.0
  0
SPLINE
  5
16d
100
AcDbEntity
  8
0
 62
7
100
AcDbSpline
 70
8
 71
3
 72
8
 73
4
 74
0
 40
0
 40
0
 40
0
 40
0
 40
1
 40
1
 40
1
 40
1
 10
99.907438
 20
32.828277
 30
0.0
 10
100.595366
 20
32.828277
 30
0.0
 10
101.164227
 20
32.590149
 30
0.0
 10
101.614020
 20
32.113893
 30
0.0
  0
SPLINE
  5
16e
100
AcDbEntity
  8
0
 62
7
100
AcDbSpline
 70
8
 71
3
 72
8
 73
4
 74
0
 40
0
 40
0
 40
0
 40
0
 40
1
 40
1
 40
1
 40
1
 10
101.614020
 20
32.113893
 30
0.0
 10
102.063820
 20
31.664096
 30
0.0
 10
102.288720
 20
31.095234
 30
0.0
 10
102.288720
 20
30.407309
 30
0.0
  0
LWPOLYLINE
  5
16f
100
AcDbEntity
  8
0
 62
7
100
AcDbPolyline
 90
2
 70
0
 10
97.526158
 20
14.016165
 30
0.0
 10
97.526158
 20
30.407309
 30
0.0
  0
SPLINE
  5
170
100
AcDbEntity
  8
0
 62
7
100
AcDbSpline
 70
8
 71
3
 72
8
 73
4
 74
0
 40
0
 40
0
 40
0
 40
0
 40
1
 40
1
 40
1
 40
1
 10
101.693400
 20
28.819789
 30
0.0
 10
101.931527
 20
29.269586
 30
0.0
 10
102.275490
 20
29.745842
 30
0.0
 10
102.725290
 20
30.248557
 30
0.0
  0
SPLINE
  5
171
100
AcDbEntity
  8
0
 62
7
100
AcDbSpline
 70
8
 71
3
 72
8
 73
4
 74
0
 40
0
 40
0
 40
0
 40
0
 40
1
 40
1
 40
1
 40
1
 10
102.725290
 20
30.248557
 30
0.0
 10
103.175083
 20
30.777730
 30
0.0
 10
103.704257
 20
31.267216
 30
0.0
 10
104.312810
 20
31.717013
 30
0.0
  0
SPLINE
  5
172
100
AcDbEntity
  8
0
 62
7
100
AcDbSpline
 70
8
 71
3
 72
8
 73
4
 74
0
 40
0
 40
0
 40
0
 40
0
 40
1
 40
1
 40
1
 40
1
 10
104.312810
 20
31.717013
 30
0.0
 10
104.921357
 20
32.166810
 30
0.0
 10
105.609280
 20
32.524002
 30
0.0
 10
106.376580
 20
32.788589
 30
0.0
  0
SPLINE
  5
173
100
AcDbEntity
  8
0
 62
7
100
AcDbSpline
 70
8
 71
3
 72
8
 73
4
 74
0
 40
0
 40
0
 40
0
 40
0
 40
1
 40
1
 40
1
 40
1
 10
106.376580
 20
32.788589
 30
0.0
 10
107.143880
 20
33.079634
 30
0.0
 10
107.977330
 20
33.225157
 30
0.0
 10
108.876930
 20
33.225157
 30
0.0
  0
LWPOLYLINE
  5
174
100
AcDbEntity
  8
0
 62
7
100
AcDbPolyline
 90
3
 70
0
 10
102.288720
 20
30.407309
 30
0.0
 10
102.288720
 20
28.700725
 30
0.0
 10
101.693400
 20
28.819789
 30
0.0
  0
SPLINE
  5
175
100
AcDbEntity
  8
0
 62
7
100
AcDbSpline
 70
8
 71
3
 72
8
 73
4
 74
0
 40
0
 40
0
 40
0
 40
0
 40
1
 40
1
 40
1
 40
1
 10
138.563570
 20
33.225157
 30
0.0
 10
139.251497
 20
33.225157
 30
0.0
 10
139.820360
 20
33.000258
 30
0.0
 10
140.270160
 20
32.550461
 30
0.0
  0
SPLINE
  5
176
100
AcDbEntity
  8
0
 62
7
100
AcDbSpline
 70
8
 71
3
 72
8
 73
4
 74
0
 40
0
 40
0
 40
0
 40
0
 40
1
 40
1
 40
1
 40
1
 10
140.270160
 20
32.550461
 30
0.0
 10
140.719953
 20
32.100664
 30
0.0
 10
140.944850
 20
31.518573
 30
0.0
 10
140.944850
 20
30.804189
 30
0.0
  0
LWPOLYLINE
  5
177
100
AcDbEntity
  8
0
 62
7
100
AcDbPolyline
 90
1
 70
1
 10
108.876930
 20
33.225157
 30
0.0
  0
SPLINE
  5
178
100
AcDbEntity
  8
0
 62
7
100
AcDbSpline
 70
8
 71
3
 72
8
 73
4
 74
0
 40
0
 40
0
 40
0
 40
0
 40
1
 40
1
 40
1
 40
1
 10
140.944850
 20
14.016165
 30
0.0
 10
140.944850
 20
13.328240
 30
0.0
 10
140.719953
 20
12.746149
 30
0.0
 10
140.270160
 20
12.269893
 30
0.0
  0
SPLINE
  5
179
100
AcDbEntity
  8
0
 62
7
100
AcDbSpline
 70
8
 71
3
 72
8
 73
4
 74
0
 40
0
 40
0
 40
0
 40
0
 40
1
 40
1
 40
1
 40
1
 10
140.270160
 20
12.269893
 30
0.0
 10
139.820360
 20
11.820096
 30
0.0
 10
139.251497
 20
11.595197
 30
0.0
 10
138.563570
 20
11.595197
 30
0.0
  0
SPLINE
  5
17a
100
AcDbEntity
  8
0
 62
7
100
AcDbSpline
 70
8
 71
3
 72
8
 73
4
 74
0
 40
0
 40
0
 40
0
 40
0
 40
1
 40
1
 40
1
 40
1
 10
138.563570
 20
11.595197
 30
0.0
 10
137.875650
 20
11.595197
 30
0.0
 10
137.306790
 20
11.820096
 30
0.0
 10
136.856990
 20
12.269893
 30
0.0
  0
SPLINE
  5
17b
100
AcDbEntity
  8
0
 62
7
100
AcDbSpline
 70
8
 71
3
 72
8
 73
4
 74
0
 40
0
 40
0
 40
0
 40
0
 40
1
 40
1
 40
1
 40
1
 10
136.856990
 20
12.269893
 30
0.0
 10
136.407190
 20
12.746149
 30
0.0
 10
136.182290
 20
13.328240
 30
0.0
 10
136.182290
 20
14.016165
 30
0.0
  0
LWPOLYLINE
  5
17c
100
AcDbEntity
  8
0
 62
7
100
AcDbPolyline
 90
2
 70
0
 10
140.944850
 20
30.804189
 30
0.0
 10
140.944850
 20
14.016165
 30
0.0
  0
SPLINE
  5
17d
100
AcDbEntity
  8
0
 62
7
100
AcDbSpline
 70
8
 71
3
 72
8
 73
4
 74
0
 40
0
 40
0
 40
0
 40
0
 40
1
 40
1
 40
1
 40
1
 10
137.055430
 20
15.603685
 30
0.0
 10
137.055430
 20
15.259722
 30
0.0
 10
136.870220
 20
14.836384
 30
0.0
 10
136.499800
 20
14.333669
 30
0.0
  0
SPLINE
  5
17e
100
AcDbEntity
  8
0
 62
7
100
AcDbSpline
 70
8
 71
3
 72
8
 73
4
 74
0
 40
0
 40
0
 40
0
 40
0
 40
1
 40
1
 40
1
 40
1
 10
136.499800
 20
14.333669
 30
0.0
 10
136.129380
 20
13.857413
 30
0.0
 10
135.626663
 20
13.381157
 30
0.0
 10
134.991650
 20
12.904901
 30
0.0
  0
SPLINE
  5
17f
100
AcDbEntity
  8
0
 62
7
100
AcDbSpline
 70
8
 71
3
 72
8
 73
4
 74
0
 40
0
 40
0
 40
0
 40
0
 40
1
 40
1
 40
1
 40
1
 10
134.991650
 20
12.904901
 30
0.0
 10
134.356643
 20
12.428645
 30
0.0
 10
133.602573
 20
12.018536
 30
0.0
 10
132.729440
 20
11.674573
 30
0.0
  0
SPLINE
  5
180
100
AcDbEntity
  8
0
 62
7
100
AcDbSpline
 70
8
 71
3
 72
8
 73
4
 74
0
 40
0
 40
0
 40
0
 40
0
 40
1
 40
1
 40
1
 40
1
 10
132.729440
 20
11.674573
 30
0.0
 10
131.882760
 20
11.357069
 30
0.0
 10
130.956707
 20
11.198317
 30
0.0
 10
129.951280
 20
11.198317
 30
0.0
  0
SPLINE
  5
181
100
AcDbEntity
  8
0
 62
7
100
AcDbSpline
 70
8
 71
3
 72
8
 73
4
 74
0
 40
0
 40
0
 40
0
 40
0
 40
1
 40
1
 40
1
 40
1
 10
129.951280
 20
11.198317
 30
0.0
 10
128.125633
 20
11.198317
 30
0.0
 10
126.471967
 20
11.661344
 30
0.0
 10
124.990280
 20
12.587397
 30
0.0
  0
SPLINE
  5
182
100
AcDbEntity
  8
0
 62
7
100
AcDbSpline
 70
8
 71
3
 72
8
 73
4
 74
0
 40
0
 40
0
 40
0
 40
0
 40
1
 40
1
 40
1
 40
1
 10
124.990280
 20
12.587397
 30
0.0
 10
123.508593
 20
13.539909
 30
0.0
 10
122.331183
 20
14.836384
 30
0.0
 10
121.458050
 20
16.476821
 30
0.0
  0
SPLINE
  5
183
100
AcDbEntity
  8
0
 62
7
100
AcDbSpline
 70
8
 71
3
 72
8
 73
4
 74
0
 40
0
 40
0
 40
0
 40
0
 40
1
 40
1
 40
1
 40
1
 10
121.458050
 20
16.476821
 30
0.0
 10
120.611370
 20
18.143717
 30
0.0
 10
120.188030
 20
20.048741
 30
0.0
 10
120.188030
 20
22.191893
 30
0.0
  0
SPLINE
  5
184
100
AcDbEntity
  8
0
 62
7
100
AcDbSpline
 70
8
 71
3
 72
8
 73
4
 74
0
 40
0
 40
0
 40
0
 40
0
 40
1
 40
1
 40
1
 40
1
 10
120.188030
 20
22.191893
 30
0.0
 10
120.188030
 20
24.361504
 30
0.0
 10
120.611370
 20
26.266528
 30
0.0
 10
121.458050
 20
27.906965
 30
0.0
  0
SPLINE
  5
185
100
AcDbEntity
  8
0
 62
7
100
AcDbSpline
 70
8
 71
3
 72
8
 73
4
 74
0
 40
0
 40
0
 40
0
 40
0
 40
1
 40
1
 40
1
 40
1
 10
121.458050
 20
27.906965
 30
0.0
 10
122.331183
 20
29.573861
 30
0.0
 10
123.495363
 20
30.870336
 30
0.0
 10
124.950590
 20
31.796389
 30
0.0
  0
SPLINE
  5
186
100
AcDbEntity
  8
0
 62
7
100
AcDbSpline
 70
8
 71
3
 72
8
 73
4
 74
0
 40
0
 40
0
 40
0
 40
0
 40
1
 40
1
 40
1
 40
1
 10
124.950590
 20
31.796389
 30
0.0
 10
126.405817
 20
32.748901
 30
0.0
 10
128.019797
 20
33.225157
 30
0.0
 10
129.792530
 20
33.225157
 30
0.0
  0
SPLINE
  5
187
100
AcDbEntity
  8
0
 62
7
100
AcDbSpline
 70
8
 71
3
 72
8
 73
4
 74
0
 40
0
 40
0
 40
0
 40
0
 40
1
 40
1
 40
1
 40
1
 10
129.792530
 20
33.225157
 30
0.0
 10
130.930250
 20
33.225157
 30
0.0
 10
131.975367
 20
33.053176
 30
0.0
 10
132.927880
 20
32.709213
 30
0.0
  0
SPLINE
  5
188
100
AcDbEntity
  8
0
 62
7
100
AcDbSpline
 70
8
 71
3
 72
8
 73
4
 74
0
 40
0
 40
0
 40
0
 40
0
 40
1
 40
1
 40
1
 40
1
 10
132.927880
 20
32.709213
 30
0.0
 10
133.880393
 20
32.365250
 30
0.0
 10
134.700610
 20
31.928682
 30
0.0
 10
135.388530
 20
31.399509
 30
0.0
  0
SPLINE
  5
189
100
AcDbEntity
  8
0
 62
7
100
AcDbSpline
 70
8
 71
3
 72
8
 73
4
 74
0
 40
0
 40
0
 40
0
 40
0
 40
1
 40
1
 40
1
 40
1
 10
135.388530
 20
31.399509
 30
0.0
 10
136.102917
 20
30.870336
 30
0.0
 10
136.645320
 20
30.327933
 30
0.0
 10
137.015740
 20
29.772301
 30
0.0
  0
SPLINE
  5
18a
100
AcDbEntity
  8
0
 62
7
100
AcDbSpline
 70
8
 71
3
 72
8
 73
4
 74
0
 40
0
 40
0
 40
0
 40
0
 40
1
 40
1
 40
1
 40
1
 10
137.015740
 20
29.772301
 30
0.0
 10
137.412620
 20
29.243128
 30
0.0
 10
137.611060
 20
28.793330
 30
0.0
 10
137.611060
 20
28.422909
 30
0.0
  0
LWPOLYLINE
  5
18b
100
AcDbEntity
  8
0
 62
7
100
AcDbPolyline
 90
3
 70
0
 10
136.182290
 20
14.016165
 30
0.0
 10
136.182290
 20
15.960877
 30
0.0
 10
137.055430
 20
15.603685
 30
0.0
  0
SPLINE
  5
18c
100
AcDbEntity
  8
0
 62
7
100
AcDbSpline
 70
8
 71
3
 72
8
 73
4
 74
0
 40
0
 40
0
 40
0
 40
0
 40
1
 40
1
 40
1
 40
1
 10
136.182290
 20
30.804189
 30
0.0
 10
136.182290
 20
31.492114
 30
0.0
 10
136.407190
 20
32.060976
 30
0.0
 10
136.856990
 20
32.510773
 30
0.0
  0
SPLINE
  5
18d
100
AcDbEntity
  8
0
 62
7
100
AcDbSpline
 70
8
 71
3
 72
8
 73
4
 74
0
 40
0
 40
0
 40
0
 40
0
 40
1
 40
1
 40
1
 40
1
 10
136.856990
 20
32.510773
 30
0.0
 10
137.306790
 20
32.987029
 30
0.0
 10
137.875650
 20
33.225157
 30
0.0
 10
138.563570
 20
33.225157
 30
0.0
  0
LWPOLYLINE
  5
18e
100
AcDbEntity
  8
0
 62
7
100
AcDbPolyline
 90
3
 70
0
 10
137.611060
 20
28.422909
 30
0.0
 10
136.182290
 20
27.906965
 30
0.0
 10
136.182290
 20
30.804189
 30
0.0
  0
SPLINE
  5
18f
100
AcDbEntity
  8
0
 62
7
100
AcDbSpline
 70
8
 71
3
 72
8
 73
4
 74
0
 40
0
 40
0
 40
0
 40
0
 40
1
 40
1
 40
1
 40
1
 10
130.546600
 20
15.563997
 30
0.0
 10
131.710780
 20
15.563997
 30
0.0
 10
132.729437
 20
15.855042
 30
0.0
 10
133.602570
 20
16.437133
 30
0.0
  0
SPLINE
  5
190
100
AcDbEntity
  8
0
 62
7
100
AcDbSpline
 70
8
 71
3
 72
8
 73
4
 74
0
 40
0
 40
0
 40
0
 40
0
 40
1
 40
1
 40
1
 40
1
 10
133.602570
 20
16.437133
 30
0.0
 10
134.475710
 20
17.019224
 30
0.0
 10
135.150407
 20
17.812984
 30
0.0
 10
135.626660
 20
18.818413
 30
0.0
  0
SPLINE
  5
191
100
AcDbEntity
  8
0
 62
7
100
AcDbSpline
 70
8
 71
3
 72
8
 73
4
 74
0
 40
0
 40
0
 40
0
 40
0
 40
1
 40
1
 40
1
 40
1
 10
135.626660
 20
18.818413
 30
0.0
 10
136.129373
 20
19.823842
 30
0.0
 10
136.380730
 20
20.948336
 30
0.0
 10
136.380730
 20
22.191893
 30
0.0
  0
SPLINE
  5
192
100
AcDbEntity
  8
0
 62
7
100
AcDbSpline
 70
8
 71
3
 72
8
 73
4
 74
0
 40
0
 40
0
 40
0
 40
0
 40
1
 40
1
 40
1
 40
1
 10
136.380730
 20
22.191893
 30
0.0
 10
136.380730
 20
23.461909
 30
0.0
 10
136.129373
 20
24.599632
 30
0.0
 10
135.626660
 20
25.605061
 30
0.0
  0
SPLINE
  5
193
100
AcDbEntity
  8
0
 62
7
100
AcDbSpline
 70
8
 71
3
 72
8
 73
4
 74
0
 40
0
 40
0
 40
0
 40
0
 40
1
 40
1
 40
1
 40
1
 10
135.626660
 20
25.605061
 30
0.0
 10
135.150407
 20
26.610490
 30
0.0
 10
134.475710
 20
27.404250
 30
0.0
 10
133.602570
 20
27.986341
 30
0.0
  0
SPLINE
  5
194
100
AcDbEntity
  8
0
 62
7
100
AcDbSpline
 70
8
 71
3
 72
8
 73
4
 74
0
 40
0
 40
0
 40
0
 40
0
 40
1
 40
1
 40
1
 40
1
 10
133.602570
 20
27.986341
 30
0.0
 10
132.729437
 20
28.568432
 30
0.0
 10
131.710780
 20
28.859477
 30
0.0
 10
130.546600
 20
28.859477
 30
0.0
  0
SPLINE
  5
195
100
AcDbEntity
  8
0
 62
7
100
AcDbSpline
 70
8
 71
3
 72
8
 73
4
 74
0
 40
0
 40
0
 40
0
 40
0
 40
1
 40
1
 40
1
 40
1
 10
130.546600
 20
28.859477
 30
0.0
 10
129.408873
 20
28.859477
 30
0.0
 10
128.403443
 20
28.568432
 30
0.0
 10
127.530310
 20
27.986341
 30
0.0
  0
SPLINE
  5
196
100
AcDbEntity
  8
0
 62
7
100
AcDbSpline
 70
8
 71
3
 72
8
 73
4
 74
0
 40
0
 40
0
 40
0
 40
0
 40
1
 40
1
 40
1
 40
1
 10
127.530310
 20
27.986341
 30
0.0
 10
126.657177
 20
27.404250
 30
0.0
 10
125.969250
 20
26.610490
 30
0.0
 10
125.466530
 20
25.605061
 30
0.0
  0
SPLINE
  5
197
100
AcDbEntity
  8
0
 62
7
100
AcDbSpline
 70
8
 71
3
 72
8
 73
4
 74
0
 40
0
 40
0
 40
0
 40
0
 40
1
 40
1
 40
1
 40
1
 10
125.466530
 20
25.605061
 30
0.0
 10
124.990277
 20
24.599632
 30
0.0
 10
124.752150
 20
23.461909
 30
0.0
 10
124.752150
 20
22.191893
 30
0.0
  0
SPLINE
  5
198
100
AcDbEntity
  8
0
 62
7
100
AcDbSpline
 70
8
 71
3
 72
8
 73
4
 74
0
 40
0
 40
0
 40
0
 40
0
 40
1
 40
1
 40
1
 40
1
 10
124.752150
 20
22.191893
 30
0.0
 10
124.752150
 20
20.948336
 30
0.0
 10
124.990277
 20
19.823842
 30
0.0
 10
125.466530
 20
18.818413
 30
0.0
  0
SPLINE
  5
199
100
AcDbEntity
  8
0
 62
7
100
AcDbSpline
 70
8
 71
3
 72
8
 73
4
 74
0
 40
0
 40
0
 40
0
 40
0
 40
1
 40
1
 40
1
 40
1
 10
125.466530
 20
18.818413
 30
0.0
 10
125.969250
 20
17.812984
 30
0.0
 10
126.657177
 20
17.019224
 30
0.0
 10
127.530310
 20
16.437133
 30
0.0
  0
SPLINE
  5
19a
100
AcDbEntity
  8
0
 62
7
100
AcDbSpline
 70
8
 71
3
 72
8
 73
4
 74
0
 40
0
 40
0
 40
0
 40
0
 40
1
 40
1
 40
1
 40
1
 10
127.530310
 20
16.437133
 30
0.0
 10
128.403443
 20
15.855042
 30
0.0
 10
129.408873
 20
15.563997
 30
0.0
 10
130.546600
 20
15.563997
 30
0.0
  0
LWPOLYLINE
  5
19b
100
AcDbEntity
  8
0
 62
7
100
AcDbPolyline
 90
1
 70
1
 10
138.563570
 20
33.225157
 30
0.0
  0
SPLINE
  5
19c
100
AcDbEntity
  8
0
 62
7
100
AcDbSpline
 70
8
 71
3
 72
8
 73
4
 74
0
 40
0
 40
0
 40
0
 40
0
 40
1
 40
1
 40
1
 40
1
 10
157.256640
 20
33.225157
 30
0.0
 10
159.373333
 20
33.225157
 30
0.0
 10
160.934393
 20
32.709213
 30
0.0
 10
161.939820
 20
31.677325
 30
0.0
  0
SPLINE
  5
19d
100
AcDbEntity
  8
0
 62
7
100
AcDbSpline
 70
8
 71
3
 72
8
 73
4
 74
0
 40
0
 40
0
 40
0
 40
0
 40
1
 40
1
 40
1
 40
1
 10
161.939820
 20
31.677325
 30
0.0
 10
162.945253
 20
30.671896
 30
0.0
 10
163.606720
 20
29.362192
 30
0.0
 10
163.924220
 20
27.748213
 30
0.0
  0
LWPOLYLINE
  5
19e
100
AcDbEntity
  8
0
 62
7
100
AcDbPolyline
 90
1
 70
1
 10
130.546600
 20
15.563997
 30
0.0
  0
SPLINE
  5
19f
100
AcDbEntity
  8
0
 62
7
100
AcDbSpline
 70
8
 71
3
 72
8
 73
4
 74
0
 40
0
 40
0
 40
0
 40
0
 40
1
 40
1
 40
1
 40
1
 10
163.567030
 20
28.740413
 30
0.0
 10
163.884537
 20
29.348962
 30
0.0
 10
164.374023
 20
29.997200
 30
0.0
 10
165.035490
 20
30.685125
 30
0.0
  0
SPLINE
  5
1a0
100
AcDbEntity
  8
0
 62
7
100
AcDbSpline
 70
8
 71
3
 72
8
 73
4
 74
0
 40
0
 40
0
 40
0
 40
0
 40
1
 40
1
 40
1
 40
1
 10
165.035490
 20
30.685125
 30
0.0
 10
165.696957
 20
31.399509
 30
0.0
 10
166.490717
 20
31.994829
 30
0.0
 10
167.416770
 20
32.471085
 30
0.0
  0
SPLINE
  5
1a1
100
AcDbEntity
  8
0
 62
7
100
AcDbSpline
 70
8
 71
3
 72
8
 73
4
 74
0
 40
0
 40
0
 40
0
 40
0
 40
1
 40
1
 40
1
 40
1
 10
167.416770
 20
32.471085
 30
0.0
 10
168.369277
 20
32.973800
 30
0.0
 10
169.427623
 20
33.225157
 30
0.0
 10
170.591810
 20
33.225157
 30
0.0
  0
SPLINE
  5
1a2
100
AcDbEntity
  8
0
 62
7
100
AcDbSpline
 70
8
 71
3
 72
8
 73
4
 74
0
 40
0
 40
0
 40
0
 40
0
 40
1
 40
1
 40
1
 40
1
 10
170.591810
 20
33.225157
 30
0.0
 10
172.496830
 20
33.225157
 30
0.0
 10
173.938827
 20
32.815048
 30
0.0
 10
174.917800
 20
31.994829
 30
0.0
  0
SPLINE
  5
1a3
100
AcDbEntity
  8
0
 62
7
100
AcDbSpline
 70
8
 71
3
 72
8
 73
4
 74
0
 40
0
 40
0
 40
0
 40
0
 40
1
 40
1
 40
1
 40
1
 10
174.917800
 20
31.994829
 30
0.0
 10
175.923227
 20
31.174610
 30
0.0
 10
176.611150
 20
30.076576
 30
0.0
 10
176.981570
 20
28.700725
 30
0.0
  0
SPLINE
  5
1a4
100
AcDbEntity
  8
0
 62
7
100
AcDbSpline
 70
8
 71
3
 72
8
 73
4
 74
0
 40
0
 40
0
 40
0
 40
0
 40
1
 40
1
 40
1
 40
1
 10
176.981570
 20
28.700725
 30
0.0
 10
177.351997
 20
27.351333
 30
0.0
 10
177.537210
 20
25.843189
 30
0.0
 10
177.537210
 20
24.176293
 30
0.0
  0
LWPOLYLINE
  5
1a5
100
AcDbEntity
  8
0
 62
7
100
AcDbPolyline
 90
3
 70
0
 10
163.924220
 20
27.748213
 30
0.0
 10
163.249530
 20
28.105405
 30
0.0
 10
163.567030
 20
28.740413
 30
0.0
  0
SPLINE
  5
1a6
100
AcDbEntity
  8
0
 62
7
100
AcDbSpline
 70
8
 71
3
 72
8
 73
4
 74
0
 40
0
 40
0
 40
0
 40
0
 40
1
 40
1
 40
1
 40
1
 10
177.537210
 20
14.016165
 30
0.0
 10
177.537210
 20
13.328240
 30
0.0
 10
177.312310
 20
12.746149
 30
0.0
 10
176.862510
 20
12.269893
 30
0.0
  0
SPLINE
  5
1a7
100
AcDbEntity
  8
0
 62
7
100
AcDbSpline
 70
8
 71
3
 72
8
 73
4
 74
0
 40
0
 40
0
 40
0
 40
0
 40
1
 40
1
 40
1
 40
1
 10
176.862510
 20
12.269893
 30
0.0
 10
176.412710
 20
11.820096
 30
0.0
 10
175.843850
 20
11.595197
 30
0.0
 10
175.155930
 20
11.595197
 30
0.0
  0
SPLINE
  5
1a8
100
AcDbEntity
  8
0
 62
7
100
AcDbSpline
 70
8
 71
3
 72
8
 73
4
 74
0
 40
0
 40
0
 40
0
 40
0
 40
1
 40
1
 40
1
 40
1
 10
175.155930
 20
11.595197
 30
0.0
 10
174.468003
 20
11.595197
 30
0.0
 10
173.899140
 20
11.820096
 30
0.0
 10
173.449340
 20
12.269893
 30
0.0
  0
SPLINE
  5
1a9
100
AcDbEntity
  8
0
 62
7
100
AcDbSpline
 70
8
 71
3
 72
8
 73
4
 74
0
 40
0
 40
0
 40
0
 40
0
 40
1
 40
1
 40
1
 40
1
 10
173.449340
 20
12.269893
 30
0.0
 10
172.999547
 20
12.746149
 30
0.0
 10
172.774650
 20
13.328240
 30
0.0
 10
172.774650
 20
14.016165
 30
0.0
  0
LWPOLYLINE
  5
1aa
100
AcDbEntity
  8
0
 62
7
100
AcDbPolyline
 90
2
 70
0
 10
177.537210
 20
24.176293
 30
0.0
 10
177.537210
 20
14.016165
 30
0.0
  0
SPLINE
  5
1ab
100
AcDbEntity
  8
0
 62
7
100
AcDbSpline
 70
8
 71
3
 72
8
 73
4
 74
0
 40
0
 40
0
 40
0
 40
0
 40
1
 40
1
 40
1
 40
1
 10
172.774650
 20
24.176293
 30
0.0
 10
172.774650
 20
25.049429
 30
0.0
 10
172.668813
 20
25.829960
 30
0.0
 10
172.457140
 20
26.517885
 30
0.0
  0
SPLINE
  5
1ac
100
AcDbEntity
  8
0
 62
7
100
AcDbSpline
 70
8
 71
3
 72
8
 73
4
 74
0
 40
0
 40
0
 40
0
 40
0
 40
1
 40
1
 40
1
 40
1
 10
172.457140
 20
26.517885
 30
0.0
 10
172.245473
 20
27.232269
 30
0.0
 10
171.861823
 20
27.801130
 30
0.0
 10
171.306190
 20
28.224469
 30
0.0
  0
SPLINE
  5
1ad
100
AcDbEntity
  8
0
 62
7
100
AcDbSpline
 70
8
 71
3
 72
8
 73
4
 74
0
 40
0
 40
0
 40
0
 40
0
 40
1
 40
1
 40
1
 40
1
 10
171.306190
 20
28.224469
 30
0.0
 10
170.750557
 20
28.647808
 30
0.0
 10
169.956797
 20
28.859477
 30
0.0
 10
168.924910
 20
28.859477
 30
0.0
  0
SPLINE
  5
1ae
100
AcDbEntity
  8
0
 62
7
100
AcDbSpline
 70
8
 71
3
 72
8
 73
4
 74
0
 40
0
 40
0
 40
0
 40
0
 40
1
 40
1
 40
1
 40
1
 10
168.924910
 20
28.859477
 30
0.0
 10
167.919483
 20
28.859477
 30
0.0
 10
167.059577
 20
28.647808
 30
0.0
 10
166.345190
 20
28.224469
 30
0.0
  0
SPLINE
  5
1af
100
AcDbEntity
  8
0
 62
7
100
AcDbSpline
 70
8
 71
3
 72
8
 73
4
 74
0
 40
0
 40
0
 40
0
 40
0
 40
1
 40
1
 40
1
 40
1
 10
166.345190
 20
28.224469
 30
0.0
 10
165.630803
 20
27.801130
 30
0.0
 10
165.088400
 20
27.232269
 30
0.0
 10
164.717980
 20
26.517885
 30
0.0
  0
SPLINE
  5
1b0
100
AcDbEntity
  8
0
 62
7
100
AcDbSpline
 70
8
 71
3
 72
8
 73
4
 74
0
 40
0
 40
0
 40
0
 40
0
 40
1
 40
1
 40
1
 40
1
 10
164.717980
 20
26.517885
 30
0.0
 10
164.374020
 20
25.829960
 30
0.0
 10
164.202040
 20
25.049429
 30
0.0
 10
164.202040
 20
24.176293
 30
0.0
  0
LWPOLYLINE
  5
1b1
100
AcDbEntity
  8
0
 62
7
100
AcDbPolyline
 90
2
 70
0
 10
172.774650
 20
14.016165
 30
0.0
 10
172.774650
 20
24.176293
 30
0.0
  0
SPLINE
  5
1b2
100
AcDbEntity
  8
0
 62
7
100
AcDbSpline
 70
8
 71
3
 72
8
 73
4
 74
0
 40
0
 40
0
 40
0
 40
0
 40
1
 40
1
 40
1
 40
1
 10
164.202040
 20
14.016165
 30
0.0
 10
164.202040
 20
13.328240
 30
0.0
 10
163.977140
 20
12.746149
 30
0.0
 10
163.527340
 20
12.269893
 30
0.0
  0
SPLINE
  5
1b3
100
AcDbEntity
  8
0
 62
7
100
AcDbSpline
 70
8
 71
3
 72
8
 73
4
 74
0
 40
0
 40
0
 40
0
 40
0
 40
1
 40
1
 40
1
 40
1
 10
163.527340
 20
12.269893
 30
0.0
 10
163.077547
 20
11.820096
 30
0.0
 10
162.508687
 20
11.595197
 30
0.0
 10
161.820760
 20
11.595197
 30
0.0
  0
SPLINE
  5
1b4
100
AcDbEntity
  8
0
 62
7
100
AcDbSpline
 70
8
 71
3
 72
8
 73
4
 74
0
 40
0
 40
0
 40
0
 40
0
 40
1
 40
1
 40
1
 40
1
 10
161.820760
 20
11.595197
 30
0.0
 10
161.132833
 20
11.595197
 30
0.0
 10
160.563970
 20
11.820096
 30
0.0
 10
160.114170
 20
12.269893
 30
0.0
  0
SPLINE
  5
1b5
100
AcDbEntity
  8
0
 62
7
100
AcDbSpline
 70
8
 71
3
 72
8
 73
4
 74
0
 40
0
 40
0
 40
0
 40
0
 40
1
 40
1
 40
1
 40
1
 10
160.114170
 20
12.269893
 30
0.0
 10
159.664377
 20
12.746149
 30
0.0
 10
159.439480
 20
13.328240
 30
0.0
 10
159.439480
 20
14.016165
 30
0.0
  0
LWPOLYLINE
  5
1b6
100
AcDbEntity
  8
0
 62
7
100
AcDbPolyline
 90
2
 70
0
 10
164.202040
 20
24.176293
 30
0.0
 10
164.202040
 20
14.016165
 30
0.0
  0
SPLINE
  5
1b7
100
AcDbEntity
  8
0
 62
7
100
AcDbSpline
 70
8
 71
3
 72
8
 73
4
 74
0
 40
0
 40
0
 40
0
 40
0
 40
1
 40
1
 40
1
 40
1
 10
159.439480
 20
24.176293
 30
0.0
 10
159.439480
 20
25.049429
 30
0.0
 10
159.333643
 20
25.829960
 30
0.0
 10
159.121970
 20
26.517885
 30
0.0
  0
SPLINE
  5
1b8
100
AcDbEntity
  8
0
 62
7
100
AcDbSpline
 70
8
 71
3
 72
8
 73
4
 74
0
 40
0
 40
0
 40
0
 40
0
 40
1
 40
1
 40
1
 40
1
 10
159.121970
 20
26.517885
 30
0.0
 10
158.910303
 20
27.232269
 30
0.0
 10
158.526653
 20
27.801130
 30
0.0
 10
157.971020
 20
28.224469
 30
0.0
  0
SPLINE
  5
1b9
100
AcDbEntity
  8
0
 62
7
100
AcDbSpline
 70
8
 71
3
 72
8
 73
4
 74
0
 40
0
 40
0
 40
0
 40
0
 40
1
 40
1
 40
1
 40
1
 10
157.971020
 20
28.224469
 30
0.0
 10
157.415387
 20
28.647808
 30
0.0
 10
156.621627
 20
28.859477
 30
0.0
 10
155.589740
 20
28.859477
 30
0.0
  0
SPLINE
  5
1ba
100
AcDbEntity
  8
0
 62
7
100
AcDbSpline
 70
8
 71
3
 72
8
 73
4
 74
0
 40
0
 40
0
 40
0
 40
0
 40
1
 40
1
 40
1
 40
1
 10
155.589740
 20
28.859477
 30
0.0
 10
154.584313
 20
28.859477
 30
0.0
 10
153.724407
 20
28.647808
 30
0.0
 10
153.010020
 20
28.224469
 30
0.0
  0
SPLINE
  5
1bb
100
AcDbEntity
  8
0
 62
7
100
AcDbSpline
 70
8
 71
3
 72
8
 73
4
 74
0
 40
0
 40
0
 40
0
 40
0
 40
1
 40
1
 40
1
 40
1
 10
153.010020
 20
28.224469
 30
0.0
 10
152.295640
 20
27.801130
 30
0.0
 10
151.753237
 20
27.232269
 30
0.0
 10
151.382810
 20
26.517885
 30
0.0
  0
SPLINE
  5
1bc
100
AcDbEntity
  8
0
 62
7
100
AcDbSpline
 70
8
 71
3
 72
8
 73
4
 74
0
 40
0
 40
0
 40
0
 40
0
 40
1
 40
1
 40
1
 40
1
 10
151.382810
 20
26.517885
 30
0.0
 10
151.038850
 20
25.829960
 30
0.0
 10
150.866870
 20
25.049429
 30
0.0
 10
150.866870
 20
24.176293
 30
0.0
  0
LWPOLYLINE
  5
1bd
100
AcDbEntity
  8
0
 62
7
100
AcDbPolyline
 90
2
 70
0
 10
159.439480
 20
14.016165
 30
0.0
 10
159.439480
 20
24.176293
 30
0.0
  0
SPLINE
  5
1be
100
AcDbEntity
  8
0
 62
7
100
AcDbSpline
 70
8
 71
3
 72
8
 73
4
 74
0
 40
0
 40
0
 40
0
 40
0
 40
1
 40
1
 40
1
 40
1
 10
150.866870
 20
14.016165
 30
0.0
 10
150.866870
 20
13.328240
 30
0.0
 10
150.641970
 20
12.746149
 30
0.0
 10
150.192170
 20
12.269893
 30
0.0
  0
SPLINE
  5
1bf
100
AcDbEntity
  8
0
 62
7
100
AcDbSpline
 70
8
 71
3
 72
8
 73
4
 74
0
 40
0
 40
0
 40
0
 40
0
 40
1
 40
1
 40
1
 40
1
 10
150.192170
 20
12.269893
 30
0.0
 10
149.742377
 20
11.820096
 30
0.0
 10
149.173517
 20
11.595197
 30
0.0
 10
148.485590
 20
11.595197
 30
0.0
  0
SPLINE
  5
1c0
100
AcDbEntity
  8
0
 62
7
100
AcDbSpline
 70
8
 71
3
 72
8
 73
4
 74
0
 40
0
 40
0
 40
0
 40
0
 40
1
 40
1
 40
1
 40
1
 10
148.485590
 20
11.595197
 30
0.0
 10
147.797663
 20
11.595197
 30
0.0
 10
147.228803
 20
11.820096
 30
0.0
 10
146.779010
 20
12.269893
 30
0.0
  0
SPLINE
  5
1c1
100
AcDbEntity
  8
0
 62
7
100
AcDbSpline
 70
8
 71
3
 72
8
 73
4
 74
0
 40
0
 40
0
 40
0
 40
0
 40
1
 40
1
 40
1
 40
1
 10
146.779010
 20
12.269893
 30
0.0
 10
146.329210
 20
12.746149
 30
0.0
 10
146.104310
 20
13.328240
 30
0.0
 10
146.104310
 20
14.016165
 30
0.0
  0
LWPOLYLINE
  5
1c2
100
AcDbEntity
  8
0
 62
7
100
AcDbPolyline
 90
2
 70
0
 10
150.866870
 20
24.176293
 30
0.0
 10
150.866870
 20
14.016165
 30
0.0
  0
SPLINE
  5
1c3
100
AcDbEntity
  8
0
 62
7
100
AcDbSpline
 70
8
 71
3
 72
8
 73
4
 74
0
 40
0
 40
0
 40
0
 40
0
 40
1
 40
1
 40
1
 40
1
 10
146.104310
 20
30.407309
 30
0.0
 10
146.104310
 20
31.095234
 30
0.0
 10
146.329210
 20
31.664096
 30
0.0
 10
146.779010
 20
32.113893
 30
0.0
  0
SPLINE
  5
1c4
100
AcDbEntity
  8
0
 62
7
100
AcDbSpline
 70
8
 71
3
 72
8
 73
4
 74
0
 40
0
 40
0
 40
0
 40
0
 40
1
 40
1
 40
1
 40
1
 10
146.779010
 20
32.113893
 30
0.0
 10
147.228803
 20
32.590149
 30
0.0
 10
147.797663
 20
32.828277
 30
0.0
 10
148.485590
 20
32.828277
 30
0.0
  0
SPLINE
  5
1c5
100
AcDbEntity
  8
0
 62
7
100
AcDbSpline
 70
8
 71
3
 72
8
 73
4
 74
0
 40
0
 40
0
 40
0
 40
0
 40
1
 40
1
 40
1
 40
1
 10
148.485590
 20
32.828277
 30
0.0
 10
149.173517
 20
32.828277
 30
0.0
 10
149.742377
 20
32.590149
 30
0.0
 10
150.192170
 20
32.113893
 30
0.0
  0
SPLINE
  5
1c6
100
AcDbEntity
  8
0
 62
7
100
AcDbSpline
 70
8
 71
3
 72
8
 73
4
 74
0
 40
0
 40
0
 40
0
 40
0
 40
1
 40
1
 40
1
 40
1
 10
150.192170
 20
32.113893
 30
0.0
 10
150.641970
 20
31.664096
 30
0.0
 10
150.866870
 20
31.095234
 30
0.0
 10
150.866870
 20
30.407309
 30
0.0
  0
LWPOLYLINE
  5
1c7
100
AcDbEntity
  8
0
 62
7
100
AcDbPolyline
 90
2
 70
0
 10
146.104310
 20
14.016165
 30
0.0
 10
146.104310
 20
30.407309
 30
0.0
  0
SPLINE
  5
1c8
100
AcDbEntity
  8
0
 62
7
100
AcDbSpline
 70
8
 71
3
 72
8
 73
4
 74
0
 40
0
 40
0
 40
0
 40
0
 40
1
 40
1
 40
1
 40
1
 10
150.271550
 20
28.819789
 30
0.0
 10
150.509677
 20
29.269586
 30
0.0
 10
150.840410
 20
29.745842
 30
0.0
 10
151.263750
 20
30.248557
 30
0.0
  0
SPLINE
  5
1c9
100
AcDbEntity
  8
0
 62
7
100
AcDbSpline
 70
8
 71
3
 72
8
 73
4
 74
0
 40
0
 40
0
 40
0
 40
0
 40
1
 40
1
 40
1
 40
1
 10
151.263750
 20
30.248557
 30
0.0
 10
151.687090
 20
30.777730
 30
0.0
 10
152.203033
 20
31.267216
 30
0.0
 10
152.811580
 20
31.717013
 30
0.0
  0
SPLINE
  5
1ca
100
AcDbEntity
  8
0
 62
7
100
AcDbSpline
 70
8
 71
3
 72
8
 73
4
 74
0
 40
0
 40
0
 40
0
 40
0
 40
1
 40
1
 40
1
 40
1
 10
152.811580
 20
31.717013
 30
0.0
 10
153.420133
 20
32.166810
 30
0.0
 10
154.094830
 20
32.524002
 30
0.0
 10
154.835670
 20
32.788589
 30
0.0
  0
SPLINE
  5
1cb
100
AcDbEntity
  8
0
 62
7
100
AcDbSpline
 70
8
 71
3
 72
8
 73
4
 74
0
 40
0
 40
0
 40
0
 40
0
 40
1
 40
1
 40
1
 40
1
 10
154.835670
 20
32.788589
 30
0.0
 10
155.576510
 20
33.079634
 30
0.0
 10
156.383500
 20
33.225157
 30
0.0
 10
157.256640
 20
33.225157
 30
0.0
  0
LWPOLYLINE
  5
1cc
100
AcDbEntity
  8
0
 62
7
100
AcDbPolyline
 90
3
 70
0
 10
150.866870
 20
30.407309
 30
0.0
 10
150.866870
 20
28.700725
 30
0.0
 10
150.271550
 20
28.819789
 30
0.0
  0
SPLINE
  5
1cd
100
AcDbEntity
  8
0
 62
7
100
AcDbSpline
 70
8
 71
3
 72
8
 73
4
 74
0
 40
0
 40
0
 40
0
 40
0
 40
1
 40
1
 40
1
 40
1
 10
203.294740
 20
22.191893
 30
0.0
 10
203.294740
 20
20.022282
 30
0.0
 10
202.805257
 20
18.104029
 30
0.0
 10
201.826290
 20
16.437133
 30
0.0
  0
SPLINE
  5
1ce
100
AcDbEntity
  8
0
 62
7
100
AcDbSpline
 70
8
 71
3
 72
8
 73
4
 74
0
 40
0
 40
0
 40
0
 40
0
 40
1
 40
1
 40
1
 40
1
 10
201.826290
 20
16.437133
 30
0.0
 10
200.873777
 20
14.796696
 30
0.0
 10
199.577300
 20
13.513450
 30
0.0
 10
197.936860
 20
12.587397
 30
0.0
  0
SPLINE
  5
1cf
100
AcDbEntity
  8
0
 62
7
100
AcDbSpline
 70
8
 71
3
 72
8
 73
4
 74
0
 40
0
 40
0
 40
0
 40
0
 40
1
 40
1
 40
1
 40
1
 10
197.936860
 20
12.587397
 30
0.0
 10
196.322880
 20
11.661344
 30
0.0
 10
194.510463
 20
11.198317
 30
0.0
 10
192.499610
 20
11.198317
 30
0.0
  0
SPLINE
  5
1d0
100
AcDbEntity
  8
0
 62
7
100
AcDbSpline
 70
8
 71
3
 72
8
 73
4
 74
0
 40
0
 40
0
 40
0
 40
0
 40
1
 40
1
 40
1
 40
1
 10
192.499610
 20
11.198317
 30
0.0
 10
190.488750
 20
11.198317
 30
0.0
 10
188.663100
 20
11.661344
 30
0.0
 10
187.022660
 20
12.587397
 30
0.0
  0
SPLINE
  5
1d1
100
AcDbEntity
  8
0
 62
7
100
AcDbSpline
 70
8
 71
3
 72
8
 73
4
 74
0
 40
0
 40
0
 40
0
 40
0
 40
1
 40
1
 40
1
 40
1
 10
187.022660
 20
12.587397
 30
0.0
 10
185.408680
 20
13.513450
 30
0.0
 10
184.112207
 20
14.796696
 30
0.0
 10
183.133240
 20
16.437133
 30
0.0
  0
SPLINE
  5
1d2
100
AcDbEntity
  8
0
 62
7
100
AcDbSpline
 70
8
 71
3
 72
8
 73
4
 74
0
 40
0
 40
0
 40
0
 40
0
 40
1
 40
1
 40
1
 40
1
 10
183.133240
 20
16.437133
 30
0.0
 10
182.180727
 20
18.104029
 30
0.0
 10
181.704470
 20
20.022282
 30
0.0
 10
181.704470
 20
22.191893
 30
0.0
  0
SPLINE
  5
1d3
100
AcDbEntity
  8
0
 62
7
100
AcDbSpline
 70
8
 71
3
 72
8
 73
4
 74
0
 40
0
 40
0
 40
0
 40
0
 40
1
 40
1
 40
1
 40
1
 10
181.704470
 20
22.191893
 30
0.0
 10
181.704470
 20
24.361504
 30
0.0
 10
182.180727
 20
26.266528
 30
0.0
 10
183.133240
 20
27.906965
 30
0.0
  0
SPLINE
  5
1d4
100
AcDbEntity
  8
0
 62
7
100
AcDbSpline
 70
8
 71
3
 72
8
 73
4
 74
0
 40
0
 40
0
 40
0
 40
0
 40
1
 40
1
 40
1
 40
1
 10
183.133240
 20
27.906965
 30
0.0
 10
184.112207
 20
29.573861
 30
0.0
 10
185.408680
 20
30.870336
 30
0.0
 10
187.022660
 20
31.796389
 30
0.0
  0
SPLINE
  5
1d5
100
AcDbEntity
  8
0
 62
7
100
AcDbSpline
 70
8
 71
3
 72
8
 73
4
 74
0
 40
0
 40
0
 40
0
 40
0
 40
1
 40
1
 40
1
 40
1
 10
187.022660
 20
31.796389
 30
0.0
 10
188.663100
 20
32.748901
 30
0.0
 10
190.488750
 20
33.225157
 30
0.0
 10
192.499610
 20
33.225157
 30
0.0
  0
SPLINE
  5
1d6
100
AcDbEntity
  8
0
 62
7
100
AcDbSpline
 70
8
 71
3
 72
8
 73
4
 74
0
 40
0
 40
0
 40
0
 40
0
 40
1
 40
1
 40
1
 40
1
 10
192.499610
 20
33.225157
 30
0.0
 10
194.510463
 20
33.225157
 30
0.0
 10
196.322880
 20
32.748901
 30
0.0
 10
197.936860
 20
31.796389
 30
0.0
  0
SPLINE
  5
1d7
100
AcDbEntity
  8
0
 62
7
100
AcDbSpline
 70
8
 71
3
 72
8
 73
4
 74
0
 40
0
 40
0
 40
0
 40
0
 40
1
 40
1
 40
1
 40
1
 10
197.936860
 20
31.796389
 30
0.0
 10
199.577300
 20
30.870336
 30
0.0
 10
200.873777
 20
29.573861
 30
0.0
 10
201.826290
 20
27.906965
 30
0.0
  0
SPLINE
  5
1d8
100
AcDbEntity
  8
0
 62
7
100
AcDbSpline
 70
8
 71
3
 72
8
 73
4
 74
0
 40
0
 40
0
 40
0
 40
0
 40
1
 40
1
 40
1
 40
1
 10
201.826290
 20
27.906965
 30
0.0
 10
202.805257
 20
26.266528
 30
0.0
 10
203.294740
 20
24.361504
 30
0.0
 10
203.294740
 20
22.191893
 30
0.0
  0
LWPOLYLINE
  5
1d9
100
AcDbEntity
  8
0
 62
7
100
AcDbPolyline
 90
1
 70
1
 10
157.256640
 20
33.225157
 30
0.0
  0
SPLINE
  5
1da
100
AcDbEntity
  8
0
 62
7
100
AcDbSpline
 70
8
 71
3
 72
8
 73
4
 74
0
 40
0
 40
0
 40
0
 40
0
 40
1
 40
1
 40
1
 40
1
 10
198.532180
 20
22.191893
 30
0.0
 10
198.532180
 20
23.541285
 30
0.0
 10
198.254363
 20
24.705466
 30
0.0
 10
197.698730
 20
25.684437
 30
0.0
  0
SPLINE
  5
1db
100
AcDbEntity
  8
0
 62
7
100
AcDbSpline
 70
8
 71
3
 72
8
 73
4
 74
0
 40
0
 40
0
 40
0
 40
0
 40
1
 40
1
 40
1
 40
1
 10
197.698730
 20
25.684437
 30
0.0
 10
197.169557
 20
26.689866
 30
0.0
 10
196.441943
 20
27.470397
 30
0.0
 10
195.515890
 20
28.026029
 30
0.0
  0
SPLINE
  5
1dc
100
AcDbEntity
  8
0
 62
7
100
AcDbSpline
 70
8
 71
3
 72
8
 73
4
 74
0
 40
0
 40
0
 40
0
 40
0
 40
1
 40
1
 40
1
 40
1
 10
195.515890
 20
28.026029
 30
0.0
 10
194.616297
 20
28.581661
 30
0.0
 10
193.610870
 20
28.859477
 30
0.0
 10
192.499610
 20
28.859477
 30
0.0
  0
SPLINE
  5
1dd
100
AcDbEntity
  8
0
 62
7
100
AcDbSpline
 70
8
 71
3
 72
8
 73
4
 74
0
 40
0
 40
0
 40
0
 40
0
 40
1
 40
1
 40
1
 40
1
 10
192.499610
 20
28.859477
 30
0.0
 10
191.388343
 20
28.859477
 30
0.0
 10
190.369683
 20
28.581661
 30
0.0
 10
189.443630
 20
28.026029
 30
0.0
  0
SPLINE
  5
1de
100
AcDbEntity
  8
0
 62
7
100
AcDbSpline
 70
8
 71
3
 72
8
 73
4
 74
0
 40
0
 40
0
 40
0
 40
0
 40
1
 40
1
 40
1
 40
1
 10
189.443630
 20
28.026029
 30
0.0
 10
188.544037
 20
27.470397
 30
0.0
 10
187.816423
 20
26.689866
 30
0.0
 10
187.260790
 20
25.684437
 30
0.0
  0
SPLINE
  5
1df
100
AcDbEntity
  8
0
 62
7
100
AcDbSpline
 70
8
 71
3
 72
8
 73
4
 74
0
 40
0
 40
0
 40
0
 40
0
 40
1
 40
1
 40
1
 40
1
 10
187.260790
 20
25.684437
 30
0.0
 10
186.731617
 20
24.705466
 30
0.0
 10
186.467030
 20
23.541285
 30
0.0
 10
186.467030
 20
22.191893
 30
0.0
  0
SPLINE
  5
1e0
100
AcDbEntity
  8
0
 62
7
100
AcDbSpline
 70
8
 71
3
 72
8
 73
4
 74
0
 40
0
 40
0
 40
0
 40
0
 40
1
 40
1
 40
1
 40
1
 10
186.467030
 20
22.191893
 30
0.0
 10
186.467030
 20
20.868960
 30
0.0
 10
186.731617
 20
19.704778
 30
0.0
 10
187.260790
 20
18.699349
 30
0.0
  0
SPLINE
  5
1e1
100
AcDbEntity
  8
0
 62
7
100
AcDbSpline
 70
8
 71
3
 72
8
 73
4
 74
0
 40
0
 40
0
 40
0
 40
0
 40
1
 40
1
 40
1
 40
1
 10
187.260790
 20
18.699349
 30
0.0
 10
187.816423
 20
17.720378
 30
0.0
 10
188.544037
 20
16.953077
 30
0.0
 10
189.443630
 20
16.397445
 30
0.0
  0
SPLINE
  5
1e2
100
AcDbEntity
  8
0
 62
7
100
AcDbSpline
 70
8
 71
3
 72
8
 73
4
 74
0
 40
0
 40
0
 40
0
 40
0
 40
1
 40
1
 40
1
 40
1
 10
189.443630
 20
16.397445
 30
0.0
 10
190.369683
 20
15.841813
 30
0.0
 10
191.388343
 20
15.563997
 30
0.0
 10
192.499610
 20
15.563997
 30
0.0
  0
SPLINE
  5
1e3
100
AcDbEntity
  8
0
 62
7
100
AcDbSpline
 70
8
 71
3
 72
8
 73
4
 74
0
 40
0
 40
0
 40
0
 40
0
 40
1
 40
1
 40
1
 40
1
 10
192.499610
 20
15.563997
 30
0.0
 10
193.610870
 20
15.563997
 30
0.0
 10
194.616297
 20
15.841813
 30
0.0
 10
195.515890
 20
16.397445
 30
0.0
  0
SPLINE
  5
1e4
100
AcDbEntity
  8
0
 62
7
100
AcDbSpline
 70
8
 71
3
 72
8
 73
4
 74
0
 40
0
 40
0
 40
0
 40
0
 40
1
 40
1
 40
1
 40
1
 10
195.515890
 20
16.397445
 30
0.0
 10
196.441943
 20
16.953077
 30
0.0
 10
197.169557
 20
17.720378
 30
0.0
 10
197.698730
 20
18.699349
 30
0.0
  0
SPLINE
  5
1e5
100
AcDbEntity
  8
0
 62
7
100
AcDbSpline
 70
8
 71
3
 72
8
 73
4
 74
0
 40
0
 40
0
 40
0
 40
0
 40
1
 40
1
 40
1
 40
1
 10
197.698730
 20
18.699349
 30
0.0
 10
198.254363
 20
19.704778
 30
0.0
 10
198.532180
 20
20.868960
 30
0.0
 10
198.532180
 20
22.191893
 30
0.0
  0
LWPOLYLINE
  5
1e6
100
AcDbEntity
  8
0
 62
7
100
AcDbPolyline
 90
1
 70
1
 10
203.294740
 20
22.191893
 30
0.0
  0
SPLINE
  5
1e7
100
AcDbEntity
  8
0
 62
7
100
AcDbSpline
 70
8
 71
3
 72
8
 73
4
 74
0
 40
0
 40
0
 40
0
 40
0
 40
1
 40
1
 40
1
 40
1
 10
218.812770
 20
33.225157
 30
0.0
 10
220.770717
 20
33.225157
 30
0.0
 10
222.252403
 20
32.815048
 30
0.0
 10
223.257830
 20
31.994829
 30
0.0
  0
SPLINE
  5
1e8
100
AcDbEntity
  8
0
 62
7
100
AcDbSpline
 70
8
 71
3
 72
8
 73
4
 74
0
 40
0
 40
0
 40
0
 40
0
 40
1
 40
1
 40
1
 40
1
 10
223.257830
 20
31.994829
 30
0.0
 10
224.289717
 20
31.174610
 30
0.0
 10
224.990870
 20
30.076576
 30
0.0
 10
225.361290
 20
28.700725
 30
0.0
  0
SPLINE
  5
1e9
100
AcDbEntity
  8
0
 62
7
100
AcDbSpline
 70
8
 71
3
 72
8
 73
4
 74
0
 40
0
 40
0
 40
0
 40
0
 40
1
 40
1
 40
1
 40
1
 10
225.361290
 20
28.700725
 30
0.0
 10
225.758170
 20
27.351333
 30
0.0
 10
225.956610
 20
25.843189
 30
0.0
 10
225.956610
 20
24.176293
 30
0.0
  0
LWPOLYLINE
  5
1ea
100
AcDbEntity
  8
0
 62
7
100
AcDbPolyline
 90
1
 70
1
 10
198.532180
 20
22.191893
 30
0.0
  0
SPLINE
  5
1eb
100
AcDbEntity
  8
0
 62
7
100
AcDbSpline
 70
8
 71
3
 72
8
 73
4
 74
0
 40
0
 40
0
 40
0
 40
0
 40
1
 40
1
 40
1
 40
1
 10
225.956610
 20
14.016165
 30
0.0
 10
225.956610
 20
13.328240
 30
0.0
 10
225.731713
 20
12.746149
 30
0.0
 10
225.281920
 20
12.269893
 30
0.0
  0
SPLINE
  5
1ec
100
AcDbEntity
  8
0
 62
7
100
AcDbSpline
 70
8
 71
3
 72
8
 73
4
 74
0
 40
0
 40
0
 40
0
 40
0
 40
1
 40
1
 40
1
 40
1
 10
225.281920
 20
12.269893
 30
0.0
 10
224.832120
 20
11.820096
 30
0.0
 10
224.263257
 20
11.595197
 30
0.0
 10
223.575330
 20
11.595197
 30
0.0
  0
SPLINE
  5
1ed
100
AcDbEntity
  8
0
 62
7
100
AcDbSpline
 70
8
 71
3
 72
8
 73
4
 74
0
 40
0
 40
0
 40
0
 40
0
 40
1
 40
1
 40
1
 40
1
 10
223.575330
 20
11.595197
 30
0.0
 10
222.887410
 20
11.595197
 30
0.0
 10
222.318550
 20
11.820096
 30
0.0
 10
221.868750
 20
12.269893
 30
0.0
  0
SPLINE
  5
1ee
100
AcDbEntity
  8
0
 62
7
100
AcDbSpline
 70
8
 71
3
 72
8
 73
4
 74
0
 40
0
 40
0
 40
0
 40
0
 40
1
 40
1
 40
1
 40
1
 10
221.868750
 20
12.269893
 30
0.0
 10
221.418950
 20
12.746149
 30
0.0
 10
221.194050
 20
13.328240
 30
0.0
 10
221.194050
 20
14.016165
 30
0.0
  0
LWPOLYLINE
  5
1ef
100
AcDbEntity
  8
0
 62
7
100
AcDbPolyline
 90
2
 70
0
 10
225.956610
 20
24.176293
 30
0.0
 10
225.956610
 20
14.016165
 30
0.0
  0
SPLINE
  5
1f0
100
AcDbEntity
  8
0
 62
7
100
AcDbSpline
 70
8
 71
3
 72
8
 73
4
 74
0
 40
0
 40
0
 40
0
 40
0
 40
1
 40
1
 40
1
 40
1
 10
221.194050
 20
24.176293
 30
0.0
 10
221.194050
 20
25.049429
 30
0.0
 10
221.074987
 20
25.829960
 30
0.0
 10
220.836860
 20
26.517885
 30
0.0
  0
SPLINE
  5
1f1
100
AcDbEntity
  8
0
 62
7
100
AcDbSpline
 70
8
 71
3
 72
8
 73
4
 74
0
 40
0
 40
0
 40
0
 40
0
 40
1
 40
1
 40
1
 40
1
 10
220.836860
 20
26.517885
 30
0.0
 10
220.625193
 20
27.232269
 30
0.0
 10
220.228313
 20
27.801130
 30
0.0
 10
219.646220
 20
28.224469
 30
0.0
  0
SPLINE
  5
1f2
100
AcDbEntity
  8
0
 62
7
100
AcDbSpline
 70
8
 71
3
 72
8
 73
4
 74
0
 40
0
 40
0
 40
0
 40
0
 40
1
 40
1
 40
1
 40
1
 10
219.646220
 20
28.224469
 30
0.0
 10
219.064133
 20
28.647808
 30
0.0
 10
218.230687
 20
28.859477
 30
0.0
 10
217.145880
 20
28.859477
 30
0.0
  0
SPLINE
  5
1f3
100
AcDbEntity
  8
0
 62
7
100
AcDbSpline
 70
8
 71
3
 72
8
 73
4
 74
0
 40
0
 40
0
 40
0
 40
0
 40
1
 40
1
 40
1
 40
1
 10
217.145880
 20
28.859477
 30
0.0
 10
216.087533
 20
28.859477
 30
0.0
 10
215.187937
 20
28.647808
 30
0.0
 10
214.447090
 20
28.224469
 30
0.0
  0
SPLINE
  5
1f4
100
AcDbEntity
  8
0
 62
7
100
AcDbSpline
 70
8
 71
3
 72
8
 73
4
 74
0
 40
0
 40
0
 40
0
 40
0
 40
1
 40
1
 40
1
 40
1
 10
214.447090
 20
28.224469
 30
0.0
 10
213.732710
 20
27.801130
 30
0.0
 10
213.177080
 20
27.232269
 30
0.0
 10
212.780200
 20
26.517885
 30
0.0
  0
SPLINE
  5
1f5
100
AcDbEntity
  8
0
 62
7
100
AcDbSpline
 70
8
 71
3
 72
8
 73
4
 74
0
 40
0
 40
0
 40
0
 40
0
 40
1
 40
1
 40
1
 40
1
 10
212.780200
 20
26.517885
 30
0.0
 10
212.409780
 20
25.829960
 30
0.0
 10
212.224570
 20
25.049429
 30
0.0
 10
212.224570
 20
24.176293
 30
0.0
  0
LWPOLYLINE
  5
1f6
100
AcDbEntity
  8
0
 62
7
100
AcDbPolyline
 90
2
 70
0
 10
221.194050
 20
14.016165
 30
0.0
 10
221.194050
 20
24.176293
 30
0.0
  0
SPLINE
  5
1f7
100
AcDbEntity
  8
0
 62
7
100
AcDbSpline
 70
8
 71
3
 72
8
 73
4
 74
0
 40
0
 40
0
 40
0
 40
0
 40
1
 40
1
 40
1
 40
1
 10
212.224570
 20
14.016165
 30
0.0
 10
212.224570
 20
13.328240
 30
0.0
 10
211.999670
 20
12.746149
 30
0.0
 10
211.549870
 20
12.269893
 30
0.0
  0
SPLINE
  5
1f8
100
AcDbEntity
  8
0
 62
7
100
AcDbSpline
 70
8
 71
3
 72
8
 73
4
 74
0
 40
0
 40
0
 40
0
 40
0
 40
1
 40
1
 40
1
 40
1
 10
211.549870
 20
12.269893
 30
0.0
 10
211.100070
 20
11.820096
 30
0.0
 10
210.531210
 20
11.595197
 30
0.0
 10
209.843290
 20
11.595197
 30
0.0
  0
SPLINE
  5
1f9
100
AcDbEntity
  8
0
 62
7
100
AcDbSpline
 70
8
 71
3
 72
8
 73
4
 74
0
 40
0
 40
0
 40
0
 40
0
 40
1
 40
1
 40
1
 40
1
 10
209.843290
 20
11.595197
 30
0.0
 10
209.155363
 20
11.595197
 30
0.0
 10
208.586500
 20
11.820096
 30
0.0
 10
208.136700
 20
12.269893
 30
0.0
  0
SPLINE
  5
1fa
100
AcDbEntity
  8
0
 62
7
100
AcDbSpline
 70
8
 71
3
 72
8
 73
4
 74
0
 40
0
 40
0
 40
0
 40
0
 40
1
 40
1
 40
1
 40
1
 10
208.136700
 20
12.269893
 30
0.0
 10
207.686907
 20
12.746149
 30
0.0
 10
207.462010
 20
13.328240
 30
0.0
 10
207.462010
 20
14.016165
 30
0.0
  0
LWPOLYLINE
  5
1fb
100
AcDbEntity
  8
0
 62
7
100
AcDbPolyline
 90
2
 70
0
 10
212.224570
 20
24.176293
 30
0.0
 10
212.224570
 20
14.016165
 30
0.0
  0
SPLINE
  5
1fc
100
AcDbEntity
  8
0
 62
7
100
AcDbSpline
 70
8
 71
3
 72
8
 73
4
 74
0
 40
0
 40
0
 40
0
 40
0
 40
1
 40
1
 40
1
 40
1
 10
207.462010
 20
30.407309
 30
0.0
 10
207.462010
 20
31.095234
 30
0.0
 10
207.686907
 20
31.664096
 30
0.0
 10
208.136700
 20
32.113893
 30
0.0
  0
SPLINE
  5
1fd
100
AcDbEntity
  8
0
 62
7
100
AcDbSpline
 70
8
 71
3
 72
8
 73
4
 74
0
 40
0
 40
0
 40
0
 40
0
 40
1
 40
1
 40
1
 40
1
 10
208.136700
 20
32.113893
 30
0.0
 10
208.586500
 20
32.590149
 30
0.0
 10
209.155363
 20
32.828277
 30
0.0
 10
209.843290
 20
32.828277
 30
0.0
  0
SPLINE
  5
1fe
100
AcDbEntity
  8
0
 62
7
100
AcDbSpline
 70
8
 71
3
 72
8
 73
4
 74
0
 40
0
 40
0
 40
0
 40
0
 40
1
 40
1
 40
1
 40
1
 10
209.843290
 20
32.828277
 30
0.0
 10
210.531210
 20
32.828277
 30
0.0
 10
211.100070
 20
32.590149
 30
0.0
 10
211.549870
 20
32.113893
 30
0.0
  0
SPLINE
  5
1ff
100
AcDbEntity
  8
0
 62
7
100
AcDbSpline
 70
8
 71
3
 72
8
 73
4
 74
0
 40
0
 40
0
 40
0
 40
0
 40
1
 40
1
 40
1
 40
1
 10
211.549870
 20
32.113893
 30
0.0
 10
211.999670
 20
31.664096
 30
0.0
 10
212.224570
 20
31.095234
 30
0.0
 10
212.224570
 20
30.407309
 30
0.0
  0
LWPOLYLINE
  5
200
100
AcDbEntity
  8
0
 62
7
100
AcDbPolyline
 90
2
 70
0
 10
207.462010
 20
14.016165
 30
0.0
 10
207.462010
 20
30.407309
 30
0.0
  0
SPLINE
  5
201
100
AcDbEntity
  8
0
 62
7
100
AcDbSpline
 70
8
 71
3
 72
8
 73
4
 74
0
 40
0
 40
0
 40
0
 40
0
 40
1
 40
1
 40
1
 40
1
 10
211.629250
 20
28.819789
 30
0.0
 10
211.867377
 20
29.269586
 30
0.0
 10
212.211337
 20
29.745842
 30
0.0
 10
212.661130
 20
30.248557
 30
0.0
  0
SPLINE
  5
202
100
AcDbEntity
  8
0
 62
7
100
AcDbSpline
 70
8
 71
3
 72
8
 73
4
 74
0
 40
0
 40
0
 40
0
 40
0
 40
1
 40
1
 40
1
 40
1
 10
212.661130
 20
30.248557
 30
0.0
 10
213.110930
 20
30.777730
 30
0.0
 10
213.640103
 20
31.267216
 30
0.0
 10
214.248650
 20
31.717013
 30
0.0
  0
SPLINE
  5
203
100
AcDbEntity
  8
0
 62
7
100
AcDbSpline
 70
8
 71
3
 72
8
 73
4
 74
0
 40
0
 40
0
 40
0
 40
0
 40
1
 40
1
 40
1
 40
1
 10
214.248650
 20
31.717013
 30
0.0
 10
214.857203
 20
32.166810
 30
0.0
 10
215.545130
 20
32.524002
 30
0.0
 10
216.312430
 20
32.788589
 30
0.0
  0
SPLINE
  5
204
100
AcDbEntity
  8
0
 62
7
100
AcDbSpline
 70
8
 71
3
 72
8
 73
4
 74
0
 40
0
 40
0
 40
0
 40
0
 40
1
 40
1
 40
1
 40
1
 10
216.312430
 20
32.788589
 30
0.0
 10
217.079730
 20
33.079634
 30
0.0
 10
217.913177
 20
33.225157
 30
0.0
 10
218.812770
 20
33.225157
 30
0.0
  0
LWPOLYLINE
  5
205
100
AcDbEntity
  8
0
 62
7
100
AcDbPolyline
 90
3
 70
0
 10
212.224570
 20
30.407309
 30
0.0
 10
212.224570
 20
28.700725
 30
0.0
 10
211.629250
 20
28.819789
 30
0.0
  0
LWPOLYLINE
  5
206
100
AcDbEntity
  8
0
 62
7
100
AcDbPolyline
 90
1
 70
1
 10
218.812770
 20
33.225157
 30
0.0
  0
ENDSEC
  0
SECTION
  2
OBJECTS
  0
DICTIONARY
  5
C
330
0
100
AcDbDictionary
  3
ACAD_GROUP
350
D
  3
ACAD_MLINESTYLE
350
17
  0
DICTIONARY
  5
D
330
C
100
AcDbDictionary
  0
DICTIONARY
  5
1A
330
C
100
AcDbDictionary
  0
DICTIONARY
  5
17
330
C
100
AcDbDictionary
  3
STANDARD
350
18
  0
DICTIONARY
  5
19
330
C
100
AcDbDictionary
  0
ENDSEC
  0
EOF
