<?xml version="1.0" encoding="UTF-8" standalone="no"?>
<!-- Created with Inkscape (http://www.inkscape.org/) -->

<svg
   width="1e3"
   height="194"
   version="1.1"
   viewBox="0 0 264.58 51.329"
   id="svg154"
   sodipodi:docname="itscinnamon.svg"
   inkscape:export-filename="itscinnamon.png"
   inkscape:export-xdpi="96"
   inkscape:export-ydpi="96"
   inkscape:version="1.2.1 (9c6d41e410, 2022-07-14)"
   xmlns:inkscape="http://www.inkscape.org/namespaces/inkscape"
   xmlns:sodipodi="http://sodipodi.sourceforge.net/DTD/sodipodi-0.dtd"
   xmlns="http://www.w3.org/2000/svg"
   xmlns:svg="http://www.w3.org/2000/svg">
  <defs
     id="defs158" />
  <sodipodi:namedview
     id="namedview156"
     pagecolor="#ffffff"
     bordercolor="#000000"
     borderopacity="0.25"
     inkscape:showpageshadow="2"
     inkscape:pageopacity="0.0"
     inkscape:pagecheckerboard="0"
     inkscape:deskcolor="#d1d1d1"
     showgrid="false"
     inkscape:zoom="1.631"
     inkscape:cx="492.02943"
     inkscape:cy="256.28449"
     inkscape:window-width="2256"
     inkscape:window-height="1410"
     inkscape:window-x="-11"
     inkscape:window-y="-11"
     inkscape:window-maximized="1"
     inkscape:current-layer="svg154" />
  <g
     stroke-width=".26458"
     id="g152">
    <path
       id="rect146"
       style="display:none;fill:#49454f"
       d="M -5.0863e-6,-0.79374999 H 264.57998 V 52.12325 H -5.0863e-6 Z" />
    <g
       aria-label="Cinnamon"
       id="text150"
       style="font-size:39.688px;font-family:Quicksand">
      <path
         d="m 59.465308,13.301595 q 1.031888,0.515944 1.19064,1.627208 0.19844,1.111264 -0.555632,2.024088 -0.515944,0.714384 -1.349392,0.79376 -0.79376,0.07938 -1.627208,-0.317504 -0.952512,-0.436568 -2.024088,-0.674696 -1.031888,-0.238128 -2.18284,-0.238128 -2.143152,0 -3.849736,0.674696 -1.666896,0.674696 -2.857536,1.944712 -1.19064,1.230328 -1.825648,2.936912 -0.59532,1.706584 -0.59532,3.77036 0,2.420968 0.674696,4.206928 0.714384,1.78596 1.944712,2.9766 1.230328,1.19064 2.897224,1.78596 1.666896,0.555632 3.611608,0.555632 1.071576,0 2.143152,-0.19844 1.071576,-0.19844 2.063776,-0.714384 0.833448,-0.39688 1.627208,-0.277816 0.833448,0.119064 1.38908,0.833448 0.79376,0.9922 0.555632,2.063776 -0.19844,1.031888 -1.19064,1.508144 -1.031888,0.515944 -2.143152,0.873136 -1.071576,0.317504 -2.18284,0.476256 -1.111264,0.19844 -2.262216,0.19844 -2.857536,0 -5.437256,-0.912824 -2.540032,-0.912824 -4.56412,-2.698784 -1.9844,-1.78596 -3.135352,-4.445056 -1.150952,-2.698784 -1.150952,-6.231016 0,-3.055976 1.031888,-5.635696 1.071576,-2.57972 2.9766,-4.445056 1.944712,-1.905024 4.56412,-2.936912 2.619408,-1.071576 5.715072,-1.071576 1.746272,0 3.413168,0.39688 1.666896,0.39688 3.135352,1.150952 z"
         style="font-weight:bold;fill:#cac4d0"
         id="path873" />
      <path
         d="m 68.990459,37.312835 q 0,1.031888 -0.674696,1.746272 -0.674696,0.674696 -1.706584,0.674696 -1.031888,0 -1.706584,-0.674696 -0.674696,-0.714384 -0.674696,-1.746272 V 20.921691 q 0,-1.031888 0.674696,-1.706584 0.674696,-0.714384 1.706584,-0.714384 1.031888,0 1.706584,0.714384 0.674696,0.674696 0.674696,1.706584 z M 66.569491,15.921003 q -1.349392,0 -1.905024,-0.436568 -0.555632,-0.436568 -0.555632,-1.547832 v -0.754072 q 0,-1.150952 0.59532,-1.547832 0.635008,-0.436568 1.905024,-0.436568 1.38908,0 1.944712,0.436568 0.555632,0.436568 0.555632,1.547832 v 0.754072 q 0,1.150952 -0.59532,1.58752 -0.59532,0.39688 -1.944712,0.39688 z"
         style="font-weight:bold;fill:#cac4d0"
         id="path875" />
      <path
         d="m 85.222854,18.103843 q 2.936912,0 4.445056,1.230328 1.547832,1.230328 2.103464,3.294104 0.59532,2.024088 0.59532,4.524432 v 10.160128 q 0,1.031888 -0.674696,1.746272 -0.674696,0.674696 -1.706584,0.674696 -1.031888,0 -1.706584,-0.674696 -0.674696,-0.714384 -0.674696,-1.746272 V 27.152707 q 0,-1.309704 -0.357192,-2.341592 -0.317504,-1.071576 -1.19064,-1.706584 -0.873136,-0.635008 -2.500344,-0.635008 -1.58752,0 -2.698784,0.635008 -1.071576,0.635008 -1.666896,1.706584 -0.555632,1.031888 -0.555632,2.341592 v 10.160128 q 0,1.031888 -0.674696,1.746272 -0.674696,0.674696 -1.706584,0.674696 -1.031888,0 -1.706584,-0.674696 -0.674696,-0.714384 -0.674696,-1.746272 V 20.921691 q 0,-1.031888 0.674696,-1.706584 0.674696,-0.714384 1.706584,-0.714384 1.031888,0 1.706584,0.714384 0.674696,0.674696 0.674696,1.706584 v 1.706584 l -0.59532,-0.119064 q 0.357192,-0.674696 1.031888,-1.428768 0.674696,-0.79376 1.58752,-1.468456 0.912824,-0.674696 2.063776,-1.071576 1.150952,-0.436568 2.500344,-0.436568 z"
         style="font-weight:bold;fill:#cac4d0"
         id="path877" />
      <path
         d="m 108.87693,18.103843 q 2.93691,0 4.44505,1.230328 1.54783,1.230328 2.10347,3.294104 0.59532,2.024088 0.59532,4.524432 v 10.160128 q 0,1.031888 -0.6747,1.746272 -0.6747,0.674696 -1.70658,0.674696 -1.03189,0 -1.70659,-0.674696 -0.67469,-0.714384 -0.67469,-1.746272 V 27.152707 q 0,-1.309704 -0.3572,-2.341592 -0.3175,-1.071576 -1.19064,-1.706584 -0.87313,-0.635008 -2.50034,-0.635008 -1.58752,0 -2.69878,0.635008 -1.07158,0.635008 -1.6669,1.706584 -0.55563,1.031888 -0.55563,2.341592 v 10.160128 q 0,1.031888 -0.6747,1.746272 -0.67469,0.674696 -1.706582,0.674696 -1.031888,0 -1.706584,-0.674696 -0.674696,-0.714384 -0.674696,-1.746272 V 20.921691 q 0,-1.031888 0.674696,-1.706584 0.674696,-0.714384 1.706584,-0.714384 1.031892,0 1.706582,0.714384 0.6747,0.674696 0.6747,1.706584 v 1.706584 l -0.59532,-0.119064 q 0.35719,-0.674696 1.03189,-1.428768 0.67469,-0.79376 1.58752,-1.468456 0.91282,-0.674696 2.06377,-1.071576 1.15095,-0.436568 2.50035,-0.436568 z"
         style="font-weight:bold;fill:#cac4d0"
         id="path879" />
      <path
         d="m 138.56357,18.103843 q 1.03189,0 1.70659,0.674696 0.67469,0.674696 0.67469,1.746272 v 16.788024 q 0,1.031888 -0.67469,1.746272 -0.6747,0.674696 -1.70659,0.674696 -1.03188,0 -1.70658,-0.674696 -0.6747,-0.714384 -0.6747,-1.746272 v -1.944712 l 0.87314,0.357192 q 0,0.515944 -0.55563,1.270016 -0.55563,0.714384 -1.50815,1.428768 -0.95251,0.714384 -2.26221,1.230328 -1.27002,0.476256 -2.77816,0.476256 -2.73847,0 -4.961,-1.38908 -2.22253,-1.428768 -3.53223,-3.889424 -1.27002,-2.500344 -1.27002,-5.715072 0,-3.254416 1.27002,-5.715072 1.3097,-2.500344 3.49254,-3.889424 2.18284,-1.428768 4.84194,-1.428768 1.70658,0 3.13535,0.515944 1.42877,0.515944 2.46065,1.309704 1.07158,0.79376 1.62721,1.627208 0.59532,0.79376 0.59532,1.349392 l -1.42877,0.515944 v -2.897224 q 0,-1.031888 0.6747,-1.706584 0.6747,-0.714384 1.70658,-0.714384 z m -8.01697,17.66116 q 1.74627,0 3.05597,-0.873136 1.30971,-0.873136 2.02409,-2.38128 0.75407,-1.508144 0.75407,-3.37348 0,-1.905024 -0.75407,-3.413168 -0.71438,-1.508144 -2.02409,-2.38128 -1.3097,-0.873136 -3.05597,-0.873136 -1.70659,0 -3.01629,0.873136 -1.3097,0.873136 -2.06378,2.38128 -0.71438,1.508144 -0.71438,3.413168 0,1.865336 0.71438,3.37348 0.75408,1.508144 2.06378,2.38128 1.3097,0.873136 3.01629,0.873136 z"
         style="font-weight:bold;fill:#cac4d0"
         id="path881" />
      <path
         d="m 157.25664,18.103843 q 3.17504,0 4.68318,1.547832 1.50815,1.508144 1.9844,3.929112 l -0.67469,-0.357192 0.3175,-0.635008 q 0.47626,-0.912824 1.46846,-1.944712 0.9922,-1.071576 2.38128,-1.78596 1.42876,-0.754072 3.17504,-0.754072 2.85753,0 4.32599,1.230328 1.50814,1.230328 2.06377,3.294104 0.55564,2.024088 0.55564,4.524432 v 10.160128 q 0,1.031888 -0.6747,1.746272 -0.6747,0.674696 -1.70658,0.674696 -1.03189,0 -1.70659,-0.674696 -0.67469,-0.714384 -0.67469,-1.746272 V 27.152707 q 0,-1.309704 -0.31751,-2.341592 -0.3175,-1.071576 -1.15095,-1.706584 -0.83345,-0.635008 -2.38128,-0.635008 -1.50814,0 -2.57972,0.635008 -1.07158,0.635008 -1.62721,1.706584 -0.51594,1.031888 -0.51594,2.341592 v 10.160128 q 0,1.031888 -0.6747,1.746272 -0.67469,0.674696 -1.70658,0.674696 -1.03189,0 -1.70659,-0.674696 -0.67469,-0.714384 -0.67469,-1.746272 V 27.152707 q 0,-1.309704 -0.31751,-2.341592 -0.3175,-1.071576 -1.15095,-1.706584 -0.83345,-0.635008 -2.38128,-0.635008 -1.50814,0 -2.57972,0.635008 -1.07157,0.635008 -1.62721,1.706584 -0.51594,1.031888 -0.51594,2.341592 v 10.160128 q 0,1.031888 -0.6747,1.746272 -0.67469,0.674696 -1.70658,0.674696 -1.03189,0 -1.70658,-0.674696 -0.6747,-0.714384 -0.6747,-1.746272 V 20.921691 q 0,-1.031888 0.6747,-1.706584 0.67469,-0.714384 1.70658,-0.714384 1.03189,0 1.70658,0.714384 0.6747,0.674696 0.6747,1.706584 v 1.706584 l -0.59532,-0.119064 q 0.35719,-0.674696 0.9922,-1.428768 0.63501,-0.79376 1.54783,-1.468456 0.91283,-0.674696 2.02409,-1.071576 1.11126,-0.436568 2.42097,-0.436568 z"
         style="font-weight:bold;fill:#cac4d0"
         id="path883" />
      <path
         d="m 203.29474,29.137107 q 0,3.254416 -1.46845,5.75476 -1.42877,2.460656 -3.88943,3.849736 -2.42097,1.38908 -5.43725,1.38908 -3.01629,0 -5.47695,-1.38908 -2.42097,-1.38908 -3.88942,-3.849736 -1.42877,-2.500344 -1.42877,-5.75476 0,-3.254416 1.42877,-5.715072 1.46845,-2.500344 3.88942,-3.889424 2.46066,-1.428768 5.47695,-1.428768 3.01628,0 5.43725,1.428768 2.46066,1.38908 3.88943,3.889424 1.46845,2.460656 1.46845,5.715072 z m -4.76256,0 q 0,-2.024088 -0.83345,-3.492544 -0.79376,-1.508144 -2.18284,-2.341592 -1.34939,-0.833448 -3.01628,-0.833448 -1.6669,0 -3.05598,0.833448 -1.34939,0.833448 -2.18284,2.341592 -0.79376,1.468456 -0.79376,3.492544 0,1.9844 0.79376,3.492544 0.83345,1.468456 2.18284,2.301904 1.38908,0.833448 3.05598,0.833448 1.66689,0 3.01628,-0.833448 1.38908,-0.833448 2.18284,-2.301904 0.83345,-1.508144 0.83345,-3.492544 z"
         style="font-weight:bold;fill:#cac4d0"
         id="path885" />
      <path
         d="m 218.81277,18.103843 q 2.93692,0 4.44506,1.230328 1.54783,1.230328 2.10346,3.294104 0.59532,2.024088 0.59532,4.524432 v 10.160128 q 0,1.031888 -0.67469,1.746272 -0.6747,0.674696 -1.70659,0.674696 -1.03188,0 -1.70658,-0.674696 -0.6747,-0.714384 -0.6747,-1.746272 V 27.152707 q 0,-1.309704 -0.35719,-2.341592 -0.3175,-1.071576 -1.19064,-1.706584 -0.87313,-0.635008 -2.50034,-0.635008 -1.58752,0 -2.69879,0.635008 -1.07157,0.635008 -1.66689,1.706584 -0.55563,1.031888 -0.55563,2.341592 v 10.160128 q 0,1.031888 -0.6747,1.746272 -0.6747,0.674696 -1.70658,0.674696 -1.03189,0 -1.70659,-0.674696 -0.67469,-0.714384 -0.67469,-1.746272 V 20.921691 q 0,-1.031888 0.67469,-1.706584 0.6747,-0.714384 1.70659,-0.714384 1.03188,0 1.70658,0.714384 0.6747,0.674696 0.6747,1.706584 v 1.706584 l -0.59532,-0.119064 q 0.35719,-0.674696 1.03188,-1.428768 0.6747,-0.79376 1.58752,-1.468456 0.91283,-0.674696 2.06378,-1.071576 1.15095,-0.436568 2.50034,-0.436568 z"
         style="font-weight:bold;fill:#cac4d0"
         id="path887" />
    </g>
  </g>
</svg>
