0
SECTION
2
HEADER
9
$INSUNITS
70
4
9
$ACADVER
1
AC1014
9
$HANDSEED
5
FFFF
0
ENDSEC
0
SECTION
2
TABLES
0
TABLE
2
VPORT
5
8
100
AcDbSymbolTable
0
ENDTAB
0
TABLE
2
LTYPE
5
5
100
AcDbSymbolTable
0
LTYPE
5
14
100
AcDbSymbolTableRecord
100
AcDbLinetypeTableRecord
2
BYBLOCK
70
0
0
LTYPE
5
15
100
AcDbSymbolTableRecord
100
AcDbLinetypeTableRecord
2
BYLAYER
70
0
0
ENDTAB
0
TABLE
2
LAYER
5
2
100
AcDbSymbolTable
70
2
0
LAYER
5
50
100
AcDbSymbolTableRecord
100
AcDbLayerTableRecord
2
0
70
0
6
CONTINUOUS
0
ENDTAB
0
TABLE
2
STYLE
5
3
100
AcDbSymbolTable
70
1
0
STYLE
5
11
100
AcDbSymbolTableRecord
100
AcDbTextStyleTableRecord
2
STANDARD
70
0
0
ENDTAB
0
TABLE
2
VIEW
5
6
100
AcDbSymbolTable
70
0
0
ENDTAB
0
TABLE
2
UCS
5
7
100
AcDbSymbolTable
70
0
0
ENDTAB
0
TABLE
2
APPID
5
9
100
AcDbSymbolTable
70
2
0
APPID
5
12
100
AcDbSymbolTableRecord
100
AcDbRegAppTableRecord
2
ACAD
70
0
0
ENDTAB
0
TABLE
2
DIMSTYLE
5
A
100
AcDbSymbolTable
70
1
0
ENDTAB
0
TABLE
2
BLOCK_RECORD
5
1
100
AcDbSymbolTable
70
1
0
BLOCK_RECORD
5
1F
100
AcDbSymbolTableRecord
100
AcDbBlockTableRecord
2
*MODEL_SPACE
0
BLOCK_RECORD
5
1B
100
AcDbSymbolTableRecord
100
AcDbBlockTableRecord
2
*PAPER_SPACE
0
ENDTAB
0
ENDSEC
0
SECTION
2
BLOCKS
0
BLOCK
5
20
100
AcDbEntity
100
AcDbBlockBegin
2
*MODEL_SPACE
0
ENDBLK
5
21
100
AcDbEntity
100
AcDbBlockEnd
0
BLOCK
5
1C
100
AcDbEntity
100
AcDbBlockBegin
2
*PAPER_SPACE
0
ENDBLK
5
1D
100
AcDbEntity
100
AcDbBlockEnd
0
ENDSEC
0
SECTION
2
ENTITIES
0
LINE
5
100
100
AcDbEntity
8
0
100
AcDbLine
10
-62.5
20
42.000000000000014
30
0
11
62.5
21
42.000000000000014
31
0
0
LINE
5
101
100
AcDbEntity
8
0
100
AcDbLine
10
62.5
20
42.000000000000014
30
0
11
62.5
21
-42
31
0
0
LINE
5
102
100
AcDbEntity
8
0
100
AcDbLine
10
62.5
20
-42
30
0
11
-62.5
21
-42
31
0
0
LINE
5
103
100
AcDbEntity
8
0
100
AcDbLine
10
-62.5
20
-42
30
0
11
-62.5
21
42.000000000000014
31
0
0
LINE
5
104
100
AcDbEntity
8
0
100
AcDbLine
10
-62.5
20
42.000000000000014
30
0
11
62.5
21
-42
31
0
0
LINE
5
105
100
AcDbEntity
8
0
100
AcDbLine
10
62.5
20
42.000000000000014
30
0
11
-62.5
21
-42
31
0
0
CIRCLE
5
106
100
AcDbEntity
8
0
100
AcDbCircle
10
-58.947000000000003
20
-37.991999999999997
30
0
40
1.25
210
0
220
0
230
1
0
CIRCLE
5
107
100
AcDbEntity
8
0
100
AcDbCircle
10
-58.947000000000003
20
10.006000000000004
30
0
40
1.25
210
0
220
0
230
1
0
CIRCLE
5
108
100
AcDbEntity
8
0
100
AcDbCircle
10
-44.050000000000004
20
35.000000000000007
30
0
40
1.25
210
0
220
0
230
1
0
CIRCLE
5
109
100
AcDbEntity
8
0
100
AcDbCircle
10
44.050000000000004
20
35.000000000000007
30
0
40
1.25
210
0
220
0
230
1
0
CIRCLE
5
110
100
AcDbEntity
8
0
100
AcDbCircle
10
58.947000000000003
20
10.006000000000004
30
0
40
1.25
210
0
220
0
230
1
0
CIRCLE
5
111
100
AcDbEntity
8
0
100
AcDbCircle
10
58.947000000000003
20
-37.991999999999997
30
0
40
1.25
210
0
220
0
230
1
0
LWPOLYLINE
5
112
100
AcDbEntity
8
0
100
AcDbPolyline
90
4
70
1
43
0.0
10
-34.338000000000001
20
-14.799999999999997
10
-54.337999999999994
20
-14.800000000000001
10
-54.337999999999994
20
-34.799999999999997
10
-34.338000000000001
20
-34.799999999999997
0
CIRCLE
5
113
100
AcDbEntity
8
0
100
AcDbCircle
10
36.25
20
-14.049999999999997
30
0
40
3.7500000000000049
210
0
220
0
230
1
0
CIRCLE
5
114
100
AcDbEntity
8
0
100
AcDbCircle
10
43.75
20
-6.549999999999998
30
0
40
3.75
210
0
220
0
230
1
0
CIRCLE
5
115
100
AcDbEntity
8
0
100
AcDbCircle
10
51.25
20
-14.049999999999997
30
0
40
3.75
210
0
220
0
230
1
0
CIRCLE
5
116
100
AcDbEntity
8
0
100
AcDbCircle
10
43.75
20
-21.549999999999997
30
0
40
3.75
210
0
220
0
230
1
0
LINE
5
117
100
AcDbEntity
8
0
100
AcDbLine
10
-21.450000000000014
20
-4.8999999999999977
30
0
11
-14.250000000000007
21
-4.8999999999999977
31
0
0
LINE
5
118
100
AcDbEntity
8
0
100
AcDbLine
10
-14.250000000000007
20
-4.8999999999999977
30
0
11
-14.250000000000007
21
-12.199999999999996
31
0
0
LINE
5
119
100
AcDbEntity
8
0
100
AcDbLine
10
-21.450000000000014
20
-12.199999999999996
30
0
11
-21.450000000000014
21
-4.8999999999999977
31
0
0
LINE
5
120
100
AcDbEntity
8
0
100
AcDbLine
10
-28.749999999999964
20
-12.199999999999996
30
0
11
-21.450000000000014
21
-12.199999999999996
31
0
0
LINE
5
121
100
AcDbEntity
8
0
100
AcDbLine
10
-21.450000000000031
20
-19.399999999999999
30
0
11
-28.749999999999964
21
-19.399999999999999
31
0
0
LINE
5
122
100
AcDbEntity
8
0
100
AcDbLine
10
-28.749999999999964
20
-19.399999999999999
30
0
11
-28.749999999999964
21
-12.199999999999996
31
0
0
LINE
5
123
100
AcDbEntity
8
0
100
AcDbLine
10
-6.9500000000000206
20
-12.199999999999996
30
0
11
-14.250000000000007
21
-12.199999999999996
31
0
0
LINE
5
124
100
AcDbEntity
8
0
100
AcDbLine
10
-14.250000000000025
20
-19.399999999999984
30
0
11
-6.9500000000000206
21
-19.399999999999995
31
0
0
LINE
5
125
100
AcDbEntity
8
0
100
AcDbLine
10
-6.9500000000000206
20
-19.399999999999995
30
0
11
-6.9500000000000206
21
-12.199999999999996
31
0
0
LINE
5
126
100
AcDbEntity
8
0
100
AcDbLine
10
-14.250000000000025
20
-19.399999999999984
30
0
11
-14.250000000000025
21
-26.699999999999989
31
0
0
LINE
5
127
100
AcDbEntity
8
0
100
AcDbLine
10
-14.250000000000025
20
-26.699999999999989
30
0
11
-21.450000000000031
21
-26.699999999999989
31
0
0
LINE
5
128
100
AcDbEntity
8
0
100
AcDbLine
10
-21.450000000000031
20
-26.699999999999989
30
0
11
-21.450000000000031
21
-19.399999999999999
31
0
0
CIRCLE
5
129
100
AcDbEntity
8
0
100
AcDbCircle
10
46.25
20
5.2000000000000135
30
0
40
3.7499999999999991
210
0
220
0
230
1
0
CIRCLE
5
130
100
AcDbEntity
8
0
100
AcDbCircle
10
21.25
20
-30.300000000000004
30
0
40
3.7499999999999996
210
0
220
0
230
1
0
CIRCLE
5
131
100
AcDbEntity
8
0
100
AcDbCircle
10
8.75
20
-30.300000000000004
30
0
40
3.7499999999999982
210
0
220
0
230
1
0
ENDSEC
0
SECTION
2
OBJECTS
0
DICTIONARY
5
C
100
AcDbDictionary
3
ACAD_GROUP
350
D
3
ACAD_MLINESTYLE
350
17
0
DICTIONARY
5
D
100
AcDbDictionary
0
DICTIONARY
5
1A
330
C
100
AcDbDictionary
0
DICTIONARY
5
17
100
AcDbDictionary
0
ENDSEC
0
EOF
