%TF.GenerationSoftware,KiCad,Pcbnew,(6.0.0)*%
%TF.CreationDate,2022-06-01T12:39:38+01:00*%
%TF.ProjectId,shoulderButton,73686f75-6c64-4657-9242-7574746f6e2e,Rev1-F*%
%TF.SameCoordinates,Original*%
%TF.FileFunction,Soldermask,Top*%
%TF.FilePolarity,Negative*%
%FSLAX46Y46*%
G04 Gerber Fmt 4.6, Leading zero omitted, Abs format (unit mm)*
G04 Created by KiCad (PCBNEW (6.0.0)) date 2022-06-01 12:39:38*
%MOMM*%
%LPD*%
G01*
G04 APERTURE LIST*
G04 Aperture macros list*
%AMRoundRect*
0 Rectangle with rounded corners*
0 $1 Rounding radius*
0 $2 $3 $4 $5 $6 $7 $8 $9 X,Y pos of 4 corners*
0 Add a 4 corners polygon primitive as box body*
4,1,4,$2,$3,$4,$5,$6,$7,$8,$9,$2,$3,0*
0 Add four circle primitives for the rounded corners*
1,1,$1+$1,$2,$3*
1,1,$1+$1,$4,$5*
1,1,$1+$1,$6,$7*
1,1,$1+$1,$8,$9*
0 Add four rect primitives between the rounded corners*
20,1,$1+$1,$2,$3,$4,$5,0*
20,1,$1+$1,$4,$5,$6,$7,0*
20,1,$1+$1,$6,$7,$8,$9,0*
20,1,$1+$1,$8,$9,$2,$3,0*%
G04 Aperture macros list end*
%ADD10C,0.010000*%
%ADD11R,1.400000X1.050000*%
%ADD12RoundRect,0.250000X-0.475000X0.337500X-0.475000X-0.337500X0.475000X-0.337500X0.475000X0.337500X0*%
%ADD13C,2.700000*%
%ADD14RoundRect,0.250000X-0.450000X0.350000X-0.450000X-0.350000X0.450000X-0.350000X0.450000X0.350000X0*%
%ADD15RoundRect,0.250000X0.350000X0.450000X-0.350000X0.450000X-0.350000X-0.450000X0.350000X-0.450000X0*%
%ADD16RoundRect,0.250000X-0.550000X0.550000X-0.550000X-0.550000X0.550000X-0.550000X0.550000X0.550000X0*%
%ADD17C,1.600000*%
G04 APERTURE END LIST*
D10*
%TO.C,REF\u002A\u002A*%
X48617491Y-68611754D02*
X48730073Y-69208945D01*
X48730073Y-69208945D02*
X49145486Y-69380192D01*
X49145486Y-69380192D02*
X49560900Y-69551439D01*
X49560900Y-69551439D02*
X50059257Y-69212560D01*
X50059257Y-69212560D02*
X50198824Y-69118204D01*
X50198824Y-69118204D02*
X50324984Y-69033957D01*
X50324984Y-69033957D02*
X50431851Y-68963665D01*
X50431851Y-68963665D02*
X50513538Y-68911174D01*
X50513538Y-68911174D02*
X50564157Y-68880331D01*
X50564157Y-68880331D02*
X50577942Y-68873680D01*
X50577942Y-68873680D02*
X50602776Y-68890785D01*
X50602776Y-68890785D02*
X50655844Y-68938071D01*
X50655844Y-68938071D02*
X50731196Y-69009499D01*
X50731196Y-69009499D02*
X50822885Y-69099027D01*
X50822885Y-69099027D02*
X50924963Y-69200616D01*
X50924963Y-69200616D02*
X51031482Y-69308225D01*
X51031482Y-69308225D02*
X51136492Y-69415814D01*
X51136492Y-69415814D02*
X51234047Y-69517342D01*
X51234047Y-69517342D02*
X51318198Y-69606768D01*
X51318198Y-69606768D02*
X51382996Y-69678053D01*
X51382996Y-69678053D02*
X51422493Y-69725155D01*
X51422493Y-69725155D02*
X51431936Y-69740919D01*
X51431936Y-69740919D02*
X51418347Y-69769980D01*
X51418347Y-69769980D02*
X51380249Y-69833648D01*
X51380249Y-69833648D02*
X51321649Y-69925694D01*
X51321649Y-69925694D02*
X51246553Y-70039891D01*
X51246553Y-70039891D02*
X51158964Y-70170011D01*
X51158964Y-70170011D02*
X51108210Y-70244228D01*
X51108210Y-70244228D02*
X51015701Y-70379749D01*
X51015701Y-70379749D02*
X50933496Y-70502043D01*
X50933496Y-70502043D02*
X50865586Y-70605022D01*
X50865586Y-70605022D02*
X50815956Y-70682600D01*
X50815956Y-70682600D02*
X50788596Y-70728688D01*
X50788596Y-70728688D02*
X50784485Y-70738374D01*
X50784485Y-70738374D02*
X50793805Y-70765901D01*
X50793805Y-70765901D02*
X50819210Y-70830055D01*
X50819210Y-70830055D02*
X50856867Y-70921817D01*
X50856867Y-70921817D02*
X50902942Y-71032166D01*
X50902942Y-71032166D02*
X50953602Y-71152082D01*
X50953602Y-71152082D02*
X51005015Y-71272546D01*
X51005015Y-71272546D02*
X51053345Y-71384536D01*
X51053345Y-71384536D02*
X51094762Y-71479034D01*
X51094762Y-71479034D02*
X51125430Y-71547019D01*
X51125430Y-71547019D02*
X51141517Y-71579470D01*
X51141517Y-71579470D02*
X51142467Y-71580747D01*
X51142467Y-71580747D02*
X51167728Y-71586944D01*
X51167728Y-71586944D02*
X51235001Y-71600767D01*
X51235001Y-71600767D02*
X51337316Y-71620859D01*
X51337316Y-71620859D02*
X51467697Y-71645861D01*
X51467697Y-71645861D02*
X51619172Y-71674413D01*
X51619172Y-71674413D02*
X51707549Y-71690878D01*
X51707549Y-71690878D02*
X51869408Y-71721696D01*
X51869408Y-71721696D02*
X52015605Y-71751021D01*
X52015605Y-71751021D02*
X52138743Y-71777248D01*
X52138743Y-71777248D02*
X52231425Y-71798773D01*
X52231425Y-71798773D02*
X52286257Y-71813992D01*
X52286257Y-71813992D02*
X52297279Y-71818820D01*
X52297279Y-71818820D02*
X52308074Y-71851501D01*
X52308074Y-71851501D02*
X52316785Y-71925312D01*
X52316785Y-71925312D02*
X52323416Y-72031619D01*
X52323416Y-72031619D02*
X52327974Y-72161794D01*
X52327974Y-72161794D02*
X52330465Y-72307203D01*
X52330465Y-72307203D02*
X52330894Y-72459217D01*
X52330894Y-72459217D02*
X52329267Y-72609204D01*
X52329267Y-72609204D02*
X52325591Y-72748533D01*
X52325591Y-72748533D02*
X52319871Y-72868572D01*
X52319871Y-72868572D02*
X52312113Y-72960692D01*
X52312113Y-72960692D02*
X52302324Y-73016259D01*
X52302324Y-73016259D02*
X52296452Y-73027827D01*
X52296452Y-73027827D02*
X52261355Y-73041692D01*
X52261355Y-73041692D02*
X52186984Y-73061515D01*
X52186984Y-73061515D02*
X52083179Y-73084966D01*
X52083179Y-73084966D02*
X51959775Y-73109718D01*
X51959775Y-73109718D02*
X51916697Y-73117725D01*
X51916697Y-73117725D02*
X51709003Y-73155768D01*
X51709003Y-73155768D02*
X51544940Y-73186406D01*
X51544940Y-73186406D02*
X51419086Y-73210856D01*
X51419086Y-73210856D02*
X51326021Y-73230336D01*
X51326021Y-73230336D02*
X51260323Y-73246063D01*
X51260323Y-73246063D02*
X51216573Y-73259255D01*
X51216573Y-73259255D02*
X51189348Y-73271131D01*
X51189348Y-73271131D02*
X51173228Y-73282907D01*
X51173228Y-73282907D02*
X51170973Y-73285235D01*
X51170973Y-73285235D02*
X51148459Y-73322727D01*
X51148459Y-73322727D02*
X51114114Y-73395692D01*
X51114114Y-73395692D02*
X51071367Y-73495194D01*
X51071367Y-73495194D02*
X51023648Y-73612300D01*
X51023648Y-73612300D02*
X50974386Y-73738075D01*
X50974386Y-73738075D02*
X50927011Y-73863584D01*
X50927011Y-73863584D02*
X50884951Y-73979892D01*
X50884951Y-73979892D02*
X50851636Y-74078066D01*
X50851636Y-74078066D02*
X50830497Y-74149170D01*
X50830497Y-74149170D02*
X50824961Y-74184269D01*
X50824961Y-74184269D02*
X50825422Y-74185499D01*
X50825422Y-74185499D02*
X50844179Y-74214188D01*
X50844179Y-74214188D02*
X50886732Y-74277312D01*
X50886732Y-74277312D02*
X50948609Y-74368300D01*
X50948609Y-74368300D02*
X51025338Y-74480582D01*
X51025338Y-74480582D02*
X51112447Y-74607587D01*
X51112447Y-74607587D02*
X51137254Y-74643680D01*
X51137254Y-74643680D02*
X51225708Y-74774530D01*
X51225708Y-74774530D02*
X51303544Y-74893918D01*
X51303544Y-74893918D02*
X51366522Y-74994989D01*
X51366522Y-74994989D02*
X51410401Y-75070886D01*
X51410401Y-75070886D02*
X51430941Y-75114754D01*
X51430941Y-75114754D02*
X51431936Y-75120144D01*
X51431936Y-75120144D02*
X51414678Y-75148471D01*
X51414678Y-75148471D02*
X51366991Y-75204588D01*
X51366991Y-75204588D02*
X51295006Y-75282464D01*
X51295006Y-75282464D02*
X51204853Y-75376067D01*
X51204853Y-75376067D02*
X51102661Y-75479368D01*
X51102661Y-75479368D02*
X50994561Y-75586333D01*
X50994561Y-75586333D02*
X50886684Y-75690933D01*
X50886684Y-75690933D02*
X50785160Y-75787136D01*
X50785160Y-75787136D02*
X50696118Y-75868911D01*
X50696118Y-75868911D02*
X50625689Y-75930227D01*
X50625689Y-75930227D02*
X50580003Y-75965053D01*
X50580003Y-75965053D02*
X50567365Y-75970739D01*
X50567365Y-75970739D02*
X50537947Y-75957347D01*
X50537947Y-75957347D02*
X50477717Y-75921226D01*
X50477717Y-75921226D02*
X50396485Y-75868463D01*
X50396485Y-75868463D02*
X50333986Y-75825994D01*
X50333986Y-75825994D02*
X50220741Y-75748067D01*
X50220741Y-75748067D02*
X50086630Y-75656311D01*
X50086630Y-75656311D02*
X49952111Y-75564702D01*
X49952111Y-75564702D02*
X49879789Y-75515673D01*
X49879789Y-75515673D02*
X49634994Y-75350097D01*
X49634994Y-75350097D02*
X49429506Y-75461202D01*
X49429506Y-75461202D02*
X49335892Y-75509875D01*
X49335892Y-75509875D02*
X49256286Y-75547708D01*
X49256286Y-75547708D02*
X49202423Y-75569285D01*
X49202423Y-75569285D02*
X49188713Y-75572288D01*
X49188713Y-75572288D02*
X49172226Y-75550120D01*
X49172226Y-75550120D02*
X49139701Y-75487476D01*
X49139701Y-75487476D02*
X49093564Y-75390136D01*
X49093564Y-75390136D02*
X49036246Y-75263876D01*
X49036246Y-75263876D02*
X48970172Y-75114477D01*
X48970172Y-75114477D02*
X48897771Y-74947715D01*
X48897771Y-74947715D02*
X48821472Y-74769369D01*
X48821472Y-74769369D02*
X48743702Y-74585218D01*
X48743702Y-74585218D02*
X48666890Y-74401039D01*
X48666890Y-74401039D02*
X48593462Y-74222612D01*
X48593462Y-74222612D02*
X48525848Y-74055714D01*
X48525848Y-74055714D02*
X48466476Y-73906124D01*
X48466476Y-73906124D02*
X48417772Y-73779620D01*
X48417772Y-73779620D02*
X48382166Y-73681981D01*
X48382166Y-73681981D02*
X48362086Y-73618984D01*
X48362086Y-73618984D02*
X48358856Y-73597348D01*
X48358856Y-73597348D02*
X48384452Y-73569751D01*
X48384452Y-73569751D02*
X48440494Y-73524952D01*
X48440494Y-73524952D02*
X48515267Y-73472261D01*
X48515267Y-73472261D02*
X48521543Y-73468092D01*
X48521543Y-73468092D02*
X48714801Y-73313396D01*
X48714801Y-73313396D02*
X48870630Y-73132918D01*
X48870630Y-73132918D02*
X48987680Y-72932429D01*
X48987680Y-72932429D02*
X49064601Y-72717701D01*
X49064601Y-72717701D02*
X49100042Y-72494504D01*
X49100042Y-72494504D02*
X49092653Y-72268608D01*
X49092653Y-72268608D02*
X49041083Y-72045786D01*
X49041083Y-72045786D02*
X48943982Y-71831806D01*
X48943982Y-71831806D02*
X48915414Y-71784991D01*
X48915414Y-71784991D02*
X48766824Y-71595945D01*
X48766824Y-71595945D02*
X48591283Y-71444139D01*
X48591283Y-71444139D02*
X48394866Y-71330361D01*
X48394866Y-71330361D02*
X48183649Y-71255402D01*
X48183649Y-71255402D02*
X47963709Y-71220049D01*
X47963709Y-71220049D02*
X47741119Y-71225094D01*
X47741119Y-71225094D02*
X47521957Y-71271326D01*
X47521957Y-71271326D02*
X47312298Y-71359533D01*
X47312298Y-71359533D02*
X47118217Y-71490506D01*
X47118217Y-71490506D02*
X47058182Y-71543664D01*
X47058182Y-71543664D02*
X46905391Y-71710066D01*
X46905391Y-71710066D02*
X46794053Y-71885239D01*
X46794053Y-71885239D02*
X46717679Y-72081593D01*
X46717679Y-72081593D02*
X46675143Y-72276044D01*
X46675143Y-72276044D02*
X46664642Y-72494669D01*
X46664642Y-72494669D02*
X46699656Y-72714379D01*
X46699656Y-72714379D02*
X46776629Y-72927747D01*
X46776629Y-72927747D02*
X46892003Y-73127349D01*
X46892003Y-73127349D02*
X47042221Y-73305756D01*
X47042221Y-73305756D02*
X47223729Y-73455544D01*
X47223729Y-73455544D02*
X47247583Y-73471333D01*
X47247583Y-73471333D02*
X47323157Y-73523039D01*
X47323157Y-73523039D02*
X47380607Y-73567839D01*
X47380607Y-73567839D02*
X47408073Y-73596444D01*
X47408073Y-73596444D02*
X47408473Y-73597348D01*
X47408473Y-73597348D02*
X47402576Y-73628291D01*
X47402576Y-73628291D02*
X47379201Y-73698518D01*
X47379201Y-73698518D02*
X47340777Y-73802252D01*
X47340777Y-73802252D02*
X47289733Y-73933717D01*
X47289733Y-73933717D02*
X47228498Y-74087134D01*
X47228498Y-74087134D02*
X47159500Y-74256728D01*
X47159500Y-74256728D02*
X47085169Y-74436720D01*
X47085169Y-74436720D02*
X47007934Y-74621335D01*
X47007934Y-74621335D02*
X46930224Y-74804795D01*
X46930224Y-74804795D02*
X46854467Y-74981323D01*
X46854467Y-74981323D02*
X46783093Y-75145141D01*
X46783093Y-75145141D02*
X46718530Y-75290474D01*
X46718530Y-75290474D02*
X46663208Y-75411544D01*
X46663208Y-75411544D02*
X46619556Y-75502574D01*
X46619556Y-75502574D02*
X46590002Y-75557787D01*
X46590002Y-75557787D02*
X46578100Y-75572288D01*
X46578100Y-75572288D02*
X46541733Y-75560996D01*
X46541733Y-75560996D02*
X46473686Y-75530712D01*
X46473686Y-75530712D02*
X46385692Y-75486847D01*
X46385692Y-75486847D02*
X46337306Y-75461202D01*
X46337306Y-75461202D02*
X46131819Y-75350097D01*
X46131819Y-75350097D02*
X45887024Y-75515673D01*
X45887024Y-75515673D02*
X45762062Y-75600497D01*
X45762062Y-75600497D02*
X45625251Y-75693843D01*
X45625251Y-75693843D02*
X45497044Y-75781735D01*
X45497044Y-75781735D02*
X45432827Y-75825994D01*
X45432827Y-75825994D02*
X45342507Y-75886645D01*
X45342507Y-75886645D02*
X45266027Y-75934708D01*
X45266027Y-75934708D02*
X45213363Y-75964097D01*
X45213363Y-75964097D02*
X45196258Y-75970309D01*
X45196258Y-75970309D02*
X45171361Y-75953550D01*
X45171361Y-75953550D02*
X45116261Y-75906763D01*
X45116261Y-75906763D02*
X45036299Y-75834807D01*
X45036299Y-75834807D02*
X44936816Y-75742539D01*
X44936816Y-75742539D02*
X44823156Y-75634817D01*
X44823156Y-75634817D02*
X44751271Y-75565653D01*
X44751271Y-75565653D02*
X44625507Y-75442084D01*
X44625507Y-75442084D02*
X44516819Y-75331561D01*
X44516819Y-75331561D02*
X44429601Y-75238812D01*
X44429601Y-75238812D02*
X44368245Y-75168564D01*
X44368245Y-75168564D02*
X44337147Y-75125547D01*
X44337147Y-75125547D02*
X44334164Y-75116817D01*
X44334164Y-75116817D02*
X44348009Y-75083611D01*
X44348009Y-75083611D02*
X44386268Y-75016469D01*
X44386268Y-75016469D02*
X44444697Y-74922190D01*
X44444697Y-74922190D02*
X44519053Y-74807572D01*
X44519053Y-74807572D02*
X44605091Y-74679410D01*
X44605091Y-74679410D02*
X44629558Y-74643680D01*
X44629558Y-74643680D02*
X44718710Y-74513816D01*
X44718710Y-74513816D02*
X44798694Y-74396896D01*
X44798694Y-74396896D02*
X44865036Y-74299489D01*
X44865036Y-74299489D02*
X44913267Y-74228166D01*
X44913267Y-74228166D02*
X44938913Y-74189497D01*
X44938913Y-74189497D02*
X44941391Y-74185499D01*
X44941391Y-74185499D02*
X44937685Y-74154682D01*
X44937685Y-74154682D02*
X44918017Y-74086926D01*
X44918017Y-74086926D02*
X44885816Y-73991166D01*
X44885816Y-73991166D02*
X44844511Y-73876336D01*
X44844511Y-73876336D02*
X44797531Y-73751371D01*
X44797531Y-73751371D02*
X44748305Y-73625206D01*
X44748305Y-73625206D02*
X44700264Y-73506775D01*
X44700264Y-73506775D02*
X44656837Y-73405012D01*
X44656837Y-73405012D02*
X44621452Y-73328853D01*
X44621452Y-73328853D02*
X44597540Y-73287231D01*
X44597540Y-73287231D02*
X44595840Y-73285235D01*
X44595840Y-73285235D02*
X44581218Y-73273340D01*
X44581218Y-73273340D02*
X44556521Y-73261577D01*
X44556521Y-73261577D02*
X44516328Y-73248728D01*
X44516328Y-73248728D02*
X44455219Y-73233576D01*
X44455219Y-73233576D02*
X44367773Y-73214903D01*
X44367773Y-73214903D02*
X44248568Y-73191492D01*
X44248568Y-73191492D02*
X44092183Y-73162124D01*
X44092183Y-73162124D02*
X43893199Y-73125582D01*
X43893199Y-73125582D02*
X43850116Y-73117725D01*
X43850116Y-73117725D02*
X43722426Y-73093054D01*
X43722426Y-73093054D02*
X43611109Y-73068920D01*
X43611109Y-73068920D02*
X43526001Y-73047651D01*
X43526001Y-73047651D02*
X43476939Y-73031575D01*
X43476939Y-73031575D02*
X43470361Y-73027827D01*
X43470361Y-73027827D02*
X43459520Y-72994600D01*
X43459520Y-72994600D02*
X43450709Y-72920348D01*
X43450709Y-72920348D02*
X43443932Y-72813703D01*
X43443932Y-72813703D02*
X43439196Y-72683294D01*
X43439196Y-72683294D02*
X43436506Y-72537754D01*
X43436506Y-72537754D02*
X43435869Y-72385713D01*
X43435869Y-72385713D02*
X43437290Y-72235803D01*
X43437290Y-72235803D02*
X43440776Y-72096655D01*
X43440776Y-72096655D02*
X43446332Y-71976899D01*
X43446332Y-71976899D02*
X43453964Y-71885168D01*
X43453964Y-71885168D02*
X43463678Y-71830093D01*
X43463678Y-71830093D02*
X43469534Y-71818820D01*
X43469534Y-71818820D02*
X43502136Y-71807450D01*
X43502136Y-71807450D02*
X43576374Y-71788951D01*
X43576374Y-71788951D02*
X43684852Y-71764929D01*
X43684852Y-71764929D02*
X43820173Y-71736989D01*
X43820173Y-71736989D02*
X43974941Y-71706735D01*
X43974941Y-71706735D02*
X44059263Y-71690878D01*
X44059263Y-71690878D02*
X44219252Y-71660971D01*
X44219252Y-71660971D02*
X44361923Y-71633877D01*
X44361923Y-71633877D02*
X44480304Y-71610958D01*
X44480304Y-71610958D02*
X44567421Y-71593570D01*
X44567421Y-71593570D02*
X44616301Y-71583074D01*
X44616301Y-71583074D02*
X44624346Y-71580747D01*
X44624346Y-71580747D02*
X44637943Y-71554513D01*
X44637943Y-71554513D02*
X44666685Y-71491322D01*
X44666685Y-71491322D02*
X44706741Y-71400204D01*
X44706741Y-71400204D02*
X44754280Y-71290184D01*
X44754280Y-71290184D02*
X44805471Y-71170292D01*
X44805471Y-71170292D02*
X44856482Y-71049554D01*
X44856482Y-71049554D02*
X44903482Y-70936998D01*
X44903482Y-70936998D02*
X44942640Y-70841653D01*
X44942640Y-70841653D02*
X44970125Y-70772544D01*
X44970125Y-70772544D02*
X44982105Y-70738701D01*
X44982105Y-70738701D02*
X44982328Y-70737222D01*
X44982328Y-70737222D02*
X44968747Y-70710524D01*
X44968747Y-70710524D02*
X44930671Y-70649087D01*
X44930671Y-70649087D02*
X44872103Y-70559016D01*
X44872103Y-70559016D02*
X44797044Y-70446417D01*
X44797044Y-70446417D02*
X44709496Y-70317397D01*
X44709496Y-70317397D02*
X44658603Y-70243288D01*
X44658603Y-70243288D02*
X44565865Y-70107404D01*
X44565865Y-70107404D02*
X44483497Y-69984036D01*
X44483497Y-69984036D02*
X44415517Y-69879424D01*
X44415517Y-69879424D02*
X44365944Y-69799810D01*
X44365944Y-69799810D02*
X44338798Y-69751434D01*
X44338798Y-69751434D02*
X44334877Y-69740589D01*
X44334877Y-69740589D02*
X44351731Y-69715347D01*
X44351731Y-69715347D02*
X44398324Y-69661451D01*
X44398324Y-69661451D02*
X44468704Y-69584940D01*
X44468704Y-69584940D02*
X44556921Y-69491850D01*
X44556921Y-69491850D02*
X44657021Y-69388222D01*
X44657021Y-69388222D02*
X44763054Y-69280091D01*
X44763054Y-69280091D02*
X44869067Y-69173497D01*
X44869067Y-69173497D02*
X44969108Y-69074477D01*
X44969108Y-69074477D02*
X45057226Y-68989069D01*
X45057226Y-68989069D02*
X45127469Y-68923312D01*
X45127469Y-68923312D02*
X45173884Y-68883243D01*
X45173884Y-68883243D02*
X45189412Y-68873680D01*
X45189412Y-68873680D02*
X45214695Y-68887127D01*
X45214695Y-68887127D02*
X45275167Y-68924902D01*
X45275167Y-68924902D02*
X45364948Y-68983162D01*
X45364948Y-68983162D02*
X45478159Y-69058061D01*
X45478159Y-69058061D02*
X45608919Y-69145752D01*
X45608919Y-69145752D02*
X45707555Y-69212560D01*
X45707555Y-69212560D02*
X46205913Y-69551439D01*
X46205913Y-69551439D02*
X46621326Y-69380192D01*
X46621326Y-69380192D02*
X47036740Y-69208945D01*
X47036740Y-69208945D02*
X47149322Y-68611754D01*
X47149322Y-68611754D02*
X47261905Y-68014562D01*
X47261905Y-68014562D02*
X48504908Y-68014562D01*
X48504908Y-68014562D02*
X48617491Y-68611754D01*
X48617491Y-68611754D02*
X48617491Y-68611754D01*
G36*
X48617491Y-68611754D02*
G01*
X48730073Y-69208945D01*
X49145486Y-69380192D01*
X49560900Y-69551439D01*
X50059257Y-69212560D01*
X50198824Y-69118204D01*
X50324984Y-69033957D01*
X50431851Y-68963665D01*
X50513538Y-68911174D01*
X50564157Y-68880331D01*
X50577942Y-68873680D01*
X50602776Y-68890785D01*
X50655844Y-68938071D01*
X50731196Y-69009499D01*
X50822885Y-69099027D01*
X50924963Y-69200616D01*
X51031482Y-69308225D01*
X51136492Y-69415814D01*
X51234047Y-69517342D01*
X51318198Y-69606768D01*
X51382996Y-69678053D01*
X51422493Y-69725155D01*
X51431936Y-69740919D01*
X51418347Y-69769980D01*
X51380249Y-69833648D01*
X51321649Y-69925694D01*
X51246553Y-70039891D01*
X51158964Y-70170011D01*
X51108210Y-70244228D01*
X51015701Y-70379749D01*
X50933496Y-70502043D01*
X50865586Y-70605022D01*
X50815956Y-70682600D01*
X50788596Y-70728688D01*
X50784485Y-70738374D01*
X50793805Y-70765901D01*
X50819210Y-70830055D01*
X50856867Y-70921817D01*
X50902942Y-71032166D01*
X50953602Y-71152082D01*
X51005015Y-71272546D01*
X51053345Y-71384536D01*
X51094762Y-71479034D01*
X51125430Y-71547019D01*
X51141517Y-71579470D01*
X51142467Y-71580747D01*
X51167728Y-71586944D01*
X51235001Y-71600767D01*
X51337316Y-71620859D01*
X51467697Y-71645861D01*
X51619172Y-71674413D01*
X51707549Y-71690878D01*
X51869408Y-71721696D01*
X52015605Y-71751021D01*
X52138743Y-71777248D01*
X52231425Y-71798773D01*
X52286257Y-71813992D01*
X52297279Y-71818820D01*
X52308074Y-71851501D01*
X52316785Y-71925312D01*
X52323416Y-72031619D01*
X52327974Y-72161794D01*
X52330465Y-72307203D01*
X52330894Y-72459217D01*
X52329267Y-72609204D01*
X52325591Y-72748533D01*
X52319871Y-72868572D01*
X52312113Y-72960692D01*
X52302324Y-73016259D01*
X52296452Y-73027827D01*
X52261355Y-73041692D01*
X52186984Y-73061515D01*
X52083179Y-73084966D01*
X51959775Y-73109718D01*
X51916697Y-73117725D01*
X51709003Y-73155768D01*
X51544940Y-73186406D01*
X51419086Y-73210856D01*
X51326021Y-73230336D01*
X51260323Y-73246063D01*
X51216573Y-73259255D01*
X51189348Y-73271131D01*
X51173228Y-73282907D01*
X51170973Y-73285235D01*
X51148459Y-73322727D01*
X51114114Y-73395692D01*
X51071367Y-73495194D01*
X51023648Y-73612300D01*
X50974386Y-73738075D01*
X50927011Y-73863584D01*
X50884951Y-73979892D01*
X50851636Y-74078066D01*
X50830497Y-74149170D01*
X50824961Y-74184269D01*
X50825422Y-74185499D01*
X50844179Y-74214188D01*
X50886732Y-74277312D01*
X50948609Y-74368300D01*
X51025338Y-74480582D01*
X51112447Y-74607587D01*
X51137254Y-74643680D01*
X51225708Y-74774530D01*
X51303544Y-74893918D01*
X51366522Y-74994989D01*
X51410401Y-75070886D01*
X51430941Y-75114754D01*
X51431936Y-75120144D01*
X51414678Y-75148471D01*
X51366991Y-75204588D01*
X51295006Y-75282464D01*
X51204853Y-75376067D01*
X51102661Y-75479368D01*
X50994561Y-75586333D01*
X50886684Y-75690933D01*
X50785160Y-75787136D01*
X50696118Y-75868911D01*
X50625689Y-75930227D01*
X50580003Y-75965053D01*
X50567365Y-75970739D01*
X50537947Y-75957347D01*
X50477717Y-75921226D01*
X50396485Y-75868463D01*
X50333986Y-75825994D01*
X50220741Y-75748067D01*
X50086630Y-75656311D01*
X49952111Y-75564702D01*
X49879789Y-75515673D01*
X49634994Y-75350097D01*
X49429506Y-75461202D01*
X49335892Y-75509875D01*
X49256286Y-75547708D01*
X49202423Y-75569285D01*
X49188713Y-75572288D01*
X49172226Y-75550120D01*
X49139701Y-75487476D01*
X49093564Y-75390136D01*
X49036246Y-75263876D01*
X48970172Y-75114477D01*
X48897771Y-74947715D01*
X48821472Y-74769369D01*
X48743702Y-74585218D01*
X48666890Y-74401039D01*
X48593462Y-74222612D01*
X48525848Y-74055714D01*
X48466476Y-73906124D01*
X48417772Y-73779620D01*
X48382166Y-73681981D01*
X48362086Y-73618984D01*
X48358856Y-73597348D01*
X48384452Y-73569751D01*
X48440494Y-73524952D01*
X48515267Y-73472261D01*
X48521543Y-73468092D01*
X48714801Y-73313396D01*
X48870630Y-73132918D01*
X48987680Y-72932429D01*
X49064601Y-72717701D01*
X49100042Y-72494504D01*
X49092653Y-72268608D01*
X49041083Y-72045786D01*
X48943982Y-71831806D01*
X48915414Y-71784991D01*
X48766824Y-71595945D01*
X48591283Y-71444139D01*
X48394866Y-71330361D01*
X48183649Y-71255402D01*
X47963709Y-71220049D01*
X47741119Y-71225094D01*
X47521957Y-71271326D01*
X47312298Y-71359533D01*
X47118217Y-71490506D01*
X47058182Y-71543664D01*
X46905391Y-71710066D01*
X46794053Y-71885239D01*
X46717679Y-72081593D01*
X46675143Y-72276044D01*
X46664642Y-72494669D01*
X46699656Y-72714379D01*
X46776629Y-72927747D01*
X46892003Y-73127349D01*
X47042221Y-73305756D01*
X47223729Y-73455544D01*
X47247583Y-73471333D01*
X47323157Y-73523039D01*
X47380607Y-73567839D01*
X47408073Y-73596444D01*
X47408473Y-73597348D01*
X47402576Y-73628291D01*
X47379201Y-73698518D01*
X47340777Y-73802252D01*
X47289733Y-73933717D01*
X47228498Y-74087134D01*
X47159500Y-74256728D01*
X47085169Y-74436720D01*
X47007934Y-74621335D01*
X46930224Y-74804795D01*
X46854467Y-74981323D01*
X46783093Y-75145141D01*
X46718530Y-75290474D01*
X46663208Y-75411544D01*
X46619556Y-75502574D01*
X46590002Y-75557787D01*
X46578100Y-75572288D01*
X46541733Y-75560996D01*
X46473686Y-75530712D01*
X46385692Y-75486847D01*
X46337306Y-75461202D01*
X46131819Y-75350097D01*
X45887024Y-75515673D01*
X45762062Y-75600497D01*
X45625251Y-75693843D01*
X45497044Y-75781735D01*
X45432827Y-75825994D01*
X45342507Y-75886645D01*
X45266027Y-75934708D01*
X45213363Y-75964097D01*
X45196258Y-75970309D01*
X45171361Y-75953550D01*
X45116261Y-75906763D01*
X45036299Y-75834807D01*
X44936816Y-75742539D01*
X44823156Y-75634817D01*
X44751271Y-75565653D01*
X44625507Y-75442084D01*
X44516819Y-75331561D01*
X44429601Y-75238812D01*
X44368245Y-75168564D01*
X44337147Y-75125547D01*
X44334164Y-75116817D01*
X44348009Y-75083611D01*
X44386268Y-75016469D01*
X44444697Y-74922190D01*
X44519053Y-74807572D01*
X44605091Y-74679410D01*
X44629558Y-74643680D01*
X44718710Y-74513816D01*
X44798694Y-74396896D01*
X44865036Y-74299489D01*
X44913267Y-74228166D01*
X44938913Y-74189497D01*
X44941391Y-74185499D01*
X44937685Y-74154682D01*
X44918017Y-74086926D01*
X44885816Y-73991166D01*
X44844511Y-73876336D01*
X44797531Y-73751371D01*
X44748305Y-73625206D01*
X44700264Y-73506775D01*
X44656837Y-73405012D01*
X44621452Y-73328853D01*
X44597540Y-73287231D01*
X44595840Y-73285235D01*
X44581218Y-73273340D01*
X44556521Y-73261577D01*
X44516328Y-73248728D01*
X44455219Y-73233576D01*
X44367773Y-73214903D01*
X44248568Y-73191492D01*
X44092183Y-73162124D01*
X43893199Y-73125582D01*
X43850116Y-73117725D01*
X43722426Y-73093054D01*
X43611109Y-73068920D01*
X43526001Y-73047651D01*
X43476939Y-73031575D01*
X43470361Y-73027827D01*
X43459520Y-72994600D01*
X43450709Y-72920348D01*
X43443932Y-72813703D01*
X43439196Y-72683294D01*
X43436506Y-72537754D01*
X43435869Y-72385713D01*
X43437290Y-72235803D01*
X43440776Y-72096655D01*
X43446332Y-71976899D01*
X43453964Y-71885168D01*
X43463678Y-71830093D01*
X43469534Y-71818820D01*
X43502136Y-71807450D01*
X43576374Y-71788951D01*
X43684852Y-71764929D01*
X43820173Y-71736989D01*
X43974941Y-71706735D01*
X44059263Y-71690878D01*
X44219252Y-71660971D01*
X44361923Y-71633877D01*
X44480304Y-71610958D01*
X44567421Y-71593570D01*
X44616301Y-71583074D01*
X44624346Y-71580747D01*
X44637943Y-71554513D01*
X44666685Y-71491322D01*
X44706741Y-71400204D01*
X44754280Y-71290184D01*
X44805471Y-71170292D01*
X44856482Y-71049554D01*
X44903482Y-70936998D01*
X44942640Y-70841653D01*
X44970125Y-70772544D01*
X44982105Y-70738701D01*
X44982328Y-70737222D01*
X44968747Y-70710524D01*
X44930671Y-70649087D01*
X44872103Y-70559016D01*
X44797044Y-70446417D01*
X44709496Y-70317397D01*
X44658603Y-70243288D01*
X44565865Y-70107404D01*
X44483497Y-69984036D01*
X44415517Y-69879424D01*
X44365944Y-69799810D01*
X44338798Y-69751434D01*
X44334877Y-69740589D01*
X44351731Y-69715347D01*
X44398324Y-69661451D01*
X44468704Y-69584940D01*
X44556921Y-69491850D01*
X44657021Y-69388222D01*
X44763054Y-69280091D01*
X44869067Y-69173497D01*
X44969108Y-69074477D01*
X45057226Y-68989069D01*
X45127469Y-68923312D01*
X45173884Y-68883243D01*
X45189412Y-68873680D01*
X45214695Y-68887127D01*
X45275167Y-68924902D01*
X45364948Y-68983162D01*
X45478159Y-69058061D01*
X45608919Y-69145752D01*
X45707555Y-69212560D01*
X46205913Y-69551439D01*
X46621326Y-69380192D01*
X47036740Y-69208945D01*
X47149322Y-68611754D01*
X47261905Y-68014562D01*
X48504908Y-68014562D01*
X48617491Y-68611754D01*
G37*
X48617491Y-68611754D02*
X48730073Y-69208945D01*
X49145486Y-69380192D01*
X49560900Y-69551439D01*
X50059257Y-69212560D01*
X50198824Y-69118204D01*
X50324984Y-69033957D01*
X50431851Y-68963665D01*
X50513538Y-68911174D01*
X50564157Y-68880331D01*
X50577942Y-68873680D01*
X50602776Y-68890785D01*
X50655844Y-68938071D01*
X50731196Y-69009499D01*
X50822885Y-69099027D01*
X50924963Y-69200616D01*
X51031482Y-69308225D01*
X51136492Y-69415814D01*
X51234047Y-69517342D01*
X51318198Y-69606768D01*
X51382996Y-69678053D01*
X51422493Y-69725155D01*
X51431936Y-69740919D01*
X51418347Y-69769980D01*
X51380249Y-69833648D01*
X51321649Y-69925694D01*
X51246553Y-70039891D01*
X51158964Y-70170011D01*
X51108210Y-70244228D01*
X51015701Y-70379749D01*
X50933496Y-70502043D01*
X50865586Y-70605022D01*
X50815956Y-70682600D01*
X50788596Y-70728688D01*
X50784485Y-70738374D01*
X50793805Y-70765901D01*
X50819210Y-70830055D01*
X50856867Y-70921817D01*
X50902942Y-71032166D01*
X50953602Y-71152082D01*
X51005015Y-71272546D01*
X51053345Y-71384536D01*
X51094762Y-71479034D01*
X51125430Y-71547019D01*
X51141517Y-71579470D01*
X51142467Y-71580747D01*
X51167728Y-71586944D01*
X51235001Y-71600767D01*
X51337316Y-71620859D01*
X51467697Y-71645861D01*
X51619172Y-71674413D01*
X51707549Y-71690878D01*
X51869408Y-71721696D01*
X52015605Y-71751021D01*
X52138743Y-71777248D01*
X52231425Y-71798773D01*
X52286257Y-71813992D01*
X52297279Y-71818820D01*
X52308074Y-71851501D01*
X52316785Y-71925312D01*
X52323416Y-72031619D01*
X52327974Y-72161794D01*
X52330465Y-72307203D01*
X52330894Y-72459217D01*
X52329267Y-72609204D01*
X52325591Y-72748533D01*
X52319871Y-72868572D01*
X52312113Y-72960692D01*
X52302324Y-73016259D01*
X52296452Y-73027827D01*
X52261355Y-73041692D01*
X52186984Y-73061515D01*
X52083179Y-73084966D01*
X51959775Y-73109718D01*
X51916697Y-73117725D01*
X51709003Y-73155768D01*
X51544940Y-73186406D01*
X51419086Y-73210856D01*
X51326021Y-73230336D01*
X51260323Y-73246063D01*
X51216573Y-73259255D01*
X51189348Y-73271131D01*
X51173228Y-73282907D01*
X51170973Y-73285235D01*
X51148459Y-73322727D01*
X51114114Y-73395692D01*
X51071367Y-73495194D01*
X51023648Y-73612300D01*
X50974386Y-73738075D01*
X50927011Y-73863584D01*
X50884951Y-73979892D01*
X50851636Y-74078066D01*
X50830497Y-74149170D01*
X50824961Y-74184269D01*
X50825422Y-74185499D01*
X50844179Y-74214188D01*
X50886732Y-74277312D01*
X50948609Y-74368300D01*
X51025338Y-74480582D01*
X51112447Y-74607587D01*
X51137254Y-74643680D01*
X51225708Y-74774530D01*
X51303544Y-74893918D01*
X51366522Y-74994989D01*
X51410401Y-75070886D01*
X51430941Y-75114754D01*
X51431936Y-75120144D01*
X51414678Y-75148471D01*
X51366991Y-75204588D01*
X51295006Y-75282464D01*
X51204853Y-75376067D01*
X51102661Y-75479368D01*
X50994561Y-75586333D01*
X50886684Y-75690933D01*
X50785160Y-75787136D01*
X50696118Y-75868911D01*
X50625689Y-75930227D01*
X50580003Y-75965053D01*
X50567365Y-75970739D01*
X50537947Y-75957347D01*
X50477717Y-75921226D01*
X50396485Y-75868463D01*
X50333986Y-75825994D01*
X50220741Y-75748067D01*
X50086630Y-75656311D01*
X49952111Y-75564702D01*
X49879789Y-75515673D01*
X49634994Y-75350097D01*
X49429506Y-75461202D01*
X49335892Y-75509875D01*
X49256286Y-75547708D01*
X49202423Y-75569285D01*
X49188713Y-75572288D01*
X49172226Y-75550120D01*
X49139701Y-75487476D01*
X49093564Y-75390136D01*
X49036246Y-75263876D01*
X48970172Y-75114477D01*
X48897771Y-74947715D01*
X48821472Y-74769369D01*
X48743702Y-74585218D01*
X48666890Y-74401039D01*
X48593462Y-74222612D01*
X48525848Y-74055714D01*
X48466476Y-73906124D01*
X48417772Y-73779620D01*
X48382166Y-73681981D01*
X48362086Y-73618984D01*
X48358856Y-73597348D01*
X48384452Y-73569751D01*
X48440494Y-73524952D01*
X48515267Y-73472261D01*
X48521543Y-73468092D01*
X48714801Y-73313396D01*
X48870630Y-73132918D01*
X48987680Y-72932429D01*
X49064601Y-72717701D01*
X49100042Y-72494504D01*
X49092653Y-72268608D01*
X49041083Y-72045786D01*
X48943982Y-71831806D01*
X48915414Y-71784991D01*
X48766824Y-71595945D01*
X48591283Y-71444139D01*
X48394866Y-71330361D01*
X48183649Y-71255402D01*
X47963709Y-71220049D01*
X47741119Y-71225094D01*
X47521957Y-71271326D01*
X47312298Y-71359533D01*
X47118217Y-71490506D01*
X47058182Y-71543664D01*
X46905391Y-71710066D01*
X46794053Y-71885239D01*
X46717679Y-72081593D01*
X46675143Y-72276044D01*
X46664642Y-72494669D01*
X46699656Y-72714379D01*
X46776629Y-72927747D01*
X46892003Y-73127349D01*
X47042221Y-73305756D01*
X47223729Y-73455544D01*
X47247583Y-73471333D01*
X47323157Y-73523039D01*
X47380607Y-73567839D01*
X47408073Y-73596444D01*
X47408473Y-73597348D01*
X47402576Y-73628291D01*
X47379201Y-73698518D01*
X47340777Y-73802252D01*
X47289733Y-73933717D01*
X47228498Y-74087134D01*
X47159500Y-74256728D01*
X47085169Y-74436720D01*
X47007934Y-74621335D01*
X46930224Y-74804795D01*
X46854467Y-74981323D01*
X46783093Y-75145141D01*
X46718530Y-75290474D01*
X46663208Y-75411544D01*
X46619556Y-75502574D01*
X46590002Y-75557787D01*
X46578100Y-75572288D01*
X46541733Y-75560996D01*
X46473686Y-75530712D01*
X46385692Y-75486847D01*
X46337306Y-75461202D01*
X46131819Y-75350097D01*
X45887024Y-75515673D01*
X45762062Y-75600497D01*
X45625251Y-75693843D01*
X45497044Y-75781735D01*
X45432827Y-75825994D01*
X45342507Y-75886645D01*
X45266027Y-75934708D01*
X45213363Y-75964097D01*
X45196258Y-75970309D01*
X45171361Y-75953550D01*
X45116261Y-75906763D01*
X45036299Y-75834807D01*
X44936816Y-75742539D01*
X44823156Y-75634817D01*
X44751271Y-75565653D01*
X44625507Y-75442084D01*
X44516819Y-75331561D01*
X44429601Y-75238812D01*
X44368245Y-75168564D01*
X44337147Y-75125547D01*
X44334164Y-75116817D01*
X44348009Y-75083611D01*
X44386268Y-75016469D01*
X44444697Y-74922190D01*
X44519053Y-74807572D01*
X44605091Y-74679410D01*
X44629558Y-74643680D01*
X44718710Y-74513816D01*
X44798694Y-74396896D01*
X44865036Y-74299489D01*
X44913267Y-74228166D01*
X44938913Y-74189497D01*
X44941391Y-74185499D01*
X44937685Y-74154682D01*
X44918017Y-74086926D01*
X44885816Y-73991166D01*
X44844511Y-73876336D01*
X44797531Y-73751371D01*
X44748305Y-73625206D01*
X44700264Y-73506775D01*
X44656837Y-73405012D01*
X44621452Y-73328853D01*
X44597540Y-73287231D01*
X44595840Y-73285235D01*
X44581218Y-73273340D01*
X44556521Y-73261577D01*
X44516328Y-73248728D01*
X44455219Y-73233576D01*
X44367773Y-73214903D01*
X44248568Y-73191492D01*
X44092183Y-73162124D01*
X43893199Y-73125582D01*
X43850116Y-73117725D01*
X43722426Y-73093054D01*
X43611109Y-73068920D01*
X43526001Y-73047651D01*
X43476939Y-73031575D01*
X43470361Y-73027827D01*
X43459520Y-72994600D01*
X43450709Y-72920348D01*
X43443932Y-72813703D01*
X43439196Y-72683294D01*
X43436506Y-72537754D01*
X43435869Y-72385713D01*
X43437290Y-72235803D01*
X43440776Y-72096655D01*
X43446332Y-71976899D01*
X43453964Y-71885168D01*
X43463678Y-71830093D01*
X43469534Y-71818820D01*
X43502136Y-71807450D01*
X43576374Y-71788951D01*
X43684852Y-71764929D01*
X43820173Y-71736989D01*
X43974941Y-71706735D01*
X44059263Y-71690878D01*
X44219252Y-71660971D01*
X44361923Y-71633877D01*
X44480304Y-71610958D01*
X44567421Y-71593570D01*
X44616301Y-71583074D01*
X44624346Y-71580747D01*
X44637943Y-71554513D01*
X44666685Y-71491322D01*
X44706741Y-71400204D01*
X44754280Y-71290184D01*
X44805471Y-71170292D01*
X44856482Y-71049554D01*
X44903482Y-70936998D01*
X44942640Y-70841653D01*
X44970125Y-70772544D01*
X44982105Y-70738701D01*
X44982328Y-70737222D01*
X44968747Y-70710524D01*
X44930671Y-70649087D01*
X44872103Y-70559016D01*
X44797044Y-70446417D01*
X44709496Y-70317397D01*
X44658603Y-70243288D01*
X44565865Y-70107404D01*
X44483497Y-69984036D01*
X44415517Y-69879424D01*
X44365944Y-69799810D01*
X44338798Y-69751434D01*
X44334877Y-69740589D01*
X44351731Y-69715347D01*
X44398324Y-69661451D01*
X44468704Y-69584940D01*
X44556921Y-69491850D01*
X44657021Y-69388222D01*
X44763054Y-69280091D01*
X44869067Y-69173497D01*
X44969108Y-69074477D01*
X45057226Y-68989069D01*
X45127469Y-68923312D01*
X45173884Y-68883243D01*
X45189412Y-68873680D01*
X45214695Y-68887127D01*
X45275167Y-68924902D01*
X45364948Y-68983162D01*
X45478159Y-69058061D01*
X45608919Y-69145752D01*
X45707555Y-69212560D01*
X46205913Y-69551439D01*
X46621326Y-69380192D01*
X47036740Y-69208945D01*
X47149322Y-68611754D01*
X47261905Y-68014562D01*
X48504908Y-68014562D01*
X48617491Y-68611754D01*
%TD*%
D11*
%TO.C,SW1*%
X46780791Y-48895000D03*
X43180791Y-48895000D03*
X46780791Y-47445000D03*
X43180791Y-47445000D03*
%TD*%
D12*
%TO.C,C1*%
X41037000Y-58779500D03*
X41037000Y-60854500D03*
%TD*%
D13*
%TO.C,REF\u002A\u002A*%
X54066001Y-53562001D03*
%TD*%
D14*
%TO.C,R2*%
X41037000Y-54245000D03*
X41037000Y-56245000D03*
%TD*%
D15*
%TO.C,R1*%
X46593000Y-56261000D03*
X44593000Y-56261000D03*
%TD*%
D13*
%TO.C,REF\u002A\u002A*%
X39169001Y-78556001D03*
%TD*%
D16*
%TO.C,J1*%
X54798000Y-59309000D03*
D17*
X54798000Y-62909000D03*
X54798000Y-66509000D03*
%TD*%
M02*
