%TF.GenerationSoftware,KiCad,Pcbnew,(6.0.5)*%
%TF.CreationDate,2022-05-15T18:56:35+01:00*%
%TF.ProjectId,shoulderButton,73686f75-6c64-4657-9242-7574746f6e2e,Rev1-F*%
%TF.SameCoordinates,Original*%
%TF.FileFunction,Legend,Top*%
%TF.FilePolarity,Positive*%
%FSLAX46Y46*%
G04 Gerber Fmt 4.6, Leading zero omitted, Abs format (unit mm)*
G04 Created by KiCad (PCBNEW (6.0.5)) date 2022-05-15 18:56:35*
%MOMM*%
%LPD*%
G01*
G04 APERTURE LIST*
%ADD10C,0.150000*%
%ADD11C,0.127000*%
%ADD12C,0.300000*%
%ADD13C,0.120000*%
G04 APERTURE END LIST*
D10*
X47006380Y-78922571D02*
X46673047Y-78922571D01*
X46673047Y-79446380D02*
X46673047Y-78446380D01*
X47149238Y-78446380D01*
X47673047Y-79446380D02*
X47577809Y-79398761D01*
X47530190Y-79351142D01*
X47482571Y-79255904D01*
X47482571Y-78970190D01*
X47530190Y-78874952D01*
X47577809Y-78827333D01*
X47673047Y-78779714D01*
X47815904Y-78779714D01*
X47911142Y-78827333D01*
X47958761Y-78874952D01*
X48006380Y-78970190D01*
X48006380Y-79255904D01*
X47958761Y-79351142D01*
X47911142Y-79398761D01*
X47815904Y-79446380D01*
X47673047Y-79446380D01*
X48434952Y-79446380D02*
X48434952Y-78779714D01*
X48434952Y-78970190D02*
X48482571Y-78874952D01*
X48530190Y-78827333D01*
X48625428Y-78779714D01*
X48720666Y-78779714D01*
X49768285Y-79398761D02*
X49863523Y-79446380D01*
X50054000Y-79446380D01*
X50149238Y-79398761D01*
X50196857Y-79303523D01*
X50196857Y-79255904D01*
X50149238Y-79160666D01*
X50054000Y-79113047D01*
X49911142Y-79113047D01*
X49815904Y-79065428D01*
X49768285Y-78970190D01*
X49768285Y-78922571D01*
X49815904Y-78827333D01*
X49911142Y-78779714D01*
X50054000Y-78779714D01*
X50149238Y-78827333D01*
X51054000Y-79398761D02*
X50958761Y-79446380D01*
X50768285Y-79446380D01*
X50673047Y-79398761D01*
X50625428Y-79351142D01*
X50577809Y-79255904D01*
X50577809Y-78970190D01*
X50625428Y-78874952D01*
X50673047Y-78827333D01*
X50768285Y-78779714D01*
X50958761Y-78779714D01*
X51054000Y-78827333D01*
X51482571Y-79446380D02*
X51482571Y-78779714D01*
X51482571Y-78446380D02*
X51434952Y-78494000D01*
X51482571Y-78541619D01*
X51530190Y-78494000D01*
X51482571Y-78446380D01*
X51482571Y-78541619D01*
X52339714Y-79398761D02*
X52244476Y-79446380D01*
X52054000Y-79446380D01*
X51958761Y-79398761D01*
X51911142Y-79303523D01*
X51911142Y-78922571D01*
X51958761Y-78827333D01*
X52054000Y-78779714D01*
X52244476Y-78779714D01*
X52339714Y-78827333D01*
X52387333Y-78922571D01*
X52387333Y-79017809D01*
X51911142Y-79113047D01*
X52815904Y-78779714D02*
X52815904Y-79446380D01*
X52815904Y-78874952D02*
X52863523Y-78827333D01*
X52958761Y-78779714D01*
X53101619Y-78779714D01*
X53196857Y-78827333D01*
X53244476Y-78922571D01*
X53244476Y-79446380D01*
X54149238Y-79398761D02*
X54054000Y-79446380D01*
X53863523Y-79446380D01*
X53768285Y-79398761D01*
X53720666Y-79351142D01*
X53673047Y-79255904D01*
X53673047Y-78970190D01*
X53720666Y-78874952D01*
X53768285Y-78827333D01*
X53863523Y-78779714D01*
X54054000Y-78779714D01*
X54149238Y-78827333D01*
X54958761Y-79398761D02*
X54863523Y-79446380D01*
X54673047Y-79446380D01*
X54577809Y-79398761D01*
X54530190Y-79303523D01*
X54530190Y-78922571D01*
X54577809Y-78827333D01*
X54673047Y-78779714D01*
X54863523Y-78779714D01*
X54958761Y-78827333D01*
X55006380Y-78922571D01*
X55006380Y-79017809D01*
X54530190Y-79113047D01*
X55434952Y-79351142D02*
X55482571Y-79398761D01*
X55434952Y-79446380D01*
X55387333Y-79398761D01*
X55434952Y-79351142D01*
X55434952Y-79446380D01*
X55434952Y-79065428D02*
X55387333Y-78494000D01*
X55434952Y-78446380D01*
X55482571Y-78494000D01*
X55434952Y-79065428D01*
X55434952Y-78446380D01*
%TO.C,SW1*%
X42476227Y-52170264D02*
X42676457Y-52237008D01*
X43010175Y-52237008D01*
X43143662Y-52170264D01*
X43210406Y-52103521D01*
X43277149Y-51970034D01*
X43277149Y-51836547D01*
X43210406Y-51703060D01*
X43143662Y-51636316D01*
X43010175Y-51569573D01*
X42743201Y-51502829D01*
X42609714Y-51436086D01*
X42542970Y-51369342D01*
X42476227Y-51235855D01*
X42476227Y-51102368D01*
X42542970Y-50968881D01*
X42609714Y-50902138D01*
X42743201Y-50835394D01*
X43076919Y-50835394D01*
X43277149Y-50902138D01*
X43744354Y-50835394D02*
X44078071Y-52237008D01*
X44345046Y-51235855D01*
X44612020Y-52237008D01*
X44945737Y-50835394D01*
X46213864Y-52237008D02*
X45412942Y-52237008D01*
X45813403Y-52237008D02*
X45813403Y-50835394D01*
X45679916Y-51035625D01*
X45546429Y-51169112D01*
X45412942Y-51235855D01*
%TO.C,C1*%
X43074142Y-59983666D02*
X43121761Y-60031285D01*
X43169380Y-60174142D01*
X43169380Y-60269380D01*
X43121761Y-60412238D01*
X43026523Y-60507476D01*
X42931285Y-60555095D01*
X42740809Y-60602714D01*
X42597952Y-60602714D01*
X42407476Y-60555095D01*
X42312238Y-60507476D01*
X42217000Y-60412238D01*
X42169380Y-60269380D01*
X42169380Y-60174142D01*
X42217000Y-60031285D01*
X42264619Y-59983666D01*
X43169380Y-59031285D02*
X43169380Y-59602714D01*
X43169380Y-59317000D02*
X42169380Y-59317000D01*
X42312238Y-59412238D01*
X42407476Y-59507476D01*
X42455095Y-59602714D01*
%TO.C,REF\u002A\u002A*%
X52732667Y-50314381D02*
X52399334Y-49838191D01*
X52161239Y-50314381D02*
X52161239Y-49314381D01*
X52542191Y-49314381D01*
X52637429Y-49362001D01*
X52685048Y-49409620D01*
X52732667Y-49504858D01*
X52732667Y-49647715D01*
X52685048Y-49742953D01*
X52637429Y-49790572D01*
X52542191Y-49838191D01*
X52161239Y-49838191D01*
X53161239Y-49790572D02*
X53494572Y-49790572D01*
X53637429Y-50314381D02*
X53161239Y-50314381D01*
X53161239Y-49314381D01*
X53637429Y-49314381D01*
X54399334Y-49790572D02*
X54066001Y-49790572D01*
X54066001Y-50314381D02*
X54066001Y-49314381D01*
X54542191Y-49314381D01*
X55066001Y-49314381D02*
X55066001Y-49552477D01*
X54827905Y-49457239D02*
X55066001Y-49552477D01*
X55304096Y-49457239D01*
X54923143Y-49742953D02*
X55066001Y-49552477D01*
X55208858Y-49742953D01*
X55827905Y-49314381D02*
X55827905Y-49552477D01*
X55589810Y-49457239D02*
X55827905Y-49552477D01*
X56066001Y-49457239D01*
X55685048Y-49742953D02*
X55827905Y-49552477D01*
X55970762Y-49742953D01*
%TO.C,R2*%
X43139380Y-55411666D02*
X42663190Y-55745000D01*
X43139380Y-55983095D02*
X42139380Y-55983095D01*
X42139380Y-55602142D01*
X42187000Y-55506904D01*
X42234619Y-55459285D01*
X42329857Y-55411666D01*
X42472714Y-55411666D01*
X42567952Y-55459285D01*
X42615571Y-55506904D01*
X42663190Y-55602142D01*
X42663190Y-55983095D01*
X42234619Y-55030714D02*
X42187000Y-54983095D01*
X42139380Y-54887857D01*
X42139380Y-54649761D01*
X42187000Y-54554523D01*
X42234619Y-54506904D01*
X42329857Y-54459285D01*
X42425095Y-54459285D01*
X42567952Y-54506904D01*
X43139380Y-55078333D01*
X43139380Y-54459285D01*
%TO.C,R1*%
X45426333Y-58363380D02*
X45093000Y-57887190D01*
X44854904Y-58363380D02*
X44854904Y-57363380D01*
X45235857Y-57363380D01*
X45331095Y-57411000D01*
X45378714Y-57458619D01*
X45426333Y-57553857D01*
X45426333Y-57696714D01*
X45378714Y-57791952D01*
X45331095Y-57839571D01*
X45235857Y-57887190D01*
X44854904Y-57887190D01*
X46378714Y-58363380D02*
X45807285Y-58363380D01*
X46093000Y-58363380D02*
X46093000Y-57363380D01*
X45997761Y-57506238D01*
X45902523Y-57601476D01*
X45807285Y-57649095D01*
%TO.C,REF\u002A\u002A*%
X37835667Y-75308381D02*
X37502334Y-74832191D01*
X37264239Y-75308381D02*
X37264239Y-74308381D01*
X37645191Y-74308381D01*
X37740429Y-74356001D01*
X37788048Y-74403620D01*
X37835667Y-74498858D01*
X37835667Y-74641715D01*
X37788048Y-74736953D01*
X37740429Y-74784572D01*
X37645191Y-74832191D01*
X37264239Y-74832191D01*
X38264239Y-74784572D02*
X38597572Y-74784572D01*
X38740429Y-75308381D02*
X38264239Y-75308381D01*
X38264239Y-74308381D01*
X38740429Y-74308381D01*
X39502334Y-74784572D02*
X39169001Y-74784572D01*
X39169001Y-75308381D02*
X39169001Y-74308381D01*
X39645191Y-74308381D01*
X40169001Y-74308381D02*
X40169001Y-74546477D01*
X39930905Y-74451239D02*
X40169001Y-74546477D01*
X40407096Y-74451239D01*
X40026143Y-74736953D02*
X40169001Y-74546477D01*
X40311858Y-74736953D01*
X40930905Y-74308381D02*
X40930905Y-74546477D01*
X40692810Y-74451239D02*
X40930905Y-74546477D01*
X41169001Y-74451239D01*
X40788048Y-74736953D02*
X40930905Y-74546477D01*
X41073762Y-74736953D01*
D11*
%TO.C,SW1*%
X45714791Y-49620000D02*
X44246791Y-49620000D01*
X44246791Y-46720000D02*
X45714791Y-46720000D01*
D12*
X48322210Y-48970000D02*
G75*
G03*
X48322210Y-48970000I-141419J0D01*
G01*
D13*
%TO.C,C1*%
X40302000Y-59555748D02*
X40302000Y-60078252D01*
X41772000Y-59555748D02*
X41772000Y-60078252D01*
%TO.C,R2*%
X40302000Y-55017936D02*
X40302000Y-55472064D01*
X41772000Y-55017936D02*
X41772000Y-55472064D01*
%TO.C,R1*%
X45820064Y-56996000D02*
X45365936Y-56996000D01*
X45820064Y-55526000D02*
X45365936Y-55526000D01*
%TD*%
M02*
