%TF.GenerationSoftware,KiCad,Pcbnew,(6.0.0)*%
%TF.CreationDate,2022-06-01T12:39:38+01:00*%
%TF.ProjectId,shoulderButton,73686f75-6c64-4657-9242-7574746f6e2e,Rev1-F*%
%TF.SameCoordinates,Original*%
%TF.FileFunction,Legend,Bot*%
%TF.FilePolarity,Positive*%
%FSLAX46Y46*%
G04 Gerber Fmt 4.6, Leading zero omitted, Abs format (unit mm)*
G04 Created by KiCad (PCBNEW (6.0.0)) date 2022-06-01 12:39:38*
%MOMM*%
%LPD*%
G01*
G04 APERTURE LIST*
%ADD10C,0.300000*%
%ADD11C,0.150000*%
G04 APERTURE END LIST*
D10*
X50767928Y-79899714D02*
X49267928Y-79542571D01*
X50339357Y-79256857D01*
X49267928Y-78971142D01*
X50767928Y-78614000D01*
X49267928Y-78042571D02*
X50767928Y-78042571D01*
X49267928Y-77399714D02*
X50053642Y-77399714D01*
X50196500Y-77471142D01*
X50267928Y-77614000D01*
X50267928Y-77828285D01*
X50196500Y-77971142D01*
X50125071Y-78042571D01*
X49339357Y-76114000D02*
X49267928Y-76256857D01*
X49267928Y-76542571D01*
X49339357Y-76685428D01*
X49482214Y-76756857D01*
X50053642Y-76756857D01*
X50196500Y-76685428D01*
X50267928Y-76542571D01*
X50267928Y-76256857D01*
X50196500Y-76114000D01*
X50053642Y-76042571D01*
X49910785Y-76042571D01*
X49767928Y-76756857D01*
X50267928Y-75399714D02*
X49267928Y-75399714D01*
X50125071Y-75399714D02*
X50196500Y-75328285D01*
X50267928Y-75185428D01*
X50267928Y-74971142D01*
X50196500Y-74828285D01*
X50053642Y-74756857D01*
X49267928Y-74756857D01*
X49267928Y-72685428D02*
X49339357Y-72828285D01*
X49482214Y-72899714D01*
X50767928Y-72899714D01*
X49267928Y-72114000D02*
X50267928Y-72114000D01*
X50767928Y-72114000D02*
X50696500Y-72185428D01*
X50625071Y-72114000D01*
X50696500Y-72042571D01*
X50767928Y-72114000D01*
X50625071Y-72114000D01*
X50267928Y-71542571D02*
X49267928Y-71185428D01*
X50267928Y-70828285D01*
X49339357Y-69685428D02*
X49267928Y-69828285D01*
X49267928Y-70114000D01*
X49339357Y-70256857D01*
X49482214Y-70328285D01*
X50053642Y-70328285D01*
X50196500Y-70256857D01*
X50267928Y-70114000D01*
X50267928Y-69828285D01*
X50196500Y-69685428D01*
X50053642Y-69614000D01*
X49910785Y-69614000D01*
X49767928Y-70328285D01*
X50267928Y-67185428D02*
X49053642Y-67185428D01*
X48910785Y-67256857D01*
X48839357Y-67328285D01*
X48767928Y-67471142D01*
X48767928Y-67685428D01*
X48839357Y-67828285D01*
X49339357Y-67185428D02*
X49267928Y-67328285D01*
X49267928Y-67614000D01*
X49339357Y-67756857D01*
X49410785Y-67828285D01*
X49553642Y-67899714D01*
X49982214Y-67899714D01*
X50125071Y-67828285D01*
X50196500Y-67756857D01*
X50267928Y-67614000D01*
X50267928Y-67328285D01*
X50196500Y-67185428D01*
X49267928Y-66471142D02*
X50267928Y-66471142D01*
X50767928Y-66471142D02*
X50696500Y-66542571D01*
X50625071Y-66471142D01*
X50696500Y-66399714D01*
X50767928Y-66471142D01*
X50625071Y-66471142D01*
X50267928Y-65899714D02*
X49267928Y-65542571D01*
X50267928Y-65185428D01*
X49339357Y-64042571D02*
X49267928Y-64185428D01*
X49267928Y-64471142D01*
X49339357Y-64614000D01*
X49482214Y-64685428D01*
X50053642Y-64685428D01*
X50196500Y-64614000D01*
X50267928Y-64471142D01*
X50267928Y-64185428D01*
X50196500Y-64042571D01*
X50053642Y-63971142D01*
X49910785Y-63971142D01*
X49767928Y-64685428D01*
X49339357Y-63399714D02*
X49267928Y-63256857D01*
X49267928Y-62971142D01*
X49339357Y-62828285D01*
X49482214Y-62756857D01*
X49553642Y-62756857D01*
X49696500Y-62828285D01*
X49767928Y-62971142D01*
X49767928Y-63185428D01*
X49839357Y-63328285D01*
X49982214Y-63399714D01*
X50053642Y-63399714D01*
X50196500Y-63328285D01*
X50267928Y-63185428D01*
X50267928Y-62971142D01*
X50196500Y-62828285D01*
X50267928Y-61114000D02*
X49267928Y-60756857D01*
X50267928Y-60399714D02*
X49267928Y-60756857D01*
X48910785Y-60899714D01*
X48839357Y-60971142D01*
X48767928Y-61114000D01*
X49267928Y-59614000D02*
X49339357Y-59756857D01*
X49410785Y-59828285D01*
X49553642Y-59899714D01*
X49982214Y-59899714D01*
X50125071Y-59828285D01*
X50196500Y-59756857D01*
X50267928Y-59614000D01*
X50267928Y-59399714D01*
X50196500Y-59256857D01*
X50125071Y-59185428D01*
X49982214Y-59114000D01*
X49553642Y-59114000D01*
X49410785Y-59185428D01*
X49339357Y-59256857D01*
X49267928Y-59399714D01*
X49267928Y-59614000D01*
X50267928Y-57828285D02*
X49267928Y-57828285D01*
X50267928Y-58471142D02*
X49482214Y-58471142D01*
X49339357Y-58399714D01*
X49267928Y-58256857D01*
X49267928Y-58042571D01*
X49339357Y-57899714D01*
X49410785Y-57828285D01*
X49267928Y-55756857D02*
X49339357Y-55899714D01*
X49482214Y-55971142D01*
X50767928Y-55971142D01*
X49339357Y-54614000D02*
X49267928Y-54756857D01*
X49267928Y-55042571D01*
X49339357Y-55185428D01*
X49482214Y-55256857D01*
X50053642Y-55256857D01*
X50196500Y-55185428D01*
X50267928Y-55042571D01*
X50267928Y-54756857D01*
X50196500Y-54614000D01*
X50053642Y-54542571D01*
X49910785Y-54542571D01*
X49767928Y-55256857D01*
X49267928Y-53899714D02*
X50267928Y-53899714D01*
X50125071Y-53899714D02*
X50196500Y-53828285D01*
X50267928Y-53685428D01*
X50267928Y-53471142D01*
X50196500Y-53328285D01*
X50053642Y-53256857D01*
X49267928Y-53256857D01*
X50053642Y-53256857D02*
X50196500Y-53185428D01*
X50267928Y-53042571D01*
X50267928Y-52828285D01*
X50196500Y-52685428D01*
X50053642Y-52614000D01*
X49267928Y-52614000D01*
X49267928Y-51685428D02*
X49339357Y-51828285D01*
X49410785Y-51899714D01*
X49553642Y-51971142D01*
X49982214Y-51971142D01*
X50125071Y-51899714D01*
X50196500Y-51828285D01*
X50267928Y-51685428D01*
X50267928Y-51471142D01*
X50196500Y-51328285D01*
X50125071Y-51256857D01*
X49982214Y-51185428D01*
X49553642Y-51185428D01*
X49410785Y-51256857D01*
X49339357Y-51328285D01*
X49267928Y-51471142D01*
X49267928Y-51685428D01*
X50267928Y-50542571D02*
X49267928Y-50542571D01*
X50125071Y-50542571D02*
X50196500Y-50471142D01*
X50267928Y-50328285D01*
X50267928Y-50114000D01*
X50196500Y-49971142D01*
X50053642Y-49899714D01*
X49267928Y-49899714D01*
X49339357Y-49256857D02*
X49267928Y-49114000D01*
X49267928Y-48828285D01*
X49339357Y-48685428D01*
X49482214Y-48614000D01*
X49553642Y-48614000D01*
X49696500Y-48685428D01*
X49767928Y-48828285D01*
X49767928Y-49042571D01*
X49839357Y-49185428D01*
X49982214Y-49256857D01*
X50053642Y-49256857D01*
X50196500Y-49185428D01*
X50267928Y-49042571D01*
X50267928Y-48828285D01*
X50196500Y-48685428D01*
X49339357Y-47899714D02*
X49267928Y-47899714D01*
X49125071Y-47971142D01*
X49053642Y-48042571D01*
X46852928Y-80506857D02*
X46924357Y-80649714D01*
X47067214Y-80721142D01*
X48352928Y-80721142D01*
X46924357Y-79364000D02*
X46852928Y-79506857D01*
X46852928Y-79792571D01*
X46924357Y-79935428D01*
X47067214Y-80006857D01*
X47638642Y-80006857D01*
X47781500Y-79935428D01*
X47852928Y-79792571D01*
X47852928Y-79506857D01*
X47781500Y-79364000D01*
X47638642Y-79292571D01*
X47495785Y-79292571D01*
X47352928Y-80006857D01*
X46852928Y-78649714D02*
X47852928Y-78649714D01*
X47710071Y-78649714D02*
X47781500Y-78578285D01*
X47852928Y-78435428D01*
X47852928Y-78221142D01*
X47781500Y-78078285D01*
X47638642Y-78006857D01*
X46852928Y-78006857D01*
X47638642Y-78006857D02*
X47781500Y-77935428D01*
X47852928Y-77792571D01*
X47852928Y-77578285D01*
X47781500Y-77435428D01*
X47638642Y-77364000D01*
X46852928Y-77364000D01*
X46852928Y-76435428D02*
X46924357Y-76578285D01*
X46995785Y-76649714D01*
X47138642Y-76721142D01*
X47567214Y-76721142D01*
X47710071Y-76649714D01*
X47781500Y-76578285D01*
X47852928Y-76435428D01*
X47852928Y-76221142D01*
X47781500Y-76078285D01*
X47710071Y-76006857D01*
X47567214Y-75935428D01*
X47138642Y-75935428D01*
X46995785Y-76006857D01*
X46924357Y-76078285D01*
X46852928Y-76221142D01*
X46852928Y-76435428D01*
X47852928Y-75292571D02*
X46852928Y-75292571D01*
X47710071Y-75292571D02*
X47781500Y-75221142D01*
X47852928Y-75078285D01*
X47852928Y-74864000D01*
X47781500Y-74721142D01*
X47638642Y-74649714D01*
X46852928Y-74649714D01*
X46924357Y-74006857D02*
X46852928Y-73864000D01*
X46852928Y-73578285D01*
X46924357Y-73435428D01*
X47067214Y-73364000D01*
X47138642Y-73364000D01*
X47281500Y-73435428D01*
X47352928Y-73578285D01*
X47352928Y-73792571D01*
X47424357Y-73935428D01*
X47567214Y-74006857D01*
X47638642Y-74006857D01*
X47781500Y-73935428D01*
X47852928Y-73792571D01*
X47852928Y-73578285D01*
X47781500Y-73435428D01*
X46924357Y-72649714D02*
X46852928Y-72649714D01*
X46710071Y-72721142D01*
X46638642Y-72792571D01*
X47852928Y-71078285D02*
X47852928Y-70506857D01*
X48352928Y-70864000D02*
X47067214Y-70864000D01*
X46924357Y-70792571D01*
X46852928Y-70649714D01*
X46852928Y-70506857D01*
X46852928Y-70006857D02*
X48352928Y-70006857D01*
X46852928Y-69364000D02*
X47638642Y-69364000D01*
X47781500Y-69435428D01*
X47852928Y-69578285D01*
X47852928Y-69792571D01*
X47781500Y-69935428D01*
X47710071Y-70006857D01*
X46924357Y-68078285D02*
X46852928Y-68221142D01*
X46852928Y-68506857D01*
X46924357Y-68649714D01*
X47067214Y-68721142D01*
X47638642Y-68721142D01*
X47781500Y-68649714D01*
X47852928Y-68506857D01*
X47852928Y-68221142D01*
X47781500Y-68078285D01*
X47638642Y-68006857D01*
X47495785Y-68006857D01*
X47352928Y-68721142D01*
X47852928Y-67364000D02*
X46852928Y-67364000D01*
X47710071Y-67364000D02*
X47781500Y-67292571D01*
X47852928Y-67149714D01*
X47852928Y-66935428D01*
X47781500Y-66792571D01*
X47638642Y-66721142D01*
X46852928Y-66721142D01*
X46852928Y-64649714D02*
X46924357Y-64792571D01*
X47067214Y-64864000D01*
X48352928Y-64864000D01*
X46924357Y-63506857D02*
X46852928Y-63649714D01*
X46852928Y-63935428D01*
X46924357Y-64078285D01*
X47067214Y-64149714D01*
X47638642Y-64149714D01*
X47781500Y-64078285D01*
X47852928Y-63935428D01*
X47852928Y-63649714D01*
X47781500Y-63506857D01*
X47638642Y-63435428D01*
X47495785Y-63435428D01*
X47352928Y-64149714D01*
X46852928Y-62792571D02*
X47852928Y-62792571D01*
X47710071Y-62792571D02*
X47781500Y-62721142D01*
X47852928Y-62578285D01*
X47852928Y-62364000D01*
X47781500Y-62221142D01*
X47638642Y-62149714D01*
X46852928Y-62149714D01*
X47638642Y-62149714D02*
X47781500Y-62078285D01*
X47852928Y-61935428D01*
X47852928Y-61721142D01*
X47781500Y-61578285D01*
X47638642Y-61506857D01*
X46852928Y-61506857D01*
X46852928Y-60578285D02*
X46924357Y-60721142D01*
X46995785Y-60792571D01*
X47138642Y-60864000D01*
X47567214Y-60864000D01*
X47710071Y-60792571D01*
X47781500Y-60721142D01*
X47852928Y-60578285D01*
X47852928Y-60364000D01*
X47781500Y-60221142D01*
X47710071Y-60149714D01*
X47567214Y-60078285D01*
X47138642Y-60078285D01*
X46995785Y-60149714D01*
X46924357Y-60221142D01*
X46852928Y-60364000D01*
X46852928Y-60578285D01*
X47852928Y-59435428D02*
X46852928Y-59435428D01*
X47710071Y-59435428D02*
X47781500Y-59364000D01*
X47852928Y-59221142D01*
X47852928Y-59006857D01*
X47781500Y-58864000D01*
X47638642Y-58792571D01*
X46852928Y-58792571D01*
X46924357Y-58149714D02*
X46852928Y-58006857D01*
X46852928Y-57721142D01*
X46924357Y-57578285D01*
X47067214Y-57506857D01*
X47138642Y-57506857D01*
X47281500Y-57578285D01*
X47352928Y-57721142D01*
X47352928Y-57935428D01*
X47424357Y-58078285D01*
X47567214Y-58149714D01*
X47638642Y-58149714D01*
X47781500Y-58078285D01*
X47852928Y-57935428D01*
X47852928Y-57721142D01*
X47781500Y-57578285D01*
X46924357Y-56792571D02*
X46852928Y-56792571D01*
X46710071Y-56864000D01*
X46638642Y-56935428D01*
X46852928Y-54792571D02*
X46924357Y-54935428D01*
X47067214Y-55006857D01*
X48352928Y-55006857D01*
X46924357Y-53649714D02*
X46852928Y-53792571D01*
X46852928Y-54078285D01*
X46924357Y-54221142D01*
X47067214Y-54292571D01*
X47638642Y-54292571D01*
X47781500Y-54221142D01*
X47852928Y-54078285D01*
X47852928Y-53792571D01*
X47781500Y-53649714D01*
X47638642Y-53578285D01*
X47495785Y-53578285D01*
X47352928Y-54292571D01*
X46852928Y-52935428D02*
X47852928Y-52935428D01*
X47710071Y-52935428D02*
X47781500Y-52864000D01*
X47852928Y-52721142D01*
X47852928Y-52506857D01*
X47781500Y-52364000D01*
X47638642Y-52292571D01*
X46852928Y-52292571D01*
X47638642Y-52292571D02*
X47781500Y-52221142D01*
X47852928Y-52078285D01*
X47852928Y-51864000D01*
X47781500Y-51721142D01*
X47638642Y-51649714D01*
X46852928Y-51649714D01*
X46852928Y-50721142D02*
X46924357Y-50864000D01*
X46995785Y-50935428D01*
X47138642Y-51006857D01*
X47567214Y-51006857D01*
X47710071Y-50935428D01*
X47781500Y-50864000D01*
X47852928Y-50721142D01*
X47852928Y-50506857D01*
X47781500Y-50364000D01*
X47710071Y-50292571D01*
X47567214Y-50221142D01*
X47138642Y-50221142D01*
X46995785Y-50292571D01*
X46924357Y-50364000D01*
X46852928Y-50506857D01*
X46852928Y-50721142D01*
X47852928Y-49578285D02*
X46852928Y-49578285D01*
X47710071Y-49578285D02*
X47781500Y-49506857D01*
X47852928Y-49364000D01*
X47852928Y-49149714D01*
X47781500Y-49006857D01*
X47638642Y-48935428D01*
X46852928Y-48935428D01*
X46924357Y-48292571D02*
X46852928Y-48149714D01*
X46852928Y-47864000D01*
X46924357Y-47721142D01*
X47067214Y-47649714D01*
X47138642Y-47649714D01*
X47281500Y-47721142D01*
X47352928Y-47864000D01*
X47352928Y-48078285D01*
X47424357Y-48221142D01*
X47567214Y-48292571D01*
X47638642Y-48292571D01*
X47781500Y-48221142D01*
X47852928Y-48078285D01*
X47852928Y-47864000D01*
X47781500Y-47721142D01*
X46995785Y-47006857D02*
X46924357Y-46935428D01*
X46852928Y-47006857D01*
X46924357Y-47078285D01*
X46995785Y-47006857D01*
X46852928Y-47006857D01*
D11*
%TO.C,J1*%
X52250380Y-62575666D02*
X52964666Y-62575666D01*
X53107523Y-62528047D01*
X53202761Y-62432809D01*
X53250380Y-62289952D01*
X53250380Y-62194714D01*
X53250380Y-63575666D02*
X53250380Y-63004238D01*
X53250380Y-63289952D02*
X52250380Y-63289952D01*
X52393238Y-63194714D01*
X52488476Y-63099476D01*
X52536095Y-63004238D01*
%TD*%
M02*
